<svg width="90" height="90" viewBox="0 0 90 90" fill="none" xmlns="http://www.w3.org/2000/svg">
<path d="M43.0118 12.4981C43.7629 12.9136 44.6038 13.1196 45.458 13.1429C45.9233 13.1562 46.3188 13.0366 46.7509 12.887C46.9503 12.8172 47.1564 12.7574 47.3358 12.6477C47.4854 12.5546 47.6283 12.4383 47.7745 12.3386C48.4891 11.8434 49.1007 11.1122 49.3865 10.2846C49.5361 9.85583 49.5527 9.37723 49.5461 8.92853C49.5427 8.50975 49.5693 8.081 49.443 7.67552C49.1539 6.75819 48.5722 5.93393 47.6715 5.54839C47.502 5.47527 47.3325 5.40547 47.163 5.33568C47.1397 5.3257 47.1131 5.31573 47.0899 5.30576C47.0001 5.21935 46.7941 5.16285 46.691 5.12629C46.5315 5.06978 46.3587 5.05317 46.1925 5.03987C46.1825 5.03987 46.1825 5.03987 46.1759 5.03987C46.0762 5.02658 45.9798 5.00996 45.8801 4.99999C45.7837 4.99002 45.684 4.98337 45.5876 4.97672C45.3616 4.96675 45.1389 4.9601 44.9162 4.93351C44.4908 4.88366 44.0654 4.97672 43.6698 5.13293C43.4405 5.22267 43.2079 5.31573 43.0018 5.452C42.7858 5.59824 42.5764 5.76775 42.3736 5.93061C42.2407 6.03364 42.1077 6.14 41.9914 6.25965C41.7521 6.50892 41.6158 6.76817 41.4862 7.08391C41.4563 7.15371 41.433 7.22683 41.4064 7.29995C41.3832 7.36642 41.2702 7.65558 41.3932 7.35313C41.2868 7.61237 41.207 7.83506 41.1605 8.10759C41.0841 8.54299 40.9777 8.99501 41.0076 9.43705C41.0408 9.94557 41.1871 10.3876 41.4231 10.8363C41.7787 11.5143 42.3371 12.1259 43.0118 12.4981Z" fill="black"/>
<path d="M45.5274 14.1433C45.4942 14.1433 45.4609 14.1433 45.4277 14.1433C44.3874 14.1134 43.3837 13.8475 42.5295 13.3756C41.7119 12.9235 41.0039 12.189 40.5386 11.3049C40.2162 10.6934 40.05 10.1217 40.0102 9.50351C39.9802 9.00829 40.0633 8.5463 40.1398 8.13749L40.1763 7.93475C40.2262 7.6456 40.3026 7.40297 40.399 7.15037C40.409 7.11381 40.4223 7.07725 40.4356 7.04069L40.4622 6.96757C40.4921 6.87783 40.5253 6.79474 40.5586 6.70833C40.6982 6.36267 40.8909 5.95718 41.2698 5.56499C41.4294 5.40214 41.5889 5.27251 41.7551 5.13957L41.8714 5.04651C42.0509 4.90359 42.237 4.75735 42.4431 4.61776C42.7355 4.42166 43.0347 4.30201 43.2972 4.19898C43.9021 3.95967 44.4838 3.87326 45.0289 3.93641C45.1817 3.95635 45.3247 3.95967 45.4709 3.96632L45.6371 3.97297C45.7567 3.97962 45.8731 3.98626 45.9894 3.99956C46.0891 4.00953 46.1855 4.02615 46.2819 4.03944H46.2852C46.4846 4.05606 46.7538 4.08265 47.0297 4.18236L47.0696 4.19565C47.1992 4.23886 47.3886 4.30201 47.5748 4.42166C47.7343 4.48813 47.9005 4.55793 48.0667 4.62773C49.1601 5.09968 49.9844 6.07351 50.3932 7.37306C50.5461 7.85498 50.5428 8.31032 50.5428 8.71248V8.91523C50.5494 9.42707 50.5295 10.0286 50.3267 10.6103C49.9844 11.6007 49.2798 12.5048 48.3425 13.1562C48.2993 13.1861 48.2528 13.2193 48.2096 13.2526C48.0933 13.339 47.9736 13.4254 47.8506 13.5019C47.6014 13.6547 47.3488 13.7378 47.146 13.8076L47.0729 13.8342C46.6142 13.9904 46.119 14.1466 45.5274 14.1466V14.1433ZM42.3633 7.57247C42.35 7.62565 42.3367 7.67551 42.3134 7.72869C42.227 7.94472 42.1705 8.09761 42.1406 8.28041L42.1007 8.49977C42.0409 8.82216 41.9844 9.12462 42.001 9.37389C42.021 9.70625 42.114 10.0154 42.3035 10.3743C42.586 10.9094 43.0181 11.3648 43.4933 11.6273C44.0816 11.953 44.753 12.1259 45.4875 12.1491C45.7667 12.1658 46.0193 12.086 46.4248 11.9464L46.5112 11.9165C46.6342 11.8766 46.7572 11.8334 46.8203 11.7935C46.8901 11.7503 46.9566 11.7004 47.023 11.6506C47.0829 11.6074 47.1427 11.5608 47.2058 11.5176C47.7908 11.1088 48.2428 10.5405 48.4456 9.95553C48.5453 9.66637 48.5552 9.2775 48.5519 8.93517V8.70584C48.5519 8.42333 48.5519 8.15744 48.4921 7.96799C48.3591 7.54256 48.0201 6.77812 47.279 6.45573C47.1128 6.38593 46.9499 6.31614 46.7871 6.24966L46.7306 6.2264C46.6574 6.19649 46.5843 6.1566 46.5178 6.11007C46.4913 6.1001 46.4647 6.09345 46.4414 6.08348L46.355 6.05357C46.3151 6.04028 46.1888 6.0303 46.1057 6.02366C46.0858 6.02366 46.0525 6.01701 46.0326 6.01701L45.9927 6.01036C45.9196 6.00039 45.8432 5.9871 45.77 5.98045C45.6936 5.97048 45.6138 5.96716 45.5341 5.96383L45.3845 5.95718C45.1984 5.95054 45.0023 5.94057 44.7929 5.91398C44.5835 5.89071 44.3242 5.93724 44.0318 6.05025C43.8456 6.12337 43.6695 6.19316 43.5565 6.26961C43.4136 6.36599 43.2673 6.48232 43.1078 6.60862L42.9848 6.705C42.8685 6.79474 42.7754 6.87119 42.7056 6.94098C42.586 7.06396 42.5095 7.1969 42.4065 7.4495C42.3899 7.48938 42.3766 7.52594 42.3633 7.56583V7.57247Z" fill="white"/>
<path d="M32.0105 16.327C32.1767 16.7757 32.3662 17.2277 32.7418 17.5467C32.8282 17.6199 32.9179 17.6863 33.0076 17.7528C33.0276 17.7794 33.0941 17.8226 33.1074 17.8359C33.3068 18.0054 33.5095 18.1616 33.7422 18.2846C34.1344 18.4907 34.5299 18.7167 34.9553 18.843C35.4572 18.9892 35.9391 18.9626 36.4476 18.8795C37.2486 18.7466 38.0164 18.371 38.598 17.8027C39.1863 17.231 39.5918 16.5297 39.8743 15.7653C40.0405 15.3199 40.0438 14.8779 40.0338 14.4092C40.0305 14.1932 40.0272 13.9771 39.9707 13.7644C39.9275 13.5916 39.8643 13.4221 39.8111 13.2526C39.5585 12.425 39.0201 11.624 38.3188 11.1088C37.9665 10.8529 37.5411 10.7 37.1323 10.5704C36.7301 10.4441 36.3512 10.3012 35.9225 10.2813C34.9752 10.238 33.9781 10.5804 33.3367 11.295C33.1938 11.4545 33.0608 11.6307 32.9146 11.7869C32.7384 11.9763 32.5689 12.1591 32.4592 12.3984C32.3462 12.641 32.2332 12.8837 32.1368 13.1329C32.1036 13.2194 32.0704 13.3091 32.0371 13.3988C32.0238 13.4354 32.0105 13.472 31.9973 13.5085C31.9973 13.5152 31.9939 13.5152 31.9906 13.5251C31.9574 13.5949 31.9308 13.668 31.9042 13.7378C31.748 14.1433 31.6682 14.5455 31.6915 14.9942C31.7181 15.4695 31.8344 15.8916 31.9973 16.3303L32.0105 16.327ZM33.0143 17.7561C33.0376 17.7727 33.0608 17.7927 33.0841 17.8126C33.2137 17.9123 33.0475 17.786 33.0143 17.7561Z" fill="black"/>
<path d="M35.723 19.9431C35.3973 19.9431 35.0483 19.9065 34.6827 19.8002C34.2074 19.6606 33.7886 19.4379 33.4197 19.2385L33.2834 19.1653C32.9511 18.9892 32.6885 18.7798 32.4891 18.6136C32.4525 18.587 32.4093 18.5538 32.3628 18.5106C32.2764 18.4441 32.1933 18.381 32.1102 18.3112C31.5485 17.8392 31.2859 17.221 31.0832 16.6759C30.9303 16.2671 30.7508 15.7121 30.7142 15.044C30.6843 14.489 30.7707 13.9472 30.9835 13.3955C31.0167 13.3024 31.0533 13.206 31.0965 13.113L31.2228 12.774C31.3158 12.528 31.4222 12.302 31.5219 12.0827L31.5684 11.9829C31.7412 11.6041 31.9905 11.3348 32.1899 11.1188C32.2631 11.039 32.3262 10.9626 32.3894 10.8861C32.4625 10.7997 32.5356 10.71 32.612 10.6269C33.423 9.72619 34.6793 9.22765 35.9855 9.28415C36.4874 9.30742 36.9162 9.44368 37.2917 9.56666L37.4479 9.61651C37.9432 9.77273 38.4617 9.9655 38.9236 10.3012C39.7845 10.9294 40.4592 11.8999 40.7816 12.9601C40.7982 13.0166 40.8181 13.0698 40.8347 13.1263C40.8779 13.2559 40.9178 13.3822 40.9511 13.5118C41.0342 13.8375 41.0408 14.1433 41.0441 14.3859C41.0541 14.9244 41.0441 15.4994 40.8214 16.1043C40.4658 17.0681 39.9573 17.8758 39.3059 18.5106C38.588 19.2119 37.6341 19.6905 36.6204 19.8567C36.3611 19.8999 36.0587 19.9397 35.7263 19.9397L35.723 19.9431ZM33.8086 17.1213C33.9681 17.2542 34.0911 17.3407 34.2107 17.4038L34.3536 17.4803C34.6661 17.6464 34.9585 17.8026 35.2377 17.8857C35.5202 17.9688 35.8227 17.9722 36.288 17.8957C36.9029 17.796 37.4745 17.5068 37.9066 17.0881C38.3487 16.656 38.6877 16.1109 38.9436 15.4196C39.0466 15.1371 39.0499 14.818 39.0433 14.4292C39.0433 14.2596 39.0366 14.1134 39.0101 14.0104C38.9868 13.924 38.9602 13.8409 38.9303 13.7545C38.907 13.6847 38.8838 13.6115 38.8605 13.5417C38.6644 12.897 38.2423 12.2887 37.7338 11.9132C37.4912 11.737 37.1422 11.6173 36.8331 11.5176L36.6669 11.4645C36.3711 11.3681 36.1152 11.2883 35.8825 11.275C35.1812 11.2418 34.4932 11.5043 34.0844 11.9564C34.0246 12.0228 33.9681 12.0893 33.9149 12.1591C33.8318 12.2621 33.7454 12.3618 33.6557 12.4582C33.5227 12.6011 33.4164 12.7208 33.3732 12.8139L33.3266 12.9169C33.2336 13.1163 33.1472 13.3058 33.0774 13.4919L32.9411 13.8575C32.9278 13.8907 32.9145 13.9206 32.9012 13.9539C32.8912 13.9771 32.8746 14.0104 32.8646 14.0469C32.858 14.0635 32.8547 14.0802 32.848 14.0968C32.7317 14.3959 32.6885 14.6552 32.7018 14.9377C32.7184 15.2534 32.7915 15.5625 32.9477 15.978C33.074 16.3103 33.2003 16.6228 33.3865 16.7823C33.4463 16.8321 33.5094 16.8787 33.5726 16.9285L33.6025 16.9518C33.6025 16.9518 33.6125 16.9584 33.6158 16.9618L33.6723 17.005C33.6723 17.005 33.6989 17.0249 33.7122 17.0349C33.7188 17.0382 33.7221 17.0415 33.7255 17.0449C33.7554 17.0714 33.7853 17.0947 33.8119 17.1213H33.8086Z" fill="white"/>
<path d="M38.4219 19.7503C38.0463 19.86 37.6475 19.983 37.3218 20.2023C36.8864 20.4948 36.5773 20.8571 36.2682 21.2758C36.0721 21.5451 35.8328 21.8176 35.6998 22.1234C35.2644 23.1105 35.2345 24.2472 35.7862 25.1977C36.0156 25.5966 36.2416 26.0519 36.5806 26.3643C36.8797 26.6402 37.2054 26.8828 37.5046 27.1587C38.2491 27.8434 39.2029 28.0129 40.1801 27.9697C40.6687 27.9497 41.1473 27.8833 41.5727 27.6174C41.9117 27.4046 42.264 27.1853 42.5499 26.9061C42.8689 26.597 43.1714 26.3012 43.4339 25.9389C43.6865 25.5899 43.8328 25.1712 43.8993 24.7491C44.0488 23.7918 43.9558 22.8712 43.4971 22.007C43.1215 21.2991 42.5764 20.7374 41.9483 20.2555C41.6226 20.0062 41.2503 19.8699 40.8581 19.7603C40.672 19.7071 40.5025 19.6539 40.3097 19.6273C40.097 19.5974 39.8909 19.6041 39.6782 19.5974C39.2528 19.5874 38.834 19.634 38.4252 19.7536L38.4219 19.7503Z" fill="black"/>
<path d="M39.9074 28.9734C38.6278 28.9734 37.6174 28.6178 36.8297 27.8932C36.6868 27.757 36.5405 27.6373 36.3943 27.5177C36.2281 27.3814 36.0619 27.2418 35.9057 27.0956C35.5069 26.7266 35.2543 26.2813 35.0316 25.8857L34.9253 25.6963C34.2439 24.5164 34.1941 23.0673 34.789 21.7179C34.9419 21.3722 35.1546 21.0964 35.3407 20.8504C35.3839 20.7939 35.4271 20.7407 35.467 20.6842C35.7794 20.2555 36.1816 19.7669 36.7699 19.3714C37.2119 19.0756 37.6939 18.9227 38.1459 18.7898C38.6444 18.6469 39.1696 18.5804 39.7047 18.5937H39.8443C40.0204 18.6003 40.2231 18.6036 40.4425 18.6336C40.6785 18.6668 40.8746 18.7233 41.0507 18.7732L41.1338 18.7964C41.5692 18.9194 42.0811 19.0955 42.5563 19.4611C43.374 20.086 43.9722 20.7673 44.381 21.5384C44.9095 22.5355 45.079 23.6656 44.8862 24.8986C44.7898 25.5102 44.5705 26.0719 44.2448 26.5206C43.9323 26.9526 43.5834 27.2916 43.2477 27.6174C42.8787 27.9763 42.45 28.2455 42.1043 28.4616C41.4662 28.8604 40.7981 28.9402 40.2265 28.9634C40.1201 28.9668 40.0138 28.9701 39.9107 28.9701L39.9074 28.9734ZM38.7009 20.7075C38.3985 20.7939 38.0827 20.8936 37.88 21.0299C37.5676 21.2393 37.3316 21.5152 37.0757 21.8641C37.0291 21.9306 36.9793 21.9938 36.9261 22.0602C36.7998 22.2264 36.6702 22.3959 36.6137 22.5255C36.278 23.2867 36.2913 24.0777 36.6502 24.6992L36.7699 24.9086C36.9261 25.1878 37.089 25.4769 37.2585 25.6332C37.3914 25.7561 37.531 25.8691 37.6673 25.9855C37.8434 26.1317 38.0196 26.2779 38.1858 26.4341C38.6278 26.843 39.2493 27.0125 40.1401 26.9792C40.5854 26.9593 40.848 26.9028 41.0441 26.7798C41.3233 26.607 41.639 26.4076 41.8551 26.1982C42.1442 25.919 42.4134 25.6531 42.6261 25.3606C42.7657 25.1678 42.8654 24.9053 42.912 24.6028C43.0383 23.7919 42.9386 23.0972 42.6128 22.479C42.3403 21.9672 41.9249 21.5019 41.3399 21.0532C41.1704 20.9235 40.951 20.8272 40.5854 20.7241L40.4924 20.6975C40.3627 20.661 40.263 20.6311 40.1733 20.6178C40.0703 20.6045 39.9473 20.6012 39.8077 20.6012H39.6482C39.3158 20.5879 38.9967 20.6277 38.7009 20.7142V20.7075Z" fill="white"/>
<path d="M47.372 21.4088C47.2856 21.5351 47.1859 21.6581 47.1094 21.791C46.9931 21.9904 46.9333 22.2098 46.8601 22.4258C46.7206 22.838 46.6208 23.2202 46.5943 23.6589C46.5677 24.0744 46.5776 24.5064 46.674 24.9119C46.7704 25.3241 46.9831 25.7196 47.2257 26.0619C47.4584 26.3876 47.6911 26.7665 47.9736 27.049C48.3458 27.4213 48.8577 27.6838 49.3496 27.8633C49.8747 28.0528 50.4397 28.0461 50.9781 27.9364C51.1809 27.8966 51.4169 27.8633 51.6096 27.7869C51.6163 27.7869 51.6196 27.7836 51.6229 27.7802C51.7093 27.7703 51.7991 27.757 51.8755 27.737C52.0351 27.6938 52.1946 27.6174 52.3375 27.5343C52.7031 27.3315 53.0421 27.0889 53.4077 26.8862C54.2154 26.4308 54.6574 25.6099 54.9133 24.7524C55.0596 24.2572 55.1493 23.7752 55.0596 23.2601C54.9931 22.8712 54.8602 22.4458 54.694 22.0901C54.3217 21.3024 53.9129 20.5646 53.1186 20.1292C52.2677 19.6639 51.3471 19.4744 50.3865 19.6207C49.662 19.7304 48.9507 20.0162 48.3425 20.4283C47.9337 20.7042 47.6479 21.0033 47.3753 21.4121L47.372 21.4088Z" fill="black"/>
<path d="M50.2505 29.0133C49.8084 29.0133 49.393 28.9435 49.0074 28.8039C48.2829 28.5414 47.6979 28.1891 47.2658 27.757C46.9833 27.4745 46.7606 27.1521 46.5646 26.8629C46.5147 26.7898 46.4615 26.7134 46.4117 26.6436C46.0527 26.1417 45.8134 25.6365 45.7004 25.1413C45.5974 24.6893 45.5641 24.1841 45.5974 23.6024C45.6339 22.9975 45.7768 22.5089 45.9131 22.1068L45.9497 21.9971C46.0162 21.7944 46.0992 21.5451 46.2455 21.2892C46.312 21.1762 46.3851 21.0698 46.4615 20.9635C46.4881 20.9269 46.5147 20.887 46.5413 20.8504C46.8936 20.3253 47.2758 19.9364 47.7777 19.5974C48.5222 19.0922 49.3697 18.7599 50.2339 18.6303C51.3905 18.4574 52.5205 18.6668 53.5907 19.2518C54.6643 19.8401 55.1828 20.8039 55.5882 21.6614C55.791 22.0935 55.9505 22.5987 56.0369 23.0839C56.1699 23.8517 56.0137 24.5264 55.8641 25.0316C55.4819 26.3145 54.8172 27.2285 53.8932 27.7503C53.7204 27.8467 53.5542 27.9497 53.3913 28.0561C53.2052 28.1758 53.0157 28.2921 52.823 28.4018C52.5704 28.5414 52.3543 28.6377 52.1383 28.6976C52.0452 28.7242 51.9522 28.7408 51.8624 28.7541C51.6663 28.8205 51.457 28.8604 51.2841 28.8937L51.1711 28.9169C50.8521 28.9801 50.5463 29.0133 50.2471 29.0133H50.2505ZM48.2031 21.9639C48.1632 22.0204 48.1233 22.0769 48.0835 22.1334C48.0436 22.1866 48.007 22.2397 47.9738 22.2929C47.9339 22.3627 47.8907 22.489 47.8475 22.6186L47.8043 22.7449C47.6713 23.1404 47.6082 23.4229 47.5916 23.7188C47.5683 24.1076 47.5849 24.4234 47.6481 24.6893C47.7012 24.9252 47.8375 25.1978 48.0403 25.4836C48.0968 25.5634 48.1533 25.6465 48.2131 25.7329C48.3693 25.9589 48.5288 26.1915 48.6817 26.3444C48.9011 26.5638 49.2501 26.7632 49.6921 26.9261C49.9912 27.0324 50.3568 27.0457 50.7856 26.9593L50.9218 26.9327C51.0315 26.9128 51.1678 26.8862 51.2409 26.8629C51.324 26.8264 51.4137 26.8031 51.5068 26.7931C51.5434 26.7898 51.5833 26.7865 51.6165 26.7765C51.6697 26.7632 51.7494 26.7233 51.8525 26.6668C52.0153 26.5771 52.1715 26.4741 52.3311 26.3743C52.5272 26.2514 52.7233 26.1251 52.926 26.0154C53.388 25.7561 53.727 25.2476 53.9597 24.4666C54.0926 24.0179 54.1292 23.7154 54.0793 23.4296C54.0261 23.1205 53.9198 22.7848 53.7935 22.5156C53.4412 21.7644 53.1387 21.2759 52.6435 21.0067C51.9655 20.6344 51.2575 20.5015 50.5363 20.6078C49.968 20.6909 49.4029 20.9169 48.9044 21.2526C48.6119 21.4487 48.4158 21.6514 48.2064 21.9639H48.2031Z" fill="white"/>
<path d="M51.5533 17.2975C51.3406 17.0482 51.5234 17.2642 51.5699 17.324C51.653 17.4337 51.7327 17.5534 51.8325 17.6464C52.0053 17.806 52.208 17.929 52.3941 18.0719C53.029 18.5571 53.8499 18.8729 54.6542 18.926C55.0929 18.956 55.5549 18.8496 55.9704 18.7133C56.3593 18.587 56.8013 18.484 57.1503 18.2646C57.599 17.9821 57.9912 17.5933 58.2936 17.1579C58.5927 16.7225 58.719 16.2306 58.7755 15.7121C58.7988 15.5093 58.8154 15.3066 58.8254 15.1039C58.8254 15.0972 58.8254 15.0939 58.8254 15.0906C58.842 14.9942 58.862 14.8945 58.862 14.7948C58.862 14.6319 58.8354 14.4724 58.8021 14.3128C58.719 13.894 58.5894 13.4852 58.5097 13.0665C58.3202 12.1292 57.599 11.4744 56.8478 10.9593C56.4124 10.6635 55.9737 10.464 55.4419 10.4208C55.2625 10.4075 55.083 10.4109 54.9035 10.3943C54.6476 10.3743 54.4016 10.4208 54.149 10.4574C53.7901 10.5073 53.4212 10.5405 53.0788 10.6701C52.6168 10.8429 52.2313 11.0889 51.8823 11.4379C51.3372 11.983 50.8885 12.6942 50.729 13.4587C50.5495 14.3195 50.5927 15.2169 50.8453 16.0577C50.9916 16.543 51.2342 16.9152 51.5566 17.2975H51.5533Z" fill="black"/>
<path d="M54.804 19.9265C54.7309 19.9265 54.6544 19.9265 54.5813 19.9198C53.5942 19.8534 52.5738 19.4678 51.7828 18.8629C51.7263 18.8197 51.6731 18.7798 51.6166 18.7399C51.4737 18.6402 51.3109 18.5239 51.1513 18.3743C51.0018 18.2348 50.8921 18.0885 50.8123 17.9822L50.7026 17.8426C50.686 17.8193 50.6694 17.7994 50.6528 17.7761C50.3736 17.4271 50.0678 16.9618 49.8817 16.3436C49.5826 15.3399 49.536 14.273 49.7454 13.2559C49.9282 12.3619 50.4367 11.4645 51.1679 10.7333C51.6166 10.2846 52.1251 9.95888 52.7201 9.73619C53.1089 9.58995 53.4878 9.5401 53.8235 9.49689L54.0961 9.45701C54.352 9.42045 54.6411 9.37724 54.9735 9.40383C55.0466 9.41048 55.1164 9.41048 55.1895 9.4138C55.2992 9.4138 55.4056 9.42045 55.5153 9.43042C56.1733 9.4836 56.7716 9.70961 57.3998 10.1384C58.1609 10.6568 59.2012 11.5044 59.477 12.8704C59.5169 13.0698 59.5668 13.2626 59.6133 13.452C59.6698 13.6747 59.7263 13.8941 59.7695 14.1201C59.8094 14.3295 59.8493 14.5555 59.846 14.8048C59.846 14.9643 59.8227 15.1006 59.8061 15.2003C59.7928 15.4063 59.7762 15.6157 59.7529 15.8218C59.6698 16.5962 59.4604 17.2011 59.0981 17.7229C58.7093 18.2846 58.2141 18.7632 57.6623 19.1089C57.2768 19.3482 56.8647 19.4745 56.5024 19.5842C56.4193 19.6074 56.3395 19.634 56.2631 19.6573C55.708 19.8367 55.2361 19.9232 54.794 19.9232L54.804 19.9265ZM52.3977 16.769L52.4176 16.7956C52.4475 16.8355 52.4741 16.8787 52.5107 16.9153C52.5738 16.9718 52.6702 17.0416 52.7699 17.1114C52.8464 17.1645 52.9228 17.221 52.9959 17.2775C53.4845 17.6498 54.1127 17.8891 54.7143 17.929C54.9502 17.9456 55.2593 17.8891 55.6549 17.7628C55.7446 17.7329 55.8377 17.7063 55.9307 17.6764C56.1866 17.5966 56.4525 17.5168 56.6154 17.4171C56.9378 17.2177 57.2303 16.9319 57.4662 16.5895C57.6357 16.3469 57.7321 16.0411 57.7787 15.6024C57.7986 15.4196 57.8152 15.2335 57.8252 15.0474C57.8252 15.0075 57.8318 14.9676 57.8352 14.931L57.8451 14.8646C57.8518 14.8347 57.8551 14.8047 57.8584 14.7782C57.8584 14.7183 57.8385 14.612 57.8185 14.5089C57.782 14.3195 57.7321 14.1301 57.6856 13.9439C57.6291 13.7179 57.5693 13.4886 57.5261 13.2593C57.4264 12.7607 57.0408 12.302 56.2797 11.7836C55.9374 11.5509 55.6615 11.4412 55.3524 11.4146C55.2793 11.408 55.2062 11.408 55.133 11.4047C55.0267 11.4047 54.9203 11.398 54.814 11.388C54.7076 11.3781 54.5614 11.4013 54.3919 11.4279L54.0894 11.4711C53.8368 11.5044 53.5975 11.5376 53.418 11.6041C53.0857 11.7271 52.8264 11.8932 52.5772 12.1425C52.1218 12.5945 51.8028 13.1463 51.6964 13.6581C51.5535 14.3527 51.5867 15.0839 51.7895 15.7719C51.8792 16.0711 52.0254 16.317 52.3079 16.6527C52.3379 16.6893 52.3678 16.7291 52.391 16.769H52.3977Z" fill="white"/>
<path d="M67.3343 39.6057C66.6929 36.0927 64.9812 33.7694 62.2425 32.7092C58.5367 31.2734 52.5209 30.9709 48.127 30.9709C45.9533 30.9709 44.2417 31.0474 43.7564 31.0839C39.5819 31.3997 34.6629 31.8882 29.8237 33.0914C25.6824 34.1217 23.5287 36.5713 23.0435 40.8023C21.4847 54.4292 21.5644 66.5106 23.2861 77.7412C23.675 80.2705 24.0306 82.0221 25.3634 83.2419C26.6961 84.4616 28.4776 84.6677 31.0401 84.8405C31.1565 84.8472 31.2695 84.8572 31.3858 84.8671C31.5487 84.8804 31.7115 84.8937 31.8744 84.9037C34.4236 85.0632 36.9729 85.0832 38.9072 85.0832C39.8212 85.0832 40.7352 85.0765 41.6492 85.0732C42.5532 85.0699 43.4606 85.0632 44.3646 85.0632C45.2687 85.0632 46.0796 85.0699 46.8175 85.0798C47.1066 85.0832 47.3925 85.0865 47.6816 85.0865C50.4502 85.0865 53.2089 84.9004 55.8811 84.7209C57.7024 84.5979 59.5836 84.4716 61.4216 84.4085C64.8084 84.2921 66.4104 82.833 66.9455 79.3765C67.0186 78.8979 67.0884 78.4292 67.1382 77.9373C67.5703 73.4703 67.6235 68.9635 67.6733 64.6029C67.7033 61.914 67.7365 59.1321 67.8561 56.4167L67.8628 56.2539C68.1087 50.8297 68.3613 45.2194 67.3377 39.6057H67.3343Z" fill="black"/>
<path d="M47.6782 86.0836C47.3858 86.0836 47.0933 86.0836 46.8008 86.0769C46.0663 86.067 45.2686 86.0603 44.3612 86.0603C43.5104 86.0603 42.6595 86.0636 41.812 86.0703H41.4896C40.6288 86.0769 39.7646 86.0803 38.9038 86.0803C36.9562 86.0803 34.3903 86.0603 31.8078 85.8975C31.6383 85.8875 31.4688 85.8742 31.2993 85.8576C31.1896 85.8476 31.08 85.8376 30.9703 85.831C28.2815 85.6482 26.254 85.4089 24.6853 83.9731C23.1132 82.5339 22.7044 80.5431 22.2956 77.8875C20.5573 66.5705 20.4775 54.3993 22.0463 40.6826C22.5781 36.0461 25.0409 33.2476 29.5777 32.1176C34.4867 30.8978 39.4589 30.4026 43.6766 30.0835C44.1751 30.047 45.92 29.9672 48.1236 29.9672C52.6039 29.9672 58.7526 30.2796 62.6014 31.7753C65.6857 32.9718 67.6068 35.5443 68.3114 39.423C69.355 45.1463 69.0991 50.8131 68.8498 56.2938L68.8432 56.4533C68.7202 59.1488 68.6903 61.9207 68.6604 64.5996C68.6105 68.9868 68.5607 73.5136 68.122 78.0238C68.0721 78.5422 67.999 79.0275 67.9226 79.5194C67.3143 83.4513 65.3168 85.2626 61.4481 85.3956C59.6201 85.4587 57.7489 85.585 55.9408 85.708C53.2553 85.8908 50.4801 86.0769 47.6749 86.0769L47.6782 86.0836ZM44.3612 84.0661C45.2786 84.0661 46.0862 84.0728 46.8274 84.0828C49.8486 84.1293 52.8831 83.9232 55.8079 83.7238C57.6326 83.6008 59.5171 83.4712 61.3816 83.4081C64.2931 83.3083 65.4896 82.2115 65.955 79.2169C66.0281 78.755 66.0945 78.3029 66.1411 77.8343C66.5698 73.4072 66.6197 68.9236 66.6695 64.5896C66.6994 61.8875 66.7327 59.0989 66.8557 56.3702L66.8623 56.2107C67.1049 50.8397 67.3542 45.2892 66.3538 39.7852C65.7788 36.6344 64.2765 34.5671 61.8835 33.6398C58.3205 32.2572 52.4377 31.968 48.1269 31.968C45.9832 31.968 44.3081 32.0411 43.8328 32.0777C39.6982 32.3935 34.8324 32.8721 30.0663 34.0586C26.3305 34.9859 24.4726 37.1031 24.0338 40.9153C22.485 54.4525 22.5615 66.4475 24.2731 77.5884C24.6387 79.9781 24.9412 81.5036 26.038 82.504C27.1315 83.5044 28.7567 83.6839 31.1099 83.8435C31.2295 83.8501 31.3525 83.8601 31.4722 83.8734C31.625 83.8867 31.7813 83.9 31.9375 83.9099C34.4634 84.0695 36.9894 84.0894 38.9071 84.0894C39.7646 84.0894 40.6255 84.0861 41.483 84.0794H41.8054C42.6595 84.0728 43.5137 84.0695 44.3679 84.0695L44.3612 84.0661Z" fill="white"/>
<path d="M44.9126 6.03696C44.7032 6.00705 44.4904 6.02035 44.2877 6.0835C43.9986 6.17323 43.7227 6.27627 43.4701 6.46904C43.2308 6.65184 42.9483 6.85458 42.7489 7.06397C42.5494 7.27668 42.5062 7.52928 42.4032 7.77855C42.3467 7.91482 42.2902 8.0245 42.2669 8.16742C42.2237 8.42334 42.1739 8.67594 42.1373 8.93851C42.0875 9.28749 42.1008 9.65974 42.2403 9.98878C42.5395 10.6834 43.0015 11.2584 43.6529 11.5874C44.3043 11.9165 44.9292 12.0428 45.6404 12.0395C45.9495 12.0395 46.232 11.8932 46.5245 11.7968C46.6641 11.7536 46.7505 11.7237 46.8868 11.614C47.0231 11.5077 47.2291 11.3781 47.3887 11.2551C47.6246 11.0756 47.8473 10.7732 48.0135 10.5405C48.1797 10.3078 48.2894 10.1217 48.3592 9.85583C48.4722 9.4304 48.4389 9.01163 48.4389 8.57623C48.4389 8.39675 48.4556 8.25051 48.4057 8.05774C48.3558 7.86497 48.2694 7.66223 48.1697 7.46281C47.9537 7.0407 47.6546 6.72828 47.2225 6.53883C47.0064 6.44245 46.807 6.36268 46.5877 6.27294C46.5046 6.23971 46.4448 6.18985 46.345 6.15994C46.2453 6.13003 46.1556 6.13667 46.026 6.11341C45.6803 6.05358 45.2815 6.07685 44.9192 6.02699L44.9126 6.03696Z" fill="#A7A9AC"/>
<path d="M44.9128 4.93019C44.4874 4.88033 44.0619 4.9734 43.6664 5.12961C43.4371 5.21934 43.2044 5.31241 42.9984 5.44868C42.7823 5.59492 42.573 5.76442 42.3702 5.92728C42.2373 6.03031 42.1043 6.13667 41.988 6.25632C41.7487 6.50559 41.6124 6.76484 41.4828 7.08059C41.4529 7.15038 41.4296 7.2235 41.403 7.29662C41.3798 7.3631 41.2668 7.65225 41.3897 7.3498C41.2834 7.60904 41.2036 7.83173 41.1571 8.10427C41.0806 8.53966 40.9743 8.99168 41.0042 9.43372C41.0374 9.94224 41.1837 10.3843 41.4196 10.833C41.7753 11.511 42.3337 12.1226 43.0083 12.4948C43.7595 12.9103 44.6004 13.1163 45.4546 13.1396C45.9199 13.1529 46.3154 13.0332 46.7474 12.8837C46.9469 12.8139 47.1529 12.754 47.3324 12.6444C47.482 12.5513 47.6249 12.435 47.7711 12.3353C48.4824 11.84 49.0973 11.1088 49.3831 10.2813C49.5327 9.8525 49.5493 9.3739 49.5426 8.92521C49.5393 8.50643 49.5659 8.07768 49.4396 7.67219C49.1504 6.75487 48.5688 5.9306 47.6681 5.54506C47.4986 5.47194 47.3291 5.40215 47.1596 5.33235C47.123 5.31905 47.0898 5.30244 47.0532 5.28914C47.0167 5.27585 46.9834 5.25923 46.9469 5.24593L47.0898 5.30576C47.0034 5.21602 46.7873 5.15952 46.6843 5.12296C46.5248 5.06646 46.3519 5.04984 46.1858 5.03654C46.0462 5.02325 46.4217 5.06978 46.2755 5.04984C46.1425 5.0299 46.0096 5.00996 45.8767 4.99666C45.7803 4.98669 45.6806 4.98004 45.5842 4.9734C45.3582 4.96342 45.1355 4.95678 44.9128 4.93019C44.6502 4.89695 44.3079 5.07643 44.1317 5.25591C43.939 5.44868 43.7961 5.76442 43.806 6.03696C43.816 6.3095 43.9124 6.6186 44.1317 6.81802C44.3611 7.03073 44.607 7.10385 44.9128 7.14373C45.2186 7.18362 45.5676 7.21685 45.88 7.21021C45.88 7.21021 45.6374 7.17365 45.7637 7.19691C45.8733 7.21685 45.9863 7.23015 46.096 7.24344C46.2954 7.26671 45.8733 7.167 46.0495 7.24344C46.0628 7.25009 45.8235 7.13044 45.9132 7.18694C45.9332 7.20024 45.9597 7.21353 45.9797 7.2235C46.116 7.28997 46.2589 7.34315 46.3985 7.39966C46.4683 7.42957 46.5381 7.45616 46.6079 7.48607C46.7474 7.54257 46.4151 7.39966 46.5547 7.4628C46.5912 7.47942 46.6245 7.49272 46.661 7.50934C46.7175 7.53592 46.774 7.56251 46.8305 7.59575C46.8737 7.62234 47.0665 7.76193 46.9203 7.64228C46.774 7.52263 46.9369 7.6589 46.9668 7.69214C47.01 7.73202 47.0466 7.78187 47.0898 7.82176C47.1696 7.90153 47.0067 7.71208 47.01 7.7154C47.0233 7.74199 47.0466 7.76526 47.0632 7.79184C47.1097 7.86164 47.1529 7.93476 47.1928 8.00788C47.2261 8.07103 47.256 8.1375 47.2892 8.20065C47.3457 8.30701 47.2493 8.10427 47.2493 8.10427C47.2493 8.13418 47.2759 8.17406 47.2859 8.20398C47.3091 8.26713 47.3191 8.33692 47.3424 8.40007C47.3823 8.50975 47.3258 8.28042 47.3258 8.27045C47.3158 8.30369 47.3258 8.36019 47.3258 8.39675C47.3258 8.71249 47.3391 9.03156 47.3224 9.34731C47.3224 9.38387 47.3158 9.42375 47.3158 9.46031C47.3158 9.57997 47.3291 9.35728 47.3324 9.35396C47.3025 9.41711 47.3025 9.51017 47.2859 9.57664C47.2693 9.63647 47.236 9.69962 47.2261 9.76277C47.2261 9.76277 47.3324 9.54673 47.2759 9.63979C47.2526 9.67303 47.236 9.71291 47.2161 9.74947C47.143 9.87245 47.0599 9.98545 46.9768 10.1018C46.8605 10.2613 47.113 9.93892 46.9834 10.0951C46.9302 10.1583 46.8771 10.2214 46.8206 10.2813C46.774 10.3311 46.7209 10.3743 46.6743 10.4242C46.5979 10.5073 46.7674 10.3544 46.7674 10.3544C46.7375 10.3677 46.7076 10.3976 46.681 10.4175C46.5514 10.5073 46.4217 10.6003 46.2921 10.6934C46.2456 10.7266 46.0661 10.8164 46.2489 10.7399C46.4317 10.6635 46.2356 10.7399 46.1891 10.7532C46.0428 10.8031 45.8999 10.8629 45.7537 10.9094C45.7071 10.9227 45.4379 10.9792 45.6274 10.9526C45.8168 10.926 45.5742 10.946 45.5243 10.9427C45.3715 10.9427 45.2186 10.9294 45.0624 10.9161C44.853 10.8961 45.285 10.9593 45.0823 10.9161C45.0158 10.9028 44.946 10.8895 44.8796 10.8762C44.72 10.8396 44.5638 10.7931 44.4109 10.7366C44.3777 10.7233 44.3445 10.71 44.3112 10.6967C44.1982 10.6568 44.4076 10.7366 44.4076 10.7366C44.3544 10.6934 44.268 10.6734 44.2049 10.6402C44.0852 10.5771 43.9755 10.5039 43.8625 10.4308C43.7661 10.371 43.9689 10.5172 43.9656 10.5106C43.9456 10.4906 43.919 10.4707 43.8958 10.4508C43.8426 10.4042 43.7894 10.3544 43.7396 10.3045C43.6963 10.2613 43.6531 10.2148 43.6133 10.1716C43.5933 10.1483 43.5734 10.125 43.5534 10.1018C43.4604 10.0021 43.6897 10.2912 43.6133 10.1782C43.5435 10.0752 43.4703 9.97216 43.4072 9.8658C43.3739 9.8093 43.344 9.75612 43.3141 9.69962C43.2909 9.65641 43.1679 9.40049 43.2477 9.56667C43.3274 9.73285 43.2377 9.51349 43.2244 9.46696C43.2177 9.44037 43.2177 9.38719 43.2011 9.36393C43.2011 9.36725 43.2177 9.59991 43.2177 9.48026C43.2177 9.32737 43.2344 9.16783 43.2277 9.01827C43.2277 9.01827 43.1912 9.25092 43.2144 9.12463C43.2244 9.07477 43.231 9.02159 43.241 8.96841C43.2576 8.86538 43.2776 8.76567 43.2942 8.66264C43.3108 8.57623 43.3208 8.48649 43.3407 8.40007C43.3507 8.36684 43.364 8.33692 43.3706 8.30369C43.3906 8.25051 43.3839 8.26048 43.354 8.34025C43.3042 8.45325 43.3141 8.43331 43.3806 8.2771C43.457 8.09762 43.5268 7.91814 43.5867 7.73534C43.6232 7.62566 43.5401 7.85167 43.5401 7.85167C43.5534 7.8417 43.6033 7.75528 43.6066 7.73867C43.6033 7.75861 43.4637 7.88823 43.5468 7.82841C43.5933 7.79517 43.6299 7.74531 43.6731 7.70875C43.7362 7.65225 43.8027 7.59907 43.8692 7.5459C43.9622 7.46945 43.7927 7.60572 43.7927 7.60572C43.8326 7.57913 43.8692 7.5459 43.9091 7.51598C44.042 7.41295 44.1749 7.32321 44.3245 7.24344C44.3544 7.22683 44.4674 7.18362 44.3179 7.24344C44.1583 7.30659 44.3145 7.24677 44.3445 7.23347C44.4309 7.20024 44.5206 7.17032 44.607 7.14706C44.6303 7.14041 44.6901 7.13709 44.7101 7.12047C44.6735 7.14706 44.4641 7.13376 44.6236 7.13709C44.72 7.13709 44.8098 7.13709 44.9028 7.15038C45.1654 7.18029 45.5077 7.00414 45.6839 6.82466C45.8767 6.63189 46.0196 6.31615 46.0096 6.04361C45.9996 5.77107 45.9032 5.46197 45.6839 5.26255C45.4546 5.05316 45.2086 4.9734 44.9028 4.93684L44.9128 4.93019Z" fill="black"/>
<path d="M32.9543 14.0802C32.8612 14.2696 32.8047 14.4757 32.8047 14.6884C32.8047 14.9909 32.8147 15.2867 32.921 15.5858C33.0207 15.8683 33.1238 16.2007 33.2634 16.4566C33.4029 16.7125 33.629 16.8322 33.8383 17.005C33.9513 17.1014 34.0378 17.1878 34.1674 17.2543C34.4 17.3739 34.6227 17.5002 34.8587 17.6165C35.1744 17.7728 35.5334 17.8758 35.889 17.8426C36.6402 17.7728 37.3315 17.5102 37.8467 16.9917C38.3618 16.4732 38.6742 15.9182 38.8903 15.2435C38.9833 14.951 38.9335 14.6352 38.9335 14.3295C38.9335 14.1832 38.9335 14.0935 38.8737 13.9306C38.8138 13.7678 38.7573 13.5318 38.6875 13.3423C38.5878 13.0632 38.3718 12.7574 38.2023 12.528C38.0328 12.2954 37.8899 12.1359 37.6605 11.9863C37.2916 11.747 36.8828 11.6506 36.4673 11.5143C36.2978 11.4578 36.1616 11.398 35.9655 11.3847C35.7694 11.3747 35.5467 11.3914 35.3273 11.4279C34.8587 11.5044 34.4698 11.6905 34.1574 12.0428C34.0012 12.219 33.8616 12.3851 33.7087 12.5646C33.6522 12.6344 33.5857 12.6743 33.5259 12.7607C33.4661 12.8471 33.4462 12.9335 33.383 13.0499C33.2168 13.359 33.1171 13.7478 32.9609 14.0769L32.9543 14.0802Z" fill="#939598"/>
<path d="M32.0005 13.5218C31.7811 13.9971 31.6748 14.4624 31.7047 14.9909C31.7313 15.4661 31.8476 15.8882 32.0104 16.327C32.1733 16.7657 32.3661 17.2277 32.7416 17.5467C32.8513 17.6398 32.9676 17.7262 33.084 17.8126C33.2269 17.919 33.0109 17.7595 33.0042 17.7495C33.0208 17.7727 33.0906 17.8226 33.1072 17.8359C33.3067 18.0054 33.5094 18.1616 33.7421 18.2846C34.1342 18.4907 34.5298 18.7167 34.9552 18.843C35.4571 18.9892 35.939 18.9626 36.4475 18.8795C37.2485 18.7466 38.0163 18.371 38.5979 17.8027C39.1795 17.2343 39.5917 16.5297 39.8742 15.7653C40.0404 15.3199 40.0437 14.8779 40.0337 14.4092C40.0304 14.1932 40.0271 13.9771 39.9706 13.7644C39.9274 13.5916 39.8642 13.4221 39.811 13.2526C39.5584 12.425 39.02 11.624 38.3187 11.1088C37.9664 10.8529 37.541 10.7 37.1322 10.5704C36.7234 10.4408 36.3511 10.3012 35.9224 10.2813C34.9751 10.238 33.978 10.5804 33.3366 11.295C33.1937 11.4545 33.0607 11.6307 32.9145 11.7869C32.7383 11.9763 32.5688 12.1591 32.4591 12.3984C32.3494 12.6377 32.2331 12.8837 32.1367 13.1329C32.1035 13.2194 32.0703 13.3091 32.037 13.3988C32.0204 13.442 32.0038 13.4852 31.9872 13.5318C31.9107 13.7345 32.0869 13.3157 31.9872 13.5218C31.8576 13.7977 31.7911 14.0702 31.8742 14.376C31.944 14.6319 32.1434 14.9111 32.3827 15.0374C32.8713 15.2966 33.6357 15.2002 33.8983 14.6419C33.988 14.4491 34.0711 14.253 34.1442 14.0569C34.1708 13.9904 34.1941 13.924 34.2173 13.8575C34.234 13.8143 34.2506 13.7711 34.2672 13.7245C34.317 13.585 34.2605 13.7511 34.234 13.7977C34.2971 13.6847 34.3636 13.555 34.4068 13.4321C34.4201 13.3889 34.4799 13.3324 34.3868 13.4354C34.2772 13.555 34.3636 13.4686 34.3868 13.4454C34.4467 13.3889 34.4998 13.329 34.553 13.2659C34.6594 13.1396 34.7657 13.0133 34.8754 12.8903C34.922 12.8405 34.9652 12.7873 35.015 12.7407C35.0482 12.7075 35.2377 12.548 35.0915 12.6676C34.9452 12.7873 35.1147 12.661 35.1546 12.6377C35.1945 12.6145 35.3873 12.528 35.2111 12.6012C35.035 12.6743 35.2344 12.5945 35.2776 12.5812C35.3573 12.5546 35.4371 12.5347 35.5202 12.5181C35.5501 12.5114 35.5867 12.5114 35.6133 12.5014C35.6133 12.5014 35.3773 12.5247 35.5003 12.5147C35.5734 12.5081 35.6432 12.5014 35.7163 12.4981C35.7828 12.4981 35.8559 12.5048 35.9224 12.4981C36.0287 12.4882 35.8094 12.4815 35.7994 12.4782C35.8326 12.4948 35.8858 12.4981 35.9224 12.5081C36.2082 12.5912 36.4974 12.6842 36.7765 12.784C36.8098 12.7973 36.843 12.8105 36.8763 12.8205C36.9893 12.8571 36.7765 12.7773 36.7765 12.7773C36.8297 12.8172 36.9095 12.8405 36.9693 12.8737C37.0225 12.9036 37.0923 12.9701 37.1488 12.9867C37.1488 12.9867 36.9726 12.8338 37.0491 12.9103C37.079 12.9402 37.1122 12.9634 37.1388 12.9933C37.1887 13.0432 37.2319 13.113 37.2851 13.1562C37.2851 13.1562 37.1455 12.9668 37.2153 13.0665C37.2352 13.0931 37.2551 13.1196 37.2718 13.1462C37.3582 13.2659 37.4446 13.3889 37.521 13.5152C37.5576 13.575 37.5942 13.6348 37.6241 13.698C37.6374 13.7279 37.6507 13.7644 37.6706 13.791C37.6706 13.791 37.5942 13.5683 37.6207 13.6813C37.6573 13.8376 37.7138 13.9971 37.7637 14.15C37.7836 14.2065 37.7969 14.2796 37.8235 14.3328C37.8866 14.4524 37.7836 14.15 37.8102 14.1766C37.8202 14.1865 37.8135 14.2464 37.8135 14.2563C37.8135 14.4125 37.8235 14.5721 37.8268 14.7283C37.8268 14.7682 37.8268 14.8047 37.8268 14.8446C37.8268 14.8945 37.8002 15.0507 37.8335 14.8878C37.87 14.7183 37.8102 14.9576 37.7969 14.9975C37.777 15.0607 37.7537 15.1271 37.7304 15.1903C37.7205 15.2202 37.7072 15.2534 37.6939 15.2833C37.6407 15.4229 37.7072 15.2401 37.7304 15.2002C37.5875 15.4462 37.4745 15.6988 37.315 15.9348C37.202 16.0976 37.4579 15.7686 37.3249 15.9215C37.2817 15.9747 37.2385 16.0245 37.192 16.0744C37.0923 16.184 36.9826 16.2804 36.8796 16.3801C36.7965 16.4599 36.9793 16.307 36.976 16.307C36.9494 16.3236 36.9228 16.3469 36.8962 16.3635C36.833 16.4067 36.7699 16.4466 36.7034 16.4832C36.6469 16.5164 36.5871 16.543 36.5306 16.5729C36.3711 16.656 36.7566 16.4898 36.5239 16.5762C36.401 16.6228 36.2747 16.6593 36.1451 16.6926C36.0786 16.7092 36.0154 16.7225 35.949 16.7358C35.9157 16.7424 35.8792 16.7424 35.8492 16.7524C35.9357 16.7258 36.0919 16.7258 35.9057 16.7424C35.836 16.7491 35.7662 16.7524 35.693 16.7524C35.6631 16.7524 35.6166 16.7391 35.5867 16.7457C35.5933 16.7457 35.816 16.7923 35.7063 16.759C35.6399 16.7391 35.5667 16.7258 35.5003 16.7059C35.467 16.6959 35.4338 16.6826 35.3972 16.6726C35.251 16.6261 35.4305 16.6693 35.4637 16.7025C35.4105 16.6494 35.2909 16.6161 35.2244 16.5829C35.1313 16.5363 35.0416 16.4865 34.9485 16.4366C34.8688 16.3934 34.789 16.3469 34.7092 16.3103C34.6694 16.2904 34.5962 16.2206 34.7059 16.3203C34.8322 16.4366 34.7126 16.3236 34.686 16.3004C34.6261 16.2505 34.5696 16.2007 34.5098 16.1541C34.4267 16.091 34.3436 16.0245 34.2605 15.9614C34.2306 15.9381 34.1077 15.8484 34.2506 15.9547C34.3935 16.0611 34.2173 15.9148 34.1808 15.8816C34.1575 15.8583 34.0777 15.7686 34.1874 15.8982C34.3071 16.0378 34.1941 15.8849 34.1708 15.8417C34.1542 15.8118 34.1409 15.7786 34.1243 15.7453C34.0611 15.619 34.1974 15.9481 34.1509 15.8085C34.1243 15.7254 34.091 15.6456 34.0611 15.5658C34.0046 15.403 33.9481 15.2368 33.9049 15.0706C33.8949 15.0374 33.8816 14.9078 33.8983 15.0706C33.9182 15.2401 33.8983 15.0673 33.8983 15.0307C33.8916 14.931 33.8883 14.8313 33.8916 14.7316C33.8916 14.7083 33.9049 14.6452 33.8916 14.6219C33.9082 14.6618 33.8384 14.8646 33.8817 14.7083C33.9049 14.6253 34.0179 14.3594 33.8883 14.6419C34.0146 14.3627 34.0844 14.0935 34.0013 13.7877C33.9315 13.5318 33.7321 13.2526 33.4928 13.1263C33.0075 12.8704 32.2364 12.9601 31.9772 13.5218H32.0005Z" fill="black"/>
<path d="M38.2855 26.3777C38.4384 26.5239 38.6179 26.6402 38.8173 26.71C39.1031 26.8064 39.389 26.8862 39.7047 26.8795C40.0038 26.8729 40.3528 26.8762 40.6387 26.823C40.9245 26.7699 41.1073 26.5904 41.3366 26.4475C41.4629 26.3677 41.5726 26.3145 41.6756 26.2115C41.8618 26.0287 42.0479 25.8559 42.234 25.6664C42.4799 25.4138 42.6893 25.1047 42.7658 24.7591C42.932 24.0212 42.8954 23.2867 42.563 22.6352C42.2307 21.9838 41.7986 21.5152 41.2203 21.0997C40.971 20.9202 40.6553 20.8737 40.3628 20.7773C40.2232 20.7308 40.1368 20.7042 39.964 20.7109C39.7911 20.7175 39.5485 20.7009 39.3491 20.7042C39.0533 20.7109 38.6943 20.8239 38.4251 20.9136C38.1526 21.0033 37.9565 21.0898 37.7438 21.2626C37.4047 21.5384 37.1821 21.8974 36.9261 22.253C36.8198 22.3993 36.7201 22.5056 36.647 22.6917C36.5738 22.8779 36.524 23.0939 36.4907 23.3099C36.4176 23.7786 36.4775 24.204 36.7134 24.6128C36.8331 24.8156 36.9461 24.9984 37.0724 25.2011C37.1189 25.2775 37.1389 25.3507 37.202 25.4371C37.2652 25.5235 37.3416 25.5667 37.4347 25.6631C37.6773 25.9157 38.0163 26.1284 38.2789 26.381L38.2855 26.3777Z" fill="#A7A9AC"/>
<path d="M37.5042 27.1587C38.2487 27.8434 39.2026 28.0129 40.1797 27.9697C40.6683 27.9498 41.1469 27.8833 41.5723 27.6174C41.9113 27.4047 42.2636 27.1853 42.5495 26.9061C42.8685 26.597 43.171 26.3012 43.4335 25.939C43.6961 25.5767 43.8324 25.1712 43.8989 24.7491C44.0484 23.7919 43.9554 22.8712 43.4967 22.0071C43.1211 21.2991 42.5761 20.7374 41.9479 20.2555C41.6222 20.0062 41.2499 19.87 40.8577 19.7603C40.6716 19.7071 40.5021 19.6539 40.3093 19.6274C40.0966 19.5974 39.8905 19.6041 39.6778 19.5974C39.2524 19.5875 38.8336 19.634 38.4248 19.7537C38.0492 19.8633 37.6504 19.9863 37.3247 20.2057C36.8893 20.4981 36.5769 20.8604 36.2711 21.2792C36.075 21.5484 35.8357 21.821 35.7028 22.1267C35.2674 23.1139 35.2374 24.2505 35.7892 25.2011C36.0185 25.5999 36.2445 26.0553 36.5835 26.3677C36.8826 26.6436 37.2084 26.8862 37.5075 27.1621C37.9296 27.5576 38.6575 27.6141 39.0729 27.1621C39.4884 26.71 39.5249 26.0187 39.0729 25.5966C38.8502 25.3906 38.601 25.2177 38.375 25.015C38.2753 24.9252 38.1855 24.8255 38.0792 24.7391C37.9562 24.6361 38.1689 24.9153 38.0991 24.7524C38.0659 24.676 38.0227 24.6095 37.9795 24.5397C37.8997 24.4101 37.8199 24.2805 37.7435 24.1508C37.7069 24.0877 37.667 24.0245 37.6338 23.9581C37.6138 23.9182 37.5441 23.7786 37.6205 23.9348C37.6969 24.091 37.6305 23.9481 37.6205 23.9082C37.6006 23.8451 37.5906 23.7786 37.574 23.7154C37.5441 23.6024 37.5906 23.8484 37.5906 23.8451C37.5939 23.8151 37.5873 23.7753 37.5839 23.7453C37.5839 23.6789 37.5839 23.6091 37.5839 23.5426C37.5839 23.5127 37.5972 23.4695 37.5906 23.4396C37.5972 23.4894 37.5507 23.6789 37.5806 23.5227C37.6072 23.3797 37.6438 23.2435 37.6803 23.1039C37.6903 23.0673 37.7401 22.9643 37.6704 23.1039C37.5972 23.2568 37.667 23.1205 37.687 23.0839C37.7235 23.0208 37.7667 22.961 37.8133 22.9045C37.8964 22.7915 37.9761 22.6785 38.0592 22.5655C38.0991 22.5056 38.1423 22.4491 38.1822 22.3926C38.1988 22.366 38.2786 22.2663 38.1822 22.3926C38.0825 22.5222 38.1822 22.3926 38.2055 22.366C38.3052 22.2497 38.4448 22.1566 38.5345 22.037C38.5345 22.037 38.3484 22.1633 38.4414 22.1134C38.468 22.1001 38.4946 22.0802 38.5212 22.0636C38.5644 22.037 38.7838 21.9373 38.6109 22.0104C38.4381 22.0835 38.6542 22.0004 38.694 21.9838C38.7572 21.9639 38.817 21.9439 38.8802 21.924C39.0264 21.8775 39.1726 21.8442 39.3189 21.8077C39.5183 21.7578 39.0995 21.8077 39.2956 21.8077C39.3754 21.8077 39.4551 21.8043 39.5349 21.8077C39.6812 21.8077 39.8307 21.8143 39.977 21.8143C40.0102 21.8143 40.0434 21.8176 40.0767 21.8143C40.1996 21.801 39.9038 21.8143 39.9205 21.791C39.9304 21.7777 40.0634 21.8343 40.08 21.8376C40.2163 21.8808 40.3559 21.9173 40.4921 21.9572C40.522 21.9672 40.5553 21.9772 40.5852 21.9871C40.6949 22.0204 40.6317 22.0603 40.5021 21.9506C40.5486 21.9905 40.6184 22.0137 40.6716 22.0503C40.6982 22.0702 40.7248 22.0902 40.7514 22.1101C40.8478 22.1799 40.6517 22.0303 40.655 22.037C40.7082 22.0902 40.7713 22.1334 40.8278 22.1799C40.9242 22.263 41.0139 22.3494 41.1004 22.4425C41.1436 22.489 41.1868 22.5355 41.2267 22.5821C41.2466 22.6053 41.2665 22.6286 41.2865 22.6552C41.3829 22.7682 41.2466 22.6153 41.23 22.5787C41.2865 22.6984 41.3928 22.8114 41.4626 22.9277C41.5357 23.0507 41.5889 23.2069 41.672 23.3232C41.672 23.3199 41.5956 23.1139 41.6288 23.2269C41.6388 23.2601 41.6521 23.2933 41.6654 23.3299C41.6886 23.3964 41.7053 23.4662 41.7219 23.536C41.7385 23.6058 41.7385 23.6822 41.7618 23.7453C41.7618 23.7453 41.7418 23.506 41.7451 23.629C41.7451 23.6888 41.7551 23.7487 41.7584 23.8085C41.7651 23.9547 41.7584 24.0977 41.7451 24.2439C41.7318 24.4533 41.785 24.0345 41.7451 24.2439C41.7285 24.3303 41.7152 24.4134 41.692 24.4965C41.682 24.5397 41.6022 24.7491 41.672 24.5862C41.7418 24.4234 41.6454 24.6228 41.6255 24.6627C41.5923 24.7192 41.5524 24.7757 41.5158 24.8289C41.4394 24.9485 41.662 24.6627 41.5657 24.7624C41.5357 24.7923 41.5058 24.8289 41.4759 24.8621C41.3529 24.9917 41.22 25.118 41.0904 25.241C41.0605 25.2709 40.8943 25.3906 40.8943 25.4304C40.8943 25.4238 41.0804 25.3075 40.984 25.364C40.9441 25.3872 40.9076 25.4138 40.871 25.4371C40.7348 25.5202 40.6085 25.6132 40.4755 25.6996C40.4323 25.7262 40.2229 25.8326 40.3924 25.7561C40.5619 25.6797 40.3226 25.7528 40.2761 25.7694C40.2761 25.7694 40.5187 25.7495 40.3957 25.7495C40.3459 25.7495 40.2994 25.7562 40.2495 25.7595C40.1631 25.7628 40.0767 25.7661 39.9903 25.7694C39.9038 25.7728 39.8207 25.7728 39.7377 25.7761C39.6645 25.7761 39.5382 25.7462 39.4718 25.7661C39.4817 25.7661 39.6911 25.8127 39.5781 25.7761C39.5183 25.7595 39.4551 25.7495 39.3953 25.7329C39.3122 25.7096 39.2291 25.6731 39.1427 25.6564C39.0297 25.6332 39.2325 25.6963 39.2391 25.703C39.2092 25.6764 39.1527 25.6598 39.1161 25.6365C39.0862 25.6199 39.0596 25.5966 39.0297 25.58C38.9167 25.5135 39.2358 25.7528 39.063 25.5966C38.6375 25.2044 37.913 25.1446 37.4975 25.5966C37.1053 26.022 37.0422 26.7433 37.4975 27.1621L37.5042 27.1587Z" fill="black"/>
<path d="M52.8496 25.9323C53.0357 25.8326 53.2019 25.6996 53.3282 25.5268C53.5077 25.2842 53.6739 25.0382 53.7636 24.7325C53.85 24.4433 53.9597 24.1143 53.9963 23.8251C54.0328 23.536 53.9198 23.3066 53.8533 23.0441C53.8168 22.9011 53.8002 22.7782 53.7337 22.6485C53.6174 22.4159 53.511 22.1832 53.388 21.9473C53.2252 21.6348 52.9958 21.3424 52.6867 21.1595C52.0386 20.774 51.3241 20.5812 50.6028 20.6976C49.8816 20.8139 49.3033 21.0798 48.7283 21.4986C48.479 21.6814 48.3361 21.9639 48.1566 22.2131C48.0702 22.3295 48.017 22.4059 47.9705 22.5721C47.924 22.7383 47.8309 22.9643 47.7744 23.1571C47.6913 23.4396 47.688 23.8151 47.688 24.101C47.688 24.3868 47.7113 24.6028 47.8076 24.8588C47.9672 25.2676 48.2397 25.59 48.4956 25.9423C48.602 26.0885 48.6718 26.2181 48.828 26.3411C48.9809 26.4674 49.1703 26.5804 49.3698 26.6801C49.7952 26.8962 50.2173 26.9693 50.6793 26.8696C50.9086 26.8197 51.118 26.7665 51.3473 26.71C51.4337 26.6868 51.5102 26.6934 51.6132 26.6602C51.7162 26.6269 51.7794 26.5704 51.899 26.5106C52.2148 26.3577 52.5239 26.1018 52.843 25.929L52.8496 25.9323Z" fill="#F1F2F2"/>
<path d="M53.4078 26.8862C54.2155 26.4308 54.6575 25.6099 54.9134 24.7524C55.0597 24.2572 55.1494 23.7752 55.0597 23.2601C54.9932 22.8712 54.8602 22.4458 54.6941 22.0901C54.3218 21.3024 53.913 20.5646 53.1187 20.1292C52.2678 19.6639 51.3472 19.4744 50.3866 19.6207C49.6621 19.7304 48.9508 20.0162 48.3426 20.4283C47.9338 20.7042 47.6479 21.0033 47.3754 21.4121C47.289 21.5384 47.1893 21.6614 47.1128 21.7943C46.9965 21.9938 46.9367 22.2131 46.8636 22.4292C46.724 22.8413 46.6243 23.2235 46.5977 23.6656C46.5711 24.081 46.5811 24.5131 46.6774 24.9186C46.7738 25.3241 46.9865 25.7262 47.2292 26.0686C47.4718 26.4109 47.6945 26.7732 47.977 27.0557C48.3492 27.4279 48.8611 27.6905 49.353 27.87C49.8781 28.0594 50.4431 28.0528 50.9816 27.9431C51.1843 27.9032 51.4203 27.87 51.6131 27.7935C51.7327 27.747 51.4901 27.8035 51.4834 27.8035C51.5931 27.7935 51.756 27.7769 51.8789 27.7437C52.0385 27.7005 52.198 27.624 52.3409 27.5409C52.7065 27.3382 53.0455 27.0956 53.4111 26.8928C53.9163 26.6103 54.1257 25.8725 53.8067 25.3772C53.4876 24.882 52.8328 24.6793 52.2911 24.9817C52.0185 25.1313 51.7726 25.3241 51.5034 25.4769C51.4402 25.5135 51.3771 25.5434 51.3139 25.58C51.2707 25.6032 51.068 25.6996 51.2475 25.6298C51.4269 25.56 51.2873 25.6165 51.2541 25.6199C51.3172 25.6132 51.6064 25.5733 51.2707 25.6199C51.1444 25.6365 51.0314 25.6597 50.9084 25.6897C50.7489 25.7295 50.5894 25.7694 50.4265 25.8027C50.3966 25.8093 50.3401 25.8093 50.3168 25.8259C50.3235 25.8259 50.5495 25.8093 50.4332 25.8093C50.3501 25.8093 50.2703 25.8126 50.1872 25.8126C49.9878 25.8126 50.3999 25.8658 50.2071 25.8126C50.1407 25.796 50.0709 25.7794 50.0044 25.7595C49.9712 25.7495 49.9379 25.7329 49.9047 25.7229C49.7917 25.6863 49.9978 25.7595 50.0011 25.7628C49.9612 25.7129 49.8283 25.6764 49.7718 25.6431C49.7086 25.6066 49.6488 25.57 49.5856 25.5301C49.559 25.5135 49.5258 25.4803 49.4992 25.4703C49.5092 25.4703 49.6654 25.6232 49.589 25.5368C49.559 25.5035 49.4062 25.334 49.5192 25.4803C49.6322 25.6265 49.4859 25.4238 49.456 25.3872C49.2832 25.1446 49.0937 24.9152 48.9408 24.6593C48.9242 24.6327 48.8179 24.4433 48.8245 24.44C48.8345 24.4333 48.8976 24.656 48.8677 24.5364C48.8578 24.5031 48.8445 24.4699 48.8345 24.4333C48.8145 24.3702 48.8145 24.2937 48.788 24.2372C48.788 24.2372 48.8079 24.4832 48.8079 24.3635C48.8079 24.317 48.8012 24.2671 48.8012 24.2206C48.7979 24.0843 48.8012 23.9481 48.8012 23.8085C48.8012 23.7387 48.8079 23.6689 48.8112 23.5991C48.8112 23.5658 48.8212 23.526 48.8212 23.4927C48.8212 23.5426 48.7747 23.7287 48.8145 23.5825C48.8478 23.4495 48.891 23.3199 48.9342 23.187C48.9575 23.1205 48.9807 23.054 49.004 22.9875C49.0206 22.9377 49.107 22.6984 49.0273 22.8812C48.9541 23.054 49.0372 22.8878 49.0638 22.8446C49.0971 22.7948 49.1369 22.7449 49.1702 22.6917C49.2067 22.6386 49.2433 22.582 49.2799 22.5255C49.2998 22.499 49.3164 22.4724 49.3364 22.4425C49.4161 22.3195 49.3131 22.479 49.2799 22.5089C49.333 22.4624 49.3895 22.3959 49.4361 22.3427C49.5092 22.263 49.3463 22.4125 49.343 22.4125C49.3696 22.4026 49.4028 22.3727 49.4261 22.3527C49.5457 22.273 49.6654 22.1965 49.7917 22.1234C49.9047 22.0602 50.031 22.0137 50.1407 21.9472C50.1473 21.9439 49.9113 22.037 50.0244 21.9971C50.0543 21.9871 50.0842 21.9738 50.1141 21.9605C50.1872 21.9339 50.257 21.9107 50.3301 21.8874C50.4597 21.8475 50.5894 21.8143 50.7223 21.7877C50.7655 21.7777 50.9982 21.7412 50.8187 21.7678C50.6392 21.7943 50.9084 21.7678 50.9583 21.7644C51.0281 21.7644 51.1012 21.7644 51.1743 21.7678C51.2109 21.7678 51.2441 21.7744 51.2807 21.7777C51.4037 21.7811 51.1644 21.7611 51.1644 21.7611C51.304 21.8143 51.4735 21.8243 51.6164 21.8708C51.6862 21.8941 51.7526 21.9206 51.8224 21.9439C51.962 21.9938 51.6297 21.8508 51.7593 21.9206C51.7925 21.9373 51.8258 21.9539 51.859 21.9672C51.9255 22.0004 51.9919 22.037 52.0584 22.0735C52.0983 22.0968 52.3177 22.243 52.1747 22.14C52.0318 22.037 52.2047 22.1766 52.2346 22.2098C52.2645 22.2397 52.4107 22.4125 52.2977 22.2763C52.1847 22.14 52.321 22.3195 52.3409 22.356C52.3841 22.4258 52.4207 22.499 52.4606 22.5721C52.5437 22.7349 52.6234 22.8978 52.7032 23.0607C52.7198 23.0939 52.7364 23.1305 52.7564 23.167C52.8229 23.2867 52.7099 22.9776 52.7231 23.0972C52.7331 23.1737 52.763 23.2567 52.7797 23.3332C52.7963 23.4096 52.8229 23.4828 52.8428 23.5559C52.8627 23.6157 52.8694 23.7254 52.9026 23.7752C52.8993 23.7686 52.8927 23.5326 52.886 23.6456C52.886 23.6888 52.8661 23.8384 52.8993 23.6689C52.9359 23.4861 52.8794 23.752 52.8694 23.7985C52.8262 23.978 52.773 24.1508 52.7198 24.327C52.6999 24.3968 52.6467 24.4931 52.6434 24.5663C52.6434 24.5596 52.7431 24.3668 52.6833 24.4632C52.66 24.5031 52.6401 24.5463 52.6168 24.5862C52.5769 24.656 52.5337 24.7225 52.4872 24.7889C52.4672 24.8189 52.4473 24.8455 52.4273 24.8754C52.3542 24.9917 52.5736 24.7192 52.4805 24.8089C52.434 24.8554 52.3609 24.9119 52.3243 24.9651C52.3243 24.9651 52.5171 24.8355 52.4207 24.8853C52.3742 24.9086 52.331 24.9418 52.2844 24.9684C51.7792 25.2509 51.5665 25.9855 51.8889 26.484C52.2113 26.9826 52.8627 27.1853 53.4045 26.8795L53.4078 26.8862Z" fill="black"/>
<path d="M57.4397 13.3623C57.4031 13.1529 57.3267 12.9535 57.2037 12.7806C57.0275 12.5347 56.8447 12.302 56.5822 12.1225C56.3329 11.953 56.0537 11.7437 55.7911 11.6207C55.5286 11.4944 55.276 11.5343 55.0034 11.5143C54.8539 11.5044 54.7342 11.4844 54.5913 11.5044C54.3321 11.5442 54.0795 11.5741 53.8169 11.6174C53.4679 11.6772 53.1189 11.8035 52.8497 12.0395C52.2814 12.538 51.8792 13.1562 51.7662 13.8774C51.6532 14.5987 51.7297 15.2335 51.949 15.9082C52.0454 16.2007 52.2714 16.4233 52.4509 16.6726C52.5373 16.7923 52.5905 16.8654 52.7334 16.9585C52.8763 17.0548 53.0624 17.211 53.2286 17.3241C53.4712 17.4902 53.8269 17.6099 54.0994 17.6996C54.372 17.786 54.5847 17.8326 54.8572 17.8193C55.2959 17.796 55.6848 17.6365 56.1002 17.5002C56.2698 17.4437 56.416 17.4171 56.5822 17.3074C56.7484 17.2011 56.9179 17.0548 57.0741 16.8986C57.4098 16.5629 57.6125 16.184 57.659 15.7121C57.6823 15.4794 57.6989 15.2634 57.7155 15.0274C57.7222 14.9377 57.7521 14.8679 57.7488 14.7615C57.7455 14.6552 57.7122 14.5754 57.6956 14.4425C57.6491 14.0968 57.4995 13.7245 57.4364 13.3656L57.4397 13.3623Z" fill="#D1D3D4"/>
<path d="M58.5062 13.0665C58.3168 12.1292 57.5956 11.4745 56.8444 10.9593C56.409 10.6635 55.9703 10.4641 55.4385 10.4209C55.259 10.4076 55.0796 10.4109 54.9001 10.3943C54.6442 10.3743 54.3982 10.4209 54.1456 10.4541C53.7867 10.5039 53.4177 10.5372 53.0754 10.6668C52.6134 10.8396 52.2279 11.0856 51.8789 11.4346C51.3338 11.9796 50.8851 12.6909 50.7256 13.4553C50.5461 14.3162 50.5893 15.2135 50.8419 16.0544C50.9882 16.5397 51.2308 16.9119 51.5532 17.2942C51.3405 17.0449 51.5233 17.2609 51.5698 17.3207C51.6529 17.4304 51.7327 17.5501 51.8324 17.6431C52.0052 17.8027 52.2079 17.9256 52.3941 18.0686C53.0289 18.5538 53.8498 18.8696 54.6541 18.9227C55.0929 18.9526 55.5548 18.8463 55.9703 18.71C56.3592 18.5837 56.8012 18.4807 57.1502 18.2613C57.5989 17.9788 57.9911 17.59 58.2935 17.1546C58.596 16.7192 58.7189 16.2273 58.7755 15.7088C58.7987 15.506 58.8153 15.3033 58.8253 15.1005C58.8353 14.8978 58.812 15.1637 58.812 15.1903C58.822 15.0573 58.8619 14.9277 58.8652 14.7948C58.8652 14.6319 58.8386 14.4724 58.8054 14.3128C58.7223 13.8941 58.5927 13.4853 58.5129 13.0665C58.4032 12.4981 57.6919 12.1192 57.1502 12.2921C56.5453 12.4882 56.2595 13.0432 56.3758 13.6548C56.4356 13.9605 56.5386 14.253 56.6051 14.5588C56.6217 14.6286 56.6317 14.7017 56.6417 14.7715C56.6483 14.8047 56.655 14.8413 56.6616 14.8745C56.6816 14.9742 56.645 15.0008 56.6483 14.7615C56.6483 14.7748 56.6849 14.5189 56.6683 14.6386C56.655 14.7482 56.635 14.8546 56.6217 14.9643C56.6118 15.0507 56.6051 15.1371 56.6018 15.2202C56.5918 15.3731 56.5719 15.5226 56.5652 15.6755C56.5586 15.8085 56.5818 15.5492 56.5818 15.5526C56.5719 15.5792 56.5686 15.619 56.5619 15.6489C56.5453 15.7221 56.522 15.7919 56.4988 15.8617C56.4423 16.0445 56.6051 15.6622 56.5087 15.8251C56.4755 15.8783 56.4456 15.9348 56.4123 15.988C56.316 16.1508 56.5619 15.8251 56.4323 15.9713C56.3791 16.0312 56.3259 16.0877 56.2694 16.1442C56.2162 16.1973 56.1631 16.2472 56.1099 16.2937C56.0866 16.3137 56.0467 16.3369 56.0268 16.3635C56.1332 16.2206 56.1697 16.2605 56.0833 16.317C56.0334 16.3502 55.947 16.3801 55.9071 16.42C55.9105 16.4167 56.1265 16.3436 56.0235 16.3669C55.9836 16.3768 55.9437 16.3934 55.9038 16.4034C55.608 16.4965 55.3189 16.6095 55.0164 16.6826C54.9499 16.6992 54.8569 16.6992 54.7937 16.7258C54.8037 16.7225 55.0197 16.7125 54.9001 16.7092C54.8635 16.7092 54.827 16.7125 54.7871 16.7158C54.7206 16.7158 54.6475 16.7025 54.581 16.7059C54.581 16.7059 54.8203 16.7557 54.7106 16.7192C54.6674 16.7059 54.6209 16.6992 54.5777 16.6859C54.4381 16.6494 54.3018 16.6028 54.1689 16.5563C54.1091 16.5364 54.0459 16.5031 53.9861 16.4898C53.9794 16.4898 54.2054 16.5895 54.0991 16.5364C54.0592 16.5164 54.0193 16.4998 53.9828 16.4799C53.7368 16.3536 53.5474 16.1209 53.3014 16.0046C53.2881 15.9979 53.4875 16.1508 53.4011 16.081C53.3945 16.0744 53.3446 16.0312 53.3446 16.0245C53.3446 16.0145 53.4975 16.2339 53.4344 16.1408C53.4144 16.1143 53.3978 16.0877 53.3779 16.0644C53.2948 15.9547 53.2083 15.845 53.1253 15.7354C53.1053 15.7088 53.0854 15.6822 53.0621 15.6589C52.9757 15.5492 53.1884 15.845 53.1153 15.7254C53.0754 15.6622 53.0322 15.5991 52.9923 15.5326C52.8959 15.3731 53.0555 15.7487 53.0023 15.5459C52.9624 15.3897 52.9125 15.2401 52.8793 15.0839C52.866 15.0141 52.8527 14.941 52.8394 14.8712C52.8162 14.7482 52.8527 14.9909 52.856 14.9875C52.856 14.9543 52.8494 14.9144 52.8461 14.8812C52.8328 14.725 52.8295 14.5688 52.8328 14.4126C52.8328 14.3394 52.8394 14.263 52.8461 14.1899C52.8461 14.1533 52.856 14.1134 52.856 14.0769C52.866 13.9506 52.8427 14.1799 52.8427 14.1799C52.8893 14.0536 52.8959 13.9074 52.9391 13.7777C52.9491 13.7478 52.9591 13.7179 52.969 13.688C53.0222 13.5185 52.9358 13.7611 52.9292 13.7777C52.9591 13.7246 52.9823 13.6614 53.0123 13.6082C53.0754 13.4853 53.1485 13.3689 53.2283 13.2559C53.2449 13.2293 53.2682 13.2061 53.2848 13.1795C53.2881 13.1728 53.1319 13.3623 53.2117 13.2759C53.2549 13.2293 53.2948 13.1762 53.338 13.1296C53.4244 13.0366 53.5839 12.9369 53.6437 12.8305C53.6437 12.8305 53.4543 12.9568 53.5507 12.9003C53.5806 12.8837 53.6072 12.8637 53.6338 12.8471C53.687 12.8139 53.7601 12.7939 53.8099 12.7541C53.8099 12.7541 53.5906 12.8305 53.7002 12.8039C53.7335 12.7939 53.7634 12.7806 53.7966 12.7707C53.8698 12.7474 53.9462 12.7275 54.0226 12.7142C54.2088 12.6743 54.3982 12.651 54.5843 12.6244C54.6242 12.6178 54.6608 12.6145 54.7007 12.6078C54.7372 12.6012 54.9134 12.5679 54.7439 12.6012C54.5943 12.6311 54.7007 12.6078 54.7372 12.6078C54.7804 12.6111 54.827 12.6111 54.8702 12.6145C55.0364 12.6278 55.2025 12.6344 55.372 12.6377C55.4053 12.6377 55.5349 12.651 55.3654 12.6311C55.1826 12.6111 55.4385 12.6942 55.2989 12.6078C55.1726 12.5314 55.2723 12.5945 55.2989 12.6078C55.3388 12.6311 55.382 12.651 55.4219 12.6743C55.5715 12.7607 55.7111 12.8571 55.8506 12.9568C55.8806 12.9767 55.9105 12.9967 55.9404 13.0199C56.08 13.1163 55.9736 13.0698 55.9204 12.9934C55.9636 13.0532 56.0467 13.1064 56.0999 13.1595C56.1531 13.2127 56.1996 13.2892 56.2595 13.3423C56.2595 13.3423 56.1232 13.1562 56.193 13.2559C56.2196 13.2958 56.2495 13.3324 56.2727 13.3689C56.2927 13.3988 56.3093 13.4288 56.3292 13.4587C56.4123 13.585 56.306 13.4387 56.306 13.3855C56.306 13.462 56.3625 13.5783 56.3791 13.6581C56.4954 14.2264 57.2 14.6053 57.7418 14.4325C58.3434 14.2364 58.6392 13.6813 58.5162 13.0698L58.5062 13.0665Z" fill="black"/>
<path d="M47.6781 83.9232C47.3956 83.9232 47.1131 83.9232 46.8306 83.9166C46.0063 83.9033 45.1821 83.9 44.3578 83.9C43.4504 83.9 42.5431 83.9033 41.6357 83.9099C40.7251 83.9133 39.8144 83.9199 38.9037 83.9199C36.986 83.9199 34.46 83.9 31.944 83.7438C31.7911 83.7338 31.6382 83.7205 31.482 83.7072C31.359 83.6972 31.2394 83.6872 31.1164 83.6773C26.0179 83.3316 25.2036 82.5871 24.4326 77.5618C22.7242 66.4342 22.6478 54.4525 24.1933 40.9319C24.622 37.1994 26.4434 35.1288 30.0994 34.2181C34.8522 33.0349 39.7113 32.5563 43.8393 32.2406C44.1451 32.2173 45.7704 32.1309 48.1202 32.1309C52.4143 32.1309 58.2805 32.42 61.8169 33.7927C64.1867 34.71 65.6125 36.681 66.1842 39.8152C67.1813 45.2992 66.932 50.8397 66.6927 56.2007L66.686 56.3636C66.5631 59.0956 66.5298 61.8875 66.4999 64.5896C66.4501 68.9236 66.4002 73.4039 65.9715 77.8243C65.9282 78.283 65.8618 78.7151 65.7887 79.197C65.34 82.0919 64.1833 83.1488 61.3749 83.2452C59.5203 83.3084 57.6291 83.438 55.8011 83.5609C53.1488 83.7404 50.4068 83.9265 47.6781 83.9265V83.9232Z" fill="#FAFAFA"/>
<path d="M48.1236 33.2975C52.1319 33.2975 58.0014 33.5601 61.3982 34.8796C63.6483 35.7537 64.6222 37.7213 65.0409 40.0246C66.0247 45.4321 65.7688 50.8762 65.5229 56.3137C65.2005 63.4429 65.5029 70.5954 64.8149 77.7113C64.7717 78.1467 64.7052 78.5821 64.6388 79.0175C64.2865 81.2976 63.6317 82.0022 61.3317 82.0819C56.775 82.2381 52.2416 82.76 47.6749 82.76C47.399 82.76 47.1198 82.76 46.844 82.7533C46.0164 82.74 45.1855 82.7367 44.3579 82.7367C42.5399 82.7367 40.7185 82.7566 38.9005 82.7566C36.6038 82.7566 34.3072 82.7234 32.0139 82.5805C31.7413 82.5639 31.4655 82.534 31.1929 82.5173C26.613 82.2082 26.2706 81.8892 25.5793 77.3856C23.7214 65.2876 23.9574 53.1928 25.3467 41.0649C25.7222 37.7778 27.1946 36.1392 30.3786 35.3482C34.8489 34.2348 39.3658 33.7495 43.9258 33.4039C44.2947 33.3773 45.93 33.2975 48.1203 33.2975M45.2553 35.7936C45.4348 35.7337 45.6142 35.6806 45.7937 35.624C45.6209 35.634 45.4514 35.6407 45.2785 35.6506C45.2719 35.6972 45.2652 35.7437 45.2553 35.7936ZM48.1236 30.9709C45.9499 30.9709 44.2382 31.0474 43.753 31.084C39.5785 31.3997 34.6595 31.8883 29.8203 33.0914C25.679 34.1218 23.5253 36.5713 23.04 40.8023C21.4813 54.4292 21.561 66.5107 23.2827 77.7413C23.6715 80.2706 24.0272 82.0221 25.3599 83.2419C26.6927 84.4617 28.4742 84.6677 31.0367 84.8406C31.1531 84.8472 31.2661 84.8572 31.3824 84.8672C31.5452 84.8804 31.7081 84.8937 31.871 84.9037C34.4202 85.0632 36.9694 85.0832 38.9038 85.0832C39.8178 85.0832 40.7318 85.0765 41.6458 85.0732C42.5498 85.0699 43.4572 85.0632 44.3612 85.0632C45.2652 85.0632 46.0762 85.0699 46.8141 85.0799C47.1032 85.0832 47.3891 85.0865 47.6782 85.0865C50.4468 85.0865 53.2054 84.9004 55.8776 84.7209C57.699 84.5979 59.5802 84.4716 61.4182 84.4085C64.8049 84.2922 66.4069 82.8331 66.9421 79.3765C67.0152 78.8979 67.085 78.4293 67.1348 77.9374C67.5669 73.4704 67.6201 68.9635 67.6699 64.6029C67.6998 61.9141 67.7331 59.1322 67.8527 56.4168L67.8594 56.2539C68.1053 50.8297 68.3579 45.2194 67.3342 39.6058C66.6928 36.0927 64.9811 33.7695 62.2424 32.7092C58.5366 31.2734 52.5208 30.9709 48.1269 30.9709H48.1236Z" fill="black"/>
<path d="M45.255 35.7936C45.4477 34.8862 44.9924 34.6835 44.002 34.7599C39.6812 35.0889 35.407 35.5476 31.1727 36.6012C28.1581 37.3523 26.7655 38.9045 26.4099 42.0154C25.0937 53.4986 24.8711 64.9552 26.6293 76.4085C27.284 80.6727 27.6064 80.9718 31.9438 81.2676C32.203 81.2843 32.4623 81.3108 32.7215 81.3275C37.4012 81.6199 42.0842 81.4205 46.7639 81.4903C51.3572 81.5568 55.9072 81.0117 60.4839 80.8522C62.6609 80.7757 63.2791 80.111 63.6148 77.9506C63.6779 77.5385 63.7411 77.1264 63.781 76.7143C64.4357 69.9739 64.1499 63.2036 64.4523 56.4533C64.685 51.3083 64.9276 46.15 63.997 41.0316C63.5982 38.8513 62.6775 36.9867 60.5471 36.1592C55.5716 34.2281 50.5229 34.0287 45.2583 35.7969L45.255 35.7936Z" fill="#080808"/>
<path d="M47.6781 83.5909C47.3989 83.5909 47.1164 83.5909 46.8372 83.5842C46.0129 83.5709 45.1886 83.5676 44.3644 83.5676C43.457 83.5676 42.5497 83.5742 41.639 83.5776C40.7283 83.5809 39.8176 83.5875 38.907 83.5875C36.8729 83.5875 34.4566 83.5676 31.9639 83.4114C31.811 83.4014 31.6548 83.3881 31.5019 83.3748C31.3789 83.3649 31.2593 83.3549 31.1363 83.3449C26.1674 83.0092 25.5127 82.4076 24.7582 77.5119C23.0532 66.4143 22.9767 54.4625 24.5222 40.9718C24.9377 37.349 26.6294 35.4246 30.1791 34.5439C34.9086 33.3673 39.7512 32.8887 43.8658 32.5763C44.1683 32.553 45.7803 32.4666 48.1234 32.4666C52.391 32.4666 58.2107 32.7524 61.7005 34.1051C63.9539 34.9793 65.3133 36.8671 65.8617 39.875C66.8522 45.3224 66.6029 50.8463 66.3636 56.1874L66.3569 56.3503C66.234 59.089 66.2007 61.8842 66.1708 64.5863C66.1209 68.9137 66.0711 73.3873 65.6457 77.7911C65.6025 78.2398 65.5393 78.6686 65.4662 79.1438C65.0441 81.8692 64.0104 82.8198 61.3681 82.9128C59.5069 82.976 57.6124 83.1056 55.7811 83.2286C53.1355 83.4081 50.4001 83.5909 47.6814 83.5909H47.6781ZM48.3528 36.3852C43.7163 36.3852 39.1396 37.0864 34.4699 37.8675C30.8006 38.4392 28.8928 40.5032 28.4541 44.3619C27.693 51.0491 28.0519 57.6465 28.5571 63.7786C28.7765 66.4542 29.5177 68.1858 30.9568 69.3923C32.4026 70.6054 34.2672 70.971 36.3743 71.2901C38.5513 71.6224 40.8746 71.782 43.4736 71.782C46.6178 71.782 49.752 71.5493 52.9527 71.2901C56.6386 70.9909 59.005 69.02 60.1849 65.2643C62.1126 59.1189 62.6278 52.3453 61.757 44.558C61.1754 39.3631 59.1812 37.4554 53.5509 36.7142C51.8825 36.4948 50.1808 36.3852 48.3528 36.3852Z" fill="#B3B3B3"/>
<path d="M48.1233 33.2975C52.1316 33.2975 58.0012 33.5601 61.3979 34.8796C63.648 35.7537 64.6219 37.7213 65.0406 40.0246C66.0244 45.4321 65.7685 50.8763 65.5226 56.3137C65.2002 63.4429 65.5026 70.5954 64.8146 77.7114C64.7714 78.1468 64.7049 78.5821 64.6385 79.0175C64.2862 81.2976 63.6314 82.0022 61.3314 82.0819C56.7747 82.2382 52.2413 82.76 47.6746 82.76C47.3987 82.76 47.1229 82.76 46.8437 82.7533C46.0161 82.74 45.1852 82.7367 44.3576 82.7367C42.5396 82.7367 40.7215 82.7566 38.9002 82.7566C36.6035 82.7566 34.3069 82.7234 32.0136 82.5805C31.7411 82.5639 31.4652 82.534 31.1927 82.5173C26.6127 82.2082 26.2703 81.8892 25.579 77.3856C23.7211 65.2876 23.9571 53.1928 25.3464 41.0649C25.7219 37.7778 27.1943 36.1392 30.3784 35.3482C34.8487 34.2348 39.3655 33.7495 43.9255 33.4039C44.2945 33.3773 45.9297 33.2975 48.12 33.2975M43.4735 72.6129C46.6576 72.6129 49.8416 72.3769 53.0223 72.1177C57.1902 71.7786 59.7527 69.4222 60.9791 65.5136C63.1428 58.6237 63.3755 51.5343 62.5845 44.4649C61.9397 38.7084 59.4337 36.6511 53.6605 35.8899C51.8823 35.654 50.1142 35.5543 48.3559 35.5543C43.6463 35.5543 38.9833 36.2722 34.3368 37.0499C30.1756 37.7013 28.0983 40.1675 27.633 44.2689C26.8885 50.8065 27.1976 57.3241 27.7327 63.8451C27.9255 66.2049 28.5238 68.4351 30.4249 70.0271C32.09 71.423 34.2005 71.7986 36.2512 72.111C38.6576 72.4766 41.0672 72.6129 43.4768 72.6129M48.1266 31.6357C45.9696 31.6357 44.2845 31.7121 43.8059 31.7487C39.658 32.0644 34.7722 32.5464 29.9828 33.7395C26.0942 34.7067 24.1565 36.9103 23.7012 40.8787C22.149 54.4458 22.2255 66.4708 23.9405 77.6416C24.3194 80.1044 24.6318 81.6765 25.8084 82.7533C26.9849 83.8302 28.5836 84.0097 31.083 84.1792C31.2026 84.1858 31.319 84.1958 31.4386 84.2057C31.5948 84.219 31.7543 84.2323 31.9139 84.2423C34.4299 84.3985 36.8595 84.4218 38.9068 84.4218C39.8175 84.4218 40.7315 84.4151 41.6422 84.4118C42.5495 84.4085 43.4569 84.4018 44.3609 84.4018C45.265 84.4018 46.0826 84.4085 46.8237 84.4185C47.1096 84.4218 47.3921 84.4251 47.6779 84.4251C50.4233 84.4251 53.1719 84.239 55.8308 84.0595C57.6555 83.9365 59.5433 83.8069 61.3913 83.7438C64.4291 83.6407 65.7984 82.3844 66.2804 79.2735C66.3535 78.8048 66.4233 78.3462 66.4665 77.8742C66.8986 73.4338 66.9484 68.9403 66.9983 64.5963C67.0282 61.9008 67.0614 59.1122 67.1844 56.3902L67.191 56.2273C67.4337 50.8397 67.6863 45.2659 66.6759 39.7288C66.0809 36.4583 64.5055 34.3046 61.9995 33.3307C58.39 31.9315 52.4606 31.6357 48.1233 31.6357H48.1266ZM43.4735 70.9511C40.9176 70.9511 38.6343 70.7915 36.4972 70.4691C34.5163 70.1667 32.7714 69.831 31.4885 68.7541C30.2155 67.6872 29.5873 66.1783 29.3846 63.7088C28.886 57.6199 28.5271 51.0723 29.2782 44.455C29.6737 40.9818 31.3123 39.2036 34.5861 38.6918C34.5927 38.6918 34.5994 38.6918 34.6027 38.6918C39.2359 37.9174 43.776 37.2194 48.346 37.2194C50.1374 37.2194 51.8026 37.3258 53.4345 37.5385C58.6426 38.2265 60.3909 39.8883 60.926 44.6511C61.7835 52.322 61.2816 58.9859 59.3871 65.0184C58.3069 68.4617 56.2396 70.1933 52.8827 70.4625C49.6987 70.7217 46.5844 70.9511 43.4702 70.9511H43.4735Z" fill="black"/>
<path d="M43.4439 43.2385C43.4937 44.1093 43.2012 44.7441 42.2773 44.9269C41.3234 45.1164 40.6154 44.7341 40.3861 43.8102C40.1834 42.9892 40.6819 42.4674 41.4696 42.2348C42.4368 41.9489 43.0317 42.4009 43.4439 43.2385Z" fill="#B3B3B3"/>
<path d="M49.7387 43.6905C49.9548 44.6344 49.5692 45.1961 48.8281 45.4687C48.057 45.7512 47.3324 45.4853 47.0699 44.7209C46.7874 43.9032 47.1363 43.2285 48.0337 42.9427C48.8846 42.6702 49.3599 43.1521 49.7421 43.6905H49.7387Z" fill="#B3B3B3"/>
<path d="M37.9763 52.8771C37.7071 52.8305 37.4446 52.7641 37.182 52.671C37.0025 52.6078 36.8197 52.5314 36.6835 52.3918C36.3444 52.0395 36.6103 51.4313 36.8097 51.0757C37.0657 50.6236 37.5509 50.5771 38.0262 50.6336C43.3872 51.2817 45.87 50.617 50.8488 50.6469C52.0054 50.6535 52.0985 51.3881 52.145 52.1226C52.1916 52.8571 51.6598 53.3623 50.8123 53.3191C49.2236 53.2427 47.5318 52.7142 45.7404 52.671C44.3245 52.6378 42.9086 52.774 41.4961 52.8538C40.3262 52.9203 39.133 53.0798 37.9763 52.8771Z" fill="#B3B3B3"/>
</svg>
