<svg width="90" height="90" viewBox="0 0 90 90" fill="none" xmlns="http://www.w3.org/2000/svg">
<path d="M76.361 52.6033C76.2377 51.4902 76.1219 50.3733 76.0061 49.2564C75.5392 44.7142 75.0574 40.0189 73.862 35.4767C73.2158 33.0189 72.3604 31.5247 71.0381 30.6618C70.9335 30.1688 70.616 29.728 70.1528 29.5002C70.0781 29.4628 68.0797 28.4991 65.1848 27.1058C65.0989 25.1821 64.9121 23.2509 64.561 21.316C63.9708 18.0774 62.3908 15.9371 59.8694 14.9584C56.4516 13.6324 50.9083 13.356 46.8554 13.356C44.8496 13.356 43.2732 13.4269 42.825 13.4605C38.9776 13.7519 34.4429 14.2001 29.9828 15.3095C26.1653 16.2583 24.1781 18.5182 23.7336 22.4179C23.4945 24.506 23.3003 26.5492 23.1472 28.5626L15.0751 35.3236C14.8173 35.5402 14.6418 35.8204 14.5521 36.1229L14.5073 36.0968L14.2085 36.5189C13.8461 37.0344 13.6332 37.6768 13.5622 38.4837C12.789 47.004 13.1028 55.9315 14.5185 65.7816C14.7426 67.3355 15.0302 68.8969 15.3066 70.4097L15.3776 70.8019C15.4374 71.1232 15.5233 71.4295 15.6204 71.7283C15.4971 72.438 15.5943 73.1552 15.9379 73.8164C17.0511 75.9567 19.8899 76.644 27.6184 76.644C31.6189 76.644 36.4525 76.4498 41.5736 76.2444C42.5635 76.2033 43.5609 76.1659 44.5619 76.1248C55.2077 75.7102 66.4511 74.2123 72.2073 73.3532C73.029 73.2299 73.7687 72.8825 74.37 72.3708C75.8903 72.0496 76.107 71.3884 76.3909 69.0277C77.0221 63.787 77.0147 58.4155 76.3647 52.6033H76.361Z" fill="black"/>
<path d="M27.6147 77.7646C20.2374 77.7646 16.4572 77.2529 14.9407 74.3356C14.5373 73.5586 14.3766 72.6995 14.4738 71.8292C14.3879 71.5453 14.3206 71.2763 14.2721 71.0111L14.2011 70.6189C13.9209 69.0912 13.6296 67.5186 13.4055 65.946C11.9748 56.0025 11.6573 46.9891 12.4417 38.3828C12.5314 37.3743 12.8115 36.5562 13.2897 35.8764L13.5848 35.4543C13.5997 35.4356 13.6146 35.417 13.6296 35.3983C13.8014 35.0397 14.0442 34.7222 14.3505 34.4682L22.064 28.0097C22.2172 26.0935 22.4039 24.1735 22.6168 22.2984C23.1174 17.9318 25.437 15.2946 29.7103 14.23C34.2487 13.0945 38.8432 12.6388 42.7354 12.3437C43.1949 12.3101 44.8086 12.2354 46.8518 12.2354C50.998 12.2354 56.6907 12.5267 60.2692 13.9163C63.1828 15.0481 64.9944 17.4686 65.6593 21.118C65.9619 22.7728 66.1598 24.5023 66.2682 26.3849C68.8381 27.6213 70.575 28.458 70.6423 28.4916C71.2661 28.7979 71.7405 29.3209 71.9945 29.9671C73.3504 30.998 74.2693 32.6304 74.9454 35.1928C76.1631 39.8135 76.6487 44.5499 77.1194 49.1332C77.2352 50.2575 77.3472 51.3706 77.4742 52.48C78.1354 58.3782 78.1429 63.8355 77.5004 69.1621C77.2277 71.4183 76.9475 72.8564 74.8707 73.4055C74.1386 73.9621 73.2794 74.3281 72.368 74.4626C66.5894 75.3217 55.2937 76.8271 44.6031 77.2454L41.6148 77.365C36.4787 77.5704 31.634 77.7646 27.6147 77.7646ZM15.2283 37.0119L15.12 37.1651C14.8735 37.5162 14.7278 37.9794 14.6717 38.5845C13.906 47.0152 14.216 55.8605 15.6205 65.621C15.8409 67.1488 16.1248 68.6989 16.4012 70.2006L16.4759 70.6002C16.5207 70.8393 16.588 71.0933 16.6814 71.3735C16.7411 71.549 16.7561 71.7395 16.7225 71.9226C16.6365 72.4081 16.7075 72.8713 16.9279 73.3009C17.7833 74.9407 20.5773 75.5234 27.6147 75.5234C31.5892 75.5234 36.4115 75.3292 41.514 75.1238L44.5135 75.0042C55.0995 74.5896 66.3018 73.0992 72.0356 72.2438C72.6295 72.1541 73.1823 71.9039 73.638 71.5154C73.78 71.3959 73.9481 71.31 74.1311 71.2726C74.9043 71.1082 75.0052 71.0896 75.2704 68.8894C75.8942 63.7384 75.883 58.4491 75.2442 52.7228C75.121 51.606 75.0052 50.4854 74.8894 49.3685C74.4262 44.8599 73.9481 40.2131 72.7752 35.7606C72.1962 33.5642 71.4715 32.283 70.4219 31.5994C70.1716 31.4388 69.9998 31.1848 69.9363 30.8934C69.8989 30.7179 69.7943 30.5722 69.6524 30.505C69.574 30.4676 67.5793 29.5039 64.6881 28.1143C64.3146 27.935 64.0718 27.5652 64.0531 27.1544C63.9635 25.1074 63.7617 23.2658 63.4442 21.5177C62.9213 18.649 61.6139 16.8448 59.4474 16.0043C56.1939 14.7418 50.7926 14.4766 46.8406 14.4766C44.8646 14.4766 43.3294 14.5438 42.8961 14.5774C39.0935 14.865 34.6185 15.3095 30.237 16.3965C26.8901 17.2295 25.2204 19.1271 24.8282 22.5449C24.6003 24.5471 24.4023 26.6015 24.2455 28.6485C24.223 28.9473 24.0774 29.2275 23.8495 29.4217L15.7774 36.1827C15.6952 36.2499 15.6392 36.3396 15.6093 36.4442C15.5421 36.672 15.4039 36.87 15.2208 37.0119H15.2283Z" fill="white"/>
<path d="M16.1322 36.5936L37.2929 18.8693C38.8394 17.5732 40.9947 17.3005 42.81 18.1746C50.2733 21.768 69.2003 30.8785 69.4207 30.9868C69.5552 31.0541 60.8256 58.3333 47.7332 59.6893C34.1216 61.1012 16.1284 36.5898 16.1284 36.5898L16.1322 36.5936Z" fill="white"/>
<path d="M46.6087 61.4113C32.4592 61.4113 15.5306 38.5808 14.7947 37.5797C14.2755 36.8737 14.395 35.8876 15.0674 35.3273L36.2282 17.5993C38.2677 15.8885 41.1364 15.5299 43.5308 16.6842C48.7528 19.1981 69.9099 29.3806 70.1527 29.5002C70.8175 29.8251 71.1836 30.5797 71.0566 31.3118C71.008 31.592 62.413 59.8424 47.9086 61.3478C47.4791 61.3926 47.0458 61.415 46.6087 61.415V61.4113ZM18.4143 36.8476C22.2243 41.7036 36.7325 59.1738 47.565 58.0457C57.5869 57.0073 65.603 37.393 67.4371 31.8758C63.0032 29.7392 48.0655 22.5487 42.0889 19.6724C40.8638 19.0823 39.3995 19.269 38.3536 20.1431L18.4105 36.8476H18.4143Z" fill="black"/>
<path d="M46.4409 62.1695C46.1794 62.1695 45.9217 62.1695 45.6602 62.1658C44.8982 62.1546 44.1399 62.1509 43.3779 62.1509C42.5412 62.1509 41.7045 62.1546 40.8715 62.1583C40.031 62.1621 39.1906 62.1658 38.3501 62.1658C36.5833 62.1658 34.2525 62.1471 31.9365 62.0014C31.7946 61.994 31.6527 61.979 31.5107 61.9678C31.3986 61.9566 31.2866 61.9491 31.1745 61.9417C26.4717 61.6242 25.7246 60.9369 25.0149 56.305C23.4386 46.0478 23.3676 35.0023 24.7945 22.5374C25.1868 19.0972 26.8677 17.1884 30.2407 16.348C34.6223 15.2572 39.1009 14.8165 42.9073 14.5251C43.1912 14.5027 44.6853 14.4243 46.8555 14.4243C50.815 14.4243 56.2201 14.6895 59.481 15.9557C61.6662 16.8037 62.9811 18.6191 63.5077 21.5065C64.4266 26.5604 64.1988 31.6704 63.9747 36.6122L63.9672 36.7617C63.8551 39.283 63.8252 41.8529 63.7954 44.3444C63.7505 48.3375 63.702 52.4688 63.3098 56.5441C63.2687 56.9662 63.2089 57.3659 63.1417 57.8066C62.7271 60.4737 61.6625 61.4486 59.0701 61.5383C57.3593 61.598 55.6187 61.7138 53.9303 61.8296C51.4874 61.994 48.9585 62.1658 46.4409 62.1658V62.1695Z" fill="#FAFAFA"/>
<path d="M46.8517 15.5C50.546 15.5 55.9585 15.7428 59.0888 16.9568C61.1656 17.7637 62.0621 19.5753 62.4468 21.7007C63.3545 26.6837 63.1155 31.704 62.8913 36.7169C62.5962 43.2911 62.8727 49.8802 62.2377 56.4432C62.2003 56.8467 62.1368 57.2464 62.077 57.646C61.7521 59.749 61.1469 60.399 59.029 60.47C54.8305 60.6156 50.6506 61.0975 46.4371 61.0975C46.1831 61.0975 45.9254 61.0975 45.6714 61.0938C44.9056 61.0826 44.1436 61.0788 43.3779 61.0788C41.7007 61.0788 40.0235 61.0975 38.3463 61.0975C36.2284 61.0975 34.1105 61.0676 31.9962 60.9369C31.7422 60.9219 31.492 60.8958 31.238 60.8771C27.017 60.5895 26.7033 60.2981 26.0645 56.1482C24.3537 44.9981 24.5704 33.8444 25.8516 22.6645C26.199 19.6351 27.5549 18.1223 30.4909 17.3939C34.611 16.3704 38.7759 15.9184 42.9782 15.6009C43.3181 15.5748 44.8272 15.5038 46.8443 15.5038M44.2071 17.801C44.3715 17.745 44.5396 17.6964 44.7039 17.6441C44.547 17.6516 44.3864 17.6591 44.2295 17.6703C44.2221 17.7114 44.2146 17.7562 44.2071 17.801ZM46.8517 13.356C44.8459 13.356 43.2695 13.4269 42.8213 13.4605C38.9739 13.7519 34.4392 14.2001 29.9792 15.3095C26.1616 16.2583 24.1744 18.5182 23.7299 22.4179C22.2918 34.9799 22.3665 46.1187 23.954 56.4694C24.3126 58.804 24.6376 60.4139 25.8703 61.542C27.0992 62.6663 28.739 62.8531 31.1035 63.0137C31.2118 63.0212 31.3164 63.0287 31.421 63.0399C31.5704 63.0511 31.7198 63.066 31.8692 63.0735C34.2188 63.2192 36.5683 63.2379 38.3538 63.2379C39.1943 63.2379 40.0385 63.2341 40.8789 63.2304C41.7119 63.2267 42.5486 63.2229 43.3816 63.2229C44.2146 63.2229 44.9617 63.2267 45.6415 63.2379C45.9067 63.2416 46.1719 63.2453 46.4371 63.2453C48.9884 63.2453 51.5321 63.0735 53.9937 62.9054C55.6709 62.7934 57.4078 62.6738 59.1 62.6178C62.2227 62.5095 63.6982 61.1647 64.1912 57.9785C64.2585 57.5377 64.3257 57.1044 64.3668 56.6524C64.7665 52.5323 64.815 48.3786 64.8599 44.3631C64.8898 41.8828 64.9159 39.3204 65.028 36.8177L65.0354 36.6683C65.2596 31.6667 65.4949 26.4969 64.5536 21.3235C63.9634 18.0849 62.3833 15.9446 59.862 14.9659C56.4479 13.6398 50.9009 13.3634 46.848 13.3634L46.8517 13.356Z" fill="black"/>
<path d="M44.207 17.801C44.3826 16.9643 43.9642 16.7775 43.0528 16.8485C39.0709 17.1511 35.1301 17.5769 31.2267 18.5481C28.4476 19.2391 27.1626 20.6698 26.8339 23.5385C25.6199 34.1245 25.4145 44.6844 27.0356 55.2442C27.6407 59.1738 27.9358 59.4539 31.9364 59.7229C32.1755 59.7378 32.4145 59.764 32.6536 59.7789C36.9679 60.0479 41.286 59.8648 45.6003 59.9283C49.8325 59.9881 54.031 59.4876 58.2482 59.3419C60.2541 59.2709 60.8256 58.6583 61.1319 56.6674C61.1917 56.2901 61.2477 55.9091 61.2851 55.5281C61.8865 49.3162 61.625 43.0744 61.9051 36.8513C62.118 32.1074 62.3459 27.3523 61.483 22.6346C61.117 20.625 60.269 18.9067 58.3005 18.1447C53.7135 16.3667 49.0593 16.1799 44.207 17.8085V17.801Z" fill="#080808"/>
<path d="M59.0885 16.9606C61.1654 17.7674 62.0619 19.5791 62.4466 21.7045C63.3543 26.6912 63.1152 31.7077 62.8911 36.7206C62.596 43.2948 62.8724 49.884 62.2374 56.447C62.2001 56.8504 62.1366 57.2501 62.0768 57.6498C61.7518 59.7528 61.1467 60.4027 59.0287 60.4737C54.5762 60.6268 50.1423 61.161 45.6749 61.0938C41.1177 61.0265 36.5569 61.2208 32.0035 60.9369C31.7495 60.9219 31.4992 60.8958 31.2452 60.8771C27.0242 60.5895 26.7105 60.2981 26.0717 56.1482C24.3609 44.9981 24.5776 33.8444 25.8588 22.6645C26.2062 19.6351 27.5621 18.1223 30.4981 17.3939C34.6182 16.3704 38.7831 15.9184 42.9854 15.6009C43.9529 15.5262 54.2438 15.0817 59.0885 16.9606ZM34.1401 18.9627C30.3039 19.5604 28.3914 21.8352 27.9618 25.6154C27.2745 31.6405 27.5621 37.6507 28.0552 43.6609C28.2345 45.8349 28.7836 47.8893 30.5355 49.361C32.0707 50.646 34.0168 50.9934 35.9069 51.281C41.0505 52.0654 46.2165 51.7068 51.3675 51.2885C55.2112 50.9784 57.572 48.8045 58.7038 45.1998C60.6984 38.8497 60.9114 32.3129 60.183 25.7984C59.589 20.4905 57.2769 18.5967 51.954 17.8907C45.9326 17.095 40.027 17.9766 34.1401 18.959V18.9627Z" fill="#FAFAFA"/>
<path d="M42.8474 35.1891C40.5166 34.655 38.6302 32.6379 38.3613 30.4415C38.2716 29.7243 38.3351 29.0856 39.1457 28.9137C39.9525 28.7457 40.3261 29.291 40.483 29.9895C40.8714 31.6966 41.8912 32.806 43.6169 33.116C45.4286 33.441 46.7285 32.552 47.737 31.1251C48.1367 30.5573 48.5289 29.9858 48.9734 29.4554C49.2947 29.0706 49.7168 28.9175 50.2098 29.2126C50.7141 29.5151 50.8859 29.9148 50.7141 30.4975C49.7466 33.7734 46.1233 35.9399 42.8512 35.1891H42.8474Z" fill="#FCFCFC"/>
<path d="M42.9406 24.8422C42.6941 25.5258 42.2122 25.6939 41.6146 25.4996C41.0132 25.3054 40.7106 24.8646 40.9347 24.2296C41.1439 23.632 41.6146 23.363 42.2309 23.5759C42.8323 23.7814 43.0303 24.2707 42.9406 24.8422Z" fill="#FCFCFC"/>
<path d="M47.9235 25.0178C47.677 25.7013 47.1951 25.8694 46.5975 25.6752C45.9961 25.4809 45.6935 25.0402 45.9176 24.4052C46.1268 23.8075 46.5975 23.5386 47.2138 23.7515C47.8152 23.9569 48.0132 24.4462 47.9235 25.0178Z" fill="#FCFCFC"/>
<path d="M37.1511 72.6248C31.69 72.7257 26.2326 73.1814 20.7641 72.8078C20.1926 72.7705 19.4156 72.9759 19.184 72.2587C19.001 71.6947 19.6098 71.31 19.9385 70.8991C24.1072 65.7219 28.2646 60.5335 32.4744 55.3899C34.6969 52.6743 35.3917 52.5809 38.2941 54.6988C41.1255 56.7608 43.6692 59.1962 46.8929 60.7426C48.3608 61.4486 49.2872 61.3515 50.3144 60.1076C51.816 58.2885 53.4745 56.5964 55.021 54.8109C55.8203 53.8883 56.418 52.8386 56.5338 51.5761C56.5749 51.1391 56.7617 50.7394 57.2211 50.5974C57.7627 50.4293 57.9271 50.9112 58.1998 51.2175C61.4196 54.8483 64.2137 58.8152 67.2094 62.6215C68.782 64.6199 70.3172 66.6445 71.916 68.6205C72.8834 69.8121 72.5136 70.0997 71.1278 70.2678C59.8433 71.6275 48.5327 72.5762 37.1548 72.6285L37.1511 72.6248Z" fill="#FCFCFC"/>
<path d="M17.9849 71.4183C16.5804 68.2507 16.5841 65.1466 16.1471 62.1173C15.1162 54.9603 15.0302 47.781 15.4449 40.583C15.4785 40.0152 15.2394 39.1971 15.8408 38.9506C16.4758 38.6891 17.0922 39.2644 17.5815 39.6902C19.0831 41.0051 20.5175 42.4021 22.0415 43.6945C25.6424 46.7426 29.2582 49.7719 33.5165 52.1887C28.1002 58.4491 23.0575 64.8142 17.9812 71.422L17.9849 71.4183Z" fill="#FBFBFB"/>
<path d="M74.7138 60.8846C74.7848 63.66 74.4785 65.6285 74.0863 67.5895C74.019 67.9183 74.1124 68.3665 73.5745 68.3777C73.2458 68.3852 73.0964 68.1573 72.8984 67.8996C69.0249 62.8008 65.1513 57.7021 61.2217 52.6444C58.4837 49.1182 58.4613 49.1593 61.2479 45.678C64.2324 41.9501 66.8098 37.9383 69.3872 33.9265C69.6076 33.5829 69.7159 33.0114 70.2127 33.0749C70.6572 33.1346 70.7656 33.6688 70.9224 34.0573C72.241 37.3519 72.6594 40.8407 73.0703 44.3183C73.7501 50.0819 74.4972 55.8419 74.7176 60.8808L74.7138 60.8846Z" fill="#FBFBFB"/>
<path d="M76.3608 52.6033C76.2376 51.4902 76.1218 50.3733 76.006 49.2565C75.539 44.7143 75.0572 40.0189 73.8619 35.4767C72.9542 32.029 71.6431 30.4639 69.1889 29.9036L68.6585 29.7841L68.5278 30.3107C68.3821 30.886 68.143 31.4426 67.8106 31.9655L67.6612 32.2008L67.7508 32.4324C67.7434 32.4735 67.7135 32.6042 67.5417 32.8732C64.206 38.1102 60.8404 43.2014 56.4439 47.8482C55.0618 46.257 53.6984 45.4427 52.2865 45.3605C50.7512 45.2746 49.1824 46.0553 47.4865 47.7511C46.9038 48.3338 46.5602 48.3413 45.8803 47.7847C44.5393 46.6865 43.0452 46.2047 41.4465 46.3391C38.5068 46.5931 37.3002 47.8706 36.9118 51.3109C31.1668 48.6028 26.3781 44.4341 21.7388 40.3999C20.5808 39.3914 19.3855 38.353 18.1864 37.3444L18.0408 37.2211H17.8465C16.8006 37.1838 15.822 36.8999 14.9441 36.3657L14.5034 36.0968L14.2045 36.5189C13.8422 37.0344 13.6293 37.6769 13.5583 38.4837C12.7851 47.004 13.0989 55.9315 14.5146 65.7817C14.7387 67.3356 15.0263 68.8969 15.3027 70.4098L15.3737 70.802C15.6763 72.453 16.5093 73.7678 17.8503 74.7129L17.9922 74.8137H50.4225L50.5421 74.7502C51.5095 74.246 52.5778 74.246 53.7059 74.2422C54.1429 74.2422 54.5949 74.2422 55.0394 74.2086C60.1232 73.8463 65.2743 73.3345 70.2535 72.8377L72.7375 72.5912C75.7818 72.2886 76.0209 72.057 76.387 69.0239C77.0182 63.7832 77.0108 58.4118 76.3608 52.5996V52.6033ZM15.9975 40.6128C16.0087 40.4448 15.9975 40.2729 15.99 40.1086C15.9788 39.8658 15.9602 39.496 16.0535 39.4586C16.0909 39.4437 16.132 39.4362 16.1731 39.4362C16.4607 39.4362 16.8454 39.7724 17.1629 40.0525L17.2227 40.1048C17.8727 40.6726 18.5226 41.2703 19.1539 41.8492C19.9757 42.6001 20.8236 43.3807 21.6902 44.1129C24.8877 46.821 28.4923 49.8765 32.6684 52.3269C27.1177 58.7741 22.0525 65.2288 18.1416 70.3126C17.402 68.2806 17.1816 66.2448 16.9687 64.2651C16.8903 63.533 16.8081 62.7784 16.6998 62.0351C15.7697 55.5804 15.5418 48.5729 16.0013 40.6091L15.9975 40.6128ZM32.2052 72.2251C28.4624 72.3671 24.5963 72.5128 20.8012 72.255C20.7265 72.2513 20.6518 72.2476 20.5733 72.2476C20.5098 72.2476 20.4426 72.2476 20.3753 72.2476C19.7889 72.2588 19.7478 72.2065 19.7067 72.0795C19.6731 71.9786 19.8337 71.8068 20.0616 71.5715C20.1699 71.4594 20.2782 71.3511 20.3679 71.239L23.0947 67.8548C26.2996 63.8729 29.6091 59.7565 32.9 55.7336C34.9358 53.2495 35.313 53.2047 37.9651 55.1396C38.7944 55.7448 39.6161 56.3947 40.408 57.0222C42.3318 58.5463 44.3227 60.1189 46.6461 61.2357C48.398 62.0762 49.5821 61.8521 50.7363 60.4513C51.6029 59.4017 52.5405 58.3744 53.4482 57.3808C54.1056 56.6599 54.7854 55.9166 55.4354 55.1658C56.429 54.019 56.9669 52.8611 57.0827 51.6172C57.12 51.1988 57.303 51.1428 57.3815 51.1167C57.3964 51.1129 57.4076 51.1092 57.4114 51.1092C57.4562 51.1428 57.5309 51.2474 57.5832 51.3221C57.6467 51.4118 57.7139 51.5014 57.7849 51.5798C59.9551 54.0265 61.9722 56.6786 63.9184 59.2448C64.8447 60.4662 65.8047 61.7288 66.7722 62.9577C67.3399 63.6786 67.9002 64.4033 68.4643 65.128C69.4429 66.3905 70.459 67.6979 71.4824 68.9604C71.7365 69.2742 71.8373 69.4572 71.8747 69.5469C71.7738 69.588 71.5497 69.6515 71.0566 69.7112C58.1248 71.2726 47.3483 72.0197 37.1396 72.0682C35.4923 72.0981 33.8226 72.1616 32.2052 72.2214V72.2251ZM73.5444 67.4812C73.5294 67.5672 73.5182 67.6568 73.5107 67.7464C73.5107 67.7577 73.5107 67.7651 73.5107 67.7763C73.4659 67.7278 73.4136 67.6568 73.3725 67.6045L73.1708 67.3356C69.4168 62.3974 65.5358 57.2875 61.6622 52.3045L61.5875 52.2074C60.381 50.6535 59.7123 49.7943 59.7236 49.1332C59.731 48.4683 60.4221 47.6054 61.6846 46.0254C64.7215 42.2303 67.3325 38.1625 69.8576 34.2291C69.9211 34.1283 69.9808 34.0125 70.0369 33.8967C70.0705 33.8257 70.119 33.7249 70.1601 33.6614C70.2199 33.7473 70.2909 33.9452 70.332 34.0573C70.3581 34.132 70.3843 34.203 70.4104 34.274C71.7103 37.5274 72.1249 41.0163 72.5209 44.393C72.6143 45.1774 72.7076 45.9619 72.801 46.7426C73.4062 51.804 73.9777 56.5815 74.1644 60.907C74.2279 63.4994 73.9777 65.3484 73.5481 67.4887L73.5444 67.4812Z" fill="black"/>
<path d="M27.6144 75.3367C19.7402 75.3367 17.7941 74.5597 17.0956 73.215C16.8789 72.8004 16.6249 71.9487 17.3459 70.9178C17.3608 70.8953 17.3795 70.8729 17.3944 70.8505L33.6656 50.5339C33.9047 50.2388 34.1923 49.9923 34.5173 49.8018C35.7425 49.0958 40.3818 46.7986 48.5473 46.7986C50.7997 46.7986 53.1716 46.9741 55.5959 47.3215C57.5719 47.6054 59.3312 48.6177 60.5527 50.1716L73.9402 67.2048C74.6126 68.0639 74.7769 69.1808 74.3735 70.1931C73.9701 71.2054 73.0885 71.9039 72.0128 72.0645C66.2827 72.9162 55.0879 74.4103 44.5094 74.8212L41.5173 74.9407C36.4111 75.1462 31.5888 75.3404 27.6144 75.3404V75.3367Z" fill="white"/>
<path d="M48.5475 48.1022C50.5982 48.1022 52.8842 48.2516 55.4093 48.6139C57.0342 48.8455 58.5096 49.686 59.5257 50.9784L72.9132 68.0116C73.7275 69.0463 73.1223 70.5741 71.8187 70.7683C66.593 71.5453 55.159 73.0954 44.4573 73.5138C38.3387 73.7529 32.336 74.033 27.6145 74.033C21.1748 74.033 17.1257 73.5138 18.4181 71.6723L34.6893 51.3557C34.8238 51.1876 34.9844 51.0494 35.1712 50.9411C36.2992 50.2949 40.6845 48.1097 48.5512 48.1097M48.5475 45.4875C40.057 45.4875 35.1637 47.9192 33.8675 48.6662C33.3969 48.9352 32.986 49.29 32.6461 49.7121L16.3749 70.0325C16.3413 70.0773 16.3076 70.1221 16.274 70.1669C15.456 71.3324 15.3327 72.6621 15.9341 73.8164C17.0472 75.9567 19.8861 76.644 27.6145 76.644C31.6151 76.644 36.4487 76.4498 41.5698 76.2444C42.5597 76.2033 43.557 76.1659 44.5581 76.1248C55.2039 75.7102 66.4473 74.2123 72.2035 73.3532C73.7462 73.1253 75.0124 72.1205 75.5877 70.6712C76.1629 69.2219 75.9313 67.6232 74.9676 66.3942L61.5801 49.361C60.1495 47.5419 58.0913 46.3578 55.7791 46.0253C53.2951 45.6705 50.8596 45.4875 48.5437 45.4875H48.5475Z" fill="black"/>
</svg>
