<svg width="90" height="90" viewBox="0 0 90 90" fill="none" xmlns="http://www.w3.org/2000/svg">
<path d="M77.1043 27.807C77.0158 25.8521 76.4492 24.2762 75.3691 22.9801C74.6749 22.1478 73.7542 21.5068 72.6245 21.0713C72.6847 20.5825 72.7024 20.1257 72.7095 19.7255V19.6334C72.7236 19.0704 72.7378 18.3656 72.5891 17.5971C72.4687 16.9703 72.2455 16.4568 72.0649 16.0495L71.9764 15.8477C71.6541 15.0792 71.2008 14.3993 70.6378 13.8256C69.5718 12.7419 68.2756 12.2071 67.3903 11.9026C66.3491 11.5413 65.2159 11.3253 64.0153 11.2687C62.7156 11.2049 61.4903 11.4032 60.3712 11.8565C59.4753 12.2213 58.5722 12.6958 57.6196 13.305C57.1769 13.5883 56.5607 14.0062 55.9409 14.587C55.0698 14.3461 54.2482 14.2682 53.6603 14.2293C52.9343 14.1832 52.2827 14.2009 51.6877 14.2824C50.0622 12.6746 47.9728 11.6795 45.6142 11.3926C45.3238 11.3572 45.0193 11.3607 44.743 11.3962L44.3924 11.4422C44.1552 11.4741 43.9427 11.4989 43.7302 11.5307C40.8652 11.9451 38.3721 12.9544 35.9391 13.9389C35.2096 14.2364 34.519 14.5126 33.8214 14.7746C27.0396 17.3174 21.6212 19.8353 16.7731 22.6968C13.1998 24.7933 12.1976 27.2829 13.3096 31.2705C14.1843 34.4046 14.9811 37.2307 15.8948 40.1311C17.3999 44.8978 19.0467 49.8026 20.6403 54.5481L20.8634 55.2139C21.3415 56.6375 21.816 58.0576 22.2906 59.4706C22.7368 60.8093 23.1759 62.1869 23.608 63.5326C24.2136 65.4308 24.8404 67.3927 25.5132 69.3334L25.5699 69.4999C26.4942 72.1666 27.7585 75.8213 30.9705 77.8293C31.9409 78.4348 33.0423 78.7429 34.2428 78.7429C36.1658 78.7429 37.894 77.9497 39.2822 77.3122C39.7143 77.1139 40.1605 76.9085 40.4332 76.8164C42.8307 76.0125 45.2247 75.2086 47.6222 74.4012C52.9378 72.6163 57.2973 71.1431 61.3451 69.7726C63.2398 69.1316 65.3257 68.1931 66.427 66.0966C67.5319 63.9966 67.1141 61.7478 66.5616 59.8283L63.7674 50.132C64.0118 49.831 64.2597 49.5229 64.5005 49.2077C64.759 48.8677 64.9609 48.5667 65.138 48.2727C65.354 47.908 65.4886 47.5361 65.609 47.2103L65.6444 47.1147C65.6904 47.0191 65.7435 46.9235 65.7931 46.8278C65.8781 46.6649 65.9666 46.502 66.041 46.3356C66.1862 46.0204 66.3243 45.7017 66.4589 45.383C66.7564 44.6888 67.0964 43.8779 67.3513 43.0315C67.5355 42.4188 67.7019 41.7495 67.8755 40.9243C67.8932 40.8323 67.9109 40.7402 67.9286 40.6446C68.1942 40.6021 68.4562 40.5419 68.7112 40.471C68.9379 40.4073 69.1645 40.3365 69.3912 40.2656C69.6709 40.1771 69.9366 40.0956 70.1738 40.039C70.9954 39.8407 71.7002 39.4476 72.2101 39.1607L72.4191 39.0439C74.7847 37.7442 76.4173 35.1377 76.8883 31.8938C77.0902 30.5091 77.161 29.135 77.1008 27.807H77.1043Z" fill="white"/>
<path d="M34.2428 76.4517C33.4779 76.4517 32.7838 76.2604 32.1853 75.885C29.6603 74.3056 28.5908 71.2246 27.7337 68.7491L27.6771 68.5862C27.0148 66.6809 26.3916 64.7296 25.7895 62.8456C25.3575 61.4999 24.9148 60.1081 24.4615 58.7482C23.9161 57.1085 23.3601 55.4618 22.8077 53.815C21.2176 49.0837 19.5744 44.1895 18.0764 39.4476C17.1733 36.5861 16.38 33.7743 15.5124 30.6614C14.6731 27.6547 15.2397 26.2523 17.9312 24.6658C22.6589 21.8752 27.9604 19.4139 34.6182 16.9172C35.3478 16.6445 36.0914 16.3435 36.8104 16.0496C39.0981 15.1253 41.4602 14.1655 44.049 13.7937C44.2437 13.7654 44.4421 13.7406 44.6616 13.7122L45.0264 13.6662C45.0795 13.6591 45.1326 13.6556 45.1858 13.6556C45.2353 13.6556 45.2849 13.6556 45.3345 13.6662C47.7887 13.9637 49.7365 15.143 51.1211 17.1686C52.4102 19.0527 53.0016 21.1386 53.5718 23.1536C53.6568 23.4582 53.7418 23.7592 53.8303 24.0602C57.308 35.9806 60.6581 47.5999 64.3624 60.4693C65.5134 64.4676 64.5678 66.2701 60.6121 67.6123C56.0401 69.1599 51.4682 70.704 46.8927 72.2409C44.4987 73.0448 42.1012 73.8523 39.7037 74.6562C39.3141 74.7872 38.8325 75.0068 38.3261 75.2405C37.0795 75.8142 35.6629 76.4623 34.2428 76.4623V76.4517Z" fill="#FCFCFC"/>
<path d="M45.1894 14.8773C47.2257 15.1252 48.8937 16.0779 50.1119 17.8521C51.4718 19.8388 51.9995 22.1514 52.6547 24.3966C56.1961 36.5224 59.6914 48.6623 63.1868 60.8022C64.1571 64.1701 63.5551 65.3139 60.2226 66.4437C55.6542 67.9912 51.0787 69.5318 46.5068 71.0687C44.1128 71.8726 41.7153 72.6801 39.3178 73.484C37.9083 73.9585 35.9464 75.2228 34.2465 75.2228C33.7471 75.2228 33.2726 75.113 32.837 74.8439C30.6272 73.4627 29.6462 70.5127 28.8388 68.1825C27.7126 64.9315 26.7175 61.6238 25.6267 58.3586C23.4913 51.9523 21.2566 45.4325 19.2487 39.0757C18.335 36.1789 17.5134 33.2537 16.6953 30.3285C16.0047 27.8459 16.3624 27.0137 18.5581 25.7176C23.8029 22.6224 29.3629 20.193 35.0504 18.0611C38.0712 16.9278 40.9858 15.4723 44.2261 15.0048C44.5165 14.9623 44.8105 14.9269 45.1859 14.8809M45.1894 12.4232C45.0832 12.4232 44.9769 12.4302 44.8742 12.4444L44.5307 12.4869C44.297 12.5152 44.088 12.5436 43.8791 12.5719C41.1416 12.9685 38.7086 13.953 36.3536 14.9057C35.6099 15.2067 34.9052 15.4935 34.1898 15.7592C27.4647 18.2806 22.103 20.7702 17.3115 23.5998C14.1597 25.459 13.3522 27.4635 14.3332 30.9836C15.2044 34.1071 16.0012 36.9296 16.9078 39.8088C18.4058 44.5649 20.0561 49.4662 21.6462 54.2046C22.1986 55.8513 22.7511 57.4945 23.2965 59.1307C23.7462 60.4799 24.1889 61.8646 24.6174 63.2068C25.223 65.1015 25.8498 67.0599 26.5156 68.9828L26.5723 69.1457C27.4435 71.6637 28.6369 75.113 31.5338 76.9227C32.3341 77.422 33.2443 77.677 34.2429 77.677C35.9322 77.677 37.5435 76.9368 38.8397 76.3454C39.3178 76.1258 39.7675 75.9204 40.0969 75.8107C42.4944 75.0068 44.8884 74.2029 47.2859 73.3954C52.598 71.6105 56.961 70.1373 61.0088 68.7668C62.7052 68.1931 64.5644 67.368 65.4922 65.6008C66.4201 63.8336 66.0412 61.8398 65.5489 60.1223C61.9863 47.7522 58.5015 35.6583 55.0132 23.7096C54.9247 23.4121 54.8397 23.1111 54.7547 22.8101C54.1562 20.6994 53.54 18.5144 52.1376 16.4674C50.5652 14.1691 48.2669 12.7773 45.4869 12.4409C45.3877 12.4302 45.2886 12.4232 45.1929 12.4232H45.1894Z" fill="black"/>
<path d="M41.5239 19.2014C45.338 19.1695 47.0414 20.1399 47.9515 22.8774C49.9949 29.0111 51.971 35.1731 53.4053 41.4804C54.2765 45.3157 52.7431 48.4817 49.3044 50.4224C44.7714 52.9828 39.9338 54.8881 35.0538 56.6659C32.2525 57.6858 29.4017 56.3046 28.2366 53.3759C25.6549 46.8774 22.882 40.4463 20.7819 33.7636C20.0914 31.5644 21.0971 29.7371 22.1595 27.9628C22.8961 26.7304 23.9586 25.7459 25.1449 24.942C30.3579 21.4112 36.3393 20.1541 41.5239 19.1979V19.2014ZM35.9781 41.4591C39.5372 41.4768 42.7776 38.3993 43.0219 34.7871C43.0644 34.1426 42.7953 33.7672 42.2039 33.5724C41.6301 33.3812 41.2264 33.6362 40.9821 34.1107C40.6492 34.7623 40.3729 35.4458 40.0932 36.1258C39.3849 37.8363 38.2446 39.0545 36.2968 39.1395C34.4411 39.2209 33.1272 38.3073 32.3304 36.6322C32.0046 35.9451 31.4911 35.4671 30.6978 35.8283C29.8975 36.193 29.9825 36.8659 30.241 37.5884C31.0307 39.7982 33.4495 41.4449 35.9816 41.4556L35.9781 41.4591ZM37.6779 28.5507C37.0263 28.5932 36.6757 29.0217 36.6651 29.5954C36.6545 30.1833 37.0476 30.6472 37.6709 30.6224C38.2446 30.6012 38.6872 30.2718 38.6731 29.5954C38.6589 28.9473 38.3048 28.618 37.6744 28.5507H37.6779ZM33.6797 30.7393C33.6372 30.1266 33.322 29.6698 32.6527 29.5954C31.9657 29.5211 31.5442 29.9071 31.4663 30.5728C31.3813 31.2776 31.7992 31.6671 32.465 31.7273C33.1237 31.7875 33.5841 31.5007 33.6832 30.7393H33.6797Z" fill="#0E0E0E"/>
<path d="M35.9782 41.4591C33.4461 41.4449 31.0273 39.7982 30.2376 37.5919C29.9791 36.8694 29.8941 36.1966 30.6944 35.8318C31.4877 35.4706 32.0012 35.9451 32.327 36.6357C33.1238 38.3108 34.4341 39.2245 36.2934 39.143C38.2411 39.058 39.3815 37.8398 40.0898 36.1293C40.3695 35.4529 40.6458 34.7658 40.9786 34.1142C41.2195 33.6397 41.6232 33.3847 42.2004 33.5759C42.7918 33.7707 43.0645 34.1461 43.0185 34.7906C42.7741 38.4029 39.5338 41.4803 35.9747 41.4626L35.9782 41.4591Z" fill="#FCFCFC"/>
<path d="M37.678 28.5507C38.3083 28.6145 38.6625 28.9474 38.6766 29.5919C38.6908 30.2718 38.2481 30.5976 37.6744 30.6189C37.0511 30.6437 36.658 30.1798 36.6687 29.5919C36.6793 29.0182 37.0299 28.5897 37.6815 28.5507H37.678Z" fill="#FCFCFC"/>
<path d="M33.6795 30.7393C33.5839 31.5007 33.12 31.7875 32.4613 31.7273C31.7955 31.6671 31.3776 31.2776 31.4626 30.5729C31.5405 29.9071 31.9655 29.5175 32.649 29.5954C33.3218 29.6698 33.637 30.1302 33.676 30.7393H33.6795Z" fill="#FCFCFC"/>
<path d="M74.5331 27.9239C74.48 26.7092 74.1825 25.5759 73.3928 24.6268C72.5039 23.5609 71.0803 23.1749 69.7593 23.0155C69.6141 22.9978 69.4689 22.9872 69.3202 22.9766C69.6212 22.4135 69.8727 21.8256 70.0001 21.1988C70.1028 20.6923 70.1312 20.1895 70.1383 19.6724C70.1489 19.1341 70.1666 18.6135 70.0639 18.0788C69.9824 17.6538 69.777 17.2395 69.6106 16.8428C69.4194 16.386 69.1573 15.9823 68.8067 15.6246C68.1869 14.9942 67.3724 14.6118 66.5473 14.3249C65.6973 14.031 64.7872 13.8752 63.8912 13.8291C63.0236 13.7866 62.1489 13.9035 61.3414 14.2328C60.5163 14.5693 59.7549 14.9872 59.0041 15.4652C58.14 16.0177 57.3574 16.6552 56.7943 17.5263C56.7624 17.5759 56.7411 17.6255 56.7128 17.6751C56.4083 17.5086 56.0966 17.3599 55.7708 17.2324C55.0519 16.9491 54.2622 16.8393 53.4937 16.7897C52.7004 16.7401 51.8469 16.7649 51.0997 17.0518C50.7243 17.1934 50.3631 17.3705 49.9983 17.5405C49.9346 17.5405 49.8071 17.6149 49.754 17.6361C49.4919 17.7388 49.2298 17.8486 48.9749 17.9796C47.6362 18.6596 46.4711 19.7857 45.6247 21.0146C44.8066 22.1974 44.2896 23.6034 44.0984 25.0235C43.9921 25.8132 43.9709 26.6065 44.1302 27.3927C44.2896 28.1895 44.7995 28.8801 45.2918 29.5033C46.2161 30.672 47.622 31.097 49.0209 31.3945C49.4919 31.4936 49.9629 31.5821 50.441 31.6459C49.8354 32.68 49.6017 33.9159 49.4848 35.0917C49.3502 36.4339 49.5557 37.8008 50.1683 39.0085C51.3511 41.3352 53.9257 42.5251 56.4295 42.6951C57.7186 42.7836 59.036 42.4967 60.2259 42.0045C60.8031 41.7672 61.3237 41.4981 61.8337 41.1404C62.3189 40.8004 62.8182 40.4356 63.2148 39.9894C63.7708 39.3591 64.0683 38.6402 64.2702 37.8327C64.302 37.6981 64.341 37.5636 64.3799 37.429C65.4459 38.155 66.7881 38.3427 68.0205 37.9921C68.5446 37.8433 69.051 37.6592 69.5823 37.5317C70.1383 37.3971 70.6872 37.0607 71.1865 36.7845C73.0847 35.7433 74.048 33.5795 74.349 31.5184C74.5225 30.332 74.5933 29.1173 74.5367 27.9168L74.5331 27.9239Z" fill="#9CEE64"/>
<path d="M56.8936 44.2179C56.7024 44.2179 56.5147 44.2108 56.327 44.2002C52.945 43.9664 50.1366 42.2807 48.8228 39.6884C48.1039 38.2754 47.817 36.6322 47.9834 34.9394C48.0437 34.3409 48.1428 33.5831 48.3553 32.7933C46.7971 32.4321 45.2353 31.8655 44.1092 30.4383C43.5213 29.6981 42.8768 28.8092 42.6501 27.6866C42.4766 26.819 42.4624 25.8805 42.6041 24.8216C42.8343 23.1253 43.4469 21.5104 44.3854 20.1576C45.4372 18.6348 46.8254 17.3847 48.2951 16.6375C48.5501 16.5064 48.8298 16.3825 49.1734 16.2479C49.2548 16.209 49.3611 16.1594 49.4885 16.1204L49.5665 16.085C49.8816 15.9363 50.2074 15.784 50.5651 15.6494C51.4115 15.3271 52.3712 15.2174 53.593 15.2917C54.2659 15.3342 55.261 15.4334 56.2349 15.8017C56.9007 15.0722 57.6373 14.5587 58.1898 14.2045C59.0928 13.6273 59.9357 13.1846 60.7714 12.8446C61.7453 12.448 62.8219 12.278 63.9658 12.3347C65.0636 12.3878 66.1012 12.5826 67.0433 12.9119C67.8259 13.1846 68.9698 13.6521 69.8799 14.5799C70.3509 15.058 70.7263 15.6282 70.999 16.2692L71.0911 16.4816C71.2575 16.8641 71.4488 17.2962 71.5444 17.8061C71.6719 18.4648 71.6612 19.081 71.6471 19.6229V19.7149C71.6365 20.2355 71.6081 20.8588 71.4771 21.5104C71.4558 21.6096 71.4346 21.7052 71.4098 21.8044C72.7732 22.1656 73.8073 22.7818 74.5475 23.6707C75.4718 24.7791 75.9605 26.1532 76.0384 27.8672C76.0951 29.1315 76.0278 30.4383 75.8366 31.7557C75.4116 34.6667 73.9809 36.9899 71.9056 38.1267L71.6931 38.2435C71.2079 38.5162 70.6024 38.8527 69.926 39.0156C69.6533 39.0828 69.37 39.1714 69.0689 39.2635C68.8529 39.3307 68.6404 39.398 68.4209 39.4582C67.3797 39.7522 66.2996 39.7628 65.2938 39.4972C65.0424 40.0674 64.7272 40.5596 64.3376 41.0023C63.8348 41.5725 63.2469 42.001 62.6909 42.3905C62.1278 42.7871 61.5222 43.1094 60.7962 43.414C59.4895 43.9558 58.1508 44.2356 56.8865 44.2356L56.8936 44.2179ZM50.427 18.9925C50.3774 19.0173 50.342 19.0314 50.3137 19.0421C50.0445 19.1483 49.8391 19.2368 49.6656 19.3254C48.6351 19.8495 47.6435 20.7526 46.8715 21.8716C46.2057 22.8349 45.7665 23.9929 45.6001 25.2218C45.5045 25.9443 45.508 26.5605 45.6143 27.0952C45.7063 27.5627 46.0923 28.0762 46.4784 28.5649C47.0627 29.305 48.0472 29.6415 49.3398 29.9177C49.825 30.0204 50.2499 30.0983 50.636 30.1479C51.1388 30.2116 51.5744 30.5268 51.7975 30.9801C52.0206 31.437 51.9994 31.9717 51.7444 32.4109C51.2309 33.282 51.068 34.4436 50.9866 35.2404C50.8768 36.3595 51.0574 37.4255 51.5142 38.325C52.4917 40.2515 54.7475 41.066 56.5324 41.19C57.4956 41.2573 58.5722 41.0554 59.6453 40.6092C60.1659 40.3932 60.5837 40.1701 60.9662 39.9045C61.3735 39.6211 61.7949 39.3166 62.0782 38.9908C62.4111 38.6118 62.6271 38.1585 62.8007 37.468C62.8361 37.3192 62.8786 37.1705 62.9211 37.0182C63.0521 36.5507 63.4027 36.1754 63.8595 36.0089C64.3164 35.8425 64.8228 35.9062 65.2265 36.1789C65.8994 36.6357 66.7883 36.7703 67.6063 36.5401C67.7976 36.487 67.9853 36.4268 68.173 36.3666C68.5094 36.2604 68.8529 36.1541 69.2283 36.062C69.4974 35.9983 69.8658 35.7893 70.2234 35.591L70.4572 35.46C72.2102 34.4967 72.7166 32.2302 72.8512 31.3024C73.0141 30.1762 73.0743 29.0607 73.0247 27.9876C72.9786 26.9429 72.7272 26.1815 72.2314 25.5901C71.7569 25.0235 70.8892 24.6694 69.5754 24.51C69.462 24.4958 69.3452 24.4852 69.2283 24.4781C68.7148 24.4462 68.2509 24.1594 67.9994 23.7096C67.748 23.2599 67.7409 22.7145 67.9817 22.2612C68.265 21.73 68.4315 21.2944 68.5129 20.8942C68.5979 20.4763 68.6156 20.0443 68.6227 19.637V19.5449C68.6333 19.0952 68.6404 18.7092 68.5731 18.3621C68.5377 18.1815 68.4244 17.923 68.3182 17.6715L68.2119 17.4237C68.088 17.1297 67.9286 16.8854 67.7232 16.6764C67.362 16.3117 66.8449 16.0213 66.0446 15.745C65.3717 15.5113 64.6209 15.3732 63.81 15.3307C63.1123 15.2988 62.4678 15.3944 61.9047 15.6246C61.2318 15.8973 60.5696 16.2479 59.8153 16.7331C58.983 17.2643 58.4483 17.753 58.08 18.3125C58.0587 18.355 58.041 18.3834 58.0269 18.4152C57.6196 19.1341 56.7165 19.3927 55.9906 18.996C55.732 18.8544 55.47 18.7304 55.215 18.6313C54.7546 18.4507 54.1774 18.3409 53.3982 18.2913C52.6368 18.2417 52.0596 18.2948 51.6382 18.4577C51.3867 18.5534 51.1247 18.6773 50.8449 18.8048L50.6324 18.904C50.5651 18.9358 50.4943 18.9606 50.4235 18.9819L50.427 18.9925Z" fill="black"/>
<path d="M54.4749 57.5512C54.5492 57.4839 54.6271 57.4237 54.7051 57.36L54.4005 57.5972C54.9282 57.1935 55.516 56.8854 56.072 56.5242C56.713 56.1028 57.3328 55.6353 57.9242 55.1466C58.4448 54.7145 58.9158 54.2294 59.408 53.7619C59.9003 53.2944 60.3961 52.7809 60.8529 52.2426C61.1717 51.8672 61.501 51.4989 61.7808 51.0917C61.9933 50.7836 62.1526 50.4436 62.3828 50.1461L62.1455 50.4507C62.6484 49.8168 63.1761 49.2077 63.6648 48.5631C63.8667 48.294 64.0614 48.0177 64.2314 47.7274C64.4687 47.3272 64.5891 46.8845 64.7626 46.456L64.6104 46.8172C64.752 46.4949 64.9397 46.201 65.0849 45.8823C65.2301 45.5636 65.3611 45.2661 65.4922 44.958C65.8073 44.2214 66.1119 43.4848 66.3421 42.7198C66.544 42.0576 66.7033 41.3812 66.845 40.7012C66.9548 40.1736 66.9937 39.614 67.1991 39.1076L67.0468 39.4688C67.0964 39.359 67.1531 39.2563 67.2274 39.1607L66.9902 39.4653L67.0291 39.4192C67.2912 39.104 67.4718 38.7747 67.4718 38.3497C67.4718 37.9779 67.3089 37.5352 67.0291 37.2802C66.7494 37.0252 66.3633 36.8198 65.9596 36.8376C65.5807 36.8553 65.1451 36.9757 64.8901 37.2802C64.4722 37.7796 64.2173 38.3426 64.0969 38.9801C64.0083 39.4617 63.9233 39.9434 63.8171 40.4214C63.5692 41.5264 63.2363 42.5923 62.7972 43.6335L62.9494 43.2723C62.7511 43.7433 62.5563 44.2249 62.3155 44.6747C62.1739 44.9367 62.0428 45.1917 61.926 45.4644C61.8091 45.7371 61.7276 46.0169 61.6143 46.286L61.7666 45.9248C61.5612 46.3675 61.2566 46.7676 60.9592 47.1536L61.1964 46.8491C60.86 47.2811 60.4988 47.699 60.1517 48.1275C59.9286 48.4038 59.7055 48.68 59.5214 48.981C59.3797 49.2147 59.2487 49.4556 59.0822 49.6787L59.3195 49.3741C58.7458 50.1107 58.119 50.8084 57.4461 51.4529C56.7732 52.0974 56.1499 52.7243 55.4346 53.2838L55.7391 53.0465C55.2327 53.4361 54.7121 53.8115 54.1632 54.1444C53.5293 54.5304 52.906 54.9129 52.3429 55.4016C51.7444 55.9221 51.7692 57.0094 52.3429 57.537C52.9804 58.1214 53.841 58.093 54.4784 57.537L54.4749 57.5512Z" fill="black"/>
<path d="M60.4737 22.8667C60.4347 22.9978 60.3922 23.1288 60.3391 23.2563L60.4914 22.8951C60.3639 23.1961 60.1868 23.4829 60.0133 23.7627C59.9283 23.9008 59.8291 24.0248 59.7371 24.1558C59.645 24.2868 59.5742 24.4356 59.4785 24.5631L59.7158 24.2585C59.5565 24.4568 59.3936 24.6481 59.2377 24.8535L61.6105 24.5489L61.568 24.5135C61.4299 24.3647 61.2705 24.262 61.0828 24.2018C60.9022 24.1062 60.7074 24.0637 60.502 24.0708C60.1302 24.0708 59.6875 24.2337 59.4325 24.5135C59.1775 24.7933 58.9721 25.1793 58.9898 25.583C59.0075 25.9867 59.1315 26.3904 59.4325 26.6525L59.475 26.6879C59.6627 26.8756 59.8858 27.0031 60.1408 27.0775C60.3426 27.1412 60.541 27.1483 60.7428 27.1058C60.9447 27.0952 61.1324 27.0385 61.3059 26.9252C61.5326 26.7906 61.7132 26.61 61.8477 26.3833L61.869 26.3515L61.6317 26.656C61.8371 26.394 62.0602 26.1461 62.2302 25.8557C62.3506 25.6503 62.51 25.4732 62.6339 25.2713C62.9456 24.7649 63.2218 24.2408 63.3883 23.6706C63.498 23.2988 63.4307 22.8419 63.236 22.5055C63.0518 22.1939 62.6941 21.8928 62.3329 21.8114C61.9469 21.7229 61.5113 21.7441 61.1678 21.9637C60.8243 22.1832 60.587 22.4772 60.4737 22.8667Z" fill="#6ACC1E"/>
<path d="M60.3498 24.4037C60.0913 24.3294 59.8434 24.2196 59.5814 24.1523C59.3193 24.085 59.0749 24.039 58.8199 23.9788C58.2958 23.8513 57.7611 23.7911 57.2617 23.5821L57.623 23.7344C57.5698 23.7096 57.5167 23.6848 57.4601 23.66L58.0019 25.7282L58.0196 25.6999L57.4778 26.2417L57.5096 26.2275L56.7482 26.4329C56.7872 26.4329 56.8226 26.4329 56.8651 26.4329C57.2334 26.4577 57.6761 26.2452 57.9346 25.9903C58.1931 25.7353 58.395 25.2997 58.3773 24.9208C58.3596 24.5418 58.2321 24.124 57.9346 23.8513C57.6371 23.5786 57.283 23.4369 56.8651 23.4086C56.2454 23.3661 55.7248 23.6954 55.3954 24.1948C55.1936 24.4993 55.1334 25.0164 55.2431 25.3599C55.3529 25.7034 55.5867 26.0894 55.9372 26.263C56.2878 26.4365 56.6845 26.5958 57.0811 26.6915C57.3538 26.7552 57.63 26.7977 57.8992 26.8615C58.1683 26.9252 58.4481 26.9889 58.7208 27.0491C58.9935 27.1093 59.2697 27.2333 59.5459 27.3112C59.9213 27.4175 60.3746 27.3537 60.7111 27.1589C61.0227 26.9748 61.3237 26.6171 61.4052 26.2559C61.4937 25.8699 61.4725 25.4343 61.2529 25.0908C61.0333 24.7472 60.7358 24.51 60.3498 24.3966V24.4037Z" fill="#6ACC1E"/>
<path d="M58.7137 25.969C58.7066 26.093 58.6924 26.2169 58.6783 26.3409L58.7314 25.9407C58.6605 26.4329 58.5826 26.9181 58.5366 27.4139C58.5012 27.7999 58.4693 28.1895 58.4197 28.5755L58.4729 28.1753C58.4233 28.5436 58.3808 28.8942 58.3808 29.266C58.3808 29.429 58.4056 29.5954 58.3879 29.7548L58.441 29.3546C58.441 29.3794 58.4304 29.4077 58.4197 29.4325L58.572 29.0713L58.5543 29.1031L58.7916 28.7986L58.7668 28.8234C58.2073 29.3829 58.1648 30.4064 58.7668 30.9588C59.3688 31.5113 60.3073 31.5573 60.9023 30.9588C61.2883 30.5728 61.437 30.0522 61.4051 29.5175C61.3874 29.2342 61.391 28.9402 61.4264 28.6605L61.3733 29.0606C61.4653 28.3772 61.5114 27.6937 61.5964 27.0102L61.5432 27.4104C61.607 26.9323 61.7026 26.4613 61.7345 25.9796C61.7593 25.6078 61.5503 25.1686 61.2918 24.9101C61.0333 24.6516 60.6012 24.4497 60.2223 24.4675C59.3617 24.5064 58.7632 25.1332 58.7101 25.9796L58.7137 25.969Z" fill="#6ACC1E"/>
<path d="M60.9945 27.12C61.1999 27.251 61.4301 27.3289 61.6568 27.4139L61.3699 27.2935C61.6001 27.3927 61.7949 27.5626 62.0251 27.6689C62.273 27.7857 62.5138 27.9026 62.7546 28.0372C62.9954 28.1718 63.215 28.2886 63.4558 28.3949C63.6293 28.4728 63.8135 28.5613 63.9977 28.6074C64.0862 28.6286 64.1783 28.6463 64.2668 28.6782L63.9799 28.5578C64.0083 28.5719 64.0331 28.5826 64.0614 28.6038L63.817 28.4161L63.8347 28.4338C64.288 28.8765 65.099 28.919 65.5417 28.4338C65.9844 27.9487 66.0233 27.1979 65.5417 26.7269C65.3292 26.5179 65.0707 26.3904 64.7838 26.3161C64.6564 26.2842 64.5359 26.2559 64.412 26.2027L64.6988 26.3231C64.288 26.1425 63.9091 25.8982 63.5054 25.7069C63.3 25.6113 63.0911 25.5263 62.9034 25.4024C62.6519 25.2359 62.3899 25.1332 62.1101 25.0164L62.3969 25.1368C62.3332 25.1084 62.273 25.0766 62.2128 25.0376C61.678 24.6976 60.86 24.9101 60.5625 25.4697C60.2473 26.0646 60.4244 26.7587 60.9945 27.12Z" fill="#6ACC1E"/>
</svg>
