<svg width="90" height="90" viewBox="0 0 90 90" fill="none" xmlns="http://www.w3.org/2000/svg">
<path d="M80.2399 22.5434C80.7398 21.3603 80.9426 20.2189 79.9011 19.2219C78.9152 18.2721 77.8516 18.4582 76.7018 18.9747C73.2998 20.505 69.8672 21.9658 66.4623 23.4904C65.5014 23.9181 64.6794 24.2708 63.7101 23.4071C63.1353 22.8933 62.2632 22.8711 61.4578 22.9045C60.6747 22.935 59.8943 22.9794 59.1194 22.7434C57.1032 22.1296 55.0398 22.0241 52.9485 22.2129C51.3378 22.3573 50.8351 21.9547 50.6351 20.3828C50.4602 19.0053 50.2019 17.6472 49.7742 16.3281C48.7078 13.0177 46.8193 11.7957 43.3867 12.2651C38.0128 13.001 32.9112 14.809 27.7484 16.3559C25.3156 17.0835 25.1823 17.3306 25.185 19.8773C25.185 20.155 25.2072 20.4328 25.2128 20.7077C25.3239 26.9814 26.6819 33.0856 27.7262 39.2315C27.8817 40.1508 27.6789 40.5201 26.8458 40.8756C21.6386 43.1085 16.4591 45.4108 11.2602 47.6631C10.2049 48.1213 9.43561 48.7823 9.3523 49.9792C9.27454 51.1151 9.89107 51.8427 10.8436 52.4204C24.438 60.6908 38.0184 68.9835 51.6099 77.2567C53.3429 78.3121 54.6982 77.9038 55.5758 76.0931C58.6779 69.7083 61.8439 63.3514 64.8155 56.9083C65.9708 54.4033 67.1039 52.3593 70.3587 53.3813C71.1919 53.3813 72.0222 53.3868 72.8554 53.3785C75.0188 53.3591 76.0297 52.3371 75.8798 50.1986C75.5632 45.7274 75.2105 41.2561 74.8355 36.7876C74.7717 36.0294 74.8494 35.3518 75.1494 34.6464C76.8657 30.6195 78.5375 26.5759 80.2399 22.5434Z" fill="black"/>
<path d="M53.3455 78.6648C52.6651 78.6648 51.9402 78.4315 51.1793 77.9677C44.8917 74.1407 38.6042 70.3082 32.3166 66.4757C25.0154 62.0267 17.717 57.5748 10.413 53.1313C9.05214 52.3065 8.43283 51.254 8.52448 49.9209C8.62168 48.5462 9.40762 47.5575 10.9323 46.8966C13.0985 45.9579 15.2647 45.0108 17.4281 44.061C20.4053 42.7585 23.4824 41.4088 26.5206 40.1063C26.8391 39.9712 26.9678 39.7249 26.9067 39.3676C26.6984 38.1373 26.4706 36.8848 26.254 35.6739C25.3792 30.8194 24.4738 25.8011 24.3822 20.7216C24.3822 20.6133 24.3739 20.505 24.3711 20.3939C24.3628 20.2217 24.3544 20.0495 24.3544 19.8773C24.3517 16.9446 24.7655 16.3781 27.5121 15.5588C28.5147 15.2589 29.5172 14.9478 30.517 14.6368C34.6272 13.362 38.8791 12.0429 43.2754 11.4402C47.119 10.9153 49.3685 12.3428 50.5683 16.0726C50.9682 17.3029 51.2598 18.6776 51.4625 20.2772C51.6069 21.4048 51.7125 21.4853 52.8761 21.3826C55.2812 21.1659 57.4057 21.3492 59.3636 21.9463C59.9663 22.1296 60.6217 22.1046 61.316 22.0769L61.4271 22.0713C62.438 22.0269 63.485 22.088 64.2681 22.785C64.7875 23.2488 65.1041 23.1822 66.1261 22.7267C67.7591 21.9963 69.4254 21.2659 71.0389 20.5633C72.7858 19.7996 74.5937 19.0081 76.3628 18.2138C77.4459 17.7278 79.0483 17.2418 80.4813 18.622C82.1338 20.205 81.3173 22.138 81.009 22.8684C80.3175 24.5069 79.6287 26.1482 78.9428 27.7895C77.9569 30.1446 76.9377 32.5802 75.9184 34.9713C75.6907 35.5101 75.6129 36.0489 75.6685 36.7154C76.0767 41.5644 76.4183 45.9551 76.7127 50.1375C76.8016 51.4178 76.5211 52.4204 75.8768 53.1174C75.2186 53.8284 74.2049 54.1978 72.8663 54.2089C72.2692 54.2144 71.6749 54.2144 71.0778 54.2117H70.3613C70.278 54.2117 70.1919 54.1978 70.1113 54.1728C67.6563 53.4035 66.8093 54.5782 65.5734 57.2527C63.3294 62.1155 60.9411 67.0061 58.6277 71.7357C57.8584 73.3076 57.0919 74.8795 56.3254 76.4541C55.7811 77.5761 55.0479 78.2815 54.1481 78.5453C53.887 78.6231 53.6204 78.6592 53.3455 78.6592V78.6648ZM44.7056 13.001C44.3335 13.001 43.9308 13.0316 43.5003 13.0899C39.2429 13.6731 35.0577 14.97 31.0086 16.2281C30.0032 16.5391 28.9951 16.853 27.987 17.1557C26.99 17.4528 26.4151 17.6639 26.229 17.9194C26.0291 18.1971 26.0152 18.9053 26.0152 19.8773C26.0152 20.0245 26.0235 20.1717 26.0291 20.3189C26.0346 20.4439 26.0402 20.5688 26.043 20.691C26.1318 25.64 27.0233 30.5917 27.887 35.3796C28.1064 36.596 28.3341 37.8513 28.5452 39.0927C28.7646 40.3924 28.3675 41.1311 27.1705 41.6421C24.1406 42.9418 21.0635 44.2888 18.0891 45.5913C15.9229 46.5411 13.7567 47.4881 11.5877 48.4268C10.6379 48.8378 10.2297 49.3044 10.1797 50.0375C10.1464 50.5402 10.2547 51.0901 11.2711 51.7094C18.5779 56.1529 25.8763 60.6047 33.1775 65.0538C39.4623 68.8863 45.7499 72.7188 52.0374 76.5458C52.6901 76.9429 53.2399 77.079 53.6704 76.9512C54.1009 76.8235 54.4897 76.4125 54.8202 75.7293C55.5867 74.1546 56.3559 72.58 57.1224 71.0081C59.4303 66.2869 61.8159 61.4046 64.0515 56.5584C65.0652 54.3588 66.451 51.3539 70.4751 52.5481H71.0695C71.6582 52.5481 72.247 52.5509 72.8385 52.5453C73.7022 52.537 74.3077 52.3509 74.6409 51.9899C74.9631 51.6428 75.0964 51.0596 75.0408 50.2569C74.7437 46.0828 74.4049 41.7004 73.9966 36.857C73.9161 35.9183 74.0383 35.1102 74.3743 34.3215C75.3908 31.9359 76.41 29.5003 77.3959 27.148C78.0846 25.5039 78.7706 23.8626 79.4649 22.2213C79.9648 21.0354 79.9287 20.4105 79.3177 19.8246C78.7345 19.2636 78.1374 19.2413 77.0349 19.7357C75.2602 20.5355 73.4467 21.327 71.6943 22.0935C70.0863 22.7961 68.4228 23.5238 66.7954 24.2542C65.8372 24.6791 64.5292 25.2623 63.1489 24.032C62.8101 23.7293 62.1491 23.7126 61.4854 23.7404L61.3743 23.7459C60.5717 23.7765 59.7441 23.8098 58.8721 23.546C57.1224 23.0128 55.2062 22.8489 53.0178 23.0489C50.9626 23.2294 50.0601 22.5156 49.8018 20.4939C49.6129 18.9997 49.3408 17.7222 48.9742 16.5919C48.166 14.0869 46.9246 13.0093 44.6973 13.0093L44.7056 13.001Z" fill="white"/>
<path d="M75.1494 34.6464C74.8494 35.3518 74.7717 36.0294 74.8355 36.7876C75.2105 41.2561 75.5632 45.7274 75.8798 50.1986C76.0297 52.3371 75.0188 53.3591 72.8554 53.3785C72.0222 53.3868 71.1919 53.3813 70.3587 53.3813C67.1039 52.3593 65.9708 54.4033 64.8155 56.9083C61.8439 63.3514 58.6779 69.7083 55.5758 76.0931C54.6982 77.9038 53.3429 78.3121 51.6099 77.2567C38.0184 68.9835 24.438 60.6908 10.8436 52.4204C9.89107 51.8427 9.27454 51.1151 9.3523 49.9792C9.43561 48.7823 10.2049 48.1213 11.2602 47.6631C16.4591 45.4108 21.6386 43.1085 26.8458 40.8756C27.6789 40.5201 27.8817 40.1508 27.7262 39.2315C26.6819 33.0856 25.3239 26.9814 25.2128 20.7077C25.2072 20.4328 25.185 20.155 25.185 19.8773C25.1823 17.3306 25.3156 17.0835 27.7484 16.3559C32.9112 14.809 38.0128 13.001 43.3867 12.2651C46.8193 11.7957 48.7078 13.0177 49.7742 16.3281C50.2019 17.6472 50.4602 19.0053 50.6351 20.3828C50.8351 21.9547 51.3378 22.3573 52.9485 22.2129C55.0398 22.0241 57.1032 22.1296 59.1194 22.7434C59.8943 22.9794 60.6747 22.935 61.4578 22.9045C62.2632 22.8711 63.1353 22.8933 63.7101 23.4071C64.6794 24.2708 65.5014 23.9181 66.4623 23.4904C69.8672 21.9658 73.2998 20.505 76.7018 18.9747C77.8516 18.4582 78.9152 18.2721 79.9011 19.2219C80.9426 20.2189 80.7398 21.3603 80.2399 22.5434C78.5375 26.5759 76.8657 30.6195 75.1494 34.6464Z" fill="white"/>
<path d="M80.2399 22.5434C80.7398 21.3603 80.9426 20.2189 79.9011 19.2219C78.9152 18.2721 77.8516 18.4582 76.7018 18.9747C73.2998 20.505 69.8672 21.9658 66.4623 23.4904C65.5014 23.9181 64.6794 24.2708 63.7101 23.4071C63.1353 22.8933 62.2632 22.8711 61.4578 22.9045C60.6747 22.935 59.8943 22.9794 59.1194 22.7434C57.1032 22.1296 55.0398 22.0241 52.9485 22.2129C51.3378 22.3573 50.8351 21.9547 50.6351 20.3828C50.4602 19.0053 50.2019 17.6472 49.7742 16.3281C48.7078 13.0177 46.8193 11.7957 43.3867 12.2651C38.0128 13.001 32.9112 14.809 27.7484 16.3559C25.3156 17.0835 25.1823 17.3306 25.185 19.8773C25.185 20.155 25.2072 20.4328 25.2128 20.7077C25.3239 26.9814 26.6819 33.0856 27.7262 39.2315C27.8817 40.1508 27.6789 40.5201 26.8458 40.8756C21.6386 43.1085 16.4591 45.4108 11.2602 47.6631C10.2049 48.1213 9.43561 48.7823 9.3523 49.9792C9.27454 51.1151 9.89107 51.8427 10.8436 52.4204C24.438 60.6908 38.0184 68.9835 51.6099 77.2567C53.3429 78.3121 54.6982 77.9038 55.5758 76.0931C58.6779 69.7083 61.8439 63.3514 64.8155 56.9083C65.9708 54.4033 67.1039 52.3593 70.3587 53.3813C71.1919 53.3813 72.0222 53.3868 72.8554 53.3785C75.0188 53.3591 76.0297 52.3371 75.8798 50.1986C75.5632 45.7274 75.2105 41.2561 74.8355 36.7876C74.7717 36.0294 74.8494 35.3518 75.1494 34.6464C76.8657 30.6195 78.5375 26.5759 80.2399 22.5434ZM53.2346 24.4152C56.3839 24.3236 59.4971 24.7568 62.5993 25.229C63.5074 25.3678 63.7823 26.2037 63.8879 27.0091C64.0128 27.9673 64.1239 28.9365 64.0267 29.5669C63.699 34.9436 62.4132 39.8258 61.6578 44.7887C61.4801 45.9495 60.4803 45.4191 59.8582 45.4774C59.0195 45.5524 59.4249 44.822 59.4555 44.4693C59.761 40.8367 60.1081 37.207 60.4414 33.5772C60.4942 32.9801 60.558 32.3802 60.5525 31.7803C60.5386 30.2807 59.5499 29.1698 58.0697 29.0087C56.4645 28.8365 54.8509 28.7365 53.2485 28.5532C51.9127 28.4005 51.4683 27.6534 51.4155 25.9649C51.3711 24.6096 52.3015 24.443 53.2346 24.4152ZM27.0485 20.7466C26.8902 19.3996 27.4262 18.6581 28.6287 18.2082C33.536 16.3808 38.621 15.2644 43.7783 14.4618C45.9389 14.1258 47.5136 15.2117 48.1107 17.4306C48.9188 20.43 49.0577 23.5404 49.4437 26.6064C50.1186 31.922 50.6824 37.2542 51.3183 42.5753C51.6433 45.283 51.1656 45.8857 48.4467 46.0162C45.8167 46.1439 43.184 46.2717 40.554 46.3994C37.8296 46.5272 35.1024 46.6161 32.3807 46.7994C31.517 46.8577 31.1504 46.5466 30.9088 45.769C30.3811 44.0694 30.4589 42.3031 30.2117 40.5757C29.8229 37.8818 29.2619 35.2157 28.7926 32.533C28.1066 28.6199 27.5179 24.693 27.0485 20.7466ZM27.4651 43.2112C28.1955 42.8807 28.4538 43.0029 28.6398 43.8083C29.373 46.966 29.4008 46.9465 26.0571 47.0604C23.5854 47.1437 21.1109 47.2715 18.6392 47.3798C18.6364 47.2965 18.6309 47.2159 18.6281 47.1354C21.5747 45.8301 24.5296 44.5443 27.4651 43.2112ZM63.8906 53.3702C60.4886 60.377 57.0699 67.3755 53.6928 74.3935C53.3262 75.1544 53.0763 75.3016 52.3042 74.8295C38.9349 66.6562 25.5461 58.5107 11.8018 50.1431C30.2673 49.3072 48.3606 48.4907 66.6373 47.6658C65.6819 49.6487 64.7932 51.5122 63.8906 53.3702ZM67.9731 50.8929C67.9731 50.7596 67.9453 50.6624 67.9731 50.5874C68.4989 49.2914 69.3737 48.948 70.5976 49.5571C71.3585 49.9376 72.1139 50.3319 73.2109 50.8929H67.9703H67.9731ZM69.62 46.3439C68.1259 45.5496 66.6123 44.9331 64.871 45.3219C63.9629 45.5246 63.7518 45.1386 63.9156 44.2832C64.2267 42.6558 64.4877 41.0145 64.7266 39.3732C64.7932 38.9038 64.9376 38.6178 65.4237 38.4928C67.476 37.9596 69.5228 37.4125 71.564 36.8515C72.2305 36.6682 72.4555 36.8876 72.5027 37.568C72.7332 41.0173 73.0081 44.4665 73.2831 48.1574C71.9167 47.4825 70.7503 46.9438 69.62 46.3439ZM73.0081 33.5189C72.8249 33.966 72.4694 34.1187 72.0639 34.227C69.8477 34.813 67.6287 35.3935 65.2487 36.0183C65.6764 32.9107 65.9041 29.8863 65.9763 26.8564C65.9874 26.3593 66.279 26.2287 66.6067 26.0843C70.3504 24.4375 74.0968 22.7961 78.207 20.9938C76.3741 25.4011 74.6828 29.4558 73.0081 33.5189Z" fill="#101010"/>
<path d="M46.0496 19.1108C45.8524 17.8305 44.9276 17.089 43.614 16.7752C41.8922 16.3614 40.1981 16.7169 38.5151 16.8891C35.8462 17.1612 33.1857 17.6111 31.0278 19.4191C29.9003 20.3606 28.9727 21.5214 29.1754 23.0822C29.7253 27.2952 30.6918 31.4304 31.7138 35.549C32.1692 37.3736 33.5495 38.2262 35.388 37.8929C38.3818 37.3569 41.359 36.7071 44.2222 35.6628C46.4079 34.863 47.516 33.205 47.541 30.0807C47.1272 26.973 46.6495 23.0322 46.0496 19.1108ZM39.4427 21.7714C39.8148 21.7825 40.0481 21.9324 40.0287 22.3462C40.012 22.735 39.8065 22.9378 39.4233 22.9128C39.1122 22.8906 38.9261 22.7017 38.9039 22.3879C38.8817 22.013 39.0345 21.7769 39.4427 21.7714ZM36.26 21.8408C36.7044 21.7991 36.8877 22.088 36.9793 22.3407C36.996 22.8517 36.7627 23.0711 36.4267 23.1016C36.0129 23.1405 35.7213 22.8683 35.6907 22.474C35.6657 22.1435 35.8879 21.8769 36.26 21.8408ZM42.0116 26.0066C41.6006 27.7506 39.5482 29.2975 37.7792 29.1892C36.1712 29.092 34.677 27.8756 34.3466 26.4231C34.2466 25.9816 34.1994 25.5705 34.702 25.3734C35.2103 25.1706 35.4074 25.4983 35.6241 25.9149C36.9293 28.4227 38.8539 28.5033 40.4008 26.1371C40.5508 25.9038 40.6952 25.6678 40.8313 25.4289C41.0646 25.0262 41.4256 24.9818 41.7839 25.1595C42.1338 25.3289 42.0894 25.6761 42.0116 26.0066Z" fill="#101010"/>
</svg>
