<svg width="90" height="90" viewBox="0 0 90 90" fill="none" xmlns="http://www.w3.org/2000/svg">
<path d="M64.2135 25.7629C64.0951 25.7155 64.0173 25.5598 63.8819 25.4143C64.2609 24.9542 64.738 25.1673 65.1373 25.1166C68.0337 24.7478 70.2703 22.1762 70.6459 18.7688C71.0485 15.1111 69.6477 12.4583 66.7479 11.3924C60.8231 9.22011 56.6476 14.9047 57.162 19.899C57.3514 21.7295 56.4209 22.1356 55.2502 22.6025C54.6107 22.8563 53.9509 22.4164 53.3113 22.2574C46.8181 20.6197 40.3147 19.3373 33.544 20.3388C31.084 20.7009 29.7035 21.8784 28.7594 24.1285C25.5686 31.7181 22.97 39.4972 20.8349 47.4454C19.2784 53.2484 18.3547 59.1529 17.7761 65.1251C17.6103 66.8474 18.3039 67.9809 19.7251 68.8877C22.0699 70.3867 24.6449 71.2901 27.2774 72.0785C36.8227 74.9411 46.4188 77.5939 56.3126 78.9744C58.8166 79.3229 59.2734 78.9406 60.2918 76.66C62.833 70.972 64.3049 64.9254 66.1287 59.004C68.1183 52.5446 70.6019 46.2273 71.8606 39.5513C73.2276 32.2866 71.0891 28.4495 64.2169 25.7629H64.2135Z" fill="black"/>
<path d="M57.5679 80.0944C57.1585 80.0944 56.6983 80.0572 56.1705 79.9827C46.7334 78.6665 37.6787 76.2607 26.9863 73.053C24.408 72.2781 21.6773 71.3442 19.1802 69.7438C17.3632 68.5798 16.5748 67.0368 16.7676 65.0269C17.4173 58.3442 18.4256 52.5074 19.8569 47.1815C22.0699 38.9422 24.7497 31.0515 27.8255 23.736C28.9353 21.0968 30.6542 19.7399 33.3984 19.3339C40.6563 18.2613 47.6132 19.7704 53.5616 21.2727C53.7951 21.3303 54.0184 21.4148 54.2147 21.4893C54.438 21.5739 54.7764 21.6991 54.8745 21.6619C55.9708 21.2254 56.2652 21.1069 56.1502 20.0039C55.8219 16.7995 57.2363 13.3719 59.6759 11.477C61.7941 9.83255 64.43 9.46373 67.0963 10.4416C70.4461 11.6699 72.1075 14.7456 71.6541 18.8805C71.2887 22.1965 69.3769 24.7985 66.7241 25.7696C72.3748 28.6254 74.158 32.8144 72.8553 39.7408C71.9485 44.5625 70.392 49.2455 68.8897 53.7729C68.2874 55.5831 67.6648 57.4577 67.0963 59.3051C66.6463 60.7635 66.2132 62.2557 65.7902 63.6972C64.4943 68.1365 63.1543 72.7282 61.2155 77.0762C60.2579 79.218 59.5135 80.0944 57.5679 80.0944ZM38.4536 21.0054C36.8835 21.0054 35.2932 21.1069 33.6927 21.3438C31.649 21.6449 30.529 22.5382 29.6933 24.5244C26.6547 31.7553 24.0019 39.5581 21.8161 47.7093C20.4152 52.9269 19.4238 58.6555 18.7877 65.2232C18.6659 66.465 19.099 67.2805 20.2731 68.0316C22.5605 69.4968 25.1321 70.3731 27.5683 71.104C38.1693 74.2846 47.1394 76.6667 56.4513 77.9695C58.4104 78.2435 58.495 78.1962 59.3646 76.2438C61.2493 72.0244 62.569 67.5004 63.8446 63.1253C64.2676 61.6737 64.7041 60.1748 65.1575 58.7029C65.7327 56.8317 66.3587 54.9504 66.9644 53.1266C68.4464 48.6635 69.9792 44.0482 70.8623 39.3584C72.1447 32.5403 70.3108 29.2277 63.848 26.7035C63.5096 26.5716 63.3168 26.3245 63.2051 26.179C63.1848 26.1554 63.1645 26.1249 63.1408 26.0978C62.7991 25.7256 62.7788 25.1572 63.1002 24.7681C63.6991 24.0372 64.474 24.0778 64.8462 24.0981C64.9037 24.1015 64.9578 24.1082 65.0154 24.1049C67.4584 23.7936 69.316 21.6009 69.6408 18.6538C69.9894 15.4765 68.8389 13.2365 66.4027 12.3432C63.8548 11.4093 62.0174 12.2248 60.9279 13.0741C59.0229 14.5562 57.9164 17.2563 58.177 19.7907C58.4477 22.4198 56.7524 23.0965 55.6325 23.5432C54.8102 23.868 54.059 23.5905 53.5109 23.3875C53.3485 23.3266 53.1962 23.2691 53.071 23.2386C48.6486 22.122 43.6576 21.002 38.4603 21.002L38.4536 21.0054Z" fill="white"/>
<path d="M63.8819 25.4143C64.2608 24.9542 64.7379 25.1673 65.1372 25.1166C68.0336 24.7478 70.2702 22.1762 70.6458 18.7688C71.0485 15.1111 69.6476 12.4583 66.7478 11.3924C60.823 9.22011 56.6476 14.9047 57.1585 19.899C57.348 21.7295 56.4175 22.1356 55.2468 22.6025C54.6072 22.8563 53.9474 22.4164 53.3079 22.2574C46.8147 20.6197 40.3113 19.3373 33.5405 20.3388C31.0806 20.7009 29.7001 21.8784 28.756 24.1285C25.5652 31.7181 22.9666 39.4972 20.8315 47.4454C19.275 53.2484 18.3513 59.1529 17.7726 65.1251C17.6068 66.8474 18.3005 67.9809 19.7216 68.8877C22.0665 70.3867 24.6415 71.2901 27.274 72.0785C36.8193 74.9411 46.4154 77.5939 56.3092 78.9744C58.8131 79.3229 59.2699 78.9406 60.2884 76.66C62.8296 70.972 64.3015 64.9254 66.1253 59.004C68.1148 52.5446 70.5985 46.2273 71.8572 39.5513C73.2242 32.2866 71.0857 28.4461 64.2135 25.7629C64.0951 25.7155 64.0172 25.5598 63.8819 25.4143Z" fill="#FEFEFE"/>
<path d="M63.8818 25.4143C64.0171 25.5598 64.095 25.7189 64.2134 25.7629C71.0856 28.4461 73.2241 32.2866 71.8571 39.5513C70.6018 46.2273 68.1148 52.5446 66.1252 59.004C64.3014 64.9254 62.8295 70.972 60.2883 76.66C59.2699 78.9406 58.8097 79.3263 56.3091 78.9744C46.4153 77.5939 36.8192 74.9411 27.2739 72.0785C24.6414 71.2901 22.0664 70.3867 19.7215 68.8877C18.3038 67.9809 17.6068 66.8474 17.7726 65.1251C18.3512 59.1529 19.2715 53.2484 20.8314 47.4454C22.9631 39.5005 25.5651 31.7215 28.7559 24.1285C29.7034 21.875 31.0839 20.7009 33.5404 20.3388C40.3112 19.3373 46.8146 20.6197 53.3078 22.2574C53.9473 22.4198 54.6038 22.8597 55.2467 22.6025C56.4174 22.1356 57.3479 21.7295 57.1584 19.899C56.6441 14.9047 60.8196 9.22011 66.7478 11.3924C69.6476 12.4549 71.0484 15.1111 70.6458 18.7688C70.2702 22.1762 68.0336 24.7478 65.1371 25.1166C64.7379 25.1673 64.2608 24.9542 63.8818 25.4143ZM51.5314 25.4854C51.9848 24.5955 51.572 24.2605 50.5231 24.0609C45.9484 23.1845 41.3804 22.4604 36.694 22.3623C33.3543 22.2912 31.473 23.5093 30.2278 26.6392C25.6328 38.1843 22.1747 50.0068 20.7739 62.3877C20.2528 66.9962 20.5032 67.3989 24.9222 68.9249C25.1862 69.0163 25.4467 69.1178 25.714 69.2058C30.4884 70.8265 35.4048 71.9398 40.2401 73.3271C44.9874 74.6873 49.8633 75.4013 54.6545 76.528C56.9351 77.0626 57.7641 76.545 58.7183 74.3963C58.901 73.9869 59.0804 73.5775 59.2394 73.1613C61.8144 66.3533 63.4216 59.2476 65.6379 52.3246C67.3264 47.0495 69.0317 41.7676 69.5055 36.1913C69.7085 33.816 69.2754 31.6234 67.2959 30.165C62.6738 26.761 57.4934 25.1335 51.5348 25.4854H51.5314ZM64.3961 12.641C61.1918 12.641 58.3969 15.6423 58.3969 19.0903C58.3969 21.9258 60.6301 23.7462 64.051 23.7056C67.0185 23.6684 69.1671 21.0934 69.1603 17.5778C69.1535 14.634 67.2282 12.641 64.3927 12.641H64.3961Z" fill="#080808"/>
<path d="M67.2926 30.165C69.2721 31.6234 69.7018 33.816 69.5022 36.1913C69.0284 41.7676 67.3231 47.0495 65.6346 52.3246C63.4183 59.2442 61.8077 66.3499 59.2361 73.1613C59.0771 73.5808 58.8977 73.9903 58.715 74.3963C57.7608 76.5449 56.9284 77.0626 54.6512 76.528C49.86 75.4046 44.9841 74.6907 40.2368 73.3271C35.3982 71.9398 30.4817 70.8265 25.7107 69.2058C25.4468 69.1144 25.1863 69.0163 24.919 68.9249C20.4999 67.3989 20.2495 66.9962 20.7706 62.3877C22.1714 50.0068 25.6261 38.1843 30.2245 26.6392C31.4697 23.5093 33.3544 22.2912 36.6907 22.3623C41.3805 22.4604 45.9451 23.1879 50.5198 24.0609C51.5687 24.2605 62.6705 26.761 67.2926 30.165ZM40.1218 25.0861C35.8617 24.6158 33.1616 26.487 31.6118 30.3917C29.1384 36.6143 27.7037 43.1042 26.4924 49.6549C26.0525 52.0235 26.0491 54.3751 27.4905 56.446C28.7526 58.2596 30.7287 59.1935 32.6608 60.0462C37.919 62.3674 43.5257 63.4772 49.1392 64.5228C53.3248 65.301 56.4717 63.6667 58.7184 60.1544C62.6807 53.9623 64.7989 47.0563 65.9053 39.8998C66.8054 34.0731 64.8902 31.3831 59.4222 29.0958C53.2369 26.5073 46.6827 25.7358 40.1252 25.0861H40.1218Z" fill="#FAFAFA"/>
<path d="M64.3963 12.641C67.2318 12.641 69.1571 14.6374 69.1638 17.5778C69.1706 21.0934 67.022 23.6684 64.0545 23.7056C60.6302 23.7462 58.4004 21.9258 58.4004 19.0903C58.4004 15.6423 61.1953 12.6376 64.3996 12.641H64.3963ZM64.8869 19.1207C66.0204 18.8636 67.0761 18.1767 67.3976 16.6676C67.5972 15.7337 67.9017 14.4614 66.8156 14.1907C65.5602 13.876 66.0475 15.3445 65.7159 15.9976C65.6414 16.1397 65.6651 16.3292 65.6211 16.4916C65.32 17.6184 64.5113 17.7097 63.6654 17.2766C62.6909 16.7758 62.7112 16.0077 63.4082 15.2092C63.6891 14.8877 63.821 14.4513 63.4725 14.1569C63.0902 13.8287 62.7552 14.1772 62.4811 14.4614C61.7638 15.2024 61.0836 15.9739 61.5709 17.1142C62.1326 18.4372 63.1883 19.053 64.8869 19.1173V19.1207Z" fill="#FAFAFA"/>
<path d="M40.1216 25.0861C46.6791 25.7358 53.2333 26.5073 59.4187 29.0958C64.8867 31.3831 66.8018 34.0731 65.9018 39.8998C64.7953 47.0563 62.6771 53.959 58.7149 60.1545C56.4681 63.6667 53.3213 65.301 49.1357 64.5228C43.5222 63.4772 37.9155 62.3674 32.6572 60.0462C30.7252 59.1935 28.7525 58.2596 27.487 56.446C26.0455 54.3752 26.0489 52.0235 26.4888 49.6549C27.7002 43.1042 29.1348 36.6177 31.6083 30.3917C33.158 26.487 35.8582 24.6158 40.1182 25.0861H40.1216ZM41.7762 45.3712C41.7694 48.8158 44.1685 50.5753 46.9634 49.1778C49.1086 48.1018 51.0373 44.7012 50.77 42.353C50.611 40.9589 50.0594 39.7306 48.7026 39.1182C47.3119 38.4922 45.9686 38.7392 44.7606 39.6494C42.8624 41.0807 41.8439 42.9823 41.7728 45.3746L41.7762 45.3712ZM47.4236 33.596C47.2442 32.6622 46.7773 32.0599 45.752 32.0835C44.9196 32.1005 44.2869 32.4828 44.27 33.3423C44.2463 34.3134 44.8418 34.8751 45.8299 34.9461C46.7874 35.0138 47.2408 34.4656 47.4269 33.596H47.4236ZM53.4871 35.7142C53.257 35.0815 52.9152 34.4826 52.0084 34.5232C51.0542 34.5638 50.5298 35.1356 50.5873 36.0154C50.6414 36.8376 51.2843 37.291 52.1167 37.22C52.9186 37.1489 53.4465 36.6989 53.4871 35.7142Z" fill="#080808"/>
<path d="M64.8865 19.1207C63.1879 19.0564 62.1356 18.4406 61.5705 17.1176C61.0833 15.9739 61.7634 15.2058 62.4807 14.4648C62.7548 14.1839 63.0864 13.832 63.4722 14.1603C63.8207 14.4546 63.6887 14.8911 63.4079 15.2126C62.7108 16.0111 62.6905 16.7792 63.665 17.28C64.5109 17.7131 65.3196 17.6218 65.6208 16.495C65.6648 16.3326 65.6411 16.1465 65.7155 16.001C66.0505 15.3479 65.5633 13.8794 66.8152 14.1941C67.898 14.4648 67.5968 15.737 67.3972 16.6709C67.0724 18.1801 66.0201 18.8669 64.8865 19.1241V19.1207Z" fill="#080808"/>
<path d="M41.7764 45.3712C41.8474 42.979 42.8659 41.0773 44.7641 39.6461C45.9721 38.7358 47.3154 38.4888 48.7061 39.1148C50.063 39.7273 50.6145 40.9555 50.7735 42.3496C51.0408 44.6979 49.1122 48.1018 46.9669 49.1745C44.172 50.5753 41.7696 48.8124 41.7798 45.3678L41.7764 45.3712Z" fill="#FAFAFA"/>
<path d="M47.4236 33.5961C47.2409 34.4657 46.7841 35.0104 45.8265 34.9461C44.8385 34.8785 44.2463 34.3134 44.2666 33.3423C44.2869 32.4828 44.9163 32.1005 45.7487 32.0836C46.7739 32.0599 47.2409 32.6622 47.4202 33.5961H47.4236Z" fill="#FAFAFA"/>
<path d="M53.4871 35.7142C53.4465 36.6989 52.9187 37.1489 52.1167 37.2199C51.2843 37.291 50.6448 36.8376 50.5873 36.0154C50.5298 35.139 51.0509 34.5672 52.0085 34.5232C52.9187 34.4826 53.257 35.0815 53.4871 35.7142Z" fill="#FAFAFA"/>
</svg>
