<svg width="90" height="90" viewBox="0 0 90 90" fill="none" xmlns="http://www.w3.org/2000/svg">
<path d="M83.2725 45.2752C83.2757 45.3402 83.2725 45.4052 83.2725 45.4701V46.1166C83.2725 46.5908 82.9217 47.1138 82.4377 47.2113C82.4214 47.2178 82.4052 47.2243 82.3889 47.2275C82.272 47.2827 82.1583 47.3412 82.0446 47.3997C81.7815 47.5361 81.5216 47.679 81.265 47.8252C80.9402 48.0104 80.6251 48.1695 80.2775 48.3092C80.167 48.3547 80.0566 48.3937 79.9494 48.4359C79.9462 48.4359 79.9429 48.4391 79.9397 48.4391H79.9429C79.9429 48.4391 79.9332 48.4391 79.9267 48.4424C79.8974 48.4586 79.865 48.4716 79.8325 48.4846C79.6213 48.5918 79.4297 48.7282 79.2218 48.8387C79.1048 48.9069 78.9814 48.9589 78.858 49.0108C78.8482 49.0141 78.8417 49.0173 78.832 49.0206C78.8417 49.0173 78.8482 49.0141 78.8547 49.0141C78.845 49.0173 78.8352 49.0238 78.8222 49.0303C78.6728 49.17 78.5169 49.3129 78.3415 49.4169C78.2538 49.4721 78.1596 49.5111 78.0621 49.5468C78.0524 49.5566 77.9452 49.6085 77.8802 49.6443C77.89 49.6345 77.9062 49.6215 77.9192 49.6053C77.8965 49.6248 77.877 49.641 77.8575 49.6573C77.8347 49.6735 77.8152 49.6898 77.8055 49.7027C77.7015 49.7872 77.5944 49.8717 77.4872 49.9496C77.4352 49.9854 77.38 50.0178 77.3247 50.0503C77.2338 51.3367 77.1493 52.6263 77.0876 53.9126C77.0519 54.6792 76.9252 55.4393 76.8862 56.2092C76.8407 57.0375 76.8342 57.8724 76.7953 58.7039C76.7823 58.9865 76.7563 59.2626 76.7076 59.542C76.6978 59.5875 76.6946 59.6979 76.6946 59.6979V59.8311C76.6946 60.0325 76.7108 60.2339 76.6946 60.4353C76.6816 60.5815 76.6588 60.7277 76.6361 60.8738C76.6361 60.8738 76.6263 60.9843 76.6166 61.0525C76.6133 61.072 76.6133 61.098 76.6101 61.137L76.6199 61.3708C76.6231 61.4488 76.6263 61.5268 76.6199 61.6047C76.6133 61.7639 76.5841 61.9263 76.5549 62.0822C76.5451 62.1212 76.5321 62.2089 76.5256 62.2316C76.5094 62.5467 76.5451 62.8651 76.5419 63.1802C76.5386 63.4368 76.4899 63.6869 76.4477 63.937V64.0085C76.4509 64.1059 76.4412 64.2034 76.4314 64.2976C76.4152 64.447 76.3892 64.5932 76.3697 64.7426C76.3697 64.7524 76.3665 64.7621 76.3665 64.7719V64.8043C76.3535 65.0025 76.3567 65.2039 76.36 65.4053C76.3665 65.8763 76.3113 66.3246 76.243 66.7891C76.1878 67.1724 76.1358 67.5265 75.9864 67.8838C75.6291 68.7283 74.83 69.1409 74.0407 69.5047C73.3195 69.8328 72.6049 70.1706 71.8935 70.5214C70.474 71.2198 69.1259 72.0157 67.7518 72.7953C67.0794 73.1818 66.3843 73.5294 65.6794 73.8543C65.2409 74.0557 64.7958 74.2473 64.3508 74.4357C64.2046 74.4974 64.0585 74.5591 63.909 74.6176C63.7986 74.6631 63.6881 74.7086 63.5777 74.754C63.5647 74.7573 63.5225 74.7735 63.4933 74.7865C62.7786 75.0919 62.1127 75.5077 61.4046 75.8358C61.1707 75.9429 60.9335 76.0534 60.6932 76.1508C60.6087 76.1866 60.5178 76.2191 60.4301 76.2548C60.3976 76.2678 60.3164 76.3068 60.2871 76.3198C59.998 76.4789 59.7122 76.6478 59.4263 76.8135C59.095 77.0052 58.7571 77.1676 58.4323 77.3722C58.2926 77.4567 58.1562 77.5411 58.0198 77.6321C58.0003 77.6451 57.9808 77.6581 57.9613 77.6711C57.7632 77.9439 57.3506 78.0999 57.0615 78.1388C56.8958 78.1616 56.7464 78.1616 56.5808 78.1583C56.2884 78.1486 55.9961 78.1583 55.7037 78.1583C54.8364 78.1583 53.9691 78.1681 53.1018 78.1713C52.6925 78.1713 52.2864 78.1713 51.8804 78.1681C51.2892 78.1616 50.7077 78.0674 50.1165 78.0771C48.4761 78.1063 46.8584 77.8757 45.231 77.7036C44.4449 77.6191 43.6621 77.5704 42.8727 77.5054C42.0801 77.4404 41.2485 77.3722 40.4527 77.4274C39.6081 77.4859 38.7765 77.5281 37.9385 77.343C37.7273 77.2975 37.5162 77.2358 37.3018 77.1936C37.266 77.1871 37.1459 77.1708 37.1264 77.1676C37.0744 77.1611 37.0224 77.1578 36.9704 77.1546C36.5709 77.1221 36.1713 77.1253 35.7718 77.1286C34.1249 77.1286 32.478 77.1286 30.8311 77.1254C29.1679 77.1254 27.5015 77.1156 25.8383 77.1156C24.9873 77.1156 24.133 77.1189 23.2819 77.1221C22.5055 77.1221 21.7454 77.0182 20.9691 77.0182C20.576 77.0182 20.1765 77.0506 19.7834 77.0376C19.5463 77.0279 19.3124 76.9857 19.0818 76.9337C19.0785 76.9337 18.9226 76.9142 18.8836 76.9045C18.8121 76.9077 18.7212 76.911 18.7212 76.911C17.9383 76.9142 17.1555 76.9045 16.3726 76.911C16.0998 76.9142 15.8334 76.9012 15.567 76.8427C15.5021 76.8297 15.4339 76.8135 15.3689 76.794C15.3591 76.7908 15.3527 76.7875 15.3429 76.7843C15.1025 76.7713 14.8622 76.7518 14.6218 76.7388C14.0501 76.7128 13.4751 76.6966 12.9034 76.6966C12.3284 76.6933 11.9321 76.31 11.734 75.8033C11.6658 75.6311 11.5976 75.4752 11.5716 75.2868C11.5488 75.1828 11.5488 75.0789 11.5618 74.9749C11.5618 74.8872 11.5683 74.7995 11.5683 74.7086C11.5716 74.4942 11.5651 74.2798 11.5586 74.0654C11.5553 73.9777 11.5488 73.89 11.5423 73.799V73.7893C11.5358 73.7471 11.5326 73.7113 11.5326 73.7081C11.5034 73.5132 11.5001 73.3215 11.5098 73.1234C11.5098 73.1721 11.5456 73.354 11.5098 73.1234V73.1169C11.5098 73.1169 11.5066 73.1136 11.5066 73.1104C11.4839 72.9675 11.4644 72.818 11.4481 72.6751C11.4124 72.3827 11.4091 72.0936 11.4124 71.8013C11.4189 71.1549 11.4124 70.5084 11.4124 69.8588C11.4124 69.2448 11.4189 68.6406 11.3474 68.0267C11.3149 67.7376 11.3214 67.4485 11.3344 67.1594C11.3344 67.1594 11.3334 67.1572 11.3312 67.1529C11.3149 67.0879 11.2987 67.023 11.2857 66.958C11.25 66.7598 11.2305 66.5552 11.224 66.3571C11.2078 65.7366 11.2597 65.1227 11.198 64.5055C11.198 64.4925 11.1948 64.4827 11.1915 64.4633C11.172 64.3203 11.1493 64.1709 11.1395 64.0247C11.1298 63.8623 11.1298 63.7031 11.133 63.544C11.1428 63.2159 11.146 62.8846 11.146 62.5565V60.7017C10.0871 60.7309 9.02811 60.6952 7.96914 60.6919C7.86844 60.6919 7.77424 60.6757 7.68004 60.6529C7.67029 60.6529 7.6573 60.6529 7.64756 60.6529C7.28699 60.5717 7.03687 60.3249 6.90044 60.0195C6.81598 59.8539 6.764 59.6752 6.75426 59.4835C6.75101 59.3698 6.7705 59.2626 6.79974 59.1587C6.84521 58.9248 6.89069 58.6909 6.93942 58.4571C6.9654 58.3239 6.98814 58.2297 7.04011 58.103C7.06285 58.0315 7.09534 57.9633 7.13756 57.9016C7.14406 57.8886 7.14731 57.8821 7.15056 57.8724C7.21553 57.7034 7.28049 57.5345 7.3617 57.3754C7.38444 57.3331 7.45266 57.2357 7.50138 57.1512C7.49488 57.1512 7.49813 57.1317 7.51762 57.0863C7.56635 56.9628 7.61832 56.8426 7.67029 56.7192C7.71902 56.6087 7.76775 56.4951 7.82297 56.3846C7.83596 56.3521 7.8522 56.3164 7.8652 56.2807C8.0471 55.8064 8.24201 55.3321 8.41092 54.8514C8.78773 53.7924 9.29122 52.7822 9.733 51.7525C9.79472 51.6063 9.85969 51.4634 9.9214 51.3204C9.94414 51.2685 9.96363 51.2165 9.98637 51.1678C10.0838 50.9241 10.1813 50.6837 10.269 50.4401C10.3859 50.1185 10.4834 49.8002 10.636 49.4949C10.6815 49.4071 10.7302 49.3227 10.779 49.235C10.7952 49.209 10.8115 49.1798 10.8277 49.1505C10.8374 49.0043 11.0031 48.6698 11.0226 48.6275C11.0746 48.5301 11.1395 48.4456 11.198 48.3514C11.3149 48.163 11.4059 47.9616 11.5034 47.7635C11.4449 47.6433 11.4027 47.5134 11.3864 47.3737C11.3409 46.9579 11.5293 46.5518 11.8737 46.3147L12.5006 45.8827C12.5201 45.8534 12.5363 45.8242 12.5526 45.795C12.754 45.4474 13.0983 45.2622 13.4621 45.2233L18.3216 41.8872C16.8566 37.6968 15.4436 33.487 14.4626 29.1472C14.089 27.4905 13.8129 25.8111 13.5238 24.1382C13.3062 22.8681 13.683 21.9456 14.8427 21.3576C21.0633 18.2067 27.2546 14.9941 33.8195 12.5936C34.8233 12.2265 35.8725 12.0186 36.9412 11.8757C39.7315 11.5021 41.7585 12.6455 43.1845 14.9681C44.4059 16.9658 45.1465 19.1715 45.8677 21.3836C46.3127 22.7512 46.9949 23.2059 48.3657 22.8876C51.26 22.2119 54.1575 21.7247 57.146 22.1437C58.075 22.2736 58.9845 22.017 59.8908 21.8416C63.2301 21.1919 65.8451 23.1832 66.3453 26.5387C66.865 30.0632 67.0827 33.6007 67.1834 37.1446H73.4462C73.8035 37.1446 74.1381 37.3103 74.3525 37.5929C74.4337 37.7001 74.4857 37.817 74.5247 37.9437C74.6351 38.0412 74.7261 38.1484 74.791 38.275C74.856 38.3205 74.9242 38.366 74.9892 38.418C75.1581 38.5447 75.3238 38.6746 75.4862 38.8045C75.4862 38.8045 75.4905 38.8067 75.4992 38.811C75.5511 38.8467 75.6031 38.8857 75.6583 38.9215C75.9572 39.1099 76.2593 39.2268 76.5386 39.4607C76.7595 39.6426 76.9414 39.8667 77.1591 40.0551C77.5619 40.4027 77.9517 40.76 78.3577 41.1011C78.5591 41.27 78.7605 41.4584 78.9781 41.6046C78.9944 41.6143 79.0074 41.6241 79.0171 41.6306C79.0659 41.6696 79.1178 41.7085 79.1666 41.7443C79.2803 41.8287 79.3907 41.9132 79.5011 41.9944C80.0599 42.4069 80.6316 42.7838 81.2033 43.1703C81.7555 43.5471 82.3305 43.9239 82.8307 44.3657C83.0971 44.5996 83.2595 44.9147 83.2725 45.2785V45.2752Z" fill="black"/>
<path d="M53.0369 79.1458C52.6439 79.1458 52.2541 79.1458 51.8675 79.1426C51.5589 79.1393 51.2698 79.1166 50.9872 79.0938C50.6851 79.0711 50.3993 79.0451 50.1264 79.0516C48.7329 79.0744 47.3491 78.9217 46.014 78.7723C45.7151 78.7398 45.4195 78.704 45.1207 78.6748C44.5912 78.6163 44.0682 78.5774 43.5192 78.5351C43.2756 78.5156 43.032 78.4961 42.7851 78.4767C42.0153 78.4149 41.2324 78.35 40.5113 78.3987C39.5822 78.4637 38.6695 78.5026 37.7177 78.2948C37.6202 78.272 37.513 78.246 37.4091 78.22C37.3084 78.1941 37.2077 78.1681 37.1037 78.1486L37.0453 78.1421C37.0258 78.1421 37.0063 78.1356 36.9901 78.1323C36.9608 78.1323 36.9316 78.1291 36.9023 78.1258C36.5255 78.0966 36.1585 78.0999 35.7719 78.1031C34.1185 78.1031 32.4683 78.1031 30.8214 78.1031H29.1583C27.1995 78.0934 25.2375 78.0934 23.2788 78.1031C22.8565 78.1031 22.4374 78.0771 22.0346 78.0479C21.4987 78.0121 21.0082 77.9927 20.5014 78.0089C20.2578 78.0154 20.0077 78.0251 19.7445 78.0186C19.4197 78.0057 19.1306 77.9504 18.9065 77.9017C18.8772 77.8985 18.8447 77.892 18.8155 77.8887H18.7473C18.3672 77.892 18.0164 77.892 17.6656 77.8887C17.2336 77.8887 16.8015 77.8887 16.3728 77.8887C16.1031 77.8887 15.7426 77.8855 15.3495 77.7978C15.2943 77.788 15.2293 77.7718 15.1611 77.7523C15.0799 77.749 14.9987 77.7425 14.9175 77.736C14.8005 77.7295 14.6804 77.7198 14.5634 77.7133C13.956 77.6873 13.4103 77.6711 12.897 77.6711C11.9615 77.6646 11.1884 77.0994 10.8213 76.1573L10.8051 76.1119C10.7369 75.9397 10.6492 75.7253 10.6069 75.4557C10.5712 75.2803 10.5647 75.1049 10.5842 74.9165C10.5842 74.8807 10.5842 74.845 10.5874 74.8093C10.5874 74.7768 10.5874 74.7443 10.5874 74.7118C10.5874 74.4974 10.5874 74.2993 10.5777 74.0979C10.5777 74.0394 10.5712 73.9744 10.5647 73.9062V73.8802C10.5647 73.8802 10.5582 73.851 10.5582 73.838C10.529 73.6334 10.5192 73.4255 10.5225 73.1883C10.503 73.0552 10.4835 72.9187 10.4705 72.7888C10.4283 72.4412 10.425 72.1066 10.4283 71.7948C10.4348 71.3173 10.4315 70.8398 10.4315 70.3623V69.7158C10.4315 69.1669 10.4315 68.6504 10.373 68.1436C10.3373 67.8383 10.3373 67.546 10.3471 67.2666C10.3373 67.2276 10.3308 67.1886 10.3211 67.1529C10.2756 66.9028 10.2496 66.6527 10.2399 66.3928C10.2334 66.1394 10.2399 65.8958 10.2399 65.6489C10.2464 65.2883 10.2496 64.9473 10.2204 64.6224L10.2074 64.525C10.1879 64.3821 10.1684 64.2359 10.1587 64.0929C10.1489 63.9175 10.1457 63.7454 10.1489 63.5277C10.1587 63.1997 10.1619 62.8781 10.1619 62.5597V61.6924C9.7721 61.6924 9.38879 61.6859 9.00873 61.6827C8.65791 61.6794 8.30709 61.6729 7.95627 61.6729C7.81659 61.6729 7.67366 61.6567 7.51774 61.6242C7.48526 61.621 7.44628 61.6112 7.4073 61.6047C6.79011 61.4618 6.28337 61.0395 6.0105 60.445C5.86758 60.1559 5.78637 59.8506 5.77013 59.5388C5.76363 59.3309 5.78637 59.1425 5.83834 58.9443C5.88382 58.7169 5.92605 58.4895 5.97477 58.2622C6.00726 58.0997 6.04299 57.9536 6.11445 57.7717C6.15343 57.6645 6.19891 57.5605 6.25738 57.4631C6.32235 57.2941 6.39381 57.1155 6.48476 56.9368C6.514 56.8816 6.54973 56.8264 6.58871 56.7614C6.58871 56.7614 6.58871 56.7614 6.58871 56.7582C6.59196 56.7452 6.59846 56.7354 6.6017 56.7257C6.64068 56.6282 6.67966 56.5308 6.72189 56.4333L6.79011 56.2742C6.83234 56.18 6.87457 56.0825 6.92004 55.9883L6.92654 55.9753C6.92654 55.9753 6.93953 55.9428 6.94278 55.9363C7.00125 55.7869 7.05972 55.6375 7.11819 55.4881C7.24163 55.1697 7.36832 54.8514 7.48201 54.533C7.75162 53.7762 8.07646 53.0518 8.3948 52.3502C8.54097 52.0253 8.68715 51.7005 8.82683 51.3724C8.86256 51.2879 8.90154 51.2002 8.94052 51.1125L9.03797 50.8884C9.05096 50.8559 9.0672 50.8202 9.0802 50.7877L9.10618 50.7195C9.18739 50.5181 9.2686 50.3167 9.34007 50.112L9.41478 49.8976C9.50898 49.628 9.60643 49.3519 9.75261 49.0596C9.79808 48.9719 9.83706 48.9004 9.87929 48.8289L9.89553 48.7997C9.93776 48.6405 10.0125 48.4586 10.1229 48.228C10.1294 48.215 10.1457 48.1825 10.1522 48.1695C10.2009 48.0786 10.2529 47.9974 10.3113 47.9129L10.36 47.8382C10.3893 47.7927 10.4153 47.744 10.4445 47.692C10.4283 47.6238 10.4185 47.5556 10.4088 47.4906C10.3243 46.711 10.6686 45.9574 11.3118 45.5156L11.7666 45.2005C12.0687 44.7425 12.5332 44.4274 13.0757 44.304L17.1459 41.5104C15.8108 37.6773 14.4595 33.6007 13.5012 29.368C13.1699 27.8933 12.91 26.3893 12.6599 24.9373L12.5527 24.3104C12.1759 22.1177 13.3453 21.023 14.3913 20.4935L15.7166 19.8211C21.4207 16.9269 27.323 13.9319 33.4753 11.684C34.4271 11.3364 35.4828 11.0928 36.8016 10.9142C39.8811 10.5016 42.3076 11.697 44.0065 14.4614C45.3351 16.6345 46.1407 19.1033 46.7871 21.0847C47.1054 22.0657 47.3426 22.1242 48.1384 21.9423C50.9742 21.2796 54.0472 20.7307 57.276 21.1822C57.877 21.2667 58.5299 21.1302 59.2185 20.9873C59.3777 20.9548 59.5401 20.9191 59.6993 20.8898C61.5281 20.5325 63.2887 20.8704 64.6595 21.8416C66.0758 22.8421 67.0146 24.4598 67.3004 26.4023C67.726 29.2803 67.9891 32.4085 68.119 36.1766H73.4366C74.096 36.1766 74.7229 36.4884 75.1192 37.0114C75.2102 37.1316 75.2881 37.2648 75.3531 37.411C75.4083 37.4727 75.4603 37.5344 75.5058 37.6026C75.535 37.6221 75.561 37.6449 75.5902 37.6676C75.7267 37.7715 75.8826 37.8917 76.0353 38.0119C76.0385 38.0119 76.0418 38.0184 76.045 38.0184L76.1067 38.0606C76.1295 38.0769 76.1555 38.0964 76.1782 38.1126C76.2562 38.1613 76.3471 38.2101 76.4348 38.2588C76.6525 38.3757 76.8993 38.5089 77.1527 38.7233C77.3054 38.8467 77.4386 38.9832 77.5555 39.1034C77.6302 39.1813 77.7049 39.2593 77.7861 39.3275C77.9518 39.4704 78.1175 39.6166 78.2831 39.7628C78.5105 39.9642 78.7379 40.1656 78.9718 40.3637C79.027 40.4092 79.0822 40.4579 79.1407 40.5067C79.2674 40.6171 79.3876 40.721 79.4948 40.7958C79.5175 40.812 79.5402 40.825 79.5597 40.838C79.5727 40.8477 79.5955 40.864 79.6085 40.8737C79.6474 40.9062 79.6929 40.9387 79.7319 40.9679L80.0665 41.218C80.5082 41.5429 80.9533 41.845 81.4243 42.1601L81.931 42.5044C82.4443 42.852 82.9737 43.2125 83.461 43.6446C83.932 44.0604 84.2081 44.6288 84.2309 45.246C84.2309 45.3077 84.2309 45.3694 84.2309 45.4344V46.1296C84.2309 47.0586 83.5747 47.9259 82.7204 48.1533C82.6457 48.189 82.5742 48.2247 82.5027 48.2637L82.4735 48.28C82.2266 48.4067 81.9798 48.5431 81.7329 48.686C81.3366 48.9101 80.9858 49.0823 80.6252 49.2285C80.557 49.2577 80.479 49.287 80.4011 49.3162L80.2874 49.3584C80.2874 49.3584 80.2809 49.3584 80.2744 49.3617C80.2581 49.3682 80.2419 49.3747 80.2256 49.3844C80.1477 49.4266 80.073 49.4721 79.995 49.5176C79.8911 49.5826 79.7839 49.6443 79.6767 49.7027C79.563 49.7677 79.4525 49.8197 79.3486 49.8652C79.1927 50.0048 79.0205 50.1478 78.8191 50.268C78.6989 50.3427 78.569 50.4011 78.4553 50.4434C78.4358 50.4531 78.4163 50.4629 78.3968 50.4726L78.3806 50.4823C78.3351 50.5213 78.2864 50.5571 78.2376 50.596C78.1694 51.577 78.0915 52.7692 78.033 53.9711C78.0135 54.3869 77.9713 54.7962 77.9258 55.1925C77.8868 55.566 77.8478 55.9168 77.8316 56.2677C77.8056 56.7159 77.7926 57.1642 77.7796 57.6092C77.7699 57.9925 77.7569 58.3758 77.7406 58.7592C77.7244 59.097 77.6919 59.4056 77.6432 59.7012V59.7369V59.8409C77.6432 59.8993 77.6432 59.9578 77.6432 60.0163C77.6464 60.1657 77.6529 60.3346 77.6367 60.5198C77.6205 60.6887 77.5977 60.8446 77.575 61.0038C77.5717 61.0427 77.5652 61.1077 77.5587 61.1629L77.5652 61.3383C77.5685 61.4488 77.5717 61.5592 77.5652 61.6697C77.5555 61.8971 77.5133 62.1115 77.484 62.2674C77.4808 62.2869 77.4743 62.3064 77.471 62.3258V62.3388C77.471 62.3388 77.471 62.3453 77.471 62.3486C77.471 62.4688 77.471 62.5987 77.4808 62.7384C77.4873 62.8911 77.4938 63.0437 77.4905 63.1964C77.4873 63.5018 77.4386 63.7746 77.3996 64.015V64.0247C77.3996 64.1742 77.3866 64.3073 77.3768 64.408C77.3671 64.512 77.3508 64.6127 77.3346 64.7134L77.3151 64.8531C77.3151 64.8531 77.3151 64.8726 77.3151 64.8791C77.3054 65.0415 77.3086 65.2234 77.3119 65.3988C77.3184 65.9705 77.2502 66.4935 77.1852 66.9418C77.1267 67.3413 77.0617 67.7961 76.8636 68.2703C76.3341 69.5209 75.142 70.0699 74.4273 70.4013C73.6932 70.7358 72.9786 71.0737 72.3029 71.4082C71.166 71.967 70.094 72.5809 68.9604 73.2306L68.2132 73.6561C67.5798 74.0199 66.8782 74.3805 66.0693 74.754C65.5951 74.9717 65.1175 75.1763 64.7115 75.3485C64.5393 75.42 64.3932 75.4817 64.247 75.5401L63.9286 75.6701C63.9092 75.6798 63.8864 75.6863 63.8669 75.6928C63.4966 75.852 63.1458 76.0404 62.7722 76.2353C62.4604 76.401 62.1356 76.5764 61.7945 76.7323L61.7133 76.7713C61.4924 76.872 61.2682 76.9759 61.0409 77.0669C60.9986 77.0864 60.9402 77.1091 60.8784 77.1318L60.7063 77.2033C60.5016 77.317 60.297 77.4372 60.0923 77.5541L59.8942 77.6711C59.7513 77.7523 59.6116 77.8302 59.4687 77.905C59.277 78.0089 59.0983 78.1063 58.9294 78.2103C58.8092 78.285 58.6988 78.35 58.5916 78.4214C58.1953 78.8437 57.6138 79.0581 57.1688 79.1198C56.9284 79.1523 56.7173 79.1523 56.5386 79.1491C56.347 79.1426 56.1651 79.1458 55.9832 79.1491C55.3562 79.1556 54.7293 79.1556 54.1056 79.1588L53.0824 79.1653H53.0174L53.0369 79.1458ZM58.0296 77.7198L58.0394 77.7263L57.9842 77.6516L58.0296 77.7198ZM50.1979 77.1026C50.5292 77.1026 50.841 77.1286 51.1431 77.1513C51.403 77.1708 51.6466 77.1903 51.887 77.1936C52.2898 77.1968 52.6926 77.1968 53.0986 77.1968L54.1121 77.1903C54.6416 77.1871 55.1711 77.1838 55.7006 77.1838H55.9832C56.1911 77.1806 56.4022 77.1773 56.6101 77.1838C56.74 77.1838 56.8342 77.1838 56.9252 77.1741C57.0259 77.1611 57.1428 77.1091 57.1851 77.0799C57.2533 76.9922 57.3312 76.9174 57.4254 76.859L57.4904 76.8167C57.6268 76.7258 57.7763 76.6348 57.9257 76.5406C58.1336 76.4107 58.3512 76.2905 58.5624 76.1768C58.6858 76.1086 58.8125 76.0436 58.9359 75.9722L59.1308 75.8585C59.3582 75.7253 59.5856 75.5954 59.813 75.4687C59.8422 75.4524 59.8682 75.4394 59.8974 75.4265L59.9299 75.4135C59.9787 75.3907 60.0339 75.3647 60.0631 75.355L60.193 75.303C60.232 75.2868 60.271 75.2738 60.3067 75.2575C60.5211 75.1698 60.7193 75.0789 60.9142 74.9912L60.9954 74.9554C61.2812 74.8223 61.5703 74.6696 61.8724 74.5072C62.2655 74.2993 62.6715 74.0816 63.1068 73.8965C63.1198 73.89 63.1718 73.8672 63.2368 73.8445L63.5356 73.7211C63.6818 73.6626 63.8117 73.6074 63.9449 73.5522C64.3607 73.3767 64.8219 73.1786 65.2702 72.974C66.0238 72.6264 66.6768 72.2918 67.2647 71.9572L68.0118 71.5317C69.1228 70.895 70.2727 70.2388 71.4616 69.6541C72.1535 69.3131 72.8844 68.9655 73.6347 68.6244C74.3006 68.3191 74.8691 68.0202 75.0867 67.5102C75.1874 67.2666 75.2297 66.984 75.2752 66.6559C75.3466 66.1784 75.3888 65.8081 75.3823 65.4248C75.3823 65.2299 75.3758 65.009 75.3888 64.7751C75.3888 64.7199 75.3921 64.6777 75.3986 64.6354C75.3986 64.6322 75.3986 64.6257 75.3986 64.6224C75.4083 64.5542 75.4181 64.4893 75.4278 64.421C75.4376 64.3463 75.4506 64.2716 75.4571 64.1969C75.4603 64.1514 75.4701 64.0994 75.4668 64.0475C75.4668 64.0345 75.4668 64.0247 75.4668 64.0117V63.9403C75.4668 63.8851 75.4701 63.8331 75.4798 63.7779L75.496 63.6804C75.5285 63.4953 75.5578 63.3166 75.561 63.1704C75.561 63.0535 75.5578 62.9365 75.5513 62.8163C75.5415 62.6247 75.535 62.4071 75.5448 62.1829C75.5448 62.1277 75.5545 62.0725 75.5675 62.0173C75.5772 61.9685 75.5837 61.9263 75.5902 61.8938C75.6097 61.7866 75.6325 61.6599 75.6357 61.569C75.6357 61.556 75.6357 61.543 75.6357 61.53C75.6357 61.491 75.6357 61.452 75.6357 61.4131L75.626 61.1792C75.626 61.1369 75.626 61.0947 75.626 61.0525C75.6292 60.981 75.6357 60.9388 75.6422 60.8998C75.6455 60.8706 75.652 60.7926 75.652 60.7894C75.652 60.7666 75.6552 60.7471 75.6585 60.7244C75.6779 60.5977 75.6974 60.4743 75.7104 60.3476C75.7169 60.2599 75.7104 60.1592 75.7104 60.0585C75.7104 59.9838 75.7072 59.9058 75.7072 59.8311V59.6979C75.7137 59.5095 75.7267 59.4121 75.7364 59.3633C75.7721 59.149 75.7981 58.9183 75.8079 58.6585C75.8241 58.2849 75.8371 57.9146 75.8469 57.5443C75.8599 57.0798 75.8728 56.6185 75.8988 56.1572C75.9183 55.7544 75.9605 55.3581 76.0028 54.9748C76.045 54.5915 76.084 54.2277 76.1002 53.8671C76.1684 52.4476 76.2626 51.0443 76.3406 49.9821C76.3633 49.6605 76.542 49.3714 76.8181 49.209C76.8539 49.1895 76.8863 49.17 76.9221 49.1473C76.9838 49.1018 77.0617 49.0401 77.1397 48.9784C77.1787 48.9426 77.2177 48.9101 77.2534 48.8842L77.2631 48.8777C77.3573 48.7965 77.4645 48.738 77.575 48.699C77.6205 48.673 77.6692 48.6503 77.7179 48.6308C77.7861 48.6048 77.8089 48.5951 77.8121 48.5918C77.9226 48.5268 78.0427 48.4164 78.1337 48.3287C78.2312 48.2312 78.3481 48.1565 78.4845 48.1046C78.5787 48.0656 78.6599 48.0298 78.7184 47.9974C78.7314 47.9909 78.7411 47.9844 78.7541 47.9779C78.8353 47.9356 78.9101 47.8869 78.988 47.8414C79.118 47.7635 79.2446 47.6855 79.3811 47.6173C79.4071 47.6043 79.433 47.5913 79.459 47.5816C79.4688 47.5783 79.4558 47.5816 79.4428 47.5913C79.459 47.5816 79.4785 47.5718 79.4948 47.5653C79.5078 47.5588 79.524 47.5523 79.5402 47.5458C79.576 47.5296 79.6117 47.5166 79.6474 47.5069L79.7157 47.4809C79.7741 47.4581 79.8326 47.4354 79.8911 47.4127C80.1802 47.2957 80.4465 47.1658 80.7681 46.9839C81.0345 46.8312 81.3073 46.6818 81.5802 46.5388L81.6127 46.5226C81.7264 46.4641 81.8401 46.4057 81.957 46.3504C82.0025 46.3277 82.0512 46.3115 82.0999 46.2952C82.1422 46.279 82.1909 46.266 82.2331 46.2595C82.2396 46.2465 82.2851 46.162 82.2851 46.1198V45.3922C82.2851 45.3694 82.2851 45.3467 82.2851 45.3272C82.2851 45.324 82.2851 45.3175 82.2851 45.3142C82.2851 45.259 82.2689 45.181 82.1747 45.0998C81.7784 44.749 81.3203 44.4372 80.8363 44.1091L80.3361 43.7712C79.8683 43.4562 79.3843 43.1313 78.9101 42.7805L78.5755 42.5304C78.53 42.4979 78.4813 42.4622 78.4325 42.4232C78.4293 42.4232 78.4261 42.4199 78.4228 42.4167C78.2117 42.277 78.0298 42.1178 77.8673 41.9782L77.7212 41.8515C77.4743 41.6436 77.2339 41.4324 76.9935 41.218C76.8344 41.0784 76.6752 40.9354 76.5128 40.7958C76.3893 40.6886 76.2756 40.5749 76.1619 40.4612C76.071 40.367 75.9865 40.2793 75.9086 40.2176C75.7981 40.1266 75.6714 40.0551 75.509 39.9674C75.3823 39.8992 75.2557 39.831 75.129 39.7498C75.0705 39.7108 75.025 39.6783 74.9796 39.6458L74.9698 39.6393C74.9341 39.6166 74.9016 39.5939 74.8691 39.5679C74.7132 39.4444 74.5573 39.321 74.3948 39.1976C74.3364 39.1521 74.3006 39.1294 74.2682 39.1034L74.2259 39.0741C74.096 38.9832 73.9888 38.8597 73.9173 38.7201C73.9173 38.7201 73.9076 38.7071 73.8751 38.6746C73.7419 38.5576 73.6412 38.405 73.5893 38.2328C73.5763 38.1906 73.5698 38.1776 73.5698 38.1776C73.5405 38.1418 73.4951 38.1191 73.4431 38.1191H67.1803C66.654 38.1191 66.222 37.7001 66.2057 37.1706C66.0888 33.0517 65.8257 29.7156 65.3774 26.6784C65.1663 25.2719 64.5134 24.1155 63.5388 23.4236C62.5936 22.7544 61.3949 22.5368 60.0729 22.7934C59.9202 22.8226 59.7708 22.8551 59.6181 22.8876C58.832 23.05 57.9452 23.2352 57.0064 23.1052C54.0926 22.6959 51.2341 23.2124 48.5834 23.8329C46.7416 24.2584 45.5495 23.5567 44.9388 21.6824C44.1559 19.2852 43.4705 17.3037 42.3498 15.4748C41.057 13.3699 39.3776 12.5286 37.068 12.8404C35.8921 12.9963 34.9663 13.2107 34.151 13.5063C28.1058 15.7152 22.2588 18.6842 16.6034 21.5525L15.2781 22.2249C14.5407 22.5985 14.3263 23.0727 14.479 23.9725L14.5862 24.5995C14.833 26.0287 15.0864 27.5067 15.408 28.9328C16.402 33.3245 17.8443 37.5799 19.2378 41.5656C19.384 41.9814 19.2313 42.4427 18.8707 42.6895L14.0112 46.0256C13.878 46.1166 13.7253 46.175 13.5629 46.1913C13.4362 46.2043 13.4038 46.2627 13.3908 46.2822C13.3713 46.318 13.342 46.3699 13.3096 46.4187C13.2413 46.5226 13.1536 46.6103 13.0497 46.6818L12.4228 47.1138C12.3708 47.1495 12.3448 47.2048 12.3513 47.2632C12.3513 47.2762 12.361 47.3022 12.3773 47.3314C12.5105 47.6011 12.5072 47.9194 12.3773 48.189L12.3221 48.2995C12.2376 48.4716 12.1466 48.6665 12.0232 48.8614C11.9972 48.9069 11.968 48.9491 11.9355 48.9946C11.9193 49.0206 11.903 49.0433 11.8868 49.0693C11.8251 49.2025 11.7991 49.2707 11.7861 49.2999C11.7698 49.4104 11.7309 49.5208 11.6756 49.6183C11.6529 49.6573 11.6334 49.6897 11.6172 49.7222L11.5847 49.7775C11.5554 49.8327 11.5262 49.8847 11.497 49.9366C11.4125 50.1023 11.3411 50.3134 11.2631 50.5343L11.1819 50.7682C11.1007 50.9891 11.013 51.2132 10.922 51.4374L10.8863 51.5251C10.8798 51.5413 10.8733 51.5608 10.8635 51.577L10.7271 51.8921C10.6914 51.9701 10.6589 52.0481 10.6232 52.126C10.477 52.4671 10.3243 52.8049 10.1716 53.1395C9.8598 53.8346 9.56095 54.4908 9.32058 55.1697C9.20039 55.5108 9.0672 55.8486 8.93402 56.1865C8.8788 56.3326 8.82033 56.4756 8.76511 56.6217C8.75861 56.6445 8.74237 56.6802 8.72613 56.7159C8.71638 56.7419 8.69689 56.7874 8.6839 56.8134C8.64492 56.8914 8.61244 56.9693 8.5767 57.0473L8.51823 57.1837C8.489 57.2487 8.46301 57.3169 8.43378 57.3819C8.41104 57.4696 8.37855 57.554 8.33308 57.6352C8.30059 57.6937 8.25836 57.7587 8.22263 57.8106L8.20314 57.8399C8.14792 57.9503 8.0992 58.0835 8.04722 58.2134C8.03423 58.2427 8.00824 58.3011 7.99525 58.3304C7.97901 58.3596 7.96276 58.3888 7.94652 58.4181C7.94003 58.4343 7.93678 58.4506 7.93028 58.4636C7.91079 58.5123 7.90429 58.5383 7.8848 58.6357C7.83283 58.8761 7.7906 59.1067 7.74512 59.3374C7.73863 59.3633 7.73213 59.3893 7.72563 59.4153C7.72239 59.4283 7.71589 59.4446 7.71589 59.4576C7.71589 59.4738 7.73213 59.5193 7.75487 59.568C7.76137 59.5842 7.76786 59.5972 7.77761 59.6135C7.7971 59.6589 7.81659 59.6784 7.83283 59.6882C7.85557 59.6914 7.87831 59.6979 7.8978 59.7012C7.94327 59.7109 7.95627 59.7142 7.95627 59.7142C8.31683 59.7142 8.67415 59.7207 9.03147 59.7239C9.71363 59.7337 10.4218 59.7434 11.1072 59.7239C11.3735 59.7109 11.6237 59.8149 11.8121 60C12.0005 60.1819 12.1077 60.4353 12.1077 60.6984V62.5532C12.1077 62.8911 12.1044 63.2321 12.0947 63.57C12.0947 63.6934 12.0947 63.8298 12.1012 63.9663C12.1077 64.0572 12.1207 64.1579 12.1369 64.2554L12.1434 64.3073C12.1531 64.3561 12.1564 64.395 12.1596 64.4373C12.2019 64.8693 12.1954 65.2786 12.1889 65.6749C12.1856 65.8925 12.1824 66.1102 12.1889 66.3311C12.1954 66.487 12.2084 66.6429 12.2343 66.7826C12.2376 66.8053 12.2473 66.8378 12.2571 66.8703C12.2863 66.9612 12.2993 67.0587 12.2993 67.1562C12.2993 67.1691 12.2993 67.1854 12.2993 67.1984C12.2863 67.4745 12.2831 67.7019 12.3058 67.913C12.3773 68.5335 12.3773 69.1311 12.3773 69.7094V70.3493C12.3773 70.8365 12.3773 71.3205 12.3773 71.8045C12.3773 72.0482 12.3773 72.308 12.4065 72.5484C12.4195 72.6621 12.4325 72.7758 12.4487 72.8862C12.4585 72.9285 12.465 72.9707 12.4682 73.0162C12.4812 73.1071 12.4942 73.2436 12.4682 73.3995C12.4682 73.4547 12.4747 73.5067 12.4845 73.5587C12.4845 73.5781 12.491 73.6009 12.491 73.6204C12.4975 73.6594 12.5007 73.7048 12.504 73.7438V73.7601C12.5105 73.8478 12.517 73.9355 12.5202 74.0232C12.5267 74.257 12.5332 74.4877 12.5299 74.7151C12.5299 74.7573 12.5299 74.8158 12.5267 74.8742C12.5267 74.9067 12.5267 74.936 12.5267 74.9684C12.5267 75.0074 12.5267 75.0496 12.5202 75.0886C12.5267 75.1146 12.5235 75.1211 12.5299 75.1471C12.5364 75.1991 12.5689 75.2803 12.6112 75.381L12.6339 75.4362C12.7411 75.7123 12.8645 75.7156 12.9035 75.7156C13.4395 75.7156 14.0177 75.7286 14.6609 75.7578C14.7973 75.7643 14.924 75.774 15.0507 75.7838C15.1644 75.7903 15.2781 75.8 15.3885 75.8065C15.473 75.8098 15.5542 75.826 15.6354 75.852C15.6451 75.8552 15.6614 75.8617 15.6744 75.865C15.6873 75.865 15.7198 75.8747 15.7523 75.8812C15.9277 75.9202 16.1129 75.9364 16.3565 75.9299C16.7983 75.9267 17.2368 75.9299 17.6753 75.9299C18.0197 75.9299 18.3672 75.9299 18.7116 75.9299L18.835 75.9235C18.9162 75.9202 18.9974 75.9235 19.0786 75.9429C19.1111 75.9494 19.1598 75.9559 19.1826 75.9559C19.2216 75.9592 19.2573 75.9657 19.293 75.9754C19.5139 76.0242 19.6763 76.0501 19.8193 76.0566C20.0077 76.0631 20.2156 76.0566 20.4364 76.0469C21.0309 76.0274 21.6188 76.0501 22.1711 76.0891C22.5544 76.1151 22.9214 76.1411 23.2723 76.1378C25.2343 76.1313 27.1995 76.1313 29.1648 76.1378H30.8279C32.4748 76.1443 34.1218 76.1443 35.7654 76.1443C36.1715 76.1443 36.6002 76.1378 37.042 76.1736C37.094 76.1736 37.1655 76.1833 37.2369 76.1898C37.2532 76.1898 37.2727 76.1931 37.2889 76.1963H37.3214C37.3734 76.2093 37.4383 76.2191 37.4643 76.2223C37.617 76.2515 37.7502 76.284 37.8834 76.3198C37.9678 76.3392 38.0523 76.362 38.1335 76.3782C38.8384 76.5341 39.566 76.5017 40.3748 76.4432C41.2421 76.3847 42.0997 76.4529 42.9313 76.5212C43.1847 76.5406 43.425 76.5601 43.6654 76.5796C44.2079 76.6218 44.7666 76.6641 45.3253 76.7225C45.6242 76.755 45.9263 76.7875 46.2284 76.8232C47.5569 76.9727 48.8173 77.1189 50.0907 77.0929C50.1264 77.0929 50.1589 77.0929 50.1914 77.0929L50.1979 77.1026ZM63.8734 75.6798C63.8539 75.6863 63.8312 75.6928 63.8117 75.6961C63.8247 75.6961 63.8474 75.6863 63.8734 75.6798ZM77.6659 59.7077C77.6659 59.7174 77.6627 59.7304 77.6594 59.7402C77.6594 59.7304 77.6627 59.7174 77.6659 59.7044V59.7077ZM7.92054 56.2677C8.13818 56.3716 8.31034 56.5535 8.40129 56.7744C8.31683 56.5665 8.15767 56.3814 7.92054 56.2677Z" fill="white"/>
<path d="M79.9265 48.4424C79.7349 48.5496 79.8453 48.4781 79.9265 48.4424V48.4424Z" fill="black"/>
<path d="M77.8513 49.6607C77.8349 49.6738 77.8185 49.6869 77.8021 49.7001C77.7792 49.723 77.7857 49.7296 77.8809 49.6443C77.871 49.6508 77.8612 49.6541 77.8546 49.6574C77.8546 49.6574 77.8513 49.6574 77.8481 49.6607H77.8513Z" fill="black"/>
<path d="M73.4465 38.2783H25.5755L12.5171 47.247C12.5171 47.247 31.0684 54.7864 31.2536 54.7864C31.4387 54.7864 70.9907 48.4067 70.9875 47.8285C70.9842 47.2502 73.4497 38.2783 73.4497 38.2783H73.4465Z" fill="#E0B177"/>
<path d="M31.2532 55.9234C30.9511 55.9234 30.8472 55.9234 12.0912 48.3027C11.7046 48.1468 11.435 47.7895 11.3895 47.3705C11.344 46.9514 11.5324 46.5486 11.8768 46.3115L24.9352 37.3428C25.1236 37.2129 25.3477 37.1414 25.5783 37.1414H73.4493C73.8034 37.1414 74.138 37.3071 74.3524 37.5897C74.5667 37.8723 74.6382 38.2393 74.544 38.5804C73.4298 42.6311 72.2084 47.247 72.1207 47.8902C72.1045 48.1695 71.9811 48.4489 71.7829 48.6471C71.4029 49.0304 71.104 49.3325 51.1201 52.6913C44.9483 53.7275 31.5813 55.9266 31.2532 55.9266V55.9234ZM14.901 46.9904C21.4724 49.6573 29.8694 53.0518 31.3701 53.6235C35.044 53.0876 65.4941 48.0948 69.9931 46.9742C70.201 46.0256 70.7142 43.9727 71.9583 39.4152H25.9291L14.901 46.9904ZM72.1207 47.8187C72.1207 47.8382 72.1207 47.8545 72.1207 47.8739C72.1207 47.8512 72.1207 47.835 72.1207 47.8187ZM69.8631 47.6271C69.8534 47.679 69.8501 47.731 69.8469 47.783C69.8469 47.7505 69.8534 47.7018 69.8631 47.6271Z" fill="black"/>
<path d="M67.3102 47.5816C67.3914 53.2792 67.3362 58.9768 67.0016 64.6679C66.8197 67.7636 65.6276 69.1409 62.6196 69.6866C55.496 70.9795 48.3756 72.2853 41.2552 73.6074C38.6825 74.0849 37.2532 73.2403 36.4931 70.7098C35.8824 68.6796 35.8142 66.5552 35.4276 64.486C35.3529 64.0864 35.3107 63.6804 35.223 63.2841C35.0118 62.3096 34.4434 61.9133 33.4429 62.2024C32.0981 62.5922 30.7533 62.9982 29.3954 63.3328C27.7355 63.7421 27.3555 63.5602 26.5109 62.1179C23.8115 57.5053 22.0054 52.5126 20.2773 47.4809C18.1951 41.4129 15.879 35.4197 14.4628 29.1407C14.0892 27.484 13.8131 25.8046 13.524 24.1317C13.3063 22.8648 13.6832 21.9391 14.8428 21.3511C21.0602 18.2002 27.2515 14.9876 33.8165 12.587C34.8202 12.22 35.8727 12.0121 36.9381 11.8692C39.7285 11.4956 41.7554 12.6358 43.1782 14.9616C44.4028 16.9561 45.1435 19.165 45.8646 21.3771C46.3096 22.7446 46.9918 23.1994 48.3626 22.8811C51.2569 22.2054 54.1576 21.7182 57.1429 22.1372C58.0719 22.2671 58.9814 22.0105 59.8877 21.8351C63.227 21.1854 65.842 23.1767 66.339 26.5322C67.3752 33.5194 67.2128 40.5521 67.307 47.5783L67.3102 47.5816ZM37.7535 14.6335C37.4708 14.6692 37.25 14.6952 37.0323 14.7277C34.5928 15.0785 32.3969 16.1765 30.1263 17.0275C25.845 18.6322 21.6611 20.4611 17.7111 22.7901C16.0577 23.7646 15.7881 24.3916 16.3111 26.2594C16.925 28.4618 17.5454 30.6641 18.2309 32.8438C20.482 39.9804 23.2658 46.9384 25.2375 54.1692C25.7053 55.8876 26.5596 57.4436 27.6121 58.8891C28.5444 60.1657 28.7912 60.2696 30.3082 59.7596C36.5646 57.6612 42.8209 55.5628 49.0707 53.4448C51.5817 52.5938 52.0332 51.733 51.3023 49.1992C48.6712 40.0616 46.04 30.924 43.3764 21.7961C42.8826 20.107 42.4863 18.3659 41.4598 16.8716C40.5438 15.5333 39.2867 14.8187 37.7567 14.6335H37.7535ZM64.718 47.5361C64.718 43.2093 64.7733 38.8792 64.6985 34.5524C64.6531 31.8595 64.5784 29.1472 63.6786 26.555C63.0614 24.7814 62.5871 24.4435 60.7583 24.5183C58.6144 24.606 56.4672 24.6807 54.333 24.8528C52.5692 24.9958 50.7891 25.103 49.0805 25.6519C48.5672 25.8176 48.1125 26.0482 47.8883 26.555C47.1217 28.2863 48.8888 30.7941 50.7469 30.6446C52.6991 30.4855 54.6546 30.3328 56.6101 30.1996C58.6793 30.0599 60.3133 31.3268 60.5082 33.3018C61.1806 40.0779 61.6191 46.8702 61.9212 53.6722C62.0576 56.7549 61.1254 57.8853 58.2148 58.4798C55.4635 59.0418 52.7121 59.5972 49.9413 60.0585C47.6869 60.4353 45.3903 60.8771 43.1457 60.026C41.8042 59.5193 40.625 59.8376 39.4264 60.4288C38.6143 60.8284 38.2862 61.465 38.4129 62.3193C38.7377 64.512 39.0658 66.7046 39.4491 68.8908C39.6537 70.0537 40.4204 70.5344 41.6157 70.3883C48.3691 69.5599 54.9892 67.9682 61.6841 66.8183C63.8735 66.4415 64.2795 65.9088 64.3737 63.7421C64.6108 58.3434 64.4907 52.9381 64.718 47.5361Z" fill="#0E0E0E"/>
<path d="M37.7527 14.6335C39.2859 14.8187 40.543 15.5366 41.4558 16.8716C42.4791 18.3691 42.8786 20.107 43.3724 21.7961C46.036 30.924 48.6704 40.0616 51.2983 49.1992C52.0292 51.733 51.5777 52.5938 49.0667 53.4448C42.8169 55.5628 36.5606 57.6612 30.3042 59.7596C28.7905 60.2664 28.5404 60.1657 27.6081 58.8891C26.5556 57.4436 25.7013 55.8876 25.2336 54.1692C23.265 46.9384 20.478 39.9804 18.2269 32.8438C17.5382 30.6641 16.921 28.4618 16.3071 26.2594C15.7873 24.3916 16.057 23.7646 17.7071 22.7901C21.6539 20.4611 25.8377 18.6322 30.1223 17.0276C32.3962 16.1765 34.5888 15.0785 37.0283 14.7277C37.246 14.6952 37.4669 14.6692 37.7495 14.6335H37.7527ZM34.9949 17.8851C31.0936 18.603 26.5914 19.5515 22.6674 22.2087C21.7741 22.8129 20.975 23.5535 20.4195 24.4825C19.6204 25.8176 18.8635 27.1916 19.3833 28.8483C20.9652 33.88 23.0507 38.7168 24.9932 43.6088C25.8702 45.8145 28.0174 46.8539 30.1256 46.0841C33.7962 44.749 37.4376 43.3132 40.8516 41.3837C43.4406 39.9219 44.5937 37.5377 43.9376 34.6531C42.8591 29.904 41.3714 25.2654 39.8317 20.6495C39.1462 18.59 37.8631 17.8591 34.9916 17.8819L34.9949 17.8851Z" fill="white"/>
<path d="M64.7173 47.5361C64.4932 52.9381 64.6134 58.3434 64.373 63.7421C64.2788 65.912 63.8727 66.4448 61.6833 66.8183C54.9852 67.9682 48.3683 69.5567 41.615 70.3883C40.4196 70.5344 39.653 70.0504 39.4484 68.8908C39.0651 66.7079 38.737 64.5152 38.4121 62.3193C38.2854 61.465 38.6135 60.8283 39.4256 60.4288C40.6243 59.8376 41.8034 59.5193 43.145 60.026C45.3896 60.8771 47.6829 60.432 49.9405 60.0585C52.7081 59.5972 55.4627 59.0418 58.2141 58.4798C61.1246 57.8853 62.0569 56.7549 61.9205 53.6722C61.6184 46.8734 61.1798 40.0779 60.5074 33.3018C60.3125 31.3268 58.6786 30.0599 56.6094 30.1996C54.6539 30.3296 52.6984 30.4855 50.7461 30.6446C48.8881 30.7941 47.1242 28.2831 47.8876 26.555C48.1117 26.0482 48.5665 25.8143 49.0797 25.6519C50.7884 25.1062 52.5685 24.999 54.3323 24.8528C56.4697 24.6774 58.6169 24.6027 60.7576 24.5183C62.5831 24.4435 63.0606 24.7814 63.6778 26.555C64.5776 29.1472 64.6523 31.8595 64.6978 34.5524C64.7725 38.8792 64.7173 43.2093 64.7173 47.5361Z" fill="white"/>
<path d="M34.9952 17.8851C37.8635 17.8591 39.1466 18.5933 39.8353 20.6527C41.3717 25.2686 42.8627 29.9073 43.9412 34.6564C44.5973 37.5409 43.4442 39.9252 40.8552 41.387C37.4412 43.3132 33.7998 44.749 30.1292 46.0873C28.021 46.8539 25.8738 45.8145 24.9968 43.6121C23.051 38.7201 20.9656 33.88 19.3869 28.8516C18.8671 27.1949 19.624 25.8209 20.4231 24.4858C20.9786 23.5567 21.7777 22.8161 22.6709 22.2119C26.595 19.5548 31.0972 18.6063 34.9985 17.8884L34.9952 17.8851ZM30.8211 34.6369C33.501 34.6499 35.9405 32.3338 36.1224 29.6149C36.1549 29.1309 35.9502 28.8483 35.5052 28.7021C35.0732 28.5592 34.7678 28.7509 34.5859 29.1082C34.3358 29.5987 34.1279 30.1152 33.9168 30.6252C33.384 31.9115 32.5265 32.8308 31.0582 32.8925C29.6614 32.9542 28.6739 32.2656 28.073 31.0052C27.8261 30.4855 27.4428 30.1282 26.8451 30.401C26.2409 30.6739 26.3059 31.1839 26.5008 31.7264C27.0952 33.3895 28.9143 34.6271 30.8211 34.6369ZM32.1009 24.9211C31.6104 24.9535 31.3473 25.2751 31.3408 25.7072C31.3343 26.1489 31.6299 26.4998 32.0977 26.4803C32.5297 26.464 32.8643 26.2172 32.8513 25.7072C32.8415 25.2199 32.5752 24.9698 32.1009 24.9211ZM29.0897 26.5712C29.0572 26.11 28.8201 25.7656 28.3166 25.7104C27.8001 25.6519 27.4818 25.9443 27.4233 26.4478C27.3616 26.9773 27.6734 27.2696 28.1737 27.3151C28.6707 27.3606 29.0182 27.1462 29.0897 26.5712Z" fill="#0E0E0E"/>
<path d="M30.8212 34.6369C28.9144 34.6271 27.0953 33.3863 26.5008 31.7263C26.3059 31.1839 26.2442 30.6739 26.8452 30.401C27.4429 30.1282 27.8294 30.4887 28.073 31.0052C28.674 32.2656 29.6582 32.9542 31.0583 32.8925C32.5265 32.8275 33.3809 31.9115 33.9168 30.6252C34.128 30.1152 34.3359 29.5987 34.586 29.1082C34.7679 28.7509 35.0732 28.5592 35.5053 28.7021C35.9503 28.8483 36.155 29.1309 36.1225 29.6149C35.9406 32.3338 33.501 34.6499 30.8212 34.6369Z" fill="white"/>
<path d="M32.1007 24.9243C32.5749 24.973 32.8413 25.2232 32.851 25.7104C32.8608 26.2204 32.5295 26.4673 32.0974 26.4835C31.6297 26.503 31.3308 26.1522 31.3406 25.7104C31.3471 25.2784 31.6102 24.9568 32.1007 24.9243Z" fill="white"/>
<path d="M29.0894 26.5712C29.0147 27.1462 28.6704 27.3606 28.1734 27.3151C27.6731 27.2696 27.358 26.9772 27.423 26.4478C27.4815 25.9475 27.7998 25.6552 28.3163 25.7104C28.823 25.7656 29.0602 26.1132 29.0894 26.5712Z" fill="white"/>
<path d="M76.5611 41.7768C76.5611 42.7838 76.5189 43.768 76.454 44.7717C76.389 45.7755 76.4117 46.8215 76.2915 47.8349C76.0804 49.5761 76.0934 51.3399 75.9147 53.081C75.8693 53.5163 75.8887 53.9483 75.8335 54.3869C75.801 54.663 75.7815 54.9391 75.7523 55.2152C75.6841 55.7967 75.6484 56.3716 75.6484 56.9563C75.6484 57.6287 75.5931 58.2849 75.5672 58.9541C75.5574 59.1717 75.4892 59.3731 75.4762 59.5907C75.4632 59.8311 75.4892 60.0747 75.4827 60.3151C75.4762 60.5555 75.4047 60.7796 75.3917 61.02C75.382 61.2149 75.4145 61.4098 75.4015 61.6047C75.3885 61.7801 75.3203 61.936 75.3105 62.1147C75.2975 62.3551 75.3138 62.6052 75.3138 62.8456C75.3138 63.0665 75.3398 63.2939 75.2943 63.5115C75.2586 63.6837 75.2261 63.8298 75.2293 64.0117C75.2326 64.2911 75.1644 64.5347 75.1449 64.8043C75.1091 65.2883 75.1838 65.7626 75.1026 66.2466C75.0507 66.5455 75.0247 66.8476 74.9597 67.1432C74.9077 67.3673 74.8233 67.5719 74.6609 67.7409C74.5634 67.8416 74.4497 67.9195 74.3328 67.991C73.8163 68.3028 73.2413 68.5302 72.6989 68.7868C72.6631 68.8031 72.6241 68.8226 72.5884 68.8388C70.9415 69.6184 69.3076 70.4337 67.7516 71.3855C66.2899 72.2788 64.7242 72.9967 63.139 73.6269C62.6257 73.8315 62.1092 74.1076 61.6252 74.374C61.2517 74.5819 60.8521 74.7508 60.4688 74.9327C60.1959 75.0626 59.9003 75.1341 59.6405 75.2835C59.3611 75.4427 59.0818 75.5954 58.8089 75.7643C58.5978 75.8942 58.3574 75.9787 58.1462 76.1119C57.9351 76.245 57.698 76.3912 57.4836 76.5276C57.4024 76.5796 57.3212 76.6381 57.2367 76.6933C57.188 76.7258 57.1068 76.7615 57.0645 76.7973C57.0418 76.8168 56.9801 76.924 56.9671 76.9272C56.8599 76.9727 56.6877 76.9434 56.574 76.9402C56.3077 76.9402 56.0413 76.9402 55.7782 76.9402C55.135 76.9402 52.2082 76.9662 51.5651 76.9434C51.2013 76.9304 50.8472 76.8525 50.4801 76.8557C50.0708 76.859 49.655 76.8785 49.2425 76.8622C47.7385 76.807 46.2215 76.5796 44.7273 76.4367C44.4284 76.4075 44.1588 76.3587 43.8535 76.362C43.4344 76.3652 43.0316 76.2938 42.6191 76.2743C42.0247 76.2483 41.4464 76.2028 40.8487 76.1963C40.3907 76.1931 39.9327 76.2775 39.4714 76.271C39.1044 76.2645 38.7373 76.271 38.3735 76.1963C38.1006 76.1411 37.8343 76.0599 37.5582 76.0079C36.9637 75.9007 36.366 75.9072 35.7651 75.9105C34.4592 75.9105 33.1534 75.9105 31.8476 75.9105C28.8201 75.9105 25.7894 75.8877 22.7619 75.9105C22.3104 75.9105 21.8784 75.8 21.4268 75.8033C21.0793 75.8033 20.7317 75.8033 20.3841 75.8033C20.1372 75.8033 19.8611 75.8455 19.6175 75.8098C19.3934 75.7773 19.1952 75.6896 18.9613 75.6928C18.5943 75.6993 18.2272 75.6928 17.8569 75.6928H16.5283C16.3822 75.6928 16.2392 75.6961 16.093 75.6928C15.8722 75.6928 15.6967 75.5986 15.4824 75.5759C14.8587 75.5142 13.5366 75.4752 12.8999 75.4752L12.7602 75.1211C12.796 74.9197 12.7765 73.8445 12.7343 73.6496C12.6823 73.4027 12.7472 73.1396 12.6953 72.8927C12.5913 72.412 12.6271 71.8923 12.6271 71.3823V69.6704C12.6271 69.3618 12.6271 69.0499 12.6271 68.7413C12.6303 68.3548 12.5329 68.017 12.5361 67.6272C12.5361 67.4323 12.5621 67.2146 12.5426 67.023C12.5231 66.8443 12.4549 66.7079 12.4451 66.5227C12.4224 66.1037 12.4484 65.6652 12.4484 65.2429C12.4484 64.892 12.4354 64.59 12.3802 64.2489C12.3152 63.8656 12.3607 63.4465 12.3607 63.06V58.4701" fill="#FFCF8D"/>
<path d="M75.3462 41.7768C75.3462 43.349 75.2358 44.9212 75.1741 46.4901C75.1449 47.2762 75.0409 48.0493 74.9792 48.8322C74.9175 49.615 74.8817 50.4174 74.8395 51.21C74.755 52.7562 74.5991 54.2927 74.4789 55.8356C74.4205 56.6023 74.4367 57.3721 74.3945 58.142C74.3847 58.3271 74.375 58.5155 74.3652 58.7007C74.3652 58.6877 74.3522 59.097 74.3652 58.8956C74.375 58.7137 74.336 59.0515 74.336 59.0515C74.2613 59.4965 74.2645 59.9253 74.271 60.3736C74.271 60.5847 74.323 60.1105 74.2548 60.4613C74.2288 60.601 74.2061 60.7731 74.1931 60.8998C74.1768 61.0785 74.1898 61.2506 74.1931 61.4293C74.1931 61.5203 74.1379 61.7314 74.1996 61.4878C74.1833 61.5527 74.1671 61.621 74.1541 61.6892C74.0989 61.9783 74.0891 62.2511 74.0956 62.5435C74.0989 62.7189 74.1054 62.8943 74.1086 63.0697C74.1086 63.1444 74.1086 63.2191 74.1086 63.2939C74.1086 63.0665 74.1086 63.2679 74.0956 63.3393C74.0534 63.5635 74.0274 63.7844 74.0144 64.0117C74.0112 64.0897 74.0079 64.1677 74.0014 64.2456C74.0209 64.1092 74.0177 64.1124 74.0014 64.2554L73.9592 64.577C73.9105 64.9538 73.9332 65.3273 73.93 65.7041C73.93 65.8048 73.9267 65.9023 73.9202 66.003C73.9202 65.9543 73.9527 65.7918 73.917 66.0322C73.8877 66.2206 73.8682 66.409 73.8358 66.5942C73.8195 66.6851 73.8033 66.7761 73.7805 66.8638L73.7675 66.9125C73.7253 67.0425 73.7286 67.036 73.7838 66.8898C73.7546 66.9158 73.6571 67.1009 73.8033 66.88C73.7058 67.0295 73.7351 66.9353 73.8065 66.8865C73.4947 67.0944 73.1471 67.2536 72.8093 67.4095C71.4255 68.043 70.0547 68.7024 68.7196 69.43C67.3845 70.1576 66.1014 70.9827 64.7209 71.6356C64.3441 71.8143 63.9608 71.98 63.5775 72.1489C63.3696 72.2398 63.8373 72.0417 63.4833 72.1879C63.3728 72.2333 63.2624 72.2788 63.1519 72.3243C62.9083 72.425 62.6614 72.5224 62.421 72.6264C61.6512 72.9545 60.9366 73.3897 60.1797 73.7406C60.092 73.7828 60.001 73.8185 59.9166 73.864C59.8354 73.8997 59.8451 73.8965 59.9458 73.8543C59.8938 73.8737 59.8419 73.8932 59.7866 73.9127C59.53 74.0102 59.2766 74.1109 59.033 74.2376C58.6854 74.4195 58.3606 74.6404 58.0163 74.8223C57.672 75.0042 57.3146 75.2056 56.9703 75.4232C56.8371 75.5077 56.7072 75.5986 56.574 75.6831C56.4863 75.7351 56.4181 75.7838 56.3369 75.8487C56.2329 75.93 55.7814 76.4919 56.116 76.0761L56.652 75.7643C56.9476 75.6863 56.7852 75.7416 56.6552 75.7383C56.5935 75.7383 56.5318 75.7383 56.4668 75.7383C56.2784 75.7383 56.0868 75.7383 55.8984 75.7383C55.7424 75.7383 55.5833 75.7383 55.4273 75.7383C54.9856 75.7383 54.5438 75.7448 54.102 75.7448C53.2639 75.7481 52.4226 75.774 51.5878 75.7416C51.2207 75.7286 50.8569 75.6538 50.4898 75.6506C50.0773 75.6506 49.6648 75.6701 49.2522 75.6571C48.4109 75.6311 47.5728 75.5434 46.738 75.4492C45.1366 75.2705 43.5416 75.1179 41.9304 75.0302C41.5341 75.0074 41.1378 74.9814 40.7415 74.9912C40.3452 75.0009 39.9782 75.0594 39.5949 75.0659C39.3935 75.0691 39.1921 75.0659 38.9907 75.0561C39.0167 75.0561 38.6204 75.0334 38.786 75.0497C38.9517 75.0659 38.5684 75.0074 38.5879 75.0107C38.1266 74.91 37.6816 74.806 37.2106 74.7541C36.4017 74.6663 35.5767 74.7086 34.7613 74.7053C33.946 74.7021 33.0754 74.7053 32.2341 74.7053C30.5709 74.7053 28.911 74.6988 27.2479 74.6956C26.3936 74.6956 25.5425 74.6956 24.6882 74.6956C23.8339 74.6956 22.9925 74.7573 22.161 74.6598C21.7224 74.6079 21.2936 74.5981 20.8551 74.5981C20.6472 74.5981 20.4393 74.5949 20.2282 74.6014C20.134 74.6046 20.043 74.6144 19.9521 74.6144C19.8871 74.6144 19.6045 74.5656 19.8384 74.6241C18.9288 74.3967 17.9543 74.4877 17.0221 74.4877C16.7882 74.4877 16.5543 74.4877 16.3204 74.4877C16.2489 74.4877 16.1742 74.4877 16.1028 74.4877C16.3659 74.4877 16.093 74.4714 16.0183 74.4552C15.648 74.374 15.2679 74.3513 14.8911 74.3285C14.2317 74.2928 13.5691 74.27 12.9064 74.27L14.0758 75.1601L13.9361 74.806V75.4524C13.9913 75.0691 14.0011 74.7021 13.9946 74.3188C13.9913 74.1564 13.9881 73.9939 13.9751 73.8315C13.9719 73.7828 13.9654 73.7341 13.9621 73.6853C13.9978 74.0134 13.9134 73.419 13.9134 73.3378C13.9134 73.5164 13.9361 73.3897 13.9361 73.2825C13.9361 73.0812 13.9199 72.8895 13.8874 72.6881C13.8777 72.6166 13.8614 72.5419 13.8484 72.4705C13.8549 72.5257 13.8647 72.6946 13.8484 72.451C13.8354 72.1586 13.8354 71.863 13.8387 71.5707C13.8452 70.9405 13.8387 70.3103 13.8387 69.6801C13.8387 69.1052 13.8257 68.5464 13.7672 67.9747C13.7412 67.7246 13.7607 67.481 13.7607 67.2309C13.7607 67.023 13.7347 66.8086 13.6925 66.6072C13.6795 66.5455 13.6633 66.474 13.6438 66.4155C13.6795 66.5227 13.6503 66.5617 13.647 66.4155C13.6373 65.8243 13.686 65.2331 13.634 64.6452C13.6178 64.447 13.5853 64.2489 13.5593 64.0507C13.5528 63.9955 13.5626 63.8363 13.5593 64.028C13.5593 63.9695 13.5528 63.9078 13.5528 63.8493C13.5463 63.5277 13.5658 63.2029 13.5658 62.8813V58.4831C13.5658 57.8496 13.0071 57.2389 12.3509 57.2682C11.6948 57.2974 11.136 57.8009 11.136 58.4831V62.563C11.136 62.8911 11.1328 63.2191 11.1263 63.5505C11.123 63.7096 11.1198 63.8721 11.1295 64.0312C11.1393 64.1774 11.162 64.3268 11.1848 64.473C11.201 64.5802 11.201 64.6159 11.188 64.4893C11.253 65.1162 11.1978 65.7399 11.214 66.3668C11.2205 66.5682 11.24 66.7696 11.2757 66.9677C11.2887 67.0327 11.305 67.0977 11.3212 67.1626C11.3829 67.3868 11.3212 67.1821 11.3212 67.1367C11.3082 67.4355 11.3017 67.7376 11.3342 68.0365C11.4024 68.6504 11.3992 69.2546 11.3992 69.8685C11.3992 70.5149 11.3992 71.1646 11.3959 71.811C11.3959 72.1034 11.3959 72.3925 11.4316 72.6848C11.4479 72.8278 11.4674 72.9772 11.4934 73.1201C11.5356 73.3832 11.4934 73.1591 11.4934 73.1234C11.4836 73.3248 11.4901 73.5197 11.5161 73.7178C11.5161 73.7308 11.5843 74.2213 11.5356 73.8543C11.4999 73.5879 11.5226 73.7471 11.5258 73.8088C11.5291 73.8965 11.5356 73.9874 11.5421 74.0751C11.5518 74.2895 11.5551 74.5039 11.5518 74.7183C11.5518 74.8093 11.5453 74.897 11.5453 74.9879C11.5453 74.9977 11.5453 75.0756 11.5388 75.0756L11.5746 74.8158C11.5226 74.9782 11.5161 75.1374 11.5518 75.2998C11.5778 75.4849 11.6428 75.6409 11.7142 75.8163C11.9124 76.323 12.3087 76.7063 12.8837 76.7063C13.4586 76.7063 14.0303 76.7258 14.602 76.7518C14.8489 76.7648 15.0925 76.7843 15.3394 76.7973C15.5863 76.8103 15.0341 76.7063 15.3524 76.8038C15.4174 76.8233 15.4856 76.8395 15.5506 76.8557C15.8169 76.911 16.0833 76.9272 16.3529 76.924C17.1357 76.9175 17.9186 76.9272 18.7015 76.924C18.6852 76.924 19.0848 76.9142 18.8964 76.911C18.7307 76.911 19.0588 76.9467 19.062 76.9499C19.2927 77.0019 19.5265 77.0409 19.7637 77.0506C20.1567 77.0669 20.5563 77.0312 20.9493 77.0344C21.7257 77.0344 22.4858 77.1416 23.2589 77.1383C24.1132 77.1351 24.9643 77.1318 25.8186 77.1318C27.4818 77.1318 29.1449 77.1383 30.8081 77.1416C32.4712 77.1448 34.1019 77.1448 35.7488 77.1416C36.1484 77.1416 36.5479 77.1383 36.9475 77.1676C37.0254 77.1741 37.1066 77.1806 37.1846 77.1903C36.9669 77.1676 37.2236 77.2001 37.2788 77.2098C37.4932 77.252 37.7043 77.3138 37.9187 77.3592C38.7568 77.5444 39.5851 77.4989 40.4329 77.4404C41.2288 77.3852 42.0571 77.4567 42.853 77.5217C43.6488 77.5866 44.4252 77.6353 45.2113 77.7165C46.8354 77.8887 48.4564 78.1226 50.0935 78.0934C50.6847 78.0836 51.2662 78.1746 51.8574 78.1811C52.2634 78.1843 52.6727 78.1843 53.0788 78.1811C53.9461 78.1811 54.8134 78.1713 55.6807 78.1681C55.9731 78.1681 56.2654 78.1583 56.5578 78.1681C56.7234 78.1713 56.8729 78.1746 57.0418 78.1518C57.3829 78.1063 57.8993 77.8952 58.026 77.5217C57.9611 77.7198 57.5453 77.9277 57.8051 77.7718C57.8734 77.7328 57.9351 77.6841 58 77.6418C58.1365 77.5509 58.2729 77.4664 58.4093 77.382C58.7342 77.1806 59.0752 77.0149 59.4033 76.8265C59.7119 76.6478 60.0173 76.4627 60.3356 76.2938C60.144 76.3977 60.3551 76.2873 60.4103 76.2678C60.498 76.2353 60.5857 76.1996 60.6734 76.1638C60.9138 76.0664 61.1477 75.9559 61.3848 75.8487C62.106 75.5142 62.7849 75.0886 63.519 74.78C63.3436 74.8548 63.532 74.78 63.5612 74.767C63.6717 74.7248 63.7821 74.6793 63.8926 74.6339C64.0387 74.5721 64.1882 74.5137 64.3343 74.452C64.7794 74.2635 65.2244 74.0751 65.6629 73.8705C66.3678 73.5457 67.0629 73.1948 67.7386 72.8115C69.1127 72.0319 70.4607 71.2328 71.877 70.5344C72.5884 70.1836 73.303 69.849 74.0242 69.5177C74.8168 69.1539 75.6126 68.7414 75.9699 67.8968C76.1194 67.5395 76.1713 67.1821 76.2298 66.8021C76.298 66.3343 76.3532 65.886 76.3435 65.415C76.3402 65.2136 76.3402 65.0155 76.35 64.8141C76.363 64.5705 76.3565 64.7459 76.35 64.7978C76.3695 64.6354 76.3987 64.473 76.415 64.3073C76.4247 64.2099 76.4344 64.1157 76.4344 64.0182C76.4344 63.7844 76.4247 63.9858 76.4182 64.041C76.4604 63.7551 76.5254 63.479 76.5286 63.1899C76.5286 62.8391 76.4832 62.4753 76.5157 62.1245C76.4897 62.3876 76.5254 62.1602 76.5384 62.092C76.5709 61.9361 76.5969 61.7736 76.6066 61.6145C76.6099 61.5365 76.6066 61.4585 76.6066 61.3806C76.6034 61.3026 76.5969 61.2247 76.5969 61.1467C76.6066 61.0168 76.6034 60.9908 76.5904 61.072C76.5839 61.2409 76.6228 60.8673 76.6228 60.8836C76.6456 60.7374 76.6683 60.5912 76.6813 60.4451C76.6976 60.2437 76.6813 60.0423 76.6813 59.8409C76.6813 59.7597 76.6813 59.6817 76.6813 59.6005C76.6813 59.8441 76.6813 59.6265 76.6943 59.5518C76.743 59.2724 76.769 58.9963 76.782 58.7137C76.821 57.8821 76.8275 57.0505 76.8697 56.2189C76.9087 55.4523 77.0354 54.689 77.0744 53.9224C77.1523 52.2949 77.2595 50.6578 77.3797 49.0303C77.4414 48.228 77.5519 47.4289 77.5844 46.6233C77.6168 45.8177 77.6493 44.9796 77.6916 44.1578C77.7338 43.336 77.7598 42.5791 77.7598 41.7865C77.7598 41.1531 77.2011 40.5424 76.5449 40.5716C75.8887 40.6009 75.3333 41.1044 75.33 41.7865L75.3462 41.7768Z" fill="black"/>
<path d="M57.5809 50.5895C57.6426 51.0345 57.4704 51.3821 57.4964 51.8401C57.5224 52.2981 57.5744 52.8926 57.5744 53.3246C57.5744 53.7534 57.4932 54.0425 57.4996 54.4323C57.5061 54.8221 57.4867 55.1697 57.4574 55.5562C57.4119 56.1572 57.5256 56.7809 57.4769 57.3786C57.321 59.399 57.4184 61.4747 57.4184 63.4725C57.4184 64.4795 57.3892 65.3923 57.3827 66.357C57.3762 67.3218 57.4542 68.2183 57.4509 69.1701C57.4509 69.378 57.4282 69.5989 57.4379 69.8003C57.4477 70.0017 57.5289 70.1186 57.5549 70.3135C57.6231 70.8268 57.5321 71.3887 57.5224 71.8987" fill="#FFCF8D"/>
<path d="M56.4313 50.5895C56.4507 50.7455 56.4443 50.8949 56.4248 51.0508L56.467 50.7455C56.4183 51.0963 56.3338 51.4471 56.3436 51.8044C56.3533 52.0903 56.3825 52.3761 56.3988 52.6587C56.415 52.9284 56.4313 53.198 56.4183 53.4676C56.4053 53.7372 56.3565 54.0198 56.35 54.2959C56.3403 54.6013 56.35 54.9066 56.3306 55.2152C56.3111 55.5433 56.2916 55.8681 56.3046 56.1995C56.3176 56.5308 56.3436 56.8329 56.3371 57.1512C56.3306 57.489 56.2948 57.8269 56.2786 58.168C56.2136 59.503 56.2429 60.8413 56.2591 62.1797C56.2753 63.518 56.2526 64.7881 56.2396 66.0907C56.2331 66.8313 56.2656 67.5687 56.2916 68.3093C56.3046 68.6796 56.3143 69.0467 56.2981 69.417C56.2883 69.6249 56.2916 69.8198 56.3176 70.0244C56.3436 70.2291 56.4118 70.4175 56.4475 70.6189L56.4053 70.3135C56.467 70.843 56.389 71.3693 56.3728 71.8987C56.3565 72.5029 56.9153 73.0779 57.526 73.0519C58.1366 73.0259 58.6596 72.5452 58.6791 71.8987C58.6889 71.5382 58.7311 71.1776 58.7343 70.817C58.7343 70.6481 58.7278 70.4825 58.7084 70.3168C58.6791 70.0537 58.6044 69.8263 58.5589 69.5697L58.6012 69.875C58.5752 69.5892 58.6109 69.3001 58.6077 69.0142C58.6077 68.7024 58.5979 68.3905 58.5849 68.0787C58.5622 67.455 58.5362 66.8313 58.5394 66.2044C58.5492 64.9798 58.5784 63.7584 58.5654 62.5337C58.5524 61.3091 58.5199 59.9935 58.5589 58.7234C58.5784 58.0997 58.6564 57.4728 58.6369 56.8491C58.6271 56.5698 58.6044 56.2904 58.5979 56.0111C58.5914 55.683 58.6239 55.3614 58.6401 55.0333C58.6531 54.7247 58.6401 54.4161 58.6629 54.1108C58.6856 53.8054 58.7278 53.5131 58.7246 53.211C58.7149 52.623 58.5947 52.0188 58.6694 51.4374L58.6271 51.7427C58.6824 51.3627 58.7766 50.9793 58.7311 50.5928C58.6954 50.2777 58.6271 50.0113 58.3933 49.7775C58.1919 49.5761 57.867 49.4266 57.5779 49.4396C57.2888 49.4526 56.9705 49.5501 56.7626 49.7775C56.5709 49.9886 56.3923 50.2939 56.4248 50.5928L56.4313 50.5895Z" fill="black"/>
<path d="M64.4448 56.4723C63.2657 57.2974 64.7729 56.2417 64.9224 56.115C65.0978 55.9655 65.2797 55.9071 65.4551 55.7706C65.5883 55.6667 65.689 55.5173 65.8351 55.4068C66.0106 55.2737 66.1697 55.134 66.3354 54.9975C66.4718 54.8871 66.6082 54.7442 66.7544 54.6565C66.9688 54.5265 67.193 54.5135 67.4041 54.3511C67.7582 54.0815 68.096 53.8476 68.4923 53.6365C68.8529 53.4448 69.2199 53.159 69.5902 52.9998C69.9605 52.8406 70.4088 52.7497 70.7889 52.5548C70.9578 52.4671 71.0975 52.3404 71.2631 52.2494C71.4678 52.1357 71.5685 51.9961 71.7569 51.8629C72.0752 51.6355 72.5008 51.577 72.8288 51.3724C73.0108 51.2587 73.1179 51.0638 73.2999 50.9468C73.407 50.8786 73.537 50.8364 73.6474 50.7779C74.0015 50.5928 74.3913 50.4596 74.7129 50.2192C75.1124 49.9204 75.5445 49.6507 75.983 49.3844C76.1941 49.2544 76.3663 49.209 76.6067 49.131C76.9283 49.0238 77.1329 48.7315 77.435 48.5853C77.6332 48.4878 77.7436 48.4813 77.906 48.3287C78.1009 48.1468 78.1691 48.0656 78.4063 47.9713C78.6856 47.8609 78.913 47.6855 79.2021 47.5296C79.5919 47.3217 80.0434 47.2242 80.417 47.0001C80.6379 46.8669 81.9015 46.1523 82.1419 46.11V45.2687C81.9437 45.0121 80.2773 43.8914 80.0045 43.7258C79.6634 43.5146 79.3191 43.2515 78.9942 43.0111C78.3218 42.5141 77.6624 42.0106 77.0452 41.4487C76.7399 41.1725 76.4378 40.9192 76.1292 40.6528C76.0057 40.5456 75.9148 40.4027 75.7946 40.2987C75.5834 40.1201 75.3203 40.0454 75.0897 39.8959C74.6642 39.6198 74.2451 39.1781 73.7774 38.9994V38.7623C73.1504 39.0091 72.5397 39.1488 71.9031 39.347C71.4256 39.4964 71.0422 39.818 70.5907 40.0194C69.5318 40.4936 68.5313 41.1076 67.521 41.6825C66.7089 42.1471 65.8709 42.5726 65.088 43.0826C64.3669 43.5503 63.6198 43.9986 62.8467 44.3689C62.0963 44.7295 61.3427 45.0283 60.589 45.3727C60.2187 45.5416 59.9004 45.6488 59.5593 45.8794C59.228 46.1035 58.8707 46.292 58.5101 46.4706C57.8604 46.789 57.1848 47.0488 56.5448 47.3801C56.0089 47.6595 55.4664 47.9226 54.9077 48.1598L54.8882 48.0883L55.5963 49.0336C55.6386 49.3844 55.9472 49.6215 56.181 49.8554C56.5546 50.2257 56.9152 50.5993 57.2367 50.9988C57.5388 51.3756 57.8572 51.7427 58.195 52.1C58.4744 52.3956 58.8284 52.6977 59.0363 53.0323C59.5886 53.9191 60.5306 54.7604 61.3459 55.3971C61.5603 55.566 61.7779 55.7706 61.9534 55.9753C62.1125 56.1605 62.2847 56.2936 62.4504 56.469C62.564 56.5925 62.6453 56.7322 62.7654 56.8556C62.9214 57.0148 63.1325 57.122 63.2689 57.2941L64.4481 56.469L64.4448 56.4723Z" fill="#FFCF8D"/>
<path d="M63.8702 55.4913C63.7207 55.5953 63.5746 55.709 63.4219 55.8032L64.7992 57.5898C64.3412 57.9763 64.7115 57.6645 64.8382 57.5768C64.9908 57.4696 65.1435 57.3591 65.2929 57.2487C65.3482 57.2097 65.4001 57.1675 65.4554 57.1285C65.5366 57.0668 65.6308 56.9953 65.7152 56.9271C65.5008 57.1025 65.6957 56.9596 65.7867 56.9043C66.0271 56.7647 66.248 56.5958 66.4396 56.3944C66.4689 56.3619 66.5046 56.3326 66.5306 56.3002C66.6443 56.1702 66.4851 56.3261 66.4591 56.3456C66.615 56.2319 66.7645 56.1085 66.9139 55.9851C67.0698 55.8551 67.255 55.7284 67.3914 55.5758C67.2192 55.7674 67.2452 55.67 67.3232 55.6342C67.4986 55.5563 67.2452 55.6537 67.229 55.6635C67.4011 55.579 67.596 55.527 67.7682 55.4458C67.9501 55.3614 68.1028 55.2282 68.2652 55.1145C68.4503 54.9813 68.6388 54.8579 68.8369 54.7409C69.2072 54.5266 69.5678 54.2862 69.9446 54.0848C69.9836 54.062 70.029 54.0425 70.068 54.0231C70.2045 53.9483 69.7919 54.1205 70.0161 54.0425C70.1038 54.0133 70.1947 53.9808 70.2824 53.9516C70.5358 53.8671 70.7827 53.7859 71.0295 53.682C71.5005 53.4838 71.9553 53.185 72.3419 52.8472C72.3744 52.8212 72.4361 52.7822 72.4556 52.7465C72.4393 52.7757 72.2282 52.8894 72.3841 52.8082C72.4231 52.7887 72.4621 52.7659 72.4978 52.7432C72.657 52.649 72.4198 52.7692 72.4068 52.7757C72.6537 52.6458 72.9493 52.5743 73.2027 52.4606C73.4366 52.3534 73.6477 52.1975 73.8264 52.0123C73.8654 51.9733 74.096 51.759 73.9368 51.8791C73.7776 51.9993 73.9498 51.8856 73.9855 51.8694C74.0343 51.8467 74.0862 51.8272 74.135 51.8044C74.5118 51.6323 74.9178 51.4666 75.2589 51.2262C75.6292 50.9631 76.006 50.7097 76.3926 50.4694C76.4868 50.4109 76.5842 50.3557 76.6784 50.3004C76.8538 50.203 76.5842 50.3362 76.5842 50.3394C76.5972 50.3232 76.6817 50.3037 76.7044 50.2972C76.974 50.2062 77.2469 50.1153 77.4808 49.9496C77.6075 49.8587 77.7276 49.7612 77.8478 49.6638C77.8771 49.641 77.9096 49.615 77.9388 49.5891C77.7211 49.7969 77.7796 49.7027 77.8511 49.6605C77.9323 49.6118 78.2604 49.4559 77.8901 49.615C78.0395 49.5501 78.1987 49.5013 78.3383 49.4169C78.5365 49.2967 78.7119 49.131 78.8808 48.9719C79.0205 48.8354 78.6729 49.1213 78.7899 49.0466C78.8581 49.0011 78.9913 48.9589 78.7022 49.0726C78.8776 49.0043 79.053 48.9329 79.2186 48.8419C79.4265 48.7282 79.6182 48.5918 79.8293 48.4879C79.8716 48.4684 79.917 48.4521 79.956 48.4294C79.6929 48.5788 79.8618 48.4684 79.943 48.4391C80.0535 48.3969 80.1639 48.3579 80.2711 48.3125C80.6187 48.1728 80.937 48.0104 81.2586 47.8284C81.5185 47.6823 81.7783 47.5393 82.0415 47.4029C82.1714 47.3347 82.3013 47.2697 82.4313 47.208C82.6619 47.1008 82.1616 47.299 82.3306 47.2502C82.3663 47.2405 82.3988 47.2243 82.4345 47.2178C82.9185 47.1171 83.2693 46.5973 83.2693 46.1231V45.4766C83.2693 45.4117 83.2693 45.3467 83.2693 45.2817C83.2563 44.9179 83.0939 44.6028 82.8276 44.3689C82.3273 43.9272 81.7524 43.5504 81.2001 43.1736C80.6479 42.7967 80.0567 42.4069 79.498 41.9977C79.3876 41.9164 79.2739 41.832 79.1634 41.7475C79.1114 41.7085 79.0627 41.6728 79.0107 41.6338C78.9555 41.5916 78.7411 41.4617 79.001 41.6273C78.7736 41.4812 78.5592 41.2798 78.3513 41.1044C77.9453 40.7633 77.5522 40.4027 77.1527 40.0584C76.935 39.87 76.7531 39.6458 76.5323 39.4607C76.2529 39.2301 75.9508 39.1131 75.6519 38.9215C75.5967 38.8857 75.5448 38.8467 75.4928 38.811C75.3109 38.6876 75.7039 38.9799 75.483 38.8045C75.3174 38.6746 75.1517 38.5414 74.9828 38.4147C74.6937 38.1938 74.4078 38.0477 74.0635 37.9112L74.8983 39.0059V38.7688C74.8983 38.4082 74.7294 38.0931 74.4501 37.8755C74.1869 37.6741 73.7874 37.5442 73.4593 37.6708C72.8161 37.921 72.1372 38.0541 71.4908 38.288C71.1205 38.4245 70.7859 38.6064 70.4481 38.8045C70.172 38.9669 69.8796 39.0936 69.5938 39.2333C68.3432 39.8407 67.1575 40.5846 65.9426 41.257C64.7277 41.9294 63.5843 42.748 62.3304 43.3587C61.6743 43.6771 60.9986 43.9532 60.3327 44.2488C60.0371 44.3787 59.7415 44.5054 59.4492 44.6386C59.1568 44.7717 58.8807 44.9731 58.5916 45.1421C57.9159 45.5351 57.1883 45.821 56.4834 46.149C55.7785 46.4771 55.0606 46.8702 54.3265 47.182L55.9962 47.8609L55.9767 47.7895L53.8977 48.6665C54.1284 48.9719 54.3395 49.3162 54.5961 49.5988C54.6546 49.6638 54.5441 49.7872 54.5019 49.3974C54.5052 49.4331 54.5247 49.4721 54.5344 49.5078C54.5864 49.667 54.6611 49.8359 54.7585 49.9789C54.9242 50.2257 55.1223 50.4239 55.3302 50.6253C55.6811 50.9664 56.0189 51.3204 56.3307 51.694C56.6653 52.0968 56.9934 52.4996 57.354 52.8796C57.5001 53.0356 57.6561 53.1817 57.8055 53.3344C57.8835 53.4156 57.9582 53.4968 58.0329 53.5813C58.1888 53.7599 57.8932 53.3571 58.0134 53.5553C58.0459 53.6105 58.0816 53.6657 58.1173 53.7177C58.6858 54.5785 59.4297 55.3062 60.2223 55.9558C60.4139 56.115 60.6153 56.2612 60.7972 56.4301C61.0051 56.6217 61.1805 56.8394 61.3852 57.0343C61.4696 57.1122 61.5508 57.1967 61.6353 57.2779C61.8172 57.4501 61.4826 57.0733 61.6353 57.2682C61.7165 57.3754 61.8075 57.502 61.9017 57.6092C62.0348 57.7619 62.2103 57.8756 62.3662 57.999C62.5091 58.1127 62.2915 57.9373 62.2817 57.9341C62.3467 57.9633 62.4084 58.051 62.4539 58.103C62.7592 58.4571 63.4446 58.5513 63.8312 58.2816C64.2177 58.012 64.6173 57.7294 65.0103 57.4566C65.2572 57.2844 65.4521 57.0765 65.5333 56.7777C65.608 56.5048 65.5756 56.1442 65.4196 55.9006C65.1078 55.4166 64.3867 55.1275 63.8637 55.4913C63.4706 55.7674 63.0776 56.0435 62.6845 56.3164L64.0618 56.4951C63.9936 56.4171 63.9189 56.3521 63.8409 56.2872L63.6103 56.1085C63.5388 56.0533 63.5453 56.0598 63.6265 56.1215C63.789 56.2449 63.6265 56.1182 63.6006 56.0955C63.5583 56.0565 63.5226 56.0143 63.4836 55.9721C63.3732 55.8584 63.6525 56.1995 63.5096 56.0046C63.3862 55.8389 63.266 55.683 63.1165 55.54C62.7722 55.2087 62.4604 54.8514 62.0868 54.5525C61.7133 54.2537 61.3722 53.9711 61.0409 53.6527C60.8687 53.4903 60.703 53.3214 60.5406 53.146C60.4691 53.068 60.4009 52.9901 60.3327 52.9089C60.297 52.8634 60.258 52.8179 60.2223 52.7757C60.0728 52.597 60.3555 52.9641 60.232 52.7887C59.9267 52.3502 59.6246 51.9311 59.2445 51.5543C58.8839 51.197 58.5461 50.8202 58.2245 50.4304C57.9029 50.0406 57.5879 49.6703 57.2403 49.3162C57.0876 49.1603 56.9284 49.0076 56.7725 48.8517C56.7303 48.8094 56.5386 48.5853 56.6653 48.7542C56.792 48.9231 56.6816 48.7607 56.6588 48.7282C56.6198 48.6503 56.6231 48.66 56.6718 48.7607C56.7108 48.8614 56.7205 48.8712 56.6946 48.7867C56.714 48.5431 56.3762 48.1988 56.2398 48.0168C56.1131 47.8479 55.9864 47.6823 55.863 47.5134C55.6876 47.2795 55.4862 47.0586 55.1841 46.9904C54.9307 46.9319 54.6838 46.9449 54.4434 47.0488C53.9335 47.2632 53.6281 47.8414 53.784 48.3904L53.8035 48.4619C53.901 48.8062 54.1381 49.0628 54.4629 49.1993C54.8235 49.3519 55.1256 49.2902 55.4732 49.1408C56.1131 48.8679 56.727 48.5431 57.3507 48.241C57.9744 47.9389 58.6208 47.6823 59.2413 47.3704C59.5434 47.2178 59.8357 47.0488 60.1216 46.8637C60.3847 46.6915 60.6705 46.5648 60.9596 46.4414C61.6093 46.162 62.2557 45.8794 62.9022 45.5903C63.5486 45.3012 64.1723 44.9764 64.7797 44.6126C65.3872 44.2488 65.9556 43.8655 66.5598 43.5179C67.164 43.1703 67.7552 42.8552 68.3464 42.5141C68.9376 42.1731 69.5483 41.8125 70.1655 41.4877C70.5001 41.3122 70.8411 41.1498 71.1822 40.9907C71.4973 40.8445 71.7799 40.6431 72.0885 40.4872C72.1177 40.4709 72.1502 40.4579 72.1795 40.4449C72.2964 40.3832 71.9066 40.5359 72.1275 40.4709C72.2087 40.4449 72.2931 40.419 72.3744 40.393C72.5563 40.341 72.7349 40.289 72.9168 40.237C73.3034 40.1266 73.6899 40.0097 74.0668 39.8635L72.6277 38.7688V39.0059C72.6277 39.5516 72.9915 39.9122 73.4626 40.1006C73.128 39.9674 73.4236 40.0941 73.508 40.1461C73.5925 40.1981 73.6737 40.2565 73.7582 40.315C73.8264 40.3637 73.8654 40.4417 73.6899 40.263C73.7192 40.2923 73.7647 40.3215 73.7971 40.3475C73.9433 40.4644 74.0895 40.5814 74.2389 40.6918C74.3883 40.8023 74.5443 40.9127 74.7132 40.9972C74.8041 41.0426 74.8951 41.0849 74.9828 41.1336C75.0088 41.1498 75.0737 41.1986 75.0997 41.2018C75.0315 41.1921 74.9113 41.0329 75.0542 41.1791C75.6682 41.8092 76.3503 42.3939 77.039 42.9462C77.7764 43.5406 78.5332 44.1448 79.3323 44.6548C79.6864 44.8822 80.0372 45.1161 80.3848 45.3564C80.6284 45.5254 80.872 45.6975 81.1092 45.8762C81.1287 45.8924 81.1514 45.9087 81.1709 45.9217C81.2976 46.0159 80.9468 45.7463 81.041 45.821C81.0832 45.8534 81.1254 45.8859 81.1644 45.9217C81.2196 45.9704 81.2781 46.0159 81.3268 46.0743L80.9922 45.272V46.1133L81.8271 45.0186C81.564 45.0738 81.3106 45.2233 81.0702 45.3435C80.8168 45.4701 80.57 45.6066 80.3231 45.743C80.1574 45.834 79.995 45.9282 79.8326 46.0224C79.7806 46.0516 79.6182 46.1036 79.589 46.149L79.7319 46.0906C79.6994 46.1036 79.6669 46.1166 79.6344 46.1296C79.5792 46.1523 79.524 46.1718 79.472 46.1913C79.2056 46.292 78.936 46.3927 78.6827 46.5194C78.491 46.6136 78.3156 46.7338 78.1304 46.8409C78.0915 46.8637 78.0492 46.8832 78.0103 46.9059C77.8478 46.9969 78.072 46.8864 78.0947 46.8767C77.9323 46.9416 77.7666 47.0034 77.6172 47.0943C77.4808 47.1788 77.3508 47.2892 77.2306 47.3997C77.2014 47.4256 77.1722 47.4549 77.1429 47.4809C76.9935 47.6303 77.2306 47.4224 77.2306 47.4256C77.2274 47.4419 77.1624 47.4679 77.1429 47.4776C76.9838 47.5816 77.3866 47.3737 77.2566 47.4321C77.0975 47.5036 76.9253 47.5588 76.7726 47.6498C76.568 47.77 76.3633 47.9259 76.1912 48.0916C76.4868 47.809 76.2204 48.1143 76.1327 48.1078C76.1327 48.1078 76.4348 48.0006 76.2269 48.0623C76.1619 48.0818 76.1002 48.1046 76.0353 48.124C75.548 48.2995 75.1192 48.5691 74.6904 48.8517C74.3201 49.0953 73.9823 49.3649 73.5795 49.5566C73.1377 49.7645 72.67 49.9334 72.3191 50.2875C72.2931 50.3167 72.1665 50.4921 72.121 50.4921C72.108 50.4921 72.3776 50.3362 72.1924 50.4239C72.1762 50.4304 72.0918 50.4661 72.0755 50.4824L72.2282 50.4206C72.1989 50.4336 72.1665 50.4434 72.1372 50.4564C72.095 50.4726 72.0528 50.4856 72.0138 50.5018C71.8286 50.5701 71.6435 50.6415 71.4648 50.7227C71.2244 50.8332 71.023 50.9858 70.8216 51.158C70.7827 51.1905 70.7469 51.223 70.708 51.2587C70.6105 51.3497 70.6852 51.2132 70.7957 51.197C70.7112 51.21 70.578 51.3302 70.5033 51.3821C70.4286 51.4341 70.3506 51.4926 70.2694 51.5381C70.2175 51.5673 70.1655 51.5933 70.1103 51.6193C69.9706 51.694 70.3831 51.5251 70.1492 51.5998C69.9446 51.668 69.7399 51.733 69.5385 51.8044C69.0448 51.9766 68.6225 52.2235 68.1807 52.4963C67.8137 52.7237 67.4336 52.9186 67.0828 53.172C66.9951 53.237 66.9074 53.3052 66.8197 53.3669C66.7807 53.3929 66.7417 53.4156 66.7027 53.4416C66.5208 53.5715 66.9009 53.3701 66.7677 53.4156C66.4104 53.5326 66.1213 53.6917 65.8322 53.9256C65.6535 54.0718 65.4781 54.2277 65.2994 54.3771C65.2637 54.4064 65.2247 54.4388 65.189 54.4681C65.0948 54.5428 65.1143 54.5298 65.2475 54.4259L65.0168 54.6045C64.9291 54.676 64.8544 54.7572 64.7765 54.8351C64.744 54.8709 64.5946 54.9683 64.7472 54.8806C64.9096 54.7864 64.7277 54.8871 64.6888 54.9066C64.5458 54.9911 64.4094 55.0723 64.2762 55.1762C64.2535 55.1957 63.9156 55.4588 64.1788 55.2542C64.3899 55.0918 64.2437 55.2022 64.195 55.2379C63.8604 55.4848 63.4999 55.7122 63.1783 55.9818C62.9769 56.154 62.8339 56.5275 62.8437 56.7842C62.8534 57.0408 62.9314 57.2682 63.0873 57.4728C63.4219 57.9048 64.0716 58.0705 64.5556 57.7652C64.7082 57.6677 64.8544 57.5573 65.0038 57.4533C65.2507 57.2812 65.4456 57.0733 65.5268 56.7744C65.6015 56.5015 65.5691 56.141 65.4131 55.8974C65.1013 55.4134 64.3802 55.1243 63.8572 55.4881L63.8702 55.4913Z" fill="black"/>
<path d="M7.96875 59.477C8.53396 59.477 9.95999 59.5095 10.5252 59.5095C11.0904 59.5095 11.7206 59.4055 12.2728 59.568C12.929 59.7629 13.6923 59.6264 14.3648 59.6264H21.4429C21.8587 59.6264 22.3297 59.542 22.7423 59.6524C23.1678 59.7661 23.5998 59.7369 24.0254 59.8376C24.7075 59.9967 25.3864 59.9902 26.0848 59.9805C26.4681 59.9773 26.8254 60.1007 27.2087 60.0974C27.6408 60.0974 28.0696 60.0974 28.5016 60.0974C28.9564 60.0974 29.4111 60.0779 29.8627 60.0909C30.1193 60.0974 30.4084 60.1559 30.6585 60.2111C30.7462 60.2306 30.8144 60.2826 30.8956 60.3053C31.1652 60.38 31.4414 60.2891 31.7142 60.3573C32.4646 60.5425 33.2637 60.4515 34.0303 60.4483C34.4656 60.4483 34.8684 60.5749 35.3004 60.5652C35.5148 60.562 35.6577 60.6204 35.8624 60.6756C36.0897 60.7374 36.3464 60.6756 36.5802 60.6821C36.9343 60.6984 37.3111 60.7958 37.6555 60.8933C38.0095 60.994 38.4156 60.9193 38.7761 60.9193H41.3228C41.6314 60.9193 41.9498 60.89 42.2584 60.916C42.4208 60.929 42.5572 61.0297 42.7229 61.0427C42.9275 61.0589 43.1354 61.0395 43.3401 61.0395C44.2009 61.0395 45.0747 60.9907 45.9193 61.1532C47.3323 61.426 48.8233 61.2733 50.2558 61.2733C50.4507 61.2733 50.6489 61.2798 50.8438 61.2733C51.0614 61.2668 51.2498 61.1629 51.4642 61.1467C51.6494 61.1337 51.8345 61.1856 52.0164 61.1239C52.2243 61.0557 52.3965 61.033 52.6141 61.033C52.9357 61.0297 53.803 60.8965 54.1149 60.8283V60.5912C54.3747 60.3086 54.4332 58.5155 54.4819 58.1419C54.5534 57.6189 54.6281 57.0927 54.7288 56.5697C54.8295 56.0467 54.9464 55.527 55.0471 55.0105C55.1413 54.5103 55.3687 54.1237 55.4077 53.5975C55.4207 53.4156 55.4467 53.2044 55.5117 53.0355C55.5929 52.8244 55.6318 52.7204 55.6708 52.4768C55.7423 52.0155 55.8495 51.5868 55.9599 51.1222C56.0249 50.8494 56.0899 50.5928 56.1743 50.3361C56.2783 50.0243 56.3107 49.6865 56.4082 49.3616C56.5998 48.7314 56.759 48.0948 56.9344 47.4581L57.0189 46.9871C56.6973 47.0358 56.3985 47.1073 56.0704 47.104C55.7098 47.104 55.346 47.104 54.9854 47.104H33.2864C32.6238 47.104 31.9838 46.9871 31.3244 46.9871H18.1816C17.8795 46.9871 17.5806 46.9838 17.2785 46.9871C17.0576 46.9871 16.8887 46.8734 16.6743 46.8669C16.4015 46.8604 16.1773 46.8799 15.9142 46.7629C15.7843 46.7077 13.6111 46.5453 13.6046 46.3861L13.3285 46.8669L13.3805 46.8571C13.1271 47.2762 12.9095 47.705 12.6691 48.1403C12.5392 48.3774 12.419 48.634 12.2923 48.8711C12.2273 48.9946 12.1331 49.0888 12.0747 49.2187C12.0292 49.3194 12.0227 49.4526 11.9772 49.5533C11.8375 49.8521 11.6719 50.047 11.5647 50.3849C11.49 50.6252 11.4023 50.8559 11.3146 51.0865C11.1391 51.5445 10.9248 52.0155 10.7331 52.4671C10.483 53.0583 10.2231 53.6592 9.94375 54.2309C9.72286 54.6824 9.59293 55.1892 9.39478 55.6504C9.19663 56.1117 9.03746 56.6444 8.82632 57.0797C8.68988 57.3558 8.60543 57.6417 8.44951 57.9016C8.33257 58.0965 8.28059 58.3628 8.15391 58.548L7.972 59.4608L7.96875 59.477Z" fill="#FFCF8D"/>
<path d="M7.96914 60.6919C9.07033 60.6919 10.1683 60.7374 11.2695 60.6984C11.3669 60.6952 11.7827 60.6399 11.8444 60.7082C11.8509 60.7147 11.5943 60.6562 11.7372 60.6952C11.7795 60.7049 11.8217 60.7114 11.8639 60.7212C11.9581 60.7439 12.0523 60.7731 12.1465 60.7926C12.6045 60.8836 13.0593 60.9031 13.5238 60.8803C14.3164 60.8446 15.1058 60.8446 15.8984 60.8446H21.0015C21.3946 60.8446 21.7876 60.8186 22.1807 60.8154C22.2586 60.8154 22.4178 60.8511 22.486 60.8251C22.4665 60.8316 22.2554 60.7731 22.3756 60.8186C22.4146 60.8348 22.4665 60.8413 22.5088 60.8511C22.7816 60.9096 23.0577 60.9388 23.3339 60.9648C23.3468 60.9648 23.6457 61.0103 23.6554 60.994C23.6489 61.0038 23.4216 60.9485 23.5612 60.9843C23.6067 60.994 23.6522 61.0038 23.6977 61.0135C23.99 61.0752 24.2824 61.1207 24.578 61.1532C24.9808 61.1987 25.3901 61.2052 25.7961 61.2019C25.8903 61.2019 25.9845 61.1987 26.0787 61.2019C26.1242 61.2019 26.1664 61.2019 26.2119 61.2052C26.2574 61.2052 26.449 61.2344 26.2671 61.2052C26.0852 61.1759 26.3613 61.2214 26.4068 61.2279C26.5855 61.2571 26.7641 61.2831 26.946 61.3026C27.3358 61.3416 27.7386 61.3156 28.1317 61.3188C28.5637 61.3188 28.9925 61.3124 29.4245 61.3091C29.6129 61.3091 29.8046 61.3221 29.993 61.3221C30.1262 61.3221 29.9053 61.3156 29.8955 61.3059C29.9085 61.3188 30.045 61.3318 30.0774 61.3383C30.1229 61.3481 30.1651 61.3546 30.2106 61.3643C30.2691 61.3773 30.4283 61.4455 30.2561 61.3546C30.0839 61.2636 30.1879 61.3253 30.2301 61.3448C30.3341 61.3903 30.4413 61.4455 30.5484 61.478C30.7174 61.53 30.9058 61.5527 31.0812 61.5625C31.1721 61.569 31.2631 61.5625 31.354 61.5625C31.3995 61.5625 31.4482 61.5657 31.4905 61.5625C31.6366 61.543 31.2988 61.5105 31.4385 61.556C31.8673 61.6892 32.374 61.7022 32.8255 61.7054C33.2283 61.7054 33.6311 61.6762 34.0339 61.6827C34.1281 61.6827 34.2191 61.6892 34.31 61.6957C34.5504 61.7119 34.1086 61.6664 34.349 61.6989C34.6349 61.7411 34.924 61.7899 35.2131 61.7964C35.2553 61.7964 35.3073 61.8029 35.3495 61.7964C35.4827 61.7801 35.2456 61.7899 35.2293 61.7769C35.2716 61.8126 35.4047 61.8223 35.46 61.8386C35.7198 61.91 35.9927 61.9425 36.2623 61.9263C36.3435 61.923 36.4215 61.9133 36.5027 61.9133C36.5579 61.9133 36.6131 61.9165 36.6683 61.9198C36.6976 61.9198 36.8535 61.936 36.6878 61.9198C36.5222 61.9035 36.6748 61.9198 36.7073 61.9263C36.7528 61.936 36.7983 61.9458 36.8438 61.9555C36.9477 61.9783 37.0549 62.0075 37.1588 62.0335C37.6331 62.1634 38.0781 62.1829 38.5621 62.1602C38.9747 62.1407 39.3905 62.1537 39.803 62.1537H41.0764C41.2843 62.1537 41.4889 62.1537 41.6968 62.1439C41.791 62.1439 41.8852 62.1374 41.9794 62.1374C42.0249 62.1374 42.0769 62.1439 42.1191 62.1374C42.2555 62.1212 41.9502 62.0725 42.0541 62.1244C42.4667 62.3356 42.9864 62.2674 43.4347 62.2674C43.8342 62.2674 44.237 62.2544 44.6366 62.2641C44.8217 62.2674 45.0069 62.2739 45.1888 62.2901C45.2505 62.2934 45.3122 62.3031 45.3707 62.3063C45.4032 62.3063 45.5558 62.3356 45.3934 62.3063C45.231 62.2771 45.3837 62.3063 45.4129 62.3096C45.4746 62.3193 45.5331 62.3291 45.5948 62.3421C46.0626 62.4265 46.5368 62.4915 47.0144 62.5207C47.8329 62.5727 48.6548 62.537 49.4734 62.5207C49.8599 62.511 50.2465 62.511 50.633 62.5142C50.8896 62.5142 51.1495 62.4948 51.4029 62.433C51.4516 62.42 51.5978 62.4038 51.6303 62.3713C51.614 62.3876 51.3704 62.3713 51.5101 62.3876C51.5685 62.3941 51.6335 62.3876 51.6952 62.3941C51.9616 62.4038 52.2345 62.3616 52.4878 62.2836C52.6957 62.2186 52.2377 62.2901 52.4553 62.2836C52.5333 62.2836 52.6145 62.2804 52.6925 62.2739C53.0368 62.2544 53.3811 62.1992 53.7222 62.1504C53.9626 62.1147 54.1997 62.079 54.4368 62.027C54.9533 61.9165 55.3269 61.3676 55.3269 60.8576V60.6205L54.9728 61.478C55.5413 60.7959 55.5608 59.8571 55.629 59.0093C55.6517 58.7429 55.6745 58.4733 55.694 58.2037C55.6647 58.626 55.6875 58.2557 55.7069 58.1225C55.7264 57.9828 55.7459 57.8431 55.7687 57.7067C55.8174 57.3981 55.8694 57.0895 55.9311 56.7809C56.0448 56.2157 56.1325 55.631 56.2916 55.0788C56.3599 54.8384 56.4541 54.6013 56.5158 54.3576C56.5613 54.1725 56.584 53.9841 56.61 53.7924C56.6197 53.721 56.6262 53.6527 56.6327 53.5813C56.662 53.2727 56.558 53.7632 56.6425 53.5358C56.8244 53.042 56.8926 52.5256 57.0063 52.0156C57.133 51.4536 57.3149 50.9014 57.4383 50.3362C57.6592 49.3292 58.0133 48.3514 58.1952 47.3379C58.2731 46.8994 58.2114 46.4836 57.8833 46.1588C57.5553 45.8339 57.146 45.7787 56.7042 45.8469C56.5353 45.8729 56.3566 45.9249 56.1877 45.9314C56.5353 45.9217 56.2332 45.9184 56.165 45.9217C56.074 45.9217 55.9863 45.9217 55.8954 45.9217C55.5315 45.9217 55.1645 45.9217 54.8007 45.9217H52.5171C50.9546 45.9217 49.3922 45.9217 47.8329 45.9217H33.7773C33.0172 45.9217 32.2701 45.8307 31.5132 45.808C30.7563 45.7852 29.9572 45.808 29.1809 45.808C26.0982 45.808 23.0123 45.808 19.9296 45.808H18.5685C18.1722 45.808 17.7597 45.7722 17.3666 45.808C17.0808 45.8339 17.607 45.8989 17.3666 45.8177C17.2692 45.7852 17.1717 45.7592 17.071 45.7397C16.8274 45.691 16.5708 45.678 16.3239 45.6813C16.1745 45.6813 16.6163 45.782 16.3889 45.6845C16.3369 45.6618 16.2719 45.639 16.22 45.6261C16.1745 45.6131 16.129 45.6098 16.0835 45.6033C15.6028 45.5318 15.1188 45.4896 14.638 45.4279C14.5893 45.4214 14.5406 45.4149 14.4886 45.4084C14.2774 45.3824 14.8264 45.4571 14.6185 45.4247C14.5178 45.4084 14.4171 45.3954 14.3164 45.3792C14.2385 45.3662 14.1605 45.3467 14.0825 45.3305C14.0566 45.324 14.0338 45.3142 14.0111 45.311C13.9039 45.272 13.9818 45.3045 14.2482 45.4117C13.9818 45.259 14.1573 45.4896 14.7712 46.1003C14.5276 45.0771 13.0626 44.9244 12.5526 45.8112L12.2765 46.292C12.0328 46.7175 12.0751 47.2535 12.3707 47.64C12.6858 48.0493 13.1503 48.1598 13.6473 48.0753L13.6992 48.0656L12.3284 46.2822C12.0556 46.7402 11.8022 47.2145 11.5521 47.6855C11.4319 47.9096 11.3344 48.15 11.198 48.3677C11.1395 48.4619 11.0746 48.5463 11.0226 48.6438C10.9999 48.686 10.8017 49.0855 10.8244 49.2025C10.8179 49.17 10.9609 48.9394 10.8504 49.118C10.8244 49.1603 10.8017 49.2057 10.7757 49.248C10.727 49.3324 10.675 49.4169 10.6328 49.5078C10.4801 49.8132 10.3827 50.1348 10.2657 50.4531C10.1748 50.7 10.0773 50.9469 9.97987 51.1905C9.91491 51.3529 10.0643 50.9988 9.99287 51.1612C9.96688 51.2197 9.94414 51.2782 9.91815 51.3334C9.85644 51.4763 9.79472 51.6193 9.733 51.7654C9.29122 52.7984 8.78448 53.8087 8.41092 54.8676C8.242 55.3484 8.0471 55.8226 7.86519 56.2969C7.8457 56.3489 7.82297 56.4041 7.80348 56.4561C7.74176 56.612 7.90093 56.2514 7.82621 56.3976C7.77099 56.508 7.72227 56.6217 7.67354 56.7354C7.62157 56.8556 7.56959 56.979 7.52087 57.1025C7.45915 57.2519 7.5631 57.1155 7.54686 57.0408C7.5631 57.1155 7.39743 57.3266 7.36495 57.3916C7.28049 57.5605 7.21228 57.7392 7.14406 57.9146C7.12457 57.9633 7.09209 58.1192 7.13756 57.9373C7.18304 57.8366 7.18304 57.8334 7.13756 57.9178C7.09533 57.9795 7.06285 58.0478 7.04011 58.1192C6.98814 58.2459 6.9654 58.3401 6.93617 58.4733C6.89069 58.7072 6.84196 58.9411 6.79649 59.1749C6.67305 59.7954 6.9719 60.5133 7.64431 60.6692C8.24525 60.8056 9.00537 60.4873 9.13855 59.8214C9.17753 59.6297 9.21326 59.4413 9.25224 59.2496C9.27173 59.149 9.29772 59.0482 9.31071 58.9475C9.33345 58.7851 9.16778 59.2659 9.24574 59.1132C9.3367 58.9378 9.41466 58.7462 9.47963 58.5577C9.5316 58.4083 9.36269 58.7819 9.44065 58.6455C9.46338 58.6032 9.48612 58.561 9.50886 58.5188C9.56083 58.4213 9.60956 58.3271 9.65179 58.2264C9.71026 58.0932 9.76873 57.96 9.8207 57.8236C9.86943 57.7002 9.79796 57.7359 9.79472 57.8853C9.79472 57.7911 9.91166 57.6352 9.95064 57.5475C10.1845 57.018 10.3729 56.4691 10.5906 55.9331C10.6815 55.7122 10.7562 55.4848 10.8374 55.2607C10.8472 55.2347 10.9674 54.9261 10.9609 54.9228C10.9739 54.9293 10.8602 55.1405 10.9446 54.9651C10.9836 54.8839 11.0226 54.8027 11.0616 54.7214C11.2857 54.2504 11.4936 53.7697 11.6983 53.2889C11.9354 52.7335 12.1823 52.1812 12.4064 51.6193C12.4973 51.3886 12.5851 51.158 12.6663 50.9241C12.6858 50.8656 12.7085 50.8039 12.7247 50.7455C12.7994 50.4758 12.6273 50.9144 12.7085 50.7682C12.7637 50.6707 12.8124 50.5733 12.8677 50.4758C12.9716 50.2939 13.0658 50.1088 13.134 49.9139C13.1503 49.8684 13.1633 49.8294 13.1763 49.7807C13.1827 49.745 13.1925 49.7125 13.2022 49.6767C13.225 49.589 13.2087 49.628 13.1503 49.7937C13.1892 49.8132 13.5076 49.1668 13.5368 49.1148C13.8129 48.5723 14.1053 48.0298 14.4171 47.5068C14.6672 47.0878 14.6153 46.5388 14.3229 46.1588C14.0078 45.7495 13.5433 45.639 13.0463 45.7235L12.9943 45.7332L14.3652 47.5166L14.6413 47.0358L12.4226 46.7467C12.5786 47.3997 13.199 47.6465 13.7837 47.7407C14.2677 47.8187 14.7517 47.8707 15.239 47.9259C15.3884 47.9421 15.5411 47.9616 15.6905 47.9779C15.1805 47.9194 15.4241 47.9324 15.5346 47.9584C15.6255 47.9811 15.7132 48.0201 15.8074 48.0396C16.0348 48.0916 16.2719 48.1078 16.5026 48.111H16.5805C16.717 48.1175 16.6877 48.111 16.4928 48.0916C16.4993 48.1078 16.691 48.15 16.7137 48.1533C17.1587 48.2637 17.6265 48.2312 18.0813 48.2312C21.2582 48.2377 24.435 48.2312 27.6119 48.2312C29.1841 48.2312 30.7758 48.1533 32.3415 48.2929C33.1081 48.3612 33.8748 48.3482 34.6446 48.3482H54.596C55.0248 48.3482 55.4536 48.3482 55.8791 48.3482C56.3696 48.3482 56.8471 48.2637 57.3311 48.189L55.8369 46.6948C55.6712 47.6238 55.3334 48.5073 55.1352 49.4266C55.0118 50.0048 54.8364 50.57 54.7 51.1483C54.5733 51.681 54.5051 52.2235 54.3296 52.7399C54.2582 52.9478 54.2354 53.159 54.2095 53.3799C54.203 53.4351 54.1965 53.4903 54.19 53.5455L54.1835 53.6267C54.1705 53.7664 54.1737 53.7404 54.1932 53.5553C54.2322 53.5715 53.9918 54.2504 53.9691 54.3219C53.7904 54.8936 53.7027 55.5075 53.5858 56.0955C53.3974 57.0343 53.2707 57.9795 53.196 58.9313C53.1797 59.136 53.1635 59.3439 53.1407 59.5485C53.1343 59.6037 53.1278 59.6589 53.1213 59.7174C53.0985 59.9221 53.17 59.3958 53.1343 59.6102C53.1213 59.6914 53.1083 59.7726 53.092 59.8571C53.0758 59.9415 53.053 60.0195 53.0303 60.1007C53.0238 60.1235 53.0141 60.1429 53.0076 60.1657C53.1148 59.9253 53.144 59.8571 53.092 59.9578C53.0563 60.0163 53.079 59.9903 53.1602 59.8733L53.2414 59.7694C53.092 59.9221 52.9881 60.1007 52.9296 60.3054C52.9036 60.4191 52.8906 60.549 52.8874 60.6659C52.8874 60.7309 52.8874 60.7991 52.8874 60.8641L53.7774 59.6947C53.5403 59.7466 53.3032 59.7824 53.0628 59.8181C52.8451 59.8506 53.3389 59.7856 53.1245 59.8116C53.053 59.8214 52.9816 59.8279 52.9101 59.8376C52.8062 59.8473 52.7022 59.8571 52.5983 59.8603C52.3514 59.8701 52.1045 59.8928 51.8641 59.9448C51.8154 59.9545 51.5815 59.9935 51.7472 59.987C51.9129 59.9805 51.7537 59.9805 51.7245 59.9805C51.6627 59.9773 51.601 59.9708 51.5393 59.9708C51.2794 59.9708 51.0261 60.026 50.7792 60.0942C50.7532 60.1007 50.685 60.1072 50.6655 60.1235C50.6817 60.1105 50.9156 60.117 50.7889 60.1007C50.6785 60.0877 50.5616 60.1007 50.4511 60.1007C49.6553 60.091 48.8594 60.1364 48.0668 60.1397C47.664 60.1397 47.2645 60.1332 46.8617 60.104C46.7707 60.0975 46.6765 60.0877 46.5856 60.078C46.5693 60.078 46.4556 60.052 46.4491 60.0617C46.4816 60.0293 46.683 60.0975 46.4979 60.0682C46.2997 60.0357 46.1048 59.9968 45.9067 59.9708C45.0199 59.8473 44.1298 59.8473 43.2365 59.8668C43.1488 59.8668 43.0579 59.8733 42.9701 59.8733C42.9279 59.8733 42.8792 59.8668 42.837 59.8733C42.707 59.8928 42.9312 59.8733 42.9474 59.8993C42.9279 59.8701 42.759 59.8344 42.72 59.8214C42.5349 59.7661 42.34 59.7466 42.1483 59.7369C41.739 59.7174 41.3232 59.7466 40.9139 59.7466C40.0824 59.7466 39.2443 59.7142 38.416 59.7596C38.3283 59.7629 38.2406 59.7694 38.1528 59.7726C38.0944 59.7726 38.0359 59.7726 37.9774 59.7726C37.945 59.7726 37.7923 59.7629 37.9677 59.7759C38.1431 59.7889 37.8832 59.7434 37.8313 59.7272C37.7273 59.6979 37.6234 59.6719 37.5194 59.6459C37.0646 59.542 36.6261 59.5095 36.1649 59.5258C36.1291 59.5258 36.0317 59.5128 36.0057 59.5258C36.0317 59.516 36.2461 59.5875 36.1324 59.5323C36.0609 59.4998 35.9732 59.4835 35.8985 59.4673C35.6191 59.4023 35.343 59.4056 35.0637 59.3861C35.0474 59.3861 34.937 59.3633 34.9272 59.3731C34.9272 59.3731 35.1676 59.4088 35.0247 59.3861C34.8947 59.3666 34.7681 59.3503 34.6381 59.3309C34.3848 59.2984 34.1411 59.2724 33.8878 59.2756C33.498 59.2821 33.1114 59.3049 32.7216 59.2984C32.5429 59.2984 32.3643 59.2821 32.1856 59.2659C32.0459 59.2561 32.2831 59.2756 32.2863 59.2789C32.2766 59.2659 32.1401 59.2496 32.1109 59.2464C31.929 59.2107 31.7503 59.1749 31.5652 59.1619C31.4742 59.1554 31.3833 59.1587 31.2923 59.1619C31.2468 59.1619 31.2014 59.1619 31.1559 59.1619C31.0682 59.1652 30.9675 59.1165 31.2079 59.1749C31.1916 59.1717 31.4677 59.2919 31.3508 59.2367C31.2501 59.1879 31.1364 59.136 31.0325 59.1002C30.9415 59.071 30.8473 59.0515 30.7531 59.0353C30.2756 58.9411 29.8013 58.9086 29.3173 58.9151C28.9048 58.9183 28.489 58.9248 28.0765 58.9248C27.8751 58.9248 27.6769 58.9248 27.4755 58.9248C27.3846 58.9248 27.2903 58.9248 27.1994 58.9248C27.1539 58.9248 27.1117 58.9248 27.0662 58.9216C27.037 58.9216 27.0077 58.9183 26.9785 58.9151C26.8843 58.9053 26.92 58.9118 27.0857 58.9313C26.8778 58.8436 26.5465 58.8436 26.3353 58.8241C26.1242 58.8046 25.9098 58.8111 25.6954 58.8144C25.507 58.8144 25.3186 58.8144 25.1334 58.8079C25.023 58.8046 24.9158 58.7981 24.8054 58.7884C24.7599 58.7851 24.7112 58.7786 24.6657 58.7754C24.4578 58.7559 24.7047 58.7916 24.7079 58.7819C24.6884 58.8144 24.2109 58.6844 24.1557 58.6747C23.8698 58.626 23.5742 58.5935 23.2851 58.5707C23.048 58.5512 23.4768 58.6162 23.2397 58.5675C23.1357 58.5448 23.035 58.5188 22.9311 58.4993C22.6679 58.4506 22.3983 58.4213 22.132 58.4278C20.4558 58.4635 18.7764 58.4571 17.1003 58.4571H14.599C14.2255 58.4571 13.8519 58.4765 13.4783 58.4928C13.2932 58.4993 13.108 58.5058 12.9229 58.496C12.8417 58.4928 12.7507 58.47 12.6728 58.4765C12.6825 58.4765 12.9131 58.5253 12.7897 58.4863C12.7377 58.47 12.6825 58.4635 12.6305 58.4473C11.8509 58.2459 11.0876 58.3401 10.2982 58.3336C9.74924 58.3304 9.19702 58.3174 8.64805 58.3076C8.42066 58.3044 8.19328 58.3011 7.96589 58.3011C7.33246 58.3011 6.72177 58.8598 6.75101 59.516C6.78024 60.1722 7.28374 60.7276 7.96589 60.7309L7.96914 60.6919Z" fill="black"/>
</svg>
