<svg width="90" height="90" viewBox="0 0 90 90" fill="none" xmlns="http://www.w3.org/2000/svg">
<path d="M74.432 69.2359C74.2265 72.6578 72.9107 74.187 69.5796 74.7916C61.7004 76.222 53.8173 77.6643 45.9421 79.1263C43.0931 79.6558 41.5126 78.7233 40.6709 75.9178C39.9992 73.6734 39.9201 71.3223 39.4934 69.0344C39.4104 68.5918 39.363 68.1413 39.2681 67.7027C39.0311 66.624 38.4028 66.1854 37.2964 66.5055C35.8106 66.9401 34.3249 67.3866 32.8194 67.7581C30.982 68.2125 30.5631 68.0109 29.6266 66.4146C26.6393 61.3093 24.6399 55.7852 22.7314 50.2176C20.4277 43.5041 17.8632 36.8697 16.2945 29.9231C15.8796 28.0935 15.5753 26.2324 15.2553 24.3831C15.0142 22.9804 15.4331 21.957 16.7173 21.305C23.5967 17.8198 30.4485 14.2635 37.7113 11.6082C38.8256 11.2051 39.9873 10.9759 41.1688 10.8179C44.2549 10.403 46.4993 11.6674 48.0759 14.2359C49.4312 16.4447 50.2492 18.8867 51.0474 21.3366C51.5373 22.85 52.2921 23.3518 53.8094 23.0001C57.014 22.2533 60.2187 21.712 63.526 22.1782C64.5534 22.3205 65.561 22.036 66.5647 21.8424C70.2593 21.1232 73.1517 23.3242 73.7049 27.0385C74.8508 34.7715 74.6691 42.5519 74.7718 50.3283C74.8627 56.6348 74.8034 62.9373 74.432 69.2359Z" fill="black"/>
<path d="M44.5753 80.4501C42.0345 80.4501 40.3789 79.0671 39.5372 76.2615C39.0868 74.7521 38.8892 73.2229 38.6995 71.745C38.5889 70.8836 38.4822 70.0696 38.332 69.2556C38.2925 69.0541 38.2609 68.8486 38.2333 68.6432C38.1977 68.414 38.1661 68.1848 38.1147 67.9596C38.0594 67.7146 37.9922 67.6 37.9685 67.5802C37.9725 67.5921 37.8539 67.5842 37.6287 67.6514L37.0873 67.8094C35.7913 68.1888 34.4517 68.5839 33.1043 68.9158C30.7848 69.4888 29.8167 69.0818 28.6036 67.0231C25.5531 61.8072 23.5537 56.2831 21.6096 50.6088C21.1354 49.2219 20.6454 47.8389 20.1594 46.4559C18.3101 41.2004 16.3976 35.7672 15.1371 30.1917C14.7736 28.5796 14.4891 26.9358 14.2164 25.3473L14.086 24.5926C13.6593 22.1032 14.987 20.8585 16.1803 20.2539L17.6502 19.5071C23.9646 16.2985 30.4924 12.9872 37.3047 10.4938C38.3716 10.1066 39.5491 9.8379 41.0111 9.64032C44.4686 9.17405 47.1833 10.5136 49.0839 13.6115C50.4511 15.8401 51.2572 18.1636 52.1739 20.9651C52.5019 21.9767 52.7113 22.036 53.5411 21.8424C56.6944 21.1074 60.1124 20.4949 63.6924 21.0007C64.3364 21.0876 65.0477 20.9414 65.8024 20.7834C65.9842 20.7439 66.162 20.7083 66.3398 20.6727C68.3906 20.2736 70.3703 20.653 71.9113 21.7436C73.4998 22.8658 74.5549 24.6834 74.8789 26.8607C75.8351 33.3134 75.8786 39.8649 75.9221 46.203C75.93 47.5741 75.9418 48.9413 75.9576 50.3125C76.0604 57.5436 75.9537 63.5814 75.6178 69.307C75.3807 73.2703 73.6381 75.2618 69.7934 75.9573C61.0449 77.5458 53.3159 78.9643 46.1598 80.292C45.5987 80.3947 45.0692 80.4501 44.5753 80.4501ZM37.9488 65.2173C38.4071 65.2173 38.822 65.3279 39.1935 65.5452C39.8178 65.9167 40.2327 66.5568 40.4263 67.4459C40.4895 67.7343 40.533 68.0109 40.5725 68.2796C40.6002 68.4574 40.6278 68.6353 40.6594 68.8131C40.8254 69.6942 40.94 70.5794 41.0467 71.4368C41.2324 72.887 41.4102 74.2542 41.8054 75.574C42.4652 77.7789 43.4531 78.3756 45.7252 77.9567C52.8812 76.629 60.6181 75.2105 69.3666 73.622C72.1326 73.1201 73.0731 72.0375 73.2469 69.1608C73.5789 63.4944 73.6895 57.5159 73.5828 50.3401C73.563 48.965 73.5551 47.5899 73.5472 46.2148C73.5038 39.9597 73.4603 33.4912 72.5317 27.2084C72.3025 25.6792 71.5952 24.4266 70.5402 23.6798C69.5207 22.9567 68.2207 22.7235 66.7903 23.0041C66.6204 23.0357 66.4544 23.0713 66.2845 23.1068C65.4073 23.2886 64.4155 23.498 63.3604 23.3518C60.1637 22.9013 57.0065 23.4704 54.0746 24.1539C51.9724 24.6439 50.6092 23.8418 49.9137 21.7001C49.0523 19.0487 48.2936 16.8635 47.0608 14.8523C45.6541 12.5604 43.8324 11.6516 41.3233 11.9875C40.0312 12.1613 39.0117 12.3905 38.1108 12.7185C31.4368 15.1605 24.9722 18.4402 18.7211 21.6132L17.2511 22.36C16.5873 22.6998 16.2356 23.1029 16.4213 24.1816L16.5517 24.9363C16.8204 26.4972 17.097 28.1093 17.4487 29.6623C18.6776 35.1034 20.5664 40.4694 22.3959 45.6616C22.8859 47.0525 23.3759 48.4395 23.854 49.8343C25.7586 55.3901 27.7106 60.7917 30.6505 65.8179C31.0798 66.5502 31.7081 66.8137 32.5353 66.6082C33.8314 66.2881 35.1472 65.9009 36.4195 65.5294L36.9648 65.3674C37.3126 65.2686 37.6405 65.2173 37.9488 65.2173Z" fill="white"/>
<path d="M74.7757 50.3283C74.8666 56.6348 74.8034 62.9373 74.4319 69.2359C74.2304 72.6618 72.9106 74.187 69.5835 74.7916C61.7004 76.222 53.8213 77.6683 45.9421 79.1303C43.0971 79.6598 41.5165 78.7272 40.6748 75.9217C39.9991 73.6734 39.9241 71.3262 39.4973 69.0344C39.4143 68.5918 39.3669 68.1453 39.2721 67.7067C39.035 66.6279 38.4107 66.1893 37.3043 66.5094C35.8146 66.9401 34.3288 67.3906 32.8233 67.762C30.9859 68.2164 30.5671 68.0109 29.6345 66.4185C26.6472 61.3133 24.6478 55.7892 22.7353 50.2216C20.4316 43.5081 17.8711 36.8736 16.2984 29.927C15.8835 28.0935 15.5793 26.2364 15.2592 24.3831C15.0182 22.9804 15.437 21.957 16.7173 21.3089C23.6007 17.8198 30.4485 14.2635 37.7152 11.6081C38.8256 11.2011 39.9873 10.972 41.1727 10.8139C44.2627 10.399 46.5032 11.6635 48.0798 14.2359C49.4352 16.4447 50.2531 18.8867 51.0513 21.3366C51.5452 22.85 52.3 23.3558 53.8134 23.0001C57.018 22.2533 60.2226 21.712 63.5299 22.1782C64.5573 22.3244 65.5649 22.0399 66.5686 21.8424C70.2632 21.1232 73.1596 23.3242 73.7088 27.0385C74.8547 34.7715 74.6769 42.5518 74.7797 50.3283H74.7757ZM42.0697 13.8684C41.7575 13.9079 41.5125 13.9395 41.2715 13.9711C38.5727 14.3623 36.1425 15.5754 33.6294 16.5158C28.8916 18.294 24.2606 20.3132 19.8903 22.8934C18.0608 23.9722 17.7644 24.6637 18.3413 26.7342C19.021 29.1723 19.7046 31.6064 20.4672 34.0207C22.9566 41.9157 26.0387 49.617 28.2199 57.6187C28.7375 59.5193 29.6859 61.2421 30.8476 62.8425C31.8789 64.2571 32.1555 64.3677 33.8309 63.8066C40.7539 61.4832 47.6768 59.1597 54.5918 56.8165C57.3696 55.8761 57.8675 54.9238 57.0614 52.1183C54.1492 42.0065 51.237 31.8988 48.2892 21.7989C47.7439 19.9299 47.3014 18.0055 46.1713 16.3499C45.1597 14.872 43.7688 14.0778 42.0736 13.8723L42.0697 13.8684ZM71.903 50.2809C71.903 45.4917 71.9623 40.7026 71.8793 35.9134C71.828 32.934 71.745 29.931 70.7492 27.0622C70.0656 25.0983 69.5401 24.7269 67.5209 24.8099C65.15 24.9047 62.7752 24.9877 60.4083 25.1813C58.4563 25.3394 56.4885 25.4579 54.5957 26.0665C54.0267 26.2482 53.5249 26.5051 53.276 27.0662C52.4303 28.9826 54.3824 31.7565 56.4371 31.5906C58.5985 31.4167 60.76 31.2468 62.9254 31.1006C65.2132 30.9465 67.023 32.3492 67.2364 34.5344C67.9793 42.0303 68.4653 49.5498 68.8012 57.0734C68.9513 60.4835 67.92 61.7361 64.6996 62.392C61.657 63.0124 58.6104 63.6288 55.5441 64.1385C53.0468 64.5534 50.5099 65.0434 48.0245 64.103C46.5388 63.5419 45.2348 63.8935 43.9071 64.5455C43.0101 64.9881 42.6466 65.6915 42.7888 66.6398C43.1484 69.066 43.512 71.4922 43.9348 73.9104C44.16 75.1947 45.0096 75.7321 46.3293 75.57C53.8015 74.6533 61.1275 72.891 68.5364 71.6186C70.9586 71.2037 71.4091 70.611 71.5118 68.2125C71.7766 62.2379 71.6422 56.2594 71.8912 50.2809H71.903Z" fill="#0E0E0E"/>
<path d="M42.0695 13.8684C43.7647 14.0738 45.1556 14.8681 46.1671 16.3459C47.3012 18.0016 47.7398 19.9259 48.2851 21.7949C51.2329 31.8948 54.1451 42.0065 57.0573 52.1143C57.8634 54.9198 57.3655 55.8721 54.5877 56.8126C47.6726 59.1558 40.7497 61.4792 33.8268 63.8027C32.1514 64.3638 31.8748 64.2531 30.8435 62.8385C29.6778 61.2421 28.7334 59.5154 28.2158 57.6147C26.0346 49.6131 22.9564 41.9117 20.4631 34.0167C19.7004 31.6064 19.0168 29.1683 18.3372 26.7303C17.7603 24.6637 18.0606 23.9682 19.8861 22.8895C24.2564 20.3092 28.8836 18.29 33.6253 16.5119C36.1384 15.5675 38.5685 14.3544 41.2674 13.9671C41.5084 13.9316 41.7534 13.9039 42.0656 13.8644L42.0695 13.8684ZM39.015 17.4681C34.6961 18.2624 29.7173 19.3095 25.3747 22.2533C24.3868 22.9211 23.5017 23.743 22.8892 24.7704C22.0041 26.2443 21.1664 27.7695 21.7433 29.603C23.4938 35.1706 25.8014 40.5247 27.951 45.9382C28.9191 48.3763 31.2979 49.5261 33.6292 48.6766C37.6913 47.1987 41.7218 45.6102 45.4993 43.4765C48.3641 41.8603 49.6405 39.2208 48.9173 36.028C47.724 30.7766 46.0763 25.6397 44.3732 20.5344C43.6145 18.2545 42.1959 17.4444 39.019 17.4721L39.015 17.4681Z" fill="white"/>
<path d="M71.903 50.2808C71.6541 56.2594 71.7884 62.2379 71.5237 68.2125C71.417 70.611 70.9705 71.2037 68.5482 71.6186C61.1393 72.891 53.8133 74.6494 46.3412 75.57C45.0174 75.7321 44.1718 75.1986 43.9466 73.9104C43.5198 71.4961 43.1603 69.066 42.8007 66.6398C42.6624 65.6914 43.022 64.9881 43.9189 64.5455C45.2466 63.8896 46.5506 63.5379 48.0363 64.103C50.5218 65.0434 53.0586 64.5534 55.5559 64.1385C58.6183 63.6288 61.6648 63.0163 64.7114 62.392C67.9318 61.7361 68.9631 60.4835 68.813 57.0734C68.4811 49.5498 67.9911 42.0303 67.2482 34.5344C67.0309 32.3492 65.2251 30.9504 62.9372 31.1006C60.7718 31.2468 58.6104 31.4167 56.4489 31.5906C54.3942 31.7565 52.4382 28.9787 53.2878 27.0662C53.5367 26.5051 54.0386 26.2482 54.6076 26.0664C56.5003 25.4619 58.4681 25.3433 60.4201 25.1813C62.7831 24.9877 65.1579 24.9047 67.5327 24.8099C69.5519 24.7269 70.0814 25.1023 70.761 27.0622C71.7568 29.931 71.8398 32.934 71.8912 35.9134C71.9741 40.7026 71.9149 45.4917 71.9149 50.2808H71.903Z" fill="white"/>
<path d="M38.9365 17.4484C42.1135 17.4049 43.536 18.2071 44.3065 20.4831C46.0333 25.5804 47.7087 30.7054 48.9297 35.953C49.6726 39.1418 48.4081 41.7892 45.5512 43.4212C41.7855 45.5747 37.7669 47.1829 33.7088 48.6805C31.3814 49.5419 28.9986 48.4039 28.0147 45.9698C25.8335 40.5682 23.4982 35.2259 21.7201 29.6662C21.1353 27.8367 21.9651 26.3115 22.8423 24.8297C23.4508 23.7983 24.332 22.9764 25.3159 22.3007C29.6427 19.3372 34.6176 18.2624 38.9326 17.4444L38.9365 17.4484ZM34.4121 36.0122C37.3757 36.0122 40.0627 33.4359 40.2484 30.4249C40.28 29.8875 40.0548 29.5793 39.5608 29.4173C39.0827 29.2592 38.7468 29.4765 38.5453 29.8717C38.2687 30.417 38.0435 30.986 37.8143 31.555C37.2295 32.9815 36.289 34.0009 34.665 34.08C33.12 34.1551 32.0215 33.4003 31.3537 32.0094C31.0771 31.4365 30.6503 31.0413 29.9905 31.3456C29.3266 31.6538 29.3977 32.2149 29.6151 32.8155C30.2829 34.6529 32.302 36.0122 34.4121 36.0122ZM35.7714 25.2525C35.2301 25.292 34.9377 25.6476 34.9337 26.1257C34.9297 26.6157 35.2577 26.999 35.7754 26.9753C36.2535 26.9555 36.621 26.6789 36.6052 26.1139C36.5894 25.5765 36.293 25.2999 35.7675 25.2485L35.7714 25.2525ZM32.4522 27.0938C32.4127 26.5841 32.1479 26.2048 31.5908 26.1455C31.0178 26.0862 30.6701 26.4102 30.6069 26.9634C30.5397 27.5522 30.8874 27.8723 31.4446 27.9197C31.9938 27.9671 32.3771 27.7261 32.4561 27.0938H32.4522Z" fill="#0E0E0E"/>
<path d="M34.4001 36.0083C32.29 35.9964 30.2748 34.6253 29.6189 32.7878C29.4055 32.1872 29.3344 31.6261 30.0021 31.3219C30.662 31.0215 31.0888 31.4167 31.3614 31.9896C32.0253 33.3845 33.1159 34.1432 34.6648 34.076C36.2889 34.0049 37.2372 32.9894 37.826 31.5668C38.0591 31.0018 38.2883 30.4328 38.5689 29.8875C38.7704 29.4923 39.1063 29.279 39.5844 29.437C40.0783 29.599 40.3035 29.9112 40.268 30.4486C40.0665 33.4556 37.3676 36.0201 34.4001 36.0043V36.0083Z" fill="white"/>
<path d="M35.8149 25.2564C36.3405 25.3078 36.6329 25.5844 36.6447 26.1257C36.6566 26.6908 36.2891 26.9634 35.811 26.9832C35.2934 27.0029 34.9654 26.6157 34.9733 26.1257C34.9812 25.6476 35.2736 25.292 35.8149 25.2564Z" fill="white"/>
<path d="M32.4839 27.078C32.4009 27.7142 32.0176 27.9513 31.4684 27.8999C30.9152 27.8485 30.5675 27.5245 30.6386 26.9397C30.7058 26.3865 31.0574 26.0625 31.6264 26.1257C32.1836 26.1889 32.4483 26.5683 32.4839 27.078Z" fill="#FCFCFC"/>
<path d="M44.3694 20.5305C45.381 23.5652 46.3728 26.6117 47.2618 29.686C46.353 26.5959 45.3414 23.5336 44.3062 20.4831C43.8794 19.2226 43.2472 18.4125 42.2317 17.9502C43.2906 18.4125 43.9387 19.2305 44.3694 20.5265V20.5305ZM39.5842 29.437C39.1061 29.279 38.7702 29.4923 38.5687 29.8875C38.2921 30.4328 38.0629 31.0018 37.8258 31.5668C37.3516 32.7088 36.6404 33.5781 35.5458 33.9179C36.6443 33.5742 37.3477 32.7009 37.8179 31.555C38.051 30.9899 38.2763 30.417 38.5489 29.8756C38.7504 29.4805 39.0824 29.2671 39.5644 29.4212C39.8173 29.5042 39.9991 29.6267 40.1137 29.7966C39.9991 29.6385 39.8252 29.524 39.5842 29.4449V29.437ZM34.9729 26.1257C34.965 26.5722 35.2416 26.9318 35.6841 26.9753C35.2218 26.9476 34.9294 26.588 34.9334 26.1297C34.9373 25.6515 35.2297 25.2959 35.7711 25.2564C35.7829 25.2564 35.7908 25.2564 35.8027 25.2604C35.2653 25.2999 34.9768 25.6515 34.9689 26.1257H34.9729ZM31.4679 27.8999C31.7248 27.9236 31.9421 27.8802 32.112 27.7695C31.9382 27.896 31.7129 27.9434 31.4442 27.9197C30.891 27.8723 30.5394 27.5522 30.6065 26.9634C30.646 26.6117 30.8002 26.3549 31.053 26.2285C30.8239 26.3628 30.6777 26.6078 30.6381 26.9397C30.567 27.5285 30.9147 27.8485 31.4679 27.8999ZM29.6187 32.7839C30.2746 34.6253 32.2898 35.9964 34.3999 36.0043C34.9492 36.0043 35.4905 35.9213 36.0081 35.7593C35.4945 35.9213 34.961 36.0083 34.4157 36.0083C32.3057 36.0083 30.2865 34.645 29.6187 32.8115C29.508 32.5033 29.433 32.203 29.4804 31.9462C29.4448 32.1991 29.5159 32.4875 29.6187 32.7839ZM36.2492 35.6763C36.1741 35.704 36.103 35.7356 36.024 35.7593C36.099 35.7356 36.1741 35.704 36.2492 35.6763ZM25.3195 22.3047C24.5845 22.8065 23.9088 23.3953 23.3636 24.0868C23.9247 23.3716 24.6201 22.767 25.3788 22.2533C26.8606 21.2496 28.4174 20.4712 29.998 19.8429C28.3977 20.4831 26.8211 21.2813 25.3235 22.3047H25.3195ZM23.1265 24.4068C23.166 24.3515 23.2055 24.3002 23.245 24.2448C23.2055 24.3002 23.162 24.3515 23.1265 24.4068ZM24.5371 37.411C25.6712 40.2758 26.8645 43.1129 28.0183 45.9698C28.6229 47.4714 29.7609 48.475 31.0926 48.8267C29.7293 48.4908 28.5636 47.4674 27.9551 45.9303C26.825 43.0892 25.6554 40.26 24.5411 37.411H24.5371ZM45.5509 43.4212C46.7837 42.7178 47.7202 41.8208 48.3248 40.7737C47.7162 41.8445 46.76 42.7573 45.4955 43.4725C43.9979 44.3181 42.4648 45.0729 40.9 45.7762C42.4806 45.061 44.0335 44.2865 45.5469 43.4212H45.5509Z" fill="white"/>
</svg>
