<svg width="90" height="90" viewBox="0 0 90 90" fill="none" xmlns="http://www.w3.org/2000/svg">
<path d="M82.2382 53.7941C82.2003 53.1047 82.0831 52.3809 81.9108 51.7088C81.7419 51.0608 81.4627 50.43 81.1318 49.8509C80.825 49.3132 80.5045 48.7583 80.084 48.2999C79.891 48.0896 79.6635 47.9069 79.4463 47.7208C79.1602 47.4761 78.881 47.2313 78.5812 47.0004C78.1503 46.673 77.6884 46.4041 77.1921 46.1904C76.6234 45.9457 76.0478 45.7458 75.4377 45.6355C74.8414 45.5286 74.2106 45.439 73.604 45.4769C72.6147 45.5355 71.6668 45.8767 70.7982 46.3558C70.5294 45.9078 70.2261 45.4838 69.8814 45.0909C69.2024 44.3222 68.3407 43.8569 67.4031 43.4777C67.3755 43.4674 67.3445 43.4605 67.3169 43.4467C67.5065 38.6867 67.5582 33.8129 66.6896 28.9356C66.9171 28.7357 67.1446 28.5323 67.3618 28.3255C68.1442 27.5844 68.7991 26.7124 69.3575 25.7921C69.8986 24.9028 70.3605 23.9274 70.6018 22.914C70.7396 22.328 70.8568 21.7145 70.7982 21.1148C70.7396 20.5357 70.7845 19.9497 70.65 19.381C70.5156 18.8226 70.2536 18.2918 70.002 17.7748C69.7607 17.2819 69.4299 16.8338 69.0645 16.4271C68.6991 16.0204 68.2924 15.6446 67.8581 15.3172C67.4824 15.0311 67.0205 14.8346 66.5897 14.6451C65.5591 14.1866 64.4423 13.9626 63.3152 14.0798C62.7258 14.1418 62.1467 14.2315 61.6021 14.4624C61.0644 14.6899 60.6094 14.9966 60.1613 15.3724C60.1165 15.4103 60.0752 15.4551 60.0304 15.4964C59.5961 15.0966 59.1135 14.7554 58.5827 14.5244C57.4797 14.0488 56.2458 13.9695 55.0669 14.1453C54.512 14.228 53.9984 14.4038 53.4848 14.6313C53.0678 14.814 52.6128 15.007 52.2405 15.2758C51.3685 15.9032 50.5344 16.7787 50.0553 17.7438C49.8071 18.247 49.552 18.764 49.4073 19.3086C49.359 19.4913 49.3349 19.674 49.3142 19.8567C48.418 19.8325 47.5529 19.8222 46.7429 19.8222C44.4886 19.8222 42.7135 19.9015 42.2103 19.9394C37.8811 20.2668 32.7798 20.7735 27.7612 22.0213C23.4665 23.0898 21.2329 25.6301 20.7297 30.0179C20.6194 30.9796 20.5194 31.9274 20.4264 32.8753C20.4264 32.8753 20.4229 32.8753 20.4195 32.8788C19.9542 33.2855 19.5681 33.7956 19.2372 34.3161C19.1545 34.4436 19.0787 34.5746 19.0063 34.709C18.2135 34.3023 17.3621 34.0162 16.4694 33.9232C15.8524 33.8611 15.2113 33.9542 14.6047 34.061C13.9774 34.1713 13.3845 34.3747 12.802 34.6263C12.2919 34.8469 11.8196 35.1226 11.3785 35.4604C10.8442 35.8672 10.303 36.3256 9.84807 36.8219C9.41032 37.301 9.09321 37.8767 8.78989 38.4454C8.46934 39.0451 8.19359 39.6931 8.04538 40.3584C7.88338 41.0857 7.76274 41.8715 7.77308 42.6195C7.77997 43.0055 7.82823 43.3881 7.93163 43.7604C8.02814 44.1085 8.1281 44.4532 8.19359 44.8082C8.43832 46.1215 9.24832 47.321 10.0756 48.3412C10.8063 49.2408 11.6749 50.0233 12.5883 50.7368C13.1329 51.1642 13.6913 51.5571 14.2979 51.8949C14.8425 52.1982 15.4112 52.4498 15.9834 52.7014C17.2001 53.2323 18.41 53.7493 19.6784 54.1388C19.8542 59.0333 20.2885 63.7485 20.9916 68.3259C21.3949 70.9489 21.7637 72.7654 23.1459 74.0304C24.5281 75.2954 26.3756 75.5091 29.0331 75.6883C29.1537 75.6952 29.2709 75.7055 29.3916 75.7159C29.5604 75.7297 29.7293 75.7435 29.8982 75.7538C32.542 75.9192 35.1857 75.9399 37.1917 75.9399C38.1396 75.9399 39.0875 75.933 40.0353 75.9296C40.9729 75.9261 41.9139 75.9192 42.8514 75.9192C43.7889 75.9192 44.63 75.9261 45.3952 75.9365C45.695 75.9399 45.9915 75.9434 46.2913 75.9434C49.1625 75.9434 52.0234 75.7503 54.7946 75.5642C56.6835 75.4367 58.6344 75.3057 60.5405 75.2402C64.0528 75.1196 65.7142 73.6064 66.2691 70.0217C66.3449 69.5254 66.4173 69.0394 66.469 68.5293C66.5276 67.9295 66.5793 67.3332 66.6241 66.7335C66.7896 66.7093 66.9516 66.6818 67.1067 66.6576C69.1575 66.375 71.1429 65.727 73.0249 64.8756C73.8969 64.4792 74.7828 64.0897 75.6238 63.6244C76.5131 63.1315 77.3231 62.5249 78.0883 61.8597C79.498 60.6326 80.7492 59.1815 81.5006 57.4581C81.6247 57.1754 81.7522 56.8893 81.8212 56.5895C81.8936 56.2792 81.928 55.9621 81.9694 55.6485C81.9556 55.7553 81.9418 55.8622 81.928 55.969C82.1004 55.2486 82.3003 54.5489 82.2589 53.7975L82.2382 53.7941Z" fill="black"/>
<path d="M46.2737 76.9774C45.9704 76.9774 45.6671 76.9774 45.3638 76.9705C44.602 76.9602 43.7748 76.9533 42.8338 76.9533C41.9514 76.9533 41.069 76.9567 40.1901 76.9636H39.8557C38.963 76.9705 38.0668 76.974 37.1741 76.974C35.1543 76.974 32.4933 76.9533 29.8151 76.7844C29.6393 76.7741 29.4636 76.7603 29.2878 76.743C29.174 76.7327 29.0603 76.7224 28.9465 76.7155C26.1581 76.5259 24.0555 76.2777 22.4286 74.7887C20.7982 73.2962 20.3743 71.2316 19.9503 68.4776C19.2816 64.1277 18.8473 59.5606 18.6543 54.8902C17.6065 54.5283 16.5862 54.094 15.5522 53.6424C14.949 53.3805 14.363 53.1185 13.7805 52.7945C13.1946 52.4671 12.6086 52.0741 11.9365 51.5502C10.8128 50.6713 9.96144 49.8613 9.25829 48.9927C8.50688 48.0655 7.46938 46.6419 7.16262 44.9978C7.11091 44.7152 7.02819 44.4256 6.94547 44.1223L6.92134 44.0361C6.79725 43.5915 6.73176 43.1193 6.72487 42.6333C6.71453 41.8957 6.81104 41.0788 7.02474 40.1343C7.17985 39.4381 7.4556 38.728 7.86577 37.9594C8.23113 37.2804 8.57237 36.6772 9.07216 36.1257C9.50646 35.65 10.0511 35.164 10.7404 34.6401C11.2437 34.254 11.7951 33.93 12.3811 33.6784C13.1187 33.3613 13.7633 33.158 14.4147 33.0442C15.0524 32.9305 15.8004 32.8167 16.5655 32.896C17.2377 32.9649 17.9202 33.1338 18.5992 33.3992C18.868 33.0097 19.1438 32.6754 19.4264 32.3893C19.5091 31.5655 19.5988 30.7383 19.6953 29.9042C20.2468 25.0993 22.8009 22.1936 27.5058 21.0217C32.5967 19.7567 37.7532 19.2431 42.1272 18.9122C42.6442 18.8743 44.4538 18.7916 46.739 18.7916C47.3147 18.7916 47.8937 18.7985 48.4728 18.8088C48.6486 18.2504 48.8968 17.7438 49.1242 17.2888C49.6413 16.241 50.534 15.2276 51.6335 14.4383C52.0678 14.1246 52.5504 13.9143 52.9778 13.7248L53.064 13.6869C53.7361 13.3904 54.322 13.2112 54.9115 13.125C56.3832 12.9044 57.793 13.063 58.989 13.5766C59.3406 13.7282 59.6887 13.9281 60.03 14.1694C60.416 13.8937 60.7986 13.68 61.1985 13.5145C61.8913 13.2215 62.6013 13.1181 63.208 13.0561C64.4695 12.9251 65.7483 13.1423 67.0098 13.7041L67.0891 13.7386C67.5337 13.935 68.0335 14.1591 68.4816 14.4969C68.9676 14.8657 69.4226 15.2862 69.8327 15.7412C70.3084 16.2685 70.6669 16.789 70.9288 17.3267L70.9461 17.3612C71.2046 17.8885 71.4976 18.4883 71.6527 19.1466C71.763 19.6119 71.7802 20.06 71.794 20.4564C71.8009 20.646 71.8078 20.8321 71.825 21.0182C71.9008 21.7765 71.763 22.4969 71.6044 23.1587C71.3597 24.1755 70.9013 25.2441 70.236 26.3367C69.5639 27.4397 68.8539 28.3393 68.068 29.0838C67.9784 29.1665 67.8887 29.2493 67.7991 29.332C68.5023 33.6129 68.5505 37.8525 68.3713 42.778C69.1193 43.1262 69.9534 43.6225 70.6497 44.4118C70.822 44.6083 70.9909 44.8151 71.1529 45.0357C71.956 44.6945 72.7557 44.498 73.5381 44.4498C74.2757 44.4015 75.0064 44.5118 75.62 44.6255C76.2507 44.7393 76.8815 44.9392 77.6019 45.2494C78.1775 45.4976 78.7152 45.8147 79.2047 46.1835C79.4804 46.3903 79.732 46.6075 79.9768 46.8177L80.2284 47.0314C80.4214 47.1934 80.6385 47.3796 80.8419 47.6001C81.352 48.1551 81.7277 48.81 82.0276 49.3408C82.4343 50.0543 82.7308 50.7643 82.91 51.4537C83.103 52.1982 83.2271 52.9875 83.2685 53.7389C83.3133 54.5558 83.1375 55.2728 82.9686 55.9656L82.9238 56.1517C82.8928 56.3689 82.8583 56.5895 82.8066 56.817C82.7204 57.1892 82.5791 57.5201 82.4516 57.8096L82.4274 57.8682C81.6864 59.5675 80.4834 61.1289 78.7462 62.6386C77.8363 63.428 76.9711 64.0484 76.1025 64.5275C75.3098 64.9652 74.486 65.3375 73.6897 65.6994L73.4312 65.8166C71.4286 66.7231 69.4571 67.3332 67.5682 67.6331C67.5406 67.964 67.5096 68.2983 67.4786 68.6292C67.4269 69.1669 67.351 69.6702 67.2718 70.1803C66.641 74.2579 64.5695 76.1364 60.5573 76.2743C58.6616 76.3398 56.721 76.4707 54.846 76.5983C52.0609 76.7878 49.1828 76.9809 46.2737 76.9809V76.9774ZM42.8338 74.8852C43.7851 74.8852 44.6227 74.8921 45.3913 74.9024C48.5279 74.9472 51.6714 74.737 54.7046 74.5302C56.597 74.4026 58.5513 74.2682 60.485 74.2027C63.5044 74.0993 64.7452 72.9619 65.2278 69.8563C65.3036 69.3772 65.3726 68.9084 65.4208 68.4224C65.4794 67.8296 65.5277 67.2401 65.5725 66.6473C65.6104 66.1682 65.9723 65.7787 66.4445 65.7029L66.5962 65.6787C66.7168 65.6615 66.834 65.6408 66.9443 65.627C68.7401 65.3789 70.6359 64.8067 72.5764 63.9277L72.8384 63.8106C73.5967 63.4659 74.3826 63.1109 75.1029 62.7145C75.844 62.3043 76.592 61.77 77.3882 61.0738C78.8876 59.7709 79.9147 58.4507 80.5282 57.0376L80.5558 56.979C80.6558 56.7515 80.7488 56.5378 80.7902 56.3551C80.8247 56.2 80.8522 56.038 80.8764 55.8622C80.8764 55.8484 80.8764 55.8346 80.8798 55.8243L80.9212 55.5037C80.9384 55.3762 80.9763 55.259 81.0349 55.1521C81.1452 54.6868 81.2245 54.2663 81.2004 53.8492C81.1659 53.2323 81.0625 52.5808 80.9039 51.9673C80.773 51.4537 80.5455 50.916 80.2284 50.3611C79.9664 49.9026 79.67 49.3787 79.3184 48.9996C79.2012 48.872 79.0461 48.741 78.8876 48.6066L78.6256 48.3826C78.3947 48.1861 78.1775 47.9965 77.9535 47.8276C77.595 47.5553 77.2021 47.3244 76.7781 47.1417C76.2059 46.8936 75.7199 46.7384 75.2512 46.6557C74.7583 46.5661 74.1861 46.4799 73.6656 46.511C72.9177 46.5558 72.118 46.8108 71.2942 47.2658C70.8048 47.5347 70.1947 47.3692 69.9086 46.8936C69.6604 46.4799 69.3916 46.1077 69.102 45.7802C68.6298 45.246 68.0128 44.8496 67.0339 44.4498C66.9995 44.4394 66.9719 44.4291 66.9443 44.4187C66.5307 44.2602 66.2653 43.8569 66.2825 43.4123C66.4928 38.0904 66.4687 33.6233 65.669 29.1252C65.6069 28.7702 65.7345 28.4048 66.0033 28.167C66.2205 27.9739 66.4376 27.7809 66.6479 27.581C67.2993 26.964 67.8956 26.2023 68.4713 25.2578C69.0227 24.3513 69.4019 23.4827 69.5949 22.6762C69.7121 22.1867 69.8121 21.6731 69.7673 21.2182C69.7431 20.9872 69.7362 20.7563 69.7259 20.5254C69.7156 20.1979 69.7018 19.8877 69.6397 19.6223C69.5363 19.188 69.3157 18.7399 69.0848 18.2677L69.0676 18.2332C68.8883 17.8679 68.6367 17.5059 68.2886 17.1199C67.968 16.7614 67.6096 16.434 67.227 16.1444C66.9684 15.948 66.5996 15.786 66.2446 15.6274L66.1653 15.5929C65.2381 15.1793 64.3144 15.0173 63.4182 15.1104C62.9426 15.1586 62.4393 15.231 61.9981 15.4172C61.6052 15.5826 61.2398 15.8135 60.8159 16.1686C60.7745 16.2099 60.7435 16.241 60.7125 16.2685C60.3161 16.6235 59.7163 16.6201 59.3234 16.2582C58.9373 15.9032 58.5444 15.6378 58.1653 15.4723C57.3242 15.1104 56.304 15.0035 55.2113 15.1655C54.8046 15.2276 54.3979 15.3517 53.8946 15.5757L53.8085 15.6136C53.4569 15.7687 53.095 15.9273 52.8365 16.1134C52.0196 16.6994 51.3405 17.4611 50.9717 18.2022C50.7477 18.6537 50.5168 19.1225 50.3996 19.574C50.372 19.674 50.3548 19.7946 50.3375 19.9601C50.2858 20.4909 49.8377 20.8942 49.3104 20.8942C49.3 20.8942 49.2897 20.8942 49.2828 20.8942C48.4383 20.87 47.5835 20.8597 46.739 20.8597C44.5158 20.8597 42.7786 20.9355 42.2857 20.9734C37.9979 21.3009 32.9517 21.7972 28.009 23.0277C24.1348 23.9894 22.208 26.185 21.753 30.1385C21.6427 31.0933 21.5428 32.0377 21.4497 32.9787C21.4221 33.2476 21.2911 33.4957 21.0843 33.6715C20.7603 33.9611 20.4398 34.354 20.1089 34.8745C20.0365 34.9848 19.971 35.0985 19.909 35.2123C19.6367 35.6983 19.03 35.8844 18.5337 35.6328C17.7961 35.2536 17.0653 35.0261 16.3622 34.9538C15.859 34.9021 15.2833 34.9917 14.7835 35.0813C14.2941 35.1675 13.7943 35.326 13.2083 35.5776C12.7706 35.7672 12.3777 35.9981 12.002 36.2842C11.4125 36.7358 10.9541 37.139 10.606 37.5216C10.2648 37.8939 10.0028 38.3627 9.69603 38.9348C9.37548 39.5346 9.16177 40.0723 9.04803 40.5859C8.87224 41.3717 8.78952 42.0301 8.79986 42.6057C8.8033 42.9125 8.84467 43.2089 8.9205 43.4846L8.94462 43.5708C9.03769 43.9052 9.1342 44.2533 9.20314 44.6221C9.42373 45.8044 10.2613 46.9418 10.8714 47.6967C11.4746 48.4412 12.2191 49.1478 13.2152 49.9268C13.7978 50.3817 14.301 50.723 14.7904 50.9953C15.2937 51.2745 15.8314 51.5157 16.3863 51.757C17.6375 52.3051 18.7715 52.7876 19.971 53.153C20.3915 53.284 20.6845 53.6631 20.7017 54.1043C20.8775 58.9471 21.3153 63.6796 22.0046 68.1742C22.3838 70.6525 22.6974 72.2346 23.8349 73.2721C24.9689 74.3096 26.6544 74.4957 29.0948 74.6612C29.2188 74.668 29.3464 74.6784 29.4705 74.6922C29.629 74.706 29.791 74.7197 29.953 74.7301C32.5726 74.8955 35.1922 74.9162 37.181 74.9162C38.0703 74.9162 38.963 74.9128 39.8523 74.9059H40.1866C41.0725 74.899 41.9583 74.8955 42.8441 74.8955L42.8338 74.8852Z" fill="white"/>
<path d="M46.274 74.737C45.981 74.737 45.688 74.737 45.395 74.7301C44.5402 74.7163 43.6854 74.7128 42.8306 74.7128C41.8896 74.7128 40.9486 74.7163 40.0077 74.7232C39.0632 74.7266 38.1188 74.7335 37.1744 74.7335C35.1855 74.7335 32.566 74.7128 29.9567 74.5508C29.7982 74.5405 29.6396 74.5267 29.4776 74.5129C29.3501 74.5026 29.226 74.4922 29.0985 74.4819C23.811 74.1234 22.9666 73.3513 22.1669 68.1397C20.3952 56.5998 20.316 44.174 21.9187 30.1523C22.3634 26.2815 24.2522 24.1342 28.0437 23.1897C32.9727 21.9627 38.0119 21.4663 42.2929 21.1389C42.61 21.1147 44.2955 21.0251 46.7324 21.0251C51.1857 21.0251 57.2693 21.325 60.9368 22.7485C63.3943 23.6999 64.873 25.7438 65.4659 28.9942C66.4999 34.6814 66.2414 40.4273 65.9933 45.987L65.9864 46.1559C65.8588 48.9892 65.8244 51.8845 65.7933 54.6868C65.7416 59.1814 65.6899 63.8278 65.2453 68.412C65.2005 68.8877 65.1315 69.3358 65.0557 69.8356C64.5904 72.8378 63.3909 73.9338 60.4783 74.0338C58.555 74.0993 56.5938 74.2337 54.698 74.3613C51.9474 74.5474 49.1038 74.7404 46.274 74.7404V74.737Z" fill="white"/>
<path d="M46.739 22.235C50.8958 22.235 56.9829 22.5073 60.5056 23.8757C62.8391 24.7822 63.849 26.8227 64.2833 29.2114C65.3035 34.8193 65.0381 40.4652 64.7831 46.1042C64.4487 53.4977 64.7624 60.9152 64.0489 68.2949C64.0041 68.7464 63.9352 69.1979 63.8662 69.6495C63.5009 72.014 62.8218 72.7447 60.4366 72.8274C55.711 72.9894 51.0096 73.5306 46.2736 73.5306C45.9875 73.5306 45.698 73.5306 45.4119 73.5237C44.5537 73.5099 43.692 73.5065 42.8337 73.5065C40.9483 73.5065 39.0594 73.5272 37.174 73.5272C34.7923 73.5272 32.4105 73.4927 30.0322 73.3445C29.7496 73.3272 29.4635 73.2962 29.1808 73.279C24.4311 72.9584 24.0761 72.6275 23.3592 67.9571C21.4324 55.4106 21.6771 42.8677 23.1179 30.2902C23.5074 26.8813 25.0343 25.182 28.3364 24.3617C32.9723 23.207 37.6566 22.7037 42.3856 22.3453C42.7682 22.3177 44.4641 22.235 46.7355 22.235M43.7643 24.8235C43.9505 24.7615 44.1366 24.7064 44.3227 24.6478C44.1435 24.6581 43.9677 24.665 43.7885 24.6753C43.7816 24.7236 43.7747 24.7718 43.7643 24.8235ZM46.739 19.8222C44.4847 19.8222 42.7096 19.9015 42.2064 19.9394C37.8772 20.2668 32.7759 20.7735 27.7573 22.0213C23.4626 23.0898 21.229 25.6301 20.7258 30.0179C19.1092 44.1499 19.1919 56.6791 20.9774 68.3259C21.3807 70.9489 21.7495 72.7654 23.1317 74.0304C24.5138 75.2954 26.3613 75.5091 29.0188 75.6883C29.1395 75.6952 29.2567 75.7055 29.3773 75.7159C29.5462 75.7297 29.7151 75.7435 29.884 75.7538C32.5277 75.9193 35.1714 75.9399 37.1775 75.9399C38.1253 75.9399 39.0732 75.933 40.0211 75.9296C40.9586 75.9261 41.8996 75.9193 42.8372 75.9193C43.7747 75.9193 44.6157 75.9261 45.3809 75.9365C45.6808 75.9399 45.9772 75.9434 46.2771 75.9434C49.1483 75.9434 52.0091 75.7504 54.7804 75.5642C56.6693 75.4367 58.6202 75.3057 60.5262 75.2402C64.0386 75.1196 65.6999 73.6064 66.2549 70.0217C66.3307 69.5254 66.4031 69.0394 66.4548 68.5293C66.9029 63.8967 66.958 59.2228 67.0097 54.7006C67.0407 51.9121 67.0752 49.0271 67.1993 46.2111L67.2062 46.0422C67.4613 40.417 67.7232 34.5987 66.6616 28.7771C65.9964 25.1338 64.2212 22.7244 61.3811 21.6249C57.5379 20.1359 51.2991 19.8222 46.7424 19.8222H46.739Z" fill="black"/>
<path d="M43.7645 24.8235C43.9644 23.8825 43.4922 23.6723 42.4651 23.7516C37.9842 24.0928 33.5516 24.5685 29.1603 25.6611C26.0341 26.4401 24.5898 28.0498 24.221 31.276C22.8561 43.1848 22.6252 55.066 24.4485 66.9437C25.1275 71.366 25.4619 71.6762 29.96 71.983C30.2288 72.0002 30.4977 72.0278 30.7666 72.045C35.6197 72.3483 40.4762 72.1415 45.3294 72.2139C50.0929 72.2828 54.8116 71.7176 59.5579 71.5521C61.8155 71.4728 62.4566 70.7835 62.8048 68.543C62.8703 68.1156 62.9357 67.6882 62.9771 67.2608C63.6561 60.2707 63.3597 53.2495 63.6734 46.249C63.9146 40.9133 64.1663 35.5638 63.2012 30.2557C62.7875 27.9946 61.8328 26.0609 59.6234 25.2027C54.4635 23.2001 49.2277 22.9933 43.768 24.827L43.7645 24.8235Z" fill="#080808"/>
<path d="M60.5055 23.8757C62.839 24.7822 63.8489 26.8227 64.2832 29.2113C65.3035 34.8193 65.038 40.4652 64.783 46.1042C64.4486 53.4977 64.7623 60.9152 64.0488 68.2949C64.004 68.7464 63.9351 69.1979 63.8661 69.6495C63.5008 72.014 62.8217 72.7447 60.4365 72.8274C55.4249 72.9998 50.4407 73.5995 45.4118 73.5271C40.2864 73.4513 35.1541 73.6685 30.0321 73.3479C29.7495 73.3307 29.4634 73.2997 29.1807 73.2824C24.431 72.9619 24.076 72.631 23.3591 67.9605C21.4323 55.4175 21.677 42.8711 23.1178 30.2936C23.5073 26.8847 25.0342 25.1855 28.3363 24.3651C32.9722 23.2104 37.6565 22.7072 42.3855 22.3487C43.4713 22.266 55.0526 21.7628 60.502 23.8791L60.5055 23.8757ZM32.438 26.1264C28.1226 26.802 25.9683 29.3596 25.4857 33.6129C24.7137 40.3928 25.0342 47.1521 25.5891 53.9147C25.7891 56.362 26.4095 58.6748 28.3811 60.3258C30.1079 61.7735 32.2967 62.163 34.4234 62.487C40.2106 63.3694 46.0219 62.9626 51.816 62.4939C56.1383 62.1423 58.7958 59.6985 60.0677 55.645C62.3116 48.4998 62.5529 41.1477 61.7325 33.8163C61.0639 27.8464 58.465 25.7128 52.4778 24.9235C45.7048 24.0273 39.0593 25.0166 32.438 26.1264Z" fill="white"/>
<path d="M42.2344 44.3842C39.6148 43.7845 37.4915 41.5165 37.1848 39.0451C37.0848 38.2386 37.1537 37.5182 38.0672 37.3286C38.9737 37.139 39.3942 37.7526 39.5734 38.5384C40.0112 40.4583 41.1555 41.7095 43.0995 42.0542C45.14 42.4196 46.6015 41.42 47.732 39.8138C48.1801 39.1761 48.6248 38.5315 49.1211 37.9352C49.483 37.5009 49.9587 37.3286 50.5102 37.6595C51.0755 38.0007 51.2719 38.4523 51.0789 39.1072C49.9897 42.7918 45.9156 45.2287 42.2344 44.3842Z" fill="white"/>
<path d="M42.338 32.7443C42.0588 33.513 41.5176 33.6991 40.8455 33.4854C40.1699 33.2683 39.8287 32.7685 40.0803 32.0584C40.3147 31.3863 40.8455 31.083 41.5383 31.3208C42.2173 31.5552 42.4379 32.1032 42.338 32.7443Z" fill="white"/>
<path d="M47.9459 32.9408C47.6667 33.7095 47.1255 33.8956 46.4534 33.6819C45.7778 33.4647 45.4366 32.9649 45.6882 32.2549C45.9226 31.5828 46.4534 31.2794 47.1462 31.5173C47.8253 31.7517 48.0458 32.2997 47.9459 32.9408Z" fill="white"/>
<path d="M70.3291 48.0827C71.4321 47.2727 72.7419 46.6557 73.8483 46.6799C75.5097 46.7074 77.109 47.2348 78.3499 48.3688C78.6222 48.617 78.922 48.8479 79.1771 49.1064C79.4839 49.4201 79.7389 49.8854 79.9664 50.2646C80.3628 50.9195 80.673 51.6157 80.8144 52.3671C80.9557 53.1185 81.097 53.8355 80.997 54.5765C80.9074 54.9316 80.8212 55.2866 80.7351 55.6416C80.7041 55.876 80.6627 56.1104 80.611 56.3413C80.5076 56.7136 80.3352 57.0548 80.1664 57.3995C79.3701 59.0126 78.0328 60.3465 76.6506 61.4736C75.8475 62.1285 74.8996 62.6662 73.9586 63.1005C73.0176 63.5348 72.0698 64.0139 71.084 64.3759C69.3571 65.0101 67.5441 65.4788 65.7069 65.6029L65.6862 65.596L65.4415 65.5305C63.9215 64.4931 62.5944 63.1729 61.426 61.7528C60.7573 60.9428 60.1886 60.0604 59.5923 59.1987C58.996 58.337 58.4548 57.4064 58.0929 56.4344C57.469 54.7627 56.9934 52.9359 57.1209 51.1435C57.1485 50.7609 57.176 50.3783 57.2725 50.0061C57.3449 49.782 57.4277 49.558 57.5207 49.3408C57.6276 48.9892 57.731 48.6411 57.8344 48.2895C58.1239 47.5967 58.6237 47.0349 59.1097 46.4765C59.5957 45.9181 60.2299 45.4562 60.9055 45.0909C61.2915 44.8806 61.7465 44.6083 62.1739 44.4911C62.5255 44.3946 62.9047 44.3498 63.2631 44.274C64.9073 43.9259 66.5548 44.2774 68.0025 45.0978C68.9883 45.6493 69.8224 46.8798 70.3636 48.1689L70.3291 48.0896V48.0827Z" fill="#FF7B79"/>
<path d="M70.9392 49.1236C71.3976 48.7893 71.8836 48.486 72.3972 48.2447C72.4523 48.2171 72.5075 48.193 72.5661 48.1689C72.8039 48.0586 72.3007 48.2688 72.5454 48.1792C72.6695 48.1344 72.7901 48.0896 72.9142 48.0482C73.1624 47.969 73.414 47.9104 73.6691 47.8759L73.3485 47.9207C73.8207 47.8621 74.2998 47.8966 74.7686 47.9586L74.448 47.9138C74.8168 47.9655 75.1857 48.0379 75.5441 48.1447C75.7234 48.1965 75.8991 48.2585 76.0715 48.324C76.1163 48.3412 76.1577 48.3584 76.199 48.3757C76.0163 48.2999 75.9853 48.2861 76.1025 48.3378C76.1852 48.3791 76.2714 48.417 76.3541 48.4584C76.5196 48.5411 76.685 48.6342 76.8401 48.7307C76.9952 48.8272 77.1435 48.9685 77.3055 49.0478C77.1538 48.9306 77.1297 48.9099 77.2296 48.9892C77.2675 49.0202 77.302 49.0513 77.3399 49.0788C77.4157 49.1409 77.4881 49.2098 77.5605 49.2753C77.7191 49.4166 77.8845 49.5511 78.0431 49.6924C78.1224 49.7613 78.2016 49.8337 78.274 49.9061C78.3292 49.9612 78.3981 50.075 78.4636 50.1129C78.3464 49.9578 78.3292 49.9337 78.405 50.0371C78.4326 50.075 78.4601 50.1163 78.4877 50.1542C78.5429 50.2335 78.5946 50.3162 78.6428 50.3955C78.8462 50.7264 79.053 51.0608 79.2288 51.4089C79.2736 51.4985 79.3149 51.5916 79.3598 51.6812C79.4115 51.7984 79.4011 51.7743 79.3287 51.6019C79.3494 51.6502 79.3667 51.695 79.3839 51.7432C79.4563 51.9328 79.5183 52.1224 79.57 52.3189C79.6803 52.7325 79.7492 53.1633 79.8113 53.5873L79.7665 53.2667C79.8251 53.7045 79.8492 54.1422 79.7941 54.5834L79.8389 54.2629C79.7148 54.7489 79.5907 55.2314 79.5218 55.7278L79.5666 55.4072C79.5252 55.6898 79.4804 55.9759 79.3839 56.2448C79.3563 56.3206 79.2426 56.5481 79.3942 56.2413C79.3735 56.2861 79.3529 56.3344 79.3322 56.3792C79.2598 56.5412 79.1805 56.6998 79.1012 56.8583C78.8565 57.3374 78.567 57.7855 78.2499 58.2164C78.1292 58.3784 78.2878 58.1612 78.305 58.1474C78.2533 58.1922 78.212 58.2681 78.1672 58.3198C78.0913 58.4163 78.0121 58.5093 77.9293 58.6024C77.7363 58.8265 77.5364 59.0402 77.3296 59.2504C76.9504 59.633 76.554 59.9949 76.1404 60.3431C76.0474 60.4223 75.9543 60.4982 75.8612 60.574C75.8371 60.5947 75.6889 60.6877 75.6854 60.7153L75.8095 60.6188C75.7682 60.6498 75.7268 60.6808 75.6854 60.7119C75.458 60.8808 75.2236 61.0359 74.9823 61.1875C74.4928 61.4943 73.9827 61.7666 73.4588 62.0113C72.9349 62.256 72.3696 62.5249 71.8216 62.7765C71.7009 62.8317 71.5768 62.8868 71.4527 62.942C71.3804 62.973 71.3045 63.0143 71.2321 63.0385C71.2597 63.0316 71.4941 62.9316 71.2976 63.0109C70.9978 63.1315 70.6944 63.2453 70.3877 63.3521C69.1055 63.8002 67.7888 64.1483 66.4445 64.3345L66.7651 64.2897C66.4169 64.3379 66.0654 64.3724 65.7138 64.3965L66.0343 64.4413C65.9689 64.4241 65.8379 64.3552 65.7758 64.3724C65.8344 64.3586 66.0826 64.5482 65.9309 64.4069C65.8861 64.3655 65.8275 64.3345 65.7758 64.2966C65.6621 64.2173 65.5518 64.1346 65.4415 64.0484C65.2347 63.8933 65.6104 64.1828 65.476 64.076C65.4277 64.038 65.376 63.9967 65.3277 63.9588C65.2381 63.8864 65.152 63.814 65.0623 63.7416C64.859 63.5727 64.6591 63.3969 64.4626 63.2177C63.7353 62.5525 63.0597 61.8286 62.4255 61.0738C62.3428 60.9738 62.2601 60.8739 62.1773 60.7739C62.1429 60.7325 62.1119 60.6912 62.0774 60.6464C61.9016 60.4258 62.2359 60.8635 62.0705 60.636C61.905 60.4085 61.7499 60.2052 61.5948 59.9846C61.2846 59.5434 60.9847 59.0988 60.678 58.6576C60.3712 58.2164 60.1058 57.8062 59.8542 57.3581C59.7301 57.141 59.6129 56.9169 59.5061 56.6929C59.4475 56.5757 59.3958 56.455 59.3406 56.3344C59.2613 56.1655 59.3716 56.4068 59.3716 56.4068C59.3647 56.4068 59.2958 56.2172 59.2855 56.1896C58.8581 55.0729 58.5203 53.9147 58.3548 52.729L58.3996 53.0496C58.2893 52.1982 58.2824 51.3434 58.3893 50.492L58.3445 50.8126C58.4065 50.3748 58.572 49.9991 58.7098 49.5855C58.7822 49.3718 58.8408 49.1547 58.9029 48.9375C58.9132 48.903 58.9615 48.6928 58.9752 48.6928C58.896 48.8548 58.8856 48.8789 58.9373 48.7617C58.958 48.7169 58.9787 48.6721 59.0028 48.6273C59.0924 48.4515 59.1993 48.2826 59.3096 48.1206C59.3613 48.0448 59.4475 47.9655 59.4854 47.8793C59.3716 48.0241 59.3544 48.0482 59.4337 47.9483C59.4647 47.9104 59.4957 47.8724 59.5267 47.8345C59.7611 47.5484 60.0024 47.2624 60.2678 47.0073C60.4022 46.8763 60.5918 46.766 60.709 46.6213C60.5608 46.735 60.5367 46.7522 60.6401 46.6764C60.6711 46.6557 60.6987 46.635 60.7297 46.6109C60.7986 46.5627 60.871 46.5144 60.9434 46.4661C61.2708 46.2524 61.619 46.0663 61.9671 45.8802C62.0567 45.8319 62.1463 45.7871 62.2394 45.7423C62.2739 45.7251 62.3083 45.7113 62.3428 45.6941C62.4255 45.6561 62.3876 45.6734 62.2256 45.7423C62.2945 45.7458 62.4255 45.6699 62.4979 45.6492C62.5979 45.6217 62.7013 45.5975 62.8047 45.5769C63.2148 45.4941 63.6285 45.4114 64.0421 45.3528L63.7215 45.3976C64.273 45.3287 64.8245 45.3287 65.376 45.3976L65.0554 45.3528C65.6311 45.4321 66.1826 45.5838 66.7237 45.7906C66.9271 45.8698 66.5445 45.7078 66.6789 45.7699C66.7478 45.8009 66.8168 45.8319 66.8857 45.863C67.0132 45.9215 67.1373 45.987 67.2614 46.0525C67.3786 46.1146 67.4923 46.1801 67.6026 46.2524C67.644 46.28 67.6854 46.311 67.7302 46.3421C67.8301 46.411 67.4855 46.1421 67.6819 46.311C67.8681 46.4661 68.0369 46.6385 68.1955 46.8212C68.2403 46.8729 68.2851 46.9246 68.3265 46.9797C68.4506 47.1314 68.323 47.0073 68.2886 46.928C68.3403 47.0487 68.4609 47.1659 68.5333 47.2761C68.8435 47.7449 69.102 48.2482 69.3226 48.7652L71.4045 47.5484L71.37 47.4692C71.2597 47.2107 70.9047 46.9866 70.6496 46.9142C70.3601 46.835 69.9775 46.8694 69.719 47.0349C69.4605 47.2003 69.233 47.4485 69.1641 47.7553C69.0882 48.093 69.1503 48.3688 69.2847 48.6859L69.3192 48.7652C69.4295 49.0237 69.7845 49.2477 70.0395 49.3201C70.3291 49.3994 70.7117 49.3649 70.9702 49.1995C71.2287 49.034 71.4562 48.7859 71.5251 48.4791C71.601 48.1413 71.5389 47.8656 71.4045 47.5484C71.0253 46.6557 70.5221 45.8216 69.8775 45.0909C69.1985 44.3222 68.3368 43.8569 67.3993 43.4777C66.4617 43.0986 65.4691 42.9159 64.4764 42.9263C63.9214 42.9332 63.3699 43.0193 62.8288 43.1262C62.6082 43.171 62.3842 43.202 62.1636 43.2468C61.8327 43.3157 61.5362 43.426 61.2295 43.5605C60.3436 43.95 59.4819 44.4773 58.7546 45.1184C58.4134 45.4183 58.117 45.7699 57.824 46.1215C57.4931 46.5213 57.1622 46.9384 56.9209 47.4037C56.6555 47.9207 56.5521 48.4756 56.3591 49.0133C56.2798 49.2339 56.1764 49.4476 56.1109 49.6786C56.0144 50.0164 55.9834 50.3783 55.9489 50.7264C55.849 51.7708 55.9214 52.8014 56.104 53.8355C56.4556 55.8174 57.2036 57.7683 58.31 59.4469C59.4164 61.1255 60.5849 62.7489 61.9912 64.1794C62.6944 64.8929 63.4492 65.5443 64.2523 66.1475C64.597 66.4095 64.9348 66.6507 65.3622 66.7541C65.9034 66.8817 66.541 66.73 67.0822 66.6542C69.133 66.3715 71.1184 65.7235 73.0004 64.8722C73.8724 64.4758 74.7583 64.0863 75.5993 63.621C76.4886 63.1281 77.2986 62.5214 78.0638 61.8562C79.4735 60.6291 80.7247 59.178 81.4727 57.4546C81.5967 57.172 81.7243 56.8859 81.7932 56.586C81.8621 56.2861 81.9001 55.9587 81.9414 55.645L81.8966 55.9656C82.069 55.2452 82.2689 54.5455 82.2275 53.7941C82.1896 53.1047 82.0724 52.3809 81.9001 51.7088C81.7277 51.0366 81.452 50.43 81.1211 49.8509C80.8143 49.3132 80.4938 48.7583 80.0733 48.2999C79.8802 48.0896 79.6527 47.9069 79.4356 47.7208C79.1495 47.4761 78.8703 47.2313 78.5704 47.0004C78.1396 46.673 77.6777 46.4041 77.1814 46.1904C76.6126 45.9457 76.037 45.7458 75.4269 45.6355C74.8168 45.5252 74.1999 45.439 73.5932 45.4769C72.18 45.5631 70.8427 46.2145 69.7121 47.0383C69.4501 47.2279 69.2468 47.4347 69.1572 47.7587C69.0779 48.0482 69.1124 48.4308 69.2778 48.6893C69.6018 49.1926 70.3842 49.52 70.9288 49.1236H70.9392Z" fill="black"/>
<path d="M19.5125 36.4221C20.0192 35.1502 20.8085 33.9369 21.7599 33.3682C23.1834 32.5134 24.8206 32.117 26.4751 32.4203C26.8336 32.4858 27.2162 32.5237 27.5677 32.6099C27.9952 32.7133 28.457 32.9753 28.85 33.1752C29.5324 33.5233 30.1632 33.9473 30.6802 34.5125C31.1973 35.0778 31.697 35.6086 32.0038 36.2911C32.1141 36.6392 32.2279 36.9874 32.345 37.3355C32.445 37.5492 32.5312 37.7698 32.6104 37.9938C32.7173 38.3626 32.7552 38.7452 32.7931 39.1244C32.9689 40.9133 32.5381 42.7539 31.959 44.4394C31.6212 45.4217 31.1042 46.3765 30.5355 47.2417C29.9667 48.1068 29.4152 49.0168 28.7672 49.844C27.6367 51.2951 26.3441 52.6532 24.8517 53.7286L24.831 53.7355L24.5862 53.8079C22.7456 53.732 20.9223 53.3115 19.1782 52.7221C18.1821 52.3878 17.2342 51.9362 16.2725 51.5226C15.3108 51.109 14.363 50.6023 13.5392 49.9681C12.1294 48.8789 10.7541 47.5794 9.91657 45.9905C9.73733 45.6527 9.5581 45.3149 9.44435 44.9461C9.38576 44.7151 9.34095 44.4842 9.30303 44.2533C9.20997 43.8982 9.11346 43.5467 9.0135 43.1951C8.89286 42.454 9.02039 41.7129 9.13759 40.9788C9.25478 40.2446 9.55121 39.5208 9.93036 38.8521C10.1475 38.4695 10.3888 37.9973 10.6887 37.6733C10.9368 37.4079 11.2333 37.1666 11.4987 36.915C12.7119 35.7499 14.294 35.1812 15.9554 35.1088C17.086 35.0571 18.444 35.6603 19.5815 36.4669L19.5125 36.4186V36.4221Z" fill="#FF7B79"/>
<path d="M20.6777 36.7427C20.7052 36.6703 20.8259 36.4462 20.6708 36.7599C20.7018 36.6944 20.7294 36.6255 20.7604 36.56C20.8155 36.4359 20.8776 36.3153 20.9362 36.1981C21.0637 35.9499 21.2016 35.7086 21.3532 35.4777C21.4222 35.3708 21.498 35.264 21.5738 35.1606C21.691 35.002 21.598 35.1606 21.5325 35.2123C21.5807 35.1709 21.6187 35.1054 21.6635 35.0537C21.8255 34.8641 22.0013 34.6849 22.1943 34.5264C22.3873 34.3678 22.1288 34.5884 22.1219 34.5815C22.1219 34.5815 22.2632 34.4815 22.2701 34.4781C22.377 34.4092 22.4907 34.3437 22.6044 34.2816C22.7251 34.2127 22.8492 34.1472 22.9767 34.0886C23.0456 34.0541 23.1146 34.0231 23.1835 33.9921C23.218 33.9749 23.2524 33.9611 23.2869 33.9473C23.3696 33.9094 23.3317 33.9266 23.1732 33.9955C23.2249 34.0024 23.3386 33.9301 23.3834 33.9128C23.442 33.8921 23.5006 33.8715 23.5592 33.8508C23.6902 33.806 23.8212 33.7646 23.9556 33.7301C24.2451 33.6509 24.5381 33.5923 24.8345 33.5509L24.514 33.5957C25.0655 33.5233 25.6204 33.5233 26.1719 33.5923L25.8514 33.5475C26.265 33.6061 26.6855 33.6646 27.0957 33.7508C27.1922 33.7715 27.2887 33.7922 27.3852 33.8232C27.43 33.837 27.4783 33.8542 27.5231 33.8715C27.6437 33.9163 27.6161 33.9059 27.4438 33.8335C27.492 33.8784 27.5954 33.9025 27.6506 33.9301C27.7402 33.9749 27.8333 34.0197 27.9229 34.0645C28.271 34.2437 28.6192 34.4195 28.95 34.6332C29.0121 34.6746 29.0741 34.7125 29.1327 34.7538C29.1741 34.7814 29.212 34.809 29.2534 34.84C29.3568 34.9158 29.3326 34.8986 29.1844 34.7849C29.312 34.9262 29.4912 35.0365 29.6256 35.1709C29.891 35.4294 30.1392 35.7086 30.377 35.9913C30.4322 36.0533 30.4977 36.1774 30.5666 36.2222C30.4529 36.074 30.4356 36.0533 30.5115 36.1567C30.539 36.1981 30.5701 36.236 30.5976 36.2773C30.7114 36.4428 30.8079 36.6117 30.9009 36.7875C30.9561 36.9012 30.9458 36.8771 30.8699 36.7151C30.8872 36.7702 30.9044 36.8219 30.9216 36.8771C30.9492 36.9564 30.9733 37.0391 31.0009 37.1184C31.094 37.4079 31.187 37.6905 31.3077 37.9697C31.3284 38.018 31.3525 38.0662 31.3732 38.1145C31.3042 37.9456 31.2939 37.9249 31.3421 38.0456C31.3801 38.1421 31.4214 38.242 31.4524 38.342C31.5179 38.5488 31.5524 38.7694 31.58 38.9831L31.5352 38.6625C31.6489 39.5691 31.6489 40.4687 31.5283 41.3752L31.5731 41.0546C31.4283 42.0852 31.1595 43.0917 30.8251 44.0741C30.7838 44.1981 30.7389 44.3188 30.6941 44.4429C30.67 44.5049 30.6321 44.7048 30.5769 44.7358L30.6355 44.5911C30.6183 44.629 30.6045 44.6635 30.5873 44.6979C30.5597 44.7565 30.5321 44.8186 30.5046 44.8772C30.4494 44.9978 30.3908 45.115 30.3288 45.2322C30.0909 45.701 29.8221 46.1525 29.536 46.5937C29.2499 47.0349 28.9811 47.4485 28.7019 47.8759C28.5674 48.0793 28.433 48.2792 28.2986 48.4791C28.2228 48.5894 28.1435 48.6997 28.0677 48.81C28.0366 48.8548 28.0056 48.8962 27.9711 48.941C27.9505 48.9685 27.7574 49.2408 27.8712 49.0754C27.9849 48.9099 27.8402 49.1168 27.8229 49.1374C27.7919 49.1754 27.7609 49.2167 27.7299 49.2546C27.6506 49.3546 27.5713 49.4511 27.492 49.5476C27.33 49.7441 27.168 49.9371 27.0026 50.1267C26.6855 50.4886 26.358 50.8402 26.0168 51.178C25.6239 51.5709 25.2102 51.9466 24.7828 52.2982C24.707 52.3602 24.5312 52.4498 24.4864 52.536L24.6105 52.4395C24.5795 52.4636 24.5519 52.4843 24.5209 52.5084C24.5002 52.5257 24.3244 52.6739 24.3072 52.667C24.321 52.6739 24.645 52.5601 24.4485 52.6153C24.3864 52.6325 24.3279 52.6532 24.2658 52.6704L24.5864 52.6256C24.1004 52.6049 23.6144 52.5601 23.1318 52.4946L23.4524 52.5394C22.1874 52.3671 20.9465 52.0569 19.7332 51.6605C19.4472 51.5674 19.1611 51.4675 18.8784 51.3572C18.7509 51.3089 18.6199 51.2572 18.4924 51.2055C18.4166 51.1745 18.3373 51.1469 18.2614 51.109C18.5717 51.2676 18.2339 51.0987 18.1684 51.0677C17.5997 50.8229 17.024 50.5782 16.4622 50.3197C15.9004 50.0612 15.4006 49.7923 14.9008 49.4787C14.7698 49.3959 14.6423 49.3098 14.5182 49.2236C14.4458 49.1719 14.2942 49.0202 14.208 48.9996L14.3355 49.0995C14.2976 49.0719 14.2597 49.0409 14.2218 49.0099C14.1666 48.9651 14.108 48.9203 14.0529 48.8755C13.9391 48.7859 13.8288 48.6928 13.7185 48.6032C13.2808 48.2378 12.8603 47.8552 12.4639 47.445C12.2709 47.2451 12.0847 47.0383 11.9021 46.8281C11.8262 46.7384 11.7607 46.6213 11.6746 46.5489L11.7745 46.6799C11.7435 46.6419 11.7159 46.604 11.6884 46.5661C11.6298 46.4903 11.5746 46.411 11.5195 46.3317C11.3402 46.0767 11.1748 45.8113 11.0231 45.539C10.9507 45.408 10.8818 45.2735 10.8129 45.1391C10.7784 45.0702 10.7439 45.0012 10.7095 44.9323C10.6888 44.8875 10.6646 44.8392 10.644 44.7944C10.7129 44.9668 10.7267 44.9909 10.6784 44.8703C10.5716 44.5566 10.5268 44.2395 10.4509 43.9189C10.3648 43.5501 10.2166 43.1917 10.158 42.8194L10.2028 43.14C10.1407 42.6436 10.1752 42.1542 10.2407 41.6613L10.1959 41.9818C10.2407 41.6509 10.2889 41.3166 10.3613 40.9926C10.4337 40.6686 10.5578 40.3963 10.6509 40.093C10.6509 40.0895 10.5475 40.3274 10.6026 40.2067C10.6198 40.1722 10.6336 40.1378 10.6509 40.1033C10.6819 40.0344 10.7164 39.9654 10.7508 39.8965C10.8232 39.7483 10.9025 39.607 10.9852 39.4622C11.13 39.2037 11.2713 38.9452 11.4333 38.697C11.4712 38.6384 11.5195 38.5833 11.5539 38.5247C11.5539 38.5178 11.385 38.7211 11.4712 38.635C11.4953 38.6108 11.516 38.5833 11.5367 38.5591C11.6539 38.4316 11.778 38.3179 11.9055 38.2007C12.1468 37.9801 12.3846 37.7491 12.6328 37.5389C12.6673 37.5079 12.8603 37.3596 12.7017 37.4803C12.5432 37.6009 12.7362 37.4562 12.7741 37.4286C12.8947 37.3424 13.0223 37.2597 13.1498 37.1804C13.3945 37.0287 13.6496 36.9047 13.9081 36.7806C14.0287 36.722 13.7633 36.8426 13.7771 36.8357C13.815 36.8116 13.8633 36.8013 13.9047 36.784C13.9805 36.7564 14.0529 36.7289 14.1287 36.7013C14.2804 36.6496 14.432 36.6013 14.5871 36.56C14.9111 36.4738 15.2386 36.4083 15.5695 36.3635L15.2489 36.4083C15.6694 36.3566 16.0934 36.3221 16.5174 36.3738L16.1968 36.329C16.445 36.3635 16.6862 36.4152 16.9275 36.4841C17.0654 36.5255 17.1998 36.5703 17.3343 36.622C17.3928 36.6427 17.448 36.6668 17.5031 36.6875C17.61 36.7289 17.2343 36.5703 17.4859 36.6841C18.0064 36.9219 18.4958 37.2149 18.9612 37.5423L20.1779 35.4604L20.1089 35.4122C19.5919 35.0503 18.7474 35.3019 18.4579 35.8465C18.1305 36.4635 18.3373 37.1115 18.8922 37.4975L18.9612 37.5458C19.4782 37.9077 20.3226 37.6561 20.6122 37.1115C20.9396 36.4945 20.7328 35.8499 20.1779 35.4604C19.0714 34.6849 17.803 34.0921 16.4484 33.9542C15.8314 33.8921 15.1903 33.9852 14.5837 34.0921C13.977 34.1989 13.3635 34.4057 12.781 34.6573C12.2709 34.8779 11.7987 35.1537 11.3575 35.4915C10.8232 35.8982 10.2821 36.3566 9.82707 36.853C9.37209 37.3493 9.07222 37.9077 8.7689 38.4764C8.44834 39.0762 8.1726 39.7242 8.02438 40.3894C7.86238 41.1167 7.74174 41.9026 7.75208 42.6505C7.75898 43.0366 7.80723 43.4192 7.91064 43.7914C8.00715 44.1395 8.10711 44.4842 8.1726 44.8392C8.41732 46.1525 9.22732 47.352 10.0546 48.3722C10.7853 49.2719 11.6539 50.0543 12.5673 50.7678C13.1119 51.1952 13.6703 51.5881 14.2769 51.9259C14.8215 52.2292 15.3902 52.4809 15.9624 52.7325C17.2688 53.3046 18.5682 53.8665 19.94 54.2594C21.3119 54.6524 22.6355 54.904 24.0142 55.0143C24.3382 55.0384 24.6656 55.0763 24.9862 54.9798C25.2482 54.9005 25.4791 54.7902 25.6997 54.6248C26.2477 54.2146 26.7751 53.7838 27.2749 53.315C28.2228 52.4326 29.0672 51.4503 29.8531 50.4231C30.2529 49.8992 30.6183 49.3511 30.9768 48.7996C31.3352 48.2482 31.6972 47.7139 32.0246 47.1521C32.7036 45.987 33.1896 44.729 33.5343 43.4261C33.879 42.1232 34.103 40.7444 34.01 39.3933C33.9583 38.6625 33.8756 37.9422 33.5964 37.2631C33.6343 37.3527 33.4516 36.8599 33.4137 36.8288L33.4757 36.9667C33.4585 36.9116 33.4413 36.8599 33.424 36.8047C33.3723 36.6427 33.3172 36.4841 33.2655 36.3221C33.1448 35.9464 33.0035 35.588 32.7933 35.2536C32.4313 34.6746 31.966 34.1575 31.5007 33.6612C31.0354 33.1649 30.4839 32.7512 29.9048 32.41C29.3257 32.0688 28.7122 31.7482 28.0849 31.538C27.816 31.4483 27.5368 31.407 27.2577 31.3622C26.8406 31.3001 26.427 31.2243 26.0099 31.1795C24.6381 31.0313 23.2731 31.3518 22.0219 31.9033C21.436 32.1618 20.8879 32.4858 20.4054 32.9098C19.9228 33.3338 19.554 33.8266 19.2231 34.3471C18.8646 34.909 18.5923 35.5156 18.3407 36.1326C18.2304 36.4049 18.32 36.8219 18.4614 37.0632C18.6027 37.3045 18.8957 37.5527 19.1817 37.6182C19.492 37.6871 19.8366 37.6733 20.1124 37.4975C20.3881 37.3217 20.5432 37.0839 20.6673 36.7771L20.6777 36.7427Z" fill="black"/>
<path d="M60.016 17.2543C60.6916 16.403 61.5671 15.6619 62.4219 15.4482C63.7006 15.1242 65.0346 15.1966 66.2203 15.8032C66.4788 15.9342 66.758 16.0479 67.0096 16.1962C67.3129 16.3719 67.6025 16.6787 67.8541 16.9165C68.2953 17.3371 68.6744 17.8024 68.9398 18.3504C69.2052 18.8985 69.4637 19.4155 69.5396 20.0049C69.543 20.2944 69.5499 20.5874 69.5602 20.8769C69.5844 21.0631 69.6016 21.2492 69.6119 21.4353C69.6119 21.7421 69.5499 22.0385 69.4913 22.3384C69.2156 23.7378 68.4711 25.0407 67.6438 26.1885C67.1647 26.8572 66.5512 27.4673 65.9204 27.9946C65.2896 28.522 64.6623 29.0873 63.9833 29.5698C62.7907 30.4143 61.5016 31.1519 60.1194 31.6276H60.1022H59.8988C58.5166 31.1485 57.2275 30.4143 56.0349 29.5698C55.3559 29.0873 54.7355 28.5289 54.0978 27.9946C53.4601 27.4604 52.8569 26.8606 52.3744 26.1885C51.5506 25.0373 50.8026 23.7378 50.5269 22.3384C50.4683 22.0385 50.4097 21.7421 50.4062 21.4353C50.4166 21.2492 50.4304 21.0596 50.458 20.8769C50.4683 20.5874 50.4752 20.2944 50.4786 20.0049C50.5545 19.4155 50.8233 18.8778 51.0784 18.3504C51.3334 17.8231 51.7229 17.3336 52.1641 16.9165C52.4157 16.6753 52.7087 16.3719 53.0086 16.1962C53.2568 16.0514 53.5394 15.9342 53.7979 15.8032C54.9836 15.1966 56.321 15.1207 57.5963 15.4482C58.4684 15.6653 59.3611 16.434 60.0436 17.3095L60.0022 17.2578L60.016 17.2543Z" fill="#FF7B79"/>
<path d="M60.8679 18.1057C61.0747 17.8506 61.2918 17.6024 61.5297 17.375C61.6365 17.2716 61.7468 17.1716 61.8605 17.0785C61.8985 17.0475 61.9364 17.0165 61.9743 16.9855L61.8433 17.0854C61.9088 17.0682 61.9915 16.9786 62.0467 16.9407C62.1708 16.8579 62.2983 16.7821 62.4293 16.7132C62.4879 16.6821 62.5465 16.6477 62.6085 16.627L62.4396 16.6994C62.4775 16.6856 62.5189 16.6684 62.5603 16.658C62.8567 16.5581 63.1703 16.5064 63.4806 16.465L63.16 16.5098C63.6563 16.4478 64.1527 16.4478 64.6456 16.5133L64.325 16.4684C64.6215 16.5133 64.911 16.5787 65.1971 16.6718C65.2695 16.6959 65.3384 16.7235 65.4108 16.7476C65.6176 16.82 65.2315 16.6615 65.3694 16.727C65.4935 16.7856 65.6176 16.8476 65.7417 16.9062C66.0071 17.0337 66.2725 17.1509 66.5207 17.3129C66.7102 17.437 66.3311 17.1371 66.5103 17.3095C66.5551 17.3543 66.6068 17.3922 66.6516 17.437C66.7619 17.537 66.8653 17.6438 66.9756 17.7472C67.1755 17.9402 67.341 18.1712 67.5444 18.3573L67.4444 18.2263C67.472 18.2642 67.503 18.3022 67.5306 18.3435C67.5719 18.4021 67.6133 18.4607 67.6512 18.5227C67.7236 18.633 67.7891 18.7502 67.8511 18.8674C67.9132 18.9846 67.9752 19.1156 68.0338 19.2431C68.0683 19.3121 68.0993 19.381 68.1303 19.4534C68.1682 19.5361 68.2165 19.7498 68.1303 19.4465C68.213 19.7464 68.3337 20.0187 68.3785 20.3323L68.3337 20.0118C68.3406 20.3151 68.3337 20.6219 68.3613 20.9217C68.3923 21.2388 68.4164 21.5353 68.375 21.8558L68.4199 21.5353C68.3544 21.9834 68.2544 22.428 68.1131 22.8589C68.0786 22.9657 68.0407 23.0726 67.9993 23.1794C67.9649 23.2656 67.827 23.5551 67.9787 23.2415C67.8787 23.4448 67.7925 23.6551 67.6857 23.8584C67.4823 24.2514 67.2548 24.6305 67.0135 25.0028C66.8964 25.182 66.7757 25.3544 66.6516 25.5301C66.5999 25.6025 66.3931 25.8472 66.6103 25.5956C66.5241 25.6956 66.4483 25.799 66.3621 25.899C65.7589 26.6021 65.042 27.1846 64.3354 27.7809C64.1699 27.9188 64.0079 28.0567 63.839 28.1911C63.7563 28.2566 63.677 28.3359 63.5874 28.391C63.8218 28.2497 63.6977 28.3048 63.6391 28.3496C63.5736 28.3979 63.5116 28.4462 63.4461 28.4944C63.0807 28.7564 62.705 29.008 62.3224 29.2424C61.895 29.5043 61.4573 29.7525 61.0092 29.9731C60.8954 30.0282 60.7782 30.0868 60.6611 30.1385C60.6128 30.1592 60.568 30.1799 60.5197 30.2006C60.4853 30.2178 60.4508 30.2316 60.4129 30.2454C60.3302 30.2833 60.3646 30.2661 60.5232 30.2006C60.4267 30.2109 60.2957 30.2937 60.2026 30.3281C60.0716 30.3798 59.9372 30.4281 59.8062 30.4729L60.1268 30.4281H59.9062C60.013 30.4419 60.1199 30.4557 60.2268 30.4729C60.0199 30.4005 59.8166 30.3247 59.6167 30.2419C59.5684 30.2213 59.4133 30.1834 59.5822 30.2282C59.7752 30.2764 59.5512 30.2144 59.5133 30.1971C59.4064 30.1489 59.303 30.1006 59.1996 30.0524C58.7929 29.8594 58.3965 29.6456 58.0104 29.4182C57.6244 29.1907 57.2453 28.9459 56.873 28.6909C56.6903 28.5633 56.518 28.4117 56.3284 28.2979C56.3525 28.3117 56.5455 28.4703 56.3801 28.3393C56.3387 28.3048 56.2974 28.2738 56.2526 28.2393C56.1492 28.1566 56.0458 28.0705 55.9423 27.9843C55.2323 27.3949 54.505 26.8089 53.8812 26.1299C53.7398 25.9748 53.6054 25.8162 53.471 25.6542C53.3366 25.4922 53.5054 25.6921 53.5158 25.7128C53.4951 25.6715 53.4537 25.6267 53.4227 25.5887C53.3503 25.4888 53.278 25.3854 53.209 25.282C52.9609 24.9166 52.723 24.5444 52.5093 24.1583C52.3921 23.948 52.2818 23.7343 52.1784 23.5172C52.1577 23.4724 52.1371 23.4241 52.1164 23.3793C52.0957 23.3345 52.075 23.2863 52.0543 23.2415L52.1164 23.3897C52.0785 23.269 52.0233 23.1553 51.982 23.0381C51.8062 22.5521 51.689 22.0488 51.6131 21.5353L51.658 21.8558C51.6166 21.5353 51.6407 21.2423 51.6717 20.9217C51.6993 20.6219 51.6924 20.3117 51.6993 20.0118L51.6545 20.3323C51.6752 20.1807 51.7062 20.029 51.751 19.8808C51.7683 19.8256 51.9234 19.4775 51.9027 19.4465L51.8406 19.5913C51.8613 19.543 51.882 19.4982 51.9027 19.4499C51.9303 19.3913 51.9578 19.3328 51.9854 19.2742C52.044 19.1466 52.106 19.0225 52.1681 18.8985C52.2301 18.7744 52.306 18.6434 52.3852 18.5227C52.4231 18.4607 52.4645 18.4021 52.5059 18.3435C52.5266 18.3125 52.5472 18.2849 52.5714 18.2573C52.6265 18.185 52.5989 18.2194 52.4921 18.3607C52.5851 18.3125 52.6782 18.1402 52.754 18.0609C52.854 17.954 52.9574 17.8541 53.0608 17.7507C53.1573 17.6576 53.2573 17.5611 53.3538 17.468C53.4089 17.4163 53.4675 17.3646 53.5227 17.3129C53.7157 17.1371 53.2986 17.4508 53.5123 17.3164C53.7536 17.1681 54.0018 17.0475 54.2569 16.9269C54.3809 16.8683 54.505 16.8062 54.6291 16.7476C54.8566 16.6373 54.4016 16.8304 54.6222 16.7511C54.6946 16.727 54.7635 16.6994 54.8359 16.6753C55.1186 16.5822 55.4115 16.5167 55.708 16.4719L55.3874 16.5167C55.8838 16.4512 56.3801 16.4512 56.873 16.5133L56.5524 16.4684C56.8627 16.5098 57.1763 16.565 57.4727 16.6615C57.5141 16.6753 57.552 16.689 57.5934 16.7028L57.4245 16.6304C57.4969 16.6511 57.5658 16.6959 57.6313 16.7304C57.7623 16.7993 57.8898 16.8752 58.0139 16.9613C58.0725 16.9993 58.1276 17.0475 58.1862 17.0854C57.9036 16.9131 58.1001 17.0165 58.169 17.0751C58.3034 17.1854 58.431 17.3026 58.555 17.4232C58.7894 17.6542 59.0066 17.8989 59.2099 18.1574L60.9161 16.4512L60.8748 16.3995C60.6955 16.172 60.2957 16.0445 60.0234 16.0445C59.727 16.0445 59.3754 16.1755 59.172 16.3995C58.9687 16.6236 58.8032 16.9303 58.817 17.2509C58.8308 17.5921 58.9618 17.8403 59.172 18.1022L59.2134 18.1539C59.3926 18.3814 59.7925 18.509 60.0648 18.509C60.3612 18.509 60.7128 18.378 60.9161 18.1539C61.1195 17.9299 61.2849 17.6231 61.2711 17.3026C61.2574 16.9613 61.1264 16.7132 60.9161 16.4512C60.2991 15.6688 59.5098 14.9208 58.5826 14.521C57.4796 14.0453 56.2457 13.966 55.0669 14.1418C54.5119 14.2246 53.9983 14.4003 53.4848 14.6278C53.0677 14.8105 52.6127 15.0035 52.2405 15.2724C51.3684 15.8997 50.5343 16.7752 50.0552 17.7403C49.807 18.2436 49.5519 18.7606 49.4072 19.3052C49.2521 19.898 49.3003 20.5116 49.2383 21.1148C49.1762 21.718 49.2934 22.3039 49.4244 22.8795C49.5519 23.4241 49.7519 23.9412 49.9759 24.4513C50.3688 25.3509 50.8928 26.2023 51.4822 26.9847C52.1577 27.8774 52.9574 28.5944 53.8088 29.3148C55.4667 30.7245 57.2521 31.9171 59.2996 32.6857C59.7856 32.8684 60.2164 32.8788 60.7024 32.6995C61.2436 32.4996 61.7778 32.2687 62.2948 32.0102C63.1807 31.5655 64.032 31.0382 64.8283 30.4453C65.7038 29.7904 66.5689 29.0838 67.3617 28.3324C68.1544 27.581 68.799 26.7193 69.3574 25.799C69.9158 24.8787 70.3604 23.9343 70.6017 22.9209C70.7396 22.3349 70.8568 21.7214 70.7982 21.1217C70.7396 20.5219 70.7844 19.9566 70.6499 19.3879C70.5155 18.8192 70.2536 18.2987 70.0019 17.7817C69.7503 17.2647 69.4298 16.8407 69.0644 16.434C68.699 16.0273 68.2923 15.6515 67.858 15.3241C67.4823 15.038 67.0204 14.8415 66.5896 14.652C65.559 14.1935 64.4422 13.9695 63.3151 14.0867C62.7257 14.1487 62.1466 14.2383 61.602 14.4693C61.0574 14.7002 60.6093 15.0035 60.1613 15.3792C59.7925 15.686 59.465 16.0341 59.1686 16.4064C58.9618 16.6649 58.8136 16.9131 58.8136 17.2578C58.8136 17.5542 58.9445 17.9058 59.1686 18.1091C59.6063 18.5124 60.4542 18.633 60.8748 18.1091L60.8679 18.1057Z" fill="black"/>
</svg>
