<svg width="90" height="90" viewBox="0 0 90 90" fill="none" xmlns="http://www.w3.org/2000/svg">
<path d="M16.6719 42.2917C17.0006 41.8036 17.292 41.2885 17.5869 40.7802C17.8885 40.265 18.18 39.7431 18.4647 39.2144C18.651 38.8654 18.8069 38.5163 18.8069 38.113C18.8069 37.6555 18.5833 37.2352 18.2613 36.9234C18.2071 36.8692 18.1461 36.8286 18.0817 36.7879C17.6987 36.5032 17.2751 36.3134 16.8447 36.0931C16.394 35.8661 15.9534 35.6221 15.5162 35.3713C15.3298 35.2628 15.14 35.1578 14.9604 35.0358C14.9265 35.012 14.8926 34.9883 14.8587 34.9646C14.8452 34.951 14.8282 34.9409 14.8147 34.9273C14.5571 34.7206 14.3063 34.5105 14.0488 34.3071C13.4082 33.8055 12.683 33.2192 11.812 33.4361C11.0562 33.6225 10.5276 34.2936 10.1209 34.9104C9.74131 35.4831 9.43968 36.1067 9.12789 36.7167C8.98894 36.9912 8.82627 37.2522 8.68732 37.5267C8.37553 38.1367 8.31792 38.8416 8.72121 39.4279C9.04317 39.8922 9.51085 40.1837 10.0057 40.4311C10.4801 40.6683 10.9546 40.9056 11.429 41.1428L14.3538 42.6001C14.7096 42.7797 15.0722 43 15.4823 43.0067C15.9974 43.0169 16.3973 42.6983 16.6685 42.2917H16.6719Z" fill="black"/>
<path d="M15.5064 44.0234C15.5064 44.0234 15.4793 44.0234 15.4691 44.0234C14.8794 44.0133 14.4185 43.776 14.0457 43.5829L12.9307 43.0237L9.55525 41.3393C9.02317 41.075 8.35554 40.6852 7.88446 40.0007C7.30155 39.1534 7.26427 38.0791 7.78279 37.059C7.85735 36.9099 7.93869 36.7641 8.02341 36.6184C8.09119 36.4964 8.16236 36.3744 8.22675 36.249L8.35215 35.9982C8.63005 35.4526 8.91472 34.8866 9.27396 34.3444C9.76198 33.6022 10.4669 32.7177 11.5683 32.4431C12.907 32.1144 13.9474 32.9312 14.6388 33.47L14.6761 33.5005C14.8387 33.6293 14.998 33.7581 15.1607 33.8903L15.5301 34.1851C15.6589 34.2698 15.7877 34.3444 15.9198 34.4189L16.0283 34.4833C16.4519 34.7307 16.8823 34.9646 17.3059 35.1781L17.5364 35.2933C17.9024 35.4763 18.282 35.6627 18.6548 35.9372C18.7734 36.0118 18.8785 36.0965 18.9733 36.188C19.5224 36.7235 19.824 37.4013 19.824 38.1028C19.824 38.7366 19.6037 39.2415 19.3597 39.6889C19.0784 40.2108 18.7768 40.7496 18.465 41.2851L18.3328 41.5122C18.0753 41.9527 17.8109 42.4103 17.5127 42.8542C17.0077 43.6066 16.2926 44.02 15.503 44.02L15.5064 44.0234ZM12.1817 34.4088C12.1377 34.4088 12.097 34.4122 12.0563 34.4223C11.6395 34.5274 11.2565 35.0357 10.9719 35.4695C10.677 35.9169 10.4296 36.4049 10.1653 36.9234L10.0365 37.1776C9.96193 37.3267 9.87721 37.4725 9.79587 37.6182C9.72809 37.7402 9.66031 37.8622 9.59592 37.9876C9.47391 38.2282 9.36885 38.5705 9.56203 38.8518C9.72809 39.0924 9.98904 39.2856 10.4635 39.5228L14.9811 41.7765C15.1743 41.8748 15.3911 41.9866 15.5064 41.99C15.6352 41.99 15.7741 41.8036 15.8283 41.7223C16.0893 41.3359 16.3265 40.9293 16.5773 40.4955L16.7095 40.265C17.0111 39.7499 17.2992 39.2347 17.5703 38.7298C17.7059 38.4756 17.7906 38.2824 17.7906 38.113C17.7906 37.9639 17.6991 37.791 17.55 37.6453C17.5228 37.6284 17.4991 37.6182 17.472 37.5978C17.2348 37.4182 16.9535 37.2793 16.6248 37.1166L16.3807 36.9946C15.9232 36.7641 15.4589 36.51 15.0014 36.2456L14.8997 36.188C14.7269 36.0897 14.5507 35.9881 14.388 35.8762C14.3575 35.8559 14.3236 35.8322 14.2931 35.8084C14.2762 35.7949 14.2321 35.761 14.2118 35.7474C14.2118 35.7474 14.1779 35.7203 14.1745 35.7203C14.0728 35.639 13.9711 35.5543 13.8661 35.4695C13.717 35.3475 13.5679 35.2255 13.4153 35.1069L13.3781 35.0764C12.8697 34.6799 12.4969 34.4054 12.175 34.4054L12.1817 34.4088Z" fill="white"/>
<path d="M75.9191 39.9566C76.1868 39.9193 76.4444 39.8719 76.6375 39.6584C76.8138 39.4652 76.9493 39.2077 76.9358 38.9399C76.8341 37.0793 76.8815 35.2154 77.0815 33.3616C77.1154 33.0532 76.9121 32.7414 76.6816 32.5618C76.4037 32.3483 76.1326 32.3347 75.7937 32.3788C76.0478 32.3449 75.7971 32.3788 75.7395 32.3822C75.6581 32.3923 75.5768 32.3991 75.4954 32.4059C75.3328 32.4194 75.1701 32.433 75.0074 32.4398C74.6821 32.4567 74.3567 32.4601 74.0314 32.4499C73.706 32.4398 73.3807 32.4194 73.0587 32.3855C72.9774 32.3754 72.8961 32.372 72.8147 32.3584C72.8215 32.3584 72.8249 32.3584 72.8283 32.3584C72.8012 32.355 72.7774 32.3483 72.7605 32.3483C72.591 32.3212 72.4182 32.294 72.2488 32.2568C71.3337 32.0636 70.4966 31.6298 69.6189 31.335C69.5409 30.7724 69.4528 30.2098 69.3511 29.6472C68.6971 26.065 66.9517 23.6961 64.1592 22.615C62.2206 21.8626 59.6585 21.4153 57.0185 21.1611C56.8016 20.7307 56.5542 20.3138 56.2898 19.9173C55.6866 19.0192 55.0054 18.1584 54.2869 17.3485C53.5651 16.5351 52.7517 15.8234 51.9655 15.0778C51.1555 14.3085 50.3557 13.5155 49.4339 12.8749C48.5968 12.2954 47.6106 11.8955 46.5837 11.8786C45.4416 11.8616 44.4283 12.353 43.5031 12.9766C43.0693 13.2681 42.6456 13.5731 42.2288 13.8849C41.9848 14.0679 41.7408 14.2509 41.5171 14.4542C41.4324 14.5322 41.3476 14.6135 41.2731 14.6982C41.229 14.7491 41.1884 14.7999 41.1443 14.8541C41.1002 14.9117 40.9477 15.0541 40.9071 15.1524C40.8698 15.1896 40.8325 15.2269 40.7952 15.2642C40.7105 15.3422 40.6156 15.4099 40.5343 15.4913C40.3513 15.6675 40.2022 15.8776 40.0259 16.0606C39.6091 16.4876 39.2126 16.9147 38.8601 17.4027C38.8262 17.4501 38.6839 17.7179 38.6296 17.7212C38.6568 17.684 38.6873 17.6501 38.7144 17.6128C38.6873 17.6501 38.6568 17.6874 38.6263 17.7212C38.5822 17.7721 38.5348 17.8229 38.4873 17.8704C38.2501 18.111 38.0332 18.3448 37.8434 18.6261C37.6909 18.8498 37.535 19.0735 37.3994 19.3073C37.2537 19.5547 37.1453 19.8191 36.9758 20.0563C36.986 20.0359 36.8775 20.1851 36.8606 20.2054C36.7318 20.3681 36.603 20.5307 36.481 20.6968C36.3183 20.9205 36.176 21.1543 36.037 21.3949C35.9116 21.6152 35.7964 21.8389 35.6812 22.0626C34.1629 22.3202 32.6311 22.6218 31.106 23.0013C26.8833 24.0519 24.6872 26.5497 24.1924 30.8639C23.3892 37.8758 23.013 44.4878 23.0639 50.7879C22.9249 50.6897 22.7588 50.6253 22.5928 50.6016C22.2607 50.5575 21.9895 50.6626 21.7388 50.8795C21.61 50.9913 21.4778 51.1031 21.3422 51.2116C21.3321 51.2184 21.3151 51.2319 21.2982 51.2489C21.2473 51.2895 21.1931 51.3302 21.1389 51.3675C20.8915 51.5505 20.6373 51.7233 20.3764 51.886C19.8443 52.2181 19.2851 52.5096 18.7124 52.7604C18.7022 52.7637 18.6988 52.7637 18.6819 52.7705C18.6107 52.7942 18.5429 52.8214 18.4717 52.8451C18.3192 52.8959 18.1667 52.9434 18.0108 52.984C17.7126 53.062 17.4076 53.1264 17.1026 53.1874C16.4858 53.3128 15.8622 53.4314 15.2759 53.6652C15.1844 53.6957 15.0997 53.7398 15.0183 53.7906C14.8794 53.872 14.7574 53.977 14.6659 54.1329C14.6218 54.2075 14.5913 54.2956 14.5676 54.3871C14.5371 54.4921 14.5201 54.6006 14.5303 54.7124C14.5337 54.7836 14.5439 54.8514 14.5642 54.9158C14.859 55.9732 15.303 56.9865 15.7436 57.9896C15.8452 58.2235 15.9469 58.4539 16.0486 58.6878C16.096 58.7962 16.1435 58.9081 16.1909 59.0165C16.1909 59.0199 16.1909 59.0199 16.1909 59.0233C16.1909 59.0233 16.1909 59.0233 16.1909 59.0267C16.2248 59.1114 16.2621 59.1961 16.296 59.2808C16.4214 59.5892 16.5366 59.8807 16.7738 60.1213C17.0077 60.3619 17.3262 60.5314 17.655 60.5856C18.2277 60.6805 18.8005 60.5551 19.363 60.4399C19.8138 60.345 20.2577 60.2298 20.6983 60.0942C21.6235 59.8027 22.525 59.4232 23.3757 58.9623C23.6061 62.2225 23.9552 65.4082 24.433 68.5227C24.8295 71.1018 25.1922 72.8878 26.5512 74.1315C26.7003 74.2671 26.8562 74.3891 27.0189 74.5043C27.7915 78.0154 33.8681 79.6082 46.4278 79.6353H46.6447C51.9587 79.6353 56.5101 79.2083 59.8178 78.4017C63.1052 77.5985 65.0844 76.4259 65.7215 74.911C67.5685 74.2502 68.5513 72.7658 68.9478 70.1901C69.0224 69.7021 69.0936 69.2242 69.1444 68.7227C69.585 64.1678 69.6392 59.5723 69.69 55.1259C69.7205 52.3842 69.7544 49.5476 69.8764 46.7787L69.8832 46.6127C69.9883 44.281 70.0933 41.9155 70.1035 39.5296C70.944 39.7567 71.8048 39.9092 72.6724 39.9973C73.7501 40.1057 74.8346 40.0854 75.9089 39.9397L75.9191 39.9566Z" fill="black"/>
<path d="M46.6515 80.6656H46.4346C33.4648 80.6385 27.3307 78.9744 26.131 75.1211C26.0395 75.05 25.9548 74.9754 25.87 74.8974C24.267 73.43 23.8502 71.4 23.4333 68.6921C23.03 66.0623 22.7081 63.3239 22.4776 60.5348C21.993 60.7415 21.5016 60.9211 21.0034 61.077C20.5323 61.2261 20.0511 61.3515 19.5698 61.4498C18.9293 61.582 18.2413 61.7243 17.4957 61.6057C16.9501 61.5176 16.435 61.2465 16.0486 60.8466C15.6826 60.4704 15.5098 60.0501 15.3708 59.7146L15.3573 59.6841L14.8083 58.4166C14.3609 57.3999 13.9 56.3493 13.5848 55.2242C13.5441 55.0852 13.517 54.9395 13.5103 54.7836C13.4967 54.5803 13.5238 54.3566 13.5848 54.1295C13.6323 53.9533 13.6967 53.7872 13.7848 53.6381C13.9542 53.35 14.1813 53.123 14.4795 52.9434C14.6286 52.8485 14.7744 52.7773 14.9201 52.7265C15.5504 52.4791 16.1774 52.3537 16.7874 52.2317L16.8925 52.2113C17.1704 52.1537 17.4652 52.0927 17.7431 52.0215C17.8787 51.9877 18.0075 51.947 18.1397 51.9029L18.3328 51.8318C18.8683 51.5945 19.3699 51.3302 19.8308 51.0421C20.068 50.893 20.3052 50.7337 20.5323 50.5643L20.573 50.5338C20.6001 50.5134 20.6272 50.4965 20.6509 50.4761C20.6679 50.4626 20.695 50.4389 20.7153 50.4253C20.8238 50.3372 20.9458 50.2355 21.0644 50.1305C21.366 49.8695 21.6914 49.7001 22.037 49.6289C22.037 43.6202 22.4132 37.4352 23.1758 30.7622C23.718 26.0345 26.2293 23.181 30.8553 22.0287C32.1397 21.7101 33.5021 21.4221 35.0068 21.1611C35.0543 21.073 35.1017 20.9849 35.1526 20.9001C35.278 20.6799 35.4508 20.3918 35.6541 20.1139C35.7863 19.9343 35.9253 19.758 36.0642 19.5852L36.0812 19.5615C36.1015 19.5344 36.1218 19.5106 36.1422 19.4835V19.4768C36.2099 19.3886 36.2709 19.2734 36.3387 19.1379C36.3963 19.026 36.4539 18.9142 36.5183 18.8057C36.6471 18.5854 36.7827 18.3889 36.9115 18.1957L36.9962 18.0737C37.2368 17.7179 37.5045 17.4298 37.7587 17.1722C37.7892 17.1417 37.8197 17.1078 37.8468 17.0739L37.9078 16.996C37.9078 16.996 37.9282 16.9723 37.9349 16.9621C37.9722 16.8977 38.0061 16.8469 38.0231 16.8231C38.423 16.2673 38.8669 15.7929 39.2838 15.3659C39.3482 15.3015 39.4024 15.2337 39.46 15.1625C39.5617 15.0405 39.6769 14.905 39.8192 14.7694C39.8802 14.7118 39.9446 14.6576 40.0124 14.6C40.0395 14.5762 40.0666 14.5559 40.0904 14.5322C40.1717 14.4169 40.2564 14.3221 40.3242 14.2509L40.3513 14.2204C40.392 14.1695 40.4462 14.1018 40.5038 14.0374C40.6021 13.9289 40.7072 13.8239 40.8224 13.7188C41.08 13.485 41.3409 13.2884 41.5951 13.0986C42.0424 12.7631 42.483 12.4479 42.9236 12.1531C43.7471 11.5973 45.0078 10.8551 46.5871 10.8822C47.736 10.8991 48.9188 11.3058 50.0033 12.0582C50.8844 12.6682 51.6402 13.3935 52.3756 14.0916L52.6535 14.3593C52.8433 14.5423 53.0364 14.722 53.2296 14.8982C53.8329 15.4608 54.4564 16.0403 55.0326 16.691C55.812 17.5687 56.5136 18.4702 57.1168 19.3683C57.3066 19.653 57.4828 19.9377 57.6455 20.2223C60.4889 20.5307 62.7968 21.0221 64.5117 21.6864C67.6567 22.9064 69.6155 25.5295 70.334 29.4845C70.3984 29.837 70.4594 30.203 70.5204 30.6063C70.656 30.6605 70.7915 30.7148 70.9237 30.7656C71.449 30.9757 71.9438 31.1757 72.442 31.2807C72.5945 31.3112 72.747 31.3383 72.8995 31.3621C72.9029 31.3621 72.9232 31.3654 72.9469 31.3688C72.9605 31.3688 72.9741 31.3722 72.991 31.3756C73.0113 31.379 73.0384 31.379 73.0622 31.3824L73.1469 31.3892C73.4451 31.4197 73.7434 31.44 74.0416 31.4502C74.3398 31.4603 74.6415 31.4536 74.9363 31.44C75.0854 31.4332 75.2345 31.4231 75.3837 31.4095C75.4582 31.4027 75.5328 31.3959 75.6039 31.3858L75.6954 31.3756C75.7293 31.3722 75.7632 31.3688 75.7937 31.3654C76.2241 31.3248 76.7528 31.3654 77.2781 31.7687C77.7119 32.1043 78.1491 32.7312 78.0678 33.4802C77.8746 35.273 77.8271 37.0929 77.9254 38.8925C77.9525 39.4076 77.7526 39.9261 77.3628 40.3565C76.9019 40.8581 76.3122 40.936 76.031 40.9733C74.8753 41.1292 73.7095 41.1496 72.5606 41.0343C72.0624 40.9835 71.5744 40.9157 71.0932 40.8276C71.0593 42.8237 70.9711 44.7826 70.8864 46.6872L70.8796 46.8499C70.7542 49.5984 70.7237 52.4248 70.6932 55.1564C70.6424 59.6299 70.5916 64.2458 70.1442 68.8447C70.0934 69.3733 70.0188 69.8681 69.9409 70.3697C69.5071 73.1657 68.3921 74.8839 66.4502 75.7345C65.5352 77.3816 63.434 78.5881 60.0449 79.415C56.6627 80.2419 52.0231 80.6791 46.6312 80.6791L46.6515 80.6656ZM23.3825 57.9591C23.5519 57.9591 23.7214 57.9998 23.8739 58.0845C24.1755 58.2506 24.3721 58.559 24.3992 58.9046C24.6296 62.1513 24.9821 65.3404 25.4498 68.3837C25.8226 70.8205 26.131 72.376 27.2494 73.3961C27.3578 73.4944 27.4764 73.5893 27.6154 73.6876C27.8221 73.8333 27.9678 74.0536 28.0221 74.301C28.6592 77.1918 34.6849 78.6084 46.4414 78.6322H46.6549C51.8876 78.6322 56.3611 78.2153 59.5874 77.429C63.2611 76.531 64.4473 75.3584 64.7963 74.5314C64.9082 74.2705 65.1217 74.0637 65.3894 73.9689C66.4163 73.6028 67.5211 72.8505 67.9549 70.0478C68.0295 69.5767 68.0973 69.1158 68.1447 68.6379C68.5819 64.1237 68.6327 59.5519 68.6836 55.1327C68.7141 52.3774 68.7479 49.534 68.8733 46.7516L68.8801 46.5889C68.9818 44.3013 69.0902 41.9392 69.1004 39.5465C69.1004 39.2314 69.2495 38.9331 69.5003 38.74C69.7511 38.5502 70.0764 38.4858 70.3815 38.5671C71.144 38.7738 71.9506 38.9196 72.7843 39.0043C73.7773 39.1026 74.7838 39.0856 75.7836 38.9501C75.8446 38.9433 75.8886 38.9365 75.9157 38.9297C75.8174 37.0827 75.8649 35.2188 76.0581 33.3785C76.0343 33.3785 75.9937 33.3819 75.9327 33.3921C75.9056 33.3955 75.8784 33.3989 75.8513 33.3989C75.77 33.409 75.6785 33.4158 75.5904 33.426C75.4175 33.4429 75.2413 33.4531 75.0651 33.4632C74.716 33.4802 74.3568 33.4836 74.0077 33.4768C73.6586 33.4666 73.3028 33.4429 72.9537 33.4056H72.9029C72.8351 33.3955 72.7639 33.3887 72.6962 33.3751C72.686 33.3751 72.6792 33.3751 72.669 33.3717C72.6623 33.3717 72.6589 33.3717 72.6521 33.3717C72.6521 33.3717 72.6216 33.365 72.6148 33.365C72.4284 33.3345 72.2386 33.304 72.0522 33.2667C71.3812 33.1243 70.778 32.8837 70.1951 32.6499C69.8867 32.5245 69.5952 32.4093 69.3037 32.311C68.9377 32.189 68.6768 31.8704 68.6226 31.4874C68.5344 30.8571 68.4497 30.3318 68.3616 29.8404C67.7753 26.6276 66.2435 24.5196 63.8034 23.5741C62.1529 22.9336 59.8416 22.4659 56.9304 22.1812C56.5814 22.1473 56.2763 21.9372 56.1204 21.6254C55.9341 21.256 55.7104 20.873 55.4562 20.4969C54.9038 19.6767 54.2565 18.8464 53.538 18.0364C53.0263 17.4603 52.4637 16.9384 51.8672 16.3826C51.6707 16.1996 51.4707 16.0132 51.2741 15.8268L50.9929 15.5557C50.2845 14.8779 49.6169 14.2407 48.8646 13.7188C48.3393 13.3562 47.5191 12.919 46.5803 12.9054C45.8043 12.8817 45.0451 13.1799 44.0826 13.8273C43.6692 14.1052 43.2557 14.4034 42.849 14.7084C42.6084 14.888 42.3949 15.0507 42.2085 15.2168C42.1509 15.271 42.0933 15.3252 42.0391 15.3862C42.0086 15.4201 41.9814 15.454 41.9543 15.4913C41.9306 15.5218 41.8899 15.5692 41.8425 15.62C41.8289 15.6336 41.8154 15.6505 41.7984 15.6675C41.7578 15.7353 41.7137 15.7997 41.6561 15.8573C41.6019 15.9149 41.5443 15.9725 41.4866 16.0233C41.4392 16.064 41.3884 16.1115 41.3341 16.1555C41.3036 16.1826 41.2731 16.2063 41.2426 16.2335C41.1816 16.2945 41.1105 16.3758 41.0359 16.4639C40.9444 16.5724 40.8563 16.6774 40.758 16.7757C40.4022 17.1417 40.026 17.5416 39.7074 17.9788L39.6939 17.9991C39.6091 18.1415 39.4905 18.3414 39.3075 18.4973C39.277 18.5312 39.2465 18.5617 39.216 18.5922C39.0025 18.8091 38.8297 18.9955 38.6941 19.2022L38.606 19.331C38.4941 19.4971 38.3823 19.6598 38.2806 19.8292C38.2366 19.9072 38.1925 19.9885 38.1518 20.0698C38.0603 20.2461 37.9553 20.446 37.8096 20.6527C37.8096 20.6527 37.8062 20.6595 37.8028 20.6629C37.7858 20.6832 37.7723 20.7036 37.7553 20.7239L37.6638 20.8425C37.5384 20.9984 37.4164 21.1509 37.3046 21.3034C37.1589 21.5034 37.0267 21.7237 36.9182 21.9101C36.7996 22.1134 36.6946 22.3235 36.5895 22.5303C36.4438 22.8183 36.1693 23.0183 35.8541 23.0725C34.2036 23.3504 32.7294 23.652 31.3569 23.9943C27.5476 24.9399 25.6531 27.0987 25.2058 30.9859C24.4026 38.0147 24.0332 44.4911 24.084 50.7845C24.084 51.1641 23.8773 51.5166 23.5384 51.6928C23.1995 51.869 22.7928 51.8419 22.481 51.625C22.481 51.625 22.4641 51.6182 22.4539 51.6149C22.4471 51.6182 22.4336 51.6318 22.4098 51.6521C22.2709 51.7741 22.1285 51.8928 21.9862 52.0114C21.9828 52.0148 21.9489 52.0419 21.9455 52.0453C21.8913 52.0893 21.8371 52.13 21.7829 52.1707L21.749 52.1978C21.4812 52.3943 21.2033 52.5841 20.922 52.7603C20.3663 53.1094 19.763 53.4246 19.1259 53.7059C19.0988 53.7194 19.0683 53.7296 19.0378 53.7398L18.9463 53.7737C18.8988 53.7906 18.8514 53.8076 18.8039 53.8245C18.6277 53.8821 18.4515 53.9363 18.2752 53.9838C17.9465 54.0719 17.6178 54.1397 17.3127 54.2007L17.2043 54.221C16.6485 54.3329 16.1266 54.4379 15.6555 54.6243C15.6352 54.6311 15.6148 54.6379 15.5945 54.6446C15.5945 54.6446 15.5843 54.6548 15.5708 54.6616C15.564 54.6616 15.5606 54.6684 15.5538 54.6718C15.8317 55.658 16.2621 56.6408 16.6824 57.5931L17.1297 58.6166L17.1365 58.6335C17.1365 58.6335 17.1501 58.6674 17.1568 58.6844L17.2483 58.908C17.35 59.1588 17.4246 59.3317 17.5161 59.4299C17.6008 59.5147 17.7194 59.5791 17.8313 59.5994C18.2074 59.6604 18.6582 59.5655 19.136 59.4672C19.5834 59.3757 20.0002 59.2673 20.4035 59.1385C21.2643 58.8674 22.1048 58.5115 22.9046 58.0811C23.0537 57.9998 23.2198 57.9591 23.3859 57.9591H23.3825Z" fill="white"/>
<path d="M64.2509 17.2671C64.295 17.3417 64.3424 17.4128 64.4068 17.4704C64.4136 17.4738 64.417 17.4772 64.4238 17.484C65.0338 18.2533 65.7048 18.9616 66.4063 19.653C66.7656 20.0088 67.1282 20.3613 67.4841 20.7239C67.6874 20.9306 67.884 21.1509 68.1348 21.3C68.5143 21.5237 68.9515 21.5678 69.3785 21.4763C69.8903 21.3678 70.3613 21.0323 70.7917 20.7442C71.2222 20.4562 71.639 20.141 72.0389 19.8156C72.7438 19.2395 73.3945 18.5956 73.974 17.8941C74.6688 17.0536 75.2856 16.1555 75.7838 15.1862C76.0413 14.6881 75.9058 14.0984 75.4178 13.7967C74.6383 13.3121 73.8758 12.8004 73.1369 12.2547C72.9607 12.126 72.7845 11.9938 72.6116 11.8582C72.5642 11.8209 72.5168 11.7837 72.4659 11.7464C72.3846 11.682 72.2999 11.6176 72.2185 11.5498C71.8491 11.255 71.4899 10.95 71.134 10.6416C70.8832 10.4247 70.6121 10.3162 70.28 10.3637C69.9818 10.4043 69.6801 10.5704 69.5378 10.8483C69.2328 11.4414 68.8871 12.0073 68.4906 12.5428C68.4499 12.6004 68.4093 12.658 68.3652 12.7123C68.3516 12.7292 68.3415 12.7428 68.3347 12.7495C68.2263 12.8851 68.1144 13.0173 68.0026 13.1461C67.7925 13.3867 67.5722 13.6205 67.3451 13.8442C67.2367 13.9493 67.1248 14.0509 67.0062 14.1492C66.9452 14.2 66.7385 14.3051 66.9655 14.1865C66.9079 14.217 66.8503 14.2746 66.7961 14.3119C66.5487 14.4915 66.2945 14.6576 66.0403 14.8236C65.471 15.1964 64.9016 15.576 64.4034 16.0437C64.2747 16.1657 64.1933 16.3216 64.1493 16.4944C64.1425 16.5114 64.1391 16.5283 64.1357 16.5452C64.1357 16.5554 64.1323 16.5656 64.1289 16.5757C64.0679 16.8164 64.0883 17.0672 64.2475 17.2773L64.2509 17.2671Z" fill="black"/>
<path d="M68.9679 22.5337C68.4867 22.5337 68.0292 22.4116 67.6225 22.171C67.2802 21.9677 67.026 21.7067 66.8227 21.4966L66.7583 21.4288C66.4736 21.1374 66.1822 20.8493 65.8907 20.5646L65.6941 20.3715C64.8537 19.5445 64.2301 18.8633 63.6844 18.1821C63.5828 18.0839 63.4913 17.9686 63.4065 17.8297C63.1049 17.4027 63.01 16.874 63.1422 16.3317C63.1422 16.325 63.1422 16.3182 63.1456 16.3114C63.149 16.2911 63.1591 16.2606 63.1625 16.2402C63.1659 16.2233 63.1727 16.2097 63.1761 16.1928C63.2744 15.8369 63.4574 15.5252 63.7082 15.2879C64.247 14.7796 64.8333 14.383 65.4874 13.956C65.7077 13.8137 65.9246 13.6714 66.1381 13.5188C66.2025 13.4511 66.2804 13.3901 66.3652 13.3392L66.3957 13.3223C66.4804 13.2511 66.5617 13.1766 66.6397 13.0986C66.8362 12.9054 67.0328 12.6987 67.2395 12.4615C67.3412 12.3429 67.4429 12.2209 67.5445 12.0988C67.5513 12.0921 67.5649 12.0717 67.5717 12.0683L67.5954 12.0412C67.5954 12.0412 67.6259 12.0006 67.6428 11.9768L67.6767 11.9294C68.0326 11.4448 68.3579 10.9229 68.6392 10.3704C68.9239 9.81465 69.4865 9.43169 70.1507 9.34018C70.7607 9.25885 71.3199 9.43508 71.8079 9.86209C72.157 10.1671 72.5128 10.4653 72.8619 10.7466L73.2449 11.0483C73.4008 11.1669 73.5736 11.2956 73.7465 11.4244C74.4514 11.943 75.197 12.4479 75.9595 12.919C76.8813 13.4917 77.1999 14.6609 76.6915 15.6404C76.1866 16.6232 75.5359 17.5958 74.7598 18.5312C74.1396 19.2802 73.4414 19.9749 72.6823 20.5917C72.2214 20.9679 71.7876 21.2899 71.3572 21.5779L71.2589 21.6457C70.8116 21.9473 70.2558 22.3201 69.5915 22.4591C69.3814 22.5031 69.1747 22.5269 68.9713 22.5269L68.9679 22.5337ZM65.1349 16.752C65.1654 16.7825 65.1959 16.8164 65.2231 16.8503C65.728 17.4908 66.3143 18.1313 67.1209 18.9243L67.3141 19.1141C67.6157 19.409 67.9173 19.7072 68.2122 20.0088L68.2833 20.0834C68.4189 20.2223 68.5477 20.3545 68.6528 20.4189C68.7917 20.5002 68.9679 20.5206 69.1713 20.4765C69.4492 20.4189 69.7915 20.1884 70.127 19.9648L70.2286 19.897C70.6048 19.6462 70.9878 19.3615 71.3979 19.0226C72.0519 18.4905 72.6552 17.8907 73.194 17.2434C73.8752 16.4199 74.4446 15.5692 74.8852 14.7186C74.9021 14.6881 74.9021 14.6677 74.8987 14.6643C74.0786 14.1594 73.2889 13.6239 72.54 13.0715C72.3603 12.9393 72.1807 12.8038 72.0011 12.6682L71.591 12.3429C71.2182 12.0446 70.8421 11.7294 70.4727 11.4041C70.4455 11.3804 70.4286 11.3702 70.4218 11.3634C70.0965 11.9904 69.7271 12.5869 69.317 13.1393L69.2933 13.1732C69.2492 13.2342 69.2052 13.2952 69.1577 13.3528C69.1577 13.3528 69.134 13.3799 69.1306 13.3833C69.0188 13.5222 68.9001 13.6646 68.7781 13.8069C68.5341 14.0848 68.3003 14.3322 68.0631 14.5661C67.9377 14.6881 67.8089 14.8067 67.6733 14.9151C67.6259 14.9592 67.5717 15.0032 67.5107 15.0405C67.4598 15.0812 67.4293 15.1049 67.3988 15.1286C67.1412 15.315 66.8735 15.4913 66.6058 15.6641C66.0296 16.0403 65.5552 16.3622 65.1417 16.7418V16.752H65.1349ZM67.4666 15.0642C67.4666 15.0642 67.4564 15.071 67.4496 15.0744C67.4564 15.0744 67.4598 15.0676 67.4666 15.0642Z" fill="white"/>
<path d="M23.8229 17.8771C24.4296 18.6159 25.0972 19.3107 25.8123 19.9478C26.2156 20.307 26.6392 20.6459 27.0696 20.9747C27.5034 21.3068 27.944 21.6898 28.4896 21.788C28.51 21.7914 28.5337 21.7948 28.5574 21.7982C28.5913 21.8016 28.6252 21.8118 28.6591 21.8118C28.8082 21.8219 28.9539 21.7847 29.0861 21.7169C29.3437 21.6118 29.5538 21.422 29.7639 21.239C29.9537 21.073 30.1469 20.9069 30.3366 20.7442C30.7196 20.4121 31.1026 20.0834 31.4855 19.7512C32.1362 19.1887 33.058 18.5956 33.18 17.6738C33.2512 17.1383 33.0241 16.6774 32.6649 16.2944C32.4955 16.1114 32.2887 15.9623 32.0922 15.8098C32.0244 15.759 31.9498 15.7081 31.8854 15.6539C31.8753 15.6437 31.8651 15.637 31.8583 15.6302C31.8109 15.5929 31.7634 15.5556 31.7194 15.5184C31.0517 14.9693 30.4383 14.3491 29.8995 13.6747C29.8893 13.6612 29.8757 13.6408 29.8622 13.6239C29.8554 13.6171 29.8452 13.6069 29.8351 13.5968C29.8317 13.59 29.8283 13.5866 29.8215 13.5798C29.8147 13.5731 29.8113 13.5663 29.808 13.5629C29.808 13.5629 29.8113 13.5663 29.8147 13.5697C29.7571 13.4917 29.6995 13.4138 29.6453 13.3358C29.5165 13.1562 29.3979 12.9698 29.2725 12.7868C28.8828 12.2276 28.4185 11.8345 27.7135 11.7735C27.1306 11.7226 26.585 12.0073 26.0936 12.2818C25.6903 12.5055 25.2972 12.7427 24.9074 12.9868C24.5075 13.2375 24.1144 13.5019 23.7281 13.7764C23.2434 14.1187 22.6741 14.4542 22.4843 15.0574C22.2843 15.6946 22.5859 16.2334 22.9452 16.735C23.2265 17.1248 23.5213 17.5077 23.8263 17.8805L23.8229 17.8771Z" fill="black"/>
<path d="M28.707 22.8285C28.6663 22.8285 28.6291 22.8285 28.5884 22.8251C28.5376 22.8251 28.4799 22.8149 28.4189 22.8048C28.3986 22.8048 28.3512 22.7946 28.3037 22.7878C27.5751 22.6556 27.0261 22.232 26.5855 21.8897L26.4499 21.7847C25.928 21.3848 25.5078 21.0425 25.135 20.707C24.3826 20.0359 23.6777 19.3005 23.0372 18.521C22.7152 18.1279 22.4034 17.7246 22.1154 17.3213C21.8239 16.9146 21.1359 15.9555 21.5121 14.7491C21.7832 13.8815 22.4746 13.4002 22.9796 13.0512L23.1388 12.9427C23.5421 12.658 23.9522 12.3835 24.3657 12.1226C24.7724 11.865 25.1858 11.621 25.5993 11.3905C26.0771 11.1228 26.8736 10.6788 27.8021 10.7568C28.7341 10.8381 29.4865 11.3092 30.1067 12.2039C30.1643 12.2886 30.2219 12.3734 30.2795 12.4615C30.3439 12.5564 30.4049 12.6513 30.4727 12.7428C30.5134 12.8004 30.5574 12.8614 30.6015 12.919L30.6286 12.9529C30.6489 12.9766 30.6693 13.0037 30.6896 13.0308C31.1912 13.6578 31.7537 14.2271 32.3638 14.7287L32.4926 14.8338C32.4926 14.8338 32.5264 14.8609 32.5332 14.8677C32.5569 14.888 32.5841 14.9083 32.6112 14.9253C32.6484 14.9524 32.6823 14.9795 32.7162 15.0032L32.7705 15.0439C32.9704 15.1964 33.1975 15.3692 33.411 15.5963C34.1871 16.43 34.2616 17.2569 34.1905 17.806C34.0312 18.9786 33.1229 19.7208 32.4621 20.263C32.357 20.3511 32.2519 20.4358 32.1536 20.5206L30.3914 22.0422C30.1643 22.2388 29.883 22.4828 29.5068 22.6455C29.2459 22.7675 28.9781 22.8319 28.7104 22.8319L28.707 22.8285ZM27.5785 12.78C27.3006 12.78 26.9379 12.9698 26.5889 13.163C26.2093 13.3765 25.823 13.6036 25.4468 13.8408C25.0638 14.0814 24.6842 14.3356 24.3115 14.5999L24.1352 14.7219C23.8302 14.9321 23.515 15.1524 23.4506 15.3523C23.4134 15.4743 23.4066 15.6336 23.7658 16.1352C24.0302 16.5012 24.3115 16.8706 24.6063 17.2298C25.179 17.928 25.8094 18.5854 26.4838 19.1853C26.8193 19.4835 27.2023 19.7953 27.6835 20.1647L27.8326 20.2799C28.1377 20.5172 28.4257 20.7408 28.6663 20.7849H28.6731C28.6731 20.7849 28.6901 20.7781 28.6968 20.7747C28.785 20.7375 28.9239 20.6188 29.0595 20.5036L30.8218 18.9819C30.9336 18.8871 31.0522 18.7888 31.1742 18.6905C31.6182 18.3279 32.1231 17.9144 32.174 17.5382C32.1842 17.4704 32.2079 17.2908 31.9232 16.9858C31.8317 16.8875 31.6894 16.7791 31.5402 16.6639L31.4115 16.5656C31.3538 16.5249 31.2996 16.4808 31.2454 16.4368C31.242 16.4334 31.2217 16.4165 31.2183 16.4131L31.0793 16.3012C30.3575 15.7082 29.6966 15.0405 29.1103 14.3085C29.1001 14.2983 29.09 14.2814 29.0764 14.2644C29.0629 14.2475 29.0493 14.2305 29.0357 14.2136C29.0086 14.1831 28.9883 14.1526 28.9646 14.1187C28.9171 14.0543 28.8697 13.9899 28.8222 13.9255C28.7443 13.8137 28.6697 13.7052 28.5952 13.5934C28.5443 13.5188 28.4935 13.4409 28.4427 13.3663C28.1275 12.9122 27.9004 12.8071 27.6327 12.7834C27.6157 12.7834 27.6022 12.7834 27.5852 12.7834L27.5785 12.78Z" fill="white"/>
<path d="M29.8621 13.6202C29.8992 13.6573 29.9228 13.6573 29.8149 13.5629C29.8149 13.5663 29.8217 13.5696 29.8251 13.573C29.8385 13.5865 29.852 13.6 29.8621 13.6168V13.6202Z" fill="black"/>
<path d="M29.8933 14.661C29.6256 14.661 29.3612 14.5525 29.1511 14.3492C29.1172 14.3153 29.0867 14.2814 29.0596 14.2441C29.0427 14.2238 29.0257 14.2034 29.0088 14.1831C28.6733 13.773 28.7173 13.1834 29.1003 12.8173C29.4832 12.4513 30.0933 12.4513 30.4898 12.8038C30.8389 13.1156 30.971 13.4714 30.8829 13.8645C30.8016 14.2238 30.5338 14.5118 30.1814 14.6169C30.0865 14.644 29.9882 14.6576 29.8933 14.6576V14.661ZM28.9037 13.4002C28.7919 13.8476 29.0156 14.2068 29.1511 14.3356L29.7713 13.6138L28.9037 13.4002ZM29.8933 12.6276C29.8052 12.6276 29.7103 12.6411 29.612 12.6682L29.8594 13.529L30.0323 13.3867L30.5677 12.8919C30.4288 12.7563 30.1848 12.6276 29.8899 12.6276H29.8933Z" fill="white"/>
<path d="M81.4638 55.7257C81.3553 55.4682 81.1689 55.258 80.9825 55.0479C80.8165 54.8581 80.6504 54.6683 80.4843 54.4752C80.1522 54.0956 79.8167 53.7126 79.4846 53.3331C78.9186 52.6858 78.3188 51.7707 77.3969 51.6487C76.8649 51.5776 76.3972 51.808 76.0176 52.1672C75.8346 52.3367 75.6855 52.5434 75.5364 52.74C75.4754 52.8213 75.4144 52.9027 75.3534 52.984C75.3534 52.984 75.3534 52.984 75.35 52.9874C75.3161 53.0315 75.2822 53.0755 75.2449 53.1162C74.6993 53.7872 74.0859 54.404 73.4148 54.9496C73.3843 54.9734 73.3538 54.9971 73.3267 55.0208C73.3301 55.0174 73.3369 55.014 73.3403 55.014C73.3335 55.014 73.3301 55.0208 73.3233 55.0242C73.3166 55.0276 73.3098 55.0344 73.303 55.0377C73.1844 55.1326 73.2691 55.0615 73.3166 55.0276C73.2352 55.075 73.1539 55.153 73.0793 55.2038C72.8997 55.3326 72.7133 55.4512 72.5337 55.58C71.9779 55.9731 71.5814 56.4374 71.5238 57.1423C71.4763 57.7252 71.761 58.2709 72.0389 58.7623C72.266 59.1622 72.5032 59.5553 72.7506 59.9451C73.0048 60.345 73.2725 60.7347 73.547 61.121C73.8927 61.6023 74.2316 62.175 74.8315 62.358C75.472 62.5546 76.0074 62.2564 76.5056 61.8937C76.8954 61.6091 77.2749 61.3142 77.6477 61.0058C78.3831 60.3924 79.0745 59.7248 79.7049 59.0029C80.0641 58.5962 80.3996 58.1726 80.725 57.7388C81.0537 57.305 81.4367 56.861 81.5316 56.3154C81.5349 56.2917 81.5383 56.268 81.5417 56.2442C81.5451 56.2137 81.5519 56.1798 81.5553 56.1493C81.5654 56.0002 81.5248 55.8545 81.4604 55.7223L81.4638 55.7257Z" fill="black"/>
<path d="M75.2415 63.4425C75.0178 63.4425 74.784 63.412 74.5366 63.3341C73.6724 63.0697 73.1911 62.3818 72.8387 61.8802L72.7234 61.7175C72.4422 61.3278 72.1643 60.9143 71.8965 60.4975C71.639 60.0942 71.3916 59.6841 71.1543 59.2706C70.8053 58.6572 70.4392 57.9286 70.5104 57.0678C70.585 56.1426 71.0561 55.3868 71.9474 54.7565C72.0321 54.6989 72.1134 54.6412 72.1981 54.5836C72.293 54.5192 72.3879 54.4548 72.4828 54.3871L72.5201 54.3566C72.5743 54.3125 72.6455 54.2549 72.7336 54.1973L72.7777 54.1634C73.3945 53.6618 73.9604 53.0959 74.4586 52.4824L74.5467 52.374C74.6145 52.2825 74.6721 52.2045 74.7297 52.1266L74.767 52.0758C74.9195 51.8724 75.0958 51.642 75.3228 51.4285C75.9803 50.8083 76.7462 50.5371 77.5359 50.6422C78.7017 50.7981 79.4473 51.6996 79.9929 52.357C80.081 52.4621 80.1657 52.5672 80.2539 52.6654L81.7789 54.4074C81.9789 54.6379 82.2297 54.9225 82.3957 55.3089C82.5347 55.6037 82.5957 55.9087 82.5787 56.2137C82.5753 56.2714 82.5686 56.3256 82.5584 56.3798C82.5584 56.4069 82.5482 56.4578 82.5414 56.5052C82.4161 57.2271 81.9924 57.7761 81.6535 58.2201L81.5451 58.3624C81.1655 58.8674 80.8131 59.2978 80.4741 59.6841C79.8065 60.4433 79.0779 61.1516 78.3018 61.7955C77.9256 62.1073 77.5257 62.4191 77.1088 62.7241C76.7835 62.9613 76.1159 63.4459 75.2415 63.4459V63.4425ZM73.8012 55.9359C73.7571 55.9697 73.7164 56.0036 73.6758 56.0341C73.5639 56.1155 73.4521 56.19 73.3369 56.268C73.2623 56.3188 73.1911 56.3663 73.1166 56.4171C72.6624 56.7391 72.5574 56.9661 72.5371 57.2271C72.5133 57.5151 72.7167 57.8947 72.9234 58.2607C73.1403 58.6437 73.3708 59.0266 73.608 59.3994C73.8554 59.7858 74.113 60.1654 74.3739 60.528L74.5027 60.711C74.7162 61.0126 74.9331 61.3278 75.1297 61.3888C75.2551 61.4261 75.4143 61.4328 75.9091 61.0736C76.2887 60.7957 76.6547 60.511 76.997 60.2264C77.6918 59.6502 78.3458 59.0131 78.9423 58.3353C79.2473 57.9896 79.5659 57.5931 79.915 57.1322L80.0336 56.9797C80.2572 56.6882 80.4911 56.3832 80.5318 56.146V56.1392C80.5318 56.1392 80.525 56.1222 80.5216 56.1155C80.4843 56.024 80.3589 55.8816 80.2403 55.7461L78.7152 54.0041C78.617 53.8923 78.5187 53.7737 78.4204 53.655C78.0544 53.2111 77.6375 52.7095 77.258 52.6587C77.197 52.6485 77.0106 52.6248 76.7123 52.9095C76.6107 53.0077 76.4988 53.1501 76.3836 53.306L76.3429 53.3602C76.2853 53.4381 76.2277 53.5127 76.1701 53.5906C76.1599 53.6042 76.1498 53.6178 76.1396 53.6313L76.0345 53.7635C75.4448 54.4887 74.7806 55.1564 74.0519 55.7461L74.0181 55.7732C73.9876 55.8003 73.9537 55.8274 73.9198 55.8511C73.8791 55.885 73.8384 55.9121 73.7978 55.9392L73.8012 55.9359ZM80.5487 56.0477C80.5487 56.0477 80.5487 56.0477 80.5487 56.0511V56.0477Z" fill="white"/>
<path d="M73.3263 55.0243C73.3263 55.0243 73.3197 55.0276 73.3164 55.0309C73.3164 55.0309 73.3197 55.0276 73.323 55.0276C73.323 55.0276 73.323 55.0276 73.3263 55.0276V55.0243Z" fill="black"/>
<path d="M73.3165 56.0477C72.9843 56.0477 72.659 55.885 72.4658 55.5902C72.171 55.1428 72.276 54.5396 72.7064 54.2176C72.7166 54.2109 72.7335 54.1973 72.7437 54.1905C73.1978 53.8719 73.8248 53.977 74.1502 54.4278C74.4687 54.8649 74.3874 55.4716 73.9739 55.8105C73.9604 55.8206 73.9468 55.8308 73.9333 55.841C73.9163 55.8545 73.8994 55.8681 73.879 55.8783C73.8587 55.8918 73.8384 55.9054 73.8214 55.9155C73.6621 56.007 73.4893 56.0511 73.3165 56.0511V56.0477Z" fill="white"/>
<path d="M56.9682 23.8249L57.0834 23.7808C57.5579 23.5944 52.1998 16.8638 51.6373 16.3283C49.5699 14.3559 47.3874 12.2954 44.4457 13.7357C41.4193 15.2167 39.1148 18.6363 37.3559 21.3848C35.8173 23.7876 35.4547 24.0994 38.2913 25.0449C40.5484 25.7973 42.8055 26.5564 45.0625 27.3088C45.5709 27.4782 46.0894 27.6511 46.6249 27.6409C47.1875 27.6307 47.7263 27.424 48.2482 27.2207C51.156 26.0887 54.0604 24.9568 56.9682 23.8249Z" fill="#659CF7"/>
<path d="M57.6553 22.9031C57.4249 21.8321 56.903 20.829 56.2929 19.9241C55.6829 19.0192 55.0085 18.1652 54.29 17.3552C53.5716 16.5453 52.7548 15.8302 51.9686 15.0846C51.1823 14.339 50.3588 13.5222 49.4369 12.8817C48.5999 12.3022 47.6137 11.9023 46.5868 11.8853C45.4447 11.8684 44.4314 12.3598 43.5062 12.9834C43.0724 13.2748 42.6487 13.5799 42.2319 13.8916C41.9879 14.0747 41.7439 14.2577 41.5202 14.461C41.4355 14.5389 41.3507 14.6203 41.2762 14.705C41.2321 14.7558 41.1915 14.8067 41.1474 14.8609C41.0966 14.9253 40.9 15.1049 40.8932 15.1964L40.9779 15.0812C40.9576 15.1049 40.9339 15.132 40.9102 15.1558C40.8729 15.1964 40.8356 15.2337 40.7949 15.271C40.7102 15.3489 40.6153 15.4167 40.534 15.498C40.351 15.6743 40.2019 15.8844 40.0256 16.0674C39.6088 16.4944 39.2123 16.9214 38.8598 17.4095C38.8259 17.4569 38.6836 17.7246 38.6294 17.728L38.7141 17.6196C38.687 17.6569 38.6565 17.6941 38.626 17.728C38.5819 17.7789 38.5345 17.8297 38.487 17.8771C38.2498 18.1178 38.0329 18.3516 37.8431 18.6329C37.6906 18.8566 37.5347 19.0802 37.3991 19.3141C37.2534 19.5615 37.145 19.8258 36.9755 20.0631C36.962 20.0834 36.8264 20.2698 36.9382 20.1139C37.0501 19.958 36.8772 20.1885 36.8569 20.2156C36.7281 20.3782 36.5993 20.5409 36.4773 20.707C36.3147 20.9306 36.1723 21.1645 36.0334 21.4051C35.725 21.9406 35.4572 22.4998 35.1997 23.0623L37.2534 23.6181L37.2602 23.5436C37.3178 22.9674 36.7112 22.4184 36.1588 22.4422C35.5115 22.4727 35.1217 22.9268 35.0573 23.5436L35.0505 23.6181C35.0031 24.0757 35.4233 24.5806 35.8605 24.6789C36.2977 24.7772 36.8976 24.6247 37.1043 24.1739C37.311 23.7232 37.5415 23.2386 37.7889 22.7844C37.9109 22.5608 38.0397 22.3405 38.1786 22.1236C38.2396 22.0287 38.3006 21.9372 38.365 21.8491C38.4091 21.7881 38.5243 21.6627 38.3379 21.883C38.382 21.8321 38.4226 21.7779 38.4633 21.7237C38.6497 21.4932 38.8429 21.2628 38.9988 21.0086C39.1275 20.8019 39.219 20.5782 39.3444 20.3681C39.4698 20.1579 39.5986 19.9749 39.7308 19.7818C39.741 19.7648 39.8358 19.6293 39.8325 19.6293C39.8697 19.6632 39.6698 19.8089 39.785 19.7004C39.8731 19.6157 39.9612 19.5276 40.0494 19.4429C40.2459 19.2429 40.412 19.0158 40.578 18.7888C40.6492 18.6939 40.717 18.5956 40.7882 18.4973C40.8017 18.477 40.9508 18.2974 40.839 18.4295C40.7272 18.5617 40.9305 18.3211 40.9508 18.3008C41.266 17.9348 41.6151 17.6026 41.9337 17.24C42.0794 17.0739 42.2522 16.9452 42.4081 16.7893C42.5403 16.6605 42.6487 16.5181 42.7572 16.3724C42.7572 16.3724 42.8453 16.2741 42.8419 16.2572C42.7335 16.3894 42.7165 16.4131 42.7911 16.3216C42.8114 16.2945 42.8351 16.2707 42.8589 16.2436C43.008 16.081 43.1774 15.9352 43.3503 15.7963C43.5367 15.6472 43.1944 15.9115 43.3198 15.82C43.3672 15.7861 43.4113 15.7522 43.4553 15.7183C43.5468 15.6505 43.6383 15.5828 43.7298 15.515C44.1602 15.1964 44.6042 14.888 45.0549 14.6C45.1634 14.5322 45.2752 14.4678 45.3871 14.4068C45.4142 14.3932 45.7124 14.2678 45.7124 14.2475C45.7124 14.261 45.4548 14.3424 45.6412 14.2814C45.6955 14.2644 45.7463 14.2441 45.8005 14.2238C45.9158 14.1865 46.031 14.156 46.1462 14.1289C46.197 14.1187 46.2513 14.1085 46.3021 14.0984C46.4512 14.0679 46.0039 14.1255 46.2242 14.1085C46.3258 14.0984 46.4241 14.0916 46.5258 14.0916C46.6139 14.0916 46.7054 14.0916 46.7935 14.1018C46.8816 14.1119 47.0274 14.1458 46.7088 14.0848C46.7664 14.095 46.8274 14.1052 46.885 14.1153C47.0714 14.1526 47.2544 14.2068 47.434 14.2746C47.5086 14.3017 47.6475 14.3763 47.3696 14.2441C47.4069 14.261 47.4442 14.278 47.4815 14.2949C47.5967 14.3492 47.7085 14.4068 47.8204 14.4678C48.0034 14.5694 48.1796 14.6847 48.3525 14.8033C48.3931 14.8304 48.5592 14.9931 48.6032 14.9863C48.5389 14.9965 48.4169 14.8406 48.5761 14.966C48.6405 15.0202 48.7049 15.071 48.7693 15.1252C49.1726 15.4675 49.559 15.8336 49.9419 16.1962C50.6909 16.9079 51.4771 17.5891 52.1956 18.3313C52.5887 18.7379 52.9615 19.165 53.3208 19.6021C53.4021 19.7004 53.4801 19.7987 53.5614 19.9004C53.6088 19.9614 53.6597 20.019 53.7037 20.08L53.6258 19.9783C53.6563 20.019 53.6868 20.0597 53.7207 20.1003C53.88 20.3105 54.0392 20.5206 54.1884 20.7375C54.4968 21.1747 54.7848 21.6254 55.0322 22.0999C55.1 22.232 55.161 22.3642 55.2254 22.4964C55.2661 22.5811 55.3203 22.5947 55.2017 22.4354C55.2423 22.4896 55.2593 22.5777 55.283 22.6421C55.3881 22.9166 55.4694 23.1979 55.5304 23.4826C55.6524 24.0452 56.3404 24.4281 56.886 24.2519C57.4791 24.0587 57.7875 23.4995 57.6553 22.8963V22.9031Z" fill="black"/>
<path d="M17.5431 37.6419C17.3838 37.4962 17.1703 37.381 16.9771 37.2895C16.1366 36.8895 15.3199 36.449 14.5268 35.9643C14.032 35.6627 12.7679 34.4223 12.2392 34.402C11.2327 34.3681 10.2363 36.9099 9.67713 37.8486C9.56529 38.035 9.45345 38.2316 9.44329 38.4485C9.42634 38.9399 9.93131 39.2619 10.3719 39.4822C11.9952 40.2921 13.622 41.1021 15.2453 41.9121C15.3402 41.9595 15.4452 42.007 15.5469 41.9866C15.6723 41.9595 15.757 41.8409 15.8248 41.7325C16.4586 40.7191 17.0618 39.6855 17.6278 38.6315C17.7091 38.479 17.7938 38.3197 17.7938 38.1469C17.7938 37.9435 17.6922 37.7775 17.5431 37.6419Z" fill="#659CF7"/>
<path d="M18.2613 36.9234C17.8377 36.554 17.3429 36.3473 16.8447 36.0931C16.394 35.8661 15.9534 35.6221 15.5162 35.3713C15.3298 35.2628 15.14 35.1578 14.9604 35.0358C14.9197 35.0087 14.8825 34.9815 14.8452 34.951C14.7062 34.8528 15.0587 35.1205 14.9197 35.0086C14.8858 34.9815 14.8486 34.951 14.8147 34.9239C14.5571 34.7172 14.3063 34.5071 14.0488 34.3037C13.4082 33.8022 12.683 33.2159 11.812 33.4328C11.0562 33.6192 10.5276 34.2902 10.1209 34.907C9.74131 35.4797 9.43968 36.1033 9.12789 36.7133C8.98894 36.9878 8.82627 37.2488 8.68732 37.5233C8.37553 38.1333 8.31792 38.8382 8.72121 39.4245C9.04317 39.8888 9.51085 40.1803 10.0057 40.4277C10.5004 40.6751 10.9546 40.9022 11.429 41.1394C12.4051 41.624 13.3777 42.112 14.3538 42.5967C14.7096 42.7763 15.0722 42.9966 15.4823 43.0034C15.9974 43.0135 16.3973 42.695 16.6685 42.2883C16.9972 41.8003 17.2887 41.2851 17.5835 40.7768C17.8784 40.2684 18.1766 39.7397 18.4613 39.211C18.6477 38.862 18.8036 38.5129 18.8036 38.1096C18.8036 37.6521 18.5799 37.2319 18.2579 36.9201C17.8784 36.5473 17.1938 36.5134 16.821 36.9201C16.4482 37.3267 16.4143 37.9605 16.821 38.357C16.943 38.4756 16.8074 38.3231 16.7939 38.2994C16.8786 38.4485 16.7871 38.2452 16.7803 38.2248C16.8379 38.4011 16.7905 38.1232 16.7803 38.0825L16.7871 38.0181C16.7566 38.1062 16.76 38.113 16.7871 38.035C16.8278 37.9029 16.7769 38.0452 16.76 38.0825C16.7362 38.1299 16.7091 38.1774 16.6854 38.2214C16.6278 38.3299 16.5702 38.435 16.5092 38.5434C16.2787 38.9603 16.0449 39.3737 15.8077 39.7838C15.5704 40.1939 15.3366 40.5802 15.0926 40.9699C15.0451 41.0479 14.9299 41.1665 14.913 41.258C14.9231 41.2173 15.0858 41.0987 14.9672 41.1835L15.3298 41.0886C15.7128 41.0547 15.811 41.0174 15.6314 40.9767C15.6687 40.9869 15.8619 41.0852 15.6823 40.9903C15.6348 40.9632 15.5806 40.9394 15.5331 40.9157C15.4078 40.8547 15.2824 40.7903 15.157 40.7293C14.3063 40.3057 13.4557 39.8821 12.6084 39.4584C12.1848 39.2449 11.7578 39.0348 11.3341 38.8213C11.141 38.723 10.941 38.6315 10.7512 38.5265C10.6801 38.4892 10.6089 38.4451 10.5377 38.4011C10.5072 38.3807 10.4428 38.3163 10.4123 38.3129C10.4699 38.3197 10.5886 38.4621 10.4564 38.3367C10.4293 38.3096 10.4022 38.2791 10.3751 38.2519C10.2836 38.1638 10.5072 38.4214 10.4327 38.3231C10.4089 38.2926 10.3378 38.174 10.4225 38.3231C10.5174 38.4892 10.4225 38.2248 10.4496 38.418C10.4767 38.6315 10.5038 38.2486 10.4428 38.5671L10.453 38.5332C10.4767 38.4621 10.4632 38.4858 10.4123 38.6078C10.4157 38.5298 10.5208 38.4045 10.5615 38.3367C10.6868 38.1266 10.7953 37.9063 10.9071 37.6894C11.1783 37.1539 11.446 36.6117 11.7646 36.1033C11.8357 35.9847 11.9137 35.8695 11.9916 35.7576C12.012 35.7305 12.0323 35.7034 12.0492 35.6763C12.1543 35.5272 11.9103 35.8457 11.9916 35.7475C12.0357 35.6932 12.0797 35.639 12.1238 35.5882C12.1611 35.5441 12.2017 35.5034 12.2458 35.4628C12.2797 35.4323 12.4627 35.2798 12.2966 35.4086C12.1306 35.5373 12.2966 35.4153 12.3305 35.3916C12.3509 35.3781 12.3712 35.3679 12.3915 35.3577C12.5305 35.273 12.2627 35.4255 12.256 35.4119C12.2492 35.3984 12.5745 35.3509 12.2763 35.395C12.0052 35.4323 12.4356 35.4323 12.1509 35.395C11.8459 35.3577 12.1712 35.395 12.1645 35.4187C12.1611 35.4323 11.9035 35.2933 12.0221 35.3611C12.0492 35.3781 12.0831 35.3916 12.1102 35.4086C12.2221 35.4696 12.3305 35.5407 12.439 35.6153C12.4932 35.6526 12.5508 35.6932 12.605 35.7339C12.6321 35.7542 12.6593 35.7746 12.6898 35.7983C12.8253 35.9 12.5373 35.6763 12.6321 35.7542C13.1879 36.2084 13.7336 36.6727 14.3538 37.0387C14.7876 37.2962 15.2315 37.5403 15.6789 37.7707C15.9161 37.8927 16.1533 38.0113 16.3906 38.1266C16.4956 38.1774 16.6007 38.2248 16.7024 38.2824C16.743 38.3062 16.7803 38.3299 16.8176 38.3536C16.9904 38.4553 16.6651 38.2181 16.8244 38.3536C17.2243 38.7027 17.875 38.7772 18.2613 38.3536C18.6138 37.9707 18.6883 37.2895 18.2613 36.9167V36.9234Z" fill="black"/>
<path d="M68.6123 32.1144C69.7713 32.3449 70.8829 33.0396 72.0962 33.2667C73.4043 33.5107 74.7498 33.548 76.0647 33.3616C75.8614 35.212 75.8139 37.0793 75.919 38.9399C73.3467 39.2924 70.6796 38.8992 68.3174 37.8249C68.0327 37.6961 67.7277 37.5233 67.643 37.2251C67.599 37.059 67.6295 36.8828 67.6633 36.7133C67.965 35.2052 68.1344 33.5717 68.6089 32.111L68.6123 32.1144Z" fill="#FFEB4C"/>
<path d="M68.3411 33.0938C69.5577 33.348 70.6388 34.0258 71.8656 34.2529C73.3568 34.5308 74.8378 34.5477 76.3358 34.341L75.0479 33.3616C74.848 35.212 74.7972 37.0793 74.9022 38.9399L75.9189 37.9232C75.0344 38.0418 74.1431 38.0757 73.2551 38.0249C73.0382 38.0113 72.8247 37.9944 72.6078 37.9706C72.5062 37.9605 72.4045 37.9469 72.3062 37.9368C72.1605 37.9198 72.496 37.9639 72.3503 37.9435C72.2757 37.93 72.1978 37.9198 72.1232 37.9096C71.6826 37.8385 71.2488 37.747 70.8151 37.6351C70.3813 37.5233 69.9847 37.3979 69.5781 37.2488C69.4696 37.2081 69.3645 37.1708 69.2561 37.1268C69.2087 37.1098 69.1612 37.0895 69.1138 37.0692C69.0833 37.0556 68.9274 36.9946 69.0595 37.0488C69.212 37.1132 68.9816 37.0149 68.9714 37.0082C68.924 36.9878 68.8799 36.9675 68.8325 36.9472C68.741 36.9065 68.6529 36.8624 68.5681 36.8116C68.5376 36.7946 68.5003 36.7574 68.4698 36.7472C68.48 36.7506 68.6698 36.9031 68.541 36.7946C68.4902 36.7506 68.4393 36.6455 68.5952 36.8692C68.5478 36.8014 68.5715 36.7336 68.6291 36.9573C68.6834 37.1641 68.6359 37.0861 68.6427 37.0115C68.6122 37.2589 68.6257 37.1166 68.6359 37.0624C68.6596 36.9404 68.6834 36.815 68.7071 36.693C68.7918 36.249 68.863 35.8051 68.9375 35.3645C69.107 34.3647 69.2832 33.3616 69.595 32.3923C69.7577 31.884 69.4052 31.2604 68.8833 31.1418C68.3275 31.0164 67.8056 31.3078 67.6328 31.8535C67.3345 32.7854 67.1583 33.7479 66.9956 34.7104C66.9143 35.1815 66.8397 35.6492 66.7516 36.1168C66.633 36.7438 66.4907 37.3742 66.8668 37.9469C67.1752 38.4146 67.6565 38.6518 68.1547 38.862C68.6529 39.0721 69.1646 39.272 69.6865 39.4347C70.6625 39.7363 71.6691 39.9193 72.6824 40.021C73.7601 40.1294 74.8446 40.1091 75.9189 39.9634C76.1867 39.9261 76.4442 39.8787 76.6374 39.6652C76.8136 39.472 76.9492 39.2144 76.9356 38.9467C76.834 37.0861 76.8814 35.2221 77.0814 33.3683C77.1152 33.0599 76.9119 32.7482 76.6814 32.5685C76.4035 32.355 76.1324 32.3415 75.7935 32.3855C76.0477 32.3516 75.7969 32.3855 75.7393 32.3889C75.658 32.3991 75.5766 32.4059 75.4953 32.4126C75.3326 32.4262 75.1699 32.4398 75.0073 32.4465C74.6819 32.4635 74.3566 32.4669 74.0312 32.4567C73.7059 32.4465 73.3805 32.4262 73.0586 32.3923C72.9772 32.3821 72.8959 32.3788 72.8146 32.3652C73.0654 32.4126 72.8214 32.3652 72.7637 32.355C72.5943 32.3279 72.4214 32.3008 72.2554 32.2635C71.0896 32.0195 70.0491 31.3756 68.8799 31.1316C68.3614 31.0231 67.7581 31.2841 67.6294 31.8433C67.5141 32.3516 67.7819 32.9786 68.3411 33.0938Z" fill="black"/>
<path d="M65.1284 16.7486C65.979 15.9318 67.1889 15.4167 68.0667 14.5525C69.0156 13.6205 69.8154 12.5394 70.4187 11.3533C71.8183 12.5801 73.323 13.6883 74.9057 14.6677C73.723 16.9757 71.8725 18.9413 69.6392 20.263C69.3714 20.4223 69.0529 20.5748 68.7614 20.4697C68.5987 20.4121 68.4734 20.2833 68.3547 20.1613C67.2906 19.0497 66.0502 17.9754 65.125 16.7486H65.1284Z" fill="#FD4F44"/>
<path d="M65.8471 17.4705C65.9623 17.362 66.0809 17.2603 66.2029 17.1621C66.3724 17.0231 66.0471 17.2739 66.2131 17.1553C66.2877 17.1011 66.3622 17.0468 66.4368 16.996C66.6842 16.8232 66.9384 16.6605 67.1892 16.4944C67.7687 16.1149 68.3448 15.715 68.8396 15.2269C69.8258 14.2509 70.6663 13.1088 71.2967 11.8752L69.7004 12.0819C71.1679 13.363 72.737 14.5288 74.3942 15.5557L74.0282 14.1662C73.835 14.539 73.6249 14.905 73.4012 15.2608C73.2928 15.4337 73.1776 15.6031 73.0589 15.7726C73.0013 15.8573 72.9403 15.9386 72.8793 16.0234C72.8319 16.0877 72.6048 16.3589 72.7912 16.1454C72.5133 16.4639 72.2591 16.7961 71.9711 17.1045C71.683 17.4129 71.3814 17.7077 71.0662 17.9856C70.9205 18.1144 70.7747 18.2398 70.6256 18.3618C70.5477 18.4262 70.4596 18.4872 70.385 18.555C70.5578 18.3957 70.4765 18.4872 70.4291 18.5211C70.3748 18.5617 70.3206 18.6024 70.2664 18.6431C69.9275 18.8939 69.575 19.1277 69.2158 19.3446C69.1243 19.3988 69.0294 19.453 68.9345 19.5039C68.7481 19.6022 68.9752 19.4869 68.9752 19.4869C68.9582 19.5412 68.7244 19.4937 68.904 19.514C68.9277 19.514 69.1921 19.5479 69.0667 19.514C68.9413 19.4802 69.2937 19.5717 69.2632 19.6361C69.2632 19.6293 69.0497 19.4293 69.026 19.4022C68.7108 19.0769 68.3889 18.7583 68.0635 18.4397C67.6806 18.0635 67.2976 17.6908 66.9282 17.301C66.752 17.118 66.5825 16.9316 66.4165 16.7418C66.3351 16.6469 66.2504 16.552 66.1724 16.4538C66.1318 16.4063 66.0945 16.3589 66.0538 16.308C66.0199 16.264 65.8437 16.0369 66.0064 16.2504C65.8403 16.0301 65.6776 15.8607 65.3997 15.7827C65.1557 15.715 64.8338 15.7455 64.6169 15.8844C64.2 16.1521 63.9086 16.8232 64.2509 17.2739C64.9049 18.1313 65.6404 18.904 66.4097 19.6598C66.7689 20.0156 67.1315 20.3681 67.4874 20.7307C67.6907 20.9374 67.8873 21.1577 68.1381 21.3068C68.5176 21.5305 68.9548 21.5746 69.3818 21.4865C69.8936 21.378 70.3647 21.0425 70.7951 20.7544C71.2255 20.4664 71.6423 20.1512 72.0422 19.8258C72.7472 19.2497 73.3978 18.6058 73.9774 17.9043C74.6721 17.0638 75.2889 16.1657 75.7871 15.1964C76.0447 14.6982 75.9091 14.1086 75.4211 13.8069C74.6416 13.3223 73.8791 12.8106 73.1403 12.2649C72.9607 12.1328 72.7844 11.9972 72.6048 11.8616C72.4896 11.7735 72.7404 11.9667 72.6251 11.8752C72.5743 11.8345 72.5235 11.7939 72.4692 11.7532C72.3879 11.6888 72.3032 11.6244 72.2219 11.5566C71.8524 11.2618 71.4932 10.9568 71.1374 10.6484C70.8866 10.4315 70.6155 10.323 70.2833 10.3671C69.9851 10.4077 69.6835 10.5738 69.5411 10.8517C69.2361 11.4448 68.8904 12.0108 68.4939 12.5462C68.4499 12.6038 68.4092 12.6682 68.3618 12.7224C68.5312 12.5225 68.3651 12.7157 68.338 12.7496C68.2296 12.8851 68.1211 13.0173 68.0059 13.1461C67.7958 13.3867 67.5755 13.6205 67.3484 13.8442C67.24 13.9493 67.1281 14.0509 67.0095 14.1492C66.9485 14.2001 66.7418 14.3051 66.9689 14.1865C66.9113 14.217 66.8536 14.2746 66.7994 14.3119C66.552 14.4915 66.2978 14.6576 66.0437 14.8236C65.4743 15.1964 64.905 15.576 64.4068 16.0437C64.0204 16.4097 64.0103 17.118 64.4068 17.4806C64.8033 17.8433 65.4302 17.8704 65.8437 17.4806L65.8471 17.4705Z" fill="black"/>
<path d="M28.6562 20.7951C28.5715 20.8019 28.4969 20.7544 28.4258 20.707C26.5449 19.4293 24.9012 17.7992 23.6134 15.9251C23.5117 15.7793 23.41 15.6133 23.4304 15.437C23.4541 15.2371 23.6269 15.0947 23.7896 14.9761C24.7419 14.2712 25.7417 13.6307 26.7787 13.0613C27.121 12.8715 27.5243 12.6885 27.8869 12.8309C28.1648 12.9393 28.3377 13.2105 28.5003 13.4579C29.2934 14.661 30.2965 15.7251 31.4522 16.5893C32.4824 17.3552 32.3706 17.6501 31.4691 18.4262C30.5981 19.1785 29.7238 19.9343 28.8528 20.6866C28.7952 20.7375 28.7308 20.7883 28.6562 20.7951Z" fill="#96E26D"/>
<path d="M28.6562 19.7784C29.1748 19.8123 29.0595 19.9309 28.9409 19.8292C28.907 19.7987 28.8596 19.775 28.8223 19.7479C28.7545 19.7004 28.6833 19.653 28.6156 19.6022C28.4495 19.4835 28.2868 19.3615 28.1242 19.2395C28.1038 19.226 28.0055 19.1514 28.114 19.2328C28.2292 19.3175 28.1038 19.2226 28.0767 19.2023C28.0123 19.1514 27.9445 19.0972 27.8801 19.0464C27.7209 18.9176 27.565 18.7854 27.4125 18.6532C26.8533 18.1652 26.3212 17.6433 25.823 17.0943C25.5756 16.8198 25.335 16.5351 25.1012 16.247C25.0673 16.203 24.8605 15.9623 25.0401 16.1691C24.9859 16.1047 24.9385 16.0369 24.8876 15.9691C24.7656 15.8065 24.647 15.6404 24.5318 15.4743C24.4877 15.4099 24.4505 15.332 24.3996 15.271C24.3352 15.193 24.4301 15.3455 24.4335 15.3625C24.4538 15.4472 24.4471 15.5658 24.4233 15.6506C24.4233 15.6506 24.3285 15.898 24.2776 15.898C24.2844 15.898 24.3691 15.8065 24.3657 15.8132C24.4301 15.7522 24.4776 15.7793 24.3047 15.8573C24.3488 15.837 24.3928 15.7929 24.4335 15.7624C24.7724 15.515 25.1181 15.2744 25.4706 15.0405C25.823 14.8067 26.1551 14.6 26.5076 14.3898C26.677 14.2882 26.8465 14.1899 27.0193 14.0916C27.1718 14.0035 27.3854 13.834 27.5616 13.8035C27.2735 13.8544 27.6497 13.8273 27.67 13.7832C27.6633 13.8001 27.4667 13.7832 27.5785 13.7968C27.6328 13.8035 27.7446 13.8408 27.6192 13.7934L27.5548 13.7866C27.4294 13.7256 27.4023 13.712 27.4667 13.7493C27.487 13.7629 27.5243 13.79 27.548 13.8001C27.3955 13.7493 27.4192 13.6883 27.4836 13.7663C27.4938 13.7798 27.6328 13.9425 27.5277 13.8103C27.4226 13.6781 27.5955 13.9188 27.6158 13.9459C27.6599 14.0137 27.7073 14.0848 27.7548 14.1526C27.8632 14.3119 27.975 14.4678 28.0903 14.6203C28.5851 15.2778 29.1171 15.8946 29.7204 16.4571C29.9949 16.7113 30.2796 16.9519 30.571 17.179C30.6964 17.2773 30.8218 17.3722 30.9506 17.4671C30.9777 17.4874 31.0794 17.5315 30.9743 17.484C30.8625 17.4332 30.9811 17.4908 31.015 17.5213C31.0726 17.5687 31.1268 17.6196 31.1811 17.6704C31.2082 17.6975 31.2319 17.7246 31.259 17.7518C31.3844 17.8704 31.1709 17.606 31.2082 17.6806C31.32 17.9212 31.1641 17.5077 31.2014 17.6365C31.2251 17.7212 31.1878 17.7755 31.1811 17.4705C31.1844 17.6162 31.2319 17.2095 31.2048 17.3213C31.1607 17.4942 31.3505 17.0841 31.2217 17.2739C31.0929 17.4637 31.3505 17.1417 31.2353 17.2603C30.9337 17.5654 30.6083 17.8433 30.283 18.1212C29.9102 18.4431 29.5374 18.7651 29.1646 19.087C28.9748 19.2531 28.7816 19.4191 28.5918 19.5818C28.5071 19.6564 28.4224 19.7276 28.3377 19.8021C28.297 19.8394 28.2529 19.8733 28.2089 19.9139C28.0462 20.0631 28.3411 19.8292 28.3987 19.8157C27.8801 19.9377 27.5243 20.5579 27.687 21.0662C27.8632 21.6051 28.3817 21.9067 28.9375 21.7779C29.273 21.7 29.5204 21.4593 29.7746 21.2424C29.9644 21.0764 30.1576 20.9103 30.3474 20.7476C30.7303 20.4155 31.1133 20.0868 31.4962 19.7547C32.1469 19.1921 33.0687 18.599 33.1907 17.6772C33.2619 17.1417 33.0349 16.6808 32.6756 16.2979C32.5062 16.1149 32.2994 15.9657 32.1029 15.8132C32.0215 15.7522 31.9334 15.6946 31.8589 15.6302C32.0385 15.7895 31.9165 15.6743 31.8656 15.6336C31.8148 15.5929 31.7707 15.5591 31.7267 15.5218C31.0591 14.9728 30.4456 14.3526 29.9068 13.6781C29.8797 13.6443 29.8492 13.5934 29.8187 13.5663C29.961 13.6917 29.8898 13.6612 29.8458 13.6002C29.7814 13.5121 29.717 13.4274 29.6526 13.3392C29.5238 13.1596 29.4052 12.9732 29.2798 12.7902C28.8901 12.231 28.4258 11.8379 27.7209 11.7769C27.138 11.7261 26.5923 12.0107 26.1009 12.2853C25.6976 12.5089 25.3045 12.7462 24.9148 12.9902C24.525 13.2342 24.1217 13.5053 23.7354 13.7798C23.2507 14.1221 22.6814 14.4576 22.4916 15.0609C22.2917 15.698 22.5933 16.2369 22.9525 16.7384C23.2338 17.1282 23.5286 17.5111 23.8337 17.8839C24.4403 18.6227 25.1079 19.3175 25.823 19.9546C26.2263 20.3139 26.6499 20.6528 27.0803 20.9815C27.5582 21.3475 28.0428 21.7779 28.6664 21.8186C29.1985 21.8525 29.7068 21.3272 29.6831 20.8019C29.656 20.2223 29.2358 19.8224 28.6664 19.7852L28.6562 19.7784Z" fill="black"/>
<path d="M80.5418 56.1528C80.5486 56.2375 80.5011 56.3121 80.4571 56.3832C79.193 58.2743 77.5696 59.9248 75.7057 61.2261C75.5599 61.3278 75.3973 61.4329 75.2177 61.4125C75.0177 61.3888 74.8754 61.216 74.7534 61.0567C74.0417 60.1112 73.3977 59.1148 72.8182 58.0811C72.6284 57.7388 72.442 57.3389 72.581 56.9763C72.6894 56.6984 72.9572 56.5222 73.2046 56.3561C74.4043 55.5563 75.4617 54.5464 76.3157 53.3839C77.0748 52.3503 77.3697 52.4587 78.1526 53.3568C78.9117 54.2244 79.6708 55.092 80.43 55.9596C80.4808 56.0172 80.5316 56.0782 80.5418 56.1562V56.1528Z" fill="#FF8F97"/>
<path d="M79.5253 56.1527C79.5558 55.641 79.6811 55.7461 79.5795 55.8681C79.549 55.902 79.5253 55.9494 79.4981 55.9867C79.4507 56.0545 79.4032 56.1256 79.3558 56.1934C79.2406 56.3595 79.1186 56.5255 78.9966 56.6882C78.9762 56.7153 78.9525 56.7458 78.9322 56.7729C78.8474 56.8848 79.0474 56.6272 78.9593 56.739C78.9085 56.8034 78.8542 56.8712 78.8034 56.9356C78.6746 57.0949 78.5458 57.2508 78.4137 57.4067C77.929 57.9693 77.4139 58.5047 76.8649 59.0029C76.5904 59.2537 76.3091 59.4943 76.021 59.7282C75.9464 59.7892 75.8719 59.8468 75.7973 59.9078C75.7397 59.9552 75.6618 59.9654 75.8312 59.8807C75.8007 59.8942 75.7736 59.9247 75.7465 59.9451C75.5838 60.0671 75.4211 60.1891 75.2517 60.3043C75.1873 60.3484 75.1094 60.389 75.0517 60.4365C74.9772 60.5009 75.1263 60.4094 75.1432 60.406C75.228 60.3856 75.3466 60.3924 75.4313 60.4161C75.4381 60.4161 75.6753 60.511 75.6753 60.5619C75.6753 60.5551 75.5838 60.4737 75.5872 60.4771C75.5364 60.4263 75.5126 60.3382 75.6313 60.5381C75.6042 60.4941 75.5669 60.4534 75.5364 60.4127C75.2856 60.0738 75.045 59.7315 74.8111 59.3791C74.5773 59.0266 74.3672 58.6945 74.1536 58.3454C74.052 58.176 73.9503 58.0065 73.852 57.8371C73.8012 57.7456 73.747 57.6541 73.6961 57.5626C73.6555 57.488 73.5673 57.3796 73.5606 57.2982C73.5775 57.4677 73.5978 57.4101 73.5809 57.3321C73.5775 57.3152 73.5436 57.1932 73.5402 57.1898C73.5538 57.1966 73.5402 57.3931 73.5538 57.2813C73.5606 57.2237 73.5979 57.1186 73.547 57.2406L73.5402 57.305C73.4792 57.4304 73.4657 57.4575 73.4996 57.3931C73.5131 57.3728 73.5436 57.3355 73.547 57.3118C73.5063 57.4541 73.4284 57.444 73.5097 57.3762C73.5233 57.3626 73.686 57.2304 73.5538 57.3321C73.4216 57.4338 73.6622 57.261 73.6894 57.244C73.7571 57.1966 73.8283 57.1525 73.8961 57.1051C74.0554 56.9966 74.2079 56.8814 74.3638 56.7662C75.0178 56.268 75.6347 55.7325 76.1905 55.1259C76.4853 54.8039 76.7564 54.465 77.0208 54.1193C77.0784 54.0448 77.136 53.9668 77.1936 53.8889C77.2072 53.8719 77.2919 53.7635 77.2105 53.8651C77.1292 53.9668 77.2241 53.8516 77.2444 53.8245C77.2919 53.7669 77.3427 53.7126 77.3936 53.6584C77.4207 53.6313 77.4478 53.6076 77.4749 53.5805C77.5901 53.4517 77.3292 53.6686 77.4037 53.6313C77.641 53.5127 77.2309 53.672 77.3597 53.6347C77.4444 53.611 77.4851 53.6482 77.1936 53.655C77.3393 53.6516 76.9326 53.6008 77.0445 53.6313C77.2173 53.6754 76.8073 53.4856 76.997 53.6144C77.1868 53.7431 76.8649 53.4856 76.9835 53.6008C77.2919 53.899 77.5698 54.2244 77.8511 54.5463C78.1764 54.9157 78.4984 55.2851 78.8237 55.6579C78.9898 55.8477 79.1558 56.0375 79.3219 56.2307C79.3965 56.3154 79.471 56.4001 79.5456 56.4849C79.5829 56.5255 79.6168 56.5696 79.6574 56.6103C79.8065 56.7695 79.5761 56.4781 79.5625 56.4205C79.6879 56.939 80.3013 57.2948 80.8131 57.1322C81.3485 56.9593 81.6569 56.434 81.5248 55.8816C81.4434 55.5461 81.2062 55.2987 80.9859 55.0479C80.8199 54.8581 80.6538 54.6683 80.4877 54.4752C80.1556 54.0956 79.8201 53.7126 79.488 53.3331C78.922 52.6858 78.3221 51.7707 77.4003 51.6487C76.8683 51.5776 76.4006 51.808 76.021 52.1672C75.838 52.3367 75.6889 52.5434 75.5398 52.74C75.4788 52.8213 75.4178 52.9027 75.3568 52.984C75.2144 53.1772 75.4584 52.8586 75.3601 52.9772C75.3229 53.0247 75.2856 53.0721 75.2483 53.1196C74.7027 53.7906 74.0893 54.4074 73.4182 54.953C73.381 54.9835 73.3437 55.014 73.3064 55.0445C73.1641 55.1598 73.3166 55.031 73.3403 55.0174C73.2488 55.0615 73.1607 55.153 73.0793 55.2106C72.8997 55.3394 72.7133 55.458 72.5337 55.5868C71.9779 55.9799 71.5814 56.4442 71.5238 57.1491C71.4763 57.732 71.761 58.2777 72.0389 58.7691C72.266 59.169 72.5032 59.5621 72.7506 59.9518C72.998 60.3416 73.2725 60.7415 73.547 61.1278C73.8927 61.6091 74.2316 62.1818 74.8315 62.3648C75.472 62.5614 76.0074 62.2631 76.5056 61.9005C76.8954 61.6158 77.2749 61.321 77.6477 61.0126C78.3831 60.3992 79.0745 59.7315 79.7049 59.0097C80.0641 58.603 80.3996 58.1794 80.725 57.7456C81.0876 57.2677 81.518 56.7763 81.5553 56.1561C81.5858 55.6241 81.0673 55.1157 80.5386 55.1394C79.9624 55.1665 79.5558 55.5868 79.5219 56.1561L79.5253 56.1527Z" fill="black"/>
<path d="M49.3151 74.8432C49.0271 74.8432 48.739 74.8432 48.4509 74.8364C47.6104 74.8229 46.77 74.8195 45.9295 74.8195C45.0043 74.8195 44.0791 74.8229 43.1539 74.8297C42.2253 74.8331 41.2967 74.8398 40.3681 74.8398C38.4126 74.8398 35.837 74.8195 33.2715 74.6602C33.1156 74.65 32.9597 74.6365 32.8004 74.6229C32.675 74.6128 32.553 74.6026 32.4276 74.5924C27.2289 74.24 26.3985 73.4808 25.6123 68.3566C23.8703 57.0102 23.7924 44.7928 25.3683 31.0062C25.8055 27.2003 27.6627 25.089 31.3906 24.1604C36.2369 22.9539 41.1916 22.4659 45.4008 22.1439C45.7126 22.1202 47.3698 22.0321 49.7659 22.0321C54.1445 22.0321 60.1261 22.3269 63.732 23.7266C66.1484 24.662 67.6023 26.6716 68.1852 29.8675C69.2019 35.4594 68.9477 41.1089 68.7037 46.5754L68.6969 46.7414C68.5716 49.5272 68.5377 52.374 68.5072 55.1293C68.4563 59.5486 68.4055 64.117 67.9683 68.6244C67.9243 69.092 67.8565 69.5326 67.7819 70.024C67.3244 72.9759 66.145 74.0536 63.2813 74.1519C61.3902 74.2163 59.4619 74.3484 57.5979 74.4738C54.8935 74.6568 52.0975 74.8466 49.3151 74.8466V74.8432Z" fill="white"/>
<path d="M49.7727 23.2216C53.8598 23.2216 59.8448 23.4894 63.3084 24.8348C65.6028 25.7261 66.5958 27.7324 67.0228 30.081C68.0259 35.5949 67.765 41.1462 67.5142 46.6906C67.1855 53.9601 67.4939 61.2532 66.7923 68.5091C66.7483 68.9531 66.6805 69.3971 66.6127 69.841C66.2535 72.1659 65.5858 72.8844 63.2406 72.9657C58.5943 73.125 53.9717 73.6571 49.3151 73.6571C49.0339 73.6571 48.7492 73.6571 48.4679 73.6503C47.624 73.6367 46.7768 73.6333 45.9329 73.6333C44.0791 73.6333 42.2219 73.6537 40.3681 73.6537C38.0263 73.6537 35.6845 73.6198 33.3461 73.4741C33.0682 73.4571 32.7869 73.4266 32.509 73.4097C27.8389 73.0945 27.4898 72.7691 26.7849 68.177C24.8905 55.841 25.1311 43.5083 26.5477 31.1418C26.9306 27.79 28.432 26.1192 31.6787 25.3126C36.2369 24.1773 40.8426 23.6825 45.4923 23.3301C45.8685 23.303 47.5359 23.2216 49.7693 23.2216M46.8479 25.7668C47.0309 25.7058 47.214 25.6516 47.397 25.5939C47.2207 25.6041 47.0479 25.6109 46.8717 25.621C46.8649 25.6685 46.8581 25.7159 46.8479 25.7668ZM49.7727 20.8493C47.5562 20.8493 45.8109 20.9273 45.3161 20.9645C41.0595 21.2865 36.0437 21.7847 31.1093 23.0115C26.8866 24.0621 24.6905 26.5598 24.1957 30.874C22.6063 44.769 22.6876 57.0881 24.4431 68.5396C24.8396 71.1187 25.2022 72.9047 26.5612 74.1485C27.9202 75.3922 29.7368 75.6024 32.3497 75.7786C32.4683 75.7854 32.5835 75.7955 32.7022 75.8057C32.8682 75.8193 33.0343 75.8328 33.2003 75.843C35.7997 76.0057 38.3991 76.026 40.3715 76.026C41.3035 76.026 42.2355 76.0192 43.1675 76.0158C44.0893 76.0124 45.0145 76.0057 45.9363 76.0057C46.8581 76.0057 47.685 76.0124 48.4374 76.0226C48.7322 76.026 49.0237 76.0294 49.3185 76.0294C52.1416 76.0294 54.9545 75.8396 57.6793 75.6566C59.5364 75.5312 61.4546 75.4024 63.3288 75.338C66.7822 75.2194 68.4157 73.7316 68.9613 70.207C69.0359 69.719 69.107 69.2412 69.1579 68.7396C69.5984 64.1847 69.6527 59.5892 69.7035 55.1428C69.734 52.4011 69.7679 49.5645 69.8899 46.7957L69.8967 46.6296C70.1475 41.0987 70.405 35.378 69.3612 29.654C68.7071 26.0718 66.9618 23.7029 64.1692 22.6218C60.3905 21.1577 54.2563 20.8493 49.7761 20.8493H49.7727Z" fill="black"/>
<path d="M46.8483 25.7668C47.0449 24.8416 46.5806 24.6348 45.5707 24.7128C41.1649 25.0483 36.8067 25.516 32.489 26.5903C29.4152 27.3562 27.9952 28.9389 27.6326 32.111C26.2905 43.8201 26.0635 55.5021 27.8563 67.1806C28.5239 71.5287 28.8526 71.8338 33.2753 72.1354C33.5396 72.1523 33.804 72.1794 34.0683 72.1964C38.8401 72.4946 43.6152 72.2913 48.387 72.3625C53.0706 72.4302 57.7102 71.8744 62.3768 71.7118C64.5967 71.6338 65.227 70.956 65.5693 68.7531C65.6337 68.3329 65.6981 67.9127 65.7388 67.4924C66.4064 60.6195 66.1149 53.716 66.4233 46.8329C66.6606 41.5867 66.908 36.327 65.959 31.1079C65.5524 28.8847 64.6136 26.9834 62.4412 26.1396C57.3679 24.1705 52.2199 23.9672 46.8517 25.7702L46.8483 25.7668Z" fill="#080808"/>
<path d="M63.3086 24.8348C65.6029 25.7261 66.5959 27.7324 67.0229 30.081C68.0261 35.5949 67.7651 41.1462 67.5144 46.6906C67.1856 53.9601 67.494 61.2532 66.7925 68.5091C66.7484 68.9531 66.6806 69.3971 66.6129 69.841C66.2536 72.1659 65.586 72.8844 63.2408 72.9657C58.3132 73.1352 53.4126 73.7248 48.468 73.6537C43.4286 73.5791 38.3823 73.7926 33.3462 73.4774C33.0683 73.4605 32.787 73.43 32.5091 73.4131C27.8391 73.0979 27.49 72.7725 26.7851 68.1804C24.8906 55.8477 25.1312 43.5117 26.5478 31.1452C26.9308 27.7934 28.4321 26.1226 31.6788 25.316C36.2371 24.1807 40.8427 23.6859 45.4925 23.3335C46.56 23.2521 57.9471 22.7573 63.3052 24.8382L63.3086 24.8348ZM35.7118 27.0478C31.4687 27.7121 29.3506 30.2267 28.8761 34.4088C28.117 41.075 28.4321 47.7209 28.9778 54.3701C29.1743 56.7763 29.7844 59.0504 31.7229 60.6737C33.4208 62.0971 35.5728 62.4801 37.6638 62.7986C43.354 63.6662 49.0679 63.2663 54.7648 62.8054C59.0147 62.4597 61.6276 60.0569 62.8782 56.0714C65.0844 49.046 65.3217 41.8172 64.5151 34.6087C63.8576 28.739 61.3023 26.6411 55.4155 25.8651C48.7561 24.9839 42.2221 25.9566 35.7118 27.0478Z" fill="white"/>
<path d="M42.6288 46.2229C42.0696 43.8947 42.5576 41.7867 44.0149 39.9058C44.9435 38.7095 46.1771 38.1164 47.6852 38.357C49.1594 38.5908 50.0135 39.638 50.532 40.9428C51.4063 43.1423 50.4337 46.938 48.6409 48.541C46.3059 50.6253 43.5235 49.5543 42.6288 46.2229Z" fill="white"/>
<path d="M44.9976 33.3582C45.0484 34.2461 44.7502 34.8934 43.808 35.0798C42.8354 35.273 42.1135 34.8833 41.8797 33.9411C41.6729 33.104 42.1813 32.5719 42.9845 32.3347C43.9707 32.0433 44.5773 32.5042 44.9976 33.3582Z" fill="white"/>
<path d="M51.4162 33.8191C51.6365 34.7815 51.2433 35.3543 50.4876 35.6322C49.7013 35.9203 48.9625 35.6491 48.6948 34.8697C48.4067 34.036 48.7626 33.348 49.6776 33.0565C50.5452 32.7786 51.0298 33.27 51.4196 33.8191H51.4162Z" fill="white"/>
<path d="M65.0845 73.7892C65.0778 77.1918 56.7306 78.7982 46.4381 78.7745C36.1457 78.7508 27.8053 77.6731 27.8154 73.7079C27.8222 70.9323 36.1694 68.6989 46.4618 68.7227C56.7543 68.7464 65.0913 71.0136 65.0845 73.7892Z" fill="white"/>
<path d="M46.6515 79.6489H46.4346C32.9429 79.6218 26.9273 77.7883 26.9375 73.7045C26.9409 71.8778 28.998 70.4036 33.0513 69.3191C36.6098 68.3668 41.3104 67.8449 46.3058 67.8449H46.4617C51.5147 67.8551 56.2729 68.4007 59.8619 69.3767C63.9118 70.4782 65.9621 71.9626 65.9587 73.7893C65.9553 75.8667 63.8914 77.4223 59.8246 78.4153C56.5169 79.2219 51.9654 79.6489 46.6515 79.6489ZM46.3058 69.597C41.4595 69.597 36.9182 70.0986 33.5054 71.0103C29.7063 72.027 28.6896 73.1826 28.6896 73.7079C28.6862 75.6024 31.7635 77.8629 46.4413 77.8968C46.5125 77.8968 46.5837 77.8968 46.6549 77.8968C51.8299 77.8968 56.239 77.4867 59.4111 76.714C62.4579 75.9684 64.2066 74.9042 64.21 73.7859C64.21 73.2606 63.2001 72.1015 59.4044 71.0679C55.9577 70.1325 51.3622 69.6106 46.4583 69.6004C46.4075 69.6004 46.3566 69.6004 46.3058 69.6004V69.597Z" fill="black"/>
<path d="M30.6283 72.3591V72.437C30.6351 68.682 30.6453 64.9304 30.6521 61.1753L30.7537 61.9989C30.2826 60.5348 31.0757 59.1894 31.9229 58.3353C32.0619 58.193 32.2246 58.115 32.3771 57.9964C32.4584 57.932 32.516 57.8609 32.6041 57.81C32.6821 57.7626 32.7668 57.7287 32.8447 57.6812C33.0074 57.583 33.1769 57.5084 33.3429 57.4271C33.6784 57.261 34.0275 57.0916 34.3766 56.9695C35.3458 56.6306 36.3049 56.2985 37.3081 56.146C37.63 56.0986 37.9418 56.0071 38.2638 55.9596C38.6129 55.9088 38.9687 55.8749 39.3178 55.8579C39.9448 55.8274 40.5717 55.7461 41.1987 55.719C41.585 55.7021 41.968 55.7224 42.3543 55.6885C42.6322 55.6614 42.9135 55.6783 43.1948 55.6783C44.3945 55.6783 45.5943 55.6851 46.794 55.6851H46.2348C47.4345 55.6851 48.6342 55.6851 49.8339 55.6919C50.1118 55.6919 50.3931 55.6783 50.6744 55.7054C51.0607 55.7427 51.4437 55.7224 51.8301 55.7427C52.457 55.7732 53.084 55.8579 53.711 55.8884C54.06 55.9054 54.4193 55.9393 54.765 55.9935C55.0835 56.0443 55.3987 56.1358 55.7207 56.1833C56.7204 56.3358 57.6795 56.6747 58.6488 57.017C58.9945 57.139 59.3435 57.3085 59.679 57.4779C59.8451 57.5626 60.0145 57.6372 60.1772 57.7355C60.2552 57.7829 60.3365 57.8202 60.4178 57.8642C60.5026 57.9151 60.5636 57.9896 60.6415 58.0506C60.7906 58.1693 60.9533 58.2506 61.0923 58.3929C61.9361 59.247 62.7224 60.5992 62.2445 62.0599L62.3903 61.3312C62.3801 65.6116 62.3801 66.5029 62.3699 70.7832L62.1361 72.4201C61.8921 73.0471 61.482 73.5961 61.0584 74.0231C60.9194 74.1654 60.7567 74.2434 60.6042 74.362C60.5229 74.4264 60.4653 74.4976 60.3772 74.5484C60.2992 74.5959 60.2145 74.6297 60.1366 74.6772C59.9739 74.7755 59.8044 74.85 59.6384 74.9314C59.3029 75.0974 58.9538 75.2669 58.6047 75.3889C57.6355 75.7278 56.6764 76.0599 55.6732 76.2124C55.3513 76.2599 55.0395 76.3514 54.7175 76.3988C54.3684 76.4496 54.0126 76.4835 53.6635 76.5005C53.0366 76.531 52.4096 76.6123 51.7826 76.6394C51.3963 76.6564 51.0133 76.636 50.627 76.6699C50.3491 76.6971 50.0678 76.6801 49.7865 76.6801C48.5868 76.6801 47.387 76.6733 46.1873 76.6733H46.7465C45.5468 76.6733 44.3471 76.6733 43.1474 76.6665C42.8695 76.6665 42.5882 76.6801 42.3069 76.653C41.9206 76.6157 41.5376 76.636 41.1512 76.6157C40.5243 76.5852 39.8973 76.5005 39.2703 76.47C38.9213 76.453 38.562 76.4192 38.2164 76.3649C37.8978 76.3141 37.5826 76.2226 37.2606 76.1751C36.2609 76.0226 35.3018 75.6837 34.3325 75.3414C33.9868 75.2194 33.6378 75.05 33.3023 74.8805C33.1362 74.7958 32.9668 74.7213 32.8041 74.623C32.7261 74.5755 32.6448 74.5382 32.5635 74.4942C32.4787 74.4433 32.4177 74.3688 32.3398 74.3078C32.1907 74.1892 32.028 74.1078 31.889 73.9655C31.0452 73.1115 30.2589 71.7592 30.7368 70.2986L30.6283 72.3591Z" fill="white"/>
<path d="M57.1403 65.8318C57.6216 65.8217 58.0621 65.6116 58.5197 65.4929C58.9263 65.3845 59.3296 65.276 59.7295 65.1371C60.1633 64.988 60.6073 64.8728 61.0038 64.6355C61.3529 64.4288 61.6816 64.1339 61.9968 63.8764C62.6712 63.324 63.166 62.5886 63.3151 61.721C63.488 60.7212 63.288 59.7384 62.8 58.8505C62.5933 58.4743 62.3289 58.1252 62.051 57.7999C61.8816 57.6033 61.7053 57.4338 61.4918 57.278C61.4173 57.2237 61.3393 57.1695 61.2614 57.1187C61.1292 57.0306 61.3088 57.1356 61.302 57.1492C61.3054 57.139 61.18 57.0373 61.1733 57.0339C60.8005 56.7255 60.3328 56.5256 59.899 56.3155C59.4211 56.085 58.9263 55.8986 58.4282 55.7258C57.9842 55.5733 57.5402 55.4242 57.0895 55.3022C56.6388 55.1801 56.205 55.1124 55.7576 55.0209C55.2289 54.9124 54.7104 54.8141 54.1715 54.7633C53.6971 54.7192 53.2192 54.6989 52.7414 54.6549C50.5893 54.4583 48.4102 54.5328 46.248 54.5295C45.7329 54.5295 45.2381 54.9836 45.2618 55.5157C45.2855 56.0477 45.6956 56.4985 46.248 56.5019C46.4344 56.5019 46.6208 56.5019 46.8072 56.5019C47.3223 56.5019 47.8171 56.0477 47.7934 55.5157C47.7697 54.9836 47.3596 54.5328 46.8072 54.5295C45.8312 54.5295 44.8551 54.5261 43.8791 54.5227C42.903 54.5193 41.9643 54.5125 41.012 54.5735C39.0768 54.6921 37.1349 54.8717 35.2777 55.458C34.3254 55.7597 33.39 56.1087 32.5055 56.5764C32.2852 56.695 32.0717 56.8103 31.8752 56.9696C31.8447 56.9933 31.8142 57.017 31.787 57.0441C31.6718 57.1526 31.8209 57.017 31.8413 57.0102C31.7532 57.0306 31.6278 57.1559 31.5532 57.2102C31.1499 57.5084 30.8347 57.8981 30.5399 58.3048C30.0146 59.0335 29.6791 59.9146 29.6486 60.8161C29.6113 61.8023 29.9807 62.7614 30.6619 63.4697C30.9195 63.734 31.2177 63.9543 31.5058 64.1848C31.9599 64.5508 32.414 64.7982 32.9732 64.971C33.4273 65.1134 33.8747 65.2998 34.3356 65.4014C34.8507 65.5167 35.3455 65.7675 35.881 65.781C36.4164 65.7946 36.8875 65.3201 36.8672 64.7948C36.8469 64.2695 36.4334 63.8255 35.881 63.8086C35.6844 63.8052 35.9352 63.8086 35.9352 63.8188C35.9352 63.8154 35.8166 63.7849 35.7963 63.7781C35.7048 63.7476 35.6132 63.7103 35.5217 63.6832C35.3387 63.629 35.1456 63.5578 34.9592 63.5171C34.5864 63.4392 34.2136 63.3104 33.851 63.185C33.6815 63.1274 33.5087 63.0766 33.3392 63.019C33.2952 63.0054 33.2545 62.9885 33.2138 62.9749C33.041 62.9139 33.2477 62.9783 33.2579 62.9952C33.2206 62.9376 33.0173 62.8698 32.9529 62.8326C32.797 62.7411 33.0884 62.9478 32.919 62.8122C32.858 62.7648 32.8004 62.7173 32.7394 62.6699C32.6106 62.5682 32.4818 62.4665 32.353 62.3615C32.2412 62.2666 32.1327 62.1683 32.0311 62.0599C32.0039 62.0328 31.9768 62.0023 31.9497 61.9717C31.9192 61.9379 31.865 61.8328 31.9328 61.9548C32.0005 62.0768 31.9429 61.9684 31.9192 61.9311C31.8887 61.887 31.8616 61.8464 31.8345 61.8023C31.7972 61.7413 31.7633 61.6261 31.7159 61.5752C31.7362 61.5956 31.7904 61.7887 31.7396 61.6227C31.726 61.5752 31.7091 61.5312 31.6955 61.4837C31.6684 61.3888 31.6481 61.2906 31.6244 61.1923C31.6176 61.1652 31.604 61.0432 31.621 61.1787C31.6413 61.3346 31.621 61.1279 31.6176 61.0974C31.6108 61.0025 31.6108 60.911 31.6176 60.8161C31.6176 60.7686 31.6244 60.7246 31.6278 60.6771C31.6379 60.4772 31.6176 60.7348 31.6176 60.7348C31.5939 60.6941 31.6583 60.5145 31.6718 60.467C31.6955 60.3687 31.726 60.2705 31.7565 60.1756C31.7701 60.1315 31.7904 60.0908 31.8006 60.0502C31.8311 59.9485 31.7667 60.1281 31.7633 60.1281C31.8074 60.0536 31.8379 59.9654 31.8785 59.8875C31.9633 59.7214 32.0616 59.5588 32.1666 59.4063C32.1903 59.369 32.2174 59.3351 32.2412 59.2978C32.2615 59.2673 32.3428 59.1487 32.2615 59.2673C32.1802 59.3859 32.2615 59.2673 32.2852 59.2402C32.3123 59.2063 32.3395 59.1758 32.3666 59.1419C32.414 59.0877 32.4615 59.0335 32.5123 58.9792C32.5394 58.9487 32.5665 58.9182 32.597 58.8911C32.6207 58.8674 32.6411 58.8437 32.6648 58.8233C32.719 58.7725 32.6987 58.7895 32.6038 58.864C32.6479 58.8064 32.7461 58.7691 32.8071 58.7251C32.9291 58.6403 33.0478 58.5488 33.1596 58.4506C33.3257 58.3014 32.9834 58.5488 33.207 58.4268C33.3053 58.376 33.4002 58.3184 33.4985 58.2675C33.6883 58.1659 33.8815 58.0778 34.0746 57.9829C34.1594 57.9422 34.2441 57.9015 34.3322 57.8609C34.383 57.8371 34.4305 57.8168 34.4813 57.7931C34.5898 57.7422 34.3288 57.8473 34.505 57.7863C34.9083 57.6406 35.315 57.4982 35.7251 57.3695C36.5588 57.1017 37.406 56.9492 38.2601 56.773C38.3651 56.7527 38.4736 56.7323 38.5786 56.7154C38.7244 56.6917 38.4092 56.7323 38.5583 56.7154C38.6125 56.712 38.6668 56.7018 38.721 56.6984C38.9514 56.6747 39.1819 56.6612 39.4123 56.651C39.8495 56.6273 40.2867 56.5798 40.7205 56.5459C41.7135 56.468 42.7133 56.4748 43.7096 56.4748C44.706 56.4748 45.7735 56.4781 46.8038 56.4815V54.5125C46.6174 54.5125 46.431 54.5125 46.2446 54.5125V56.4815C48.0544 56.4849 49.8641 56.4815 51.6704 56.5324C52.1076 56.5425 52.5448 56.59 52.982 56.6307C53.4192 56.6713 53.853 56.6849 54.2868 56.7289C54.341 56.7357 54.3952 56.7425 54.4494 56.7459C54.6426 56.7662 54.463 56.7425 54.4291 56.7459C54.5308 56.7459 54.6494 56.7832 54.7477 56.8001C54.9713 56.8475 55.195 56.9018 55.4221 56.9424C55.8423 57.0136 56.2592 57.1017 56.6693 57.217C57.0793 57.3322 57.5131 57.4779 57.93 57.6236C58.1198 57.6914 58.3129 57.7558 58.4993 57.827C58.5264 57.8371 58.6857 57.9015 58.5671 57.8507C58.4485 57.7999 58.6078 57.8676 58.6349 57.8812C58.7467 57.932 58.8552 57.9829 58.967 58.0371C59.1602 58.132 59.3534 58.2235 59.5398 58.3218C59.6177 58.3624 59.6923 58.4099 59.7702 58.4506C59.8109 58.4709 59.8482 58.498 59.8888 58.5149C60.0074 58.5624 59.7329 58.3692 59.8549 58.4878C59.9634 58.5895 60.0786 58.6776 60.2006 58.7623C60.2345 58.7861 60.3938 58.9284 60.4311 58.9216C60.4006 58.9284 60.2684 58.7657 60.3972 58.9047C60.4243 58.9352 60.4548 58.9623 60.4819 58.9928C60.5395 59.0538 60.5937 59.1148 60.648 59.1758C60.6886 59.2233 60.7971 59.3148 60.8106 59.3724C60.7937 59.2876 60.7056 59.23 60.7734 59.3283C60.7971 59.3656 60.8242 59.3995 60.8479 59.4334C60.953 59.5893 61.0513 59.7485 61.136 59.9146C61.1563 59.9553 61.1767 59.9926 61.197 60.0332C61.2139 60.0671 61.2682 60.2027 61.2173 60.0671C61.1665 59.9316 61.2105 60.0502 61.2173 60.0739C61.2343 60.1146 61.2478 60.1586 61.2648 60.1993C61.3292 60.3823 61.3698 60.5687 61.4071 60.7585C61.4342 60.894 61.3935 60.5619 61.3969 60.7009C61.3969 60.7483 61.4037 60.7924 61.4071 60.8398C61.4105 60.9347 61.4105 61.0262 61.4071 61.1211C61.4071 61.1686 61.4003 61.216 61.3969 61.2634C61.3902 61.3753 61.4037 61.1855 61.4071 61.1787C61.3664 61.2092 61.3427 61.4803 61.3224 61.5413C61.3088 61.5888 61.2919 61.6328 61.2783 61.6803C61.2444 61.782 61.2105 61.7244 61.302 61.6328C61.258 61.6769 61.2309 61.7786 61.197 61.8328C61.1767 61.8701 61.1529 61.904 61.1326 61.9379C61.0987 61.9887 61.0208 62.0328 61.1224 61.9616C61.2241 61.8904 61.1428 61.9379 61.1055 61.9785C61.075 62.0158 61.0411 62.0531 61.0072 62.0904C60.7666 62.3445 60.4853 62.5547 60.2108 62.7716C60.1803 62.7953 60.1498 62.819 60.1193 62.8427C60.1057 62.8529 59.9668 62.9783 60.0752 62.88C60.1769 62.7885 60.065 62.88 60.0345 62.9003C59.9837 62.9308 59.9363 62.958 59.8854 62.9851C59.8685 62.9918 59.7871 63.0461 59.76 63.0461C59.8787 62.9986 59.9058 62.9851 59.838 63.0122C59.8075 63.0257 59.7736 63.0359 59.7431 63.0461C59.6618 63.0766 59.577 63.1003 59.4957 63.1274C59.0619 63.2596 58.6349 63.429 58.1943 63.5341C57.9944 63.5815 57.7978 63.6493 57.5978 63.6968C57.4928 63.7205 57.3911 63.7578 57.2894 63.7917C57.2454 63.8086 57.1979 63.8188 57.1505 63.8357C56.9641 63.9035 57.3437 63.8357 57.1369 63.8425C56.6218 63.8527 56.127 64.2865 56.1507 64.8287C56.1745 65.3709 56.5845 65.8251 57.1369 65.8149L57.1403 65.8318Z" fill="black"/>
<path d="M53.772 64.9202C53.5279 64.9609 53.2805 65.0015 53.0365 65.0422C52.9281 65.0591 52.8196 65.0761 52.7078 65.093C52.6536 65.0998 52.5994 65.11 52.5451 65.1167C52.2706 65.1574 52.7552 65.093 52.4773 65.1269C51.9961 65.1845 51.5216 65.2049 51.037 65.2049C50.0711 65.2049 49.1053 65.2015 48.1394 65.1981H46.6787C46.4313 65.1947 46.1873 65.1913 45.9399 65.1981C45.8383 65.1981 45.7366 65.2015 45.6349 65.1981C45.6146 65.1981 45.4824 65.1947 45.4824 65.1913C45.6044 65.2083 45.6281 65.2116 45.5536 65.2015C45.4519 65.1879 45.3536 65.1744 45.2519 65.1608C45.1503 65.1506 45.0486 65.1506 44.9436 65.1472C44.93 65.1472 44.8114 65.154 44.791 65.1405C44.8792 65.1981 44.9402 65.1608 44.8283 65.1472C44.6623 65.1269 44.4962 65.0964 44.3267 65.1032C44.1878 65.1066 44.5199 65.1405 44.3911 65.11C44.2624 65.0795 44.1302 65.0659 43.998 65.0524H43.9641C43.876 65.0422 43.876 65.0422 43.9641 65.0524L44.0319 65.0625C43.9878 65.0557 43.9472 65.049 43.9031 65.0422C43.8625 65.0354 43.4897 64.9439 43.4354 65.0015C43.4456 64.9914 43.6862 65.0388 43.4727 65.0015C43.3643 64.9846 43.2456 64.9676 43.1338 64.9575C43.0016 64.9439 42.8695 64.9337 42.7373 64.927C42.7034 64.927 42.3408 64.9202 42.3408 64.91C42.3408 64.9168 42.5407 64.9405 42.3848 64.91C42.2493 64.8863 42.1103 64.8694 41.9748 64.8592C41.9205 64.8558 41.7816 64.866 42.0222 64.8694C41.89 64.8694 41.7545 64.8219 41.6189 64.8117C41.4935 64.8016 41.3681 64.805 41.2427 64.7948C41.1173 64.7846 40.9919 64.7643 40.8699 64.7473C40.8191 64.7406 40.7717 64.7338 40.7208 64.7304C40.5277 64.7101 40.8394 64.7711 40.7344 64.7304C40.6293 64.6897 40.4599 64.6694 40.3751 64.666H40.3074C40.2193 64.666 40.2159 64.6694 40.3074 64.683L40.3718 64.6965C40.3311 64.6897 40.287 64.6796 40.2464 64.6728C40.1176 64.6491 39.9854 64.6321 39.8532 64.6219V66.591H39.9481C40.4633 66.591 40.9581 66.1368 40.9343 65.6048C40.9106 65.0727 40.5005 64.6219 39.9481 64.6186H39.8532C39.3381 64.6186 38.8433 65.0727 38.867 65.6048C38.8908 66.1707 39.3008 66.5503 39.8532 66.591C39.616 66.574 39.7211 66.5706 39.7855 66.5842C39.8702 66.6011 39.9583 66.6113 40.043 66.6249C40.121 66.635 40.1955 66.652 40.2735 66.6384C40.3989 66.6215 40.0464 66.5639 40.243 66.6384C40.3887 66.696 40.5649 66.6825 40.7208 66.6994C40.8462 66.713 40.9682 66.7333 41.0936 66.7469C41.1919 66.7604 41.2936 66.7706 41.3952 66.774C41.4562 66.774 41.524 66.7808 41.585 66.7774H41.6223C41.4901 66.7604 41.463 66.757 41.5376 66.7706C41.5986 66.7198 41.8019 66.8248 41.907 66.8214C41.9544 66.8214 42.1069 66.8316 41.8663 66.8045C42.0527 66.8248 42.2357 66.8655 42.4255 66.8757C42.6492 66.8892 42.8729 66.8994 43.0999 66.9163H43.1406C43.022 66.9028 43.0016 66.9028 43.0762 66.9163C43.144 66.9807 43.31 66.9536 43.4117 66.9638C43.4287 66.9638 43.5812 66.9705 43.5812 66.9705C43.5812 66.957 43.3338 66.9333 43.5473 66.9638C43.6659 66.9807 43.7845 67.0078 43.9065 67.0112C44.0658 67.018 43.8387 67.0078 43.8421 66.9977C43.8455 66.9875 44.2488 67.062 44.2996 67.0654C44.3437 67.0654 44.3911 67.0722 44.4386 67.0688H44.5064C44.3708 67.0485 44.3403 67.0451 44.4216 67.0553C44.4284 67.0485 44.9029 67.1095 44.991 67.1095C45.0418 67.1095 45.0961 67.1163 45.1435 67.1129C45.296 67.0993 44.9063 67.0756 45.1503 67.1061C45.313 67.1264 45.4756 67.1536 45.6383 67.1569C45.8755 67.1637 46.1094 67.1569 46.3466 67.1569H47.8513C48.8308 67.1637 49.8136 67.1637 50.793 67.1671C51.3454 67.1671 51.891 67.1637 52.4401 67.0959C53.0637 67.0214 53.6804 66.9129 54.3006 66.8113C54.809 66.7265 55.1411 66.0691 54.9886 65.6014C54.809 65.049 54.3244 64.8253 53.7787 64.9134L53.772 64.9202Z" fill="black"/>
<path d="M29.6893 60.9991C29.6825 63.6256 29.6791 66.2521 29.6723 68.8752C29.6723 69.6648 29.6723 70.4545 29.6689 71.2441C29.6689 71.7593 30.1231 72.2541 30.6551 72.2303C31.1872 72.2066 31.638 71.7965 31.6414 71.2441V71.1662C31.6414 70.651 31.1872 70.1563 30.6551 70.18C30.1231 70.2037 29.6723 70.6138 29.6689 71.1662V71.2441H31.638C31.6447 68.6176 31.6481 65.9911 31.6549 63.368V60.9991C31.6617 60.484 31.2076 59.9892 30.6755 60.0129C30.1434 60.0366 29.6927 60.4467 29.6893 60.9991Z" fill="#231F20"/>
<path d="M61.421 61.1618C61.4143 64.1746 61.4075 67.1875 61.4007 70.2003C61.4007 70.6748 61.3905 71.1492 61.3838 71.6237C61.3838 71.6711 61.3838 71.7186 61.3838 71.766C61.3838 71.9694 61.4007 71.7321 61.3973 71.7254C61.4109 71.766 61.36 71.8609 61.3499 71.905C61.3194 72.0338 61.4312 71.766 61.36 71.8677C61.3194 71.9219 61.2922 71.9897 61.2584 72.0473C61.1601 72.21 61.0516 72.4235 60.9127 72.5557C60.9533 72.5048 61.0686 72.4065 60.9127 72.5557C60.8754 72.5997 60.8381 72.6472 60.8008 72.6912C60.7297 72.776 60.6551 72.8607 60.5806 72.942C60.5263 72.9996 60.4721 73.0606 60.4145 73.1182C60.3975 73.1352 60.262 73.2809 60.367 73.1759C60.4721 73.0708 60.3128 73.2097 60.2959 73.2199C60.1671 73.308 60.0417 73.3961 59.9231 73.4978C59.8926 73.5215 59.8621 73.5487 59.835 73.5758C59.6994 73.7012 60.018 73.4876 59.835 73.5622C59.6282 73.6503 59.4317 73.7791 59.2283 73.8774C58.9843 73.996 58.7437 74.1214 58.4963 74.2231C58.5302 74.2095 58.6793 74.1519 58.5099 74.2163C58.459 74.2332 58.4116 74.2536 58.3607 74.2705C58.2455 74.3112 58.1303 74.3518 58.0151 74.3891C57.7744 74.4739 57.5304 74.5552 57.2898 74.6331C56.8187 74.7823 56.3443 74.9178 55.863 75.0161C55.6394 75.0602 55.4157 75.0907 55.192 75.1347C54.9311 75.1855 54.6633 75.2771 54.3956 75.2906C54.4295 75.2906 54.6057 75.2669 54.4159 75.2872C54.3617 75.294 54.3075 75.3008 54.2532 75.3042C54.1177 75.3177 53.9821 75.3279 53.8466 75.3347C53.6026 75.3482 53.3552 75.3618 53.1111 75.3821C52.4876 75.4329 51.864 75.4872 51.2404 75.5007C50.183 75.5278 49.1223 75.5312 48.0615 75.5346C45.8247 75.5414 43.5778 75.5583 41.3411 75.4668C40.9852 75.4533 40.6328 75.4228 40.2769 75.3889C39.7753 75.3414 39.2704 75.3211 38.7654 75.2737C38.6976 75.2669 38.6299 75.2601 38.5621 75.2533C38.5078 75.2465 38.3825 75.2601 38.5824 75.2533C38.4807 75.2533 38.3621 75.2194 38.2638 75.1991C37.9995 75.1449 37.7352 75.0839 37.4708 75.0398C36.9963 74.9619 36.532 74.8433 36.0745 74.7043C35.5865 74.5586 35.1019 74.3891 34.624 74.2163C34.5664 74.196 34.2783 74.0977 34.4885 74.1688C34.3766 74.1316 34.2648 74.0672 34.1563 74.0163C33.9259 73.9079 33.6954 73.796 33.4718 73.6774C33.3735 73.6266 33.2786 73.569 33.1803 73.5181L33.1498 73.5012C33.0515 73.4436 33.0685 73.4605 33.1972 73.552C33.1939 73.5385 33.1159 73.4775 33.1125 73.4741C33.0007 73.3724 32.8753 73.2843 32.7533 73.1962C32.7058 73.1623 32.6584 73.1284 32.6109 73.0979C32.5533 73.0572 32.5737 73.0708 32.6719 73.142C32.6448 73.1182 32.6211 73.0945 32.5974 73.0674C32.4957 72.9657 32.2788 72.7895 32.2314 72.6539L32.3025 72.7488C32.2822 72.7217 32.2619 72.6946 32.2415 72.6675C32.2077 72.6201 32.1772 72.576 32.1433 72.5286C32.0789 72.4337 32.0179 72.3354 31.9603 72.2371C31.9128 72.1558 31.8721 72.0744 31.8315 71.9931C31.8247 71.9795 31.7264 71.7694 31.7942 71.9185C31.862 72.0676 31.7705 71.8541 31.7671 71.8406C31.6959 71.6406 31.6417 71.4339 31.6078 71.2272C31.5231 70.7188 30.8656 70.3867 30.3979 70.5392C29.8489 70.7188 29.6184 71.2034 29.7099 71.7491C29.876 72.7319 30.4284 73.6232 31.0927 74.3485C31.2757 74.545 31.4824 74.7043 31.7027 74.8568L31.7603 74.8975C31.8349 74.9517 31.8383 74.9517 31.7705 74.9009L31.723 74.8636C31.7501 74.8907 31.7806 74.9178 31.8078 74.9415C31.9365 75.0568 32.0721 75.1483 32.2212 75.2296C32.6652 75.4668 33.1091 75.7007 33.57 75.8972C34.5461 76.3175 35.5933 76.6665 36.6371 76.8767C37.1353 76.9783 37.6403 77.0902 38.1452 77.1613C38.7214 77.2427 39.2941 77.2698 39.8736 77.3206C42.2595 77.524 44.6555 77.5002 47.0482 77.5036C48.2479 77.5036 49.451 77.5036 50.6507 77.4799C51.0371 77.4731 51.42 77.4664 51.8064 77.4494C52.3113 77.4257 52.8163 77.3681 53.3213 77.3342C53.9008 77.2935 54.4735 77.263 55.0463 77.1681C56.0359 77.0088 57.0221 76.7919 57.9744 76.4802C58.9809 76.1514 59.9875 75.7718 60.8991 75.2262C60.8517 75.2533 61.2956 74.9551 61.2787 74.9246C61.2821 74.9314 61.072 75.0669 61.2414 74.9551C61.2787 74.928 61.3194 74.9043 61.3566 74.8771C61.5871 74.7145 61.7938 74.5382 61.9836 74.3315C62.3225 73.9587 62.6411 73.5554 62.9122 73.1284C63.1833 72.7014 63.3494 72.2473 63.3629 71.7321C63.3697 71.5152 63.3697 71.2983 63.3731 71.0814C63.4206 68.2618 63.3934 65.4387 63.3968 62.6191C63.3968 62.131 63.3968 61.6464 63.3968 61.1584C63.3968 60.6432 62.9427 60.1485 62.4106 60.1722C61.8786 60.1959 61.4278 60.606 61.4244 61.1584L61.421 61.1618Z" fill="black"/>
<path d="M48.2002 52.5333C48.3188 52.4859 48.4374 52.4282 48.5458 52.3605C48.9254 52.1232 49.2033 51.7437 49.3762 51.3336C49.7523 50.4321 49.6236 49.3646 49.1559 48.5038C48.6882 47.6463 47.9121 46.9821 47.0479 46.5212C46.8446 46.4127 46.6209 46.3111 46.3904 46.3449C46.16 46.3788 45.9736 46.5415 45.8041 46.7008C44.9806 47.4769 44.2181 48.3818 43.808 49.4493C43.4521 50.3643 43.3267 51.7471 44.235 52.4113C44.5841 52.6655 45.0213 52.7333 45.4212 52.8722C45.9804 53.0688 46.4141 53.0484 46.9699 52.879C47.3766 52.7536 47.8104 52.6892 48.2035 52.5299L48.2002 52.5333Z" fill="#FD4F44"/>
<path d="M47.2075 52.0114C47.2279 52.0182 47.2719 51.9945 47.2923 51.9877C47.3397 51.964 47.377 51.9267 47.4177 51.8928C47.5058 51.825 47.5837 51.7471 47.6379 51.6488C47.7633 51.4217 47.9023 51.0591 47.8345 50.7541C47.8074 50.6253 47.7871 50.5101 47.7362 50.3881C47.682 50.2593 47.6074 50.1339 47.5295 50.0187C47.4922 49.9644 47.4685 49.9068 47.4244 49.856C47.3736 49.795 47.316 49.7475 47.255 49.7001C47.1567 49.6221 47.0754 49.5239 46.9703 49.4527C46.9229 49.4188 46.8619 49.4019 46.8144 49.368C46.7704 49.3375 46.7331 49.2968 46.6822 49.2731C46.6416 49.2561 46.5975 49.2527 46.5535 49.2358C46.5094 49.2155 46.4789 49.1985 46.4281 49.1985C46.3332 49.1985 46.2552 49.2731 46.1807 49.3239C46.1298 49.3578 46.1027 49.4019 46.0587 49.4425C46.0315 49.4663 45.9977 49.4764 45.9705 49.5001C45.9367 49.5273 45.9095 49.5645 45.8757 49.595C45.774 49.6865 45.696 49.7984 45.6283 49.917C45.5977 49.9712 45.5503 50.0085 45.5198 50.0661C45.4893 50.1271 45.452 50.1746 45.4147 50.2288C45.3741 50.2898 45.3436 50.3542 45.3131 50.422C45.2927 50.466 45.269 50.5067 45.2487 50.5541C45.208 50.6558 45.1775 50.7642 45.1606 50.8693C45.1267 51.0726 45.0826 51.2997 45.1335 51.5064C45.1572 51.6047 45.2046 51.6996 45.2588 51.781C45.286 51.8216 45.3165 51.8623 45.347 51.903C45.3639 51.9233 45.3809 51.9436 45.4012 51.9606C45.4283 51.9809 45.4622 51.9809 45.4724 52.0114L45.5029 52.0385C45.8621 52.3503 46.3704 52.4181 46.8009 52.2114L47.2075 52.0148V52.0114Z" fill="#FFDD63"/>
<path d="M44.4182 53.8754C45.1638 54.36 46.0754 54.4955 46.9363 54.3125C47.6141 54.1668 48.18 53.7398 48.7629 53.3907C49.4407 52.984 49.9322 52.3164 50.227 51.5912C50.3897 51.1879 50.4846 50.7744 50.5218 50.3406C50.5591 49.9068 50.4676 49.4696 50.3592 49.0562C50.2507 48.6427 50.0406 48.2055 49.8068 47.8293C49.5729 47.4532 49.3594 47.0939 49.0273 46.816C48.7121 46.5517 48.424 46.2399 48.0817 46.0128C48.0072 45.9654 47.9292 45.9315 47.8513 45.8908C47.8276 45.8773 47.7564 45.8264 47.7395 45.8264C47.7395 45.8264 47.9089 45.962 47.8276 45.8942C47.6107 45.7112 47.326 45.4909 47.0311 45.4672C46.9261 45.457 47.0955 45.5011 47.1125 45.5079C47.0176 45.4638 46.9159 45.4164 46.8176 45.3825C46.6889 45.3384 46.5431 45.3181 46.4076 45.3147C46.1093 45.3045 45.7975 45.4028 45.5468 45.5655C45.3638 45.6841 45.1672 45.823 45.0113 45.9722C44.9808 46.0027 44.8012 46.1586 44.9401 46.0637C45.0587 45.9789 44.974 46.0365 44.9435 46.0501C44.869 46.0908 44.8113 46.1382 44.7402 46.1924C44.4013 46.4534 44.0691 46.8059 43.8455 47.1685C43.8048 47.2295 43.7472 47.3108 43.7302 47.382C43.7065 47.4701 43.7811 47.3278 43.7946 47.3108C43.7675 47.3447 43.7404 47.3786 43.7133 47.4125C43.5574 47.6091 43.432 47.8226 43.2897 48.0293C42.7542 48.8054 42.5475 49.7238 42.4526 50.6422C42.395 51.2048 42.4932 51.7437 42.7339 52.252C42.8186 52.435 42.9372 52.5977 43.0558 52.7604C43.1439 52.879 43.2287 53.0044 43.3303 53.1094C43.4422 53.2247 43.5811 53.2958 43.7133 53.3839L43.3473 53.0179C43.5947 53.3941 44.0454 53.628 44.4148 53.8787C44.8588 54.177 45.5603 53.977 45.8043 53.5127C46.0754 53.001 45.9128 52.4384 45.4383 52.1232C45.2146 51.9707 44.9876 51.8216 44.7639 51.6691L45.1299 52.0351C45.0248 51.8724 44.9028 51.7335 44.7402 51.6318C44.7266 51.6217 44.6961 51.5945 44.6758 51.5945C44.6182 51.5979 44.7402 51.6522 44.7673 51.6759C44.7198 51.6318 44.6792 51.5369 44.808 51.7369C44.791 51.7098 44.7673 51.6827 44.7469 51.6555C44.6995 51.5912 44.6521 51.5268 44.608 51.459C44.5978 51.442 44.4962 51.2624 44.4962 51.2624C44.5029 51.2624 44.5606 51.4454 44.5267 51.3336C44.5165 51.2963 44.5029 51.2624 44.4894 51.2285C44.4758 51.1946 44.4758 51.154 44.4623 51.1201C44.425 51.0184 44.4758 51.1879 44.469 51.2082C44.4928 51.1472 44.4555 50.9811 44.4589 50.91C44.4623 50.8388 44.4657 50.7608 44.4724 50.6829C44.4758 50.6456 44.4826 50.6083 44.486 50.5711C44.4962 50.4524 44.4758 50.6524 44.4758 50.6558C44.5063 50.6117 44.5029 50.4863 44.5097 50.4355C44.5267 50.3406 44.5402 50.2423 44.5606 50.1474C44.5911 50.0051 44.6351 49.8661 44.6792 49.7272C44.7402 49.5408 44.5978 49.8729 44.6859 49.717C44.7232 49.6492 44.7537 49.5815 44.7876 49.5137C44.8486 49.3781 44.9164 49.246 44.9977 49.1206C45.0791 48.9952 45.1943 48.8698 45.2485 48.7308C45.2824 48.6393 45.1943 48.7952 45.1841 48.8054C45.2079 48.7817 45.2248 48.7545 45.2451 48.7308C45.3333 48.619 45.4248 48.5105 45.4925 48.3851C45.5264 48.3241 45.5569 48.2631 45.5908 48.2021C45.6078 48.175 45.6789 48.0937 45.5908 48.192C45.4925 48.3004 45.601 48.1818 45.6213 48.1581C45.7128 48.0564 45.8179 47.9717 45.9128 47.8734C45.9331 47.8497 45.9568 47.8293 45.9772 47.8056C46.0822 47.6768 45.9433 47.8395 45.9094 47.8429C45.9839 47.8327 46.1161 47.7107 46.1602 47.6734C46.2381 47.6124 46.3059 47.5548 46.3737 47.4837C46.3838 47.4735 46.4347 47.4328 46.4381 47.4159C46.4381 47.4159 46.2686 47.5379 46.3567 47.4769C46.4076 47.4396 46.4584 47.4023 46.5092 47.365C46.5431 47.3413 46.5838 47.321 46.6177 47.2939C46.6651 47.2668 46.655 47.2702 46.5804 47.304C46.5364 47.3278 46.4923 47.3413 46.4415 47.3413C46.3669 47.3515 46.289 47.3515 46.2144 47.3312C46.2246 47.3312 45.9975 47.2397 46.1059 47.2803C46.2313 47.3312 46.3533 47.3922 46.4821 47.4294C46.4923 47.4294 46.5804 47.4633 46.5872 47.4565C46.5635 47.4769 46.4313 47.3718 46.4143 47.3617C46.2923 47.2769 46.3771 47.3345 46.4042 47.3549C46.4889 47.4227 46.5702 47.4904 46.655 47.5514C46.7634 47.6294 46.8956 47.7039 47.021 47.7582C47.1091 47.7954 46.96 47.7175 46.9532 47.7006C46.96 47.7209 47.0142 47.7548 47.0311 47.7683C47.0922 47.8226 47.1498 47.8802 47.2108 47.9344C47.3226 48.0395 47.4378 48.1377 47.5564 48.236C47.6141 48.2835 47.6683 48.3309 47.7225 48.3818C47.7496 48.4055 47.7733 48.4326 47.8005 48.4597C47.9191 48.5783 47.7632 48.4394 47.7733 48.4258C47.753 48.4563 48.0072 48.7986 48.0275 48.8291C48.119 48.9714 48.2038 49.1206 48.2783 49.2731C48.2953 49.307 48.3122 49.3442 48.3291 49.3781C48.3868 49.4866 48.2986 49.3137 48.3054 49.3137C48.3325 49.3239 48.3698 49.5001 48.3766 49.5306C48.424 49.7001 48.4545 49.8763 48.4952 50.0491C48.5359 50.2355 48.4952 49.8661 48.4952 50.0593C48.4952 50.1305 48.4952 50.2017 48.4952 50.2762C48.4952 50.4694 48.5359 50.1034 48.4952 50.2965C48.4749 50.3914 48.4545 50.4897 48.4308 50.5846C48.4105 50.6558 48.3901 50.7236 48.3664 50.7947C48.3495 50.849 48.2919 50.9405 48.2919 50.9947C48.2919 50.9947 48.3766 50.8252 48.3291 50.9032C48.3156 50.9269 48.3054 50.954 48.2919 50.9777C48.258 51.0421 48.2241 51.1031 48.1834 51.1641C48.1427 51.2251 48.0784 51.2895 48.0546 51.3539C48.0546 51.3539 48.1834 51.2014 48.1089 51.2828C48.0851 51.3065 48.0648 51.3336 48.0445 51.3607C47.953 51.4658 47.8513 51.5573 47.7496 51.6522C47.6751 51.7233 47.8445 51.5776 47.8445 51.5776C47.8276 51.5776 47.7632 51.625 47.7564 51.6284C47.7395 51.6386 47.7225 51.6488 47.7022 51.6589C47.6073 51.7132 47.5158 51.7742 47.4243 51.8284C47.2684 51.9233 47.1159 52.0182 46.96 52.1131C46.8854 52.1571 46.8143 52.2046 46.7397 52.2452C46.7092 52.2622 46.6787 52.2723 46.6482 52.2893C46.5364 52.3537 46.8312 52.2283 46.7058 52.2656C46.6312 52.2859 46.5601 52.3164 46.4855 52.3367C46.455 52.3435 46.4211 52.3537 46.3906 52.3605C46.228 52.3944 46.3466 52.3537 46.4347 52.3605C46.3635 52.3537 46.2788 52.374 46.2076 52.374C46.1398 52.374 46.0449 52.3503 45.9806 52.3639C45.9806 52.3639 46.1975 52.4045 46.089 52.3774C46.0449 52.3672 46.0043 52.3605 45.9602 52.3537C45.8755 52.3333 45.7908 52.3096 45.706 52.2791C45.6755 52.269 45.645 52.252 45.6145 52.2452C45.6688 52.2588 45.7908 52.33 45.6755 52.2656C45.5976 52.2215 45.5196 52.1775 45.4417 52.13C44.9943 51.8386 44.2996 52.025 44.0522 52.496C43.7845 53.0044 43.9404 53.5771 44.4182 53.8855V53.8754Z" fill="black"/>
<path d="M47.5326 53.6076C46.7769 53.3128 45.9737 53.2281 45.1908 53.3568C45.0485 53.3806 44.8994 53.4145 44.7943 53.5399C44.574 53.7974 44.5706 54.5261 44.5435 54.8921C44.4893 55.6241 44.5503 56.4002 44.5537 57.1356C44.5605 57.9693 44.5639 58.803 44.5706 59.6367C44.574 60.2061 44.3334 61.0974 44.5978 61.6227C44.7706 61.9684 45.0383 61.9243 45.3162 61.965C45.8009 62.0361 46.421 62.0632 46.9226 61.9751C47.6852 61.8396 47.5225 61.1753 47.5801 60.3552C47.6377 59.5384 47.6242 58.7149 47.614 57.8947C47.614 56.468 47.5699 55.0378 47.5462 53.6076C47.5394 53.6076 47.536 53.6042 47.5293 53.6009L47.5326 53.6076Z" fill="#FF8F97"/>
<path d="M47.8036 52.6282C46.8852 52.2791 45.8854 52.208 44.9229 52.3774C44.3299 52.4825 43.9062 52.9027 43.7131 53.4585C43.5911 53.811 43.5707 54.2075 43.547 54.5769C43.4453 56.2782 43.5843 57.9863 43.5538 59.6909C43.5402 60.4704 43.3301 61.2126 43.6453 61.9684C43.9062 62.5886 44.4146 62.8834 45.0619 62.958C45.1195 62.9647 45.1805 62.9749 45.2381 62.9749H45.2652C45.0653 62.9512 45.0585 62.9512 45.2449 62.9749C45.3228 62.9851 45.4008 62.9952 45.4787 63.0054C45.6787 63.0291 45.8753 63.0427 46.0752 63.0495C46.4988 63.0596 46.9665 63.0495 47.3698 62.9139C47.8883 62.7411 48.2645 62.3717 48.4441 61.8599C48.5526 61.5515 48.5661 61.2126 48.5763 60.8873C48.5865 60.5077 48.6136 60.1281 48.6271 59.7486C48.661 58.742 48.6339 57.7321 48.6204 56.7255C48.6068 55.719 48.5763 54.6515 48.5594 53.6144C48.5526 53.1264 48.2408 52.8011 47.8138 52.635L47.7968 52.6282C47.302 52.435 46.6581 52.8417 46.5463 53.3399C46.4141 53.9228 46.7259 54.3837 47.258 54.5905L47.2749 54.5972L46.5293 53.6178C46.5565 55.2378 46.587 56.8577 46.6039 58.4777C46.6107 59.2266 46.5666 59.9722 46.5463 60.7212C46.5463 60.8466 46.5429 60.9754 46.5361 61.1008C46.5361 61.1482 46.509 61.3651 46.5361 61.1618C46.5632 60.9584 46.526 61.1787 46.5158 61.2228C46.4751 61.4058 46.631 61.0262 46.5497 61.1516C46.4717 61.2668 46.7496 60.9584 46.6005 61.0838C46.5429 61.1347 46.7259 60.9889 46.7259 60.9889C46.7259 60.9889 46.6412 61.0364 46.648 61.033C46.6615 61.0228 46.8581 60.972 46.7767 60.972C46.7361 60.972 46.6852 60.9957 46.6446 61.0025C46.4954 61.0262 46.6141 61.0093 46.6446 61.0025C46.8039 60.9788 46.6446 61.0025 46.6073 61.0025C46.526 61.0093 46.4412 61.0127 46.3565 61.016C46.1769 61.0228 45.9939 61.016 45.8143 61.0059C45.7329 60.9991 45.6516 60.9923 45.5702 60.9855C45.5364 60.9822 45.5025 60.9788 45.4686 60.9754H45.4347C45.6211 60.9957 45.6211 60.9957 45.4415 60.9754C45.3432 60.9618 45.2483 60.9483 45.15 60.9415C45.1127 60.9415 45.0144 60.9245 45.1839 60.9483C45.4177 60.9788 45.1805 60.9381 45.1737 60.9381C45.167 60.9381 45.3906 61.0364 45.3059 60.9923C45.211 60.9415 45.4279 61.1042 45.4516 61.1245C45.5431 61.2126 45.4855 61.1652 45.4618 61.1177C45.472 61.1347 45.5397 61.3617 45.5025 61.2092C45.4889 61.155 45.4821 61.094 45.4652 61.0432C45.5364 61.2634 45.4821 61.2228 45.4821 61.1347C45.4821 61.0838 45.4787 61.0296 45.4754 60.9788C45.4754 60.667 45.5194 60.3552 45.5499 60.0468C45.6211 59.3114 45.5669 58.5522 45.5635 57.8134C45.5601 57.0746 45.5228 56.2714 45.5262 55.4987C45.5262 55.1496 45.5499 54.7972 45.577 54.4481C45.5838 54.3736 45.6041 54.2888 45.5974 54.2177C45.5974 54.2075 45.5567 54.4515 45.5804 54.3464C45.5906 54.3024 45.594 54.2549 45.6041 54.2075C45.6109 54.177 45.6279 54.0245 45.6584 54.0109C45.6787 54.0008 45.5228 54.2583 45.6109 54.1329C45.5499 54.2177 45.4855 54.2956 45.394 54.3464C45.3669 54.36 45.167 54.4074 45.3262 54.3769C45.3669 54.3702 45.4076 54.36 45.4482 54.3532C45.655 54.3126 45.4143 54.3668 45.4042 54.3566C45.411 54.3668 45.5397 54.3431 45.5567 54.3431C45.7736 54.3261 45.9905 54.3261 46.204 54.3431C46.2413 54.3431 46.2786 54.3498 46.3192 54.3532C46.5158 54.3668 46.187 54.3261 46.3158 54.3532C46.4175 54.3736 46.5158 54.3905 46.6175 54.4108C46.831 54.4617 47.0411 54.5261 47.2478 54.604C47.746 54.7938 48.3831 54.3939 48.4984 53.8923C48.6305 53.3128 48.3221 52.8451 47.7867 52.6418L47.8036 52.6282Z" fill="black"/>
<path d="M15.5439 54.6615C16.6386 54.2175 17.9502 54.187 19.0889 53.7126C20.3157 53.1975 21.4612 52.4891 22.4576 51.6114C23.3048 53.2686 24.291 54.8547 25.3992 56.3526C23.4438 58.0607 21.0003 59.1994 18.4348 59.5993C18.1264 59.6468 17.7773 59.6739 17.5435 59.4671C17.4147 59.3553 17.3469 59.1892 17.2825 59.03C16.7064 57.6032 15.9506 56.1459 15.5439 54.6649V54.6615Z" fill="#FFEB4C"/>
<path d="M15.8149 55.641C16.4249 55.4004 17.0722 55.2818 17.7162 55.1496C18.4177 55.0072 19.0785 54.8175 19.7394 54.5294C20.9967 53.9838 22.149 53.228 23.1793 52.3265L21.583 52.1198C22.4337 53.777 23.4165 55.3631 24.5247 56.861L24.684 55.6274C24.5247 55.7664 24.3586 55.9019 24.196 56.0341C24.1519 56.068 24.0435 56.1392 24.2332 56.007C24.196 56.0341 24.1587 56.0646 24.1214 56.0917C24.0265 56.1629 23.9316 56.2307 23.8367 56.3019C23.491 56.5493 23.1352 56.7797 22.7658 56.9932C22.3964 57.2067 22.0236 57.4033 21.6373 57.5829C21.5525 57.6236 21.4644 57.6608 21.3797 57.7015C21.3424 57.7185 21.2916 57.7456 21.2509 57.7591C21.4814 57.6947 21.3322 57.7252 21.2645 57.7524C21.0577 57.8371 20.8476 57.9184 20.6375 57.993C19.8445 58.2743 19.0345 58.4607 18.2076 58.6132C18.0551 58.6403 18.4753 58.5962 18.255 58.6064C18.211 58.6064 18.1703 58.6132 18.1262 58.6132C18.0889 58.6132 18.0313 58.603 18.0008 58.6132C18.1669 58.5725 18.1906 58.6606 18.0889 58.6233C17.9263 58.5623 18.1533 58.6538 18.1635 58.6606L18.2686 58.7487C18.2076 58.6877 18.2076 58.6877 18.2652 58.7555C18.377 58.8741 18.2618 58.725 18.2448 58.6945C18.1499 58.5318 18.3092 58.8572 18.255 58.7216C18.0584 58.22 17.8382 57.7286 17.6213 57.2372C17.5128 56.9932 17.4044 56.7458 17.2993 56.5018C17.279 56.451 17.2552 56.4035 17.2349 56.3527C17.218 56.3154 17.2044 56.2781 17.1875 56.2408C17.2315 56.3493 17.2417 56.3662 17.2112 56.2985C17.1604 56.1731 17.1095 56.0511 17.0587 55.9257C16.8587 55.4241 16.6757 54.9124 16.53 54.3904C16.3843 53.8685 15.8014 53.5093 15.2794 53.6787C14.7575 53.8482 14.4152 54.3803 14.5678 54.9293C14.8626 55.9867 15.3066 57 15.7471 58.0031C15.8488 58.237 15.9505 58.4674 16.0521 58.7013C16.0996 58.8097 16.147 58.9216 16.1945 59.03C16.2962 59.2672 16.1369 58.8911 16.1979 59.0436C16.2318 59.1283 16.269 59.213 16.3029 59.2977C16.4283 59.6062 16.5436 59.8976 16.7808 60.1382C17.018 60.3788 17.3332 60.5483 17.6619 60.6025C18.2347 60.6974 18.8074 60.572 19.37 60.4568C19.8207 60.3619 20.2647 60.2467 20.7053 60.1111C21.6406 59.8163 22.5591 59.4299 23.4199 58.9622C24.3891 58.4369 25.2906 57.793 26.1209 57.0712C26.4293 56.8034 26.531 56.1798 26.2802 55.8376C25.172 54.3396 24.1892 52.7535 23.3385 51.0963C23.1962 50.815 22.8946 50.6523 22.5963 50.6117C22.2642 50.5676 21.9931 50.6727 21.7423 50.893C21.6135 51.0048 21.4814 51.1166 21.3458 51.2251C21.2984 51.2624 21.1255 51.4115 21.3187 51.2488C21.2611 51.2963 21.2001 51.3369 21.1425 51.381C20.8951 51.564 20.6409 51.7368 20.3799 51.8995C19.8478 52.2316 19.2887 52.5231 18.7159 52.7739C18.4855 52.8756 18.9226 52.6993 18.6854 52.784C18.6142 52.8078 18.5465 52.8349 18.4753 52.8586C18.3228 52.9094 18.1703 52.9569 18.0144 52.9976C17.7162 53.0755 17.4111 53.1399 17.1061 53.2009C16.4893 53.3263 15.8657 53.4449 15.2794 53.6787C15.0253 53.7804 14.8152 53.9024 14.6728 54.1464C14.544 54.3633 14.4898 54.6853 14.5711 54.9293C14.727 55.4072 15.293 55.8477 15.8217 55.641H15.8149Z" fill="black"/>
</svg>
