<svg width="90" height="90" viewBox="0 0 90 90" fill="none" xmlns="http://www.w3.org/2000/svg">
<path d="M61.3841 16.4523C60.3754 16.2294 59.3519 16.115 58.3373 16.115C57.569 16.115 56.8095 16.1795 56.0676 16.3086C54.6336 15.3115 52.962 14.5872 51.1879 14.1942C50.1791 13.9714 49.1557 13.857 48.141 13.857C47.3727 13.857 46.6132 13.9215 45.8713 14.0506C44.4373 13.0535 42.7658 12.3292 40.9916 11.9362C39.9829 11.7134 38.9565 11.599 37.9419 11.599C32.6575 11.599 28.294 14.6459 27.3262 19.0094C26.7485 21.6105 27.4699 24.2497 29.1033 26.4315C28.3468 26.5869 27.5902 26.7541 26.8336 26.9418C22.734 27.9623 20.6021 30.3874 20.1241 34.5721C18.5816 48.0586 18.6578 60.0144 20.3645 71.1285C20.7487 73.6328 21.1006 75.3659 22.4202 76.5741C23.7398 77.7794 25.5022 77.9846 28.0388 78.1547C28.1532 78.1635 28.2676 78.1723 28.3819 78.1811C28.5432 78.1958 28.7045 78.2075 28.8658 78.2192C31.3877 78.3776 33.9097 78.3981 35.8275 78.3981C36.7307 78.3981 37.6369 78.3923 38.5401 78.3893C39.4345 78.3835 40.3318 78.3805 41.2262 78.3805C42.1206 78.3805 42.9241 78.3864 43.6543 78.3952C43.9388 78.3981 44.2262 78.401 44.5106 78.401C47.2496 78.401 49.9826 78.2163 52.6248 78.0374C54.4254 77.9143 56.2904 77.7911 58.1056 77.7266C61.4575 77.6122 63.0439 76.1665 63.5718 72.7443C63.6451 72.2721 63.7155 71.8059 63.7624 71.322C64.1905 66.8998 64.2404 62.4395 64.2902 58.1258C64.3196 55.4631 64.3518 52.7095 64.4721 50.0263L64.4779 49.865C64.692 45.1408 64.909 40.2729 64.2697 35.3873C67.5952 34.2671 70.0819 31.795 70.7798 28.6338C71.9558 23.3231 67.7388 17.8599 61.3812 16.4493L61.3841 16.4523Z" fill="black"/>
<path d="M44.5105 79.2808C44.2202 79.2808 43.9328 79.2808 43.6425 79.2749C42.9152 79.2632 42.1264 79.2602 41.2261 79.2602C40.4226 79.2602 39.6162 79.2632 38.8127 79.269H38.5429C37.6368 79.2749 36.7306 79.2808 35.8245 79.2808C33.8949 79.2808 31.3554 79.2602 28.81 79.1019C28.6428 79.0902 28.4757 79.0784 28.3085 79.0638C28.2 79.055 28.0886 79.0462 27.9771 79.0374C25.3379 78.8585 23.3526 78.6239 21.8248 77.228C20.297 75.8292 19.8952 73.8762 19.4935 71.2692C17.775 60.0759 17.6958 48.0439 19.2471 34.4782C19.7662 29.9417 22.1796 27.1998 26.6194 26.0943C26.9566 26.0092 27.3027 25.9271 27.6546 25.8479C26.3643 23.6368 25.942 21.1853 26.464 18.8246C27.5255 14.0505 32.2439 10.7192 37.9447 10.7192C39.0238 10.7192 40.1147 10.8395 41.1851 11.077C42.9358 11.4641 44.619 12.1708 46.0765 13.1268C47.8066 12.8746 49.6189 12.945 51.3784 13.335C53.1291 13.7221 54.8153 14.4288 56.2727 15.3848C58.0029 15.1326 59.8122 15.203 61.5746 15.593C68.4073 17.1062 72.9234 23.0415 71.6419 28.8244C70.9381 32.0003 68.5628 34.6307 65.2285 35.9709C65.774 40.701 65.5628 45.3754 65.3576 49.9031L65.3488 50.0644C65.2285 52.7388 65.1963 55.4807 65.1669 58.1346C65.1171 62.4718 65.0672 66.9467 64.6362 71.4041C64.5863 71.9144 64.5159 72.3924 64.4397 72.8762C63.8444 76.7061 61.9002 78.4714 58.1319 78.6034C56.3255 78.665 54.4722 78.791 52.6804 78.9113C50.0236 79.0902 47.2758 79.2778 44.5076 79.2778L44.5105 79.2808ZM41.2261 77.4978C42.1352 77.4978 42.9328 77.5037 43.6659 77.5125C46.6483 77.5535 49.6629 77.3541 52.5631 77.1577C54.3695 77.0345 56.2375 76.9084 58.0733 76.8468C60.9852 76.7471 62.2374 75.5976 62.7007 72.6094C62.7711 72.1519 62.8385 71.7003 62.8855 71.237C63.3107 66.8558 63.3605 62.416 63.4104 58.1258C63.4397 55.4514 63.472 52.6919 63.5922 49.9882L63.601 49.8269C63.8121 45.1525 64.0291 40.3198 63.3987 35.5046C63.3429 35.0882 63.5922 34.6923 63.991 34.5574C67.0906 33.5135 69.3076 31.229 69.9264 28.4491C70.9967 23.6134 67.0819 18.6194 61.1964 17.3144C59.5366 16.9478 57.8299 16.9009 56.2199 17.1795C55.9941 17.2176 55.7566 17.1678 55.5689 17.0358C54.2317 16.1062 52.6511 15.4229 51.0001 15.0564C49.3432 14.6898 47.6307 14.6429 46.0237 14.9215C45.7949 14.9596 45.5603 14.9098 45.3727 14.7778C44.0354 13.8482 42.4548 13.1649 40.8038 12.7984C39.8566 12.5902 38.8948 12.4817 37.9447 12.4817C33.0767 12.4817 29.0651 15.2441 28.1883 19.2029C27.6898 21.4609 28.2645 23.8421 29.8099 25.9066C29.9918 26.147 30.0358 26.4638 29.9272 26.7453C29.8187 27.0268 29.5754 27.235 29.2821 27.2937C28.4815 27.4579 27.7513 27.6221 27.0505 27.7951C23.3057 28.7276 21.4406 30.8478 21.0008 34.6718C19.4671 48.0791 19.5433 59.9586 21.2383 70.9965C21.5931 73.3161 21.9098 74.9114 23.0183 75.926C24.1268 76.9407 25.7514 77.1195 28.1032 77.2779C28.2235 77.2867 28.3408 77.2955 28.4581 77.3072C28.6135 77.3189 28.7689 77.3336 28.9214 77.3424C31.4199 77.4978 33.9242 77.5183 35.8274 77.5183C36.7306 77.5183 37.6338 77.5125 38.5341 77.5096H38.8039C39.6103 77.5037 40.4197 77.5008 41.2261 77.5008V77.4978Z" fill="white"/>
<path d="M44.5075 77.2486C44.2289 77.2486 43.9503 77.2486 43.6688 77.2427C42.8536 77.231 42.0354 77.228 41.2202 77.228C40.3228 77.228 39.4255 77.2339 38.5281 77.2368C37.6279 77.2427 36.7247 77.2456 35.8215 77.2456C33.9241 77.2456 31.4257 77.2251 28.936 77.0697C28.7835 77.0609 28.631 77.0462 28.4814 77.0345C28.3612 77.0228 28.241 77.014 28.1178 77.0052C23.071 76.6621 22.2675 75.9289 21.5021 70.9525C19.8101 59.941 19.7338 48.0821 21.2675 34.7011C21.6898 31.0062 23.4933 28.9564 27.112 28.0561C31.8157 26.886 36.625 26.411 40.7099 26.1001C41.012 26.0767 42.6219 25.9916 44.9474 25.9916C49.1995 25.9916 55.0028 26.2761 58.5013 27.6338C60.8444 28.5429 62.2578 30.493 62.8238 33.5926C63.812 39.0177 63.5657 44.5044 63.3253 49.8093L63.3165 49.9706C63.1933 52.6743 63.164 55.4367 63.1317 58.1112C63.0819 62.3985 63.032 66.8353 62.6097 71.2076C62.5657 71.6593 62.5012 72.0903 62.4279 72.5654C61.9851 75.4275 60.8414 76.4773 58.0585 76.5712C56.2228 76.6357 54.3518 76.7618 52.5425 76.882C49.9179 77.058 47.2054 77.2427 44.5045 77.2427L44.5075 77.2486Z" fill="#FAFAFA"/>
<path d="M44.9502 27.147C48.9149 27.147 54.7271 27.408 58.0877 28.713C60.3164 29.5781 61.2783 31.5252 61.6947 33.8067C62.6683 39.1585 62.4131 44.5484 62.1727 49.9266C61.853 56.9822 62.1521 64.0612 61.4718 71.105C61.4308 71.5361 61.3662 71.9672 61.2988 72.3982C60.9498 74.6563 60.3017 75.3542 58.0261 75.4304C53.516 75.5859 49.0322 76.102 44.5103 76.102C44.2376 76.102 43.9619 76.102 43.6892 76.0961C42.8681 76.0844 42.0499 76.0814 41.2289 76.0814C39.4283 76.0814 37.6278 76.102 35.8272 76.102C33.5545 76.102 31.2819 76.0697 29.0092 75.929C28.7394 75.9114 28.4667 75.885 28.1969 75.8674C23.6633 75.5595 23.326 75.2457 22.6427 70.7883C20.8041 58.8179 21.0387 46.8446 22.414 34.8419C22.7864 31.5898 24.2439 29.9681 27.3934 29.1851C31.8185 28.0854 36.2876 27.6016 40.8007 27.2585C41.1673 27.2291 42.7831 27.1529 44.9531 27.1529M42.1115 29.6191C42.2904 29.5605 42.4664 29.5077 42.6452 29.452C42.4752 29.4608 42.3051 29.4696 42.135 29.4784C42.1291 29.5224 42.1203 29.5693 42.1115 29.6191ZM44.9502 24.845C42.7977 24.845 41.1057 24.9213 40.6248 24.9565C36.4929 25.2702 31.625 25.7512 26.8362 26.9418C22.7366 27.9623 20.6047 30.3874 20.1267 34.5721C18.5813 48.0586 18.6604 60.0143 20.3671 71.1285C20.7513 73.6328 21.1032 75.3659 22.4228 76.5741C23.7424 77.7794 25.5049 77.9846 28.0415 78.1547C28.1558 78.1635 28.2702 78.1723 28.3846 78.1811C28.5458 78.1958 28.7071 78.2075 28.8684 78.2192C31.3904 78.3776 33.9123 78.3981 35.8301 78.3981C36.7333 78.3981 37.6395 78.3922 38.5427 78.3893C39.4371 78.3834 40.3344 78.3805 41.2289 78.3805C42.1233 78.3805 42.9268 78.3864 43.6569 78.3952C43.9414 78.3981 44.2288 78.401 44.5132 78.401C47.2522 78.401 49.9853 78.2163 52.6274 78.0374C54.428 77.9142 56.293 77.7911 58.1082 77.7266C61.4601 77.6122 63.0466 76.1665 63.5744 72.7443C63.6477 72.2721 63.7181 71.8059 63.765 71.322C64.1932 66.8998 64.243 62.4395 64.2929 58.1258C64.3222 55.4631 64.3544 52.7095 64.4747 50.0263L64.4805 49.865C64.7239 44.4956 64.9732 38.9444 63.9615 33.3903C63.3281 29.9124 61.6331 27.6162 58.9235 26.5635C55.2549 25.1412 49.302 24.8421 44.9531 24.8421L44.9502 24.845Z" fill="black"/>
<path d="M42.1117 29.6191C42.3023 28.7188 41.8536 28.5224 40.8712 28.5957C36.5957 28.9212 32.3641 29.3757 28.1765 30.4197C25.1942 31.1616 23.813 32.6982 23.4611 35.7773C22.159 47.1437 21.9391 58.4777 23.6781 69.8147C24.3262 74.0346 24.6458 74.3337 28.939 74.624C29.197 74.6416 29.4521 74.668 29.7073 74.6826C34.3377 74.973 38.9739 74.7765 43.6073 74.8439C48.1526 74.9114 52.6569 74.3689 57.1847 74.2135C59.34 74.1401 59.95 73.4803 60.2814 71.3425C60.343 70.9349 60.4075 70.5273 60.4456 70.1197C61.0907 63.4512 60.8092 56.7505 61.1113 50.0673C61.34 44.9736 61.5834 39.8711 60.6597 34.8038C60.2667 32.6454 59.3547 30.8009 57.2462 29.9828C52.3226 28.0708 47.3256 27.8743 42.1146 29.6221L42.1117 29.6191Z" fill="#080808"/>
<path d="M58.0908 28.713C60.3194 29.5781 61.2813 31.5252 61.6977 33.8067C62.6713 39.1585 62.4162 44.5484 62.1757 49.9266C61.8561 56.9821 62.1552 64.0612 61.4748 71.105C61.4338 71.5361 61.3693 71.9672 61.3018 72.3982C60.9529 74.6562 60.3048 75.3542 58.0292 75.4304C53.2463 75.5946 48.4898 76.1665 43.6922 76.0961C38.8009 76.0257 33.9036 76.231 29.0151 75.926C28.7454 75.9084 28.4726 75.882 28.2029 75.8644C23.6692 75.5565 23.332 75.2427 22.6487 70.7854C20.8101 58.8149 21.0447 46.8416 22.42 34.8389C22.7924 31.5868 24.2499 29.9651 27.3993 29.1822C31.8245 28.0825 36.2936 27.5986 40.8067 27.2555C41.8448 27.1763 52.8944 26.6984 58.0966 28.7159L58.0908 28.713ZM31.3054 30.8625C27.1882 31.5047 25.1325 33.9475 24.6721 38.006C23.9361 44.4751 24.2411 50.9266 24.7718 57.381C24.9625 59.7152 25.5548 61.9234 27.4375 63.4981C29.0855 64.8793 31.1735 65.2518 33.2027 65.5597C38.7275 66.4013 44.2699 66.0142 49.8006 65.5685C53.9237 65.2342 56.4603 62.8999 57.6743 59.032C59.8151 52.2139 60.0438 45.1965 59.2637 38.2025C58.6274 32.5047 56.1436 30.4695 50.4311 29.7159C43.9679 28.8625 37.6249 29.8068 31.3054 30.8654V30.8625Z" fill="#FAFAFA"/>
<path d="M40.651 48.2844C38.1496 47.7096 36.1232 45.5455 35.8329 43.1877C35.7391 42.4165 35.8036 41.7303 36.6775 41.5485C37.5426 41.3667 37.9443 41.9502 38.1144 42.7039C38.5308 44.5367 39.6246 45.7302 41.478 46.0616C43.4251 46.4105 44.8181 45.4575 45.9002 43.9238C46.3283 43.3168 46.7506 42.7009 47.2256 42.1291C47.5687 41.7156 48.0262 41.5514 48.5511 41.8681C49.0907 42.1936 49.2784 42.6247 49.0936 43.2493C48.0526 46.7654 44.1671 49.0908 40.651 48.2844Z" fill="white"/>
<path d="M40.7511 37.1761C40.4872 37.9093 39.9682 38.0881 39.3289 37.8829C38.6837 37.6747 38.3582 37.1996 38.5987 36.5193C38.8245 35.88 39.3289 35.5897 39.9887 35.8155C40.6368 36.0383 40.845 36.5603 40.7511 37.1761Z" fill="white"/>
<path d="M46.1027 37.3638C45.8388 38.097 45.3197 38.2758 44.6804 38.0706C44.0353 37.8624 43.7098 37.3873 43.9503 36.707C44.1761 36.0677 44.6804 35.7774 45.3403 36.0032C45.9883 36.226 46.1965 36.748 46.1027 37.3638Z" fill="white"/>
<path d="M60.167 35.2084C59.214 35.2084 58.2492 35.1029 57.2991 34.8917C55.5132 34.4959 53.8417 33.7422 52.437 32.7041C51.6364 32.8654 50.8095 32.9475 49.9708 32.9475C49.0177 32.9475 48.0529 32.8419 47.1058 32.6308C45.3199 32.2349 43.6483 31.4813 42.2408 30.4432C41.4402 30.6044 40.6132 30.6866 39.7745 30.6866C38.8215 30.6866 37.8567 30.581 36.9095 30.3698C31.0035 29.062 27.0739 24.0445 28.1502 19.1883C29.0299 15.2118 33.0591 12.4348 37.9447 12.4348C38.8977 12.4348 39.8625 12.5403 40.8126 12.7515C42.5985 13.1473 44.27 13.901 45.6747 14.9391C46.4753 14.7778 47.3022 14.6928 48.1409 14.6928C49.094 14.6928 50.0588 14.7983 51.006 15.0095C52.7918 15.4054 54.4634 16.159 55.868 17.1971C56.6686 17.0358 57.4956 16.9537 58.3342 16.9537C59.2873 16.9537 60.2521 17.0593 61.1993 17.2704C67.1053 18.5783 71.0348 23.5958 69.9586 28.452C69.0789 32.4284 65.0496 35.2055 60.1641 35.2055L60.167 35.2084Z" fill="#EF2B11"/>
<path d="M37.9447 13.2793C38.8215 13.2793 39.7218 13.3761 40.6308 13.5755C42.4959 13.989 44.1469 14.7925 45.4753 15.8482C46.3228 15.6458 47.2172 15.5373 48.1439 15.5373C49.0207 15.5373 49.9209 15.6341 50.8271 15.8335C52.6921 16.247 54.3431 17.0505 55.6716 18.1062C56.519 17.9038 57.4135 17.7953 58.3401 17.7953C59.2169 17.7953 60.1172 17.8921 61.0233 18.0915C66.4866 19.3026 70.1228 23.8597 69.1434 28.2702C68.3282 31.9475 64.5629 34.3639 60.1671 34.3639C59.2902 34.3639 58.39 34.2671 57.4809 34.0677C55.6158 33.6542 53.9648 32.8507 52.6364 31.795C51.7889 31.9974 50.8945 32.1059 49.9679 32.1059C49.0911 32.1059 48.1908 32.0091 47.2846 31.8097C45.4196 31.3962 43.7686 30.5927 42.4402 29.537C41.5927 29.7394 40.6983 29.8479 39.7716 29.8479C38.8948 29.8479 37.9945 29.7511 37.0884 29.5517C31.6252 28.3406 27.9889 23.7835 28.9654 19.373C29.7806 15.6957 33.5459 13.2793 37.9417 13.2793M37.9447 11.599C32.6603 11.599 28.2968 14.6459 27.3291 19.0094C26.1531 24.3201 30.3701 29.7833 36.7277 31.1939C37.7365 31.4167 38.7599 31.5311 39.7745 31.5311C40.5429 31.5311 41.3024 31.4666 42.0443 31.3376C43.4783 32.3346 45.1498 33.0589 46.9239 33.4519C47.9327 33.6748 48.9562 33.7891 49.9708 33.7891C50.7391 33.7891 51.4986 33.7246 52.2405 33.5956C53.6745 34.5926 55.3461 35.3169 57.1202 35.7099C58.129 35.9328 59.1553 36.0471 60.17 36.0471C65.4543 36.0471 69.8208 33.0003 70.7856 28.6367C71.9615 23.326 67.7446 17.8628 61.387 16.4523C60.3782 16.2294 59.3548 16.115 58.3401 16.115C57.5718 16.115 56.8123 16.1795 56.0704 16.3086C54.6364 15.3115 52.9649 14.5872 51.1907 14.1942C50.1819 13.9714 49.1585 13.857 48.1439 13.857C47.3756 13.857 46.616 13.9215 45.8741 14.0506C44.4401 13.0535 42.7686 12.3292 40.9945 11.9362C39.9857 11.7134 38.9593 11.599 37.9447 11.599Z" fill="black"/>
<path d="M38.631 19.4346C38.1589 19.502 37.6046 19.4991 36.9624 19.4258L37.1794 20.4492C37.9448 20.5284 38.6193 20.5049 39.2058 20.3818C39.7893 20.2586 40.2585 20.0504 40.6046 19.7601C40.6427 19.7278 40.672 19.6926 40.7072 19.6604C40.7277 19.7044 40.7453 19.7513 40.7688 19.7953C40.9887 20.1912 41.3523 20.5519 41.8597 20.8744C42.367 21.197 42.9945 21.4609 43.7482 21.6633L44.3083 20.7835C43.6778 20.6222 43.1558 20.4287 42.7365 20.1941C42.3201 19.9624 42.0209 19.719 41.8421 19.4698C41.7541 19.3466 41.6925 19.2264 41.6573 19.1091L44.1499 19.5695L44.3288 18.593L37.7278 17.373L37.5489 18.3496L40.021 18.807C39.9477 18.9038 39.848 18.9918 39.7248 19.0768C39.4697 19.2498 39.1061 19.3701 38.6339 19.4375L38.631 19.4346Z" fill="white"/>
<path d="M36.3866 20.5486L36.2056 21.5291L44.2628 23.0166L44.4438 22.0361L36.3866 20.5486Z" fill="white"/>
<path d="M37.851 24.6691L42.7717 25.5782L43.1882 23.326L37.0417 22.1911L36.8774 23.0885L41.7982 23.9975L41.7102 24.4843L36.7924 23.5753L36.5343 24.9741L36.4816 25.2556L36.3613 25.9007L42.7366 27.0767L42.9066 26.15L37.7513 25.1969L37.851 24.6691Z" fill="white"/>
<path d="M51.4753 21.7278L49.8771 21.4345L49.6953 22.4228L51.2906 22.719L50.9709 24.4609L52.1997 24.6867L53.0823 19.9067L51.8536 19.678L51.4753 21.7278Z" fill="white"/>
<path d="M50.7422 25.6984L47.3054 25.065L47.4637 24.2058L46.2262 23.977L45.5635 27.5635L51.4666 28.6543L52.1293 25.0679L50.9006 24.8421L50.7422 25.7013V25.6984ZM50.4197 27.4462L46.9828 26.8127L47.1265 26.0268L50.5634 26.6602L50.4197 27.4462Z" fill="white"/>
<path d="M49.3254 21.8598C49.7389 21.3231 50.0146 20.6633 50.1612 19.8833L49.7155 19.8011L48.8474 19.6399L46.0997 19.1325L45.915 20.1267L48.6334 20.6281C48.5307 20.9272 48.3753 21.197 48.1642 21.4345C47.8709 21.7659 47.4574 22.0298 46.9267 22.2292C46.3959 22.4287 45.7449 22.5489 44.9766 22.587L45.2581 23.6486C46.1994 23.5841 47.0117 23.4052 47.6891 23.109C48.3694 22.8128 48.9149 22.3964 49.3254 21.8568V21.8598Z" fill="white"/>
<path d="M61.9058 24.933L60.5949 24.6925L61.202 21.4052L59.9586 21.1765L58.3223 30.0443L59.5656 30.276L60.4073 25.7072L61.7181 25.9476L61.9058 24.933Z" fill="white"/>
<path d="M56.4194 26.3553C55.9239 26.2995 55.3725 26.2145 54.7685 26.1089L55.484 22.241L58.393 22.7776L58.5778 21.7718L54.4312 21.0064L53.5309 25.8802L53.4371 26.3846L53.3433 26.9007L54.091 27.0385C54.9561 27.1998 55.7039 27.323 56.3373 27.4022C56.9707 27.4813 57.6159 27.5283 58.2698 27.5371L58.3256 26.4726C57.6804 26.4638 57.047 26.4227 56.4194 26.3523V26.3553Z" fill="white"/>
</svg>
