<svg width="68" height="68" viewBox="0 0 68 68" fill="none" xmlns="http://www.w3.org/2000/svg">
<g filter="url(#filter0_d_539_1956)">
<path d="M55.8241 16.5159C56.9358 18.8213 57.3107 21.2593 57.0965 23.8101C56.7958 27.4095 56.012 30.9508 55.1641 34.4416C53.8804 39.7453 52.8537 45.0983 51.6291 50.4117C51.05 52.9241 50.3104 55.3803 49.6389 57.8602C49.179 59.5626 48.5298 60.0721 46.7137 60.0461C45.6777 60.0295 44.6199 60.0244 43.6114 59.8335C39.0252 58.9718 34.3879 58.4318 29.8134 57.49C26.3874 56.7851 22.9965 55.9163 19.5446 55.3005C17.2334 54.8863 15.1025 53.8955 13.0981 52.7185C12.0613 52.1099 11.4893 51.2101 11.4777 49.8687C11.4334 43.7283 12.1999 37.6629 13.2286 31.624C13.771 28.4513 14.4971 25.3016 15.2913 22.1757C16.118 18.9288 16.9755 15.6844 18.1259 12.5195C18.8215 10.6111 19.7519 9.32627 21.9676 8.95602C24.29 8.57116 26.5877 8.31729 28.941 8.3705C34.9779 8.51342 40.8199 9.81731 46.6283 11.2129C49.4632 11.8958 52.2161 12.9108 54.4598 14.9045C54.9983 15.384 55.5059 15.8611 55.8254 16.5197L55.8241 16.5159Z" fill="#060606"/>
<path d="M53.6518 17.4513C55.1373 19.8599 54.8073 22.4749 54.5327 25.0121C54.2226 27.8785 53.8262 30.7696 53.0946 33.5573C52.2149 36.915 51.6462 40.3292 50.8654 43.7002C50.1301 46.8868 49.6338 50.1329 48.8651 53.3222C48.5647 54.5651 48.1165 55.7772 47.775 57.0127C47.6113 57.6006 47.2741 57.7728 46.6748 57.8806C45.4673 58.0949 44.3487 57.7421 43.2014 57.5724C39.6116 57.0451 36.0036 56.6044 32.4425 55.9321C27.8691 55.0703 23.3323 54.0228 18.781 53.0606C17.4322 52.7765 16.2735 52.0606 15.0502 51.4976C14.3596 51.179 14.0526 50.6474 13.9701 49.8374C13.7163 47.3249 13.9239 44.8186 14.1173 42.334C14.6358 35.7849 15.73 29.3136 17.3445 22.9219C18.2154 19.4868 19.0696 16.053 20.3233 12.7223C20.7274 11.6478 21.3584 11.2121 22.4181 11.0177C24.9258 10.5581 27.461 10.3853 29.985 10.5506C35.6498 10.9155 41.1955 12.0014 46.6853 13.3557C48.4591 13.7935 50.0762 14.6476 51.6857 15.4789C52.5533 15.9285 53.2519 16.6166 53.6595 17.4615L53.6518 17.4513Z" fill="white"/>
<path d="M43.5346 47.0114C42.4858 47.4686 40.971 47.6886 39.3928 47.6295C37.6372 47.5663 35.9365 47.1548 34.215 46.8729C31.7174 46.4661 29.2276 46.0314 26.7925 45.3498C24.5501 44.718 22.4111 43.8822 20.514 42.4873C18.9402 41.3268 18.2904 39.7593 18.0797 37.9008C17.8702 36.097 18.1271 34.3271 18.3584 32.5447C19.0023 27.5739 19.8003 22.6403 21.2433 17.7993C22.2088 14.5567 24.6968 12.9107 27.8536 12.902C30.058 12.8951 32.2686 12.958 34.4632 13.2421C38.4579 13.7606 42.4579 14.2181 46.2416 15.7084C49.7428 17.086 52.2534 19.7094 51.9955 24.0643C51.7365 28.3901 50.8827 32.5936 49.5831 36.7223C49.0642 38.3769 48.5352 40.0264 47.9586 41.6622C47.3366 43.4317 45.3605 45.8749 43.5295 47.0089L43.5346 47.0114Z" fill="#060606"/>
<mask id="mask0_539_1956" style="mask-type:alpha" maskUnits="userSpaceOnUse" x="22" y="16" width="24" height="24">
<rect x="22" y="16" width="24" height="24" fill="#D9D9D9"/>
</mask>
<g mask="url(#mask0_539_1956)">
<path d="M33 29H28C27.7167 29 27.4792 28.9042 27.2875 28.7125C27.0958 28.5208 27 28.2833 27 28C27 27.7167 27.0958 27.4792 27.2875 27.2875C27.4792 27.0958 27.7167 27 28 27H33V22C33 21.7167 33.0958 21.4792 33.2875 21.2875C33.4792 21.0958 33.7167 21 34 21C34.2833 21 34.5208 21.0958 34.7125 21.2875C34.9042 21.4792 35 21.7167 35 22V27H40C40.2833 27 40.5208 27.0958 40.7125 27.2875C40.9042 27.4792 41 27.7167 41 28C41 28.2833 40.9042 28.5208 40.7125 28.7125C40.5208 28.9042 40.2833 29 40 29H35V34C35 34.2833 34.9042 34.5208 34.7125 34.7125C34.5208 34.9042 34.2833 35 34 35C33.7167 35 33.4792 34.9042 33.2875 34.7125C33.0958 34.5208 33 34.2833 33 34V29Z" fill="white"/>
</g>
</g>
<defs>
<filter id="filter0_d_539_1956" x="0" y="0" width="70" height="72" filterUnits="userSpaceOnUse" color-interpolation-filters="sRGB">
<feFlood flood-opacity="0" result="BackgroundImageFix"/>
<feColorMatrix in="SourceAlpha" type="matrix" values="0 0 0 0 0 0 0 0 0 0 0 0 0 0 0 0 0 0 127 0" result="hardAlpha"/>
<feOffset dx="2" dy="4"/>
<feComposite in2="hardAlpha" operator="out"/>
<feColorMatrix type="matrix" values="0 0 0 0 0 0 0 0 0 0 0 0 0 0 0 0 0 0 0.3 0"/>
<feBlend mode="normal" in2="BackgroundImageFix" result="effect1_dropShadow_539_1956"/>
<feBlend mode="normal" in="SourceGraphic" in2="effect1_dropShadow_539_1956" result="shape"/>
</filter>
</defs>
</svg>
