<svg xmlns="http://www.w3.org/2000/svg" width="68" height="68" viewBox="0 0 68 68" fill="none">
  <g filter="url(#filter0_d_3952_9213)">
    <path d="M34.0227 12C21.8613 12 12 21.8613 12 34.0227C12 46.1842 21.1377 55.3009 32.6699 56L56 32.6699C55.3009 21.1377 45.7297 12 34.0227 12Z" fill="#0A0A0A"/>
    <path d="M34.0227 12C21.8613 12 12 21.8613 12 34.0227C12 46.1842 21.1377 55.3009 32.6699 56L56 32.6699C55.3009 21.1377 45.7297 12 34.0227 12Z" stroke="black" stroke-width="1.78605" stroke-linecap="round" stroke-linejoin="round"/>
  </g>
  <path d="M37.5201 30.7513C39.421 31.8879 41.1924 32.9606 43.2666 33.4001C43.7388 33.5 44.221 33.7557 44.5936 34.0653C44.8367 34.2671 45.0539 34.7345 44.9881 35.0142C44.9263 35.2799 44.5039 35.6075 44.205 35.6494C43.0454 35.8133 41.8718 35.8812 40.7022 35.9711C39.142 36.0929 37.5819 36.2168 36.0198 36.3127C35.5794 36.3386 35.4499 36.5744 35.3264 36.9439C34.4218 39.6707 34.0532 42.4893 33.828 45.338C33.8001 45.6856 33.7862 46.0631 33.6347 46.3608C33.4952 46.6344 33.1784 47.002 32.9433 47C32.6425 46.996 32.1941 46.7343 32.0686 46.4646C31.4111 45.0343 30.8233 43.5721 30.2315 42.1138C29.6218 40.6076 29.0499 39.0874 28.4163 37.5911C28.3326 37.3954 27.958 37.1676 27.7588 37.1996C25.8659 37.5092 23.983 37.8768 22.096 38.2204C21.7035 38.2923 21.299 38.3922 20.9105 38.3582C20.5957 38.3303 20.0876 38.1765 20.0338 37.9807C19.9461 37.6511 20.0318 37.1217 20.2589 36.892C20.9404 36.2068 21.7095 35.6035 22.4746 35.0082C23.431 34.2651 24.4114 33.5539 25.3917 32.8428C25.832 32.5232 25.846 32.1856 25.6387 31.6941C24.7461 29.5786 23.8774 27.4532 23.0505 25.3097C22.9289 24.9921 22.9588 24.4647 23.1521 24.223C23.3115 24.0272 23.8714 23.9813 24.1643 24.0971C26.3003 24.9401 28.4203 25.8231 30.5264 26.74C30.9966 26.9438 31.2875 26.9578 31.7159 26.6122C34.3421 24.4987 36.9941 22.4151 39.6681 20.3616C39.9909 20.1139 40.5029 20.1139 40.9273 20C40.9552 20.4714 41.1366 20.9988 40.9871 21.4023C40.1901 23.5558 39.2895 25.6693 38.4666 27.8147C38.102 28.7656 37.835 29.7564 37.5162 30.7533L37.5201 30.7513Z" fill="white"/>
  <path d="M56 33.0447C55.5597 33.0172 55.116 33 54.6689 33C42.7029 33 33 42.7029 33 54.6689C33 55.116 33.0172 55.5597 33.0447 56L56 33.0447Z" fill="white" stroke="black" stroke-width="1.78605" stroke-linecap="round" stroke-linejoin="round"/>
  <defs>
    <filter id="filter0_d_3952_9213" x="11.1069" y="11.107" width="47.2745" height="48.7628" filterUnits="userSpaceOnUse" color-interpolation-filters="sRGB">
      <feFlood flood-opacity="0" result="BackgroundImageFix"/>
      <feColorMatrix in="SourceAlpha" type="matrix" values="0 0 0 0 0 0 0 0 0 0 0 0 0 0 0 0 0 0 127 0" result="hardAlpha"/>
      <feOffset dx="1.48837" dy="2.97674"/>
      <feComposite in2="hardAlpha" operator="out"/>
      <feColorMatrix type="matrix" values="0 0 0 0 0 0 0 0 0 0 0 0 0 0 0 0 0 0 0.3 0"/>
      <feBlend mode="normal" in2="BackgroundImageFix" result="effect1_dropShadow_3952_9213"/>
      <feBlend mode="normal" in="SourceGraphic" in2="effect1_dropShadow_3952_9213" result="shape"/>
    </filter>
  </defs>
</svg>