<svg width="20" height="11" viewBox="0 0 20 11" fill="none" xmlns="http://www.w3.org/2000/svg">
<path id="arrow_back_ios" d="M9.9879 8.275L17.3379 0.924999C17.5879 0.674999 17.8796 0.554166 18.2129 0.562499C18.5462 0.570832 18.8379 0.699999 19.0879 0.949999C19.3379 1.2 19.4629 1.49167 19.4629 1.825C19.4629 2.15833 19.3379 2.45 19.0879 2.7L11.4129 10.4C11.2129 10.6 10.9879 10.75 10.7379 10.85C10.4879 10.95 10.2379 11 9.9879 11C9.7379 11 9.4879 10.95 9.2379 10.85C8.9879 10.75 8.7629 10.6 8.5629 10.4L0.862903 2.7C0.612903 2.45 0.49207 2.15417 0.500403 1.8125C0.508736 1.47083 0.637903 1.175 0.887903 0.925C1.1379 0.675 1.42957 0.55 1.7629 0.55C2.09624 0.55 2.3879 0.675 2.6379 0.925L9.9879 8.275Z" fill="#A3A3A3"/>
</svg>
