<svg width="24" height="24" viewBox="0 0 24 24" fill="none" xmlns="http://www.w3.org/2000/svg">
<mask id="mask0_627_3439" style="mask-type:alpha" maskUnits="userSpaceOnUse" x="0" y="0" width="24" height="24">
<rect width="24" height="24" fill="currentColor"/>
</mask>
<g mask="url(#mask0_627_3439)">
<path d="M9.725 12L17.075 19.35C17.325 19.6 17.4458 19.8917 17.4375 20.225C17.4292 20.5583 17.3 20.85 17.05 21.1C16.8 21.35 16.5083 21.475 16.175 21.475C15.8417 21.475 15.55 21.35 15.3 21.1L7.6 13.425C7.4 13.225 7.25 13 7.15 12.75C7.05 12.5 7 12.25 7 12C7 11.75 7.05 11.5 7.15 11.25C7.25 11 7.4 10.775 7.6 10.575L15.3 2.87499C15.55 2.62499 15.8458 2.50415 16.1875 2.51249C16.5292 2.52082 16.825 2.64999 17.075 2.89999C17.325 3.14999 17.45 3.44165 17.45 3.77499C17.45 4.10832 17.325 4.39999 17.075 4.64999L9.725 12Z" fill="currentColor"/>
</g>
</svg>
