<svg width="17" height="16" viewBox="0 0 17 16" fill="none" xmlns="http://www.w3.org/2000/svg">
<g id="Component 2">
<mask id="mask0_2521_5252" style="mask-type:alpha" maskUnits="userSpaceOnUse" x="0" y="0" width="17" height="16">
<rect id="Bounding box" x="0.5" width="16" height="16" fill="#D9D9D9"/>
</mask>
<g mask="url(#mask0_2521_5252)">
<path id="arrow_forward_ios" d="M10.3084 7.99984L5.40844 3.09984C5.24177 2.93317 5.16122 2.73595 5.16677 2.50817C5.17233 2.28039 5.25844 2.08317 5.42511 1.9165C5.59177 1.74984 5.78899 1.6665 6.01677 1.6665C6.24455 1.6665 6.44177 1.74984 6.60844 1.9165L11.7251 7.04984C11.8584 7.18317 11.9584 7.33317 12.0251 7.49984C12.0918 7.6665 12.1251 7.83317 12.1251 7.99984C12.1251 8.1665 12.0918 8.33317 12.0251 8.49984C11.9584 8.6665 11.8584 8.8165 11.7251 8.94984L6.59177 14.0832C6.42511 14.2498 6.23066 14.3304 6.00844 14.3248C5.78622 14.3193 5.59177 14.2332 5.42511 14.0665C5.25844 13.8998 5.17511 13.7026 5.17511 13.4748C5.17511 13.2471 5.25844 13.0498 5.42511 12.8832L10.3084 7.99984Z" fill="white"/>
</g>
</g>
</svg>
