<svg width="20" height="11" viewBox="0 0 20 11" fill="none" xmlns="http://www.w3.org/2000/svg">
<path id="arrow_back_ios" d="M9.9879 3.27505L17.3379 10.625C17.5879 10.875 17.8796 10.9959 18.2129 10.9875C18.5462 10.9792 18.8379 10.85 19.0879 10.6C19.3379 10.35 19.4629 10.0584 19.4629 9.72505C19.4629 9.39172 19.3379 9.10005 19.0879 8.85005L11.4129 1.15005C11.2129 0.950049 10.9879 0.800049 10.7379 0.700049C10.4879 0.600049 10.2379 0.550049 9.9879 0.550049C9.7379 0.550049 9.4879 0.600049 9.2379 0.700049C8.9879 0.800049 8.7629 0.950049 8.5629 1.15005L0.862903 8.85005C0.612903 9.10005 0.49207 9.39588 0.500403 9.73755C0.508736 10.0792 0.637903 10.375 0.887903 10.625C1.1379 10.875 1.42957 11 1.7629 11C2.09624 11 2.3879 10.875 2.6379 10.625L9.9879 3.27505Z" fill="#262626"/>
</svg>
