<svg width="60" height="60" viewBox="0 0 60 60" fill="none" xmlns="http://www.w3.org/2000/svg">
<path fill-rule="evenodd" clip-rule="evenodd" d="M54.8389 12.0485C56.4048 11.3617 58.0074 12.9369 57.3477 14.5144L52.9024 25.1447L53.8317 36.9943C53.8727 37.5159 53.483 37.9718 52.9614 38.0127C52.4399 38.0537 51.9839 37.664 51.943 37.1424L51.0136 25.2928C50.9901 24.9928 51.0384 24.6914 51.1545 24.4137L55.5998 13.7835L3.77218 36.5149C3.29307 36.7251 2.73432 36.507 2.52418 36.0279C2.31404 35.5488 2.53209 34.9901 3.0112 34.7799L54.8389 12.0485Z" fill="#0A0A0A"/>
<path d="M23.545 40.1652C23.5828 39.6326 23.5504 38.9847 23.572 38.4136C23.626 37.6723 23.5342 36.9859 22.7729 37.0299C21.9899 37.0573 21.2394 37.2275 20.451 37.2879C19.7599 37.3483 18.9715 37.3813 18.68 36.964C17.4165 33.8945 16.7415 30.5889 16.1961 27.3108C15.3484 22.1767 14.2091 17.0535 14.3819 11.8371C14.3927 11.0574 14.992 10.5906 15.6778 10.4039C18.7664 9.44848 21.8333 8.4601 24.9867 7.70234C31.882 5.85187 33.3237 7.24659 34.2362 13.9127C34.3658 14.632 35.1002 14.8352 35.7373 14.7693C37.2276 14.6869 38.6801 14.5936 40.1488 15.0164C40.5268 15.1152 40.9102 15.225 41.2881 15.2745C41.7525 15.3458 42.2115 15.2964 42.6704 15.2799C44.4307 15.1976 46.2666 16.7021 46.0614 18.591C46.0182 21.7484 45.6132 24.8947 45.1164 28.0136C44.3227 32.7578 43.6802 37.535 42.5624 42.2134C42.2169 43.5642 41.2719 44.5306 39.868 44.4812C35.4296 44.591 31.0235 44.6514 26.5958 44.6788C23.4262 44.9699 23.4856 42.8778 23.5342 40.2146V40.1597L23.545 40.1652ZM19.9705 35.2288C20.1217 35.3112 20.3052 35.3222 20.505 35.3002C24.4413 34.6577 28.4749 34.0043 32.4328 33.3344C33.4317 33.1422 34.5602 32.9336 34.4306 31.6157C34.139 28.0356 33.6531 24.4829 33.2697 20.9137C32.9403 18.1188 32.6164 15.3294 32.2438 12.5399C32.0926 10.8597 31.5364 8.71818 29.5548 8.69622C28.95 8.6468 28.2049 8.77309 27.6001 8.8884C24.2848 9.54732 21.0234 10.1898 17.8214 11.3484C16.7901 11.7437 15.6508 11.9249 15.7966 13.3032C16.3149 18.8766 17.546 24.3676 18.2966 29.919C18.3776 31.6651 18.7124 33.1916 19.5601 34.7566C19.6519 34.9323 19.7707 35.1025 19.9273 35.2013L19.9705 35.2288ZM37.665 16.4989C36.5473 16.5099 34.679 16.1585 34.76 17.5093C34.7924 18.6569 34.922 19.7222 36.3259 19.7112C37.4706 19.7936 38.5829 19.8759 39.7276 20.0187C40.8886 20.0736 41.8389 20.8973 41.8605 22.1272C41.6229 26.1686 41.1531 30.1771 40.7536 34.1965C40.651 35.3716 40.3918 36.7773 39.0905 37.1012C38.5613 37.2605 37.9836 37.277 37.4436 37.277C35.1812 37.255 31.3042 37.6998 29.3496 37.0134C28.8258 36.8267 28.3399 36.4258 27.7675 36.3654C27.1951 36.327 26.6066 36.4643 26.0882 36.6839C25.6887 36.8761 25.5915 37.3428 25.5807 37.7657C25.5537 38.9956 25.5429 40.2256 25.5429 41.4611C25.5159 42.3726 25.9154 42.768 26.8334 42.7295C30.9047 42.7295 34.9436 42.5813 39.0257 42.5428C39.9922 42.5593 40.7104 42.2299 40.8832 41.1811C41.8929 36.0634 42.6434 30.9348 43.6586 25.8117C43.9663 23.8789 44.8735 19.1182 43.8853 17.5203C43.5938 17.1469 43.124 17.059 42.6812 17.0041C40.9587 16.7955 39.3497 16.6143 37.7406 16.4989H37.6704H37.665Z" fill="#0A0A0A"/>
<path d="M20.0652 35.21C19.9068 35.1119 19.7866 34.9429 19.6937 34.7685C19.1639 33.6839 18.7379 32.7519 18.574 31.6074C17.9786 25.6503 16.5257 19.7695 15.903 13.8124C15.7009 12.1392 16.5912 12.0139 17.9404 11.5288C21.1794 10.3842 24.4786 9.74112 27.8323 9.08709C28.4386 8.96719 29.1978 8.84728 29.8096 8.89633C31.8142 8.92359 32.3768 11.0437 32.5297 12.7115C32.9066 15.4802 33.2344 18.2489 33.5675 21.0231C33.928 24.0479 34.2612 27.0783 34.6108 30.1086C34.7965 31.9834 35.1625 32.9754 32.8575 33.3242C28.81 34.0055 24.6807 34.654 20.6551 35.3026C20.453 35.3244 20.2673 35.3135 20.1143 35.2318L20.0706 35.2045L20.0652 35.21ZM17.6618 15.1041C18.1152 18.3143 18.9181 21.4918 19.5954 24.6638C19.7538 25.3124 20.1307 25.9174 20.6933 26.288C21.3433 26.7567 22.0861 26.7676 22.8181 26.5877C24.8554 26.1626 26.9037 25.7538 28.8756 25.0889C31.41 24.3313 32.1583 22.5164 31.7541 20.0257C31.4701 17.7039 31.197 15.4257 30.8638 13.1257C30.7655 12.379 30.5415 11.5669 29.9188 11.1037C28.7226 10.2807 27.0731 10.5423 25.7021 10.6459C22.6761 10.9184 18.4702 11.5778 17.6618 15.0333V15.0932V15.1041Z" fill="white"/>
<path d="M37.9485 16.4728C39.5637 16.5888 41.1789 16.7656 42.9079 16.9811C43.3523 17.0364 43.8293 17.1248 44.1165 17.5005C45.1084 19.0974 44.1978 23.91 43.8889 25.8439C42.9024 30.85 42.1545 35.845 41.2005 40.8456C41.1138 41.3152 41.0054 41.8843 40.6965 42.2214C40.2358 42.7242 39.4119 42.6634 38.7778 42.6855C34.6476 42.669 30.5013 42.995 26.382 42.8016C25.737 42.6579 25.7045 42.028 25.7262 41.481C25.7912 40.1991 25.4823 37.8452 25.9809 36.9446C26.1164 36.7844 26.3332 36.7236 26.5283 36.6628C26.9945 36.5523 27.5527 36.3755 28.0622 36.4804C28.7126 36.6131 29.2547 37.1435 29.9051 37.2651C32.7777 37.6242 35.6775 37.4364 38.5718 37.3424C40.3658 37.2485 40.8699 35.8892 40.9729 34.2813C41.4011 30.5019 41.6883 26.7335 42.0732 22.9376C42.2683 21.6391 41.6775 20.1969 40.2737 20.0643C39.0217 19.8709 37.7859 19.7991 36.5284 19.7052C36.0731 19.6665 35.6178 19.6002 35.3794 19.2908C35.0216 18.7935 34.9783 18.0917 34.9566 17.495C34.8699 16.1357 36.7506 16.4728 37.8726 16.4728H37.9431H37.9485Z" fill="white"/>
<path d="M17.3846 15.0277C18.2016 11.4729 22.4466 10.8011 25.5103 10.5212C26.8959 10.4148 28.563 10.1461 29.7719 10.9914C30.4012 11.4729 30.6275 12.3014 30.7269 13.0684C31.0636 15.4308 31.3341 17.7709 31.6266 20.1557C32.0351 22.7141 31.2789 24.5839 28.7175 25.3565C26.7247 26.0338 24.6602 26.4593 22.5956 26.896C21.8504 27.0807 21.0997 27.0695 20.4483 26.5881C19.8797 26.2018 19.4988 25.586 19.3387 24.9198C18.6542 21.656 17.8428 18.3923 17.3846 15.1005V15.0389V15.0277Z" fill="#0A0A0A"/>
<path d="M23.9178 20.1497C22.7665 20.0128 21.7774 19.163 21.481 18.0471C21.4431 17.9022 21.4179 17.7491 21.4288 17.6011C21.447 17.3532 21.5751 17.1706 21.8393 17.1283C22.0918 17.0877 22.2923 17.1755 22.3978 17.4149C22.4683 17.575 22.5035 17.7527 22.5707 17.9145C23.1257 19.2446 24.8068 19.5249 25.7388 18.426C26.0461 18.0628 26.2723 17.6285 26.5327 17.2255C26.71 16.9515 26.9527 16.8486 27.2454 17C27.5028 17.1351 27.5954 17.4039 27.4755 17.6496C26.9106 18.8085 26.2578 19.8829 24.8211 20.1237C24.5172 20.1749 24.2194 20.1875 23.9161 20.1505L23.9178 20.1497Z" fill="#FEFEFE"/>
<path d="M23.5591 15.0374C23.5171 15.3348 23.2714 15.5042 22.9564 15.4519C22.6699 15.4024 22.4587 15.1313 22.498 14.8624C22.5382 14.5994 22.8447 14.3834 23.1118 14.432C23.3865 14.4831 23.5968 14.7652 23.5591 15.0374Z" fill="#F1F1F1"/>
<path d="M25.5369 14.3542C25.8056 14.423 25.9483 14.6146 25.9223 14.8979C25.8963 15.1937 25.6894 15.3355 25.4069 15.3322C25.1269 15.3298 24.9058 15.0216 24.9645 14.7495C25.0147 14.5068 25.2832 14.3157 25.5361 14.3525L25.5369 14.3542Z" fill="#EDEDED"/>
<path d="M3.88871 35.5078L46.5616 33.5876C47.2788 33.5553 47.7698 34.3014 47.4565 34.9474L37.0016 56.4972C36.7577 57 36.1337 57.1834 35.6564 56.8927L3.43842 37.2631C2.63977 36.7765 2.95444 35.5499 3.88871 35.5078Z" fill="white"/>
<path fill-rule="evenodd" clip-rule="evenodd" d="M46.519 32.6412C47.9534 32.5767 48.9355 34.069 48.3087 35.3609L37.8539 56.9107C37.366 57.9163 36.1181 58.2832 35.1636 57.7016L2.94556 38.0721C1.34827 37.0989 1.9776 34.6456 3.84614 34.5615L46.519 32.6412ZM46.6042 34.5339L3.93131 36.4542L36.1493 56.0837L46.6042 34.5339Z" fill="#0A0A0A"/>
<path fill-rule="evenodd" clip-rule="evenodd" d="M46.3517 33.3385C46.5806 32.868 47.1475 32.6722 47.618 32.901L52.6822 35.3647C54.49 36.2442 53.8638 38.9629 51.8534 38.9629H46.0195C45.4963 38.9629 45.0722 38.5388 45.0722 38.0156C45.0722 37.4925 45.4963 37.0684 46.0195 37.0684H51.8534L46.7892 34.6047C46.3187 34.3758 46.1229 33.8089 46.3517 33.3385Z" fill="#0A0A0A"/>
<path fill-rule="evenodd" clip-rule="evenodd" d="M52.8554 24.5096C52.9902 25.0151 52.6897 25.5342 52.1842 25.669L45.0795 27.5635C44.574 27.6983 44.0549 27.3978 43.9201 26.8923C43.7853 26.3868 44.0858 25.8677 44.5913 25.7329L51.696 23.8384C52.2015 23.7036 52.7206 24.0041 52.8554 24.5096Z" fill="#0A0A0A"/>
</svg>
