<svg width="56" height="56" viewBox="0 0 56 56" fill="none" xmlns="http://www.w3.org/2000/svg">
<g opacity="0.75" filter="url(#filter0_d_4286_4144)">
<rect width="40" height="40" rx="7" transform="matrix(-1 0 0 1 48 4)" fill="#262626" shape-rendering="crispEdges"/>
<mask id="mask0_4286_4144" style="mask-type:alpha" maskUnits="userSpaceOnUse" x="18" y="14" width="20" height="20">
<rect width="20" height="20" transform="matrix(-1 0 0 1 38 14)" fill="#D9D9D9"/>
</mask>
<g mask="url(#mask0_4286_4144)">
<path d="M24.5207 24.8334H33.8332C34.0693 24.8334 34.2672 24.7536 34.4269 24.5938C34.5866 24.4341 34.6665 24.2362 34.6665 24.0001C34.6665 23.764 34.5866 23.5661 34.4269 23.4063C34.2672 23.2466 34.0693 23.1668 33.8332 23.1668H24.5207L28.604 19.0834C28.7707 18.9168 28.8505 18.7223 28.8436 18.5001C28.8366 18.2779 28.7498 18.0834 28.5832 17.9168C28.4165 17.764 28.2221 17.6841 27.9998 17.6772C27.7776 17.6702 27.5832 17.7501 27.4165 17.9168L21.9165 23.4168C21.8332 23.5001 21.7741 23.5904 21.7394 23.6876C21.7047 23.7848 21.6873 23.889 21.6873 24.0001C21.6873 24.1112 21.7047 24.2154 21.7394 24.3126C21.7741 24.4098 21.8332 24.5001 21.9165 24.5834L27.4165 30.0834C27.5693 30.2362 27.7603 30.3126 27.9894 30.3126C28.2186 30.3126 28.4165 30.2362 28.5832 30.0834C28.7498 29.9168 28.8332 29.7188 28.8332 29.4897C28.8332 29.2605 28.7498 29.0626 28.5832 28.8959L24.5207 24.8334Z" fill="white"/>
</g>
</g>
<defs>
<filter id="filter0_d_4286_4144" x="0" y="0" width="56" height="56" filterUnits="userSpaceOnUse" color-interpolation-filters="sRGB">
<feFlood flood-opacity="0" result="BackgroundImageFix"/>
<feColorMatrix in="SourceAlpha" type="matrix" values="0 0 0 0 0 0 0 0 0 0 0 0 0 0 0 0 0 0 127 0" result="hardAlpha"/>
<feOffset dy="4"/>
<feGaussianBlur stdDeviation="4"/>
<feComposite in2="hardAlpha" operator="out"/>
<feColorMatrix type="matrix" values="0 0 0 0 0 0 0 0 0 0 0 0 0 0 0 0 0 0 0.5 0"/>
<feBlend mode="normal" in2="BackgroundImageFix" result="effect1_dropShadow_4286_4144"/>
<feBlend mode="normal" in="SourceGraphic" in2="effect1_dropShadow_4286_4144" result="shape"/>
</filter>
</defs>
</svg>
