<svg width="56" height="56" viewBox="0 0 56 56" fill="none" xmlns="http://www.w3.org/2000/svg">
<g opacity="0.75" filter="url(#filter0_d_4286_4139)">
<rect x="8" y="4" width="40" height="40" rx="7" fill="#262626" shape-rendering="crispEdges"/>
<mask id="mask0_4286_4139" style="mask-type:alpha" maskUnits="userSpaceOnUse" x="18" y="14" width="20" height="20">
<rect x="18" y="14" width="20" height="20" fill="#D9D9D9"/>
</mask>
<g mask="url(#mask0_4286_4139)">
<path d="M31.4793 24.8334H22.1668C21.9307 24.8334 21.7328 24.7536 21.5731 24.5938C21.4134 24.4341 21.3335 24.2362 21.3335 24.0001C21.3335 23.764 21.4134 23.5661 21.5731 23.4063C21.7328 23.2466 21.9307 23.1668 22.1668 23.1668H31.4793L27.396 19.0834C27.2293 18.9168 27.1495 18.7223 27.1564 18.5001C27.1634 18.2779 27.2502 18.0834 27.4168 17.9168C27.5835 17.764 27.7779 17.6841 28.0002 17.6772C28.2224 17.6702 28.4168 17.7501 28.5835 17.9168L34.0835 23.4168C34.1668 23.5001 34.2259 23.5904 34.2606 23.6876C34.2953 23.7848 34.3127 23.889 34.3127 24.0001C34.3127 24.1112 34.2953 24.2154 34.2606 24.3126C34.2259 24.4098 34.1668 24.5001 34.0835 24.5834L28.5835 30.0834C28.4307 30.2362 28.2397 30.3126 28.0106 30.3126C27.7814 30.3126 27.5835 30.2362 27.4168 30.0834C27.2502 29.9168 27.1668 29.7188 27.1668 29.4897C27.1668 29.2605 27.2502 29.0626 27.4168 28.8959L31.4793 24.8334Z" fill="white"/>
</g>
</g>
<defs>
<filter id="filter0_d_4286_4139" x="0" y="0" width="56" height="56" filterUnits="userSpaceOnUse" color-interpolation-filters="sRGB">
<feFlood flood-opacity="0" result="BackgroundImageFix"/>
<feColorMatrix in="SourceAlpha" type="matrix" values="0 0 0 0 0 0 0 0 0 0 0 0 0 0 0 0 0 0 127 0" result="hardAlpha"/>
<feOffset dy="4"/>
<feGaussianBlur stdDeviation="4"/>
<feComposite in2="hardAlpha" operator="out"/>
<feColorMatrix type="matrix" values="0 0 0 0 0 0 0 0 0 0 0 0 0 0 0 0 0 0 0.5 0"/>
<feBlend mode="normal" in2="BackgroundImageFix" result="effect1_dropShadow_4286_4139"/>
<feBlend mode="normal" in="SourceGraphic" in2="effect1_dropShadow_4286_4139" result="shape"/>
</filter>
</defs>
</svg>
