<svg width="16" height="16" viewBox="0 0 16 16" fill="none" xmlns="http://www.w3.org/2000/svg">
<mask id="mask0_1476_2144" style="mask-type:alpha" maskUnits="userSpaceOnUse" x="0" y="0" width="16" height="16">
<rect width="16" height="16" fill="#D9D9D9"/>
</mask>
<g mask="url(#mask0_1476_2144)">
<path d="M4.66659 11.3334C3.74436 11.3334 2.95825 11.0084 2.30825 10.3584C1.65825 9.70841 1.33325 8.9223 1.33325 8.00008C1.33325 7.07786 1.65825 6.29175 2.30825 5.64175C2.95825 4.99175 3.74436 4.66675 4.66659 4.66675H6.66659C6.85547 4.66675 7.01381 4.73064 7.14159 4.85841C7.26936 4.98619 7.33325 5.14453 7.33325 5.33341C7.33325 5.5223 7.26936 5.68064 7.14159 5.80841C7.01381 5.93619 6.85547 6.00008 6.66659 6.00008H4.66659C4.11103 6.00008 3.63881 6.19453 3.24992 6.58341C2.86103 6.9723 2.66659 7.44453 2.66659 8.00008C2.66659 8.55564 2.86103 9.02786 3.24992 9.41675C3.63881 9.80564 4.11103 10.0001 4.66659 10.0001H6.66659C6.85547 10.0001 7.01381 10.064 7.14159 10.1917C7.26936 10.3195 7.33325 10.4779 7.33325 10.6667C7.33325 10.8556 7.26936 11.014 7.14159 11.1417C7.01381 11.2695 6.85547 11.3334 6.66659 11.3334H4.66659ZM5.99992 8.66675C5.81103 8.66675 5.6527 8.60286 5.52492 8.47508C5.39714 8.3473 5.33325 8.18897 5.33325 8.00008C5.33325 7.81119 5.39714 7.65286 5.52492 7.52508C5.6527 7.3973 5.81103 7.33341 5.99992 7.33341H9.99992C10.1888 7.33341 10.3471 7.3973 10.4749 7.52508C10.6027 7.65286 10.6666 7.81119 10.6666 8.00008C10.6666 8.18897 10.6027 8.3473 10.4749 8.47508C10.3471 8.60286 10.1888 8.66675 9.99992 8.66675H5.99992ZM9.33325 11.3334C9.14436 11.3334 8.98603 11.2695 8.85825 11.1417C8.73047 11.014 8.66659 10.8556 8.66659 10.6667C8.66659 10.4779 8.73047 10.3195 8.85825 10.1917C8.98603 10.064 9.14436 10.0001 9.33325 10.0001H11.3333C11.8888 10.0001 12.361 9.80564 12.7499 9.41675C13.1388 9.02786 13.3333 8.55564 13.3333 8.00008C13.3333 7.44453 13.1388 6.9723 12.7499 6.58341C12.361 6.19453 11.8888 6.00008 11.3333 6.00008H9.33325C9.14436 6.00008 8.98603 5.93619 8.85825 5.80841C8.73047 5.68064 8.66659 5.5223 8.66659 5.33341C8.66659 5.14453 8.73047 4.98619 8.85825 4.85841C8.98603 4.73064 9.14436 4.66675 9.33325 4.66675H11.3333C12.2555 4.66675 13.0416 4.99175 13.6916 5.64175C14.3416 6.29175 14.6666 7.07786 14.6666 8.00008C14.6666 8.9223 14.3416 9.70841 13.6916 10.3584C13.0416 11.0084 12.2555 11.3334 11.3333 11.3334H9.33325Z" fill="white"/>
</g>
</svg>
