<svg width="100" height="100" viewBox="0 0 100 100" fill="none" xmlns="http://www.w3.org/2000/svg">
<g id="Frame 2608331">
<g id="Group 48095909" opacity="0.6">
<g id="Group">
<path id="Vector" d="M21.4256 33.6505C23.0519 32.0958 24.5971 31.1013 26.2019 30.1339C29.1394 28.3622 32.3708 27.2924 35.5746 26.2697C39.4222 25.0403 43.4242 24.2651 47.4169 23.5291C50.9305 22.8807 54.41 22.2798 58.0266 22.2243C65.2441 22.1177 68.4174 25.2017 70.8523 31.328C72.3023 34.9734 73.0356 38.8284 73.7926 42.6621C74.8301 47.9154 75.893 53.1667 76.9714 58.4134C77.6941 61.9301 78.523 65.4252 79.1825 68.9472C79.6148 71.2595 79.8598 73.6129 80.1261 75.9549C80.3149 77.5963 79.7254 78.819 78.0511 79.3571C76.3583 79.9032 74.6963 80.5811 72.9751 81.0207C68.2714 82.2121 63.5755 83.4572 58.8167 84.3844C55.0279 85.1228 51.2674 86.0027 47.4313 86.5658C44.145 87.0484 40.9191 87.7466 37.5536 87.5447C36.6578 87.4907 35.7972 87.3667 34.9281 87.2177C33.5131 86.9763 32.8336 86.1239 32.1949 84.7947C29.9463 80.1373 28.6208 75.1572 26.7988 70.3558C26.2842 68.9908 26.0273 67.5149 25.6989 66.0961C24.3624 60.3013 22.9229 54.5309 22.0639 48.6295C21.5587 45.162 21.0157 41.6976 20.7248 38.206C20.5883 36.5443 20.2363 34.7467 21.4279 33.6407L21.4256 33.6505Z" fill="#060606"/>
<path id="Vector_2" d="M24.0566 34.8984C25.1954 33.5536 26.8452 32.9535 28.314 32.1764C31.826 30.3158 35.6267 29.2053 39.463 28.1016C43.9884 26.8002 48.6019 26.0673 53.182 25.1357C55.6488 24.6345 58.1967 24.7663 60.7045 25.0583C63.8358 25.4203 65.9046 27.3799 67.0957 30.1061C68.7463 33.8981 69.8773 37.8609 70.76 41.9306C71.7596 46.5344 72.7442 51.1491 73.6938 55.7634C75.0037 62.1235 76.9214 68.3757 77.3717 74.9123C77.4641 76.2546 76.9437 76.7422 75.9803 77.2952C74.3234 78.2477 72.4029 78.2304 70.6377 78.8208C67.278 79.9524 63.7877 80.7556 60.3022 81.4337C55.0769 82.4475 49.8959 83.6751 44.6109 84.4442C42.2008 84.7936 39.8404 85.238 37.4105 85.0356C36.1634 84.9307 35.3392 84.4965 34.7099 83.093C32.1624 77.4238 30.1896 71.5952 28.5215 65.6134C27.4448 61.7613 26.5151 57.881 25.7423 53.975C24.6532 48.4605 23.5973 42.9272 23.3441 37.2925C23.2955 36.2323 23.5328 35.4322 24.056 34.8921L24.0566 34.8984Z" fill="white"/>
<path id="Vector_3" d="M35.8092 70.4422C33.6017 68.3179 32.5254 65.5947 31.6728 62.7731C30.7297 59.6455 29.7647 56.5228 28.9928 53.3522C27.9129 48.921 26.7394 44.44 26.9487 39.8671C27.074 37.1279 29.0414 35.2155 31.502 34.0269C34.4877 32.5839 37.6155 31.4906 40.8128 30.6091C44.4797 29.6025 48.1246 28.4537 51.9526 28.1952C54.2843 28.0378 56.607 27.7788 58.9417 28.4882C61.9696 29.409 63.8668 31.3701 65.1995 34.1873C67.079 38.1558 67.7987 42.4344 68.6523 46.6443C69.4101 50.3791 69.9936 54.2307 69.8305 58.0608C69.5757 64.0354 67.8418 67.3745 61.5072 69.0238C57.033 70.1867 52.5509 71.2958 47.9567 71.9631C44.5691 72.454 41.2506 72.4274 37.9076 71.6509C37.0305 71.4482 36.6075 70.6898 35.8126 70.4451L35.8092 70.4422Z" fill="#060606"/>
<path id="Vector_4" d="M53.2311 49.9559C53.2137 51.2893 53.0922 52.7556 52.3509 54.0841C50.9158 56.6677 47.8944 56.9755 46.1581 54.5893C44.191 51.891 43.6908 48.8905 45.0594 45.7612C46.3602 42.7868 49.7017 42.4145 51.7234 44.9672C52.8516 46.3883 53.208 48.0403 53.2311 49.9559Z" fill="white"/>
<path id="Vector_5" d="M42.7727 37.6458C43.6931 37.602 44.5472 38.342 44.618 39.25C44.6951 40.2393 44.041 40.9478 43.0086 40.9846C41.994 41.0211 41.2137 40.3747 41.1469 39.444C41.0804 38.5269 41.8388 37.6898 42.7727 37.6458Z" fill="white"/>
<path id="Vector_6" d="M50.2142 36.8388C51.0976 36.9404 51.6775 37.4409 51.811 38.3521C51.939 39.2227 51.058 40.1658 50.1969 40.0638C49.2999 39.9579 48.6967 39.4125 48.7098 38.458C48.7235 37.5306 49.265 36.9826 50.2142 36.8388Z" fill="white"/>
</g>
<g id="Group_2">
<g id="Group_3">
<path id="Vector_7" d="M49.6614 31.3579C49.3825 31.4994 48.9963 31.5893 48.7541 31.4714C48.408 31.3001 47.9213 30.6859 48.0212 30.3087C48.3273 29.125 48.6825 28.1612 49.1095 27.3568C49.9133 25.8511 50.826 24.3759 51.7064 22.9498L51.9151 22.6113C52.2517 22.065 52.3338 21.7173 51.8733 21.2122C51.1444 20.4149 50.5437 19.6055 50.0891 18.8036C49.1832 17.2227 49.6944 15.49 51.3581 14.4989C51.4992 14.4151 51.6398 14.1111 51.6879 13.7929C51.7312 13.5138 51.7111 13.222 51.691 12.9384C51.686 12.8471 51.6793 12.7607 51.6759 12.6726C51.5686 12.5801 51.4368 12.4796 51.3116 12.384C50.884 12.0582 50.5458 11.7972 50.6101 11.5115C50.7695 10.8144 51.1753 9.98409 51.7235 9.70595C53.0389 9.05896 54.5847 8.36851 56.1801 8.10183C56.8779 7.98445 57.6247 7.94022 58.3454 7.90101C58.649 7.88167 58.9509 7.86723 59.2528 7.84463C62.2315 7.61885 65.8116 10.1121 66.9169 13.1794C68.4499 17.4418 65.9691 19.782 64.8294 20.5929C64.6494 20.721 64.4516 20.8377 64.2278 20.9512C63.7931 21.1718 63.321 21.3419 62.8635 21.5087C62.6266 21.5963 62.3849 21.6822 62.1481 21.7779C62.5066 22.4448 62.6247 23.0379 62.486 23.5082C62.3876 23.8397 62.1658 24.1033 61.8381 24.2696C61.4878 24.4473 61.022 24.5163 60.4537 24.4782C59.0248 24.3788 57.4915 24.0304 55.628 23.3801C55.2446 23.2482 54.9751 23.2299 54.7772 23.3302C54.615 23.4125 54.4757 23.573 54.2961 23.8886L53.628 25.0479C52.7608 26.5572 51.8904 28.068 51.0135 29.5741L50.8873 29.7932C50.6203 30.2592 50.3437 30.7383 49.9711 31.1314C49.8933 31.2117 49.7863 31.2905 49.6598 31.3547L49.6614 31.3579ZM56.6618 20.7661C57.9319 21.8316 59.7752 22.1493 60.7517 21.6865L56.6618 20.7661ZM55.3582 16.7994C55.6476 16.9954 55.9354 17.2126 56.2118 17.4234C56.8346 17.895 57.4785 18.3846 58.182 18.652C59.771 19.2579 61.3257 19.7383 62.8405 18.9697C62.9768 18.9006 63.1146 18.8184 63.2459 18.7314C64.6792 17.7756 65.2544 16.4308 64.9168 14.839C64.5251 13.0013 63.3419 11.5733 61.4942 10.7028C59.5441 9.78231 57.5401 10.3134 55.5978 10.8296C55.3934 10.8844 55.1922 10.9375 54.991 10.9906C54.9812 10.9955 54.9666 10.9989 54.9569 11.0038C54.8563 11.0548 54.6895 11.2252 54.4632 11.7399C53.6051 13.6976 54.3812 15.3281 55.3582 16.7994ZM52.4433 16.4378C51.8577 17.4941 52.3785 18.1032 52.9285 18.7465C52.9968 18.826 53.0636 18.9024 53.1287 18.9836C53.2865 19.177 53.7334 19.3543 53.8372 19.3342C54.0026 19.2014 54.1662 19.049 54.3315 18.8916L52.4433 16.4378ZM54.7868 18.428C54.8808 18.3314 55.2696 17.9137 55.3716 17.8089L55.2789 17.7294L54.7868 18.428Z" fill="#171717"/>
<path id="Vector_8" d="M51.802 9.87029C51.802 9.87029 51.8085 9.867 51.8117 9.86536C53.2098 9.18047 54.694 8.53759 56.2066 8.28434C57.182 8.12001 58.2406 8.10533 59.2632 8.02721C62.2549 7.803 65.7199 10.3995 66.7419 13.2438C68.0399 16.8501 66.4488 19.2205 64.7238 20.4467C64.5406 20.5764 64.3493 20.6898 64.1449 20.7935C63.4378 21.1523 62.6314 21.3778 61.8868 21.6943C62.5694 22.8458 62.5062 23.7349 61.7569 24.1151C61.4455 24.2731 61.0122 24.3419 60.4682 24.3037C58.8542 24.1921 57.2266 23.7528 55.688 23.2152C55.2396 23.0591 54.9327 23.0556 54.6959 23.1758C54.4754 23.2877 54.3118 23.5053 54.1403 23.8046C53.0483 25.7014 51.9611 27.5998 50.8609 29.4884C50.5519 30.0166 50.2575 30.5741 49.846 31.0114C49.7829 31.0802 49.6888 31.1442 49.585 31.1969C49.332 31.3253 49.0107 31.3904 48.8401 31.3096C48.5313 31.1561 48.1357 30.6181 48.2033 30.3553C48.4595 29.356 48.7935 28.3499 49.2755 27.4442C50.1376 25.8273 51.1134 24.267 52.0779 22.7084C52.442 22.1196 52.5482 21.6739 52.0162 21.0909C51.3556 20.365 50.7403 19.5671 50.2531 18.7165C49.3733 17.1794 49.9172 15.5771 51.4593 14.6599C51.688 14.5235 51.8333 14.1233 51.8749 13.8247C51.9374 13.4053 51.8715 12.9653 51.861 12.5951C51.4739 12.2365 50.7344 11.8077 50.7923 11.558C50.9339 10.9392 51.2992 10.1335 51.8085 9.87515M62.9223 19.1324C63.065 19.06 63.2061 18.9762 63.3504 18.8826C64.7983 17.9153 65.4627 16.513 65.0972 14.8007C64.6694 12.8017 63.3743 11.3856 61.5737 10.5361C59.362 9.49122 57.1344 10.2501 54.9503 10.8114C54.9259 10.8197 54.9016 10.8279 54.8789 10.8394C54.6356 10.9629 54.4319 11.3683 54.2993 11.664C53.4509 13.6005 54.0971 15.2316 55.2289 16.9305C56.1864 17.5752 57.0664 18.4224 58.1177 18.8236C59.6628 19.415 61.3183 19.9504 62.9239 19.1357M53.906 19.5036C53.906 19.5036 53.9157 19.4986 53.9222 19.4953C54.5479 18.9983 55.0775 18.3745 55.6414 17.7946C55.5096 17.6859 55.3779 17.5773 55.2446 17.4654C54.9952 17.8204 54.7427 18.1771 54.3898 18.6745C53.7566 17.849 53.1315 17.0397 52.425 16.1167C51.4603 17.5693 52.3515 18.3251 52.9879 19.1001C53.18 19.3373 53.7471 19.5842 53.906 19.5036ZM60.8675 21.8279C60.994 21.7637 61.1059 21.6865 61.2031 21.5964C59.4927 21.2113 57.7824 20.8262 56.0721 20.441C57.3592 21.9061 59.6851 22.4237 60.8659 21.8246M51.639 9.54489C50.9967 9.87076 50.5862 10.7892 50.4317 11.4716C50.34 11.8732 50.74 12.1763 51.2001 12.5264C51.3042 12.6042 51.405 12.6837 51.4961 12.7599C51.4995 12.8235 51.5061 12.8854 51.5095 12.949C51.5279 13.2212 51.5463 13.5017 51.5095 13.7611C51.4646 14.0533 51.3401 14.2919 51.2687 14.3363C49.5109 15.3833 48.9756 17.2139 49.9336 18.8908C50.3963 19.7008 51.0068 20.5215 51.7423 21.3319C52.097 21.7233 52.104 21.9646 51.7641 22.5125L51.5554 22.8511C50.6718 24.2789 49.7575 25.759 48.9521 27.2696C48.5121 28.0968 48.1617 29.0459 47.8476 30.2623C47.722 30.7505 48.2623 31.4313 48.6751 31.6382C48.9937 31.7949 49.4334 31.682 49.7448 31.524C49.8908 31.4499 50.0172 31.3612 50.1063 31.263C50.4919 30.8551 50.775 30.3646 51.0468 29.892L51.1714 29.6778C52.0516 28.1701 52.9333 26.6331 53.7875 25.1467L54.4541 23.9923C54.6126 23.7159 54.7357 23.5719 54.8622 23.5077C54.9563 23.4599 55.1364 23.4135 55.5718 23.568C57.4548 24.2247 59.0011 24.5747 60.4462 24.674C61.0454 24.7169 61.5437 24.6395 61.9232 24.447C62.3027 24.2544 62.5521 23.9565 62.665 23.5727C62.8037 23.1024 62.7132 22.5239 62.4035 21.8893C62.577 21.8216 62.7571 21.7588 62.9291 21.696C63.3898 21.5276 63.8684 21.3541 64.3128 21.1286C64.5464 21.0101 64.7491 20.8869 64.9355 20.7556C66.1092 19.9233 68.6647 17.5126 67.0875 13.1297C65.9593 9.99236 62.2915 7.44568 59.2414 7.67505C58.9427 7.69601 58.6424 7.7137 58.3421 7.7314C57.6148 7.7739 56.8632 7.81652 56.154 7.93559C54.5359 8.20563 52.9738 8.90432 51.6568 9.54806L51.6439 9.55465L51.639 9.54489ZM55.4913 16.6668C53.9149 14.2751 54.146 12.9172 54.6324 11.8093C54.8684 11.2733 55.0159 11.178 55.0419 11.1649C55.2431 11.1117 55.4443 11.0586 55.6488 11.0039C57.6446 10.4728 59.5334 9.97152 61.4217 10.8663C63.2126 11.7125 64.3632 13.0999 64.7451 14.8774C65.0663 16.3876 64.5169 17.6704 63.1534 18.5785C63.0253 18.6639 62.8955 18.7379 62.7625 18.8054C61.3126 19.5411 59.8001 19.0719 58.2501 18.4789C57.5726 18.2227 56.9677 17.7624 56.3254 17.2761C56.0555 17.0702 55.7791 16.8595 55.4946 16.6651L55.4913 16.6668ZM53.7705 19.1438C53.6308 19.1085 53.3562 18.9745 53.2651 18.8656C53.1999 18.7844 53.1316 18.7048 53.0632 18.6252C52.5653 18.0453 52.1568 17.5628 52.4718 16.7786L53.6145 18.2639L54.0801 18.8684C53.9763 18.9618 53.8759 19.0536 53.7689 19.1405L53.7705 19.1438ZM60.0035 21.703C59.2666 21.7831 58.3927 21.5572 57.637 21.1693L60.0035 21.703Z" fill="white"/>
</g>
<g id="Group_4">
<path id="Vector_9" d="M62.9986 19.3001C61.3503 20.1365 59.6457 19.6093 58.0448 18.9968C57.2956 18.7116 56.6304 18.204 55.9847 17.7192C55.7016 17.5036 55.4089 17.2847 55.1178 17.0854L55.0869 17.0643L55.0706 17.0318C54.0232 15.4689 53.1866 13.7256 54.1242 11.5923C54.3473 11.0872 54.5579 10.7926 54.785 10.6773C54.8207 10.6592 54.858 10.6444 54.8937 10.6344C55.095 10.5813 55.2962 10.5281 55.4975 10.475C57.5021 9.94368 59.5748 9.3941 61.6425 10.3699C63.5948 11.2939 64.8467 12.8102 65.2663 14.761C65.6336 16.4853 64.987 18.0054 63.4398 19.0355C63.2938 19.134 63.1462 19.2212 62.997 19.2969L62.9986 19.3001Z" fill="white"/>
<path id="Vector_10" d="M54.8712 10.8417C54.8939 10.8302 54.9167 10.8187 54.9426 10.8137C57.1274 10.2522 59.3556 9.49304 61.568 10.5383C63.3642 11.3864 64.6646 12.8045 65.0925 14.8042C65.4581 16.5171 64.7934 17.9199 63.3452 18.8875C63.2057 18.9827 63.0597 19.065 62.9169 19.1374C61.3108 19.9524 59.6549 19.4168 58.1093 18.8253C57.0577 18.4239 56.1775 17.5765 55.2196 16.9316C54.0875 15.2321 53.4412 13.6005 54.2899 11.6634C54.4192 11.3691 54.6262 10.962 54.8696 10.8385M54.7082 10.5162C54.4389 10.6529 54.2008 10.9737 53.9615 11.5197C52.99 13.7396 53.8999 15.6049 54.9196 17.1369L54.9587 17.1987L55.0189 17.2376C55.3083 17.4337 55.5962 17.6509 55.8776 17.8633C56.5331 18.3595 57.208 18.8702 57.98 19.1685C59.6199 19.7938 61.3668 20.3322 63.08 19.4629C63.2357 19.3839 63.3931 19.2918 63.5423 19.1916C65.156 18.1156 65.8316 16.5317 65.4447 14.7276C65.0152 12.7165 63.7291 11.1563 61.72 10.208C59.5921 9.20156 57.4886 9.76271 55.4515 10.3023C55.2503 10.3555 55.049 10.4086 54.8477 10.4618C54.7974 10.475 54.7487 10.4916 54.7001 10.5163L54.7082 10.5162Z" fill="white"/>
</g>
<g id="Group_5">
<path id="Vector_11" d="M53.9869 19.6639C53.7176 19.8005 53.0608 19.4724 52.8459 19.214C52.7824 19.136 52.7157 19.0596 52.6522 18.9816C52.0629 18.2926 51.332 17.4346 52.2759 16.0125L52.4184 15.8014L54.3903 18.365L55.2162 17.1947L55.9141 17.7755L55.778 17.9181C55.6305 18.0705 55.4846 18.2262 55.3372 18.3786C54.9304 18.8095 54.5123 19.2585 54.0404 19.6326L54.0242 19.6408L53.9934 19.6606L53.9869 19.6639Z" fill="white"/>
<path id="Vector_12" d="M52.424 16.1123C53.1356 17.0372 53.7576 17.8484 54.3894 18.671C54.7424 18.1734 54.9918 17.8182 55.2444 17.4614C55.3762 17.5701 55.508 17.6788 55.6414 17.7908C55.0774 18.3709 54.5508 18.9933 53.9217 19.4921C53.9152 19.4954 53.9119 19.4971 53.9054 19.5004C53.7464 19.581 53.1792 19.3341 52.987 19.0968C52.3505 18.3215 51.4606 17.5687 52.424 16.1123ZM52.4032 15.4859L52.1231 15.9097C51.1031 17.448 51.9186 18.4018 52.5161 19.099C52.5828 19.1753 52.6447 19.2501 52.7082 19.3281C52.9426 19.6174 53.6791 20.0235 54.0717 19.8242L54.1042 19.8078L54.1496 19.7766C54.6328 19.3926 55.0574 18.9403 55.4658 18.5045C55.6084 18.3505 55.7559 18.1981 55.9034 18.0457L56.1805 17.7622L55.8779 17.5074L55.6388 17.3062L55.4842 17.1764L55.1833 16.925L54.9582 17.2474L54.597 17.7613L54.3897 18.0543L54.2725 17.9015L52.7207 15.8841L52.413 15.481L52.4032 15.4859Z" fill="white"/>
</g>
<g id="Group_6">
<path id="Vector_13" d="M60.9528 21.997C59.7233 22.6209 57.3193 22.1427 55.9393 20.5735L55.5698 20.1528L61.5867 21.5081L61.3306 21.7441C61.222 21.8441 61.0972 21.9279 60.9544 22.0003L60.9528 21.997Z" fill="white"/>
<path id="Vector_14" d="M56.0766 20.4508C57.7871 20.836 59.4976 21.2211 61.2082 21.6063C61.1109 21.6965 60.9991 21.7736 60.8725 21.8378C59.6917 22.437 57.3655 21.9193 56.0782 20.4541M55.0638 19.8504L55.8043 20.6951C57.2364 22.3277 59.7477 22.8168 61.0356 22.1633C61.1913 22.0843 61.334 21.9874 61.4539 21.8775L61.966 21.4054L61.287 21.252L56.1554 20.0965L55.0605 19.8521L55.0638 19.8504Z" fill="white"/>
</g>
</g>
</g>
</g>
</svg>
