<svg xmlns="http://www.w3.org/2000/svg" width="96" height="97" viewBox="0 0 96 97" fill="none">
  <path d="M19.828 31.295C21.4623 29.7328 23.015 28.7334 24.6276 27.7612C27.5795 25.9809 30.8269 24.9058 34.0463 23.8781C37.9127 22.6426 41.9344 21.8637 45.9467 21.1241C49.4774 20.4725 52.974 19.8687 56.6082 19.8129C63.8612 19.7057 67.0499 22.8048 69.4968 28.9612C70.9539 32.6245 71.6908 36.4983 72.4515 40.3508C73.4941 45.6299 74.5622 50.9068 75.6458 56.1793C76.3721 59.7132 77.2051 63.2254 77.8679 66.7646C78.3023 69.0883 78.5485 71.4532 78.816 73.8066C79.0057 75.4561 78.4133 76.6848 76.7308 77.2256C75.0298 77.7743 73.3596 78.4555 71.63 78.8973C66.9032 80.0945 62.1844 81.3457 57.4023 82.2775C53.5949 83.0194 49.8159 83.9037 45.9611 84.4696C42.6587 84.9545 39.417 85.6562 36.035 85.4533C35.1348 85.399 34.27 85.2744 33.3967 85.1247C31.9747 84.8821 31.2918 84.0255 30.65 82.6898C28.3904 78.0095 27.0585 73.0051 25.2275 68.1801C24.7104 66.8084 24.4522 65.3253 24.1223 63.8996C22.7791 58.0764 21.3327 52.2778 20.4694 46.3474C19.9618 42.8629 19.416 39.3816 19.1237 35.8729C18.9866 34.203 18.6328 32.3967 19.8303 31.2852L19.828 31.295Z" fill="#060606"/>
  <path d="M22.4714 32.549C23.6158 31.1976 25.2736 30.5946 26.7496 29.8137C30.2788 27.9439 34.0981 26.828 37.9532 25.7189C42.5008 24.4111 47.1369 23.6747 51.7395 22.7384C54.2183 22.2348 56.7787 22.3673 59.2988 22.6606C62.4454 23.0244 64.5244 24.9936 65.7213 27.7332C67.38 31.5438 68.5165 35.526 69.4035 39.6156C70.408 44.242 71.3975 48.8793 72.3518 53.5162C73.668 59.9074 75.5951 66.1903 76.0476 72.7588C76.1405 74.1077 75.6175 74.5977 74.6495 75.1534C72.9843 76.1107 71.0545 76.0932 69.2807 76.6865C65.9045 77.8236 62.3971 78.6308 58.8945 79.3123C53.6436 80.3309 48.4372 81.5646 43.1263 82.3375C40.7044 82.6886 38.3325 83.1352 35.8907 82.9318C34.6374 82.8263 33.8092 82.3901 33.1768 80.9797C30.6169 75.2827 28.6344 69.4255 26.9582 63.4145C25.8762 59.5435 24.942 55.6442 24.1654 51.719C23.0709 46.1775 22.0099 40.6171 21.7554 34.9548C21.7065 33.8894 21.945 33.0854 22.4708 32.5426L22.4714 32.549Z" fill="white"/>
  <path d="M34.282 68.2671C32.0637 66.1324 30.9822 63.3959 30.1254 60.5605C29.1776 57.4175 28.2079 54.2796 27.4323 51.0934C26.347 46.6405 25.1678 42.1375 25.3781 37.5423C25.504 34.7896 27.4811 32.8678 29.9538 31.6735C32.9541 30.2234 36.0972 29.1247 39.3102 28.2389C42.995 27.2274 46.6577 26.073 50.5046 25.8131C52.8476 25.655 55.1818 25.3947 57.5278 26.1076C60.5705 27.0329 62.4771 29.0037 63.8163 31.8346C65.705 35.8225 66.4282 40.1221 67.286 44.3527C68.0475 48.1058 68.6339 51.9762 68.4699 55.825C68.214 61.8289 66.4716 65.1844 60.1059 66.8417C55.6098 68.0103 51.1057 69.1249 46.489 69.7955C43.0849 70.2888 39.7501 70.262 36.3907 69.4818C35.5094 69.2781 35.0842 68.5159 34.2855 68.27L34.282 68.2671Z" fill="#060606"/>
  <path d="M51.7893 47.6802C51.7718 49.0201 51.6497 50.4936 50.9048 51.8285C49.4626 54.4249 46.4264 54.7341 44.6816 52.3363C42.7049 49.6247 42.2023 46.6095 43.5776 43.4649C44.8847 40.476 48.2426 40.1018 50.2742 42.6671C51.4079 44.0951 51.7661 45.7552 51.7893 47.6802Z" fill="white"/>
  <path d="M41.2793 35.3102C42.2042 35.2662 43.0625 36.0098 43.1336 36.9223C43.2112 37.9164 42.5538 38.6284 41.5163 38.6654C40.4968 38.702 39.7127 38.0525 39.6455 37.1172C39.5787 36.1956 40.3408 35.3544 41.2793 35.3102Z" fill="white"/>
  <path d="M48.757 34.4993C49.6448 34.6014 50.2275 35.1044 50.3616 36.02C50.4903 36.8949 49.605 37.8426 48.7397 37.7401C47.8383 37.6337 47.2321 37.0856 47.2452 36.1264C47.259 35.1945 47.8032 34.6438 48.757 34.4993Z" fill="white"/>
  <rect x="42.5496" y="40.4502" width="13.3" height="19" fill="#060606"/>
  <path d="M39.7001 49C42.0751 45.5167 48.7251 39.975 56.3251 45.675" stroke="white" stroke-width="1.9" stroke-linecap="round"/>
  <path d="M13.5509 31.2267C12.9681 31.1731 12.7043 29.865 12.5634 29.3585C12.2216 28.1305 11.7323 27.51 12.1052 26.3296C12.488 25.1179 13.227 24.3251 14.2304 24.0397C15.6961 23.623 15.9887 25.2291 16.7253 26.2071" stroke="black" stroke-width="2.5" stroke-linecap="round"/>
  <path d="M21.2271 22.7703C21.0526 21.6164 20.6347 20.5317 20.4582 19.3645C20.3701 18.7823 20.1562 18.0809 20.4401 17.5671C20.7799 16.9521 21.65 16.1592 22.2193 15.9066C23.6629 15.2659 25.0346 16.4817 25.7115 18.0221" stroke="black" stroke-width="2.5" stroke-linecap="round"/>
  <path d="M9.03971 19.1645C8.84071 18.3342 7.79917 17.3767 7.90117 16.4842C7.98541 15.7472 8.29869 14.9829 8.86983 14.6854C9.37294 14.4233 9.6589 14.2205 10.2113 14.326C10.983 14.4734 11.5185 15.0893 12.0735 15.7315" stroke="black" stroke-width="2.5" stroke-linecap="round"/>
  <path d="M16.6756 12.8137C15.6577 12.8108 16.1036 7.93398 17.2846 7.56463C18.035 7.32994 18.5978 7.28021 19.2298 7.88787C19.5789 8.22349 20.2706 8.89659 20.3528 9.43991" stroke="black" stroke-width="2.5" stroke-linecap="round"/>
  <path d="M4.85646 10.1207C4.71674 9.5389 3.9835 8.8685 4.05588 8.24302C4.11566 7.72643 4.33681 7.19068 4.73937 6.98185C5.09398 6.79789 5.29556 6.65556 5.68467 6.72919C6.22831 6.83206 6.60523 7.26335 6.99582 7.71305" stroke="black" stroke-width="2.5" stroke-linecap="round"/>
  <path d="M11.4866 5.50496C10.7695 5.50349 11.0864 2.08559 11.9187 1.82607C12.4475 1.66116 12.8441 1.62599 13.289 2.05147C13.5347 2.28647 14.0217 2.75778 14.0793 3.13848" stroke="black" stroke-width="2.5" stroke-linecap="round"/>
</svg>