<svg width="20" height="20" viewBox="0 0 20 20" fill="none" xmlns="http://www.w3.org/2000/svg">
<path d="M12.1689 15.3293C11.7265 15.3293 11.3923 15.2073 11.1662 14.9634C10.9401 14.7195 10.714 14.4228 10.4879 14.0732C10.2717 13.7236 10.0652 13.378 9.86863 13.0366C9.67203 12.687 9.47542 12.3333 9.27882 11.9756C8.75782 12.4878 8.26631 12.9756 7.80429 13.439C7.3521 13.8943 6.95398 14.2967 6.60992 14.6463C6.27569 14.9878 6.02502 15.252 5.85791 15.439C5.71046 15.5935 5.563 15.7236 5.41555 15.8293C5.27793 15.9431 5.07641 16 4.81099 16C4.55541 16 4.35389 15.935 4.20643 15.8049C4.06881 15.6829 4 15.5122 4 15.2927C4 15.122 4.12288 14.874 4.36863 14.5488C4.61439 14.2154 4.9437 13.8252 5.35657 13.378C5.77927 12.9228 6.25112 12.439 6.77212 11.9268C7.30295 11.4065 7.85344 10.874 8.42359 10.3293C7.85344 9.16667 7.40617 8.18699 7.08177 7.39024C6.7672 6.58537 6.60992 6.0122 6.60992 5.67073C6.60992 5.22358 6.87534 5 7.40617 5C7.69124 5 7.91242 5.06504 8.06971 5.19512C8.23682 5.31707 8.37444 5.4878 8.48257 5.70732C8.58088 5.89431 8.73324 6.23577 8.93968 6.73171C9.14611 7.21951 9.47051 7.95122 9.91287 8.92683C10.601 8.27642 11.1662 7.72358 11.6086 7.26829C12.0608 6.81301 12.4343 6.44715 12.7292 6.17073C13.0241 5.89431 13.2797 5.69106 13.496 5.56098C13.7122 5.43089 13.9236 5.36585 14.13 5.36585C14.4053 5.36585 14.6166 5.42683 14.7641 5.54878C14.9214 5.6626 15 5.82927 15 6.04878C15 6.25203 14.9558 6.42683 14.8673 6.57317C14.7788 6.71951 14.6609 6.87398 14.5134 7.03659C14.2873 7.31301 13.9678 7.63821 13.555 8.01219C13.1519 8.37805 12.6997 8.78049 12.1984 9.21951C11.7069 9.65854 11.2105 10.1179 10.7091 10.5976C11.0827 11.3455 11.4415 11.9919 11.7855 12.5366C12.1296 13.0813 12.4097 13.5285 12.626 13.878C12.8423 14.2276 12.9504 14.4878 12.9504 14.6585C12.9504 14.8618 12.8816 15.0244 12.744 15.1463C12.6063 15.2683 12.4147 15.3293 12.1689 15.3293Z" fill="currentColor"/>
</svg>
