<svg xmlns="http://www.w3.org/2000/svg" width="66" height="66" viewBox="0 0 66 66" fill="none">
<path d="M66 3.49963V26.6383C66 28.5676 64.4297 30.1379 62.5004 30.1379H56.6788C54.7494 30.1379 53.1791 28.5676 53.1791 26.6383V21.8864L50.2318 24.8337C53.1518 29.6297 54.5197 35.2595 54.1027 40.9168C53.628 47.3881 50.8344 53.4835 46.2407 58.0771C40.9578 63.3585 34.0194 65.9985 27.0825 66C20.1441 66 13.2057 63.3585 7.92425 58.0787C-2.61727 47.5372 -2.64162 30.4011 7.85274 19.8307V19.744H7.93794C12.5316 15.158 18.6195 12.372 25.0831 11.8957C30.7389 11.4803 36.3702 12.8482 41.1663 15.7681L44.1136 12.8208H39.3617C37.4323 12.8208 35.862 11.2506 35.862 9.32119V3.49963C35.862 1.56875 37.4323 0 39.3617 0H62.5004C64.4297 0 66 1.56875 66 3.49963Z" fill="none"/>
<path d="M26.6395 63C20.0552 63 13.8657 60.437 9.20896 55.7826C-0.402987 46.1724 -0.402987 30.5367 9.20896 20.9265C13.8657 16.2706 20.0537 13.7076 26.6365 13.7076C31.786 13.7076 36.7035 15.2716 40.8765 18.2339L48.784 10.3264H38.8013C38.0945 10.3264 37.5204 9.75232 37.5204 9.04565V3.28075C37.5204 2.57408 38.0945 2 38.8013 2H61.719C62.4258 2 63 2.57408 63 3.28075V26.1942C63 26.9009 62.4258 27.4749 61.719 27.4749H55.953C55.2462 27.4749 54.6721 26.9009 54.6721 26.1942V16.2133L46.7646 24.1194C50.062 28.7677 51.6429 34.4558 51.2224 40.174C50.7899 46.0594 48.249 51.6028 44.0685 55.7826C39.4117 60.437 33.2222 63 26.638 63H26.6395ZM26.6395 22.034C22.2796 22.034 18.1819 23.7321 15.0985 26.815C12.0151 29.8978 10.3151 33.9962 10.3151 38.3553C10.3151 42.7144 12.0136 46.8128 15.0985 49.8956C18.1819 52.9785 22.2811 54.6766 26.6395 54.6766C30.9978 54.6766 35.2417 52.9197 38.3447 49.7314C44.4467 43.4587 44.4467 33.2534 38.3447 26.9822C35.2417 23.7924 31.0853 22.037 26.641 22.037L26.6395 22.034Z" fill="#525252"/>
<path d="M61.8775 2.66643C62.129 2.66643 62.332 2.86943 62.332 3.12091V26.1585C62.332 26.41 62.129 26.613 61.8775 26.613H56.0813C55.8298 26.613 55.6268 26.41 55.6268 26.1585V15.2101C55.6268 14.9359 55.4026 14.7541 55.1692 14.7541C55.0571 14.7541 54.9435 14.795 54.8511 14.8874L46.0279 23.7104C45.8689 23.8694 45.8522 24.1194 45.984 24.3012C52.812 33.668 51.9984 46.8631 43.5464 55.3164C38.8697 59.9915 32.7416 62.329 26.6136 62.329C20.4855 62.329 14.3575 59.9915 9.68078 55.3164C0.327354 45.9632 0.327354 30.8033 9.68078 21.4501C14.3575 16.7735 20.484 14.4359 26.6106 14.4359C31.56 14.4359 36.5094 15.9615 40.6952 19.0141C40.777 19.0732 40.8725 19.1034 40.9664 19.1034C41.0831 19.1034 41.1982 19.0595 41.2861 18.9717L50.1092 10.1472C50.3956 9.86084 50.1926 9.37152 49.7881 9.37152H38.8394C38.5879 9.37152 38.3849 9.16852 38.3849 8.91704V3.12091C38.3849 2.86943 38.5879 2.66643 38.8394 2.66643H61.8775ZM26.6136 55.627C31.1009 55.627 35.5898 53.8848 38.9773 50.402C45.4538 43.7438 45.4538 33.0257 38.9773 26.3676C35.5898 22.8847 31.1024 21.1425 26.6136 21.1425C22.202 21.1425 17.7889 22.8256 14.4226 26.1933C7.68708 32.9272 7.68708 43.8438 14.4226 50.5762C17.7904 53.9439 22.202 55.627 26.6136 55.627ZM61.8775 1H38.8394C37.6698 1 36.7184 1.95138 36.7184 3.12091V8.91704C36.7184 10.0866 37.6698 11.0379 38.8394 11.0379H46.8627L40.827 17.075C36.6184 14.2557 31.7251 12.771 26.6106 12.771C23.2852 12.771 20.0432 13.4028 16.9754 14.6465C13.7985 15.9357 10.9473 17.8279 8.50213 20.273C6.05697 22.7181 4.16477 25.5692 2.87553 28.7475C1.63023 31.8168 1 35.0587 1 38.3855C1 41.7123 1.63174 44.9543 2.87553 48.0235C4.16477 51.2018 6.05697 54.053 8.50213 56.4981C10.9473 58.9432 13.7985 60.8353 16.9769 62.1245C20.0462 63.3683 23.2882 64 26.6136 64C29.9389 64 33.181 63.3683 36.2503 62.1245C39.4287 60.8353 42.2799 58.9432 44.725 56.4996C49.0685 52.1563 51.7091 46.395 52.159 40.2777C52.5786 34.5709 51.0803 28.8945 47.9262 24.1739L53.9618 18.1384V26.1615C53.9618 27.331 54.9132 28.2824 56.0828 28.2824H61.879C63.0486 28.2824 64 27.331 64 26.1615V3.12091C64 1.95138 63.0486 1 61.879 1H61.8775ZM26.6136 53.9605C22.4535 53.9605 18.5433 52.3396 15.6013 49.3976C12.6577 46.4556 11.0382 42.544 11.0382 38.384C11.0382 34.224 12.6592 30.3124 15.6013 27.3704C18.5433 24.4284 22.455 22.8075 26.6136 22.8075C30.8555 22.8075 34.8217 24.483 37.7819 27.528C43.604 33.5135 43.604 43.253 37.7819 49.2385C34.8217 52.282 30.8555 53.959 26.6136 53.959V53.9605Z" fill="black"/>
</svg>