<svg xmlns="http://www.w3.org/2000/svg" width="54" height="75" viewBox="0 0 54 75" fill="none">
<path d="M54 27.1354C54 33.6442 51.6726 39.9395 47.4483 44.8615C43.7851 49.1295 38.9013 52.137 33.5156 53.4829H38.5283C40.4509 53.4829 42.0157 55.056 42.0157 56.9888V62.8208C42.0157 64.7536 40.4509 66.3267 38.5283 66.3267H33.3883V71.4941C33.3883 73.4284 31.8235 75 29.9009 75H24.0998C22.1757 75 20.6124 73.4284 20.6124 71.4941V66.3267H15.4709C13.5483 66.3267 11.9835 64.7536 11.9835 62.8208V56.9888C11.9835 55.056 13.5483 53.4829 15.4709 53.4829H20.4896C14.2594 51.9205 8.68269 48.1113 4.94213 42.793C0.69363 36.7537 -0.890846 29.3502 0.48135 21.9436C2.31145 12.057 11.7788 2.44778 21.5859 0.524112C29.675 -1.06421 37.9021 0.996645 44.1566 6.1747C50.4111 11.3543 54 18.9956 54 27.1354Z" fill="none"/>
<path d="M24.6248 73C23.9623 73 23.4229 72.4562 23.4229 71.7881V64.3789H16.0747C15.4121 64.3789 14.8728 63.8351 14.8728 63.1671V57.3712C14.8728 56.7032 15.4121 56.1593 16.0747 56.1593H23.4229V52.0662C17.0392 50.9846 11.24 47.3096 7.48247 41.9515C3.62731 36.4556 2.19102 29.7099 3.43801 22.9597C4.23578 18.6379 6.67417 14.2221 10.304 10.5258C13.9353 6.82804 18.2907 4.32853 22.568 3.48627C24.2071 3.1636 25.8658 3 27.5004 3C41.01 3 52 14.0812 52 27.7028C52 33.6274 49.8891 39.355 46.0565 43.8345C42.3186 48.2018 37.1849 51.1179 31.5764 52.0662V56.1593H38.9246C39.5872 56.1593 40.1265 56.7032 40.1265 57.3712V63.1671C40.1265 63.8351 39.5872 64.3789 38.9246 64.3789H31.5764V71.7881C31.5764 72.4562 31.0371 73 30.3745 73H24.6263H24.6248ZM27.4989 11.2211C23.1059 11.2211 18.9833 12.9526 15.8899 16.099C12.7979 19.2438 11.1138 23.4157 11.1513 27.8482C11.2264 36.7813 18.4965 44.1117 27.3562 44.1874H27.4974C31.8904 44.1874 36.013 42.4559 39.1064 39.3111C42.1984 36.1663 43.8825 31.9944 43.845 27.5619C43.7699 18.6273 36.4998 11.2984 27.6401 11.2226H27.4974L27.4989 11.2211Z" fill="#A3A3A3"/>
<path d="M27.5009 3.52513C40.7466 3.52513 51.4843 14.3185 51.4843 27.6329C51.4843 39.6677 42.7145 49.6406 31.2455 51.4494C31.0224 51.4845 30.8586 51.6751 30.8586 51.9008V56.586C30.8586 56.8392 31.0619 57.0436 31.3138 57.0436H39.0381C39.29 57.0436 39.4933 57.2479 39.4933 57.5011V63.3363C39.4933 63.5894 39.29 63.7938 39.0381 63.7938H31.3138C31.0619 63.7938 30.8586 63.9982 30.8586 64.2514V72.0158C30.8586 72.269 30.6553 72.4733 30.4034 72.4733H24.5983C24.3465 72.4733 24.1432 72.269 24.1432 72.0158V64.2514C24.1432 63.9982 23.9398 63.7938 23.688 63.7938H15.9636C15.7117 63.7938 15.5084 63.5894 15.5084 63.3363V57.5011C15.5084 57.2479 15.7117 57.0436 15.9636 57.0436H23.688C23.9398 57.0436 24.1432 56.8392 24.1432 56.586V51.9008C24.1432 51.6736 23.9778 51.4845 23.7547 51.4494C10.8413 49.4118 1.34931 37.0232 3.94687 22.9965C5.55517 14.3093 14.0367 5.69387 22.6653 4.00097C24.304 3.67917 25.9199 3.52513 27.5009 3.52513ZM27.5009 44.9904C37.0885 44.9904 44.8493 37.1391 44.7688 27.4819C44.6899 18.0581 37.0278 10.3547 27.6511 10.2754C27.601 10.2754 27.5509 10.2754 27.5009 10.2754C17.9133 10.2754 10.1525 18.1268 10.2329 27.7839C10.3118 37.2077 17.974 44.9111 27.3507 44.9904C27.4007 44.9904 27.4508 44.9904 27.5009 44.9904ZM27.5009 2C25.8015 2 24.0764 2.16929 22.374 2.50329C17.9057 3.38025 13.3676 5.97145 9.59564 9.80258C5.82524 13.6307 3.28837 18.2167 2.4554 22.7174C1.15813 29.7193 2.65416 36.7151 6.6658 42.4191C8.62459 45.204 11.0735 47.5359 13.9441 49.3493C16.6206 51.0406 19.5383 52.1997 22.6244 52.7991V55.52H15.9621C14.8742 55.52 13.9896 56.4091 13.9896 57.5026V63.3378C13.9896 64.4313 14.8742 65.3205 15.9621 65.3205H22.6244V72.0173C22.6244 73.1108 23.5089 74 24.5968 74H30.4019C31.4898 74 32.3743 73.1108 32.3743 72.0173V65.3205H39.0366C40.1245 65.3205 41.0091 64.4313 41.0091 63.3378V57.5026C41.0091 56.4091 40.1245 55.52 39.0366 55.52H32.3743V52.7991C37.9654 51.7087 43.065 48.7392 46.8126 44.3728C50.803 39.7257 53 33.7807 53 27.6329C53 24.1724 52.3263 20.8156 50.9957 17.654C49.7106 14.6006 47.8732 11.86 45.532 9.5067C43.1909 7.15342 40.4628 5.30496 37.4268 4.0147C34.2815 2.67716 30.942 2 27.4993 2H27.5009ZM27.5009 43.4653C27.4553 43.4653 27.4098 43.4653 27.3643 43.4653C18.8267 43.3921 11.823 36.3521 11.7502 27.7717C11.7137 23.5151 13.3357 19.507 16.3156 16.4872C19.2955 13.466 23.2677 11.802 27.5009 11.802C27.5464 11.802 27.5919 11.802 27.6374 11.802C36.1751 11.8752 43.1788 18.9152 43.2516 27.4956C43.288 31.7523 41.666 35.7603 38.6861 38.7816C35.7062 41.8029 31.734 43.4668 27.5009 43.4668V43.4653Z" fill="black"/>
</svg>