<svg width="17" height="19" viewBox="0 0 17 19" fill="none" xmlns="http://www.w3.org/2000/svg">
<g clip-path="url(#clip0_1148_6848)">
<path d="M5.13053 16.7123C5.14959 16.4443 5.13325 16.1183 5.14415 15.831C5.17138 15.458 5.12508 15.1127 4.74101 15.1348C4.34605 15.1486 3.96743 15.2342 3.56975 15.2646C3.22109 15.295 2.82341 15.3116 2.67632 15.1016C2.03894 13.5572 1.69845 11.894 1.42334 10.2445C0.995695 7.6613 0.420959 5.08357 0.508122 2.45888C0.51357 2.06656 0.81592 1.83172 1.16185 1.73778C2.7199 1.25705 4.26706 0.75974 5.8578 0.378469C9.33618 -0.552605 10.0635 0.149154 10.5238 3.50323C10.5892 3.86516 10.9596 3.96739 11.281 3.93423C12.0328 3.89279 12.7655 3.84582 13.5064 4.05856C13.6971 4.10829 13.8905 4.16355 14.0812 4.18842C14.3154 4.22433 14.5469 4.19947 14.7785 4.19118C15.6664 4.14974 16.5926 4.90675 16.4891 5.85717C16.4673 7.4458 16.263 9.0289 16.0124 10.5982C15.612 12.9853 15.2878 15.3889 14.724 17.7429C14.5497 18.4225 14.073 18.9088 13.3648 18.8839C11.1258 18.9392 8.90308 18.9696 6.66951 18.9834C5.0706 19.1298 5.10056 18.0772 5.12508 16.7372V16.7096L5.13053 16.7123ZM3.32733 14.2285C3.40359 14.27 3.49621 14.2755 3.59699 14.2645C5.58269 13.9412 7.61742 13.6124 9.61401 13.2754C10.1179 13.1787 10.6872 13.0737 10.6218 12.4106C10.4748 10.6092 10.2296 8.82169 10.0362 7.02584C9.87006 5.61956 9.70662 4.21604 9.51868 2.81253C9.44241 1.9671 9.16185 0.889593 8.16219 0.878542C7.85712 0.853676 7.48122 0.917222 7.17615 0.975241C5.5037 1.30678 3.85848 1.63003 2.24323 2.21299C1.72297 2.41191 1.14823 2.50309 1.22178 3.19656C1.48327 6.00083 2.10431 8.76367 2.48293 11.5569C2.52378 12.4355 2.69266 13.2035 3.12031 13.9909C3.16662 14.0794 3.22654 14.165 3.30553 14.2147L3.32733 14.2285ZM12.2534 4.80453C11.6896 4.81005 10.7471 4.63323 10.788 5.31289C10.8043 5.89032 10.8697 6.42631 11.5779 6.42078C12.1554 6.46223 12.7165 6.50367 13.294 6.5755C13.8796 6.60313 14.359 7.01756 14.3699 7.63643C14.25 9.66988 14.0131 11.6867 13.8115 13.7091C13.7597 14.3004 13.629 15.0077 12.9725 15.1707C12.7056 15.2508 12.4142 15.2591 12.1418 15.2591C11.0005 15.248 9.04472 15.4718 8.05868 15.1265C7.79447 15.0325 7.54932 14.8308 7.26059 14.8005C6.97186 14.7811 6.67496 14.8502 6.41347 14.9607C6.2119 15.0574 6.16287 15.2922 6.15742 15.505C6.14381 16.1239 6.13836 16.7427 6.13836 17.3644C6.12474 17.823 6.3263 18.0219 6.78936 18.0026C8.84316 18.0026 10.8806 17.928 12.9399 17.9086C13.4274 17.9169 13.7897 17.7512 13.8769 17.2235C14.3862 14.6485 14.7648 12.068 15.2769 9.49029C15.4322 8.51777 15.8898 6.1224 15.3913 5.31841C15.2442 5.13054 15.0073 5.08634 14.7839 5.05871C13.915 4.95372 13.1033 4.86255 12.2916 4.80453H12.2562H12.2534Z" fill="black"/>
<path d="M3.30553 14.2148C3.22654 14.1651 3.16661 14.0794 3.12031 13.991C2.85609 13.4412 2.64363 12.9687 2.56191 12.3886C2.26501 9.36877 1.54046 6.38768 1.22994 3.3679C1.12916 2.51971 1.57315 2.45617 2.24595 2.21028C3.8612 1.63008 5.50641 1.30407 7.17887 0.972526C7.48122 0.911744 7.85984 0.850961 8.16491 0.875827C9.16457 0.889641 9.44513 1.96438 9.5214 2.80981C9.70934 4.21333 9.87278 5.61685 10.0389 7.02313C10.2187 8.5565 10.3849 10.0926 10.5592 11.6288C10.6518 12.5792 10.8343 13.082 9.68483 13.2588C7.66644 13.6042 5.6072 13.933 3.59971 14.2618C3.49892 14.2728 3.40631 14.2673 3.33004 14.2258L3.30825 14.212L3.30553 14.2148ZM2.10703 4.02269C2.33311 5.65 2.73352 7.26073 3.07128 8.8687C3.15027 9.19748 3.33822 9.50415 3.61877 9.69203C3.94291 9.92963 4.31336 9.93516 4.67836 9.84398C5.69436 9.62848 6.71581 9.42127 7.69913 9.0842C8.963 8.70017 9.33617 7.78015 9.13461 6.51753C8.99297 5.34056 8.85677 4.1857 8.69062 3.01979C8.64159 2.64128 8.52991 2.22961 8.21939 1.99477C7.62286 1.57759 6.80025 1.7102 6.11656 1.7627C4.60754 1.90084 2.51016 2.23514 2.10703 3.98678V4.01717V4.02269Z" fill="white"/>
<path d="M12.2889 4.80466C13.1006 4.86268 13.9123 4.95109 14.7812 5.05884C15.0046 5.08646 15.2443 5.13067 15.3886 5.31854C15.8871 6.117 15.4295 8.52343 15.2742 9.49042C14.7785 11.9935 14.4026 14.4911 13.9232 16.9915C13.8796 17.2264 13.8251 17.5109 13.6699 17.6795C13.4383 17.9309 13.0243 17.9005 12.7056 17.9115C10.63 17.9032 8.54628 18.0663 6.47614 17.9696C6.152 17.8977 6.13565 17.5828 6.14655 17.3092C6.17923 16.6683 6.02397 15.4913 6.27457 15.041C6.34267 14.9608 6.45162 14.9304 6.54968 14.9C6.78393 14.8448 7.06449 14.7564 7.32054 14.8089C7.6474 14.8752 7.91979 15.1404 8.24665 15.2012C9.6903 15.3808 11.1476 15.2868 12.6021 15.2399C13.5037 15.1929 13.757 14.5133 13.8088 13.7093C14.024 11.8195 14.1683 9.93524 14.3617 8.03717C14.4598 7.3879 14.1629 6.66681 13.4574 6.6005C12.8282 6.5038 12.2072 6.46788 11.5752 6.42091C11.3464 6.40157 11.1176 6.36842 10.9978 6.2137C10.818 5.96505 10.7962 5.61417 10.7853 5.31578C10.7417 4.63612 11.6869 4.80466 12.2507 4.80466H12.2861H12.2889Z" fill="white"/>
<path d="M2.10986 3.98962C2.513 2.23522 4.60765 1.90368 6.1194 1.76554C6.80309 1.71305 7.6257 1.58043 8.22222 1.99762C8.53274 2.23522 8.64442 2.64412 8.69345 3.02263C8.85961 4.18854 8.99308 5.34341 9.13744 6.52038C9.33901 7.78299 8.96584 8.70578 7.70196 9.08705C6.71865 9.42135 5.69992 9.63133 4.68119 9.84683C4.31347 9.938 3.94303 9.93248 3.62161 9.69487C3.34105 9.50424 3.1531 9.20032 3.07411 8.87155C2.73635 7.26082 2.33594 5.65008 2.10986 4.02554V3.99515V3.98962Z" fill="black"/>
</g>
<defs>
<clipPath id="clip0_1148_6848">
<rect width="16" height="19" fill="white" transform="translate(0.5)"/>
</clipPath>
</defs>
</svg>
