<svg width="24" height="24" viewBox="0 0 24 24" fill="none" xmlns="http://www.w3.org/2000/svg">
<mask id="mask0_294_6845" style="mask-type:alpha" maskUnits="userSpaceOnUse" x="0" y="0" width="24" height="24">
<rect width="24" height="24" fill="currentColor"/>
</mask>
<g mask="url(#mask0_294_6845)">
<path d="M6 23C5.45 23 4.97917 22.8042 4.5875 22.4125C4.19583 22.0208 4 21.55 4 21V9.99999C4 9.44999 4.19583 8.97916 4.5875 8.58749C4.97917 8.19583 5.45 7.99999 6 7.99999H8C8.28333 7.99999 8.52083 8.09583 8.7125 8.28749C8.90417 8.47916 9 8.71666 9 8.99999C9 9.28333 8.90417 9.52083 8.7125 9.71249C8.52083 9.90416 8.28333 9.99999 8 9.99999H6V21H18V9.99999H16C15.7167 9.99999 15.4792 9.90416 15.2875 9.71249C15.0958 9.52083 15 9.28333 15 8.99999C15 8.71666 15.0958 8.47916 15.2875 8.28749C15.4792 8.09583 15.7167 7.99999 16 7.99999H18C18.55 7.99999 19.0208 8.19583 19.4125 8.58749C19.8042 8.97916 20 9.44999 20 9.99999V21C20 21.55 19.8042 22.0208 19.4125 22.4125C19.0208 22.8042 18.55 23 18 23H6ZM11 4.82499L10.1 5.72499C9.9 5.92499 9.66667 6.02083 9.4 6.01249C9.13333 6.00416 8.9 5.89999 8.7 5.69999C8.51667 5.49999 8.42083 5.26666 8.4125 4.99999C8.40417 4.73333 8.5 4.49999 8.7 4.29999L11.3 1.69999C11.5 1.49999 11.7333 1.39999 12 1.39999C12.2667 1.39999 12.5 1.49999 12.7 1.69999L15.3 4.29999C15.4833 4.48333 15.575 4.71249 15.575 4.98749C15.575 5.26249 15.4833 5.49999 15.3 5.69999C15.1 5.89999 14.8625 5.99999 14.5875 5.99999C14.3125 5.99999 14.075 5.89999 13.875 5.69999L13 4.82499V15C13 15.2833 12.9042 15.5208 12.7125 15.7125C12.5208 15.9042 12.2833 16 12 16C11.7167 16 11.4792 15.9042 11.2875 15.7125C11.0958 15.5208 11 15.2833 11 15V4.82499Z" fill="currentColor"/>
</g>
</svg>
