<svg xmlns="http://www.w3.org/2000/svg" width="18" height="17" viewBox="0 0 18 17" fill="none">
  <g clip-path="url(#clip0_1993_12715)">
    <mask id="mask0_1993_12715" style="mask-type:luminance" maskUnits="userSpaceOnUse" x="-66" y="-65" width="153" height="108">
      <path d="M-65.4575 -64.1737H86.6638V42.4182H-65.4575V-64.1737Z" fill="white"/>
    </mask>
    <g mask="url(#mask0_1993_12715)">
      <path d="M8.99979 0.679056C4.12965 0.679056 0.180664 3.76894 0.180664 7.58278C0.180664 10.0325 1.81627 12.1834 4.27258 13.4111L3.44158 16.485C3.40978 16.5794 3.43616 16.6793 3.50518 16.7473C3.55271 16.7948 3.61613 16.8209 3.68497 16.8209C3.7381 16.8209 3.79086 16.8 3.83856 16.7633L7.41171 14.371C7.93065 14.4444 8.46007 14.4863 8.99979 14.4863C13.8699 14.4863 17.8193 11.3966 17.8193 7.58278C17.8193 3.76894 13.8699 0.679056 8.99979 0.679056Z" fill="black" fill-opacity="0.9"/>
    </g>
  </g>
  <defs>
    <clipPath id="clip0_1993_12715">
      <rect width="18" height="16.5" fill="white" transform="translate(0 0.5)"/>
    </clipPath>
  </defs>
</svg>