<svg width="23" height="23" viewBox="0 0 23 23" fill="none" xmlns="http://www.w3.org/2000/svg">
<circle cx="11.5" cy="11.5" r="11.5" fill="#FEE500"/>
<path d="M11.5331 5.55029C7.95522 5.55029 5.06982 7.85858 5.06982 10.6609C5.06982 12.4798 6.27015 14.0726 8.07064 14.982L7.46124 17.2581C7.44975 17.2922 7.44798 17.3288 7.45614 17.3638C7.46429 17.3989 7.48204 17.431 7.50741 17.4566C7.54439 17.4892 7.59198 17.5072 7.64129 17.5073C7.68218 17.504 7.72097 17.4879 7.75209 17.4612L10.3743 15.693C10.7614 15.7465 11.1516 15.7742 11.5423 15.7761C15.1156 15.7761 18.0056 13.4678 18.0056 10.6609C18.0056 7.85397 15.1064 5.55029 11.5331 5.55029Z" fill="#392020"/>
</svg>
