<svg width="48" height="48" viewBox="0 0 48 48" fill="none" xmlns="http://www.w3.org/2000/svg">
<path d="M14 23.5L3.5 29.5L42 30.5V20L45 10.5L41 11.5L14 23.5Z" fill="white"/>
<path fill-rule="evenodd" clip-rule="evenodd" d="M43.8713 9.63864C45.1241 9.0892 46.4062 10.3494 45.8784 11.6114L42.3221 20.1156L43.0656 29.5953C43.0984 30.0125 42.7866 30.3773 42.3694 30.4101C41.9521 30.4428 41.5873 30.1311 41.5546 29.7138L40.8111 20.2341C40.7923 19.9941 40.8309 19.753 40.9238 19.5308L44.4801 11.0267L3.01798 29.2118C2.63469 29.3799 2.18769 29.2055 2.01958 28.8222C1.85147 28.4389 2.0259 27.9919 2.4092 27.8238L43.8713 9.63864Z" fill="#0A0A0A"/>
<path d="M18.8363 32.1321C18.8665 31.706 18.8406 31.1877 18.8579 30.7308C18.901 30.1378 18.8276 29.5887 18.2185 29.6238C17.5922 29.6458 16.9917 29.782 16.3611 29.8303C15.8082 29.8786 15.1775 29.905 14.9442 29.5711C13.9334 27.1155 13.3934 24.4711 12.9572 21.8486C12.279 17.7413 11.3675 13.6428 11.5057 9.46961C11.5144 8.84583 11.9939 8.47244 12.5425 8.32309C15.0133 7.55874 17.4669 6.76803 19.9896 6.16182C25.5058 4.68145 26.6592 5.79722 27.3892 11.1301C27.4929 11.7056 28.0804 11.8681 28.5901 11.8154C29.7823 11.7495 30.9443 11.6748 32.1193 12.0131C32.4217 12.0921 32.7284 12.18 33.0307 12.2195C33.4022 12.2766 33.7694 12.2371 34.1366 12.2239C35.5448 12.158 37.0135 13.3616 36.8494 14.8728C36.8148 17.3986 36.4908 19.9157 36.0934 22.4108C35.4584 26.2062 34.9444 30.028 34.0502 33.7707C33.7737 34.8513 33.0178 35.6244 31.8947 35.5849C28.3439 35.6727 24.819 35.7211 21.2769 35.743C18.7412 35.9758 18.7887 34.3022 18.8276 32.1717V32.1277L18.8363 32.1321ZM15.9766 28.183C16.0976 28.2489 16.2444 28.2577 16.4043 28.2401C19.5533 27.7261 22.7801 27.2034 25.9465 26.6675C26.7456 26.5137 27.6484 26.3468 27.5447 25.2925C27.3115 22.4284 26.9227 19.5863 26.616 16.7309C26.3525 14.495 26.0933 12.2634 25.7953 10.0319C25.6743 8.68769 25.2294 6.97449 23.6441 6.95692C23.1603 6.91739 22.5641 7.01842 22.0803 7.11067C19.428 7.63781 16.819 8.15177 14.2574 9.07865C13.4323 9.39493 12.5209 9.5399 12.6375 10.6425C13.0522 15.1012 14.0371 19.494 14.6375 23.9351C14.7023 25.3321 14.9701 26.5533 15.6483 27.8052C15.7218 27.9458 15.8168 28.082 15.9421 28.161L15.9766 28.183ZM30.1322 13.1991C29.2381 13.2079 27.7434 12.9268 27.8082 14.0074C27.8342 14.9255 27.9378 15.7777 29.061 15.7689C29.9767 15.8348 30.8666 15.9007 31.7824 16.0149C32.7111 16.0588 33.4714 16.7178 33.4886 17.7017C33.2986 20.9349 32.9228 24.1416 32.6031 27.3571C32.521 28.2972 32.3137 29.4218 31.2726 29.6809C30.8493 29.8083 30.3871 29.8215 29.9551 29.8215C28.1452 29.8039 25.0436 30.1598 23.4799 29.6107C23.0609 29.4613 22.6721 29.1406 22.2142 29.0923C21.7564 29.0616 21.2855 29.1714 20.8708 29.3471C20.5512 29.5008 20.4734 29.8742 20.4648 30.2125C20.4432 31.1965 20.4345 32.1805 20.4345 33.1688C20.4129 33.898 20.7326 34.2143 21.4669 34.1836C24.724 34.1836 27.9551 34.065 31.2208 34.0342C31.994 34.0474 32.5685 33.7838 32.7068 32.9448C33.5146 28.8507 34.115 24.7478 34.9271 20.6493C35.1733 19.1031 35.899 15.2945 35.1085 14.0162C34.8753 13.7175 34.4994 13.6472 34.1452 13.6032C32.7672 13.4363 31.48 13.2914 30.1927 13.1991H30.1366H30.1322Z" fill="#0A0A0A"/>
<path d="M16.0523 28.1678C15.9256 28.0893 15.8294 27.9542 15.7551 27.8147C15.3313 26.947 14.9904 26.2014 14.8593 25.2858C14.383 20.5201 13.2207 15.8155 12.7226 11.0498C12.5609 9.71122 13.2731 9.61094 14.3525 9.22288C16.9437 8.30725 19.583 7.79275 22.266 7.26953C22.751 7.1736 23.3584 7.07768 23.8478 7.11692C25.4515 7.13872 25.9016 8.83483 26.0239 10.169C26.3254 12.384 26.5876 14.599 26.8542 16.8183C27.1426 19.2382 27.4091 21.6625 27.6888 24.0867C27.8374 25.5866 28.1301 26.3802 26.2861 26.6592C23.0482 27.2042 19.7447 27.7231 16.5242 28.242C16.3625 28.2594 16.214 28.2507 16.0916 28.1853L16.0566 28.1635L16.0523 28.1678ZM14.1296 12.0832C14.4923 14.6513 15.1346 17.1933 15.6765 19.7309C15.8032 20.2498 16.1047 20.7337 16.5548 21.0302C17.0748 21.4052 17.6691 21.4139 18.2546 21.27C19.8845 20.9299 21.5231 20.6029 23.1006 20.071C25.1281 19.4649 25.7268 18.013 25.4034 16.0204C25.1762 14.163 24.9577 12.3404 24.6912 10.5004C24.6125 9.90307 24.4334 9.25341 23.9352 8.88279C22.9783 8.2244 21.6586 8.43369 20.5618 8.51654C18.141 8.73454 14.7763 9.26213 14.1296 12.0265V12.0744V12.0832Z" fill="white"/>
<path d="M30.3592 13.1781C31.6514 13.2709 32.9435 13.4124 34.3268 13.5847C34.6823 13.629 35.0639 13.6997 35.2937 14.0003C36.0872 15.2777 35.3587 19.1279 35.1116 20.675C34.3224 24.6799 33.724 28.6759 32.9609 32.6763C32.8915 33.052 32.8048 33.5073 32.5576 33.777C32.1891 34.1792 31.53 34.1306 31.0227 34.1483C27.7186 34.135 24.4015 34.3958 21.1061 34.2411C20.5901 34.1262 20.5641 33.6223 20.5814 33.1846C20.6334 32.1591 20.3863 30.276 20.7852 29.5555C20.8936 29.4273 21.067 29.3787 21.2231 29.3301C21.596 29.2417 22.0427 29.1002 22.4502 29.1842C22.9706 29.2903 23.4042 29.7147 23.9245 29.8119C26.2226 30.0992 28.5424 29.9489 30.8579 29.8738C32.2931 29.7986 32.6964 28.7112 32.7788 27.4249C33.1213 24.4014 33.3511 21.3867 33.659 18.3499C33.8151 17.3111 33.3425 16.1574 32.2194 16.0513C31.2178 15.8966 30.2292 15.8391 29.2232 15.764C28.859 15.733 28.4947 15.68 28.3039 15.4325C28.0178 15.0346 27.9831 14.4732 27.9657 13.9958C27.8964 12.9084 29.401 13.1781 30.2985 13.1781H30.3549H30.3592Z" fill="white"/>
<path d="M13.9077 12.0222C14.5613 9.1783 17.9573 8.64087 20.4083 8.41694C21.5167 8.33185 22.8504 8.11688 23.8175 8.79314C24.321 9.1783 24.502 9.84113 24.5815 10.4547C24.8509 12.3447 25.0673 14.2167 25.3014 16.1246C25.6281 18.1713 25.0231 19.6671 22.974 20.2852C21.3798 20.8271 19.7282 21.1674 18.0766 21.5168C17.4804 21.6646 16.8798 21.6556 16.3587 21.2705C15.9038 20.9614 15.5991 20.4688 15.471 19.9358C14.9234 17.3248 14.2743 14.7138 13.9077 12.0804V12.0312V12.0222Z" fill="#0A0A0A"/>
<path d="M19.1344 16.1198C18.2134 16.0103 17.4221 15.3304 17.1849 14.4377C17.1546 14.3218 17.1345 14.1993 17.1432 14.0809C17.1578 13.8826 17.2602 13.7365 17.4716 13.7027C17.6736 13.6702 17.834 13.7404 17.9184 13.9319C17.9748 14.0601 18.0029 14.2022 18.0567 14.3316C18.5007 15.3957 19.8456 15.6199 20.5912 14.7409C20.8371 14.4503 21.018 14.1029 21.2263 13.7805C21.3681 13.5613 21.5624 13.479 21.7964 13.6C22.0024 13.7082 22.0765 13.9232 21.9805 14.1197C21.5286 15.0469 21.0064 15.9063 19.857 16.099C19.6139 16.14 19.3757 16.1501 19.133 16.1204L19.1344 16.1198Z" fill="#FEFEFE"/>
<path d="M18.8473 12.03C18.8137 12.268 18.6172 12.4034 18.3651 12.3616C18.136 12.322 17.967 12.1051 17.9985 11.89C18.0306 11.6796 18.2758 11.5068 18.4895 11.5457C18.7092 11.5866 18.8775 11.8122 18.8473 12.03Z" fill="#F1F1F1"/>
<path d="M20.4299 11.4834C20.6449 11.5385 20.759 11.6918 20.7382 11.9184C20.7174 12.1551 20.5519 12.2685 20.3259 12.2659C20.1019 12.2639 19.925 12.0174 19.972 11.7997C20.0121 11.6055 20.2269 11.4527 20.4292 11.4821L20.4299 11.4834Z" fill="#EDEDED"/>
<path d="M3.11104 28.4062L37.2493 26.8699C37.8231 26.8441 38.2159 27.4411 37.9652 27.9578L29.6013 45.1976C29.4062 45.5999 28.907 45.7466 28.5252 45.514L2.75081 29.8104C2.11189 29.4211 2.36363 28.4398 3.11104 28.4062Z" fill="white"/>
<path fill-rule="evenodd" clip-rule="evenodd" d="M37.2154 26.1129C38.3629 26.0613 39.1485 27.2552 38.6471 28.2886L30.2833 45.5285C29.893 46.333 28.8946 46.6265 28.131 46.1612L2.35659 30.4576C1.07876 29.6791 1.58223 27.7164 3.07706 27.6492L37.2154 26.1129ZM37.2835 27.6271L3.14519 29.1633L28.9196 44.8669L37.2835 27.6271Z" fill="#0A0A0A"/>
<path fill-rule="evenodd" clip-rule="evenodd" d="M37.0818 26.6706C37.2648 26.2943 37.7184 26.1376 38.0947 26.3207L42.1461 28.2916C43.5923 28.9952 43.0914 31.1702 41.4831 31.1702H36.8159C36.3974 31.1702 36.0581 30.8309 36.0581 30.4124C36.0581 29.9938 36.3974 29.6545 36.8159 29.6545H41.4831L37.4317 27.6836C37.0553 27.5005 36.8987 27.047 37.0818 26.6706Z" fill="#0A0A0A"/>
<path fill-rule="evenodd" clip-rule="evenodd" d="M42.2843 19.6077C42.3922 20.0121 42.1518 20.4273 41.7473 20.5352L36.0636 22.0508C35.6592 22.1587 35.244 21.9183 35.1361 21.5139C35.0283 21.1095 35.2687 20.6942 35.6731 20.5864L41.3568 19.0707C41.7612 18.9629 42.1765 19.2033 42.2843 19.6077Z" fill="#0A0A0A"/>
</svg>
