<svg width="48" height="48" viewBox="0 0 48 48" fill="none" xmlns="http://www.w3.org/2000/svg">
<path fill-rule="evenodd" clip-rule="evenodd" d="M43.8711 9.63881C45.1238 9.08937 46.4059 10.3496 45.8782 11.6116L42.3219 20.1158L43.0654 29.5955C43.0981 30.0127 42.7864 30.3775 42.3691 30.4102C41.9519 30.4429 41.5871 30.1312 41.5544 29.714L40.8109 20.2343C40.792 19.9942 40.8307 19.7532 40.9236 19.531L44.4799 11.0268L3.01773 29.212C2.63444 29.3801 2.18744 29.2057 2.01933 28.8224C1.85122 28.4391 2.02566 27.9921 2.40895 27.824L43.8711 9.63881Z" fill="black"/>
<path d="M18.836 32.1322C18.8662 31.7061 18.8403 31.1878 18.8576 30.7309C18.9008 30.1379 18.8274 29.5888 18.2183 29.6239C17.5919 29.6459 16.9915 29.7821 16.3608 29.8304C15.8079 29.8787 15.1772 29.9051 14.944 29.5712C13.9332 27.1156 13.3932 24.4711 12.9569 21.8486C12.2787 17.7414 11.3673 13.6429 11.5055 9.46969C11.5141 8.84591 11.9936 8.47252 12.5422 8.32316C15.0131 7.55882 17.4667 6.76811 19.9894 6.1619C25.5056 4.68152 26.659 5.7973 27.389 11.1302C27.4927 11.7056 28.0801 11.8682 28.5899 11.8155C29.7821 11.7496 30.9441 11.6749 32.119 12.0131C32.4214 12.0922 32.7281 12.1801 33.0305 12.2196C33.402 12.2767 33.7692 12.2372 34.1363 12.224C35.5446 12.1581 37.0133 13.3617 36.8491 14.8728C36.8146 17.3987 36.4906 19.9158 36.0932 22.4109C35.4582 26.2063 34.9441 30.0281 34.0499 33.7707C33.7735 34.8514 33.0175 35.6245 31.8944 35.585C28.3436 35.6728 24.8188 35.7211 21.2766 35.7431C18.741 35.9759 18.7885 34.3023 18.8274 32.1717V32.1278L18.836 32.1322ZM15.9764 28.1831C16.0973 28.249 16.2442 28.2577 16.404 28.2402C19.5531 27.7262 22.7799 27.2035 25.9462 26.6676C26.7454 26.5138 27.6482 26.3469 27.5445 25.2926C27.3112 22.4285 26.9225 19.5863 26.6158 16.731C26.3523 14.4951 26.0931 12.2635 25.795 10.032C25.6741 8.68777 25.2291 6.97457 23.6438 6.957C23.16 6.91746 22.5639 7.0185 22.0801 7.11075C19.4278 7.63789 16.8187 8.15185 14.2571 9.07873C13.4321 9.39501 12.5206 9.53997 12.6373 10.6426C13.0519 15.1013 14.0368 19.4941 14.6373 23.9352C14.7021 25.3321 14.9699 26.5533 15.6481 27.8053C15.7215 27.9459 15.8165 28.082 15.9418 28.1611L15.9764 28.1831ZM30.132 13.1992C29.2378 13.208 27.7432 12.9268 27.808 14.0075C27.8339 14.9256 27.9376 15.7778 29.0607 15.769C29.9765 15.8349 30.8663 15.9008 31.7821 16.015C32.7108 16.0589 33.4711 16.7178 33.4884 17.7018C33.2983 20.9349 32.9225 24.1417 32.6029 27.3572C32.5208 28.2973 32.3134 29.4218 31.2724 29.681C30.8491 29.8084 30.3869 29.8216 29.9549 29.8216C28.1449 29.804 25.0434 30.1598 23.4797 29.6107C23.0607 29.4614 22.6719 29.1407 22.214 29.0924C21.7561 29.0616 21.2853 29.1715 20.8706 29.3472C20.5509 29.5009 20.4732 29.8743 20.4645 30.2126C20.4429 31.1965 20.4343 32.1805 20.4343 33.1689C20.4127 33.8981 20.7324 34.2144 21.4667 34.1837C24.7237 34.1837 27.9549 34.065 31.2206 34.0343C31.9938 34.0475 32.5683 33.7839 32.7065 32.9449C33.5143 28.8508 34.1147 24.7479 34.9268 20.6494C35.1731 19.1031 35.8988 15.2946 35.1083 14.0163C34.875 13.7175 34.4992 13.6473 34.145 13.6033C32.767 13.4364 31.4797 13.2914 30.1925 13.1992H30.1363H30.132Z" fill="black"/>
<path d="M16.0522 28.168C15.9254 28.0895 15.8293 27.9543 15.755 27.8148C15.3311 26.9471 14.9903 26.2015 14.8592 25.2859C14.3829 20.5202 13.2206 15.8156 12.7224 11.0499C12.5608 9.71138 13.273 9.61109 14.3523 9.22304C16.9436 8.3074 19.5829 7.7929 22.2659 7.26968C22.7509 7.17376 23.3583 7.07783 23.8477 7.11707C25.4514 7.13887 25.9015 8.83498 26.0238 10.1692C26.3253 12.3842 26.5875 14.5991 26.8541 16.8185C27.1425 19.2384 27.409 21.6626 27.6887 24.0869C27.8372 25.5868 28.13 26.3803 26.286 26.6594C23.048 27.2044 19.7446 27.7232 16.5241 28.2421C16.3624 28.2595 16.2138 28.2508 16.0915 28.1854L16.0565 28.1636L16.0522 28.168ZM14.1295 12.0833C14.4922 14.6515 15.1345 17.1934 15.6764 19.731C15.8031 20.2499 16.1046 20.7339 16.5547 21.0304C17.0747 21.4054 17.6689 21.4141 18.2545 21.2702C19.8844 20.9301 21.523 20.6031 23.1005 20.0711C25.128 19.4651 25.7267 18.0131 25.4033 16.0205C25.1761 14.1631 24.9576 12.3406 24.6911 10.5006C24.6124 9.90322 24.4332 9.25356 23.9351 8.88294C22.9781 8.22456 21.6585 8.43385 20.5617 8.51669C18.1409 8.7347 14.7762 9.26228 14.1295 12.0266V12.0746V12.0833Z" fill="white"/>
<path d="M30.3588 13.1782C31.6509 13.2711 32.9431 13.4125 34.3263 13.5849C34.6818 13.6291 35.0634 13.6998 35.2932 14.0004C36.0867 15.2779 35.3582 19.1281 35.1111 20.6752C34.3219 24.68 33.7235 28.676 32.9604 32.6765C32.891 33.0522 32.8043 33.5075 32.5571 33.7771C32.1886 34.1794 31.5295 34.1308 31.0222 34.1485C27.7181 34.1352 24.401 34.396 21.1056 34.2413C20.5896 34.1264 20.5636 33.6224 20.5809 33.1848C20.6329 32.1593 20.3858 30.2762 20.7847 29.5557C20.8931 29.4275 21.0666 29.3789 21.2227 29.3303C21.5956 29.2418 22.0422 29.1004 22.4498 29.1844C22.9701 29.2905 23.4037 29.7148 23.924 29.8121C26.2221 30.0994 28.5419 29.9491 30.8574 29.874C32.2926 29.7988 32.6959 28.7114 32.7783 27.4251C33.1208 24.4015 33.3506 21.3869 33.6585 18.3501C33.8146 17.3113 33.342 16.1576 32.2189 16.0515C31.2173 15.8968 30.2287 15.8393 29.2227 15.7642C28.8585 15.7332 28.4942 15.6802 28.3035 15.4326C28.0173 15.0348 27.9826 14.4734 27.9652 13.996C27.8959 12.9086 29.4005 13.1782 30.2981 13.1782H30.3544H30.3588Z" fill="white"/>
<path d="M13.9077 12.0222C14.5613 9.1783 17.9573 8.64087 20.4083 8.41694C21.5167 8.33185 22.8504 8.11688 23.8175 8.79314C24.321 9.1783 24.502 9.84113 24.5815 10.4547C24.8509 12.3447 25.0673 14.2167 25.3014 16.1246C25.6281 18.1713 25.0231 19.6671 22.974 20.2852C21.3798 20.8271 19.7282 21.1674 18.0766 21.5168C17.4804 21.6646 16.8798 21.6556 16.3587 21.2705C15.9038 20.9614 15.5991 20.4688 15.471 19.9358C14.9234 17.3248 14.2743 14.7138 13.9077 12.0804V12.0312V12.0222Z" fill="black"/>
<path d="M19.1343 16.1198C18.2133 16.0103 17.4219 15.3304 17.1848 14.4377C17.1545 14.3218 17.1344 14.1993 17.1431 14.0809C17.1577 13.8826 17.2601 13.7365 17.4715 13.7027C17.6735 13.6702 17.8339 13.7404 17.9182 13.9319C17.9747 14.0601 18.0028 14.2022 18.0566 14.3316C18.5006 15.3957 19.8455 15.6199 20.5911 14.7409C20.8369 14.4503 21.0178 14.1028 21.2262 13.7804C21.368 13.5613 21.5622 13.4789 21.7963 13.6C22.0022 13.7081 22.0764 13.9232 21.9804 14.1197C21.5285 15.0469 21.0063 15.9063 19.8569 16.099C19.6138 16.14 19.3756 16.1501 19.1329 16.1204L19.1343 16.1198Z" fill="#FEFEFE"/>
<path d="M18.8473 12.03C18.8137 12.2679 18.6172 12.4034 18.3651 12.3616C18.136 12.3219 17.967 12.105 17.9985 11.8899C18.0306 11.6796 18.2758 11.5067 18.4895 11.5456C18.7092 11.5865 18.8775 11.8122 18.8473 12.03Z" fill="#F1F1F1"/>
<path d="M20.4295 11.4833C20.6445 11.5384 20.7587 11.6917 20.7379 11.9183C20.717 12.155 20.5516 12.2684 20.3256 12.2658C20.1015 12.2639 19.9247 12.0173 19.9716 11.7996C20.0118 11.6054 20.2265 11.4526 20.4289 11.482L20.4295 11.4833Z" fill="#EDEDED"/>
<path d="M3.11092 28.4063L37.2492 26.8701C37.823 26.8443 38.2158 27.4412 37.9651 27.9579L29.6012 45.1978C29.4061 45.6 28.9069 45.7468 28.5251 45.5141L2.75069 29.8105C2.11177 29.4213 2.36351 28.4399 3.11092 28.4063Z" fill="white"/>
<path fill-rule="evenodd" clip-rule="evenodd" d="M37.2152 26.113C38.3628 26.0614 39.1484 27.2552 38.647 28.2887L30.2831 45.5285C29.8928 46.333 28.8945 46.6266 28.1309 46.1613L2.35647 30.4577C1.07864 29.6791 1.58211 27.7165 3.07694 27.6492L37.2152 26.113ZM37.2834 27.6271L3.14507 29.1634L28.9195 44.867L37.2834 27.6271Z" fill="black"/>
<path fill-rule="evenodd" clip-rule="evenodd" d="M37.0814 26.6708C37.2645 26.2944 37.718 26.1377 38.0944 26.3208L42.1457 28.2918C43.592 28.9953 43.091 31.1704 41.4827 31.1704H36.8156C36.397 31.1704 36.0577 30.8311 36.0577 30.4125C36.0577 29.994 36.397 29.6547 36.8156 29.6547H41.4827L37.4313 27.6838C37.055 27.5007 36.8983 27.0471 37.0814 26.6708Z" fill="black"/>
<path fill-rule="evenodd" clip-rule="evenodd" d="M42.2843 19.6077C42.3922 20.0121 42.1518 20.4273 41.7473 20.5352L36.0636 22.0508C35.6592 22.1587 35.244 21.9183 35.1361 21.5139C35.0283 21.1095 35.2687 20.6942 35.6731 20.5864L41.3568 19.0707C41.7612 18.9629 42.1765 19.2033 42.2843 19.6077Z" fill="black"/>
</svg>
