<svg width="43" height="41" viewBox="0 0 43 41" fill="none" xmlns="http://www.w3.org/2000/svg">
<g id="Group">
<path id="Vector" d="M2.15422 19.7882C2.37843 18.613 2.73937 17.7044 3.13432 16.7889C3.85703 15.1127 4.92167 13.6477 5.9888 12.2115C7.26999 10.4862 8.75706 8.90865 10.2521 7.35084C11.5675 5.97967 12.8829 4.63956 14.4245 3.49182C17.5024 1.20309 19.8157 1.54577 22.7438 3.42865C24.4865 4.54866 25.9847 5.98166 27.4865 7.39822C29.5447 9.33916 31.613 11.2713 33.6867 13.1968C35.0766 14.4874 36.5056 15.7356 37.8698 17.0481C38.7652 17.91 39.5925 18.8478 40.4254 19.7741C41.0101 20.4227 41.131 21.1326 40.5744 21.8848C40.0123 22.646 39.5039 23.4546 38.8969 24.1788C37.2351 26.1538 35.5931 28.1494 33.8265 30.0276C32.42 31.5231 31.0692 33.0708 29.5886 34.5054C28.3203 35.7345 27.1441 37.0377 25.6317 37.9965C25.2291 38.2516 24.8202 38.4656 24.4 38.6715C23.7161 39.0072 23.1618 38.8511 22.479 38.4769C20.0817 37.169 17.9833 35.4352 15.7257 33.9328C15.0853 33.5045 14.522 32.9485 13.9454 32.4393C11.5924 30.3579 9.20257 28.3191 7.02266 26.0434C5.74163 24.7064 4.44523 23.3826 3.24917 21.9687C2.68077 21.2951 1.97783 20.63 2.15222 19.7832L2.15422 19.7882Z" fill="#060606"/>
<path id="Vector_2" d="M3.67034 19.5087C3.74876 18.5754 4.27575 17.8042 4.67046 17.013C5.61348 15.1199 6.91099 13.4605 8.22588 11.7929C9.77714 9.82592 11.5407 8.07654 13.229 6.2519C14.1384 5.26942 15.2769 4.53452 16.4472 3.88101C17.9078 3.06393 19.4003 3.26536 20.7496 4.06986C22.6238 5.19068 24.3265 6.54658 25.9549 8.02571C27.7975 9.69864 29.6369 11.3809 31.4612 13.0739C33.976 15.4071 36.7198 17.5049 38.9183 20.1812C39.3698 20.7308 39.295 21.1026 39.0494 21.6402C38.6274 22.5656 37.7944 23.1548 37.2147 23.9577C36.1138 25.4893 34.8558 26.9199 33.5616 28.2952C31.6205 30.3557 29.764 32.4945 27.7221 34.4682C26.7906 35.3676 25.9096 36.2926 24.8003 36.9605C24.2306 37.3028 23.7423 37.3719 23.0407 36.9627C20.2043 35.3118 17.5667 33.4135 15.0135 31.3547C13.3682 30.0296 11.7776 28.6467 10.2467 27.2039C8.08629 25.1664 5.93446 23.1105 4.0974 20.7615C3.75136 20.3199 3.60827 19.9014 3.66815 19.5061L3.67034 19.5087Z" fill="white"/>
<path id="Vector_3" d="M19.6272 31.1732C18.0245 30.944 16.7257 30.1052 15.493 29.1546C14.1276 28.1002 12.7542 27.0547 11.4494 25.9286C9.62525 24.3552 7.74553 22.7893 6.43352 20.7542C5.6476 19.5352 5.90904 18.1 6.60501 16.8234C7.4492 15.274 8.46188 13.8311 9.56947 12.4579C10.841 10.8848 12.0595 9.25737 13.63 7.95652C14.5865 7.16422 15.5081 6.33092 16.7317 5.9111C18.3189 5.36698 19.7379 5.62237 21.176 6.42193C23.2028 7.54762 24.8249 9.16729 26.4837 10.7158C27.9555 12.0893 29.3879 13.5673 30.492 15.268C32.2143 17.9211 32.4909 19.8984 30.2667 22.5773C28.6952 24.4685 27.1037 26.339 25.3285 28.054C24.0191 29.3181 22.5809 30.3377 20.9021 31.042C20.462 31.2272 20.0471 31.0319 19.6295 31.1734L19.6272 31.1732Z" fill="#060606"/>
<path id="Vector_4" d="M20.1023 19.153C20.0209 19.8518 19.877 20.615 19.4115 21.2739C18.5095 22.5558 16.8882 22.5618 16.0952 21.2202C15.1966 19.7031 15.0933 18.1028 15.9895 16.5312C16.8412 15.0374 18.636 15.0141 19.5715 16.4577C20.0938 17.2615 20.1937 18.1467 20.1023 19.153Z" fill="#FEFEFE"/>
<path id="Vector_5" d="M15.213 12.1339C15.7035 12.1583 16.1165 12.5901 16.1049 13.0697C16.0924 13.5922 15.7071 13.9299 15.1576 13.8961C14.6175 13.8631 14.2387 13.4842 14.2535 12.9929C14.2678 12.5088 14.7153 12.109 15.213 12.1339Z" fill="#F1F1F1"/>
<path id="Vector_6" d="M19.1906 12.1033C19.6538 12.202 19.9343 12.4943 19.9558 12.9789C19.9767 13.4419 19.4584 13.891 19.0071 13.7933C18.537 13.6916 18.2465 13.3747 18.305 12.8749C18.3624 12.3894 18.6793 12.1299 19.1906 12.1033Z" fill="#EDEDED"/>
</g>
</svg>
