
<svg width="109" height="74" viewBox="0 0 109 74" fill="none" xmlns="http://www.w3.org/2000/svg">
<path d="M46.4684 67.9931C46.1246 68.0852 45.7476 68.1156 45.4315 68.2798C42.4615 69.8527 40.5446 67.7613 38.6884 65.8656C38.0067 65.1653 37.4009 64.8419 36.4932 64.7672C33.6365 64.5437 31.8053 62.8974 31.5657 60.4095C31.5104 59.8592 31.4287 59.1482 31.693 58.7595C32.4949 57.5644 32.0044 56.6715 31.2565 55.724C30.9664 55.3602 30.7356 54.9363 30.5595 54.4978C30.2362 53.6661 29.6937 53.4229 28.8684 53.4056C24.6495 53.3175 22.5967 49.938 24.2931 45.9247C24.7647 44.8094 23.9138 43.1653 22.7033 42.898C22.3567 42.8231 21.9886 42.8246 21.633 42.7786C18.266 42.3386 16.3929 39.3171 17.4752 35.9806C17.7789 35.0515 17.7451 34.3629 16.9304 33.76C16.542 33.4667 16.2801 32.9894 16.3394 32.5232C16.5713 30.5448 16.5768 28.5653 17.8631 26.8342C19.9095 24.096 22.7878 22.6183 25.5594 20.9926C26.3917 20.5047 26.8756 19.7481 27.6199 19.2131C33.2923 15.1941 39.3576 11.8911 45.4229 8.58815C48.0602 7.14857 50.5554 5.42915 53.3236 4.22823C54.3599 3.78279 55.0475 3.94291 55.7272 4.9794C59.3155 10.4642 62.9986 15.897 66.5734 21.3942C70.286 27.0929 73.9058 32.8518 77.5837 38.5775C78.3177 39.723 79.1154 40.825 79.9053 41.9291C80.9152 43.354 80.8317 44.4801 79.4262 45.3601C78.2565 46.0886 77.8988 46.7849 78.7817 48.1113C79.3704 48.9956 79.7165 50.0684 80.0806 51.0835C80.759 52.9592 80.2212 54.2336 78.6221 55.3597C76.7738 56.6497 74.6398 57.1862 72.6066 58.0047C65.1547 61.0081 57.6231 63.7768 50.21 66.8934C49.0219 67.3972 47.7086 67.5902 46.4508 67.9272C46.4552 67.9437 46.4574 67.9519 46.4618 67.9684L46.4684 67.9931ZM38.8209 62.3598C38.7173 61.9107 38.3522 61.673 38.0966 61.3441C37.8265 60.9926 37.1358 60.7273 37.8979 60.1964C38.4555 59.8085 38.9863 59.4456 39.4321 60.3593C39.9344 61.3903 40.8258 62.1228 41.3908 63.0752C42.2433 64.5069 43.1461 64.3445 44.3455 63.7582C46.4128 62.7539 48.2025 61.2765 50.2408 60.227C55.9873 57.2655 61.8957 54.6581 67.4203 51.2439C71.0211 49.0251 74.5087 46.6336 77.9551 44.1825C78.5395 43.7698 79.0437 43.3698 78.3557 42.521C75.8771 39.4586 74.0444 35.9318 71.8687 32.6559C66.2467 24.1751 60.7209 15.6155 55.2184 7.0496C54.5255 5.96368 53.8256 5.78917 52.8828 6.33321C45.9981 10.2973 38.7828 13.6523 32.1478 18.0793C28.1487 20.7492 24.1728 23.4746 20.2048 26.198C19.8439 26.4448 19.065 26.6005 19.3688 27.2344C20.4387 29.5085 20.735 32.458 23.8237 33.0786C23.992 33.1129 24.1534 33.2463 24.3003 33.3571C24.7577 33.7202 25.4984 34.078 25.1128 34.7642C24.7328 35.44 24.0553 35.2241 23.4699 34.7894C22.673 34.1905 21.7988 34.1156 20.8901 34.4121C19.968 34.721 19.6242 35.2193 20.4058 36.1049C21.8144 37.7055 22.5277 39.8986 24.3074 41.1966C24.5145 41.3442 24.5785 41.5832 24.5265 41.8267C24.3627 42.5593 24.9071 42.9345 25.2671 43.4032C25.5883 43.8204 25.858 44.2957 26.4438 43.7943C27.0508 43.2784 26.577 42.8226 26.2745 42.5063C25.1213 41.2964 24.5402 39.7214 23.6886 38.3247C23.4244 37.901 23.1336 37.3785 23.7882 37.0088C24.4216 36.6537 24.596 37.3045 24.8003 37.6295C25.7286 39.0939 26.6435 40.5707 27.4791 42.0952C27.8907 42.8503 28.3141 43.3991 29.1747 43.5482C30.1501 43.7196 30.9112 44.3722 31.5761 45.1036C32.0175 45.5946 32.1973 46.297 31.7387 46.7731C31.1962 47.3423 30.782 46.7027 30.443 46.2814C29.645 45.3031 28.6621 45.0102 27.5236 45.3241C27.1017 45.4371 26.8439 45.5062 27.0113 46.2561C27.236 47.282 28.0548 47.6189 28.4877 48.3595C29.561 50.2089 30.7249 51.9898 31.8485 53.8081C32.2182 54.4066 32.5086 55.0529 32.8918 55.639C33.1183 55.9845 33.4407 56.375 33.8977 56.0494C34.4085 55.6741 33.9856 55.3459 33.7724 54.988C32.6712 53.1284 31.5779 51.2668 30.4901 49.3948C30.2415 48.9669 29.7832 48.5069 30.4603 48.0959C31.1082 47.7015 31.2181 48.299 31.5236 48.7205C32.6269 50.2439 33.3335 52.0061 34.3574 53.5773C35.066 54.6591 35.7993 55.6458 37.1943 55.7577C37.7429 55.805 38.2192 56.1454 38.5693 56.6079C38.7904 56.9019 39.0136 57.2659 38.8474 57.646C38.6387 58.117 38.2212 57.8403 37.8912 57.7963C37.1442 57.6962 36.491 57.1648 35.6664 57.3063C34.7481 57.4729 34.4539 57.7813 35.1151 58.6549C35.9585 59.7712 36.7772 60.9205 37.615 62.0471C37.9284 62.4665 38.2932 62.8279 38.8576 62.8091C39.7027 66.0884 41.9173 67.4465 45.1216 66.6232C46.7277 66.2106 48.3704 65.841 49.8935 65.2122C57.6079 62.0324 65.4564 59.1965 73.0878 55.8006C74.4792 55.1805 75.9549 54.7498 77.3507 54.1462C78.9877 53.4427 79.1249 53.0174 78.4472 51.3004C78.0628 50.3349 77.626 49.3923 77.273 48.4184C76.9753 47.5886 76.7771 47.474 75.9015 47.894C74.0688 48.7736 72.5561 50.0973 70.869 51.1763C66.554 53.9485 62.0048 56.3154 57.3825 58.4723C52.8206 60.6042 48.6182 63.3904 44.0929 65.5655C42.8466 66.1643 41.8367 65.9581 40.9228 64.9226C40.1879 64.0863 39.4989 63.2024 38.7908 62.3413L38.8209 62.3598ZM25.4377 49.0089C25.8064 50.3848 26.5895 51.1199 27.6814 51.5072C27.8664 51.5725 28.1665 51.5362 28.3107 51.4181C28.532 51.244 28.3298 50.9891 28.2199 50.7978C27.6583 49.8268 27.11 48.8434 26.5037 47.8932C26.3183 47.6074 26.2217 47.0593 25.8166 47.1413C25.3211 47.2299 25.4366 47.8171 25.3731 48.205C25.3209 48.5104 25.4214 48.8544 25.4355 49.0007L25.4377 49.0089ZM18.406 28.9229C17.9926 30.005 17.8917 31.0034 17.9067 31.9972C17.9164 32.5333 18.19 33.2106 18.6891 33.3859C19.2418 33.5734 19.8429 33.1915 20.2366 32.7858C20.7433 32.2703 20.0641 31.8607 19.8712 31.4532C19.4675 30.6342 18.9689 29.8671 18.4139 28.9208L18.406 28.9229ZM22.021 40.8202C21.1469 39.5268 20.4038 38.4102 19.6452 37.2977C19.5197 37.1106 19.3753 36.8843 19.1075 36.9473C18.8418 37.0184 18.8456 37.2824 18.8226 37.5093C18.6201 39.3473 20.0054 40.8923 22.021 40.8202ZM36.3561 62.7553C35.6095 61.7191 34.9463 60.7753 34.2541 59.8482C34.0474 59.5768 33.8648 59.0518 33.4784 59.2348C33.092 59.4178 33.1642 59.9371 33.2333 60.3513C33.4549 61.6783 34.6456 62.622 36.3561 62.7553Z" fill="#0A0A0A"/>
<path d="M38.8721 62.832C38.3099 62.859 37.9429 62.4894 37.6296 62.07C36.784 60.9455 35.9752 59.8023 35.1296 58.6778C34.4684 57.8042 34.7648 57.504 35.681 57.3292C36.5034 57.1794 37.1566 57.7109 37.9057 57.8192C38.2358 57.8632 38.651 58.1317 38.862 57.6689C39.0359 57.2868 38.8128 56.9227 38.5838 56.6308C38.2338 56.1683 37.7552 55.8197 37.2088 55.7807C35.8217 55.6667 35.0805 54.682 34.372 53.6002C33.3481 52.029 32.6414 50.2668 31.5382 48.7434C31.2326 48.3219 31.1228 47.7244 30.4748 48.1188C29.7978 48.5298 30.256 48.9898 30.5046 49.4177C31.5924 51.2897 32.678 53.1534 33.787 55.0109C34.0001 55.3688 34.4152 55.6991 33.9123 56.0723C33.4574 56.4061 33.1329 56.0074 32.9063 55.6619C32.5232 55.0758 32.2327 54.4295 31.863 53.831C30.7472 52.0106 29.5733 50.2235 28.5022 48.3824C28.0693 47.6418 27.2483 47.2967 27.0258 46.279C26.864 45.5188 27.1263 45.4662 27.5381 45.347C28.6766 45.0331 29.6595 45.326 30.4575 46.3043C30.8044 46.7236 31.2108 47.3652 31.7533 46.796C32.2041 46.322 32.032 45.6175 31.5906 45.1265C30.9257 44.3951 30.1647 43.7425 29.1893 43.5711C28.3265 43.4138 27.9031 42.865 27.4936 42.1181C26.658 40.5936 25.7431 39.1168 24.8148 37.6524C24.6105 37.3274 24.4339 36.6683 23.8028 37.0317C23.1482 37.4014 23.4467 37.9218 23.7032 38.3476C24.5547 39.7443 25.1359 41.3193 26.289 42.5292C26.5915 42.8455 27.0654 43.3013 26.4583 43.8172C25.8725 44.3186 25.6028 43.8434 25.2817 43.4261C24.9194 42.9492 24.3773 42.5823 24.541 41.8496C24.593 41.6061 24.529 41.3671 24.322 41.2195C22.5422 39.9215 21.8312 37.7366 20.4204 36.1278C19.6388 35.2422 19.9747 34.746 20.9047 34.435C21.8111 34.1303 22.6875 34.2134 23.4844 34.8123C24.072 35.2553 24.7574 35.469 25.1273 34.7871C25.5051 34.103 24.7644 33.7452 24.3148 33.38C24.1757 33.2671 24.0066 33.1358 23.8383 33.1015C20.7573 32.4788 20.4533 29.5314 19.3833 27.2573C19.0873 26.6213 19.8584 26.4677 20.2194 26.2209C24.1874 23.4975 28.1554 20.7742 32.1623 18.1022C38.7951 13.667 46.0127 10.3202 52.8973 6.35611C53.8323 5.81417 54.5345 5.99692 55.233 7.0725C60.7354 15.6384 66.259 24.1897 71.8833 32.6788C74.0612 35.963 75.8916 39.4816 78.3702 42.5439C79.0582 43.3927 78.5541 43.7927 77.9696 44.2054C74.5132 46.6504 71.0279 49.0501 67.4349 51.2668C61.908 54.6727 56.0019 57.2884 50.2554 60.2499C48.217 61.2994 46.4273 62.7768 44.3601 63.7811C43.1584 64.3592 42.2579 64.5298 41.4053 63.0981C40.8403 62.1457 39.9412 61.4153 39.4466 60.3822C38.9986 59.4602 38.4678 59.8232 37.9124 60.2193C37.1503 60.7502 37.8411 61.0155 38.1111 61.367C38.3667 61.6959 38.7319 61.9336 38.8354 62.3827C38.8517 62.5373 38.868 62.6918 38.8865 62.8547L38.8721 62.832ZM33.0647 30.8765C31.4865 29.6746 29.9139 29.6809 28.8722 30.8872C28.4493 31.3714 28.2171 31.8487 28.7473 32.4837C29.6566 33.5646 30.1815 34.8987 30.8998 36.1103C31.719 37.4802 32.5383 38.8502 33.3419 40.2243C33.6772 40.788 34.1443 40.8747 34.608 40.5739C35.0772 40.2627 34.7785 39.8041 34.5698 39.4626C34.1812 38.825 33.7345 38.2206 33.3169 37.5996C33.0226 37.1574 32.7251 36.672 33.1045 36.1818C33.8086 35.2779 34.1673 34.2104 34.3882 33.0032C35.1988 34.2784 35.9094 35.4302 36.6646 36.5613C36.9012 36.9129 37.2237 37.2415 37.684 36.9592C38.1811 36.6582 37.9415 36.2014 37.7618 35.8434C37.4502 35.2116 37.0224 34.6463 36.713 34.0228C36.337 33.2758 36.5388 32.4976 37.1776 32.194C37.7795 31.9091 38.0207 32.6216 38.2289 33.1486C38.5666 34.0029 39.2241 34.6127 39.7563 35.3178C39.963 35.5891 40.1736 35.6563 40.4529 35.5109C40.7902 35.3322 40.8792 35.0081 40.734 34.685C40.5633 34.298 40.2977 33.963 40.0902 33.5947C39.0046 31.731 37.9056 29.8796 36.8413 28.0013C36.5738 27.5344 36.4901 26.7532 35.7531 27.0655C34.9346 27.4173 35.4759 28.0935 35.6372 28.633C35.6968 28.8555 35.839 29.0735 35.9969 29.2254C36.9258 30.098 36.5877 30.9304 35.7867 31.4099C34.883 31.9435 34.9744 30.7533 34.6008 30.359C34.1048 29.8207 34.0271 28.4993 33.068 28.8888C32.1904 29.2387 33.1882 30.1811 33.0502 30.8539L33.0647 30.8765ZM45.396 28.6762C44.983 26.7911 44.3438 25.2493 42.5207 24.6958C41.5991 24.4129 40.5959 24.2314 39.8122 24.9005C39.0687 25.5324 39.5271 26.3368 39.8787 27.055C39.8897 27.0962 39.8695 27.1458 39.8727 27.1891C40.0197 29.269 41.2714 30.7527 42.6396 32.0462C43.9878 33.3274 45.4218 32.6165 45.7037 30.7307C45.8207 29.9487 45.4602 29.2594 45.3938 28.6679L45.396 28.6762ZM49.3327 22.7734C49.635 23.964 50.0462 24.9046 50.6516 25.7579C51.1504 26.4631 51.7359 26.8979 52.6063 26.7088C53.508 26.5114 53.9716 25.8662 54.1168 24.9707C54.3836 23.3097 53.9651 21.7794 52.9561 20.4514C51.6605 18.7411 50.2715 18.9014 49.2803 20.7652C48.8734 21.5278 49.2261 22.2191 49.3383 22.7631L49.3327 22.7734ZM45.9436 19.8756C45.0353 20.4545 44.1247 21.0252 43.2386 21.6247C42.9414 21.828 42.3834 21.9333 42.6506 22.524C42.8988 23.0756 43.4401 23.3456 43.8894 23.0222C45.1332 22.1326 45.4684 23.1024 45.7625 24.0126C46.3398 25.7918 47.461 27.2574 48.284 28.8913C48.5158 29.3502 48.9163 30.126 49.6271 29.5911C50.2765 29.108 49.8745 28.4828 49.5156 27.9873C48.3568 26.3816 47.5231 24.5828 46.6917 22.7923C46.4145 22.1954 46.0738 21.5803 46.8448 21.0823C47.1386 20.8976 47.1931 20.5386 46.9419 20.2262C46.6863 19.8973 46.3677 19.7708 45.9436 19.8756ZM55.5047 16.0244C55.3612 15.8951 55.1835 15.6072 54.9617 15.5606C54.5002 15.4635 54.097 15.6775 53.7504 16.0088C52.6008 17.0939 52.9142 19.0763 54.496 20.1978C55.3542 20.8067 56.3177 21.2462 57.2083 21.8199C57.9987 22.3322 58.1942 23.0304 57.6131 23.8308C57.2873 24.2713 56.7718 24.7538 57.4062 25.2461C58.0606 25.7507 58.5795 25.2496 58.9669 24.6954C59.9388 23.3224 59.3713 21.2668 57.7045 20.2653C56.9952 19.8372 56.2343 19.5289 55.5161 19.1297C54.2734 18.4295 54.1858 17.8525 55.1512 16.7991C55.3268 16.6108 55.6205 16.4879 55.5091 16.0409L55.5047 16.0244Z" fill="#FCFCFC"/>
<path d="M38.8721 62.8319C38.8558 62.6773 38.8395 62.5227 38.821 62.3599C39.529 63.221 40.2159 64.0966 40.9529 64.9411C41.859 65.9788 42.8767 66.1829 44.1231 65.5841C48.6483 63.409 52.8586 60.6207 57.4127 58.4909C62.0349 56.334 66.5764 53.9692 70.8992 51.1949C72.5863 50.1159 74.099 48.7922 75.9317 47.9126C76.8072 47.4926 77.0154 47.6134 77.3031 48.437C77.6484 49.413 78.093 50.3535 78.4773 51.319C79.1551 53.036 79.02 53.4695 77.3808 54.1648C75.975 54.7623 74.5094 55.1991 73.118 55.8192C65.4844 59.2069 57.6381 62.051 49.9236 65.2307C48.3928 65.8617 46.7556 66.2209 45.1518 66.6418C41.9497 67.4733 39.7329 66.1069 38.8877 62.8277L38.8721 62.8319Z" fill="#F8F8F8"/>
<path d="M18.4059 28.9228C18.9609 29.8691 19.4673 30.6341 19.8632 31.4552C20.064 31.8606 20.7409 32.262 20.2287 32.7878C19.8349 33.1935 19.2338 33.5754 18.6812 33.3879C18.1842 33.2208 17.9106 32.5435 17.8988 31.9992C17.8837 31.0054 17.9846 30.007 18.3981 28.9249L18.4059 28.9228Z" fill="#F0F0F0"/>
<path d="M33.0647 30.8765C33.2027 30.2038 32.2049 29.2614 33.0825 28.9114C34.0416 28.522 34.1193 29.8434 34.6152 30.3816C34.9833 30.7863 34.8997 31.9743 35.8012 31.4325C36.6022 30.953 36.9403 30.1207 36.0114 29.2481C35.8457 29.0982 35.7091 28.8699 35.6517 28.6557C35.4904 28.1161 34.9491 27.4399 35.7676 27.0881C36.5046 26.7759 36.5861 27.5488 36.8558 28.024C37.9257 29.8919 39.0191 31.7536 40.1046 33.6174C40.32 33.9835 40.5856 34.3185 40.7485 34.7076C40.8859 35.0328 40.8069 35.3631 40.4674 35.5335C40.1881 35.679 39.9775 35.6118 39.7708 35.3404C39.2386 34.6353 38.5789 34.0173 38.2433 33.1712C38.0351 32.6442 37.794 31.9317 37.192 32.2167C36.5532 32.5203 36.3514 33.2985 36.7274 34.0454C37.0469 34.6751 37.4669 35.2425 37.7763 35.866C37.956 36.2241 38.1956 36.6809 37.6985 36.9819C37.2382 37.2642 36.9079 36.9376 36.6791 36.5839C35.9317 35.4508 35.2133 34.301 34.4027 33.0259C34.1818 34.233 33.823 35.3005 33.119 36.2044C32.7395 36.6946 33.0293 37.1822 33.3314 37.6222C33.749 38.2432 34.1957 38.8476 34.5843 39.4853C34.793 39.8267 35.0917 40.2853 34.6224 40.5965C34.1587 40.8974 33.6861 40.8209 33.3564 40.247C32.5528 38.8728 31.7335 37.5029 30.9142 36.1329C30.196 34.9213 29.6633 33.5894 28.7618 32.5063C28.2316 31.8713 28.4638 31.3941 28.8867 30.9099C29.9284 29.7036 31.4932 29.6993 33.0791 30.8992L33.0647 30.8765ZM32.5665 32.7673C32.5121 32.6582 32.417 32.3658 32.238 32.1665C31.8088 31.6899 31.222 31.3438 30.6724 31.6677C29.9776 32.0746 30.5927 32.6515 30.7676 33.1168C30.9149 33.5101 31.1827 33.8534 31.3902 34.2216C31.8685 35.1001 32.2462 34.8223 32.6006 34.1446C32.8091 33.7354 32.7523 33.3357 32.5743 32.7652L32.5665 32.7673Z" fill="#0A0A0A"/>
<path d="M45.396 28.6759C45.4601 29.2592 45.8207 29.9485 45.7058 30.7387C45.424 32.6245 43.99 33.3354 42.6418 32.0542C41.2814 30.7586 40.0297 29.2749 39.8749 27.1971C39.8717 27.1538 39.8975 27.0939 39.8808 27.063C39.5371 26.3427 39.0787 25.5384 39.8144 24.9086C40.598 24.2394 41.6035 24.4292 42.5229 24.7038C44.346 25.2573 44.9852 26.7991 45.3982 28.6842L45.396 28.6759ZM43.998 28.8651C43.5141 27.9969 43.3459 26.7439 42.1469 26.3322C41.8327 26.2221 41.4608 26.0216 41.1552 26.4125C40.9123 26.7248 41.0475 27.0418 41.1604 27.3383C41.5237 28.2565 41.9126 29.1766 42.5138 29.9515C42.8616 30.4058 43.1996 31.1983 43.864 30.8967C44.5441 30.5908 43.9463 29.7973 44.0661 29.2442C44.0853 29.1596 44.0331 29.0588 43.998 28.8651Z" fill="#0C0C0C"/>
<path d="M49.3328 22.7731C49.2205 22.2292 48.8678 21.5378 49.2748 20.7753C50.2659 18.9114 51.6571 18.7594 52.9506 20.4615C53.9595 21.7895 54.3702 23.3219 54.1112 24.9808C53.966 25.8763 53.5103 26.5194 52.6007 26.7189C51.7303 26.908 51.1426 26.465 50.646 25.768C50.0406 24.9147 49.6294 23.9741 49.3272 22.7835L49.3328 22.7731ZM52.4457 22.7338C52.2329 22.2521 52.1596 20.9472 51.1425 21.308C50.2014 21.6397 50.7268 22.7881 51.0303 23.5457C51.2784 24.1592 51.5298 25.2221 52.2744 24.9696C53.0424 24.7108 52.7797 23.7304 52.4457 22.7338Z" fill="#0C0C0C"/>
<path d="M45.9433 19.8754C46.3674 19.7706 46.686 19.8971 46.9416 20.226C47.1872 20.5488 47.1382 20.8974 46.8444 21.0821C46.0656 21.5822 46.4063 22.1974 46.6913 22.7921C47.5228 24.5827 48.3621 26.3711 49.5152 27.9872C49.8741 28.4827 50.2739 29.0996 49.6268 29.5909C48.9159 30.1258 48.5155 29.35 48.2837 28.8912C47.4607 27.2573 46.3372 25.7834 45.7622 24.0124C45.4659 23.094 45.1328 22.1324 43.889 23.022C43.4398 23.3455 42.9063 23.0734 42.6502 22.5239C42.3831 21.9332 42.941 21.8278 43.2382 21.6245C44.1322 21.023 45.0449 20.4605 45.9433 19.8754Z" fill="#0C0C0C"/>
<path d="M55.5047 16.0243C55.6183 16.4795 55.3303 16.592 55.1468 16.7825C54.1814 17.8359 54.269 18.4129 55.5117 19.1131C56.2322 19.5205 56.9931 19.8288 57.7001 20.2486C59.3669 21.2502 59.9345 23.3057 58.9626 24.6788C58.5729 25.2247 58.0562 25.7341 57.4018 25.2295C56.7675 24.7371 57.283 24.2546 57.6088 23.8141C58.1898 23.0138 57.9944 22.3156 57.2039 21.8033C56.3133 21.2295 55.3498 20.7901 54.4916 20.1811C52.9099 19.0596 52.5886 17.0794 53.746 15.9922C54.0871 15.6712 54.4981 15.4551 54.9573 15.544C55.1792 15.5905 55.3568 15.8785 55.5003 16.0078L55.5047 16.0243Z" fill="#0C0C0C"/>
<path d="M32.5663 32.7672C32.7442 33.3376 32.8011 33.7374 32.5925 34.1465C32.2404 34.8325 31.8705 35.1083 31.3822 34.2236C31.1825 33.8532 30.9069 33.5121 30.7596 33.1188C30.5825 32.6453 29.9695 32.0766 30.6644 31.6696C31.214 31.3458 31.8008 31.6919 32.23 32.1685C32.409 32.3678 32.5019 32.652 32.5585 32.7693L32.5663 32.7672Z" fill="#F0F0F0"/>
<path d="M43.9981 28.8647C44.0354 29.0666 44.0876 29.1675 44.0662 29.2439C43.9464 29.7969 44.5442 30.5904 43.8641 30.8963C43.1997 31.198 42.8617 30.4055 42.5139 29.9512C41.9105 29.168 41.5238 28.2561 41.1605 27.3379C41.0454 27.0332 40.9124 26.7245 41.1553 26.4121C41.4531 26.0233 41.835 26.23 42.147 26.3319C43.356 26.7497 43.522 27.9944 43.9981 28.8647Z" fill="#F0F0F0"/>
<path d="M52.4457 22.7335C52.7775 23.7219 53.0402 24.7023 52.2744 24.9694C51.5298 25.2219 51.2784 24.1589 51.0303 23.5454C50.7268 22.7879 50.2014 21.6394 51.1425 21.3078C52.1618 20.9552 52.2329 22.2519 52.4457 22.7335Z" fill="#F0F0F0"/>
<path d="M81.4622 29.6654C80.7559 29.8712 79.9557 30.3216 79.0404 30.4288C78.0618 30.5384 77.714 30.2078 77.8573 29.2157C78.1142 27.4219 78.71 25.7308 79.2671 24.0282C80.2094 21.1426 81.2282 18.2907 82.4828 15.5431C83.3795 13.5782 83.7595 13.522 85.2583 15.0723C85.7995 15.6355 86.2949 16.6572 86.917 16.6003C87.4053 16.5561 87.7842 15.4782 88.2103 14.8557C88.5482 14.3577 88.8621 13.848 89.2077 13.3575C89.7421 12.5979 90.4142 12.4612 91.1406 13.0443C91.9842 13.7184 92.7974 14.4446 93.5947 15.1817C94.1533 15.6975 94.15 16.2997 93.7348 16.8978C93.0496 17.8817 92.3858 18.8835 91.6656 19.8391C91.3483 20.2576 91.47 20.4291 91.8623 20.651C92.6435 21.0858 93.4264 21.5251 94.1718 22.0243C94.9051 22.5176 94.908 23.0148 94.1844 23.4991C92.4253 24.6838 90.49 25.5475 88.6084 26.5045C87.9876 26.823 87.3569 27.1142 86.7228 27.3963C85.0237 28.1483 83.3631 28.9787 81.4622 29.6654ZM78.9858 29.2056C79.4962 29.0455 79.8663 28.9621 80.2107 28.8214C81.8553 28.1509 83.511 27.4969 85.1342 26.7674C87.6697 25.6237 90.1805 24.4119 92.6132 23.0539C93.012 22.8317 93.0881 22.7013 92.633 22.456C91.9141 22.0704 91.2034 21.6664 90.4998 21.2548C89.7207 20.7987 89.6804 20.6336 90.1832 19.8958C90.9347 18.7953 91.6818 17.6963 92.476 16.6317C92.8059 16.1931 92.768 15.9398 92.3318 15.6106C91.8485 15.2471 91.3999 14.8299 90.9656 14.3973C90.5236 13.9572 90.2306 13.8995 89.869 14.5088C89.2055 15.6338 88.4529 16.7039 87.7347 17.7872C87.1851 18.6139 86.9683 18.6158 86.2501 17.8652C85.475 17.0532 84.7652 16.1764 83.8465 15.391C81.842 19.8549 80.2502 24.3792 78.9858 29.2056Z" fill="#080808"/>
<path d="M78.9858 29.2056C80.2502 24.3793 81.842 19.8549 83.8454 15.4017C84.7641 16.1871 85.4739 17.064 86.249 17.8759C86.9672 18.6265 87.1841 18.6246 87.7336 17.7979C88.4545 16.7085 89.2028 15.64 89.8679 14.5195C90.2296 13.9102 90.5209 13.9634 90.9645 14.408C91.3972 14.8361 91.843 15.2594 92.3307 15.6213C92.7713 15.9489 92.8048 16.2038 92.4749 16.6424C91.6807 17.7071 90.9336 18.806 90.1821 19.9065C89.6793 20.6443 89.7197 20.8094 90.4988 21.2655C91.2024 21.6772 91.9131 22.0811 92.6319 22.4667C93.087 22.712 93.0109 22.8424 92.6122 23.0646C90.1794 24.4226 87.6687 25.6344 85.1332 26.7781C83.5099 27.5076 81.8543 28.1616 80.2096 28.8321C79.8609 28.9744 79.4907 29.0578 78.9848 29.2163L78.9858 29.2056Z" fill="#FCFCFC"/>
<path d="M1.61443 46.7433C2.60843 46.8648 3.6062 46.9636 4.59644 47.1194C5.1198 47.2029 5.50008 47.1384 5.85777 46.6901C6.41879 45.9834 7.05133 45.3376 7.66129 44.6727C7.83073 44.4866 8.00769 44.3004 8.21477 44.1674C8.69671 43.8521 8.99416 43.9813 9.06947 44.5625C9.17113 45.3338 9.26149 46.1088 9.29914 46.8876C9.32173 47.3815 9.45351 47.6398 9.99193 47.7272C11.2043 47.9286 12.4054 48.1983 13.6065 48.4643C13.8927 48.5288 14.2729 48.5402 14.3181 48.9581C14.3595 49.3343 14.0809 49.5242 13.8023 49.6762C12.8309 50.2005 11.8557 50.7247 10.8692 51.2224C10.5379 51.3896 10.3609 51.6099 10.3157 51.9861C10.1538 53.3006 9.96934 54.6151 9.80368 55.9296C9.75473 56.3285 9.64177 56.6704 9.25772 56.8566C8.86238 57.0465 8.59129 56.8186 8.31267 56.5792C7.42032 55.8194 6.50538 55.0862 5.62433 54.3111C5.26288 53.992 4.95037 53.9312 4.50231 54.1402C3.40288 54.6455 2.28086 55.0976 1.17014 55.5687C0.816209 55.7206 0.424631 55.865 0.130948 55.5193C-0.15144 55.1887 0.0857659 54.843 0.255199 54.5315C0.868922 53.3879 1.47135 52.233 2.12272 51.1085C2.35993 50.702 2.28463 50.436 2.00977 50.1017C1.51277 49.5052 1.05718 48.8746 0.590299 48.2553C0.345563 47.9324 0.0932962 47.5791 0.319207 47.1612C0.537587 46.7546 0.959286 46.7395 1.36969 46.7508C1.45252 46.7508 1.53536 46.7584 1.61819 46.766C1.61819 46.7546 1.61819 46.747 1.61819 46.7357L1.61443 46.7433ZM1.42993 47.7196C2.03612 48.5136 2.58207 49.2469 3.14685 49.9649C3.39535 50.2803 3.38782 50.4968 3.13179 50.8387C2.31098 51.9443 1.81774 53.2246 1.2492 54.4821C1.54665 54.5809 1.73491 54.4593 1.9194 54.3833C2.88329 53.9844 3.84717 53.5931 4.796 53.16C5.23652 52.9624 5.57162 53.008 5.93684 53.3234C6.56939 53.8704 7.2283 54.3871 7.88344 54.9114C8.10558 55.09 8.3202 55.3027 8.66283 55.3103C8.83603 54.2466 9.03558 53.1942 9.17489 52.1342C9.26902 51.4124 9.59659 50.9565 10.2894 50.6982C11.1629 50.3714 11.9799 49.9117 12.9401 49.3343C11.5695 49.0645 10.3609 48.7796 9.13724 48.601C8.51975 48.5099 8.31643 48.2363 8.31643 47.6588C8.31643 46.8268 8.25995 45.9986 8.09805 45.0526C7.43162 45.7213 6.84802 46.3139 6.41126 47.0244C5.75235 48.0995 5.51138 48.2135 4.26511 47.997C3.37276 47.8412 2.48418 47.5981 1.42993 47.7272V47.7196Z" fill="#080808"/>
<path d="M12.2435 60.3253C11.8557 60.3025 11.5996 60.1961 11.434 59.915C11.2156 59.5427 11.2608 59.1666 11.4829 58.8475C11.9046 58.2472 12.3677 57.6773 12.8196 57.0999C13.358 56.4046 13.5726 55.6296 13.5161 54.7444C13.4747 54.0947 13.4898 53.4375 13.5462 52.7878C13.614 51.9558 14.0922 51.7583 14.7812 52.2408C15.1464 52.4953 15.4326 52.8296 15.715 53.1677C16.4868 54.0909 16.8445 54.1593 17.9176 53.597C18.3619 53.3653 18.7836 53.0956 19.2241 52.86C19.4237 52.7536 19.6383 52.6549 19.8567 52.6055C20.5532 52.4497 20.8959 52.8144 20.7415 53.5249C20.6511 53.9466 20.4064 54.2885 20.1579 54.6266C19.6571 55.3029 19.691 55.4168 20.5156 55.6828C21.0314 55.8499 21.551 56.0057 22.0631 56.1767C22.3191 56.264 22.5601 56.3818 22.737 56.6136C23.2077 57.2328 23.0382 57.8559 22.2965 58.0914C21.1971 58.4371 20.0412 58.4903 18.9078 58.6765C18.3431 58.7677 18.1209 59.0412 18.0795 59.5807C18.023 60.3139 17.9402 61.0472 17.8536 61.7804C17.831 61.9855 17.7783 62.1945 17.7105 62.3921C17.6013 62.696 17.4357 62.9923 17.0704 62.9999C16.7165 63.0075 16.4793 62.753 16.3739 62.4528C16.1593 61.8412 16.0124 61.2067 15.8129 60.5875C15.4778 59.5579 15.169 59.3983 14.1336 59.7213C13.4785 59.9226 12.8271 60.1468 12.2473 60.3405L12.2435 60.3253ZM12.8459 58.8741C13.5575 58.9234 14.0696 58.6537 14.6118 58.5397C15.4062 58.3764 15.7376 58.5169 16.1442 59.235C16.291 59.4933 16.3475 59.82 16.66 60.029C16.7579 59.6453 16.837 59.3034 16.9274 58.9652C17.206 57.9167 17.5524 57.6241 18.6066 57.514C19.002 57.4722 19.4048 57.4722 19.7851 57.381C20.1616 57.2936 20.6135 57.3772 20.9373 56.9897C20.3913 56.7617 19.8454 56.7351 19.3145 56.6592C18.52 56.5452 18.3995 56.359 18.6819 55.5764C18.7949 55.2611 18.9493 54.9609 19.0697 54.6494C19.1112 54.5392 19.194 54.3987 19.0923 54.2999C18.9681 54.1783 18.8212 54.2619 18.697 54.3417C18.6104 54.3987 18.5163 54.4481 18.441 54.5202C17.6051 55.2991 16.7203 55.375 15.7677 54.7406C15.6284 54.6494 15.474 54.5886 15.3234 54.5126C14.9845 54.3417 14.7549 54.3797 14.7624 54.828C14.7737 55.9791 14.2842 56.9403 13.6291 57.8331C13.3956 58.1484 13.1584 58.4599 12.8422 58.8778L12.8459 58.8741Z" fill="#070707"/>
<path d="M1.43 47.7198C2.48424 47.5906 3.37282 47.8337 4.26517 47.9895C5.51144 48.2061 5.75241 48.0921 6.41132 47.0169C6.84808 46.3065 7.43168 45.7176 8.09812 45.0452C8.25625 45.9912 8.3165 46.8194 8.3165 47.6514C8.3165 48.2288 8.51981 48.5062 9.1373 48.5936C10.361 48.7721 11.5734 49.0571 12.9401 49.3268C11.9838 49.9005 11.1667 50.3602 10.2894 50.6907C9.60042 50.949 9.27285 51.4049 9.17496 52.1268C9.03564 53.1867 8.83609 54.2391 8.66289 55.3028C8.32026 55.2952 8.10565 55.0825 7.8835 54.9039C7.22836 54.3835 6.56946 53.8668 5.93691 53.3159C5.57545 53.0006 5.23658 52.955 4.79606 53.1525C3.84724 53.5818 2.87959 53.9731 1.91947 54.3759C1.73121 54.4556 1.54672 54.5734 1.24927 54.4746C1.81781 53.2171 2.31105 51.9368 3.13185 50.8313C3.38789 50.4893 3.39542 50.269 3.14691 49.9575C2.58214 49.2432 2.03619 48.51 1.43 47.7122V47.7198Z" fill="#FBFBFB"/>
<path d="M12.8459 58.8741C13.1585 58.4562 13.3994 58.1485 13.6329 57.8294C14.288 56.9328 14.7775 55.9754 14.7662 54.8242C14.7624 54.3721 14.9883 54.3379 15.3272 54.5089C15.4778 54.5849 15.6322 54.6457 15.7715 54.7369C16.7203 55.3713 17.6089 55.2953 18.4448 54.5165C18.5201 54.4443 18.6142 54.3949 18.7008 54.3379C18.825 54.2582 18.9719 54.1746 19.0961 54.2962C19.1978 54.3949 19.115 54.5393 19.0735 54.6457C18.9531 54.9572 18.7987 55.2573 18.6857 55.5727C18.4033 56.3553 18.5238 56.5414 19.3183 56.6554C19.8492 56.7314 20.3951 56.758 20.9411 56.9859C20.6173 57.3735 20.1654 57.2899 19.7889 57.3773C19.4049 57.4646 19.002 57.4684 18.6104 57.5102C17.5562 57.6166 17.2098 57.9129 16.9312 58.9615C16.8408 59.2996 16.7617 59.6415 16.6638 60.0253C16.3476 59.8201 16.2911 59.4896 16.148 59.2312C15.7414 58.5132 15.41 58.3726 14.6156 58.536C14.0734 58.65 13.5613 58.9197 12.8497 58.8703L12.8459 58.8741Z" fill="#F8F8F8"/>
<path d="M91.6128 61.38C91.422 61.2698 91.2578 61.0824 91.1103 60.812C90.5016 59.6931 90.4848 58.4925 90.4709 57.3332L90.4678 57.0756C90.4251 54.1178 91.0266 51.1967 92.2647 48.3872C93.0483 46.6122 94.3803 45.1714 96.2223 44.1001C96.6328 43.8607 97.1406 43.7393 97.7297 43.7398C98.1012 43.7381 98.4303 43.8179 98.7082 43.9783C99.0264 44.162 99.2848 44.4568 99.4741 44.8483C99.84 45.6066 99.944 46.4473 99.8029 47.5038C99.7848 47.6434 99.7529 47.7837 99.7263 47.9227C99.712 47.9938 99.6943 48.0631 99.6834 48.1361C99.6472 48.3226 99.6125 48.5142 99.613 48.5983C99.6924 48.6001 99.886 48.5663 100.074 48.5339C101.961 48.2205 103.433 48.4173 104.709 49.154C104.849 49.2352 104.986 49.323 105.124 49.4161C106.632 50.4629 106.977 52.1087 106.022 53.701C104.781 55.5252 103.011 56.9513 100.758 57.9531C98.9321 58.7646 97.053 59.5367 95.2356 60.287C94.3622 60.6473 93.4889 61.0076 92.6137 61.3712C92.2246 61.5347 91.898 61.5358 91.62 61.3754L91.6128 61.38Z" fill="#0A0A0A"/>
<path d="M98.6128 44.1436C98.9008 44.3099 99.1282 44.5735 99.3021 44.9297C99.6992 45.75 99.73 46.6014 99.6145 47.4743C99.5875 47.6836 99.5331 47.886 99.4941 48.0928C99.416 48.5065 99.3798 48.6929 99.487 48.7547C99.5774 48.8069 99.7658 48.7746 100.111 48.718C101.687 48.4549 103.207 48.5072 104.61 49.3173C104.744 49.3946 104.877 49.4805 105.009 49.5697C106.413 50.5481 106.77 52.0642 105.851 53.6022C104.59 55.4543 102.794 56.8393 100.671 57.7791C97.9826 58.9705 95.2465 60.0593 92.5318 61.1959C92.1977 61.3338 91.9347 61.3407 91.7103 61.2112C91.5496 61.1184 91.4084 60.953 91.2795 60.7199C90.6488 59.5618 90.6808 58.3231 90.6615 57.0726C90.6184 54.0616 91.2371 51.2033 92.4436 48.4639C93.255 46.6255 94.598 45.2661 96.3205 44.2625C96.7435 44.0171 97.2321 43.9287 97.7333 43.9269C98.0737 43.925 98.3669 43.9972 98.6147 44.1403M98.8038 43.8128C98.4957 43.6349 98.1327 43.5444 97.7267 43.5438C97.1046 43.5463 96.5653 43.676 96.1228 43.9321C94.2468 45.0236 92.8872 46.4969 92.0911 48.3089C90.843 51.1434 90.2349 54.0916 90.2761 57.075L90.2792 57.3326C90.2936 58.5142 90.3109 59.7372 90.9431 60.9005C91.1078 61.2029 91.2983 61.4144 91.5193 61.542C91.8475 61.7315 92.243 61.7348 92.6851 61.549C93.5623 61.1821 94.4375 60.8185 95.3142 60.4601C97.1297 59.7131 99.0054 58.9391 100.829 58.1309C103.116 57.1176 104.913 55.6675 106.167 53.8201C106.171 53.8135 106.175 53.8068 106.179 53.8002C107.189 52.112 106.824 50.3705 105.225 49.2577C105.085 49.1594 104.941 49.0677 104.797 48.9845C103.478 48.2228 101.967 48.0166 100.04 48.3376C99.9706 48.3503 99.8974 48.361 99.8295 48.3703C99.84 48.3057 99.8543 48.2346 99.8666 48.1668C99.8809 48.0956 99.8933 48.0278 99.9109 47.9586C99.941 47.8215 99.9714 47.6759 99.9919 47.5245C100.14 46.4324 100.031 45.5536 99.6448 44.7614C99.4369 44.3327 99.154 44.0105 98.799 43.8056L98.8038 43.8128Z" fill="white"/>
</svg>
