<svg xmlns="http://www.w3.org/2000/svg" width="98" height="122" viewBox="0 0 98 122" fill="none">
  <g clip-path="url(#clip0_2826_10879)">
    <g filter="url(#filter0_d_2826_10879)">
      <path d="M81.9548 66.6532C81.4547 65.6782 80.7712 64.8057 79.662 64.7111C78.0229 64.5703 76.3835 64.214 74.7262 64.3834C73.7694 64.4793 73.3502 64.1932 73.5765 63.1761C73.9542 61.4899 73.9833 59.7533 74.2192 58.049C74.6831 54.6891 75.2773 51.3577 75.0066 47.9305C74.7345 44.4758 74.7108 44.3464 71.3311 43.514C65.7669 42.1447 60.0852 41.4243 54.4532 40.4227C44.3314 38.6249 34.1799 37.0357 23.7968 35.9095C22.3478 35.6965 20.7361 35.7755 19.1221 35.7915C18.2684 35.7999 17.7985 36.2016 17.4791 36.9385C16.8625 38.3532 16.593 39.8512 16.408 41.3589C15.7739 46.4809 14.7375 51.5798 15.5063 56.7923C15.7834 58.6619 16.5866 59.666 18.43 60.1664C19.6895 60.5089 20.1753 61.294 19.8873 62.5217C19.852 62.6782 19.8331 62.8382 19.8088 62.9952C19.0521 67.6581 18.6058 72.3695 17.6258 76.9992C17.4136 78.0062 17.0444 78.8633 16.0252 79.2207C13.0179 80.2709 10.2803 81.9105 7.35268 83.1258C5.92386 83.7188 5.23806 84.7617 5.10098 86.2445C5.01009 87.2413 4.81507 88.2355 4.78987 89.2356C4.69041 93.2634 3.02328 97.2033 4.5093 101.347C5.2343 103.368 5.16062 103.91 7.32419 104.372C11.1437 105.189 15.0101 105.778 18.7871 106.787C28.6587 109.42 38.3894 112.571 48.3648 114.83C52.4722 115.76 56.3941 115.787 60.1899 113.67C61.8662 112.734 63.7174 112.144 65.5862 111.641C68.6951 110.806 71.7392 109.788 74.6382 108.378C75.2259 108.091 75.8344 107.937 76.5054 108.072C77.9502 108.366 78.3163 108.178 78.6413 106.723C79.4176 103.262 79.7953 99.7614 79.4126 96.2138C79.2219 94.4278 78.6226 92.8556 76.8695 91.975C76.3235 91.7017 76.0792 91.209 75.9683 90.6276C75.6036 88.699 76.2172 87.5624 78.1345 86.967C80.1325 86.3483 81.386 85.0915 81.7968 83.0714C82.4189 80.0061 82.916 76.9154 83.1539 73.7978C83.3423 71.3407 83.0957 68.916 81.9408 66.658L81.9548 66.6532ZM65.2874 101.574C65.2935 102.221 65.2777 102.867 65.2724 103.524C65.2776 102.87 65.2935 102.221 65.2874 101.574C65.2481 101.315 65.2115 101.06 65.2133 100.803C65.2144 101.057 65.2481 101.315 65.2874 101.574Z" fill="#FBFBFB"/>
      <path d="M65.2874 101.574C65.2935 102.221 65.2777 102.867 65.2724 103.524C65.2776 102.87 65.2935 102.221 65.2874 101.574ZM65.2874 101.574C65.2481 101.315 65.2115 101.06 65.2133 100.803C65.2144 101.057 65.2481 101.315 65.2874 101.574ZM81.9548 66.6532C81.4547 65.6782 80.7712 64.8057 79.662 64.7111C78.0229 64.5703 76.3835 64.214 74.7262 64.3834C73.7694 64.4793 73.3502 64.1932 73.5765 63.1761C73.9542 61.4899 73.9832 59.7533 74.2192 58.049C74.6831 54.6891 75.2773 51.3577 75.0066 47.9305C74.7345 44.4758 74.7108 44.3464 71.3311 43.514C65.7669 42.1447 60.0852 41.4243 54.4532 40.4227C44.3314 38.6249 34.1799 37.0357 23.7968 35.9095C22.3478 35.6965 20.7361 35.7755 19.1221 35.7915C18.2684 35.7999 17.7985 36.2016 17.4791 36.9385C16.8625 38.3532 16.593 39.8512 16.408 41.3589C15.7739 46.4809 14.7375 51.5798 15.5063 56.7923C15.7834 58.6619 16.5866 59.666 18.43 60.1664C19.6895 60.5089 20.1753 61.294 19.8873 62.5217C19.852 62.6782 19.8331 62.8382 19.8088 62.9952C19.0521 67.6581 18.6058 72.3695 17.6258 76.9992C17.4136 78.0062 17.0444 78.8633 16.0252 79.2207C13.0179 80.2709 10.2803 81.9105 7.35268 83.1258C5.92386 83.7188 5.23806 84.7617 5.10098 86.2445C5.01009 87.2413 4.81507 88.2355 4.78987 89.2356C4.69041 93.2634 3.02328 97.2033 4.5093 101.347C5.2343 103.368 5.16062 103.91 7.32419 104.372C11.1437 105.189 15.0101 105.778 18.7871 106.787C28.6587 109.42 38.3894 112.571 48.3648 114.83C52.4722 115.76 56.3941 115.787 60.1899 113.67C61.8662 112.734 63.7174 112.144 65.5862 111.641C68.6951 110.806 71.7392 109.788 74.6382 108.378C75.2259 108.091 75.8344 107.937 76.5054 108.072C77.9503 108.366 78.3163 108.178 78.6413 106.723C79.4176 103.262 79.7953 99.7614 79.4126 96.2138C79.2219 94.4278 78.6226 92.8556 76.8695 91.975C76.3235 91.7017 76.0792 91.209 75.9683 90.6276C75.6036 88.699 76.2172 87.5624 78.1345 86.967C80.1325 86.3483 81.386 85.0915 81.7968 83.0714C82.4189 80.0061 82.916 76.9154 83.1539 73.7978C83.3423 71.3407 83.0957 68.916 81.9408 66.658L81.9548 66.6532Z" stroke="white" stroke-width="4" stroke-miterlimit="10" stroke-linejoin="round"/>
    </g>
    <path d="M23.7827 35.9157C34.1631 37.0418 44.3145 38.6337 54.4392 40.4289C60.0713 41.4278 65.7528 42.1509 71.3171 43.5202C74.6968 44.3526 74.7204 44.4847 74.9926 47.9366C75.2633 51.3638 74.6717 54.698 74.2052 58.0549C73.9692 59.7591 73.9429 61.4959 73.5625 63.1819C73.3334 64.1989 73.7526 64.4849 74.7122 64.3891C76.3695 64.2198 78.006 64.5787 79.648 64.7168C80.7572 64.8115 81.4434 65.6841 81.9407 66.659C83.0956 68.917 83.3423 71.3416 83.1538 73.7986C82.916 76.9162 82.4188 80.0069 81.7967 83.0721C81.3859 85.0921 80.1298 86.3488 78.1345 86.9676C76.2145 87.5628 75.6008 88.6994 75.9683 90.6281C76.0792 91.2095 76.3235 91.7022 76.8695 91.9755C78.6197 92.8587 79.2191 94.4281 79.4126 96.2142C79.7925 99.7616 79.4147 103.265 78.6413 106.724C78.3163 108.178 77.9475 108.366 76.5054 108.072C75.8346 107.934 75.2231 108.091 74.6382 108.378C71.7392 109.788 68.6924 110.806 65.5862 111.641C63.7174 112.144 61.8662 112.735 60.1899 113.67C56.3941 115.787 52.4722 115.76 48.3648 114.83C38.3867 112.57 28.6587 109.42 18.7871 106.787C15.0101 105.779 11.1409 105.189 7.32418 104.372C5.16061 103.91 5.23443 103.365 4.50943 101.345C3.0234 97.2008 4.69053 93.2611 4.78998 89.2334C4.81505 88.236 5.01006 87.2418 5.10109 86.2423C5.23831 84.7568 5.92397 83.7167 7.35278 83.1236C10.2806 81.9057 13.018 80.2688 16.0253 79.2186C17.0445 78.8612 17.4137 78.0042 17.6259 76.9972C18.6058 72.3676 19.0494 67.6562 19.8088 62.9935C19.8333 62.8338 19.8522 62.6738 19.8873 62.52C20.1736 61.2922 19.6878 60.5071 18.43 60.1647C16.5866 59.6643 15.7807 58.6601 15.5064 56.7907C14.7376 51.5783 15.7739 46.4795 16.4081 41.3576C16.5958 39.85 16.8626 38.352 17.4792 36.9373C17.8012 36.2006 18.2685 35.7987 19.1222 35.7903C20.7362 35.7743 22.3477 35.6981 23.7968 35.9083L23.7827 35.9157ZM65.5566 101.566L65.6563 99.5685C65.0868 100.205 65.1705 100.892 65.2735 101.576C65.2917 103.302 65.145 105.032 65.4931 106.908C65.9962 105.018 65.5693 103.291 65.5566 101.566ZM8.72366 84.9015C9.53529 85.1857 10.0141 85.3765 10.5062 85.5216C13.9975 86.537 17.628 86.8529 21.1614 87.6276C26.3583 88.7708 31.5873 89.711 36.8451 90.5134C41.5448 91.2302 46.2542 92.0812 50.7112 93.7024C52.654 94.4098 54.0726 94.7358 55.987 93.7582C57.4171 93.0288 59.0198 92.5265 60.5356 91.8943C62.085 91.2473 62.8028 90.1133 62.9314 88.4718C62.9862 87.757 62.8612 87.5133 62.1064 87.4094C58.9537 86.976 55.7995 86.4634 52.7594 85.5337C46.7656 83.7006 40.5158 83.205 34.4111 81.9446C32.0512 81.4589 29.6153 80.9556 27.1624 80.8498C26.3931 80.8161 25.9203 80.4482 25.9846 79.6547C26.0647 78.7093 26.8144 79.0803 27.2858 79.1453C32.1172 79.806 36.9562 80.4234 41.7678 81.206C48.6042 82.318 55.2767 84.2403 62.104 85.4229C62.9854 85.5741 63.3393 85.4639 63.5025 84.5036C63.9495 81.8687 64.0791 79.1604 65.0993 76.6393C65.3529 76.011 64.9277 75.8448 64.4622 75.772C63.4711 75.6205 63.2473 74.9925 63.3319 74.1209C63.5437 71.9652 63.7609 69.8125 63.948 67.6556C64.167 65.1374 63.5142 64.1983 61.0736 63.4601C59.5979 63.0139 58.0521 62.9815 56.5447 62.7302C48.8334 61.448 41.1566 59.9685 33.3552 59.2821C30.3368 59.0165 27.3207 58.8711 24.2969 58.9873C23.4393 59.02 22.4848 59.1242 22.3565 60.2119C21.981 63.3933 20.9577 66.4709 20.7597 69.6696C20.6031 72.2046 19.524 74.5863 19.57 77.1289C19.6077 79.1773 18.6876 80.4074 16.8484 81.1978C14.2325 82.3225 11.6635 83.5532 8.71818 84.9012L8.72366 84.9015ZM6.29315 96.003C6.12364 97.8607 6.23871 99.2936 6.52987 100.716C6.70602 101.585 7.14393 102.101 8.09195 102.291C14.6442 103.599 21.1411 105.136 27.5575 107.023C35.3176 109.306 43.0735 111.619 51.0502 113.082C52.7385 113.391 52.8745 113.36 52.9523 111.691C53.0211 110.202 52.9941 108.708 52.9997 107.222C53.0033 105.555 53.2318 105.539 51.7085 105.167C44.2817 103.351 36.8418 101.578 29.4254 99.7184C24.9761 98.6023 20.4785 97.6857 16.0801 96.3758C15.4313 96.1818 14.9144 95.929 15.0735 95.1595C15.2177 94.4683 15.7511 94.3372 16.3849 94.4459C16.9805 94.5499 17.584 94.6079 18.1695 94.7496C29.5556 97.493 40.9416 100.239 52.3211 103.007C53.0095 103.176 53.234 103.075 53.2054 102.329C53.1353 100.489 53.0052 98.6433 53.3108 96.8062C53.4003 96.2787 53.2144 95.879 52.5937 96.0575C51.8365 96.2782 51.1666 96.0121 50.4706 95.8294C47.5888 95.0796 44.7142 94.2975 41.8185 93.6071C38.1285 92.7262 34.3353 92.4266 30.6215 91.6918C23.1939 90.2222 15.7705 88.7228 8.32095 87.364C7.58421 87.2283 7.27083 87.4606 7.19146 88.1714C6.88697 90.92 6.56605 93.6677 6.30108 96.0089L6.29315 96.003ZM42.7159 48.3478C41.6097 48.8536 41.249 49.5938 41.7456 50.6941C42.0522 51.3673 41.8638 51.898 41.1297 52.0952C40.3065 52.318 40.1352 51.7908 39.9994 51.1045C39.3316 47.7717 39.0397 44.4389 39.7834 41.0824C39.9496 40.3351 39.704 39.9788 38.8994 39.8833C37.5383 39.7239 36.1695 39.5533 34.8408 39.2401C32.4111 38.6689 29.8817 38.7747 27.4623 38.0513C26.9541 37.8999 26.2513 37.523 25.6749 37.7474C25.0341 37.9986 24.4068 38.0894 23.7902 37.9107C22.5081 37.5426 21.2219 37.8072 19.9401 37.7638C19.3156 37.7429 18.9646 38.0688 18.8421 38.6547C18.0698 42.3098 17.7256 46.0195 17.3676 49.7312C17.2982 50.4617 17.625 50.8958 18.4064 50.851C22.0083 50.6387 25.6052 51.1329 29.1061 51.6795C38.1773 53.0909 47.2465 54.5977 56.1988 56.6852C57.449 56.978 57.5987 56.8383 57.6611 55.5863C57.8481 51.7841 58.1388 47.9925 58.7925 44.2386C58.896 43.649 58.7118 43.3804 58.1545 43.1693C57.0775 42.7597 56.8088 43.36 56.6429 44.211C56.0194 47.4153 55.8251 50.6497 55.9533 53.9086C55.9683 54.2669 56.066 54.6184 55.8974 54.9727C55.6863 55.4094 55.3514 55.6898 54.8718 55.679C54.3428 55.6684 54.243 55.194 54.1987 54.818C54.1065 54.0247 54.0507 53.2197 54.0658 52.421C54.0919 51.1835 53.8544 50.9395 52.6276 51.0026C51.3513 51.0686 52.0037 52.0704 51.8159 52.6448C51.6667 53.1065 51.9012 53.7951 51.1337 53.8352C50.391 53.8737 50.1132 53.2839 49.9426 52.6886C49.8678 52.4283 49.9129 52.1304 49.9048 51.8517C49.8626 50.6626 49.1987 50.1677 47.638 50.1592C46.3297 50.1526 46.9954 51.0514 46.9866 51.6131C46.9784 52.1065 46.8412 52.4924 46.3377 52.6305C45.8482 52.7639 45.4826 52.557 45.2243 52.1264C44.8999 51.5887 44.8918 50.9825 44.7951 50.391C44.7254 49.9727 44.7376 49.3976 44.131 49.4049C43.3484 49.4169 42.9932 48.9486 42.7214 48.3481L42.7159 48.3478ZM29.4921 55.2163C29.3217 56.872 29.3228 56.8503 31.0328 56.9455C32.2393 57.0124 33.4436 57.1255 34.6447 57.2467C42.1026 58.0003 49.4896 59.2386 56.8691 60.5175C57.2227 60.5791 57.7668 60.8906 57.9344 60.3916C58.0925 59.9167 57.9092 59.3562 57.4603 59.0059C57.2807 58.8658 57.0173 58.8115 56.7838 58.7641C52.2819 57.8773 47.784 56.9662 43.2744 56.1254C39.3683 55.3944 35.4108 54.9255 31.568 53.8622C30.1337 53.4645 29.6321 53.84 29.4894 55.2161L29.4921 55.2163ZM76.4226 104.286C76.5515 104.287 76.6804 104.288 76.8093 104.289C77.2862 101.44 77.6128 98.5783 77.0766 95.6887C76.9097 94.7989 76.2844 94.134 75.6772 93.4919C75.341 93.1365 74.9768 93.178 74.8607 93.6359C74.6694 94.3902 74.6568 95.4127 75.2599 95.7518C76.3035 96.337 76.1411 97.1718 76.1818 98.0061C76.2831 100.099 76.3433 102.192 76.4226 104.286ZM65.547 106.982C65.2302 107.833 64.7787 108.413 63.9045 108.56C63.6914 108.595 63.483 108.923 63.3668 109.163C63.1988 109.506 63.0499 109.851 62.5992 109.757C62.1621 109.664 61.729 109.491 61.6398 108.968C61.5466 108.418 61.4509 107.862 61.4238 107.304C61.3415 105.545 61.1679 103.801 60.7938 101.951C60.7274 103.282 60.6163 104.463 60.6232 105.645C60.6294 107.004 60.6461 108.375 60.826 109.718C60.9939 110.971 61.5571 111.177 62.6305 110.558C63.1928 110.232 63.7954 110.031 64.416 109.855C66.1861 109.35 66.3199 109.032 65.5443 106.982L65.547 106.982ZM41.3835 42.4436C41.2762 43.495 41.7393 44.0379 42.7728 44.0724C42.8932 44.0785 43.0197 44.074 43.1302 44.1124C44.299 44.4966 44.9215 44.1736 44.8169 42.8613C44.8054 42.7052 44.8492 42.5437 44.8843 42.3899C45.1303 41.3456 44.7174 40.7679 43.6456 40.657C42.2735 40.5162 41.5194 41.1126 41.3834 42.4463L41.3835 42.4436ZM52.9205 45.4622C54.6171 45.5513 55.374 44.6239 54.991 42.9509C54.9213 42.6445 54.7835 42.4355 54.4649 42.3893C53.6776 42.2755 52.8881 42.1535 52.0997 42.0642C51.6986 42.0193 51.4165 42.2286 51.2529 42.5941C50.644 43.9656 51.4703 45.3856 52.9233 45.4623L52.9205 45.4622ZM63.5394 107.409C63.4295 105.376 63.1353 103.356 63.6801 101.345C63.7206 101.192 63.5059 100.987 63.4825 100.795C63.2444 98.6953 63.3027 96.5918 63.642 94.519C63.7245 94.0212 63.565 93.8084 63.378 93.4878C63.2616 93.2909 63.1144 93.1606 62.9031 93.2727C62.4945 93.4892 62.6057 93.8987 62.6243 94.2408C62.7614 96.9927 62.555 99.7544 62.9312 102.497C63.1571 104.129 62.9857 105.804 63.5368 107.406L63.5394 107.409ZM46.6691 42.7455C46.505 44.4943 46.7117 44.805 48.1014 44.9412C48.8113 45.0101 49.3489 44.9583 49.4142 44.034C49.5531 42.0737 49.2378 41.5747 47.8177 41.3333C46.5011 41.108 46.8051 42.0539 46.6662 42.748L46.6691 42.7455ZM66.4551 56.0095C67.3226 55.89 67.2181 55.2898 67.2502 54.8112C67.3978 52.5677 67.7716 50.3548 68.1017 48.1369C68.23 47.2703 68.4122 46.4228 69.6232 46.5663C70.0187 46.6137 70.2157 46.3482 70.2768 46.0048C70.345 45.6262 70.161 45.4095 69.7727 45.3297C69.3789 45.2496 68.9998 45.0939 68.6049 45.0356C67.9048 44.9345 67.0209 44.7257 67.8746 45.9261C67.9719 46.0648 67.9721 46.3349 67.9139 46.512C67.2012 48.6995 67.9711 51.1944 66.5173 53.2241C66.3609 53.4426 66.5393 53.6072 66.6028 53.7633C66.9133 54.524 67.0492 55.2649 66.455 56.0123L66.4551 56.0095ZM56.3392 106.606C56.3748 107.377 56.4073 108.044 56.4398 108.712C56.4694 109.33 56.434 109.983 55.8317 110.288C54.9986 110.71 54.8944 111.422 54.8864 112.188C54.8828 112.589 54.6257 113.124 55.1769 113.349C55.6609 113.545 56.1164 113.326 56.508 113.01C57.0112 112.602 57.2231 112.094 57.1544 111.436C57.0236 110.21 56.9479 108.978 56.8334 107.752C56.7973 107.377 56.829 106.961 56.3445 106.609L56.3392 106.606ZM58.4105 102.979C58.9245 102.519 58.7619 102.093 58.7748 101.726C58.838 99.9635 58.8546 98.2017 58.9287 96.4401C58.9587 95.7294 59.1118 95.0251 60.1203 95.2129C60.384 95.2618 60.6202 95.2574 60.6978 94.9667C60.7317 94.8374 60.6975 94.642 60.6148 94.5395C60.421 94.3005 60.1618 94.4373 59.9515 94.5276C58.9337 94.9669 58.117 95.6075 58.1521 96.8289C58.2062 98.8235 58.318 100.818 58.4131 102.981L58.4105 102.979ZM78.4546 77.6931C78.326 77.6866 78.1972 77.6827 78.0684 77.6789C77.7705 78.9216 77.8301 80.2016 77.7424 81.4632C77.6852 82.2816 77.6941 83.0378 76.5166 83.158C75.8052 83.2282 75.9466 84.0239 75.9473 84.5588C75.9508 84.93 76.2424 85.1331 76.6221 85.057C77.3205 84.9152 78.0493 84.6057 78.1165 83.8643C78.3039 81.8137 78.3519 79.7507 78.4546 77.6931ZM43.9529 47.5295C44.1239 47.5109 44.6566 47.7236 44.8133 47.1122C44.9772 46.4657 44.5155 46.3166 44.0156 46.1629C43.2563 45.9306 42.4231 45.9673 41.7259 45.4788C41.3097 45.1875 41.1317 45.5659 41.1045 45.8919C41.0424 46.5873 41.2158 47.18 42.0438 47.3013C42.5995 47.3815 43.1564 47.4371 43.9529 47.5295ZM54.2177 48.3877C54.313 47.7978 54.0665 47.5696 53.6699 47.4894C53.2406 47.4048 52.8013 47.3579 52.3678 47.3031C51.9315 47.2481 51.4362 47.1138 51.362 47.7757C51.3013 48.332 51.442 48.8112 52.082 48.9611C52.3911 49.0342 52.7402 49.0219 53.0101 49.1666C54.1274 49.7583 54.0448 48.8291 54.2177 48.3877ZM48.3842 48.4018C48.8896 48.4439 49.4532 48.5299 49.4489 47.9021C49.4415 46.7857 48.4689 46.8126 47.713 46.6759C47.2589 46.5955 46.6 46.4937 46.5933 47.1782C46.5775 48.4298 47.728 48.1364 48.387 48.3992L48.3842 48.4018ZM70.7935 100.258C70.8939 100.28 70.9972 100.299 71.0977 100.32C70.9449 97.1146 71.6311 93.919 71.1218 90.7088C70.9126 93.1429 70.7746 95.578 70.6804 98.0152C70.6514 98.7614 70.7512 99.5114 70.7935 100.258ZM73.5963 90.9876C73.8257 89.6896 74.0632 88.3947 74.2816 87.0961C74.3326 86.7876 74.3952 86.4143 73.9409 86.3366C73.6606 86.2896 73.463 86.5114 73.4241 86.7414C73.1812 88.1451 73.1329 89.5533 73.5992 90.985L73.5963 90.9876ZM69.3643 82.8238C68.7026 83.8788 69.3791 85.1111 68.8884 86.2021C68.802 86.3942 68.4233 86.7269 68.9445 86.838C69.3408 86.9237 69.5314 86.6223 69.5032 86.2525C69.4519 85.5214 69.6202 84.8423 69.8304 84.1491C69.9846 83.644 69.8598 83.1192 69.3615 82.8237L69.3643 82.8238ZM80.2396 68.586C80.3675 68.2215 80.1361 67.8004 79.9856 67.3534C79.8183 66.8565 79.483 66.6484 78.9913 66.6616C78.7715 66.6668 78.6163 66.8089 78.6426 67.0504C78.6932 67.5223 78.6733 68.0315 79.2845 68.2073C79.6498 68.3104 80.0903 68.2783 80.2422 68.5889L80.2396 68.586ZM62.5262 44.5733C62.8576 44.421 63.534 44.9957 63.4743 44.3787C63.4215 43.8412 62.5479 43.9741 62.0465 43.7958C61.7742 43.7001 61.3674 43.7694 61.4112 44.1018C61.5027 44.7968 62.1185 44.498 62.5291 44.5707L62.5262 44.5733ZM63.4504 50.8496C63.6321 49.6829 63.7703 48.6722 63.5442 47.6511C63.4161 48.6787 62.8419 49.6836 63.4504 50.8496ZM68.9712 73.9306C70.2743 74.5372 70.4644 74.3558 70.395 72.3932C70.0686 73.217 69.5403 73.5775 68.9712 73.9306ZM65.5492 87.6938C65.0555 88.8447 64.8386 89.7286 65.2986 90.9007C65.6119 89.7898 65.5419 88.8831 65.5492 87.6938Z" fill="#040404"/>
    <path d="M8.66254 84.8058C11.6097 83.4616 14.1803 82.2343 16.7978 81.1129C18.6382 80.3248 19.5586 79.1006 19.5207 77.0546C19.4741 74.521 20.5536 72.1455 20.7101 69.6141C20.9077 66.4234 21.9312 63.3537 22.3065 60.1802C22.4346 59.098 23.3897 58.9943 24.2481 58.959C27.2767 58.8438 30.2922 58.9891 33.3128 59.2545C41.1198 59.9405 48.802 61.4203 56.5191 62.6978C58.0276 62.9488 59.5744 62.9813 61.0513 63.4266C63.4937 64.1634 64.1471 65.1003 63.9284 67.6122C63.7414 69.7637 63.5245 71.911 63.3129 74.0613C63.2256 74.9305 63.4524 75.5572 64.4442 75.7084C64.9102 75.7783 65.3383 75.9471 65.0819 76.5737C64.0614 79.0883 63.9322 81.7871 63.4852 84.4181C63.3221 85.376 62.9652 85.4857 62.086 85.3348C55.2535 84.1568 48.5761 82.2355 41.7348 81.1251C36.9197 80.3438 32.0772 79.7271 27.2423 79.0672C26.7678 79.0022 26.0175 78.632 25.9403 79.5752C25.8733 80.3665 26.3465 80.7335 27.119 80.7674C29.5737 80.8734 32.0115 81.3731 34.373 81.8607C40.4794 83.1188 46.7365 83.6143 52.7348 85.4439C55.7772 86.3717 58.9337 86.8836 62.0887 87.3164C62.844 87.4201 62.9691 87.6633 62.9144 88.3763C62.786 90.0137 62.0677 91.1475 60.5174 91.7898C59.0006 92.4202 57.3942 92.9209 55.966 93.6484C54.0504 94.6232 52.628 94.2977 50.6864 93.5919C46.2289 91.9714 41.5132 91.1243 36.8101 90.4086C31.5458 89.6071 26.3158 88.6658 21.115 87.5274C17.579 86.7513 13.9431 86.4382 10.4519 85.4249C9.95933 85.2828 9.48027 85.0896 8.66802 84.8061L8.66254 84.8058ZM29.0595 69.718C28.8249 74.5317 32.3272 78.5123 36.9632 78.7021C41.769 78.8978 45.5972 75.4129 45.8362 70.6783C46.1018 65.409 41.9677 62.1502 37.874 61.822C33.5315 61.473 29.2709 65.3713 29.0594 69.7207L29.0595 69.718ZM51.1468 69.6722C51.3009 72.7475 51.934 75.741 52.8886 78.6746C53.1741 79.5546 53.6631 80.0449 54.665 79.8292C55.7168 79.6024 56.3622 78.8841 56.2409 77.9035C56.178 77.4023 56.0086 76.8901 55.7815 76.4349C55.4292 75.7366 55.6492 75.3994 56.3528 75.2202C57.287 74.9847 58.2076 74.6941 59.1483 74.4943C60.3583 74.2347 60.8743 73.4662 61.0006 72.3105C61.209 70.4458 60.695 68.7513 59.7581 67.1685C59.1758 66.1835 58.237 65.7955 57.1054 65.8032C55.7157 65.8141 54.4162 66.1616 53.1428 66.701C51.7993 67.2695 51.1048 68.2031 51.1468 69.6722Z" fill="#FBFBFB"/>
    <path d="M6.58092 95.884C6.84895 93.5059 7.17017 90.7147 7.47243 87.9226C7.55191 87.2006 7.86231 86.9669 8.5916 87.1011C15.9644 88.4742 23.3114 89.9845 30.6624 91.4674C34.3379 92.2088 38.0926 92.5081 41.7444 93.398C44.6101 94.0954 47.4547 94.8887 50.3066 95.6437C50.9982 95.8258 51.6583 96.0949 52.4081 95.8726C53.023 95.6877 53.2063 96.0962 53.1171 96.6321C52.8121 98.4984 52.9386 100.373 53.0056 102.241C53.0329 102.999 52.8106 103.102 52.1293 102.931C40.8678 100.135 29.5998 97.3609 18.3317 94.5894C17.7522 94.4462 17.1522 94.388 16.5654 94.2833C15.9382 94.171 15.4099 94.3076 15.2663 95.0098C15.1078 95.7916 15.6191 96.0476 16.2611 96.2438C20.6135 97.5713 25.0676 98.4937 29.468 99.6212C36.8073 101.503 44.1703 103.291 51.5201 105.126C53.0276 105.502 52.8014 105.518 52.7956 107.211C52.7909 108.721 52.8157 110.238 52.7429 111.751C52.6638 113.446 52.5291 113.478 50.8582 113.165C42.9636 111.691 35.2886 109.352 27.6094 107.043C21.26 105.134 14.8331 103.582 8.34571 102.262C7.40746 102.07 6.97462 101.547 6.80135 100.665C6.51495 99.2203 6.40559 97.7652 6.57307 95.8781L6.58092 95.884ZM51.7074 108.447C52.2965 108.616 52.593 108.279 52.9001 107.784C53.3046 107.134 52.739 106.931 52.4569 106.761C51.9533 106.459 51.3701 106.227 50.7934 106.136C48.5054 105.781 46.289 105.134 44.0465 104.573C37.0888 102.828 30.0972 101.216 23.1191 99.5529C21.1035 99.0734 19.0778 98.6321 17.0724 98.1088C16.2629 97.8957 15.798 98.2323 15.5847 98.9144C15.3323 99.7274 16.1552 99.6196 16.5425 99.8583C16.7349 99.9762 17.0013 99.9703 17.2352 100.018C21.4029 100.909 25.5087 102.064 29.6923 102.909C32.4456 103.464 35.1284 104.452 37.8854 105.097C42.5 106.177 47.1003 107.326 51.7047 108.447L51.7074 108.447Z" fill="#FBFBFB"/>
    <path d="M42.6495 48.3356C42.9223 48.9542 43.276 49.4314 44.0537 49.4178C44.6561 49.4065 44.6457 49.9995 44.7146 50.4286C44.8101 51.0354 44.8174 51.6573 45.1401 52.2085C45.3972 52.6471 45.7613 52.8616 46.2497 52.7241C46.752 52.5817 46.8892 52.1883 46.8982 51.6792C46.9078 51.103 46.2451 50.1845 47.55 50.1866C49.1037 50.1901 49.7651 50.6969 49.808 51.9198C49.8184 52.2059 49.7703 52.5114 49.8445 52.7784C50.0165 53.3891 50.2927 53.9939 51.0307 53.953C51.7988 53.911 51.5632 53.2046 51.7127 52.7307C51.8982 52.1382 51.2491 51.1112 52.5246 51.0446C53.748 50.9781 53.9844 51.2309 53.9567 52.4978C53.9377 53.3171 53.9923 54.143 54.0857 54.9569C54.1294 55.3427 54.2281 55.8321 54.7557 55.8393C55.2341 55.8469 55.5712 55.5617 55.7796 55.1131C55.9482 54.7494 55.8513 54.3889 55.8368 54.0214C55.7136 50.6778 55.9148 47.3592 56.5385 44.0704C56.7052 43.197 56.9739 42.5807 58.0474 42.9993C58.6029 43.2152 58.7861 43.4905 58.6821 44.0956C58.0221 47.948 57.7294 51.8387 57.5375 55.7402C57.4734 57.0248 57.3267 57.1685 56.0777 56.8697C47.1531 54.7411 38.1112 53.2085 29.0672 51.7737C25.5793 51.2209 21.9932 50.7164 18.3982 50.9393C17.6188 50.9892 17.2936 50.5415 17.3639 49.7919C17.7261 45.986 18.0749 42.1765 18.8502 38.4251C18.9733 37.8238 19.3239 37.4861 19.9465 37.5094C21.2247 37.5521 22.5079 37.2759 23.7857 37.6545C24.4004 37.837 25.0261 37.7428 25.6655 37.4842C26.2379 37.253 26.9409 37.6387 27.4475 37.7933C29.8619 38.5322 32.3817 38.4197 34.8039 39.0022C36.1312 39.3217 37.4959 39.4948 38.8503 39.6562C39.6499 39.7501 39.8944 40.1153 39.7301 40.8852C38.9837 44.3301 39.27 47.7492 39.9311 51.1677C40.0683 51.8718 40.2385 52.4097 41.0568 52.1825C41.7892 51.9791 41.9777 51.4371 41.673 50.7441C41.1767 49.6157 41.5402 48.8559 42.644 48.3353L42.6495 48.3356Z" fill="#FBFBFB"/>
    <path d="M29.9431 55.6793C30.0917 54.2009 30.5992 53.7958 32.0457 54.2183C35.9241 55.3478 39.9146 55.8382 43.8551 56.6104C48.4044 57.5015 52.9419 58.4623 57.4834 59.3999C57.719 59.45 57.9847 59.5075 58.1655 59.6574C58.6149 60.0291 58.8009 60.6306 58.6396 61.1441C58.4687 61.6835 57.9206 61.3479 57.5639 61.2828C50.1189 59.9336 42.6663 58.6279 35.1405 57.8432C33.9285 57.717 32.7132 57.5995 31.4955 57.5316C29.7697 57.435 29.7685 57.4583 29.9459 55.6795L29.9431 55.6793Z" fill="#FBFBFB"/>
    <path d="M76.7261 104.102C76.6407 102 76.5726 99.898 76.4584 97.7968C76.4135 96.9619 76.5852 96.1215 75.4845 95.5313C74.8472 95.1894 74.8609 94.1629 75.0601 93.4061C75.1812 92.9439 75.5636 92.9058 75.9177 93.2635C76.5572 93.9096 77.2156 94.5813 77.3931 95.4724C77.9661 98.3748 77.6297 101.247 77.1324 104.106C76.997 104.105 76.8616 104.104 76.7261 104.102Z" fill="#FBFBFB"/>
    <path d="M66.1754 107.112C67.0185 109.191 66.8748 109.512 64.965 110.017C64.2943 110.193 63.6431 110.397 63.0362 110.723C61.8773 111.346 61.2675 111.136 61.0815 109.866C60.8823 108.505 60.8595 107.117 60.8481 105.741C60.8395 104.544 60.9526 103.348 61.0198 102.001C61.4309 103.876 61.6247 105.642 61.7198 107.424C61.751 107.989 61.8565 108.549 61.9592 109.11C62.0575 109.637 62.5265 109.816 62.9995 109.911C63.4844 110.008 63.6471 109.663 63.8278 109.313C63.9526 109.07 64.1799 108.74 64.4072 108.704C65.3553 108.559 65.8387 107.97 66.1784 107.112L66.1754 107.112Z" fill="#FBFBFB"/>
    <path d="M40.8986 43.1199C41.0512 41.6342 41.9023 40.9712 43.4518 41.1311C44.6622 41.2554 45.129 41.8984 44.8521 43.0601C44.8126 43.2311 44.7632 43.4138 44.7764 43.5844C44.8956 45.0445 44.193 45.4034 42.8727 44.9749C42.7477 44.9352 42.605 44.937 42.4691 44.9301C41.3039 44.891 40.7805 44.2866 40.8988 43.1168L40.8986 43.1199Z" fill="#FBFBFB"/>
    <path d="M52.7931 45.0952C51.3583 45.0197 50.536 43.7452 51.1308 42.5209C51.2908 42.1922 51.5682 42.0086 51.9643 42.0508C52.7458 42.1345 53.5231 42.2473 54.3007 42.3528C54.6156 42.3957 54.7525 42.5832 54.8228 42.8578C55.2113 44.3567 54.4657 45.1828 52.7904 45.095L52.7931 45.0952Z" fill="#FBFBFB"/>
    <path d="M64.2965 107.081C63.5959 105.486 63.7838 103.829 63.4881 102.208C62.9862 99.4855 63.211 96.7485 63.0078 94.0221C62.984 93.6831 62.8415 93.2759 63.3404 93.0661C63.6002 92.9578 63.7837 93.0887 63.9299 93.2853C64.1649 93.6054 64.3646 93.8182 64.2688 94.3106C63.8748 96.3607 63.8251 98.4445 64.1486 100.528C64.1765 100.716 64.4477 100.925 64.3994 101.076C63.7474 103.062 64.1358 105.068 64.2998 107.084L64.2965 107.081Z" fill="#FBFBFB"/>
    <path d="M46.929 42.6476C47.0753 41.8786 46.7543 40.832 48.1563 41.0786C49.6653 41.3427 49.9994 41.8945 49.8474 44.0652C49.7759 45.0888 49.2043 45.1473 48.4498 45.0726C46.9727 44.9279 46.7538 44.5814 46.9321 42.6447L46.929 42.6476Z" fill="#FBFBFB"/>
    <path d="M66.5641 55.992C67.0847 55.2493 66.971 54.5202 66.7061 53.7671C66.6518 53.6132 66.5003 53.4517 66.635 53.2345C67.91 51.2184 67.2563 48.7559 67.8885 46.5884C67.9401 46.4129 67.9415 46.1457 67.8578 46.0092C67.1235 44.8274 67.8902 45.0257 68.4975 45.1241C68.8401 45.1793 69.1684 45.331 69.51 45.4078C69.8445 45.4842 70.0053 45.6975 69.9438 46.0722C69.8887 46.4122 69.7159 46.676 69.3727 46.6316C68.3217 46.4998 68.1583 47.339 68.0418 48.194C67.7417 50.3893 67.4037 52.58 67.262 54.7995C67.2312 55.273 67.3208 55.8659 66.5642 55.9894L66.5641 55.992Z" fill="#FBFBFB"/>
    <path d="M56.0567 107.057C56.4778 107.415 56.4495 107.838 56.4759 108.221C56.5669 109.475 56.6241 110.733 56.7297 111.981C56.7871 112.656 56.5957 113.176 56.1527 113.594C55.8078 113.92 55.4079 114.148 54.986 113.95C54.5079 113.725 54.7344 113.176 54.7404 112.767C54.7531 111.984 54.8494 111.256 55.5812 110.819C56.1126 110.503 56.1483 109.836 56.1247 109.204C56.1011 108.523 56.0776 107.841 56.0521 107.054L56.0567 107.057Z" fill="#FBFBFB"/>
    <path d="M58.0172 103.013C57.9645 100.768 57.8964 98.6978 57.875 96.6275C57.8626 95.3598 58.5306 94.6851 59.3619 94.2172C59.5336 94.1211 59.7456 93.976 59.9002 94.222C59.9662 94.3274 59.9917 94.5299 59.9627 94.6645C59.8964 94.9673 59.7069 94.9746 59.4912 94.9268C58.6746 94.7435 58.5445 95.4767 58.5099 96.2147C58.4275 98.0445 58.3963 99.8741 58.325 101.704C58.3103 102.089 58.4376 102.527 58.0151 103.01L58.0172 103.013Z" fill="#FBFBFB"/>
    <path d="M77.9818 78.1009C77.8856 80.0285 77.8386 81.9611 77.6661 83.8822C77.6043 84.5769 76.9475 84.8681 76.3183 85.0022C75.9763 85.0743 75.714 84.8845 75.7116 84.5368C75.7095 84.0357 75.5861 83.2906 76.2267 83.2236C77.2871 83.1114 77.2806 82.4005 77.3337 81.6338C77.415 80.4493 77.3637 79.2504 77.6341 78.0883C77.7499 78.0942 77.8658 78.0976 77.9818 78.1009Z" fill="#FBFBFB"/>
    <path d="M43.988 47.147C43.1473 47.0505 42.5592 46.9965 41.9726 46.9156C41.0955 46.7931 40.9132 46.2095 40.9763 45.5256C41.0068 45.2051 41.1904 44.8333 41.6306 45.1214C42.3682 45.6018 43.2471 45.5714 44.0493 45.8028C44.5802 45.956 45.0651 46.1042 44.8944 46.7396C44.7311 47.3432 44.1711 47.1322 43.988 47.147Z" fill="#FBFBFB"/>
    <path d="M53.9353 48.1584C53.7573 48.5957 53.8448 49.5173 52.6868 48.9281C52.4069 48.7867 52.0457 48.7954 51.7255 48.7222C51.0626 48.5722 50.913 48.0965 50.9775 47.5452C51.0528 46.8889 51.5688 47.0234 52.0177 47.0787C52.4695 47.1342 52.9216 47.1815 53.3662 47.2664C53.7771 47.3441 54.0328 47.5709 53.9353 48.1584Z" fill="#FBFBFB"/>
    <path d="M48.8217 49.0834C48.139 48.7838 46.9429 49.1295 46.9666 47.6838C46.9804 46.8932 47.6638 47.0068 48.1321 47.0969C48.919 47.2473 49.9259 47.2134 49.9271 48.5028C49.9281 49.2248 49.3434 49.1288 48.8187 49.0864L48.8217 49.0834Z" fill="#FBFBFB"/>
    <path d="M70.9403 100.962C70.8333 100.18 70.6209 99.3907 70.6445 98.616C70.7158 96.0758 70.8776 93.5403 71.165 91.0084C72.2254 94.3792 71.0936 97.6867 71.5004 101.038C71.3154 101.012 71.1253 100.988 70.9403 100.962Z" fill="#FBFBFB"/>
    <path d="M73.236 91.0156C72.7697 89.4832 72.8256 87.9744 73.0724 86.4695C73.1125 86.2201 73.3127 85.9818 73.5953 86.0342C74.0537 86.116 73.9922 86.5163 73.9369 86.8468C73.7124 88.2388 73.4714 89.6271 73.2331 91.0183L73.236 91.0156Z" fill="#FBFBFB"/>
    <path d="M69.4618 83.0235C69.9223 83.3145 70.0394 83.8338 69.8944 84.3345C69.6966 85.0216 69.5354 85.6943 69.5835 86.4182C69.6061 86.7842 69.4303 87.0833 69.0616 86.9996C68.5767 86.8912 68.9303 86.5606 69.0113 86.3702C69.4714 85.2884 68.8426 84.0702 69.4643 83.0236L69.4618 83.0235Z" fill="#FBFBFB"/>
    <path d="M80.8685 69.0977C80.6889 68.7639 80.1725 68.7961 79.7437 68.6835C79.0292 68.4921 79.0468 67.9459 78.9852 67.4396C78.9531 67.1805 79.1344 67.0289 79.392 67.0244C79.9685 67.0158 80.3628 67.2377 80.5615 67.7715C80.7402 68.2516 81.0169 68.7045 80.8655 69.0946L80.8685 69.0977Z" fill="#FBFBFB"/>
    <path d="M62.0497 44.9808C61.6571 44.8991 61.0636 45.262 60.984 44.4359C60.9459 44.0408 61.3391 43.9536 61.5963 44.0641C62.0746 44.2705 62.9131 44.102 62.9574 44.7411C63.0102 45.4749 62.3687 44.7988 62.0469 44.9839L62.0497 44.9808Z" fill="#FBFBFB"/>
    <path d="M65.4396 102.022C65.5171 103.641 66.2315 105.275 65.5063 107.032C64.9057 105.261 65.0807 103.642 64.9989 102.023C65.1444 102.023 65.2898 102.022 65.4396 102.022Z" fill="#FDFDFD"/>
    <path d="M63.1849 51.0133C62.5702 49.9176 63.1439 48.9771 63.2688 48.0137C63.498 48.9721 63.363 49.9196 63.1849 51.0133Z" fill="#FBFBFB"/>
    <path d="M68.9143 73.7185C69.3304 73.3309 69.7136 72.9357 69.9622 72.049C69.9753 74.1492 69.8379 74.3437 68.9143 73.7185Z" fill="#FBFBFB"/>
    <path d="M65.4089 88.0208C65.4031 89.1279 65.476 89.9768 65.1691 91.0125C64.7051 89.9197 64.9192 89.0931 65.4089 88.0208Z" fill="#FBFBFB"/>
    <path d="M65.3 101.994C65.2065 101.997 65.1131 102 65.0169 102.003C64.9109 101.324 64.8293 100.649 65.3984 100.02L65.3 101.994Z" fill="#FBFBFB"/>
    <path d="M29.5822 69.3746C29.7948 65.0014 34.1038 61.0859 38.4972 61.4354C42.6387 61.7667 46.8221 65.0447 46.555 70.3428C46.3175 75.1033 42.4428 78.6086 37.5809 78.4076C32.8908 78.2153 29.3436 74.2117 29.5823 69.3719L29.5822 69.3746ZM44.3621 70.3707C44.4875 69.0252 44.1294 67.8521 43.496 66.7417C43.3786 66.5332 43.2972 66.2718 43.0059 66.2652C42.6398 66.2547 42.5965 66.5645 42.4726 66.8209C41.0566 69.7043 39.5139 70.4522 36.3108 69.7938C35.7719 69.6843 35.4755 69.7787 35.3468 70.355C35.0103 71.8649 35.7041 73.2685 37.1458 73.9357C38.0878 74.3723 39.1292 74.3761 40.1015 74.6527C41.8543 75.1497 42.087 75.1068 43.1977 73.6664C43.9638 72.6738 44.3447 71.5547 44.3648 70.3708L44.3621 70.3707ZM37.7318 68.2023C39.1905 68.2492 40.89 66.6418 40.9793 65.2425C41.0228 64.5934 40.6917 64.6039 40.2332 64.7201C39.0434 65.0181 37.9416 65.5011 37.039 66.3336C36.675 66.6708 36.1073 67.025 36.4081 67.6205C36.6661 68.1289 37.2862 68.114 37.7318 68.2023Z" fill="#040404"/>
    <path d="M50.8082 70.1073C50.7651 68.6602 51.4589 67.7413 52.8019 67.1824C54.0749 66.6521 55.3741 66.3108 56.7639 66.3011C57.8954 66.2944 58.8345 66.6773 59.4176 67.6479C60.3556 69.2075 60.8682 70.8742 60.6639 72.7134C60.5357 73.8515 60.0229 74.6108 58.8132 74.8628C57.8725 75.0616 56.9522 75.3471 56.0183 75.5757C55.315 75.7489 55.0952 76.0835 55.4479 76.7717C55.6782 77.2203 55.8479 77.7249 55.9084 78.2185C56.0304 79.1844 55.3856 79.8914 54.334 80.114C53.3322 80.3257 52.8429 79.8424 52.5567 78.9754C51.5999 76.0852 50.9673 73.1365 50.8082 70.1073ZM56.5318 69.1361C55.6734 69.4463 54.2006 69.0845 53.8632 70.2334C53.4401 71.6701 54.2705 73.2966 55.0338 73.3515C55.8926 73.4167 58.131 71.9732 58.126 71.3564C58.1179 70.0881 57.5047 69.1723 56.5318 69.1361Z" fill="#040404"/>
    <path d="M51.219 108.824C46.6001 107.665 41.9854 106.476 37.3562 105.36C34.5904 104.693 31.8996 103.672 29.1376 103.096C24.9405 102.223 20.8221 101.029 16.6409 100.108C16.4064 100.056 16.1389 100.065 15.946 99.9429C15.5578 99.695 14.7318 99.8089 14.9866 98.9611C15.1993 98.2498 15.6691 97.9012 16.4813 98.1187C18.4929 98.6602 20.5251 99.116 22.5471 99.6118C29.5474 101.329 36.5583 102.997 43.5406 104.802C45.7899 105.385 48.0132 106.053 50.3089 106.418C50.8874 106.511 51.475 106.752 51.9772 107.066C52.26 107.242 52.8272 107.453 52.42 108.131C52.1108 108.647 51.8126 108.999 51.2217 108.824L51.219 108.824Z" fill="#040404"/>
    <path d="M43.7784 70.6028C43.7563 71.8217 43.3732 72.9742 42.6131 73.9977C41.5072 75.4826 41.276 75.5272 39.5358 75.0188C38.5705 74.7358 37.536 74.7338 36.6011 74.2861C35.1703 73.6019 34.4836 72.1582 34.8205 70.6032C34.9496 70.0068 35.2442 69.9091 35.7792 70.0237C38.9624 70.6957 40.4963 69.9229 41.9053 66.9518C42.0287 66.6904 42.0722 66.3714 42.436 66.3787C42.7225 66.3876 42.8028 66.6566 42.9219 66.8683C43.5492 68.0103 43.9055 69.2175 43.7757 70.6027L43.7784 70.6028Z" fill="#FBFBFB"/>
    <path d="M37.0765 69.06C36.6854 68.9688 36.1371 68.9914 35.9178 68.4425C35.6592 67.7995 36.1623 67.4093 36.4861 67.0396C37.2888 66.1268 38.2632 65.5912 39.3131 65.2555C39.7176 65.1276 40.0067 65.1096 39.9642 65.8145C39.8689 67.3336 38.3596 69.0926 37.0765 69.06Z" fill="#FBFBFB"/>
    <path d="M56.4453 69.1246C57.3315 69.1573 57.8891 70.0111 57.8951 71.1946C57.8989 71.7701 55.8584 73.1196 55.0761 73.0598C54.381 73.0069 53.6264 71.4901 54.0133 70.1515C54.3219 69.0791 55.663 69.4175 56.4453 69.1246Z" fill="#FBFBFB"/>
    <path d="M32.8113 15.9729C33.8758 16.6044 34.8677 17.2004 36.0293 17.4445C36.2937 17.5 36.5637 17.6421 36.7724 17.8141C36.9085 17.9262 37.0302 18.1859 36.9933 18.3412C36.9587 18.4888 36.7222 18.6708 36.5548 18.6941C35.9054 18.7851 35.2482 18.8229 34.5932 18.8728C33.7195 18.9405 32.8459 19.0093 31.9711 19.0626C31.7245 19.077 31.6519 19.208 31.5828 19.4133C31.0762 20.9282 30.8698 22.4941 30.7437 24.0766C30.7281 24.2697 30.7202 24.4795 30.6354 24.6449C30.5573 24.7969 30.3799 25.0011 30.2483 25C30.0798 24.9978 29.8287 24.8524 29.7584 24.7026C29.3902 23.908 29.061 23.0956 28.7296 22.2854C28.3882 21.4487 28.068 20.6041 27.7131 19.7729C27.6663 19.6641 27.4565 19.5376 27.3449 19.5553C26.2849 19.7274 25.2305 19.9316 24.1738 20.1224C23.954 20.1624 23.7275 20.2179 23.5099 20.199C23.3336 20.1835 23.049 20.098 23.0189 19.9893C22.9698 19.8062 23.0178 19.5121 23.145 19.3844C23.5266 19.0038 23.9573 18.6686 24.3858 18.3379C24.9214 17.925 25.4704 17.53 26.0193 17.1349C26.2659 16.9573 26.2737 16.7698 26.1577 16.4967C25.6578 15.3215 25.1713 14.1406 24.7083 12.9498C24.6402 12.7734 24.6569 12.4804 24.7652 12.3461C24.8544 12.2373 25.168 12.2118 25.332 12.2762C26.5281 12.7445 27.7154 13.2351 28.8948 13.7445C29.1581 13.8576 29.321 13.8654 29.5609 13.6734C31.0316 12.4993 32.5167 11.3417 34.0141 10.2009C34.1949 10.0633 34.4816 10.0633 34.7193 10C34.7349 10.2619 34.8365 10.5549 34.7528 10.7791C34.3065 11.9754 33.8021 13.1496 33.3413 14.3415C33.1371 14.8698 32.9876 15.4202 32.809 15.974L32.8113 15.9729Z" fill="white"/>
    <path d="M67.3072 11.0181C67.9916 10.5971 68.6292 10.1998 69.376 10.037C69.546 10 69.7196 9.9053 69.8537 9.79062C69.9412 9.71589 70.0194 9.54277 69.9957 9.43919C69.9735 9.34078 69.8214 9.21945 69.7138 9.20391C69.2963 9.14324 68.8738 9.11808 68.4528 9.08479C67.8911 9.03966 67.3295 8.99379 66.7671 8.95827C66.6086 8.94866 66.562 8.86135 66.5175 8.72448C66.1918 7.71456 66.0591 6.67062 65.9781 5.61557C65.968 5.48683 65.963 5.347 65.9085 5.23676C65.8583 5.1354 65.7442 4.99926 65.6596 5C65.5513 5.00148 65.3899 5.0984 65.3447 5.19829C65.108 5.72803 64.8964 6.26961 64.6833 6.80971C64.4638 7.36757 64.258 7.9306 64.0299 8.48476C63.9997 8.55727 63.8649 8.64161 63.7932 8.62977C63.1117 8.5151 62.4339 8.37896 61.7546 8.2517C61.6133 8.22507 61.4677 8.18808 61.3278 8.20065C61.2144 8.21101 61.0315 8.26798 61.0122 8.34049C60.9806 8.46256 61.0114 8.65863 61.0932 8.74371C61.3385 8.99749 61.6154 9.22093 61.8909 9.4414C62.2352 9.71663 62.5881 9.98002 62.941 10.2434C63.0995 10.3618 63.1045 10.4868 63.0299 10.6688C62.7086 11.4524 62.3958 12.2396 62.0982 13.0334C62.0544 13.1511 62.0652 13.3464 62.1347 13.4359C62.1921 13.5084 62.3937 13.5255 62.4991 13.4825C63.2681 13.1703 64.0313 12.8433 64.7895 12.5037C64.9588 12.4282 65.0635 12.4231 65.2177 12.5511C66.1631 13.3338 67.1179 14.1055 68.0805 14.8661C68.1967 14.9578 68.3811 14.9578 68.5338 15C68.5439 14.8254 68.6092 14.6301 68.5554 14.4806C68.2684 13.683 67.9442 12.9003 67.648 12.1057C67.5167 11.7535 67.4206 11.3865 67.3058 11.0173L67.3072 11.0181Z" fill="white"/>
    <path d="M86.631 33.3572C87.8843 33.3029 89.056 33.2453 90.1902 33.5991C90.4483 33.6798 90.7567 33.6829 91.0277 33.6274C91.2044 33.5913 91.4459 33.411 91.4956 33.2483C91.543 33.0939 91.4337 32.8066 91.3009 32.7013C90.7862 32.2921 90.2368 31.9286 89.6957 31.5548C88.9746 31.0552 88.254 30.5545 87.5243 30.0678C87.3183 29.9311 87.3241 29.7732 87.3719 29.5479C87.7279 27.8878 88.3707 26.3303 89.0917 24.7975C89.1795 24.6103 89.2828 24.4116 89.2961 24.2157C89.3082 24.0354 89.2617 23.7571 89.1471 23.6923C89 23.6101 88.7063 23.6196 88.5668 23.7237C87.831 24.2776 87.1197 24.8675 86.4077 25.4543C85.673 26.0607 84.9525 26.685 84.2091 27.2796C84.1115 27.3572 83.8634 27.3699 83.7761 27.2976C82.9483 26.6079 82.1421 25.8912 81.3271 25.1857C81.1577 25.0387 80.9906 24.874 80.7923 24.7827C80.6314 24.709 80.3402 24.6461 80.257 24.7321C80.1184 24.8776 80.0057 25.1747 80.0489 25.3569C80.1797 25.9011 80.3769 26.4277 80.5745 26.9491C80.8218 27.6002 81.09 28.2416 81.3582 28.8829C81.4786 29.1711 81.387 29.3492 81.1432 29.5447C80.0937 30.3864 79.0529 31.2399 78.0271 32.1143C77.8756 32.2442 77.7363 32.5246 77.7596 32.7035C77.7799 32.8491 78.038 33.0295 78.2139 33.0518C79.4956 33.2147 80.7811 33.3526 82.0699 33.4691C82.3573 33.4956 82.5025 33.5698 82.6095 33.8681C83.2673 35.6937 83.9463 37.5111 84.6446 39.3192C84.729 39.5374 84.9774 39.6807 85.15 39.8583C85.301 39.6228 85.5426 39.4015 85.5877 39.1515C85.8288 37.8173 86.008 36.4747 86.2342 35.1373C86.3345 34.5446 86.4938 33.9587 86.6297 33.3551L86.631 33.3572Z" fill="white"/>
  </g>
  <defs>
    <filter id="filter0_d_2826_10879" x="-2.10449" y="29.7637" width="91.3154" height="91.6689" filterUnits="userSpaceOnUse" color-interpolation-filters="sRGB">
      <feFlood flood-opacity="0" result="BackgroundImageFix"/>
      <feColorMatrix in="SourceAlpha" type="matrix" values="0 0 0 0 0 0 0 0 0 0 0 0 0 0 0 0 0 0 127 0" result="hardAlpha"/>
      <feOffset/>
      <feGaussianBlur stdDeviation="2"/>
      <feComposite in2="hardAlpha" operator="out"/>
      <feColorMatrix type="matrix" values="0 0 0 0 0 0 0 0 0 0 0 0 0 0 0 0 0 0 0.25 0"/>
      <feBlend mode="normal" in2="BackgroundImageFix" result="effect1_dropShadow_2826_10879"/>
      <feBlend mode="normal" in="SourceGraphic" in2="effect1_dropShadow_2826_10879" result="shape"/>
    </filter>
    <clipPath id="clip0_2826_10879">
      <rect width="98" height="122" fill="white"/>
    </clipPath>
  </defs>
</svg>