<svg width="78" height="80" viewBox="0 0 78 80" fill="none" xmlns="http://www.w3.org/2000/svg">
<g filter="url(#filter0_d_2826_10877)">
<g clip-path="url(#clip0_2826_10877)">
<path d="M68.3049 44.2362C68.9576 37.119 69.8691 30.0216 69.5603 22.8408C69.4134 19.3937 66.9678 17.1022 63.5075 17.4008C62.5683 17.4821 61.6181 17.6447 60.6891 17.4145C57.6996 16.6704 54.7052 16.8556 51.696 17.2291C50.2727 17.407 49.6266 16.8717 49.3203 15.4423C48.8235 13.1282 48.3067 10.8144 47.2758 8.66652C46.0764 6.16355 44.1411 4.79291 41.2681 4.87336C40.1688 4.90278 39.0799 5.00078 38.0212 5.26442C31.102 6.99408 24.476 9.58437 17.827 12.1072C16.5862 12.5767 16.1057 13.4734 16.1916 14.7797C16.3064 16.5038 16.4083 18.2316 16.6117 19.9476C17.3832 26.4496 19.098 32.7583 20.5664 39.1212C21.783 44.3953 23.0856 49.6384 25.339 54.5941C26.0416 56.1426 26.4067 56.3685 28.1374 56.1305C29.5526 55.9343 30.96 55.6698 32.3686 55.418C33.4143 55.2304 33.9478 55.6914 34.0597 56.7029C34.1044 57.1125 34.1059 57.5276 34.1402 57.9411C34.3122 60.0762 34.1558 62.2317 34.5604 64.3487C35.0626 66.9934 36.4243 67.9988 39.0852 67.7886C46.4525 67.2132 53.8211 66.6505 61.1905 66.1029C64.3025 65.8726 65.6601 64.6032 66.1726 61.4928C67.1176 55.771 67.7803 50.0146 68.3044 44.2411L68.3049 44.2362ZM34.968 17.5604C34.5285 17.5417 34.2437 17.7693 34.1421 18.116C34.2415 17.7665 34.5285 17.5417 34.9683 17.558C35.3854 17.6468 35.6226 17.8717 35.6498 18.257C35.6251 17.8719 35.3856 17.6443 34.9683 17.558L34.968 17.5604Z" fill="#FAFAFA"/>
<path d="M34.9683 17.558C34.5285 17.5417 34.2415 17.7665 34.1421 18.116C34.2437 17.7693 34.5285 17.5417 34.968 17.5604L34.9683 17.558ZM34.9683 17.558C35.3854 17.6468 35.6226 17.8717 35.6498 18.257C35.6251 17.8719 35.3856 17.6443 34.9683 17.558ZM68.3049 44.2362C68.9576 37.119 69.8691 30.0216 69.5603 22.8408C69.4134 19.3937 66.9678 17.1022 63.5075 17.4008C62.5683 17.4821 61.6181 17.6446 60.6891 17.4145C57.6996 16.6704 54.7052 16.8556 51.696 17.2291C50.2727 17.407 49.6266 16.8717 49.3203 15.4423C48.8235 13.1282 48.3067 10.8144 47.2758 8.66652C46.0764 6.16355 44.1411 4.79291 41.2681 4.87336C40.1688 4.90278 39.0799 5.00078 38.0212 5.26442C31.102 6.99408 24.476 9.58437 17.827 12.1072C16.5862 12.5767 16.1057 13.4734 16.1916 14.7797C16.3064 16.5038 16.4083 18.2316 16.6117 19.9476C17.3832 26.4496 19.098 32.7583 20.5664 39.1212C21.783 44.3953 23.0856 49.6384 25.339 54.5941C26.0416 56.1426 26.4067 56.3685 28.1374 56.1305C29.5526 55.9343 30.96 55.6698 32.3686 55.418C33.4143 55.2304 33.9478 55.6914 34.0597 56.7029C34.1044 57.1125 34.1059 57.5276 34.1402 57.9411C34.3122 60.0762 34.1558 62.2317 34.5604 64.3487C35.0626 66.9934 36.4243 67.9988 39.0852 67.7886C46.4525 67.2132 53.8211 66.6505 61.1905 66.1029C64.3025 65.8726 65.6601 64.6032 66.1726 61.4928C67.1176 55.771 67.7803 50.0146 68.3044 44.2411L68.3049 44.2362Z" stroke="white" stroke-width="2.24391" stroke-linecap="round" stroke-linejoin="round"/>
<path d="M68.3042 44.2396C67.7801 50.0137 67.1198 55.7709 66.1722 61.493C65.6572 64.6034 64.3021 65.8732 61.1901 66.1036C53.8207 66.6513 46.4525 67.2117 39.0849 67.7896C36.4218 67.9971 35.0625 66.9919 34.5602 64.3495C34.1584 62.2301 34.3122 60.0741 34.1401 57.9413C34.108 57.5305 34.1065 57.1154 34.0595 56.703C33.9473 55.6938 33.4139 55.2328 32.3685 55.4179C30.9599 55.6698 29.555 55.9346 28.1373 56.1305C26.4066 56.3686 26.044 56.143 25.3389 54.5941C23.088 49.6382 21.7855 44.3946 20.5665 39.1197C19.0979 32.7587 17.3834 26.4469 16.612 19.9443C16.4086 18.2282 16.3068 16.5002 16.192 14.7759C16.1061 13.4696 16.5864 12.5752 17.8275 12.1032C24.4759 9.58498 31.1018 6.99438 38.0233 5.26722C39.082 5.00354 40.1709 4.90552 41.2704 4.87361C44.1434 4.79313 46.0787 6.16387 47.278 8.66707C48.3087 10.8176 48.8257 13.1291 49.3224 15.4435C49.6287 16.873 50.2723 17.408 51.6982 17.2305C54.7101 16.8546 57.7042 16.6719 60.6912 17.4158C61.6199 17.6484 62.5704 17.4833 63.5095 17.402C66.9701 17.1009 69.4132 19.3923 69.5623 22.8425C69.871 30.0239 68.9594 37.122 68.3066 44.2399L68.3042 44.2396ZM41.8007 7.75143C41.509 7.75827 41.2828 7.76199 41.0562 7.77066C38.5403 7.86618 36.1957 8.74209 33.7978 9.36243C29.2779 10.5296 24.8364 11.93 20.5818 13.8675C18.801 14.6777 18.4591 15.2817 18.7912 17.2288C19.1798 19.5218 19.5759 21.8156 20.0412 24.0942C21.5674 31.5535 23.6532 38.8917 24.8866 46.4152C25.1803 48.2034 25.8831 49.8695 26.7963 51.4428C27.6057 52.8351 27.8478 52.9656 29.4401 52.613C36.0145 51.1568 42.5889 49.7006 49.1605 48.2241C51.7989 47.6316 52.3493 46.8096 51.877 44.1678C50.1791 34.6432 48.4762 25.1181 46.7425 15.5998C46.4212 13.8362 46.2015 12.0359 45.3213 10.4111C44.5355 8.96124 43.334 8.10256 41.7982 7.75117L41.8007 7.75143ZM65.6763 43.9209C66.1365 39.5424 66.654 35.1675 67.037 30.7834C67.2762 28.0539 67.4903 25.3018 66.8505 22.5825C66.4139 20.7219 65.9658 20.3323 64.1047 20.2117C61.9198 20.0695 59.7335 19.9172 57.5442 19.8646C55.7376 19.8222 53.9201 19.7412 52.1277 20.1127C51.5893 20.2236 51.1004 20.4121 50.8208 20.9002C49.8603 22.569 51.3872 25.2966 53.2861 25.3437C55.2852 25.3913 57.2864 25.4442 59.2851 25.5193C61.3988 25.599 62.9237 27.0565 62.9125 29.0726C62.8742 36 62.5986 42.9175 62.1806 49.8301C61.9919 52.9623 60.9239 54.0073 57.9059 54.2976C55.0551 54.5728 52.2001 54.8402 49.3403 55.0095C47.0104 55.1496 44.6337 55.3522 42.4442 54.2522C41.1362 53.5948 39.9066 53.7906 38.6255 54.2608C37.7593 54.5797 37.3592 55.1876 37.3973 56.0664C37.4942 58.3188 37.5933 60.5739 37.7505 62.8251C37.8355 64.0213 38.5605 64.5925 39.7893 64.5716C46.7347 64.4543 53.6223 63.5509 60.545 63.1012C62.8079 62.9541 63.2764 62.4584 63.6037 60.2756C64.4186 54.8371 64.8715 49.358 65.6768 43.916L65.6763 43.9209Z" fill="#0E0E0E"/>
<path d="M41.9527 7.89015C43.4763 8.23944 44.6657 9.0937 45.4471 10.5373C46.3201 12.1523 46.5371 13.9472 46.8552 15.7029C48.5717 25.1795 50.2576 34.6628 51.9386 44.1456C52.4038 46.7755 51.8598 47.5944 49.242 48.1854C42.7218 49.6555 36.1984 51.1079 29.6749 52.5627C28.095 52.9143 27.8548 52.7846 27.0524 51.3985C26.1444 49.8321 25.4478 48.1735 25.1595 46.3934C23.941 38.9031 21.872 31.5972 20.3606 24.1707C19.8998 21.9021 19.5077 19.6184 19.123 17.3354C18.7967 15.3971 19.1337 14.7954 20.9008 13.988C25.1252 12.0576 29.5323 10.6616 34.0146 9.49745C36.3939 8.87889 38.7204 8.00589 41.2165 7.90984C41.4414 7.90112 41.6658 7.89732 41.9552 7.8904L41.9527 7.89015ZM38.8292 10.8771C34.8224 11.1877 30.1906 11.6666 25.9564 13.927C24.9914 14.4429 24.1106 15.1044 23.4538 15.9787C22.5077 17.2382 21.599 18.544 21.9479 20.2681C23.0079 25.5017 24.5948 30.5991 26.0363 35.7309C26.6866 38.0443 28.7377 39.3177 30.9431 38.7679C34.7816 37.8099 38.6009 36.7504 42.2435 35.1695C45.0048 33.9713 46.4216 31.691 46.065 28.7141C45.4823 23.8169 44.472 18.9867 43.4125 14.1738C42.939 12.0259 41.7242 11.154 38.8319 10.8749L38.8292 10.8771Z" fill="#FCFCFC"/>
<path d="M65.3154 44.1038C64.5082 49.5794 64.0517 55.0968 63.2296 60.5708C62.9005 62.7679 62.4299 63.2695 60.1589 63.4157C53.2107 63.8705 46.2978 64.7793 39.3266 64.9021C38.0933 64.9234 37.3632 64.3485 37.2808 63.1447C37.1234 60.8814 37.0247 58.6116 36.9284 56.3421C36.8904 55.4575 37.2921 54.8456 38.1617 54.5244C39.4475 54.0506 40.6817 53.8533 41.9943 54.5146C44.1891 55.6208 46.5748 55.4136 48.9155 55.2747C51.7861 55.1009 54.6517 54.8309 57.5128 54.5555C60.5419 54.2625 61.6142 53.2102 61.8046 50.0576C62.2262 43.0998 62.5026 36.1343 62.5454 29.1644C62.5576 27.1327 61.0297 25.6689 58.9058 25.589C56.8997 25.514 54.8913 25.4615 52.8848 25.4141C50.9764 25.367 49.4448 22.6221 50.4118 20.9424C50.695 20.4513 51.1833 20.2611 51.7237 20.1493C53.5228 19.7748 55.347 19.8559 57.1602 19.898C59.3578 19.9478 61.5518 20.1029 63.7447 20.2454C65.6125 20.3662 66.062 20.7606 66.4998 22.6308C67.1414 25.3652 66.923 28.1375 66.6846 30.8851C66.2985 35.3004 65.778 39.7016 65.3148 44.1088L65.3154 44.1038Z" fill="#FCFCFC"/>
<path d="M38.5377 10.5491C41.4043 10.8253 42.6072 11.7006 43.0732 13.8608C44.1159 18.7014 45.1098 23.5594 45.6798 28.4855C46.0261 31.4797 44.6205 33.7764 41.8814 34.9862C38.268 36.5825 34.4803 37.6545 30.6737 38.6244C28.4867 39.1809 26.4555 37.903 25.8145 35.5766C24.3939 30.4133 22.8285 25.2899 21.786 20.026C21.4429 18.2919 22.3457 16.9768 23.2856 15.7081C23.9383 14.825 24.8149 14.1583 25.7696 13.64C29.9707 11.3567 34.5651 10.8703 38.535 10.5513L38.5377 10.5491ZM32.5863 27.0918C35.2585 27.3877 37.9426 25.2931 38.4126 22.5575C38.4959 22.0703 38.3236 21.7617 37.8953 21.5664C37.4788 21.3749 37.1558 21.5388 36.9348 21.8812C36.6312 22.3527 36.3713 22.8538 36.105 23.3468C35.4335 24.5961 34.482 25.4353 33.0116 25.3458C31.6097 25.2611 30.6973 24.4614 30.2339 23.1204C30.0427 22.5694 29.698 22.165 29.0712 22.3796C28.4394 22.5937 28.4487 23.1156 28.5861 23.686C29.0018 25.4328 30.687 26.8822 32.5888 27.0921L32.5863 27.0918ZM34.8998 17.3771C34.4061 17.3578 34.1083 17.6571 34.0549 18.0948C34.0004 18.5424 34.2584 18.9276 34.7288 18.957C35.1624 18.9851 35.5227 18.7725 35.5652 18.251C35.6072 17.757 35.3679 17.4764 34.9001 17.3746L34.8998 17.3771ZM31.7186 18.7333C31.7358 18.2643 31.5362 17.8876 31.0372 17.7776C30.526 17.6663 30.1779 17.9277 30.066 18.4294C29.946 18.9602 30.2295 19.2906 30.7246 19.3902C31.2149 19.4893 31.5842 19.3077 31.7186 18.7333Z" fill="#0E0E0E"/>
<path d="M32.51 27.0079C30.5684 26.794 28.8427 25.3635 28.412 23.6404C28.2721 23.0787 28.2581 22.5648 28.9019 22.3565C29.5406 22.1502 29.8942 22.547 30.0914 23.0901C30.5695 24.4116 31.5037 25.2021 32.9347 25.291C34.4357 25.3847 35.4059 24.5627 36.0839 23.3356C36.3541 22.849 36.6171 22.3593 36.9251 21.8964C37.1493 21.5603 37.4783 21.4002 37.904 21.5904C38.342 21.7842 38.5214 22.0889 38.4359 22.5677C37.964 25.2603 35.2356 27.3092 32.5075 27.0077L32.51 27.0079Z" fill="#FCFCFC"/>
<path d="M34.9851 17.2134C35.6017 17.3412 35.9184 17.6959 35.8693 18.3178C35.8169 18.9708 35.3437 19.2393 34.7729 19.2014C34.1538 19.1583 33.8116 18.675 33.8805 18.1119C33.9478 17.5644 34.338 17.1895 34.9879 17.2169L34.9851 17.2134Z" fill="#FCFCFC"/>
<path d="M31.78 18.9625C31.6189 19.6589 31.1795 19.8798 30.597 19.7609C30.0087 19.6414 29.6751 19.2451 29.8164 18.5983C29.9507 17.9901 30.3654 17.6695 30.9724 17.8061C31.5653 17.9383 31.802 18.3911 31.78 18.9625Z" fill="#FCFCFC"/>
</g>
<path d="M18.4858 5.0553C18.495 5.28499 18.6052 5.56061 18.5041 5.72598C18.2745 6.11186 17.9622 6.4426 17.6775 6.80092C17.3927 6.54367 16.9059 6.32317 16.8508 6.02917C16.5845 4.63268 16.3916 3.2178 16.2997 1.80293C16.2813 1.53649 16.9151 0.948499 17.0621 1.00362C17.457 1.15981 17.953 1.51812 18.0449 1.89481C18.3112 2.92381 18.3939 3.99874 18.5409 5.0553H18.4858Z" fill="white" stroke="white" stroke-width="0.6" stroke-linejoin="round"/>
<path d="M10.6053 3.61263C10.8166 3.74126 11.0737 3.84232 11.2483 4.01688C12.0014 4.77026 12.6995 5.56956 13.4711 6.29537C14.0222 6.80987 13.9119 7.37032 13.4986 7.71025C13.2782 7.894 12.5617 7.747 12.2678 7.50813C11.4963 6.87419 10.7982 6.1392 10.1368 5.38582C9.90722 5.12857 9.76945 4.67839 9.80619 4.33845C9.83375 4.02608 10.1552 3.74126 10.3389 3.44727L10.5961 3.61263H10.6053Z" fill="white" stroke="white" stroke-width="0.6" stroke-linejoin="round"/>
<path d="M9.99235 11.1268C9.80341 10.9672 9.62606 10.7553 9.40519 10.6451C8.45197 10.1694 7.47264 9.76064 6.53974 9.25885C5.87712 8.89918 5.38049 9.18133 5.18905 9.68108C5.08463 9.94839 5.45109 10.5813 5.77079 10.7844C6.61655 11.3153 7.53488 11.7445 8.459 12.133C8.77576 12.2693 9.2464 12.2573 9.55717 12.1147C9.84471 11.9896 10.013 11.5944 10.2336 11.327L9.99527 11.1355L9.99235 11.1268Z" fill="white" stroke="white" stroke-width="0.6" stroke-linejoin="round"/>
</g>
<defs>
<filter id="filter0_d_2826_10877" x="0.871094" y="0.700195" width="76.3701" height="79.1006" filterUnits="userSpaceOnUse" color-interpolation-filters="sRGB">
<feFlood flood-opacity="0" result="BackgroundImageFix"/>
<feColorMatrix in="SourceAlpha" type="matrix" values="0 0 0 0 0 0 0 0 0 0 0 0 0 0 0 0 0 0 127 0" result="hardAlpha"/>
<feOffset dy="4"/>
<feGaussianBlur stdDeviation="2"/>
<feComposite in2="hardAlpha" operator="out"/>
<feColorMatrix type="matrix" values="0 0 0 0 0 0 0 0 0 0 0 0 0 0 0 0 0 0 0.25 0"/>
<feBlend mode="normal" in2="BackgroundImageFix" result="effect1_dropShadow_2826_10877"/>
<feBlend mode="normal" in="SourceGraphic" in2="effect1_dropShadow_2826_10877" result="shape"/>
</filter>
<clipPath id="clip0_2826_10877">
<rect width="57" height="65" fill="white" transform="translate(16.5532 1.19922) rotate(6)"/>
</clipPath>
</defs>
</svg>
