<svg xmlns="http://www.w3.org/2000/svg" width="17" height="17" viewBox="0 0 17 17" fill="none">
  <path d="M8.50016 8.35552C10.4261 8.35552 11.9873 6.80223 11.9873 4.88614C11.9873 2.97005 10.4261 1.41675 8.50016 1.41675C6.57425 1.41675 5.01298 2.97005 5.01298 4.88614C5.01298 6.80223 6.57425 8.35552 8.50016 8.35552Z" fill="currentColor"/>
  <path d="M10.3164 9.80117H6.68392C4.57709 9.80117 2.8335 11.5359 2.8335 13.632C2.8335 14.1379 3.05144 14.5716 3.48734 14.7884C4.14119 15.1498 5.59418 15.5835 8.50016 15.5835C11.4061 15.5835 12.8591 15.1498 13.513 14.7884C13.8762 14.5716 14.1668 14.1379 14.1668 13.632C14.1668 11.4636 12.4232 9.80117 10.3164 9.80117Z" fill="currentColor"/>
</svg>