<svg width="16" height="16" viewBox="0 0 16 16" fill="none" xmlns="http://www.w3.org/2000/svg">
<path d="M5.46184 11.4709C4.9385 12.049 4.45092 12.5849 3.96659 13.1208C3.7228 13.3918 3.52776 13.7682 3.21571 13.9037C2.8679 14.0512 2.40957 13.9789 2 14C2.04876 13.6748 1.98373 13.2744 2.16576 13.0335C2.6891 12.347 3.27422 11.6937 3.90483 11.0915C4.28514 10.7272 4.29488 10.5646 3.89181 10.1943C3.38147 9.72458 2.91664 9.16456 2.61109 8.5654C2.25028 7.85785 2.64685 7.12923 3.44649 6.9546C4.15186 6.80104 4.91574 6.69265 5.62437 6.78298C6.18997 6.85524 6.53453 6.72276 6.85309 6.37952C7.4642 5.72015 8.07204 5.05475 8.64739 4.36526C8.78716 4.19665 8.87819 3.91363 8.83918 3.70588C8.6604 2.74843 8.79368 1.86324 9.70059 1.2972C10.6498 0.704057 11.6964 1.10149 12.4376 1.59527C13.3347 2.19443 14.1539 3.02543 14.6934 3.91664C15.5809 5.39497 14.4139 6.79201 12.8276 6.59028C12.5383 6.55415 12.132 6.77696 11.898 6.99073C11.2933 7.54171 10.731 8.13786 10.2044 8.7581C10.0679 8.91767 10.0744 9.22779 10.1069 9.45662C10.2142 10.2515 10.4645 11.0403 10.4677 11.8322C10.471 12.9853 9.60956 13.452 8.43286 12.9853C7.76324 12.7204 7.12939 12.3651 6.48903 12.0399C6.15747 11.8713 5.84216 11.6786 5.4716 11.4679L5.46184 11.4709Z" fill="currentColor"/>
</svg>
