<svg width="56" height="56" viewBox="0 0 56 56" fill="none" xmlns="http://www.w3.org/2000/svg">
<g id="sketchIcons">
<path id="Vector" d="M19.0902 39.4453C17.2928 41.4307 15.6183 43.2713 13.9549 45.1119C13.1177 46.0425 12.4478 47.335 11.3761 47.8004C10.1816 48.307 8.60755 48.0589 7.20093 48.1312C7.36838 47.0145 7.14505 45.6392 7.77022 44.812C9.56757 42.4544 11.5771 40.2105 13.7428 38.1424C15.049 36.8912 15.0824 36.3328 13.6981 35.061C11.9454 33.4479 10.349 31.5245 9.29963 29.4668C8.06047 27.0368 9.42244 24.5344 12.1687 23.9347C14.5912 23.4073 17.2147 23.0351 19.6484 23.3453C21.5908 23.5935 22.7742 23.1385 23.8683 21.9597C25.967 19.6951 28.0546 17.4099 30.0306 15.0419C30.5106 14.4629 30.8232 13.4909 30.6892 12.7774C30.0752 9.48913 30.533 6.44905 33.6476 4.50506C36.9074 2.468 40.5021 3.83293 43.0474 5.52876C46.1286 7.5865 48.9418 10.4404 50.795 13.5012C53.8427 18.5784 49.8349 23.3763 44.3871 22.6835C43.3935 22.5594 41.998 23.3246 41.1942 24.0588C39.1178 25.9511 37.1865 27.9985 35.378 30.1286C34.9091 30.6766 34.9315 31.7417 35.0431 32.5276C35.4115 35.2574 36.2711 37.9666 36.2822 40.6862C36.2934 44.6465 33.335 46.2493 29.2938 44.6465C26.9941 43.7366 24.8172 42.5164 22.6179 41.3996C21.4792 40.8206 20.3964 40.1588 19.1237 39.435L19.0902 39.4453Z" fill="#0A0A0A"/>
</g>
</svg>
