<svg width="48" height="48" viewBox="0 0 48 48" fill="none" xmlns="http://www.w3.org/2000/svg">
<path d="M9.63926 15.0546C10.465 14.2652 11.2496 13.7603 12.0644 13.2691C13.5558 12.3695 15.1966 11.8263 16.8233 11.3071C18.7768 10.6828 20.8088 10.2892 22.8361 9.91555C24.62 9.58632 26.3867 9.28125 28.223 9.25304C31.8876 9.19891 33.4988 10.7648 34.7351 13.8754C35.4713 15.7263 35.8437 17.6836 36.228 19.6301C36.7548 22.2974 37.2944 24.9637 37.842 27.6276C38.2089 29.4132 38.6298 31.1878 38.9647 32.976C39.1842 34.1501 39.3086 35.345 39.4437 36.5341C39.5396 37.3675 39.2403 37.9883 38.3902 38.2616C37.5307 38.5388 36.6868 38.883 35.8129 39.1062C33.4246 39.7111 31.0404 40.3433 28.6242 40.8141C26.7004 41.189 24.7911 41.6358 22.8433 41.9217C21.1748 42.1667 19.5369 42.5212 17.8281 42.4187C17.3733 42.3913 16.9363 42.3283 16.495 42.2527C15.7765 42.1301 15.4315 41.6973 15.1072 41.0224C13.9656 38.6577 13.2926 36.1291 12.3674 33.6912C12.1062 32.9982 11.9757 32.2488 11.809 31.5284C11.1304 28.5862 10.3995 25.6564 9.96336 22.66C9.70687 20.8994 9.43113 19.1404 9.28344 17.3676C9.21415 16.5238 9.0354 15.6112 9.64044 15.0496L9.63926 15.0546Z" fill="#060606"/>
<path d="M10.9752 15.6884C11.5535 15.0055 12.3911 14.7009 13.1369 14.3063C14.9201 13.3616 16.8498 12.7978 18.7977 12.2374C21.0954 11.5766 23.4378 11.2045 25.7633 10.7314C27.0158 10.477 28.3095 10.5439 29.5828 10.6921C31.1727 10.8759 32.2231 11.8709 32.8278 13.2551C33.6659 15.1804 34.2402 17.1925 34.6883 19.2588C35.1959 21.5964 35.6958 23.9394 36.178 26.2823C36.843 29.5115 37.8167 32.686 38.0453 36.0049C38.0923 36.6864 37.8281 36.934 37.3389 37.2148C36.4976 37.6985 35.5225 37.6896 34.6263 37.9894C32.9204 38.564 31.1482 38.9718 29.3785 39.3161C26.7254 39.8308 24.0948 40.4541 21.4114 40.8446C20.1878 41.022 18.9893 41.2477 17.7555 41.1449C17.1223 41.0916 16.7039 40.8712 16.3843 40.1586C15.0909 37.2801 14.0892 34.3207 13.2423 31.2835C12.6956 29.3277 12.2235 27.3575 11.8312 25.3743C11.2782 22.5743 10.7421 19.7649 10.6135 16.9039C10.5888 16.3656 10.7093 15.9594 10.975 15.6851L10.9752 15.6884Z" fill="white"/>
<path d="M16.9425 33.7352C15.8216 32.6567 15.2752 31.274 14.8423 29.8414C14.3634 28.2533 13.8735 26.6678 13.4816 25.058C12.9332 22.8081 12.3374 20.5329 12.4437 18.2111C12.5073 16.8203 13.5062 15.8493 14.7556 15.2458C16.2715 14.5131 17.8596 13.958 19.483 13.5105C21.3449 12.9994 23.1955 12.4161 25.1391 12.2848C26.323 12.2049 27.5024 12.0734 28.6877 12.4336C30.2251 12.9011 31.1884 13.8969 31.8651 15.3272C32.8194 17.3422 33.1848 19.5146 33.6182 21.6522C34.003 23.5485 34.2992 25.5041 34.2164 27.4487C34.087 30.4823 33.2067 32.1777 29.9904 33.015C27.7186 33.6055 25.4429 34.1686 23.1102 34.5075C21.3902 34.7567 19.7053 34.7432 18.0079 34.349C17.5626 34.246 17.3478 33.8609 16.9442 33.7367L16.9425 33.7352Z" fill="#060606"/>
<path d="M25.7884 23.3336C25.7796 24.0106 25.7179 24.7551 25.3415 25.4296C24.6128 26.7415 23.0787 26.8977 22.1972 25.6862C21.1984 24.3161 20.9445 22.7926 21.6393 21.2038C22.2998 19.6936 23.9964 19.5046 25.0229 20.8007C25.5957 21.5222 25.7767 22.361 25.7884 23.3336Z" fill="white"/>
<path d="M20.4781 17.0832C20.9455 17.0609 21.3791 17.4367 21.415 17.8977C21.4542 18.4 21.1221 18.7598 20.5979 18.7784C20.0828 18.7969 19.6866 18.4688 19.6526 17.9962C19.6189 17.5305 20.004 17.1055 20.4781 17.0832Z" fill="white"/>
<path d="M24.2564 16.6734C24.7049 16.7249 24.9994 16.9791 25.0671 17.4417C25.1321 17.8838 24.6848 18.3626 24.2476 18.3108C23.7922 18.2571 23.4859 17.9802 23.4925 17.4955C23.4995 17.0246 23.7744 16.7464 24.2564 16.6734Z" fill="white"/>
<path d="M23.976 13.8907C23.8344 13.9625 23.6383 14.0082 23.5154 13.9483C23.3396 13.8613 23.0925 13.5495 23.1432 13.358C23.2986 12.7569 23.479 12.2676 23.6958 11.8592C24.104 11.0947 24.5674 10.3457 25.0143 9.62157L25.1203 9.44968C25.2912 9.17233 25.3329 8.99576 25.0991 8.73933C24.729 8.33448 24.424 7.92354 24.1932 7.51639C23.7332 6.71368 23.9928 5.83395 24.8375 5.33075C24.9091 5.28819 24.9806 5.13384 25.005 4.97227C25.0269 4.83057 25.0167 4.68241 25.0066 4.53838C25.004 4.49202 25.0006 4.44815 24.9989 4.40344C24.9444 4.3565 24.8775 4.30547 24.8139 4.25691C24.5968 4.09148 24.4251 3.95897 24.4577 3.81391C24.5386 3.45997 24.7447 3.03838 25.023 2.89716C25.6909 2.56866 26.4758 2.21809 27.2858 2.08269C27.6401 2.02309 28.0193 2.00063 28.3852 1.98072C28.5394 1.9709 28.6927 1.96357 28.846 1.9521C30.3584 1.83746 32.1761 3.10337 32.7373 4.66077C33.5157 6.82493 32.256 8.01317 31.6774 8.42489C31.586 8.4899 31.4856 8.54916 31.3719 8.60682C31.1512 8.71879 30.9115 8.80519 30.6792 8.88989C30.559 8.93433 30.4362 8.97796 30.316 9.02654C30.498 9.36518 30.558 9.66631 30.4876 9.9051C30.4376 10.0734 30.325 10.2073 30.1586 10.2917C29.9807 10.3819 29.7442 10.4169 29.4557 10.3976C28.7302 10.3471 27.9517 10.1702 27.0055 9.84006C26.8108 9.77306 26.674 9.76376 26.5735 9.81473C26.4912 9.85652 26.4204 9.93799 26.3293 10.0982L25.99 10.6869C25.5497 11.4532 25.1078 12.2203 24.6625 12.985L24.5985 13.0962C24.4629 13.3328 24.3225 13.5761 24.1333 13.7757C24.0938 13.8164 24.0395 13.8564 23.9752 13.889L23.976 13.8907ZM27.5304 8.5128C28.1753 9.05383 29.1112 9.2151 29.607 8.98014L27.5304 8.5128ZM26.8685 6.4988C27.0155 6.59831 27.1616 6.70859 27.3019 6.81558C27.6181 7.05508 27.9451 7.30363 28.3023 7.43943C29.1091 7.74703 29.8984 7.99096 30.6676 7.60071C30.7367 7.56562 30.8067 7.52389 30.8734 7.4797C31.6011 6.99443 31.8932 6.31161 31.7218 5.50343C31.5229 4.57034 30.9221 3.84529 29.984 3.40332C28.9939 2.93593 27.9764 3.2056 26.9902 3.46768C26.8864 3.49548 26.7842 3.52245 26.6821 3.54942C26.6771 3.55193 26.6697 3.55362 26.6648 3.55613C26.6137 3.58203 26.529 3.66854 26.4141 3.92989C25.9784 4.92388 26.3724 5.75173 26.8685 6.4988ZM25.3885 6.3152C25.0912 6.85148 25.3556 7.16076 25.6349 7.48737C25.6696 7.52778 25.7034 7.56654 25.7365 7.60779C25.8167 7.70595 26.0435 7.79599 26.0963 7.78581C26.1802 7.71835 26.2633 7.64096 26.3472 7.56108L25.3885 6.3152ZM26.5784 7.32568C26.6261 7.27661 26.8235 7.06455 26.8753 7.01131L26.8283 6.97096L26.5784 7.32568Z" fill="#171717"/>
<path d="M25.0626 2.98031C25.0626 2.98031 25.0659 2.97864 25.0675 2.9778C25.7774 2.63006 26.531 2.30365 27.299 2.17506C27.7942 2.09163 28.3317 2.08417 28.8509 2.04451C30.3699 1.93067 32.1292 3.24903 32.6482 4.69319C33.3072 6.52422 32.4993 7.72776 31.6235 8.35035C31.5305 8.41619 31.4333 8.47378 31.3295 8.52642C30.9705 8.70859 30.5611 8.8231 30.183 8.98383C30.5296 9.56847 30.4975 10.0199 30.1171 10.2129C29.959 10.2931 29.7389 10.3281 29.4627 10.3087C28.6433 10.252 27.8168 10.029 27.0356 9.75603C26.808 9.67676 26.6522 9.675 26.5319 9.736C26.42 9.79282 26.3369 9.90334 26.2498 10.0553C25.6954 11.0183 25.1434 11.9822 24.5848 12.9412C24.4278 13.2094 24.2784 13.4924 24.0695 13.7145C24.0374 13.7494 23.9896 13.7819 23.9369 13.8086C23.8085 13.8738 23.6453 13.9069 23.5587 13.8659C23.4019 13.7879 23.2011 13.5148 23.2354 13.3813C23.3654 12.874 23.535 12.3631 23.7798 11.9033C24.2175 11.0823 24.713 10.2901 25.2027 9.49871C25.3875 9.19977 25.4415 8.97346 25.1713 8.67745C24.8359 8.30888 24.5235 7.90376 24.2762 7.47185C23.8294 6.69143 24.1056 5.87786 24.8886 5.4122C25.0047 5.34294 25.0785 5.13973 25.0996 4.9881C25.1313 4.77515 25.0979 4.55174 25.0926 4.3638C24.896 4.18172 24.5205 3.96403 24.5499 3.83721C24.6218 3.52305 24.8073 3.11398 25.0659 2.98278M30.7088 7.68305C30.7812 7.64628 30.8529 7.60372 30.9261 7.55619C31.6613 7.06508 31.9986 6.35307 31.8131 5.48367C31.5959 4.46869 30.9383 3.74969 30.024 3.31838C28.9011 2.78784 27.77 3.17314 26.6611 3.45814C26.6487 3.46234 26.6364 3.46654 26.6248 3.47239C26.5013 3.53506 26.3979 3.74089 26.3306 3.89107C25.8998 4.87427 26.2279 5.70244 26.8025 6.56507C27.2887 6.89237 27.7355 7.32254 28.2693 7.52625C29.0538 7.8265 29.8944 8.09834 30.7096 7.6847M26.1309 7.87149C26.1309 7.87149 26.1358 7.86898 26.1391 7.86731C26.4568 7.61495 26.7257 7.29822 27.012 7.00378C26.9451 6.94861 26.8782 6.89344 26.8105 6.83662C26.6839 7.01689 26.5557 7.19799 26.3765 7.45054C26.055 7.03139 25.7376 6.6205 25.3789 6.15184C24.8891 6.8894 25.3416 7.27316 25.6647 7.66663C25.7622 7.78708 26.0502 7.91243 26.1309 7.87149ZM29.6655 9.05164C29.7297 9.01905 29.7865 8.97986 29.8359 8.93409C28.9675 8.73856 28.0991 8.54302 27.2306 8.34748C27.8842 9.09134 29.0651 9.35416 29.6646 9.04998M24.9798 2.81509C24.6537 2.98055 24.4453 3.44686 24.3668 3.79334C24.3203 3.99725 24.5233 4.15115 24.757 4.32892C24.8098 4.36842 24.861 4.40876 24.9073 4.44746C24.909 4.47975 24.9123 4.5112 24.914 4.54348C24.9234 4.68172 24.9327 4.8241 24.9141 4.95584C24.8913 5.10416 24.828 5.22535 24.7918 5.24787C23.8993 5.77945 23.6275 6.70892 24.1139 7.56037C24.3489 7.97164 24.6588 8.38836 25.0323 8.79981C25.2124 8.99854 25.2159 9.12107 25.0434 9.39926L24.9374 9.57115C24.4887 10.2961 24.0245 11.0476 23.6156 11.8146C23.3922 12.2346 23.2143 12.7165 23.0548 13.3341C22.991 13.582 23.2654 13.9277 23.4749 14.0327C23.6367 14.1123 23.8599 14.0549 24.0181 13.9747C24.0922 13.9371 24.1564 13.8921 24.2016 13.8422C24.3974 13.6351 24.5411 13.386 24.6791 13.1461L24.7424 13.0373C25.1893 12.2718 25.637 11.4914 26.0707 10.7367L26.4091 10.1506C26.4896 10.0103 26.5521 9.93712 26.6164 9.90453C26.6641 9.88029 26.7556 9.85669 26.9767 9.93516C27.9327 10.2686 28.7178 10.4463 29.4516 10.4967C29.7558 10.5185 30.0088 10.4792 30.2015 10.3814C30.3942 10.2837 30.5208 10.1324 30.5781 9.93754C30.6485 9.69874 30.6026 9.40501 30.4453 9.0828C30.5335 9.04845 30.6249 9.01656 30.7122 8.98469C30.9462 8.89915 31.1892 8.81108 31.4148 8.6966C31.5334 8.63643 31.6363 8.57386 31.731 8.50718C32.3269 8.08461 33.6244 6.86058 32.8236 4.63524C32.2508 3.04229 30.3885 1.74924 28.8398 1.8657C28.6882 1.87634 28.5357 1.88533 28.3832 1.89431C28.014 1.91589 27.6324 1.93753 27.2722 1.99799C26.4507 2.1351 25.6576 2.48985 24.9889 2.8167L24.9823 2.82005L24.9798 2.81509ZM26.9358 6.43114C26.1354 5.21681 26.2527 4.52735 26.4997 3.96481C26.6195 3.69266 26.6944 3.64429 26.7076 3.63761C26.8098 3.61064 26.9119 3.58367 27.0157 3.55586C28.0291 3.28621 28.9881 3.03171 29.9469 3.486C30.8562 3.91568 31.4404 4.62011 31.6343 5.52259C31.7974 6.28942 31.5184 6.94071 30.8261 7.40181C30.7611 7.44516 30.6952 7.48273 30.6277 7.51699C29.8915 7.89053 29.1235 7.65229 28.3365 7.35122C27.9925 7.22116 27.6854 6.98742 27.3593 6.74052C27.2222 6.63599 27.0819 6.529 26.9374 6.4303L26.9358 6.43114ZM26.0621 7.68881C25.9911 7.67092 25.8517 7.60284 25.8054 7.54758C25.7724 7.50633 25.7377 7.46592 25.703 7.4255C25.4501 7.13107 25.2427 6.8861 25.4027 6.48791L25.9829 7.24204L26.2192 7.54897C26.1666 7.59641 26.1156 7.64302 26.0612 7.68716L26.0621 7.68881ZM29.2268 8.98825C28.8526 9.0289 28.4089 8.9142 28.0252 8.71725L29.2268 8.98825Z" fill="white"/>
<path d="M30.7478 7.76844C29.9109 8.1931 29.0454 7.92543 28.2326 7.61444C27.8522 7.4696 27.5144 7.2119 27.1866 6.96576C27.0429 6.85626 26.8942 6.74513 26.7464 6.64394L26.7308 6.63324L26.7225 6.61671C26.1907 5.82318 25.7659 4.93803 26.242 3.85489C26.3553 3.59842 26.4621 3.44883 26.5775 3.39032C26.5956 3.38112 26.6145 3.37358 26.6327 3.36852C26.7349 3.34154 26.8371 3.31457 26.9392 3.28759C27.957 3.01781 29.0094 2.73877 30.0593 3.23419C31.0505 3.70339 31.6862 4.47325 31.8992 5.46374C32.0857 6.33922 31.7574 7.11106 30.9718 7.63405C30.8977 7.68409 30.8228 7.72834 30.747 7.76679L30.7478 7.76844Z" fill="white"/>
<path d="M26.6212 3.47377C26.6327 3.46791 26.6442 3.46206 26.6574 3.45951C27.7667 3.17441 28.898 2.78897 30.0213 3.31967C30.9333 3.75031 31.5936 4.47035 31.8109 5.48567C31.9965 6.35535 31.659 7.0676 30.9237 7.55888C30.8529 7.60725 30.7787 7.64901 30.7063 7.68579C29.8908 8.09958 29.05 7.82765 28.2652 7.5273C27.7313 7.32353 27.2844 6.89323 26.798 6.56582C26.2232 5.70291 25.8951 4.87447 26.326 3.89094C26.3916 3.74154 26.4968 3.53481 26.6203 3.47211M26.5384 3.30849C26.4016 3.37787 26.2807 3.54078 26.1593 3.81799C25.666 4.94511 26.128 5.8922 26.6457 6.67006L26.6656 6.70145L26.6961 6.72118C26.8431 6.82073 26.9893 6.93104 27.1321 7.03889C27.4649 7.2908 27.8076 7.55013 28.1996 7.70155C29.0322 8.01907 29.9192 8.29244 30.789 7.85106C30.8681 7.81094 30.948 7.76419 31.0238 7.71331C31.8431 7.16697 32.1862 6.36276 31.9897 5.44674C31.7716 4.42563 31.1186 3.63348 30.0985 3.152C29.0181 2.64098 27.9501 2.92589 26.9158 3.19989C26.8136 3.22687 26.7114 3.25385 26.6092 3.28083C26.5837 3.28757 26.559 3.29597 26.5342 3.30851L26.5384 3.30849Z" fill="white"/>
<path d="M26.1723 7.9531C26.0355 8.02249 25.702 7.85588 25.5929 7.72468C25.5607 7.68507 25.5268 7.6463 25.4946 7.60669C25.1954 7.25686 24.8243 6.82122 25.3035 6.09917L25.3759 5.99198L26.3771 7.29363L26.7964 6.69942L27.1508 6.99433L27.0817 7.06671C27.0068 7.14409 26.9327 7.22313 26.8578 7.30051C26.6513 7.51932 26.439 7.74727 26.1994 7.93724L26.1912 7.94142L26.1756 7.95143L26.1723 7.9531Z" fill="white"/>
<path d="M25.3789 6.15013C25.7402 6.61978 26.056 7.03165 26.3768 7.4493C26.556 7.19665 26.6827 7.01632 26.8109 6.83515C26.8778 6.89034 26.9447 6.94552 27.0125 7.00236C26.7261 7.29692 26.4588 7.61293 26.1393 7.86622C26.136 7.86789 26.1344 7.86873 26.1311 7.8704C26.0503 7.91137 25.7623 7.78596 25.6648 7.66548C25.3416 7.27186 24.8897 6.88961 25.3789 6.15013ZM25.3684 5.8321L25.2261 6.0473C24.7082 6.82833 25.1223 7.31264 25.4256 7.66659C25.4595 7.70536 25.4909 7.74332 25.5232 7.78293C25.6422 7.92982 26.0162 8.136 26.2155 8.03485L26.232 8.02649L26.255 8.01064C26.5004 7.81568 26.716 7.58606 26.9233 7.36476C26.9957 7.28656 27.0706 7.20918 27.1455 7.1318L27.2862 6.98784L27.1326 6.85851L27.0112 6.75636L26.9327 6.69045L26.7799 6.56277L26.6656 6.72648L26.4822 6.98743L26.377 7.13619L26.3175 7.0586L25.5296 6.03429L25.3733 5.82959L25.3684 5.8321Z" fill="white"/>
<path d="M29.7087 9.13796C29.0845 9.45471 27.8639 9.21192 27.1632 8.4152L26.9756 8.20158L30.0306 8.88969L29.9006 9.00954C29.8454 9.06031 29.782 9.10284 29.7096 9.13961L29.7087 9.13796Z" fill="white"/>
<path d="M27.2329 8.35273C28.1014 8.54829 28.9699 8.74384 29.8384 8.9394C29.7891 8.98518 29.7322 9.02437 29.668 9.05696C29.0684 9.36118 27.8874 9.09833 27.2337 8.35438M26.7187 8.04787L27.0947 8.47676C27.8218 9.30567 29.0969 9.55401 29.7508 9.22221C29.8298 9.18209 29.9023 9.13289 29.9632 9.07713L30.2232 8.83742L29.8785 8.75951L27.273 8.17284L26.717 8.04871L26.7187 8.04787Z" fill="white"/>
</svg>
