<svg xmlns="http://www.w3.org/2000/svg" width="100" height="100" viewBox="0 0 100 100" fill="none">
  <g opacity="0.6">
    <path d="M21.4255 33.6502C23.0519 32.0956 24.597 31.1011 26.2018 30.1336C29.1393 28.362 32.3708 27.2922 35.5746 26.2694C39.4221 25.04 43.4241 24.2648 47.4169 23.5289C50.9304 22.8804 54.4099 22.2796 58.0265 22.224C65.2441 22.1174 68.4173 25.2014 70.8522 31.3278C72.3022 34.9732 73.0356 38.8281 73.7925 42.6619C74.8301 47.9152 75.8929 53.1664 76.9713 58.4132C77.694 61.9299 78.523 65.425 79.1825 68.9469C79.6148 71.2592 79.8597 73.6126 80.126 75.9546C80.3148 77.5961 79.7253 78.8188 78.051 79.3569C76.3582 79.9029 74.6962 80.5808 72.975 81.0205C68.2713 82.2118 63.5754 83.4569 58.8166 84.3842C55.0278 85.1225 51.2673 86.0025 47.4312 86.5656C44.1449 87.0481 40.919 87.7464 37.5535 87.5445C36.6577 87.4905 35.7971 87.3664 34.928 87.2175C33.513 86.9761 32.8335 86.1237 32.1948 84.7945C29.9462 80.137 28.6208 75.157 26.7987 70.3556C26.2841 68.9905 26.0272 67.5146 25.6988 66.0958C24.3623 60.301 22.9228 54.5307 22.0638 48.6292C21.5586 45.1617 21.0156 41.6974 20.7247 38.2058C20.5882 36.544 20.2362 34.7465 21.4278 33.6404L21.4255 33.6502Z" fill="#060606"/>
    <path d="M24.0568 34.8986C25.1956 33.5537 26.8454 32.9536 28.3141 32.1766C31.8262 30.3159 35.6269 29.2055 39.4632 28.1017C43.9885 26.8003 48.6021 26.0674 53.1822 25.1358C55.649 24.6346 58.1968 24.7665 60.7047 25.0584C63.836 25.4204 65.9048 27.38 67.0958 30.1063C68.7465 33.8982 69.8775 37.861 70.7602 41.9307C71.7598 46.5345 72.7444 51.1492 73.694 55.7636C75.0039 62.1236 76.9216 68.3758 77.3718 74.9124C77.4643 76.2547 76.9439 76.7423 75.9805 77.2953C74.3235 78.2479 72.4031 78.2305 70.6379 78.8209C67.2782 79.9525 63.7879 80.7558 60.3024 81.4339C55.0771 82.4476 49.8961 83.6752 44.6111 84.4443C42.201 84.7937 39.8406 85.2381 37.4107 85.0358C36.1635 84.9308 35.3394 84.4967 34.7101 83.0931C32.1626 77.4239 30.1898 71.5953 28.5217 65.6136C27.445 61.7614 26.5153 57.8812 25.7425 53.9751C24.6533 48.4606 23.5975 42.9273 23.3443 37.2926C23.2957 36.2324 23.533 35.4323 24.0562 34.8922L24.0568 34.8986Z" fill="white"/>
    <path d="M35.8094 70.4422C33.6019 68.3179 32.5256 65.5947 31.673 62.7731C30.7299 59.6455 29.7649 56.5228 28.993 53.3522C27.9131 48.921 26.7396 44.44 26.9489 39.8671C27.0742 37.1279 29.0416 35.2155 31.5022 34.0269C34.4879 32.5839 37.6157 31.4906 40.813 30.6091C44.4799 29.6025 48.1248 28.4537 51.9528 28.1952C54.2845 28.0378 56.6072 27.7788 58.9419 28.4882C61.9698 29.409 63.867 31.3701 65.1997 34.1873C67.0792 38.1558 67.7989 42.4344 68.6525 46.6443C69.4103 50.3791 69.9938 54.2307 69.8307 58.0608C69.5759 64.0354 67.8421 67.3745 61.5074 69.0238C57.0332 70.1867 52.5511 71.2958 47.9569 71.9631C44.5693 72.454 41.2508 72.4274 37.9078 71.6509C37.0307 71.4482 36.6077 70.6898 35.8128 70.4451L35.8094 70.4422Z" fill="#060606"/>
    <path d="M53.2314 49.956C53.2139 51.2894 53.0924 52.7558 52.3512 54.0842C50.916 56.6678 47.8946 56.9756 46.1583 54.5894C44.1912 51.8911 43.6911 48.8906 45.0597 45.7613C46.3604 42.7869 49.7019 42.4146 51.7236 44.9674C52.8518 46.3885 53.2083 48.0404 53.2314 49.956Z" fill="white"/>
    <path d="M42.7726 37.6457C43.6931 37.6019 44.5471 38.3419 44.6179 39.2499C44.6951 40.2392 44.041 40.9477 43.0085 40.9845C41.994 41.0209 41.2137 40.3746 41.1468 39.4439C41.0803 38.5268 41.8388 37.6897 42.7726 37.6457Z" fill="white"/>
    <path d="M50.2142 36.8385C51.0977 36.9401 51.6775 37.4407 51.811 38.3519C51.939 39.2224 51.058 40.1655 50.1969 40.0635C49.3 39.9576 48.6967 39.4123 48.7098 38.4577C48.7235 37.5303 49.265 36.9823 50.2142 36.8385Z" fill="white"/>
    <path d="M49.6615 31.3579C49.3826 31.4994 48.9964 31.5893 48.7542 31.4714C48.4081 31.3001 47.9214 30.6859 48.0213 30.3087C48.3274 29.125 48.6826 28.1612 49.1096 27.3568C49.9135 25.8511 50.8261 24.3759 51.7065 22.9498L51.9152 22.6113C52.2518 22.065 52.3339 21.7173 51.8734 21.2122C51.1445 20.4149 50.5438 19.6055 50.0892 18.8036C49.1833 17.2227 49.6945 15.49 51.3582 14.4989C51.4993 14.4151 51.6399 14.1111 51.688 13.7929C51.7313 13.5138 51.7112 13.222 51.6912 12.9384C51.6861 12.8471 51.6794 12.7607 51.676 12.6726C51.5687 12.5801 51.437 12.4796 51.3118 12.384C50.8841 12.0582 50.5459 11.7972 50.6103 11.5115C50.7696 10.8144 51.1754 9.98409 51.7236 9.70595C53.039 9.05896 54.5848 8.36851 56.1802 8.10183C56.878 7.98445 57.6248 7.94022 58.3455 7.90101C58.6491 7.88167 58.951 7.86723 59.253 7.84463C62.2317 7.61885 65.8117 10.1121 66.917 13.1794C68.4501 17.4418 65.9692 19.782 64.8295 20.5929C64.6495 20.721 64.4517 20.8377 64.2279 20.9512C63.7932 21.1718 63.3211 21.3419 62.8636 21.5087C62.6268 21.5963 62.385 21.6822 62.1482 21.7779C62.5067 22.4448 62.6248 23.0379 62.4861 23.5082C62.3878 23.8397 62.1659 24.1033 61.8382 24.2696C61.4879 24.4473 61.0221 24.5163 60.4538 24.4782C59.0249 24.3788 57.4916 24.0304 55.6281 23.3801C55.2447 23.2482 54.9752 23.2299 54.7773 23.3302C54.6151 23.4125 54.4758 23.573 54.2962 23.8886L53.6281 25.0479C52.7609 26.5572 51.8905 28.068 51.0136 29.5741L50.8874 29.7932C50.6205 30.2592 50.3438 30.7383 49.9712 31.1314C49.8934 31.2117 49.7864 31.2905 49.6599 31.3547L49.6615 31.3579ZM56.6619 20.7661C57.932 21.8316 59.7754 22.1493 60.7518 21.6865L56.6619 20.7661ZM55.3583 16.7994C55.6477 16.9954 55.9355 17.2126 56.2119 17.4234C56.8347 17.895 57.4786 18.3846 58.1821 18.652C59.7711 19.2579 61.3258 19.7383 62.8406 18.9697C62.9769 18.9006 63.1147 18.8184 63.246 18.7314C64.6793 17.7756 65.2546 16.4308 64.9169 14.839C64.5252 13.0013 63.342 11.5733 61.4943 10.7028C59.5442 9.78231 57.5403 10.3134 55.5979 10.8296C55.3935 10.8844 55.1923 10.9375 54.9911 10.9906C54.9814 10.9955 54.9667 10.9989 54.957 11.0038C54.8565 11.0548 54.6896 11.2252 54.4633 11.7399C53.6052 13.6976 54.3813 15.3281 55.3583 16.7994ZM52.4434 16.4378C51.8578 17.4941 52.3786 18.1032 52.9286 18.7465C52.997 18.826 53.0637 18.9024 53.1288 18.9836C53.2867 19.177 53.7335 19.3543 53.8373 19.3342C54.0027 19.2014 54.1663 19.049 54.3316 18.8916L52.4434 16.4378ZM54.7869 18.428C54.8809 18.3314 55.2697 17.9137 55.3717 17.8089L55.279 17.7294L54.7869 18.428Z" fill="#171717"/>
    <path d="M51.8021 9.87017C51.8021 9.87017 51.8086 9.86688 51.8118 9.86523C53.2099 9.18035 54.6942 8.53747 56.2068 8.28422C57.1822 8.11989 58.2407 8.1052 59.2634 8.02709C62.2551 7.80288 65.72 10.3994 66.7421 13.2437C68.04 16.85 66.4489 19.2204 64.724 20.4466C64.5408 20.5762 64.3494 20.6897 64.145 20.7933C63.4379 21.1521 62.6315 21.3777 61.8869 21.6942C62.5695 22.8457 62.5064 23.7348 61.7571 24.1149C61.4457 24.2729 61.0123 24.3418 60.4683 24.3036C58.8543 24.192 57.2267 23.7527 55.6881 23.2151C55.2397 23.059 54.9329 23.0555 54.6961 23.1756C54.4755 23.2876 54.312 23.5052 54.1405 23.8044C53.0484 25.7012 51.9612 27.5996 50.861 29.4883C50.552 30.0165 50.2577 30.574 49.8462 31.0113C49.783 31.0801 49.689 31.1441 49.5852 31.1968C49.3322 31.3252 49.0108 31.3902 48.8402 31.3095C48.5314 31.156 48.1358 30.618 48.2035 30.3551C48.4596 29.3559 48.7936 28.3498 49.2756 27.4441C50.1377 25.8272 51.1135 24.2669 52.078 22.7083C52.4421 22.1195 52.5484 21.6738 52.0163 21.0908C51.3557 20.3649 50.7404 19.567 50.2532 18.7163C49.3734 17.1793 49.9173 15.5769 51.4595 14.6598C51.6881 14.5234 51.8334 14.1232 51.875 13.8246C51.9375 13.4051 51.8717 12.9651 51.8612 12.595C51.4741 12.2364 50.7345 11.8076 50.7924 11.5578C50.9341 10.9391 51.2993 10.1334 51.8086 9.87503M62.9224 19.1323C63.0652 19.0599 63.2062 18.9761 63.3505 18.8824C64.7984 17.9152 65.4628 16.5129 65.0973 14.8006C64.6696 12.8016 63.3744 11.3855 61.5738 10.536C59.3621 9.4911 57.1345 10.2499 54.9504 10.8113C54.9261 10.8195 54.9017 10.8278 54.879 10.8393C54.6357 10.9628 54.432 11.3681 54.2995 11.6639C53.451 13.6004 54.0972 15.2315 55.229 16.9304C56.1865 17.5751 57.0666 18.4223 58.1178 18.8235C59.663 19.4148 61.3184 19.9502 62.9241 19.1356M53.9061 19.5034C53.9061 19.5034 53.9159 19.4985 53.9224 19.4952C54.548 18.9982 55.0777 18.3744 55.6415 17.7945C55.5098 17.6858 55.378 17.5772 55.2447 17.4653C54.9954 17.8203 54.7428 18.177 54.3899 18.6744C53.7567 17.8488 53.1316 17.0396 52.4251 16.1166C51.4605 17.5692 52.3517 18.325 52.988 19.1C53.1801 19.3372 53.7472 19.5841 53.9061 19.5034ZM60.8676 21.8278C60.9941 21.7636 61.106 21.6864 61.2032 21.5963C59.4929 21.2111 57.7825 20.826 56.0722 20.4409C57.3593 21.906 59.6853 22.4236 60.866 21.8245M51.6391 9.54476C50.9968 9.87064 50.5863 10.7891 50.4318 11.4714C50.3401 11.873 50.7401 12.1762 51.2003 12.5263C51.3043 12.6041 51.4051 12.6835 51.4962 12.7598C51.4996 12.8233 51.5062 12.8853 51.5096 12.9489C51.528 13.2211 51.5464 13.5015 51.5096 13.761C51.4647 14.0531 51.3402 14.2918 51.2689 14.3362C49.5111 15.3831 48.9758 17.2137 49.9338 18.8907C50.3965 19.7007 51.007 20.5214 51.7424 21.3318C52.0971 21.7232 52.1041 21.9645 51.7643 22.5124L51.5555 22.851C50.672 24.2787 49.7577 25.7589 48.9522 27.2695C48.5123 28.0967 48.1619 29.0458 47.8477 30.2622C47.7221 30.7504 48.2625 31.4312 48.6753 31.638C48.9938 31.7948 49.4335 31.6818 49.7449 31.5238C49.8909 31.4498 50.0174 31.3611 50.1064 31.2629C50.492 30.855 50.7752 30.3645 51.047 29.8919L51.1715 29.6777C52.0517 28.17 52.9334 26.633 53.7876 25.1466L54.4542 23.9922C54.6127 23.7158 54.7358 23.5717 54.8623 23.5076C54.9564 23.4598 55.1365 23.4133 55.5719 23.5679C57.4549 24.2245 59.0012 24.5745 60.4464 24.6738C61.0455 24.7167 61.5438 24.6394 61.9233 24.4469C62.3028 24.2543 62.5523 23.9563 62.6651 23.5726C62.8038 23.1023 62.7133 22.5237 62.4036 21.8892C62.5772 21.8215 62.7573 21.7587 62.9292 21.6959C63.39 21.5274 63.8686 21.354 64.3129 21.1285C64.5465 21.01 64.7492 20.8868 64.9356 20.7554C66.1094 19.9232 68.6648 17.5124 67.0877 13.1296C65.9595 9.99223 62.2917 7.44556 59.2415 7.67493C58.9429 7.69588 58.6425 7.71358 58.3422 7.73128C57.615 7.77378 56.8634 7.8164 56.1541 7.93547C54.536 8.20551 52.974 8.9042 51.657 9.54794L51.644 9.55453L51.6391 9.54476ZM55.4915 16.6666C53.9151 14.275 54.1461 12.9171 54.6326 11.8092C54.8685 11.2732 55.0161 11.1779 55.042 11.1647C55.2432 11.1116 55.4444 11.0585 55.6489 11.0037C57.6448 10.4726 59.5335 9.9714 61.4219 10.8661C63.2127 11.7124 64.3633 13.0998 64.7452 14.8772C65.0664 16.3875 64.517 17.6702 63.1535 18.5784C63.0254 18.6638 62.8957 18.7378 62.7627 18.8053C61.3127 19.5409 59.8003 19.0717 58.2502 18.4788C57.5727 18.2226 56.9678 17.7622 56.3256 17.276C56.0556 17.0701 55.7792 16.8594 55.4947 16.665L55.4915 16.6666ZM53.7707 19.1437C53.631 19.1084 53.3563 18.9743 53.2652 18.8655C53.2001 18.7843 53.1317 18.7047 53.0634 18.6251C52.5654 18.0452 52.1569 17.5627 52.4719 16.7785L53.6146 18.2637L54.0802 18.8682C53.9765 18.9617 53.876 19.0535 53.769 19.1404L53.7707 19.1437ZM60.0036 21.7029C59.2667 21.783 58.3928 21.5571 57.6371 21.1692L60.0036 21.7029Z" fill="white"/>
    <path d="M62.9988 19.3C61.3505 20.1364 59.6459 19.6092 58.045 18.9967C57.2958 18.7114 56.6306 18.2039 55.9849 17.7191C55.7019 17.5035 55.4091 17.2846 55.118 17.0853L55.0871 17.0642L55.0708 17.0317C54.0234 15.4688 53.1868 13.7255 54.1245 11.5922C54.3476 11.0871 54.5581 10.7925 54.7852 10.6772C54.8209 10.6591 54.8582 10.6442 54.8939 10.6343C55.0952 10.5812 55.2965 10.528 55.4977 10.4749C57.5023 9.94356 59.575 9.39398 61.6427 10.3697C63.595 11.2938 64.8469 12.8101 65.2666 14.7609C65.6338 16.4851 64.9873 18.0053 63.44 19.0353C63.2941 19.1339 63.1465 19.221 62.9972 19.2968L62.9988 19.3Z" fill="white"/>
    <path d="M54.8716 10.8416C54.8943 10.8301 54.917 10.8186 54.943 10.8136C57.1278 10.252 59.356 9.49291 61.5683 10.5381C63.3646 11.3863 64.665 12.8044 65.0929 14.8041C65.4584 16.517 64.7938 17.9198 63.3455 18.8873C63.206 18.9826 63.0601 19.0648 62.9173 19.1373C61.3112 19.9523 59.6552 19.4167 58.1096 18.8252C57.0581 18.4238 56.1778 17.5763 55.22 16.9315C54.0879 15.232 53.4415 13.6003 54.2902 11.6633C54.4196 11.369 54.6266 10.9619 54.87 10.8384M54.7085 10.5161C54.4392 10.6528 54.2012 10.9736 53.9619 11.5196C52.9903 13.7395 53.9003 15.6048 54.92 17.1368L54.9591 17.1986L55.0192 17.2375C55.3087 17.4335 55.5966 17.6508 55.878 17.8632C56.5334 18.3594 57.2084 18.8701 57.9804 19.1683C59.6203 19.7937 61.3672 20.3321 63.0803 19.4628C63.2361 19.3838 63.3934 19.2917 63.5426 19.1915C65.1563 18.1155 65.832 16.5316 65.4451 14.7274C65.0156 12.7163 63.7295 11.1562 61.7203 10.2079C59.5925 9.20144 57.4889 9.76258 55.4519 10.3022C55.2506 10.3554 55.0494 10.4085 54.8481 10.4616C54.7978 10.4749 54.7491 10.4915 54.7004 10.5161L54.7085 10.5161Z" fill="white"/>
    <path d="M53.9871 19.6637C53.7178 19.8004 53.061 19.4723 52.8461 19.2139C52.7826 19.1358 52.7159 19.0595 52.6524 18.9815C52.0631 18.2925 51.3321 17.4345 52.2761 16.0124L52.4186 15.8013L54.3905 18.3649L55.2164 17.1946L55.9143 17.7754L55.7782 17.918C55.6307 18.0704 55.4848 18.226 55.3373 18.3784C54.9306 18.8094 54.5125 19.2583 54.0406 19.6325L54.0244 19.6407L53.9936 19.6604L53.9871 19.6637Z" fill="white"/>
    <path d="M52.424 16.1126C53.1356 17.0376 53.7576 17.8488 54.3894 18.6714C54.7424 18.1738 54.9918 17.8186 55.2444 17.4618C55.3762 17.5705 55.508 17.6792 55.6414 17.7911C55.0774 18.3713 54.5508 18.9936 53.9217 19.4925C53.9152 19.4958 53.9119 19.4974 53.9054 19.5007C53.7464 19.5814 53.1792 19.3344 52.9871 19.0971C52.3505 18.3219 51.4606 17.5691 52.424 16.1126ZM52.4033 15.4863L52.1231 15.9101C51.1031 17.4484 51.9187 18.4022 52.5161 19.0993C52.5828 19.1757 52.6447 19.2504 52.7082 19.3285C52.9426 19.6178 53.6791 20.0238 54.0718 19.8246L54.1042 19.8082L54.1496 19.7769C54.6328 19.393 55.0574 18.9407 55.4658 18.5049C55.6084 18.3509 55.7559 18.1984 55.9034 18.046L56.1805 17.7625L55.8779 17.5078L55.6388 17.3066L55.4842 17.1768L55.1833 16.9253L54.9582 17.2478L54.597 17.7617L54.3898 18.0547L54.2725 17.9019L52.7207 15.8845L52.413 15.4813L52.4033 15.4863Z" fill="white"/>
    <path d="M60.9525 21.9973C59.723 22.6211 57.319 22.143 55.939 20.5738L55.5696 20.1531L61.5864 21.5083L61.3303 21.7444C61.2218 21.8443 61.0969 21.9281 60.9542 22.0005L60.9525 21.9973Z" fill="white"/>
    <path d="M56.0764 20.4509C57.7869 20.8361 59.4975 21.2213 61.208 21.6064C61.1107 21.6966 60.9989 21.7738 60.8723 21.838C59.6915 22.4371 57.3653 21.9194 56.078 20.4542M55.0636 19.8505L55.8041 20.6952C57.2362 22.3278 59.7475 22.8169 61.0354 22.1634C61.1911 22.0844 61.3338 21.9875 61.4537 21.8777L61.9658 21.4056L61.2868 21.2521L56.1552 20.0966L55.0604 19.8522L55.0636 19.8505Z" fill="white"/>
  </g>
</svg>