<svg width="16" height="16" viewBox="0 0 16 16" fill="none" xmlns="http://www.w3.org/2000/svg">
<path d="M8.24265 1.05551C8.3814 1.03934 8.52016 1.01446 8.66011 1.00824C9.22114 0.984596 9.61929 1.27948 9.91248 1.73362C11.0116 3.43447 12.001 5.19504 12.7056 7.11488C12.9915 7.89376 13.3474 8.64403 13.6322 9.42415C13.7963 9.87207 13.9133 10.3461 13.9881 10.8189C14.0545 11.2482 13.8373 11.5879 13.4645 11.7832C13.0844 11.9823 12.6851 12.1378 12.3014 12.3294C11.5256 12.7176 10.7727 13.163 9.97642 13.499C9.01242 13.9058 8.01462 14.2306 7.02769 14.579C6.381 14.8067 5.92252 14.4147 5.63416 13.9382C4.95851 12.8221 4.33474 11.6687 3.74958 10.4992C3.27059 9.54236 2.88571 8.53454 2.4393 7.55907C2.29452 7.24303 2.04236 6.97552 1.91688 6.65451C1.75641 6.24019 1.67919 5.79102 1.55734 5.36052C1.44634 4.96859 1.55975 4.62519 1.83363 4.38008C2.3657 3.90229 2.9195 3.44566 3.48897 3.01516C3.84007 2.75014 4.24184 2.55854 4.61103 2.3184C5.66432 1.6291 6.82741 1.26206 8.04599 1.05303C8.10994 1.04183 8.1763 1.04183 8.24265 1.03685C8.24265 1.04307 8.24386 1.05054 8.24507 1.05676L8.24265 1.05551ZM4.6412 11.3614C4.72807 11.4037 4.79925 11.4149 4.82217 11.4535C5.17086 12.0644 5.52678 12.6716 5.85496 13.2949C6.23018 14.0079 6.50044 14.1435 7.25934 13.9071C7.68766 13.774 8.12562 13.652 8.53101 13.4604C10.0609 12.7363 11.5775 11.9823 13.1037 11.2507C13.339 11.1374 13.4198 10.9682 13.3583 10.7405C13.2159 10.2105 13.0953 9.66802 12.8865 9.1666C12.2941 7.73948 11.7078 6.30738 11.0321 4.92256C10.5447 3.9222 9.92454 2.99028 9.35386 2.03347C9.16564 1.71744 8.88332 1.62164 8.51412 1.64154C7.75643 1.6826 7.04096 1.89412 6.33636 2.15043C5.87547 2.3184 5.42061 2.50877 4.98506 2.73521C4.69911 2.88452 4.45298 3.11346 4.19237 3.31129C3.57946 3.77538 2.95328 4.2233 2.36812 4.72224C2.22575 4.84417 2.14612 5.14652 2.17145 5.34933C2.21127 5.66287 2.35485 5.96522 2.47429 6.26383C2.66854 6.75032 2.87727 7.23183 3.08358 7.7121C3.33454 8.2944 3.59153 8.87421 3.84369 9.4565C4.1236 10.1023 4.56277 10.6808 4.6424 11.3626L4.6412 11.3614Z" fill="black"/>
<path d="M4.64114 11.3615C4.5603 10.6809 4.12234 10.1023 3.84243 9.4553C3.59026 8.87301 3.33327 8.2932 3.08232 7.71091C2.8748 7.22939 2.66728 6.74912 2.47303 6.26263C2.35358 5.96402 2.21001 5.66167 2.17019 5.34813C2.14485 5.14656 2.22449 4.84297 2.36685 4.72104C2.95202 4.22211 3.5782 3.77419 4.19111 3.31009C4.45172 3.11226 4.69905 2.88332 4.98379 2.73402C5.41935 2.50757 5.8742 2.31596 6.33509 2.14923C7.0397 1.89292 7.75396 1.68016 8.51286 1.64035C8.88205 1.62044 9.16438 1.71749 9.3526 2.03227C9.92328 2.98908 10.5434 3.921 11.0309 4.92136C11.7065 6.30618 12.2929 7.73828 12.8853 9.1654C13.094 9.66807 13.2159 10.2105 13.357 10.7393C13.4186 10.967 13.3365 11.1375 13.1025 11.2495C11.5762 11.9811 10.0596 12.7351 8.52975 13.4592C8.12436 13.6508 7.68639 13.7715 7.25808 13.9059C6.49918 14.1423 6.22892 14.0079 5.85369 13.2937C5.52552 12.6704 5.1708 12.0632 4.82091 11.4523C4.79799 11.4125 4.72801 11.4025 4.63993 11.3602L4.64114 11.3615ZM6.28321 10.911C6.49435 10.87 6.71635 10.8588 6.91543 10.7829C7.39562 10.5987 7.86737 10.391 8.33912 10.1819C9.22229 9.79 10.1127 9.41549 10.9778 8.98623C11.5786 8.68762 11.7306 8.33053 11.5002 7.68104C11.1515 6.70059 10.7618 5.73384 10.3299 4.78947C10.0669 4.21464 9.70731 3.68336 9.35742 3.15581C9.15955 2.85719 8.88809 2.5872 8.49235 2.6407C8.04835 2.70042 7.5959 2.76014 7.17483 2.90696C5.89351 3.35239 4.62546 3.83515 3.51908 4.67625C3.04733 5.03458 2.90134 5.41656 3.12575 5.98766C3.42376 6.74539 3.74832 7.49192 4.04391 8.2509C4.36244 9.06462 4.80281 9.79746 5.36505 10.4532C5.60756 10.7356 5.88023 10.9446 6.28321 10.9098V10.911Z" fill="white"/>
<path d="M6.28329 10.9111C5.87911 10.9447 5.60643 10.7369 5.36513 10.4544C4.80289 9.79748 4.36251 9.06588 4.04399 8.25216C3.74719 7.49443 3.42384 6.74665 3.12583 5.98892C2.90142 5.41782 3.04741 5.03709 3.51916 4.67751C4.62554 3.83517 5.89358 3.35366 7.17491 2.90823C7.59598 2.76141 8.04963 2.70168 8.49242 2.64196C8.88816 2.58846 9.15963 2.85846 9.3575 3.15707C9.70739 3.68462 10.0669 4.2159 10.33 4.79073C10.7619 5.73385 11.1516 6.70186 11.5003 7.68231C11.7307 8.33179 11.5787 8.68888 10.9779 8.98749C10.1128 9.41675 9.22116 9.79126 8.3392 10.1832C7.86866 10.3922 7.39691 10.6 6.91551 10.7841C6.71643 10.86 6.49443 10.8712 6.28329 10.9123V10.9111Z" fill="black"/>
</svg>
