<svg width="16" height="16" viewBox="0 0 16 16" fill="none" xmlns="http://www.w3.org/2000/svg">
<path d="M5.1141 11.7174C5.15693 11.8409 5.60499 11.5215 5.60499 11.5215C6.00678 10.9396 7.81648 11.4423 8.94871 11.3851C9.16644 11.3756 9.45192 11.6997 9.7066 11.8721C9.56966 12.1421 9.49547 12.5296 9.28041 12.6562C8.99444 12.8245 8.60597 12.8169 8.25109 12.8373C7.34326 12.893 6.43542 12.9486 5.51903 12.9455C5.2825 12.9456 4.84965 12.7819 4.78733 12.6123C4.68567 12.3323 4.81139 11.9863 4.84218 11.668C4.93234 11.6834 5.02625 11.7008 5.11641 11.7162L5.1141 11.7174Z" fill="black"/>
<path d="M12.2926 4.84843C12.3934 5.03265 12.5736 5.23381 12.5767 5.39881C12.5883 5.79281 12.5167 6.168 12.4792 6.54884C12.1914 6.42573 11.789 6.39525 11.6338 6.16344C10.8992 5.08413 10.2044 3.96334 9.56722 2.81458C9.44815 2.59853 9.6167 1.9062 9.73223 1.90935C10.047 1.91202 10.5136 2.06306 10.7256 2.34134C11.312 3.11514 11.7987 3.98908 12.3251 4.82154L12.2926 4.84843Z" fill="black"/>
<path d="M6.64829 6.10351C6.84048 6.14718 7.0412 6.1497 7.22315 6.24274C8.00904 6.63479 8.78443 7.08744 9.57339 7.44471C10.135 7.69765 10.2925 8.19848 10.1644 8.61586C10.0964 8.8339 9.57827 8.94096 9.29404 8.83094C8.54226 8.54445 7.79679 8.14758 7.06798 7.72043C6.818 7.5753 6.54783 7.24754 6.43285 6.95181C6.32487 6.68227 6.41308 6.34715 6.41618 6.04222L6.64683 6.10052L6.64829 6.10351Z" fill="black"/>
</svg>
