<svg width="48" height="48" viewBox="0 0 48 48" fill="none" xmlns="http://www.w3.org/2000/svg">
<path d="M25.7785 41.6916C25.5907 41.6916 25.4029 41.6916 25.2151 41.687C24.6672 41.6779 24.1192 41.6757 23.5712 41.6757C22.968 41.6757 22.3649 41.6779 21.7617 41.6825C21.1562 41.6847 20.5508 41.6893 19.9454 41.6893C18.6706 41.6893 16.9913 41.6757 15.3187 41.5689C15.2171 41.5621 15.1155 41.553 15.0116 41.544C14.9299 41.5372 14.8503 41.5303 14.7686 41.5235C11.3792 41.2874 10.8378 40.7787 10.3252 37.3454C9.18955 29.7429 9.13873 21.5569 10.1662 12.3196C10.4512 9.76952 11.662 8.35485 14.0924 7.73266C17.252 6.92428 20.4823 6.5973 23.2266 6.38157C23.4298 6.36568 24.5103 6.30664 26.0724 6.30664C28.9271 6.30664 32.8269 6.50419 35.1778 7.44201C36.7532 8.06873 37.7011 9.41528 38.0811 11.5566C38.7439 15.3033 38.5782 19.0886 38.4191 22.7513L38.4147 22.8626C38.333 24.7291 38.3109 26.6366 38.291 28.4827C38.2578 31.4437 38.2247 34.5047 37.9397 37.5248C37.911 37.8381 37.8668 38.1333 37.8182 38.4626C37.5199 40.4404 36.751 41.1625 34.8839 41.2283C33.651 41.2715 32.3938 41.36 31.1786 41.444C29.4154 41.5667 27.5925 41.6938 25.7785 41.6938V41.6916Z" fill="#FAFAFA"/>
<path d="M26.0744 7.10368C28.7391 7.10368 32.6411 7.28307 34.8992 8.18455C36.3951 8.78175 37.0424 10.126 37.3208 11.6997C37.9749 15.3941 37.8047 19.1136 37.6412 22.8285C37.4269 27.6993 37.628 32.5859 37.1706 37.4476C37.1419 37.745 37.0977 38.0425 37.0535 38.34C36.8193 39.8977 36.384 40.3791 34.855 40.4336C31.8258 40.5403 28.812 40.8968 25.7762 40.8968C25.5928 40.8968 25.4072 40.8968 25.2238 40.8923C24.6736 40.8832 24.1212 40.8809 23.5711 40.8809C22.3625 40.8809 21.1517 40.8945 19.9431 40.8945C18.4163 40.8945 16.8895 40.8718 15.365 40.7742C15.1838 40.7628 15.0004 40.7424 14.8192 40.731C11.7745 40.5199 11.5469 40.3019 11.0873 37.225C9.85223 28.9595 10.0091 20.6963 10.9327 12.4104C11.1824 10.1646 12.1612 9.04516 14.2779 8.50472C17.2497 7.74403 20.2524 7.4125 23.2838 7.17634C23.5291 7.15817 24.6162 7.10368 26.0722 7.10368M24.1676 8.809C24.2869 8.76813 24.4063 8.7318 24.5256 8.69319C24.4107 8.70001 24.298 8.70455 24.1831 8.71136C24.1787 8.74315 24.1743 8.77494 24.1676 8.809ZM26.0744 5.51416C24.6294 5.51416 23.4915 5.56639 23.1689 5.59137C20.3938 5.80709 17.1237 6.14088 13.9067 6.96289C11.1536 7.66682 9.72187 9.34035 9.39928 12.231C8.36302 21.541 8.41605 29.7952 9.56057 37.468C9.81909 39.196 10.0555 40.3927 10.9415 41.2261C11.8275 42.0594 13.0118 42.2002 14.7154 42.3183C14.7927 42.3228 14.8678 42.3296 14.9451 42.3365C15.0534 42.3455 15.1617 42.3546 15.2699 42.3614C16.9646 42.4704 18.6593 42.4841 19.9453 42.4841C20.5529 42.4841 21.1605 42.4795 21.7681 42.4772C22.3691 42.475 22.9723 42.4704 23.5733 42.4704C24.1743 42.4704 24.7134 42.475 25.2039 42.4818C25.3961 42.4841 25.5861 42.4863 25.7784 42.4863C27.6189 42.4863 29.4528 42.3592 31.2292 42.2365C32.44 42.1525 33.6906 42.0662 34.9125 42.0231C37.164 41.9436 38.229 40.9468 38.5847 38.5852C38.6333 38.2582 38.6797 37.938 38.7128 37.602C39.0001 34.5501 39.0354 31.471 39.0686 28.4918C39.0885 26.6547 39.1105 24.7541 39.1901 22.8989L39.1945 22.7877C39.358 19.0818 39.5259 15.2488 38.8454 11.4135C38.419 9.01337 37.2811 7.42612 35.4604 6.70176C32.9968 5.7208 28.9976 5.51416 26.0744 5.51416Z" fill="black"/>
<path d="M24.1677 8.80862C24.2959 8.18871 23.9932 8.0502 23.3347 8.10242C20.4624 8.32723 17.6209 8.64059 14.806 9.36041C12.802 9.8736 11.8762 10.934 11.6398 13.0594C10.7648 20.9048 10.6168 28.7321 11.7856 36.5571C12.2209 39.4704 12.4352 39.6748 15.3186 39.8769C15.491 39.8882 15.6633 39.9064 15.8357 39.9177C18.9466 40.1176 22.0598 39.9813 25.1708 40.029C28.2244 40.0744 31.2492 39.702 34.2917 39.593C35.7389 39.5408 36.1499 39.0867 36.373 37.6107C36.415 37.3291 36.457 37.0475 36.4835 36.766C36.9188 32.1609 36.7288 27.5354 36.9298 22.9235C37.0845 19.4084 37.2458 15.8842 36.6271 12.3873C36.362 10.8977 35.75 9.62382 34.3337 9.0584C31.026 7.7391 27.6698 7.60286 24.1699 8.81089L24.1677 8.80862Z" fill="#080808"/>
<path d="M34.8989 8.18458C36.3948 8.78179 37.0421 10.1261 37.3205 11.6997C37.9746 15.3942 37.8044 19.1136 37.6409 22.8286C37.4266 27.6993 37.6277 32.5859 37.1703 37.4476C37.1416 37.7451 37.0974 38.0425 37.0532 38.34C36.819 39.8977 36.3837 40.3791 34.8547 40.4336C31.6421 40.5471 28.4471 40.9423 25.2235 40.8946C21.9379 40.8446 18.648 40.9877 15.3646 40.7765C15.1835 40.7651 15.0001 40.7447 14.8189 40.7334C11.7742 40.5222 11.5466 40.3042 11.087 37.2273C9.85192 28.9641 10.0088 20.6986 10.9324 12.4127C11.182 10.1669 12.1609 9.04746 14.2776 8.50703C17.2494 7.74633 20.2521 7.4148 23.2835 7.17865C23.9795 7.12415 31.4035 6.79262 34.8967 8.18685L34.8989 8.18458ZM16.9069 9.66738C14.1406 10.1124 12.7596 11.7973 12.4503 14.5994C11.9554 19.066 12.1609 23.5189 12.5166 27.9741C12.6447 29.5863 13.0425 31.11 14.3063 32.1976C15.4133 33.1514 16.8163 33.4079 18.1796 33.6214C21.8893 34.2027 25.6146 33.9348 29.3287 33.6259C32.0995 33.3943 33.803 31.7844 34.6183 29.114C36.0567 24.4067 36.2114 19.5633 35.6855 14.7334C35.2569 10.8005 33.5909 9.39489 29.753 8.87489C25.4113 8.2845 21.1514 8.9362 16.9069 9.66738Z" fill="#FAFAFA"/>
<path d="M23.1867 17.1334C21.5075 17.5285 20.1464 19.0226 19.9498 20.6507C19.8857 21.1821 19.9299 21.6567 20.5154 21.7816C21.0965 21.9065 21.3661 21.5023 21.481 20.9845C21.7616 19.7197 22.4951 18.8955 23.7413 18.6684C25.0493 18.4277 25.9861 19.0862 26.7109 20.1444C26.9981 20.5645 27.2831 20.9891 27.6013 21.3819C27.8333 21.668 28.1382 21.7816 28.4917 21.5636C28.8541 21.3388 28.98 21.0413 28.8563 20.6099C28.1581 18.1825 25.5465 16.577 23.1867 17.1334Z" fill="#FCFCFC"/>
<path d="M23.2532 14.0274C23.0742 14.5337 22.7273 14.6563 22.2965 14.5156C21.8634 14.3725 21.6447 14.0432 21.806 13.5755C21.9562 13.1327 22.2965 12.9329 22.7406 13.0895C23.1759 13.2439 23.3173 13.605 23.2532 14.0274Z" fill="#FCFCFC"/>
<path d="M26.8479 14.1587C26.669 14.6651 26.3221 14.7877 25.8912 14.6469C25.4582 14.5039 25.2394 14.1746 25.4007 13.7068C25.5509 13.264 25.8912 13.0642 26.3353 13.2209C26.7706 13.3753 26.912 13.7363 26.8479 14.1587Z" fill="#FCFCFC"/>
<path d="M27.8465 15.0738C27.8929 15.2078 27.9393 15.3395 27.9835 15.4734C28.0785 15.7527 28.1758 16.032 28.3105 16.2932C28.4586 16.5816 28.6707 16.8563 28.9513 16.9562C29.2187 17.0516 29.5125 16.9676 29.7158 16.7723C29.8859 16.6065 29.9964 16.3477 29.9566 16.0888C29.9169 15.8368 29.7445 15.6301 29.5611 15.4689C29.2894 15.2259 28.9734 15.0465 28.6442 14.9421C28.4984 14.8944 27.7073 14.6673 27.8267 15.0125C27.8333 15.0329 27.8399 15.0534 27.8488 15.0738H27.8465Z" fill="#FCFCFC"/>
</svg>
