<svg xmlns="http://www.w3.org/2000/svg" width="18" height="18" viewBox="0 0 18 18" fill="none">
  <mask id="mask0_4972_5542" style="mask-type:alpha" maskUnits="userSpaceOnUse" x="0" y="0" width="18" height="18">
    <rect width="18" height="18" fill="#D9D9D9"/>
  </mask>
  <g mask="url(#mask0_4972_5542)">
    <path fill-rule="evenodd" clip-rule="evenodd" d="M4.46299 8.24296C4.18273 8.12687 4 7.8534 4 7.55005V4.55005C4 4.13584 4.33579 3.80005 4.75 3.80005L7.75 3.80005C8.05335 3.80005 8.32682 3.98278 8.44291 4.26304C8.55899 4.54329 8.49483 4.86588 8.28033 5.08038L7.31065 6.05006L12.25 10.9894L13.2197 10.0198C13.4342 9.80526 13.7568 9.7411 14.037 9.85718C14.3173 9.97327 14.5 10.2467 14.5 10.5501V13.5501C14.5 13.6558 14.4781 13.7565 14.4386 13.8477C14.4077 13.9194 14.365 13.9872 14.3107 14.0483C14.2905 14.0709 14.2691 14.0923 14.2464 14.1123C14.1895 14.1627 14.1267 14.2029 14.0605 14.233C13.9659 14.2761 13.8607 14.3001 13.75 14.3001H10.75C10.4467 14.3001 10.1732 14.1174 10.0571 13.8371C9.94101 13.5568 10.0052 13.2343 10.2197 13.0198L11.1894 12.0501L6.24999 7.11072L5.28033 8.08038C5.06583 8.29488 4.74324 8.35904 4.46299 8.24296Z" fill="white"/>
  </g>
</svg>