<svg xmlns="http://www.w3.org/2000/svg" width="18" height="19" viewBox="0 0 18 19" fill="none">
<mask id="mask0_3688_10350" style="mask-type:alpha" maskUnits="userSpaceOnUse" x="0" y="0" width="18" height="19">
<rect y="0.5" width="18" height="18" fill="#D9D9D9"/>
</mask>
<g mask="url(#mask0_3688_10350)">
<path fill-rule="evenodd" clip-rule="evenodd" d="M4.46299 8.74288C4.18273 8.62679 4 8.35331 4 8.04997V5.04997C4 4.63575 4.33579 4.29997 4.75 4.29997L7.75 4.29997C8.05335 4.29997 8.32682 4.4827 8.44291 4.76295C8.55899 5.04321 8.49483 5.3658 8.28033 5.5803L7.31065 6.54998L12.25 11.4893L13.2197 10.5197C13.4342 10.3052 13.7568 10.241 14.037 10.3571C14.3173 10.4732 14.5 10.7467 14.5 11.05V14.05C14.5 14.1557 14.4781 14.2564 14.4386 14.3476C14.4077 14.4193 14.365 14.4871 14.3107 14.5482C14.2905 14.5708 14.2691 14.5922 14.2464 14.6122C14.1895 14.6626 14.1267 14.7028 14.0605 14.7329C13.9659 14.776 13.8607 14.8 13.75 14.8H10.75C10.4467 14.8 10.1732 14.6173 10.0571 14.337C9.94101 14.0568 10.0052 13.7342 10.2197 13.5197L11.1894 12.55L6.24999 7.61064L5.28033 8.5803C5.06583 8.79479 4.74324 8.85896 4.46299 8.74288Z" fill="white"/>
</g>
</svg>