<svg width="20" height="20" viewBox="0 0 20 20" fill="none" xmlns="http://www.w3.org/2000/svg">
<path d="M6.76254 10.6327C6.86111 10.5311 6.8859 10.4018 6.99621 10.3144C7.0942 10.2397 7.00363 10.1849 6.91086 10.1685C6.75393 10.1423 6.59806 10.1142 6.45592 10.0322C6.16416 9.86371 6.04246 9.52596 6.15685 9.21553C6.37784 8.61248 6.71746 8.08039 7.0595 7.5398C7.50634 6.83927 7.92914 6.11992 8.38987 5.42989C8.86426 4.72051 9.37125 4.03243 9.97707 3.42369C10.1544 3.24618 10.3215 3.06033 10.4868 2.8734C10.839 2.47493 11.3168 2.38172 11.811 2.35499C12.6184 2.30845 13.4042 2.42032 14.0816 2.90556C14.6161 3.28846 15.0741 3.74356 15.4061 4.33897C15.7101 4.88354 15.8042 5.45055 15.8474 6.04516C15.8584 6.20754 15.8053 6.36012 15.759 6.50928C15.6432 6.87832 15.5541 7.27022 15.3605 7.59685C15.2064 7.85954 15.0728 8.13411 14.9101 8.39435C14.7514 8.65194 14.6964 8.95455 14.5441 9.21832C14.2003 9.82233 13.8828 10.4415 13.5417 11.0495C13.2371 11.5944 12.9213 12.1328 12.6055 12.6712C12.3454 13.1129 12.0469 13.535 11.7916 13.9771C11.5192 14.4489 11.2412 14.9175 10.9455 15.3734C10.6531 15.8238 10.3657 16.287 9.97234 16.6617C9.625 16.9912 9.24348 17.2935 8.74282 17.3314C8.31677 17.3653 7.89837 17.2996 7.50289 17.1034C6.75975 16.7363 6.09269 16.2893 5.63006 15.5788C5.26508 15.0189 5.2657 14.4347 5.47706 13.8311C5.59953 13.4807 5.7164 13.1271 5.83405 12.7765C6.08334 12.0337 6.3997 11.3173 6.75479 10.6332L6.76254 10.6327ZM9.28019 6.78602C9.38299 6.71162 9.49327 6.64155 9.59073 6.55912C10.0363 6.18478 10.5599 6.01649 11.1351 5.97464C11.3456 5.95994 11.5292 6.04364 11.723 6.10104C11.9253 6.1609 12.1245 6.209 12.3021 6.32891C12.5375 6.48708 12.7134 6.68772 12.8687 6.92845C13.0282 7.17907 13.0939 7.43246 13.0737 7.718C13.0444 8.19642 12.7627 8.57623 12.5851 8.99625C12.4444 9.3262 12.2319 9.61218 12.0539 9.92054C11.6796 10.5688 11.3008 11.212 10.9209 11.8571C10.8952 11.9017 10.8592 11.9899 10.7996 11.9505C10.6741 11.8656 10.5464 11.9356 10.4242 11.927C10.2442 11.9147 10.1609 11.8344 10.1004 11.693C10.0024 11.4655 9.99336 11.2349 10.0822 10.9989C10.3346 10.3372 10.7799 9.78188 11.1089 9.16443C11.3382 8.73706 11.6306 8.33868 11.7359 7.84963C11.7951 7.57424 11.5939 7.32678 11.3112 7.33695C11.1892 7.34084 11.0667 7.35433 10.945 7.37075C10.5655 7.41912 10.2185 7.55807 9.99763 7.87144C9.63076 8.39026 9.28231 8.92469 8.95257 9.4699C8.38396 10.4072 7.82925 11.3551 7.37393 12.3553C7.10643 12.9439 6.85389 13.5412 6.82267 14.2042C6.81438 14.3827 6.80609 14.5612 6.90212 14.7232C7.24727 15.3088 7.79402 15.5626 8.43647 15.6635C8.54662 15.68 8.62101 15.6462 8.70882 15.5805C9.19447 15.2145 9.50411 14.6997 9.88293 14.2423C10.7193 13.2342 11.4462 12.148 12.106 11.0181C12.468 10.3998 12.8131 9.77184 13.1638 9.1471C13.5756 8.41647 13.9509 7.66719 14.2347 6.87752C14.4131 6.37861 14.5066 5.85803 14.3159 5.34175C14.0549 4.63627 13.5293 4.18173 12.8337 3.91383C12.5114 3.78966 12.1849 3.77205 11.8595 3.88638C11.5194 4.00459 11.2482 4.23684 10.9938 4.4788C10.4552 4.99263 10.0086 5.58922 9.58727 6.19799C9.46506 6.37511 9.31158 6.5416 9.28099 6.78896L9.28019 6.78602ZM11.4674 7.12251C11.5794 6.95437 11.6893 6.9757 11.8175 7.0646C12.2196 7.34872 12.2507 7.63171 12.1094 8.09251C11.9742 8.52963 11.7436 8.94633 11.5055 9.34139C11.227 9.80224 10.9548 10.2693 10.6808 10.7352C10.5653 10.931 10.4577 11.1389 10.4566 11.3785C10.4565 11.4131 10.4474 11.4549 10.4888 11.4739C10.5283 11.4917 10.5589 11.4648 10.5816 11.4383C10.6138 11.3999 10.6451 11.3586 10.6717 11.3169C10.9767 10.8144 11.2866 10.3122 11.5861 9.80649C11.7443 9.54116 11.8605 9.24914 12.0446 9.00372C12.2434 8.73709 12.4251 8.46554 12.5395 8.15511C12.7006 7.72058 12.75 7.28095 12.3769 6.92935C11.6508 6.24761 10.8714 6.22853 10.0994 6.70173C9.66687 6.96716 9.2316 7.26323 8.97177 7.73487C8.95032 7.77202 8.91951 7.80378 8.89245 7.83769C8.58484 8.24955 8.23902 8.63689 7.98883 9.09182C7.95666 9.14754 7.90711 9.20314 7.91503 9.26716C7.94492 9.48751 7.81685 9.64886 7.72379 9.823C7.42075 10.3911 7.02313 10.907 6.78929 11.515C6.61909 11.9567 6.41279 12.3874 6.25301 12.8326C6.11363 13.2252 5.97425 13.6178 5.85758 14.0186C5.73366 14.4448 5.70201 14.8625 5.95762 15.2404C6.19109 15.5832 6.44841 15.8977 6.8069 16.1493C7.31953 16.5097 7.83895 16.8021 8.46701 16.8675C8.62449 16.8841 8.78308 16.8816 8.92944 16.8224C9.38567 16.6326 9.72525 16.3036 10.0171 15.9148C10.3622 15.4552 10.6672 14.97 10.9742 14.4859C11.2344 14.074 11.4891 13.6588 11.7494 13.2469C12.2574 12.4405 12.7159 11.603 13.1753 10.7686C13.57 10.0503 14.0219 9.36264 14.3519 8.60955C14.5886 8.07004 14.8809 7.55519 15.1071 7.01214C15.2963 6.55916 15.5117 6.10397 15.3796 5.57693C15.3326 5.3863 15.2518 5.21088 15.1938 5.0263C15.0003 4.40686 14.609 3.91841 14.1243 3.50976C13.658 3.11669 13.1321 2.8527 12.5016 2.81313C12.2802 2.79924 12.0545 2.79278 11.8395 2.80238C11.4686 2.81856 11.0898 2.86986 10.8139 3.16631C10.5536 3.44447 10.2951 3.72372 10.0449 4.01022C9.62594 4.49402 9.21605 4.98801 8.86653 5.52429C8.34118 6.33056 7.82784 7.14625 7.30997 7.95685C7.03844 8.37964 6.79389 8.82049 6.5889 9.27922C6.51806 9.43646 6.53413 9.59435 6.70727 9.69183C6.87373 9.78793 7.05192 9.72982 7.15565 9.57176C7.43199 9.14927 7.64955 8.69036 7.88368 8.24597C8.24465 7.56027 8.68124 6.9207 9.05611 6.2455C9.18857 6.00743 9.36939 5.80223 9.52322 5.57898C9.99839 4.88986 10.5435 4.26095 11.2136 3.76115C11.7252 3.38037 12.3137 3.31143 12.9359 3.51217C13.3039 3.63055 13.609 3.85373 13.9028 4.08775C14.3841 4.47214 14.7385 4.94672 14.8269 5.57977C14.9205 6.25551 14.714 6.87679 14.4694 7.48606C14.289 7.93671 14.0539 8.36564 13.8406 8.79979C13.6274 9.23394 13.3906 9.65699 13.1522 10.0742C12.5012 11.219 11.8772 12.3819 11.0779 13.4338C10.7864 13.8178 10.4876 14.1927 10.2036 14.581C10.1377 14.6692 9.9834 14.6471 9.97068 14.7512C9.95141 14.9357 9.82823 15.0454 9.72643 15.1699C9.50326 15.4398 9.29184 15.7239 8.99285 15.9179C8.80413 16.0417 8.59514 16.1316 8.36307 16.1016C7.97192 16.0492 7.6004 15.9238 7.26458 15.7151C6.97817 15.5373 6.69985 15.3197 6.53476 15.0312C6.32326 14.6589 6.31401 14.2301 6.38925 13.8104C6.5079 13.1556 6.75645 12.5437 7.0475 11.9489C7.38361 11.2588 7.73015 10.5722 8.14402 9.92444C8.62812 9.1637 9.00855 8.34063 9.63747 7.66597C10.111 7.15672 10.6887 6.97258 11.3436 6.92225C11.4717 6.912 11.5722 6.94526 11.469 7.12838L11.4674 7.12251Z" fill="black"/>
</svg>
