<svg width="16" height="16" viewBox="0 0 16 16" fill="none" xmlns="http://www.w3.org/2000/svg">
<path d="M5.1141 11.7173C5.15693 11.8409 5.60499 11.5214 5.60499 11.5214C6.00678 10.9396 7.81648 11.4423 8.94871 11.385C9.16644 11.3756 9.45192 11.6996 9.7066 11.8721C9.56966 12.1421 9.49547 12.5296 9.28041 12.6561C8.99444 12.8245 8.60597 12.8168 8.25109 12.8373C7.34326 12.893 6.43542 12.9486 5.51903 12.9455C5.2825 12.9455 4.84965 12.7818 4.78733 12.6122C4.68567 12.3322 4.81139 11.9863 4.84218 11.668C4.93234 11.6834 5.02625 11.7008 5.11641 11.7162L5.1141 11.7173Z" fill="#171717"/>
<path d="M12.2926 4.84847C12.3934 5.03269 12.5736 5.23385 12.5767 5.39886C12.5883 5.79286 12.5167 6.16805 12.4792 6.54888C12.1914 6.42577 11.789 6.39529 11.6338 6.16348C10.8992 5.08418 10.2044 3.96339 9.56722 2.81462C9.44815 2.59857 9.6167 1.90624 9.73223 1.90939C10.047 1.91206 10.5136 2.06311 10.7256 2.34139C11.312 3.11519 11.7987 3.98912 12.3251 4.82158L12.2926 4.84847Z" fill="#0A0A0A"/>
<path d="M6.64829 6.10347C6.84048 6.14713 7.0412 6.14965 7.22315 6.24269C8.00904 6.63475 8.78443 7.0874 9.57339 7.44466C10.135 7.6976 10.2925 8.19843 10.1644 8.61581C10.0964 8.83385 9.57827 8.94091 9.29404 8.8309C8.54226 8.5444 7.79679 8.14754 7.06798 7.72039C6.818 7.57525 6.54783 7.2475 6.43285 6.95176C6.32487 6.68222 6.41308 6.3471 6.41618 6.04217L6.64683 6.10047L6.64829 6.10347Z" fill="#0A0A0A"/>
</svg>
