<svg width="16" height="16" viewBox="0 0 16 16" fill="none" xmlns="http://www.w3.org/2000/svg">
<path d="M7.8264 3.83243C8.18055 3.54864 8.45549 3.29805 8.75838 3.08822C9.81462 2.35609 10.9594 1.95455 12.2812 2.20966C13.4245 2.43006 14.1048 3.44599 13.9868 4.6325C13.7817 6.67945 12.8482 8.40638 11.6195 10.0171C10.7916 11.1024 9.94976 12.1773 9.11408 13.2566C8.75217 13.7245 8.39335 14.194 8.02367 14.6559C7.6602 15.1118 7.39924 15.0816 6.89908 14.7586C5.76984 14.0265 5.33336 12.8369 4.73068 11.7651C4.31595 11.027 3.9354 10.2496 3.69929 9.44647C3.39951 8.42903 3.22709 7.37234 3.05934 6.3232C2.89158 5.26802 3.09973 4.23397 3.43058 3.22861C3.71017 2.37722 4.08451 1.56508 4.95746 1.13184C5.39394 0.914462 5.86304 0.97183 6.27777 1.26016C7.00005 1.76284 7.37284 2.48289 7.62136 3.28446C7.67262 3.45052 7.74252 3.61053 7.8264 3.83394V3.83243Z" fill="#171717"/>
</svg>
