<svg width="26" height="26" viewBox="0 0 26 26" fill="none" xmlns="http://www.w3.org/2000/svg">
<path d="M22.502 5.94576C23.0999 6.76507 22.0481 7.10261 21.8521 7.21294C21.3011 7.53719 20.8088 7.90985 20.3287 8.33481C20.148 8.49045 19.9623 8.63521 19.7726 8.77928C19.3583 9.09806 18.9789 9.44815 18.5986 9.80735C18.5429 9.85938 18.4873 9.9114 18.4299 9.965C18.2833 10.1024 18.1374 10.2403 17.9917 10.3787C17.9166 10.45 17.8413 10.521 17.7659 10.592C16.7896 11.5109 15.8518 12.4658 14.9864 13.4947C14.8885 13.6108 14.79 13.7263 14.6912 13.8417C13.7773 14.9118 12.9213 16.0078 12.1123 17.1625C11.8936 17.4739 11.6698 17.7807 11.4421 18.0854C11.2639 18.3241 11.0918 18.5626 10.9406 18.8205C10.7425 19.1557 10.5004 19.4551 10.2595 19.7589C10.1086 19.9499 9.9633 20.1403 9.83169 20.3457C9.32432 21.133 7.62634 21.0783 7.62634 21.0783C7.62634 21.0783 6.50969 21.0783 6.29699 20.9157C6.0843 20.753 6.00585 20.28 5.96388 20.1566C5.92171 20.0387 6.01261 20.272 5.96388 20.1566C5.94626 20.0189 5.91852 19.9241 5.90601 19.7858C5.86839 19.4345 5.80134 19.119 5.6969 18.7832C5.64274 18.5898 5.61054 18.3996 5.57903 18.2011C5.33624 16.8249 4.80945 15.475 4.21066 14.2219C4.16042 14.1156 4.11206 14.0084 4.06392 13.9011C3.7667 13.2431 3.41595 12.5862 3.00077 11.9968C2.916 11.8646 2.916 11.8646 2.90578 11.6701C3.05134 11.3169 3.38187 11.2226 3.70764 11.0785C4.68293 10.6739 5.00189 10.7881 5.89443 11.4869C6.78697 12.1857 7.61843 13.9094 8.0666 15.0491C8.17186 15.3144 8.28421 15.5765 8.39677 15.8387C8.62772 15.6959 9.58127 14.7024 9.76544 14.5042C9.83843 14.4265 9.91148 14.3489 9.98459 14.2713C10.0222 14.2313 10.0598 14.1914 10.0985 14.1503C10.2769 13.9621 10.4581 13.7768 10.6396 13.5918C10.8795 13.347 11.1193 13.102 11.3578 12.8558C12.5836 11.5905 13.8308 10.3893 15.2292 9.32278C15.3864 9.20185 15.5404 9.07841 15.6933 8.9519C16.1504 8.57948 16.6364 8.24741 17.1422 7.94795C17.3314 7.83398 17.5166 7.71403 17.7024 7.59426C18.0499 7.37364 18.3999 7.17282 18.7676 6.98954C18.8434 6.95129 18.9192 6.91304 18.9972 6.87364C20.023 6.36395 21.9041 5.12645 22.502 5.94576Z" fill="#404040"/>
</svg>
