<svg width="16" height="16" viewBox="0 0 16 16" fill="none" xmlns="http://www.w3.org/2000/svg">
<path d="M9.64317 11.0169C9.71495 12.1467 9.19698 12.5921 8.3434 12.0229C7.6004 11.5275 6.92919 10.8539 6.32392 10.1522C5.98249 9.75671 5.76327 9.8132 5.44318 10.0479C4.46933 10.7627 3.49742 11.4797 2.52162 12.188C2.24809 12.3857 1.97456 12.603 1.67387 12.7247C1.51479 12.7899 1.20829 12.7377 1.12293 12.6095C1.01235 12.4444 0.952213 12.0511 1.04727 11.9295C1.4081 11.4667 1.80772 11.0212 2.25391 10.6693C3.05123 10.0413 3.88929 9.47426 4.72153 8.905C5.0358 8.6899 5.19293 8.48132 5.07847 8.02722C4.93685 7.4623 4.83404 6.87132 4.80494 6.28685C4.75256 5.2309 5.39469 4.52476 6.34914 4.45306C6.49076 4.44219 6.65565 4.26838 6.74683 4.12063C6.87681 3.91422 6.95052 3.66218 7.03394 3.46229C6.935 3.1668 6.68475 2.73877 6.77205 2.62144C6.98933 2.32812 7.35985 1.9957 7.66442 2.00004C8.49472 2.01308 9.35605 2.07174 10.1379 2.34551C10.6422 2.5215 11.1505 2.79961 11.6568 3.03426C13.137 3.72302 14.1691 6.04133 13.977 7.83167C13.7345 10.1022 12.4095 10.9343 11.2941 11.1212C10.7625 11.2103 10.198 11.0604 9.64511 11.0169H9.64317ZM7.60428 6.68229C7.90692 7.28414 8.12419 7.9729 8.52964 8.47046C9.17952 9.26785 9.90506 10.0631 11.0108 9.91532C11.9323 9.79148 12.5841 9.22439 12.8189 8.21407C13.0924 7.03427 12.813 5.93052 12.1573 4.9919C11.3523 3.83818 10.1088 3.64046 8.93121 3.34931C8.78378 3.31237 8.56262 3.49271 8.41712 3.62742C7.54997 4.42916 7.46849 5.47207 7.60234 6.68229H7.60428ZM6.46359 5.49163C5.65658 6.00439 5.90101 6.64753 6.01935 7.23199C6.05621 7.4145 6.28124 7.71434 6.37048 7.69261C6.78757 7.59701 7.18914 7.40798 7.59653 7.25155L7.48595 6.96909C7.28226 7.09077 7.07662 7.21244 6.7895 7.38191L6.46359 5.48946V5.49163ZM9.3386 10.7822C8.615 10.1152 7.8914 9.44819 7.1678 8.78116C7.45879 10.0283 8.63634 11.0039 9.3386 10.7822Z" fill="#171717"/>
<path d="M7.60427 6.68235C7.47042 5.47213 7.5519 4.42922 8.41905 3.62748C8.56455 3.49277 8.78571 3.31243 8.93314 3.34937C10.1087 3.64051 11.3522 3.83823 12.1593 4.99196C12.813 5.92841 13.0943 7.03433 12.8208 8.21412C12.5861 9.22445 11.9342 9.79153 11.0128 9.91538C9.90699 10.0631 9.18145 9.26573 8.53157 8.47051C8.12612 7.97295 7.90885 7.28419 7.60621 6.68235H7.60427Z" fill="white"/>
<path d="M6.46364 5.49158L6.78955 7.38404C7.07666 7.21456 7.28036 7.09288 7.486 6.97121L7.59657 7.25367C7.18919 7.41011 6.78955 7.59914 6.37053 7.69474C6.28129 7.71429 6.05626 7.41663 6.0194 7.23412C5.90106 6.64965 5.65662 6.00869 6.46364 5.49375V5.49158Z" fill="white"/>
<path d="M9.33865 10.7823C8.63639 11.004 7.45884 10.0284 7.16785 8.78125C7.89145 9.44828 8.61505 10.1153 9.33865 10.7823Z" fill="white"/>
</svg>
