<svg width="16" height="16" viewBox="0 0 16 16" fill="none" xmlns="http://www.w3.org/2000/svg">
<path d="M8.24265 1.05556C8.3814 1.03938 8.52016 1.0145 8.66011 1.00828C9.22114 0.984642 9.61929 1.27952 9.91248 1.73366C11.0116 3.43451 12.001 5.19509 12.7056 7.11492C12.9915 7.89381 13.3474 8.64407 13.6322 9.4242C13.7963 9.87212 13.9133 10.3462 13.9881 10.819C14.0545 11.2482 13.8373 11.5879 13.4645 11.7832C13.0844 11.9823 12.6851 12.1378 12.3014 12.3295C11.5256 12.7177 10.7727 13.1631 9.97642 13.499C9.01242 13.9059 8.01462 14.2306 7.02769 14.579C6.381 14.8067 5.92252 14.4148 5.63416 13.9382C4.95851 12.8222 4.33474 11.6688 3.74958 10.4992C3.27059 9.5424 2.88571 8.53458 2.4393 7.55911C2.29452 7.24308 2.04236 6.97557 1.91688 6.65456C1.75641 6.24023 1.67919 5.79107 1.55734 5.36057C1.44634 4.96864 1.55975 4.62523 1.83363 4.38012C2.3657 3.90234 2.9195 3.44571 3.48897 3.01521C3.84007 2.75019 4.24184 2.55858 4.61103 2.31845C5.66432 1.62915 6.82741 1.2621 8.04599 1.05307C8.10994 1.04187 8.1763 1.04187 8.24265 1.0369C8.24265 1.04312 8.24386 1.05058 8.24507 1.0568L8.24265 1.05556ZM4.6412 11.3615C4.72807 11.4038 4.79925 11.415 4.82217 11.4535C5.17086 12.0644 5.52678 12.6716 5.85496 13.295C6.23018 14.0079 6.50044 14.1435 7.25934 13.9071C7.68766 13.774 8.12562 13.6521 8.53101 13.4605C10.0609 12.7363 11.5775 11.9823 13.1037 11.2507C13.339 11.1375 13.4198 10.9683 13.3583 10.7406C13.2159 10.2105 13.0953 9.66807 12.8865 9.16664C12.2941 7.73952 11.7078 6.30742 11.0321 4.9226C10.5447 3.92225 9.92454 2.99033 9.35386 2.03352C9.16564 1.71749 8.88332 1.62168 8.51412 1.64159C7.75643 1.68265 7.04096 1.89417 6.33636 2.15048C5.87547 2.31845 5.42061 2.50881 4.98506 2.73526C4.69911 2.88457 4.45298 3.1135 4.19237 3.31133C3.57946 3.77543 2.95328 4.22335 2.36812 4.72228C2.22575 4.84422 2.14612 5.14656 2.17145 5.34937C2.21127 5.66292 2.35485 5.96526 2.47429 6.26388C2.66854 6.75037 2.87727 7.23188 3.08358 7.71215C3.33454 8.29444 3.59153 8.87425 3.84369 9.45655C4.1236 10.1023 4.56277 10.6809 4.6424 11.3627L4.6412 11.3615Z" fill="#171717"/>
<path d="M4.64114 11.3615C4.5603 10.6809 4.12234 10.1024 3.84243 9.45538C3.59026 8.87308 3.33327 8.29328 3.08232 7.71098C2.8748 7.22947 2.66728 6.7492 2.47303 6.26271C2.35358 5.96409 2.21001 5.66175 2.17019 5.3482C2.14485 5.14664 2.22449 4.84305 2.36685 4.72112C2.95202 4.22218 3.5782 3.77426 4.19111 3.31017C4.45172 3.11234 4.69905 2.8834 4.98379 2.73409C5.41935 2.50765 5.8742 2.31603 6.33509 2.14931C7.0397 1.893 7.75396 1.68024 8.51286 1.64042C8.88205 1.62051 9.16438 1.71756 9.3526 2.03235C9.92328 2.98916 10.5434 3.92108 11.0309 4.92144C11.7065 6.30625 12.2929 7.73836 12.8853 9.16548C13.094 9.66814 13.2159 10.2106 13.357 10.7394C13.4186 10.9671 13.3365 11.1376 13.1025 11.2495C11.5762 11.9812 10.0596 12.7351 8.52975 13.4593C8.12436 13.6509 7.68639 13.7716 7.25808 13.906C6.49918 14.1424 6.22892 14.008 5.85369 13.2938C5.52552 12.6705 5.1708 12.0633 4.82091 11.4524C4.79799 11.4125 4.72801 11.4026 4.63993 11.3603L4.64114 11.3615ZM6.28321 10.9111C6.49435 10.8701 6.71635 10.8589 6.91543 10.783C7.39562 10.5988 7.86737 10.391 8.33912 10.182C9.22229 9.79008 10.1127 9.41557 10.9778 8.98631C11.5786 8.6877 11.7306 8.3306 11.5002 7.68112C11.1515 6.70067 10.7618 5.73391 10.3299 4.78955C10.0669 4.21472 9.70731 3.68343 9.35742 3.15588C9.15955 2.85727 8.88809 2.58728 8.49235 2.64078C8.04835 2.7005 7.5959 2.76022 7.17483 2.90704C5.89351 3.35247 4.62546 3.83523 3.51908 4.67632C3.04733 5.03466 2.90134 5.41664 3.12575 5.98773C3.42376 6.74547 3.74832 7.492 4.04391 8.25097C4.36244 9.0647 4.80281 9.79754 5.36505 10.4532C5.60756 10.7357 5.88023 10.9447 6.28321 10.9099V10.9111Z" fill="white"/>
<path d="M6.28329 10.911C5.87911 10.9446 5.60643 10.7369 5.36513 10.4544C4.80289 9.79747 4.36251 9.06586 4.04399 8.25214C3.74719 7.49441 3.42384 6.74664 3.12583 5.98891C2.90142 5.41781 3.04741 5.03707 3.51916 4.67749C4.62554 3.83516 5.89358 3.35364 7.17491 2.90821C7.59598 2.76139 8.04963 2.70167 8.49242 2.64194C8.88816 2.58844 9.15963 2.85844 9.3575 3.15705C9.70739 3.6846 10.0669 4.21589 10.33 4.79072C10.7619 5.73384 11.1516 6.70184 11.5003 7.68229C11.7307 8.33177 11.5787 8.68886 10.9779 8.98748C10.1128 9.41673 9.22116 9.79125 8.3392 10.1832C7.86866 10.3922 7.39691 10.6 6.91551 10.7841C6.71643 10.86 6.49443 10.8712 6.28329 10.9123V10.911Z" fill="#0A0A0A"/>
</svg>
