<svg width="20" height="20" viewBox="0 0 20 20" fill="none" xmlns="http://www.w3.org/2000/svg">
<path d="M7.71831 3.39218C8.3179 3.4274 8.83999 3.75614 9.37111 4.05497C9.68277 4.23386 9.98029 4.26484 10.3381 4.1724C11.2101 3.94726 12.0353 3.60406 12.8454 3.23467C13.5526 2.91464 14.7393 3.47448 14.5703 4.42094C14.4857 4.91775 14.4005 5.41838 14.286 5.90616C14.1566 6.45826 14.1407 7.01394 14.1324 7.57092C14.123 8.0648 14.4072 8.45136 14.6971 8.8271C15.0455 9.2757 15.4724 9.6551 15.7434 10.1653C15.9929 10.6403 16.2047 11.1285 16.3119 11.6541C16.4541 12.3428 15.9025 13.1809 15.2092 13.3499C14.5158 13.519 13.82 13.6797 13.1191 13.8239C12.8499 13.8803 12.6405 14.0019 12.4702 14.2168C12.1181 14.668 11.7457 15.1001 11.4076 15.5616C11.0695 16.0231 10.6064 16.3415 10.161 16.6707C9.71121 17.0031 8.93591 16.7295 8.51977 16.1711C8.17469 15.7034 7.83791 15.2332 7.48389 14.7718C6.86277 13.9622 6.0469 13.4419 5.06443 13.1842C4.48818 13.035 3.98438 12.7604 3.51465 12.4013C2.81799 11.8737 2.7001 11.3189 3.0865 10.5274C3.41386 9.8517 3.92613 9.33725 4.49238 8.87525C5.09954 8.38089 5.50496 7.80107 5.46001 6.97942C5.44196 6.66963 5.44815 6.35609 5.4301 6.0463C5.40092 5.45541 5.46029 4.87567 5.60121 4.30194C5.78539 3.56648 6.17706 3.27532 6.94374 3.27606C7.19548 3.27566 7.43502 3.3007 7.71067 3.39088L7.71831 3.39218Z" fill="black"/>
</svg>
