<svg xmlns="http://www.w3.org/2000/svg" width="46" height="46" viewBox="0 0 46 46" fill="none">
<mask id="path-1-outside-1_3727_8171" maskUnits="userSpaceOnUse" x="5.49237" y="0.934023" width="36.3205" height="42.909" fill="black">
<rect fill="white" x="5.49237" y="0.934023" width="36.3205" height="42.909"/>
<path d="M15.5536 24.4553C15.7803 24.2216 15.8373 23.9241 16.091 23.7231C16.3164 23.5513 16.1081 23.4254 15.8947 23.3876C15.5338 23.3273 15.1753 23.2628 14.8484 23.074C14.1773 22.6866 13.8974 21.9097 14.1605 21.1958C14.6688 19.8087 15.4499 18.585 16.2366 17.3416C17.2643 15.7304 18.2368 14.0759 19.2965 12.4888C20.3876 10.8572 21.5536 9.27464 22.947 7.87454C23.3548 7.46626 23.7392 7.03881 24.1194 6.60888C24.9296 5.69238 26.0284 5.478 27.1651 5.41652C29.0221 5.30949 30.8294 5.56679 32.3875 6.68283C33.6169 7.56352 34.6701 8.61024 35.4338 9.97969C36.1331 11.2322 36.3495 12.5363 36.4489 13.9039C36.4742 14.2774 36.3518 14.6283 36.2455 14.9714C35.9792 15.8202 35.7742 16.7216 35.329 17.4728C34.9744 18.077 34.6672 18.7085 34.2929 19.307C33.9279 19.8995 33.8014 20.5955 33.4512 21.2022C32.6606 22.5914 31.9302 24.0154 31.1457 25.4139C30.4451 26.6671 29.7187 27.9054 28.9923 29.1437C28.3942 30.1598 27.7075 31.1306 27.1205 32.1474C26.4939 33.2326 25.8545 34.3103 25.1745 35.359C24.5019 36.3948 23.841 37.4601 22.9361 38.322C22.1373 39.0798 21.2598 39.7751 20.1082 39.8622C19.1283 39.9402 18.166 39.7891 17.2564 39.338C15.5472 38.4936 14.0129 37.4654 12.9489 35.8313C12.1094 34.5435 12.1109 33.1999 12.597 31.8115C12.8787 31.0057 13.1475 30.1925 13.4181 29.386C13.9914 27.6777 14.7191 26.0299 15.5358 24.4564L15.5536 24.4553ZM21.3442 15.6079C21.5806 15.4368 21.8343 15.2756 22.0584 15.086C23.0832 14.2251 24.2874 13.838 25.6106 13.7417C26.0947 13.7079 26.5169 13.9004 26.9627 14.0324C27.428 14.1701 27.8861 14.2808 28.2947 14.5565C28.836 14.9203 29.2406 15.3818 29.5978 15.9355C29.9647 16.5119 30.1157 17.0947 30.0692 17.7515C30.0018 18.8518 29.354 19.7254 28.9454 20.6914C28.622 21.4503 28.1332 22.1081 27.7238 22.8173C26.8629 24.3084 25.9916 25.7877 25.1178 27.2713C25.0586 27.3739 24.9759 27.5768 24.8389 27.4863C24.5501 27.291 24.2565 27.4519 23.9754 27.4321C23.5615 27.4039 23.3699 27.2192 23.2308 26.8939C23.0052 26.3706 22.9845 25.8403 23.1889 25.2975C23.7693 23.7755 24.7935 22.4984 25.5503 21.0782C26.0777 20.0953 26.7501 19.179 26.9923 18.0542C27.1285 17.4208 26.6656 16.8516 26.0155 16.875C25.735 16.884 25.4533 16.915 25.1733 16.9528C24.3004 17.064 23.5022 17.3836 22.9943 18.1044C22.1505 19.2977 21.3491 20.5268 20.5907 21.7808C19.2829 23.9367 18.007 26.1167 16.9598 28.4173C16.3445 29.7711 15.7637 31.1447 15.6919 32.6698C15.6728 33.0803 15.6538 33.4909 15.8746 33.8633C16.6685 35.2103 17.926 35.7939 19.4036 36.0261C19.657 36.0642 19.8281 35.9864 20.0301 35.8352C21.147 34.9933 21.8592 33.8095 22.7305 32.7573C24.6542 30.4387 26.326 27.9404 27.8436 25.3417C28.676 23.9197 29.4698 22.4753 30.2765 21.0384C31.2237 19.3579 32.0868 17.6346 32.7397 15.8183C33.1498 14.6709 33.365 13.4735 32.9264 12.2861C32.3261 10.6635 31.1173 9.61803 29.5172 9.00185C28.7759 8.71626 28.0249 8.67577 27.2766 8.93872C26.4945 9.2106 25.8706 9.74478 25.2855 10.3013C24.0468 11.4831 23.0195 12.8553 22.0505 14.2554C21.7694 14.6628 21.4164 15.0457 21.346 15.6146L21.3442 15.6079ZM26.3748 16.3818C26.6325 15.9951 26.8852 16.0442 27.1801 16.2486C28.1048 16.9021 28.1764 17.553 27.8513 18.6128C27.5404 19.6182 27.01 20.5766 26.4624 21.4852C25.8218 22.5452 25.1959 23.6194 24.5657 24.691C24.2999 25.1414 24.0526 25.6195 24.0499 26.1706C24.0498 26.2502 24.0287 26.3463 24.124 26.3899C24.2149 26.4311 24.2852 26.3691 24.3375 26.3081C24.4115 26.2198 24.4836 26.1247 24.5446 26.0289C25.2463 24.8732 25.959 23.7182 26.6478 22.555C27.0116 21.9447 27.2789 21.2731 27.7023 20.7086C28.1596 20.0954 28.5776 19.4708 28.8407 18.7568C29.2112 17.7574 29.3247 16.7462 28.4667 15.9375C26.7967 14.3696 25.0039 14.3257 23.2284 15.414C22.2336 16.0245 21.2324 16.7055 20.6348 17.7903C20.5855 17.8757 20.5146 17.9487 20.4524 18.0267C19.7449 18.974 18.9495 19.8649 18.3741 20.9112C18.3001 21.0394 18.1861 21.1673 18.2043 21.3145C18.2731 21.8213 17.9785 22.1924 17.7645 22.5929C17.0675 23.8995 16.153 25.0862 15.6151 26.4846C15.2237 27.5004 14.7492 28.4911 14.3817 29.5151C14.0611 30.418 13.7405 31.321 13.4722 32.2427C13.1872 33.2232 13.1144 34.1837 13.7023 35.0529C14.2393 35.8415 14.8311 36.5648 15.6556 37.1434C16.8347 37.9723 18.0293 38.6449 19.4739 38.7953C19.8361 38.8336 20.2008 38.8277 20.5375 38.6916C21.5868 38.255 22.3678 37.4983 23.039 36.604C23.8328 35.547 24.5344 34.4311 25.2403 33.3177C25.839 32.3702 26.4247 31.4153 27.0234 30.4678C28.1917 28.6131 29.2463 26.687 30.3028 24.7677C31.2107 23.1158 32.25 21.5341 33.0092 19.802C33.5535 18.5611 34.2257 17.377 34.7461 16.128C35.1813 15.0861 35.6768 14.0392 35.3729 12.827C35.2647 12.3885 35.079 11.9851 34.9455 11.5605C34.5005 10.1358 33.6006 9.0124 32.4856 8.07249C31.4131 7.16844 30.2036 6.56126 28.7534 6.47026C28.2442 6.4383 27.7251 6.42343 27.2306 6.44552C26.3774 6.48274 25.5063 6.60074 24.8718 7.28255C24.273 7.92233 23.6785 8.56461 23.103 9.22356C22.1394 10.3363 21.1967 11.4725 20.3928 12.7059C19.1845 14.5603 18.0038 16.4364 16.8127 18.3008C16.1882 19.2732 15.6257 20.2872 15.1542 21.3422C14.9913 21.7039 15.0283 22.067 15.4265 22.2913C15.8093 22.5123 16.2192 22.3786 16.4577 22.0151C17.0933 21.0434 17.5937 19.9879 18.1322 18.9658C18.9625 17.3887 19.9666 15.9177 20.8288 14.3647C21.1335 13.8171 21.5494 13.3452 21.9032 12.8317C22.9961 11.2467 24.2499 9.80023 25.7911 8.65069C26.9678 7.7749 28.3212 7.61635 29.7523 8.07805C30.5988 8.35032 31.3005 8.86363 31.9762 9.40188C33.0832 10.286 33.8984 11.3775 34.1016 12.8335C34.317 14.3877 33.8418 15.8167 33.2794 17.218C32.8645 18.2545 32.3236 19.241 31.8332 20.2396C31.3427 21.2381 30.7981 22.2111 30.2499 23.1706C28.7526 25.8038 27.3173 28.4785 25.4789 30.8977C24.8084 31.7809 24.1213 32.6432 23.468 33.5363C23.3164 33.7393 22.9616 33.6883 22.9323 33.9277C22.888 34.3522 22.6047 34.6044 22.3705 34.8908C21.8573 35.5116 21.371 36.1651 20.6833 36.6111C20.2493 36.896 19.7686 37.1027 19.2348 37.0338C18.3352 36.9131 17.4807 36.6249 16.7083 36.1447C16.0496 35.7359 15.4094 35.2353 15.0297 34.5718C14.5433 33.7156 14.522 32.7292 14.695 31.7639C14.9679 30.258 15.5396 28.8506 16.209 27.4826C16.9821 25.8952 17.7791 24.316 18.731 22.8263C19.8444 21.0766 20.7194 19.1835 22.1659 17.6318C23.2551 16.4605 24.5837 16.037 26.0901 15.9212C26.3848 15.8977 26.6159 15.9741 26.3785 16.3953L26.3748 16.3818Z"/>
</mask>
<path d="M15.5536 24.4553C15.7803 24.2216 15.8373 23.9241 16.091 23.7231C16.3164 23.5513 16.1081 23.4254 15.8947 23.3876C15.5338 23.3273 15.1753 23.2628 14.8484 23.074C14.1773 22.6866 13.8974 21.9097 14.1605 21.1958C14.6688 19.8087 15.4499 18.585 16.2366 17.3416C17.2643 15.7304 18.2368 14.0759 19.2965 12.4888C20.3876 10.8572 21.5536 9.27464 22.947 7.87454C23.3548 7.46626 23.7392 7.03881 24.1194 6.60888C24.9296 5.69238 26.0284 5.478 27.1651 5.41652C29.0221 5.30949 30.8294 5.56679 32.3875 6.68283C33.6169 7.56352 34.6701 8.61024 35.4338 9.97969C36.1331 11.2322 36.3495 12.5363 36.4489 13.9039C36.4742 14.2774 36.3518 14.6283 36.2455 14.9714C35.9792 15.8202 35.7742 16.7216 35.329 17.4728C34.9744 18.077 34.6672 18.7085 34.2929 19.307C33.9279 19.8995 33.8014 20.5955 33.4512 21.2022C32.6606 22.5914 31.9302 24.0154 31.1457 25.4139C30.4451 26.6671 29.7187 27.9054 28.9923 29.1437C28.3942 30.1598 27.7075 31.1306 27.1205 32.1474C26.4939 33.2326 25.8545 34.3103 25.1745 35.359C24.5019 36.3948 23.841 37.4601 22.9361 38.322C22.1373 39.0798 21.2598 39.7751 20.1082 39.8622C19.1283 39.9402 18.166 39.7891 17.2564 39.338C15.5472 38.4936 14.0129 37.4654 12.9489 35.8313C12.1094 34.5435 12.1109 33.1999 12.597 31.8115C12.8787 31.0057 13.1475 30.1925 13.4181 29.386C13.9914 27.6777 14.7191 26.0299 15.5358 24.4564L15.5536 24.4553ZM21.3442 15.6079C21.5806 15.4368 21.8343 15.2756 22.0584 15.086C23.0832 14.2251 24.2874 13.838 25.6106 13.7417C26.0947 13.7079 26.5169 13.9004 26.9627 14.0324C27.428 14.1701 27.8861 14.2808 28.2947 14.5565C28.836 14.9203 29.2406 15.3818 29.5978 15.9355C29.9647 16.5119 30.1157 17.0947 30.0692 17.7515C30.0018 18.8518 29.354 19.7254 28.9454 20.6914C28.622 21.4503 28.1332 22.1081 27.7238 22.8173C26.8629 24.3084 25.9916 25.7877 25.1178 27.2713C25.0586 27.3739 24.9759 27.5768 24.8389 27.4863C24.5501 27.291 24.2565 27.4519 23.9754 27.4321C23.5615 27.4039 23.3699 27.2192 23.2308 26.8939C23.0052 26.3706 22.9845 25.8403 23.1889 25.2975C23.7693 23.7755 24.7935 22.4984 25.5503 21.0782C26.0777 20.0953 26.7501 19.179 26.9923 18.0542C27.1285 17.4208 26.6656 16.8516 26.0155 16.875C25.735 16.884 25.4533 16.915 25.1733 16.9528C24.3004 17.064 23.5022 17.3836 22.9943 18.1044C22.1505 19.2977 21.3491 20.5268 20.5907 21.7808C19.2829 23.9367 18.007 26.1167 16.9598 28.4173C16.3445 29.7711 15.7637 31.1447 15.6919 32.6698C15.6728 33.0803 15.6538 33.4909 15.8746 33.8633C16.6685 35.2103 17.926 35.7939 19.4036 36.0261C19.657 36.0642 19.8281 35.9864 20.0301 35.8352C21.147 34.9933 21.8592 33.8095 22.7305 32.7573C24.6542 30.4387 26.326 27.9404 27.8436 25.3417C28.676 23.9197 29.4698 22.4753 30.2765 21.0384C31.2237 19.3579 32.0868 17.6346 32.7397 15.8183C33.1498 14.6709 33.365 13.4735 32.9264 12.2861C32.3261 10.6635 31.1173 9.61803 29.5172 9.00185C28.7759 8.71626 28.0249 8.67577 27.2766 8.93872C26.4945 9.2106 25.8706 9.74478 25.2855 10.3013C24.0468 11.4831 23.0195 12.8553 22.0505 14.2554C21.7694 14.6628 21.4164 15.0457 21.346 15.6146L21.3442 15.6079ZM26.3748 16.3818C26.6325 15.9951 26.8852 16.0442 27.1801 16.2486C28.1048 16.9021 28.1764 17.553 27.8513 18.6128C27.5404 19.6182 27.01 20.5766 26.4624 21.4852C25.8218 22.5452 25.1959 23.6194 24.5657 24.691C24.2999 25.1414 24.0526 25.6195 24.0499 26.1706C24.0498 26.2502 24.0287 26.3463 24.124 26.3899C24.2149 26.4311 24.2852 26.3691 24.3375 26.3081C24.4115 26.2198 24.4836 26.1247 24.5446 26.0289C25.2463 24.8732 25.959 23.7182 26.6478 22.555C27.0116 21.9447 27.2789 21.2731 27.7023 20.7086C28.1596 20.0954 28.5776 19.4708 28.8407 18.7568C29.2112 17.7574 29.3247 16.7462 28.4667 15.9375C26.7967 14.3696 25.0039 14.3257 23.2284 15.414C22.2336 16.0245 21.2324 16.7055 20.6348 17.7903C20.5855 17.8757 20.5146 17.9487 20.4524 18.0267C19.7449 18.974 18.9495 19.8649 18.3741 20.9112C18.3001 21.0394 18.1861 21.1673 18.2043 21.3145C18.2731 21.8213 17.9785 22.1924 17.7645 22.5929C17.0675 23.8995 16.153 25.0862 15.6151 26.4846C15.2237 27.5004 14.7492 28.4911 14.3817 29.5151C14.0611 30.418 13.7405 31.321 13.4722 32.2427C13.1872 33.2232 13.1144 34.1837 13.7023 35.0529C14.2393 35.8415 14.8311 36.5648 15.6556 37.1434C16.8347 37.9723 18.0293 38.6449 19.4739 38.7953C19.8361 38.8336 20.2008 38.8277 20.5375 38.6916C21.5868 38.255 22.3678 37.4983 23.039 36.604C23.8328 35.547 24.5344 34.4311 25.2403 33.3177C25.839 32.3702 26.4247 31.4153 27.0234 30.4678C28.1917 28.6131 29.2463 26.687 30.3028 24.7677C31.2107 23.1158 32.25 21.5341 33.0092 19.802C33.5535 18.5611 34.2257 17.377 34.7461 16.128C35.1813 15.0861 35.6768 14.0392 35.3729 12.827C35.2647 12.3885 35.079 11.9851 34.9455 11.5605C34.5005 10.1358 33.6006 9.0124 32.4856 8.07249C31.4131 7.16844 30.2036 6.56126 28.7534 6.47026C28.2442 6.4383 27.7251 6.42343 27.2306 6.44552C26.3774 6.48274 25.5063 6.60074 24.8718 7.28255C24.273 7.92233 23.6785 8.56461 23.103 9.22356C22.1394 10.3363 21.1967 11.4725 20.3928 12.7059C19.1845 14.5603 18.0038 16.4364 16.8127 18.3008C16.1882 19.2732 15.6257 20.2872 15.1542 21.3422C14.9913 21.7039 15.0283 22.067 15.4265 22.2913C15.8093 22.5123 16.2192 22.3786 16.4577 22.0151C17.0933 21.0434 17.5937 19.9879 18.1322 18.9658C18.9625 17.3887 19.9666 15.9177 20.8288 14.3647C21.1335 13.8171 21.5494 13.3452 21.9032 12.8317C22.9961 11.2467 24.2499 9.80023 25.7911 8.65069C26.9678 7.7749 28.3212 7.61635 29.7523 8.07805C30.5988 8.35032 31.3005 8.86363 31.9762 9.40188C33.0832 10.286 33.8984 11.3775 34.1016 12.8335C34.317 14.3877 33.8418 15.8167 33.2794 17.218C32.8645 18.2545 32.3236 19.241 31.8332 20.2396C31.3427 21.2381 30.7981 22.2111 30.2499 23.1706C28.7526 25.8038 27.3173 28.4785 25.4789 30.8977C24.8084 31.7809 24.1213 32.6432 23.468 33.5363C23.3164 33.7393 22.9616 33.6883 22.9323 33.9277C22.888 34.3522 22.6047 34.6044 22.3705 34.8908C21.8573 35.5116 21.371 36.1651 20.6833 36.6111C20.2493 36.896 19.7686 37.1027 19.2348 37.0338C18.3352 36.9131 17.4807 36.6249 16.7083 36.1447C16.0496 35.7359 15.4094 35.2353 15.0297 34.5718C14.5433 33.7156 14.522 32.7292 14.695 31.7639C14.9679 30.258 15.5396 28.8506 16.209 27.4826C16.9821 25.8952 17.7791 24.316 18.731 22.8263C19.8444 21.0766 20.7194 19.1835 22.1659 17.6318C23.2551 16.4605 24.5837 16.037 26.0901 15.9212C26.3848 15.8977 26.6159 15.9741 26.3785 16.3953L26.3748 16.3818Z" fill="black"/>
<path d="M15.5536 24.4553C15.7803 24.2216 15.8373 23.9241 16.091 23.7231C16.3164 23.5513 16.1081 23.4254 15.8947 23.3876C15.5338 23.3273 15.1753 23.2628 14.8484 23.074C14.1773 22.6866 13.8974 21.9097 14.1605 21.1958C14.6688 19.8087 15.4499 18.585 16.2366 17.3416C17.2643 15.7304 18.2368 14.0759 19.2965 12.4888C20.3876 10.8572 21.5536 9.27464 22.947 7.87454C23.3548 7.46626 23.7392 7.03881 24.1194 6.60888C24.9296 5.69238 26.0284 5.478 27.1651 5.41652C29.0221 5.30949 30.8294 5.56679 32.3875 6.68283C33.6169 7.56352 34.6701 8.61024 35.4338 9.97969C36.1331 11.2322 36.3495 12.5363 36.4489 13.9039C36.4742 14.2774 36.3518 14.6283 36.2455 14.9714C35.9792 15.8202 35.7742 16.7216 35.329 17.4728C34.9744 18.077 34.6672 18.7085 34.2929 19.307C33.9279 19.8995 33.8014 20.5955 33.4512 21.2022C32.6606 22.5914 31.9302 24.0154 31.1457 25.4139C30.4451 26.6671 29.7187 27.9054 28.9923 29.1437C28.3942 30.1598 27.7075 31.1306 27.1205 32.1474C26.4939 33.2326 25.8545 34.3103 25.1745 35.359C24.5019 36.3948 23.841 37.4601 22.9361 38.322C22.1373 39.0798 21.2598 39.7751 20.1082 39.8622C19.1283 39.9402 18.166 39.7891 17.2564 39.338C15.5472 38.4936 14.0129 37.4654 12.9489 35.8313C12.1094 34.5435 12.1109 33.1999 12.597 31.8115C12.8787 31.0057 13.1475 30.1925 13.4181 29.386C13.9914 27.6777 14.7191 26.0299 15.5358 24.4564L15.5536 24.4553ZM21.3442 15.6079C21.5806 15.4368 21.8343 15.2756 22.0584 15.086C23.0832 14.2251 24.2874 13.838 25.6106 13.7417C26.0947 13.7079 26.5169 13.9004 26.9627 14.0324C27.428 14.1701 27.8861 14.2808 28.2947 14.5565C28.836 14.9203 29.2406 15.3818 29.5978 15.9355C29.9647 16.5119 30.1157 17.0947 30.0692 17.7515C30.0018 18.8518 29.354 19.7254 28.9454 20.6914C28.622 21.4503 28.1332 22.1081 27.7238 22.8173C26.8629 24.3084 25.9916 25.7877 25.1178 27.2713C25.0586 27.3739 24.9759 27.5768 24.8389 27.4863C24.5501 27.291 24.2565 27.4519 23.9754 27.4321C23.5615 27.4039 23.3699 27.2192 23.2308 26.8939C23.0052 26.3706 22.9845 25.8403 23.1889 25.2975C23.7693 23.7755 24.7935 22.4984 25.5503 21.0782C26.0777 20.0953 26.7501 19.179 26.9923 18.0542C27.1285 17.4208 26.6656 16.8516 26.0155 16.875C25.735 16.884 25.4533 16.915 25.1733 16.9528C24.3004 17.064 23.5022 17.3836 22.9943 18.1044C22.1505 19.2977 21.3491 20.5268 20.5907 21.7808C19.2829 23.9367 18.007 26.1167 16.9598 28.4173C16.3445 29.7711 15.7637 31.1447 15.6919 32.6698C15.6728 33.0803 15.6538 33.4909 15.8746 33.8633C16.6685 35.2103 17.926 35.7939 19.4036 36.0261C19.657 36.0642 19.8281 35.9864 20.0301 35.8352C21.147 34.9933 21.8592 33.8095 22.7305 32.7573C24.6542 30.4387 26.326 27.9404 27.8436 25.3417C28.676 23.9197 29.4698 22.4753 30.2765 21.0384C31.2237 19.3579 32.0868 17.6346 32.7397 15.8183C33.1498 14.6709 33.365 13.4735 32.9264 12.2861C32.3261 10.6635 31.1173 9.61803 29.5172 9.00185C28.7759 8.71626 28.0249 8.67577 27.2766 8.93872C26.4945 9.2106 25.8706 9.74478 25.2855 10.3013C24.0468 11.4831 23.0195 12.8553 22.0505 14.2554C21.7694 14.6628 21.4164 15.0457 21.346 15.6146L21.3442 15.6079ZM26.3748 16.3818C26.6325 15.9951 26.8852 16.0442 27.1801 16.2486C28.1048 16.9021 28.1764 17.553 27.8513 18.6128C27.5404 19.6182 27.01 20.5766 26.4624 21.4852C25.8218 22.5452 25.1959 23.6194 24.5657 24.691C24.2999 25.1414 24.0526 25.6195 24.0499 26.1706C24.0498 26.2502 24.0287 26.3463 24.124 26.3899C24.2149 26.4311 24.2852 26.3691 24.3375 26.3081C24.4115 26.2198 24.4836 26.1247 24.5446 26.0289C25.2463 24.8732 25.959 23.7182 26.6478 22.555C27.0116 21.9447 27.2789 21.2731 27.7023 20.7086C28.1596 20.0954 28.5776 19.4708 28.8407 18.7568C29.2112 17.7574 29.3247 16.7462 28.4667 15.9375C26.7967 14.3696 25.0039 14.3257 23.2284 15.414C22.2336 16.0245 21.2324 16.7055 20.6348 17.7903C20.5855 17.8757 20.5146 17.9487 20.4524 18.0267C19.7449 18.974 18.9495 19.8649 18.3741 20.9112C18.3001 21.0394 18.1861 21.1673 18.2043 21.3145C18.2731 21.8213 17.9785 22.1924 17.7645 22.5929C17.0675 23.8995 16.153 25.0862 15.6151 26.4846C15.2237 27.5004 14.7492 28.4911 14.3817 29.5151C14.0611 30.418 13.7405 31.321 13.4722 32.2427C13.1872 33.2232 13.1144 34.1837 13.7023 35.0529C14.2393 35.8415 14.8311 36.5648 15.6556 37.1434C16.8347 37.9723 18.0293 38.6449 19.4739 38.7953C19.8361 38.8336 20.2008 38.8277 20.5375 38.6916C21.5868 38.255 22.3678 37.4983 23.039 36.604C23.8328 35.547 24.5344 34.4311 25.2403 33.3177C25.839 32.3702 26.4247 31.4153 27.0234 30.4678C28.1917 28.6131 29.2463 26.687 30.3028 24.7677C31.2107 23.1158 32.25 21.5341 33.0092 19.802C33.5535 18.5611 34.2257 17.377 34.7461 16.128C35.1813 15.0861 35.6768 14.0392 35.3729 12.827C35.2647 12.3885 35.079 11.9851 34.9455 11.5605C34.5005 10.1358 33.6006 9.0124 32.4856 8.07249C31.4131 7.16844 30.2036 6.56126 28.7534 6.47026C28.2442 6.4383 27.7251 6.42343 27.2306 6.44552C26.3774 6.48274 25.5063 6.60074 24.8718 7.28255C24.273 7.92233 23.6785 8.56461 23.103 9.22356C22.1394 10.3363 21.1967 11.4725 20.3928 12.7059C19.1845 14.5603 18.0038 16.4364 16.8127 18.3008C16.1882 19.2732 15.6257 20.2872 15.1542 21.3422C14.9913 21.7039 15.0283 22.067 15.4265 22.2913C15.8093 22.5123 16.2192 22.3786 16.4577 22.0151C17.0933 21.0434 17.5937 19.9879 18.1322 18.9658C18.9625 17.3887 19.9666 15.9177 20.8288 14.3647C21.1335 13.8171 21.5494 13.3452 21.9032 12.8317C22.9961 11.2467 24.2499 9.80023 25.7911 8.65069C26.9678 7.7749 28.3212 7.61635 29.7523 8.07805C30.5988 8.35032 31.3005 8.86363 31.9762 9.40188C33.0832 10.286 33.8984 11.3775 34.1016 12.8335C34.317 14.3877 33.8418 15.8167 33.2794 17.218C32.8645 18.2545 32.3236 19.241 31.8332 20.2396C31.3427 21.2381 30.7981 22.2111 30.2499 23.1706C28.7526 25.8038 27.3173 28.4785 25.4789 30.8977C24.8084 31.7809 24.1213 32.6432 23.468 33.5363C23.3164 33.7393 22.9616 33.6883 22.9323 33.9277C22.888 34.3522 22.6047 34.6044 22.3705 34.8908C21.8573 35.5116 21.371 36.1651 20.6833 36.6111C20.2493 36.896 19.7686 37.1027 19.2348 37.0338C18.3352 36.9131 17.4807 36.6249 16.7083 36.1447C16.0496 35.7359 15.4094 35.2353 15.0297 34.5718C14.5433 33.7156 14.522 32.7292 14.695 31.7639C14.9679 30.258 15.5396 28.8506 16.209 27.4826C16.9821 25.8952 17.7791 24.316 18.731 22.8263C19.8444 21.0766 20.7194 19.1835 22.1659 17.6318C23.2551 16.4605 24.5837 16.037 26.0901 15.9212C26.3848 15.8977 26.6159 15.9741 26.3785 16.3953L26.3748 16.3818Z" stroke="white" stroke-width="2" stroke-linejoin="round" mask="url(#path-1-outside-1_3727_8171)"/>
</svg>