<svg xmlns="http://www.w3.org/2000/svg" width="97" height="97" viewBox="0 0 97 97" fill="none">
  <g filter="url(#filter0_d_2378_5634)">
    <path d="M87.2529 31.0218C86.5326 30.0395 85.6312 29.2032 84.4077 29.3001C82.5995 29.4423 80.7519 29.3474 78.98 29.8342C77.9567 30.1132 77.449 29.8745 77.5111 28.714C77.6167 26.7899 77.334 24.8735 77.2822 22.9551C77.1787 19.1734 77.2221 15.3994 76.3074 11.6768C75.3863 7.92421 75.3371 7.78604 71.5105 7.48268C65.2108 6.98449 58.9007 7.2217 52.5939 7.14039C41.2594 6.99687 29.9306 7.08828 18.4336 7.73121C16.8191 7.75955 15.0804 8.13859 13.3279 8.44886C12.4009 8.61285 11.9624 9.14016 11.7484 10.009C11.3338 11.6777 11.3118 13.3751 11.3834 15.0678C11.6206 20.8197 11.4162 26.6189 13.1957 32.2161C13.8355 34.2234 14.8907 35.1828 16.9863 35.3993C18.4182 35.5478 19.0887 36.3238 18.9975 37.7272C18.9875 37.9058 18.9959 38.0853 18.9979 38.2625C19.0187 43.5312 19.3859 48.7971 19.1579 54.0698C19.1094 55.2165 18.8629 56.2266 17.819 56.8047C14.7383 58.5057 12.0575 60.8065 9.09312 62.6746C7.6464 63.5863 7.08923 64.8583 7.20848 66.5151C7.29001 67.6285 7.25783 68.758 7.41141 69.8632C8.03217 74.3139 6.93192 78.952 9.29815 83.2431C10.4524 85.3354 10.4703 85.9452 12.9072 86.0616C17.2092 86.2678 21.5213 86.2159 25.8117 86.6407C37.0253 87.7495 48.1789 89.4524 59.4376 90.1308C64.0732 90.4091 68.3439 89.7287 72.0891 86.7098C73.7432 85.3767 75.6497 84.3911 77.5913 83.4994C80.8217 82.017 83.9483 80.3444 86.8461 78.2667C87.4335 77.8447 88.0674 77.5643 88.8216 77.5914C90.4464 77.6536 90.8104 77.3796 90.9007 75.7203C91.1186 71.7704 90.8959 67.8494 89.8376 64.0146C89.307 62.0836 88.3707 60.462 86.3046 59.8108C85.6612 59.6089 85.3063 59.111 85.0805 58.4913C84.3348 56.4349 84.7965 55.0728 86.7741 54.07C88.8353 53.0269 89.9711 51.4166 90.0524 49.1189C90.1742 45.6328 90.1556 42.1412 89.8501 38.6671C89.6104 35.9289 88.9033 33.3052 87.2386 31.0296L87.2529 31.0218ZM75.4444 72.4743C75.5681 73.1852 75.6679 73.8988 75.781 74.6232C75.6682 73.9018 75.5681 73.1852 75.4444 72.4743C75.3549 72.1969 75.2688 71.9222 75.2244 71.6397C75.2715 71.9189 75.3549 72.1969 75.4444 72.4743Z" fill="#FBFBFB"/>
    <path d="M75.4444 72.4743C75.5681 73.1852 75.6679 73.8988 75.781 74.6232C75.6682 73.9018 75.5681 73.1852 75.4444 72.4743ZM75.4444 72.4743C75.3549 72.1969 75.2688 71.9222 75.2244 71.6397C75.2715 71.9189 75.3549 72.1969 75.4444 72.4743ZM87.2529 31.0218C86.5326 30.0395 85.6312 29.2032 84.4077 29.3001C82.5995 29.4423 80.7519 29.3474 78.98 29.8342C77.9567 30.1132 77.449 29.8745 77.5111 28.714C77.6167 26.7899 77.334 24.8735 77.2822 22.9551C77.1787 19.1734 77.2221 15.3994 76.3075 11.6768C75.3863 7.92421 75.3371 7.78604 71.5105 7.48268C65.2108 6.98449 58.9007 7.2217 52.5939 7.14039C41.2594 6.99687 29.9306 7.08828 18.4336 7.7312C16.8191 7.75955 15.0804 8.13859 13.3279 8.44886C12.4009 8.61285 11.9624 9.14016 11.7484 10.009C11.3338 11.6777 11.3118 13.3751 11.3834 15.0678C11.6206 20.8197 11.4162 26.6189 13.1957 32.2161C13.8355 34.2234 14.8907 35.1828 16.9863 35.3993C18.4182 35.5478 19.0887 36.3238 18.9975 37.7272C18.9875 37.9058 18.9959 38.0853 18.9979 38.2625C19.0187 43.5312 19.3859 48.7971 19.1579 54.0698C19.1094 55.2165 18.8629 56.2266 17.819 56.8047C14.7383 58.5057 12.0575 60.8065 9.09312 62.6746C7.6464 63.5863 7.08923 64.8583 7.20848 66.5151C7.29001 67.6285 7.25783 68.758 7.41141 69.8632C8.03217 74.3139 6.93192 78.952 9.29815 83.2431C10.4524 85.3354 10.4703 85.9452 12.9072 86.0616C17.2092 86.2678 21.5213 86.2159 25.8117 86.6407C37.0253 87.7495 48.1789 89.4524 59.4376 90.1308C64.0732 90.4091 68.3439 89.7287 72.0891 86.7098C73.7432 85.3767 75.6497 84.3911 77.5913 83.4994C80.8217 82.017 83.9483 80.3444 86.8461 78.2667C87.4335 77.8447 88.0674 77.5643 88.8216 77.5914C90.4464 77.6536 90.8104 77.3796 90.9007 75.7203C91.1186 71.7704 90.8959 67.8493 89.8376 64.0146C89.307 62.0836 88.3707 60.462 86.3046 59.8108C85.6612 59.6089 85.3063 59.111 85.0805 58.4913C84.3348 56.4349 84.7965 55.0728 86.7741 54.07C88.8353 53.0269 89.9711 51.4165 90.0524 49.1189C90.1742 45.6328 90.1556 42.1412 89.8501 38.6671C89.6104 35.9289 88.9033 33.3052 87.2386 31.0296L87.2529 31.0218Z" stroke="white" stroke-width="4" stroke-miterlimit="10" stroke-linejoin="round"/>
  </g>
  <path d="M18.541 7.72654C30.0415 7.08124 41.3768 6.98858 52.72 7.1238C59.0299 7.19934 65.3437 6.96331 71.6467 7.45753C75.4752 7.75849 75.5247 7.89924 76.4445 11.6375C77.3582 15.349 77.3166 19.1146 77.4153 22.8826C77.4664 24.7953 77.7515 26.7057 77.642 28.6246C77.5764 29.7821 78.0843 30.0199 79.1113 29.741C80.8844 29.2548 82.7302 29.3521 84.5421 29.2062C85.7663 29.1091 86.6708 29.9422 87.3882 30.9218C89.0529 33.1902 89.7593 35.8059 89.9981 38.536C90.3023 41.9999 90.3196 45.4813 90.1962 48.9573C90.114 51.2483 88.9739 52.8548 86.9142 53.8952C84.9322 54.8963 84.4697 56.2546 85.2179 58.3043C85.4437 58.9222 85.7985 59.4185 86.4422 59.6195C88.5065 60.2714 89.4422 61.8848 89.9754 63.8096C91.0297 67.6332 91.2514 71.5457 91.0344 75.4808C90.9434 77.1353 90.5761 77.4091 88.9534 77.3473C88.1985 77.3176 87.5615 77.6008 86.9766 78.0214C84.0764 80.0943 80.9445 81.7635 77.7148 83.2426C75.7717 84.1325 73.8637 85.116 72.2083 86.4458C68.4599 89.4574 64.1866 90.1375 59.5486 89.8619C48.2811 89.1904 37.1251 87.4965 25.906 86.3954C21.6134 85.9736 17.2959 86.0274 12.9947 85.8232C10.5566 85.7081 10.5385 85.0971 9.38451 83.0113C7.01871 78.7336 8.12141 74.1087 7.50209 69.6712C7.34921 68.5722 7.38187 67.446 7.30039 66.3329C7.18139 64.678 7.73971 63.4124 9.18758 62.5028C12.1539 60.6359 14.8374 58.3438 17.9205 56.6466C18.9652 56.0698 19.2123 55.0624 19.2612 53.9191C19.4915 48.6617 19.1232 43.4116 19.1074 38.1579C19.1051 37.9782 19.0969 37.7992 19.1073 37.6241C19.197 36.225 18.5266 35.4516 17.0959 35.3038C14.9993 35.0888 13.9408 34.1329 13.3046 32.1314C11.5264 26.5513 11.7332 20.7689 11.4982 15.0339C11.4301 13.3457 11.4499 11.6536 11.8653 9.98958C12.0828 9.12289 12.5187 8.59727 13.4463 8.4334C15.1999 8.12333 16.94 7.74771 18.555 7.71579L18.541 7.72654ZM75.8626 72.1927L75.6103 69.9827C75.1055 70.7846 75.3206 71.5226 75.5564 72.2552C75.8878 74.145 76.0408 76.0706 76.7585 78.0658C76.9646 75.901 76.1881 74.0833 75.8626 72.1927ZM11.0007 64.2052C11.9353 64.37 12.4909 64.4926 13.0526 64.5626C17.0357 65.0442 21.0438 64.7329 25.0292 64.9428C30.8916 65.2555 36.7521 65.3396 42.6192 65.2675C47.8633 65.2024 53.1423 65.2828 58.2857 66.2541C60.5279 66.6783 62.1307 66.7789 64.0376 65.3594C65.4622 64.2999 67.1157 63.4584 68.6511 62.49C70.2206 61.4994 70.7969 60.125 70.6403 58.3006C70.5709 57.5063 70.3908 57.2615 69.5506 57.2842C66.0412 57.38 62.5158 57.3891 59.0393 56.9198C52.1851 55.9944 45.2938 56.5831 38.4224 56.3063C35.7663 56.2009 33.0244 56.09 30.3358 56.4184C29.4925 56.5208 28.9115 56.2028 28.8382 55.3205C28.7545 54.2686 29.6375 54.5399 30.1622 54.5257C35.5396 54.3753 40.9175 54.176 46.2954 54.1628C53.9363 54.1443 61.5453 55.0445 69.1891 55.105C70.1757 55.1113 70.541 54.9262 70.545 53.8429C70.5555 50.8708 70.2074 47.8756 70.8623 44.9244C71.0248 44.1891 70.532 44.0837 70.0122 44.0881C68.9062 44.1016 68.5492 43.453 68.4839 42.4813C68.325 40.0776 68.1725 37.6762 67.9866 35.2756C67.77 32.4728 66.8899 31.5606 64.1005 31.1928C62.4138 30.9706 60.7257 31.2152 59.0398 31.2126C50.4159 31.203 41.7939 30.9705 33.1796 31.6309C29.8467 31.8865 26.5379 32.2735 23.2682 32.9488C22.3407 33.1402 21.3208 33.4274 21.3776 34.6441C21.5436 38.203 20.9859 41.7653 21.3482 45.311C21.6356 48.121 20.8915 50.9298 21.4008 53.7114C21.8118 55.9521 21.0327 57.4686 19.1738 58.6691C16.5301 60.3772 13.9565 62.1931 10.9947 64.2059L11.0007 64.2052ZM10.3608 76.8269C10.5119 78.896 10.896 80.4474 11.4699 81.9558C11.8184 82.8768 12.3883 83.3638 13.4544 83.4007C20.8214 83.6483 28.1697 84.1574 35.4936 85.0657C44.3514 86.1649 53.2101 87.2976 62.1553 87.4566C64.0486 87.4905 64.191 87.4315 63.9742 85.5865C63.7801 83.9402 63.4809 82.3059 63.2184 80.6735C62.9212 78.8437 63.1671 78.7852 61.442 78.6527C53.0313 78.0057 44.6141 77.4083 36.207 76.7121C31.1632 76.2937 26.1028 76.1029 21.0794 75.4626C20.3383 75.3672 19.7301 75.1835 19.7642 74.3103C19.7963 73.5258 20.353 73.2853 21.0625 73.2897C21.7295 73.2959 22.3967 73.2502 23.0596 73.2996C35.9467 74.2467 48.8343 75.1969 61.7185 76.1718C62.4983 76.2323 62.7244 76.0814 62.5585 75.2676C62.1499 73.2615 61.6749 71.2599 61.6757 69.1887C61.6777 68.5937 61.4033 68.1888 60.76 68.4972C59.9757 68.8765 59.1986 68.706 58.4081 68.6315C55.1365 68.331 51.8667 67.9937 48.5906 67.7608C44.4155 67.4629 40.2333 67.8215 36.0589 67.6881C27.7099 67.4215 19.3601 67.1213 11.0072 66.9802C10.1809 66.9647 9.88179 67.2765 9.92382 68.0708C10.0889 71.1418 10.236 74.2149 10.3705 76.8319L10.3608 76.8269ZM41.3918 17.9371C40.2793 18.6925 40.0205 19.57 40.7596 20.6874C41.2149 21.3705 41.1058 21.9869 40.3425 22.3364C39.4868 22.73 39.2052 22.1826 38.9334 21.4542C37.6046 17.9182 36.6849 14.3141 36.8879 10.4965C36.9339 9.64635 36.6022 9.2999 35.7093 9.34086C34.1992 9.41264 32.6788 9.47341 31.1761 9.37049C28.4287 9.184 25.695 9.75849 22.9313 9.40304C22.3508 9.32902 21.518 9.04286 20.9312 9.39353C20.2792 9.78521 19.6129 9.99856 18.9095 9.91417C17.4477 9.74253 16.0957 10.266 14.6928 10.4506C14.0094 10.5408 13.6863 10.9621 13.6588 11.6271C13.4786 15.7777 13.7741 19.9105 14.0549 24.0481C14.1114 24.8622 14.5454 25.2793 15.3877 25.0885C19.2694 24.203 23.2732 24.0935 27.182 24.0589C37.3092 23.9639 47.4514 23.9739 57.5714 24.6423C58.9849 24.7371 59.1225 24.5567 58.9644 23.1716C58.481 18.9657 58.1125 14.7527 58.1458 10.5152C58.152 9.84957 57.9031 9.58823 57.2583 9.45749C56.0122 9.20326 55.8283 9.91056 55.8014 10.8744C55.7016 14.5034 56.0744 18.0875 56.8026 21.6402C56.8837 22.0305 57.0535 22.3985 56.9341 22.8179C56.7832 23.3353 56.4693 23.7036 55.9454 23.7787C55.3678 23.863 55.1735 23.3605 55.0573 22.9559C54.8138 22.1022 54.6076 21.229 54.4798 20.3499C54.2847 18.9874 53.9821 18.7626 52.6584 19.0541C51.2813 19.3578 52.1723 20.3389 52.0716 21.0031C51.9926 21.5368 52.3722 22.2499 51.5442 22.4329C50.7429 22.6098 50.334 22.0129 50.0408 21.3906C49.9124 21.1185 49.9076 20.7835 49.8485 20.4792C49.5878 19.1821 48.7758 18.7593 47.0758 19.0328C45.6507 19.2626 46.5376 20.1283 46.6295 20.7461C46.7097 21.289 46.6301 21.7374 46.1071 21.9801C45.5984 22.2151 45.1632 22.0543 44.8043 21.6286C44.3541 21.0975 44.2358 20.4338 44.0237 19.8022C43.8723 19.3559 43.7817 18.7226 43.1228 18.8406C42.2733 18.9956 41.8021 18.5461 41.3978 17.9365L41.3918 17.9371ZM28.241 27.8697C28.3546 29.7174 28.3518 29.6933 30.23 29.4879C31.5552 29.3427 32.8863 29.2487 34.2154 29.164C42.4679 28.6395 50.731 28.6597 58.9931 28.7259C59.3891 28.7294 60.0376 28.9726 60.1298 28.3947C60.2161 27.845 59.9154 27.2632 59.3635 26.9602C59.1428 26.839 58.8463 26.8271 58.5835 26.8174C53.5239 26.6601 48.4643 26.4754 43.4045 26.3699C39.0215 26.2756 34.6298 26.4782 30.2555 26.0078C28.6228 25.8313 28.1447 26.3342 28.2379 27.87L28.241 27.8697ZM88.1795 73.2081C88.32 73.1859 88.4605 73.1638 88.6009 73.1416C88.6053 69.9293 88.4438 66.7297 87.3382 63.6563C86.9959 62.7102 86.1953 62.094 85.4185 61.4994C84.9884 61.1703 84.5995 61.2818 84.5558 61.8053C84.4839 62.6676 84.6549 63.7919 85.3726 64.0546C86.614 64.5077 86.588 65.4532 86.783 66.3612C87.2713 68.6389 87.7149 70.9247 88.1795 73.2081ZM76.8305 78.1369C76.6395 79.1287 76.2529 79.8469 75.3279 80.1661C75.1025 80.2437 74.9349 80.641 74.8517 80.925C74.7309 81.3323 74.631 81.7372 74.1235 81.7158C73.631 81.6928 73.1286 81.5824 72.9371 81.0247C72.7362 80.4376 72.5316 79.8448 72.4014 79.2375C71.9941 77.3227 71.49 75.4403 70.7487 73.4783C70.9169 74.9506 71.0094 76.2669 71.2303 77.5624C71.4827 79.0526 71.7484 80.5535 72.1868 81.9949C72.5959 83.3391 73.246 83.4632 74.3024 82.5891C74.8554 82.1295 75.4749 81.7994 76.1185 81.4941C77.9538 80.6196 78.042 80.2465 76.8275 78.1372L76.8305 78.1369ZM38.8753 11.7001C38.9484 12.8732 39.5505 13.385 40.6815 13.2355C40.8136 13.2204 40.9504 13.1926 41.0777 13.2147C42.4191 13.4245 43.0382 12.9572 42.6872 11.5363C42.6466 11.367 42.665 11.1819 42.6755 11.0069C42.7545 9.8164 42.2008 9.25738 41.0144 9.32983C39.4957 9.42395 38.7828 10.215 38.8756 11.7031L38.8753 11.7001ZM51.9764 12.9218C53.8389 12.7121 54.495 11.5574 53.7761 9.79109C53.6448 9.46751 53.4572 9.26322 53.102 9.27023C52.2247 9.28805 51.3434 9.29719 50.4692 9.34211C50.0246 9.36543 49.7555 9.64628 49.6434 10.077C49.2284 11.6922 50.3842 13.1005 51.9794 12.9214L51.9764 12.9218ZM74.7227 78.9693C74.2359 76.7586 73.5507 74.5949 73.7804 72.2902C73.7969 72.1145 73.5262 71.9288 73.4661 71.7222C72.8276 69.4617 72.5111 67.143 72.506 64.8071C72.5058 64.2459 72.2938 64.0414 72.0324 63.7235C71.8702 63.5285 71.6865 63.4122 71.4767 63.5734C71.0711 63.8851 71.2662 64.3143 71.3482 64.6862C71.9944 67.6809 72.2687 70.7486 73.1735 73.6894C73.7141 75.4395 73.8301 77.3082 74.7193 78.9667L74.7227 78.9693ZM44.6821 11.0736C44.8194 13.0223 45.1005 13.3257 46.6375 13.2234C47.4226 13.1703 47.9983 13.0161 47.9024 11.99C47.6995 9.81396 47.2663 9.32355 45.6771 9.3159C44.2035 9.30727 44.7052 10.2901 44.6794 11.077L44.6821 11.0736ZM68.6114 22.0426C69.5338 21.7542 69.3117 21.1146 69.2602 20.5837C69.0156 18.0952 69.0227 15.5993 68.9813 13.1059C68.9644 12.1317 69.0096 11.1688 70.3535 11.1069C70.7924 11.0872 70.9589 10.7601 70.9633 10.3723C70.9692 9.94457 70.7298 9.74008 70.2928 9.72289C69.8497 9.70638 69.409 9.60419 68.9687 9.61177C68.1886 9.62766 67.1888 9.55881 68.3348 10.7212C68.4657 10.8557 68.5148 11.1521 68.4834 11.357C68.1029 13.8864 69.3915 16.4844 68.1759 18.975C68.0452 19.2431 68.2691 19.3914 68.3664 19.551C68.8417 20.3295 69.1234 21.1178 68.6117 22.0456L68.6114 22.0426ZM66.7415 79.3927C66.9196 80.2325 67.0756 80.959 67.2316 81.6854C67.3753 82.3583 67.4549 83.0813 66.8544 83.5251C66.0238 84.1384 66.0392 84.9389 66.1688 85.7812C66.2374 86.2217 66.0542 86.8558 66.6947 87.0022C67.257 87.1302 67.7129 86.8067 68.0821 86.3893C68.5561 85.8502 68.695 85.2548 68.5013 84.5449C68.1374 83.223 67.8325 81.8852 67.4866 80.5613C67.3794 80.1556 67.3388 79.6936 66.7479 79.395L66.7415 79.3927ZM68.3406 75.0374C68.817 74.4401 68.5631 74.0024 68.5107 73.5966C68.2612 71.6516 67.961 69.7154 67.7235 67.7691C67.6278 66.9839 67.6672 66.1833 68.7987 66.2066C69.0945 66.2124 69.3507 66.1649 69.3827 65.8318C69.3962 65.6839 69.3237 65.4756 69.2152 65.3781C68.9611 65.151 68.7037 65.3481 68.4911 65.4852C67.4628 66.1517 66.6897 67.0025 66.9486 68.3364C67.3678 70.5152 67.8497 72.6838 68.3439 75.0401L68.3406 75.0374ZM85.5873 43.6608C85.4461 43.6769 85.3053 43.696 85.1645 43.7152C85.0647 45.1327 85.3608 46.5264 85.4933 47.9266C85.5788 48.8349 85.7251 49.6631 84.4653 50.0083C83.7038 50.2142 84.0014 51.0618 84.0988 51.6485C84.1696 52.0552 84.5237 52.2252 84.9232 52.0729C85.6577 51.7907 86.3949 51.3192 86.3341 50.4934C86.1676 48.2095 85.8472 45.9371 85.5873 43.6608ZM42.5903 16.8151C42.773 16.7637 43.3911 16.9005 43.4512 16.2013C43.5129 15.4622 42.9834 15.3823 42.4116 15.3043C41.5433 15.1869 40.6432 15.3781 39.7962 14.9685C39.2906 14.7242 39.1652 15.1717 39.1945 15.5344C39.2525 16.3086 39.5483 16.9276 40.4713 16.9106C41.0906 16.8979 41.7067 16.858 42.5903 16.8151ZM53.9165 15.8968C53.9137 15.2322 53.6042 15.0266 53.1581 15.0104C52.6757 14.9954 52.189 15.0235 51.7073 15.0419C51.2226 15.0606 50.6593 15.003 50.6981 15.7428C50.7325 16.3641 50.9722 16.8645 51.6958 16.913C52.0455 16.9371 52.4231 16.8604 52.743 16.9703C54.0658 17.4171 53.8081 16.4125 53.9165 15.8968ZM47.5704 16.9693C48.1281 16.9239 48.757 16.9161 48.6389 16.228C48.4292 15.0045 47.3756 15.2102 46.5283 15.1971C46.0195 15.1912 45.284 15.1989 45.4004 15.9512C45.6092 17.3274 46.8083 16.797 47.573 16.9659L47.5704 16.9693ZM81.3258 69.8089C81.4389 69.8143 81.5548 69.8163 81.668 69.8217C80.9226 66.3319 81.0922 62.7011 79.9581 59.271C80.17 61.9798 80.4598 64.6767 80.7975 67.368C80.9008 68.192 81.1448 68.9969 81.3258 69.8089ZM82.7015 59.1286C82.7166 57.6627 82.7412 56.1989 82.7443 54.7344C82.7442 54.3867 82.7448 53.9657 82.2363 53.9628C81.9228 53.962 81.7478 54.2412 81.747 54.5006C81.7362 56.0849 81.938 57.6388 82.7041 59.1252L82.7015 59.1286ZM76.621 50.9376C76.0915 52.2151 77.0503 53.4447 76.7134 54.7307C76.6541 54.9571 76.302 55.3908 76.8893 55.4183C77.336 55.4405 77.4891 55.0753 77.3916 54.6746C77.2037 53.8817 77.2642 53.1061 77.3677 52.3073C77.4442 51.7251 77.2137 51.1719 76.618 50.938L76.621 50.9376ZM85.8849 33.3445C85.9583 32.9213 85.6304 32.5012 85.3858 32.0381C85.114 31.5231 84.7115 31.3556 84.1787 31.4591C83.9405 31.5046 83.7972 31.6887 83.8695 31.9489C84.0098 32.4575 84.0801 33.0199 84.7771 33.102C85.1932 33.149 85.6669 33.0339 85.8882 33.3472L85.8849 33.3445ZM62.2698 10.2059C62.6029 9.9788 63.4428 10.4868 63.2664 9.82067C63.1119 9.24047 62.1851 9.54457 61.6072 9.43975C61.2936 9.38406 60.8634 9.53384 60.9711 9.89062C61.1962 10.6366 61.8124 10.1972 62.2724 10.2026L62.2698 10.2059ZM64.4093 16.9253C64.3963 15.6121 64.3641 14.478 63.9336 13.3986C63.9798 14.5494 63.5364 15.7561 64.4093 16.9253ZM74.5868 41.2506C76.1146 41.6801 76.2887 41.4467 75.8587 39.3058C75.6522 40.2688 75.1424 40.7602 74.5868 41.2506ZM73.3487 56.9725C73.0193 58.3248 72.9429 59.334 73.6553 60.5368C73.7956 59.261 73.5557 58.2788 73.3487 56.9725Z" fill="#040404"/>
  <path d="M11.0004 64.2052C13.9623 62.1924 16.5359 60.3764 19.1796 58.6684C21.0385 57.4678 21.818 55.9544 21.4066 53.7106C20.8976 50.9321 21.6418 48.1232 21.354 45.3103C20.9917 41.7646 21.5494 38.2023 21.3834 34.6434C21.3269 33.4297 22.3469 33.1424 23.274 32.9481C26.5467 32.2724 29.8525 31.8857 33.1854 31.6302C41.7997 30.9698 50.422 31.2053 59.0456 31.2118C60.7315 31.2145 62.4196 30.9699 64.1062 31.1921C66.8957 31.5599 67.7758 32.472 67.9924 35.2748C68.1783 37.6755 68.3308 40.0769 68.4897 42.4806C68.552 43.4526 68.912 44.1008 70.018 44.0874C70.5375 44.0799 71.0336 44.188 70.8681 44.9237C70.2132 47.8748 70.561 50.867 70.5508 53.8422C70.5467 54.9254 70.1785 55.1109 69.1949 55.1042C61.5514 55.0468 53.9421 54.1435 46.3011 54.162C40.9233 54.1753 35.5454 54.3746 30.168 54.525C29.6403 54.5395 28.7573 54.2682 28.844 55.3198C28.9143 56.2024 29.4953 56.5204 30.3415 56.4177C33.0302 56.0893 35.7718 56.1971 38.4282 56.3056C45.2966 56.5827 52.1909 55.9937 59.0451 56.9191C62.5216 57.3883 66.047 57.3792 69.5564 57.2835C70.3966 57.2608 70.5767 57.5056 70.6461 58.2998C70.8027 60.1243 70.2267 61.5017 68.6569 62.4892C67.1214 63.4576 65.465 64.2995 64.0434 65.3586C62.1365 66.7782 60.5307 66.6779 58.2915 66.2534C53.1508 65.2787 47.8691 65.2017 42.625 65.2667C36.7549 65.3392 30.897 65.2517 25.035 64.942C21.0492 64.7292 17.0385 65.0438 13.0584 64.5619C12.497 64.4949 11.9411 64.3692 11.0065 64.2045L11.0004 64.2052ZM30.4529 43.9113C31.0686 49.249 35.5976 52.993 40.6736 52.3615C45.9354 51.7057 49.4682 47.1784 48.8715 41.9269C48.2071 36.0823 43.1216 33.2468 38.6103 33.6278C33.8247 34.0309 29.8965 39.0914 30.4533 43.9143L30.4529 43.9113ZM54.4649 39.8576C55.1888 43.2126 56.4189 46.3907 57.9877 49.4448C58.4575 50.3611 59.0779 50.8119 60.1285 50.393C61.2314 49.9528 61.8032 49.0457 61.4939 47.989C61.3349 47.449 61.058 46.9163 60.7287 46.4568C60.2192 45.7524 60.3975 45.3416 61.1302 45.017C62.1036 44.5886 63.0521 44.102 64.039 43.7118C65.3079 43.2069 65.7301 42.2681 65.6584 40.9738C65.5476 38.8849 64.6821 37.1139 63.3769 35.5426C62.5654 34.5647 61.4742 34.308 60.245 34.5216C58.7356 34.7855 57.3853 35.4033 56.098 36.2274C54.7398 37.0963 54.1534 38.2491 54.4649 39.8576Z" fill="#FBFBFB"/>
  <path d="M10.3611 76.8271C10.2295 74.2098 10.0824 71.1367 9.91435 68.066C9.87232 67.2717 10.1718 66.963 10.9977 66.9754C19.351 67.1196 27.7004 67.4167 36.0494 67.6834C40.2239 67.8167 44.4061 67.4581 48.5811 67.7561C51.8572 67.9889 55.1274 68.3292 58.3987 68.6267C59.1918 68.6978 59.9659 68.8687 60.7505 68.4924C61.3934 68.181 61.6682 68.5889 61.6662 69.1839C61.6654 71.2551 62.1404 73.2567 62.549 75.2628C62.715 76.0766 62.4888 76.2275 61.7091 76.167C48.8248 75.1921 35.9373 74.2419 23.0501 73.2948C22.3872 73.2454 21.717 73.2914 21.053 73.2849C20.3432 73.2775 19.7869 73.521 19.7547 74.3055C19.7206 75.1787 20.3288 75.3624 21.0699 75.4578C26.0937 76.1011 31.1567 76.2885 36.1975 76.7073C44.605 77.4065 53.0218 78.0009 61.4325 78.648C63.1576 78.7804 62.9117 78.839 63.2089 80.6687C63.4744 82.3007 63.7736 83.9351 63.9647 85.5817C64.1815 87.4267 64.0391 87.4857 62.1458 87.4518C53.2006 87.2928 44.3419 86.1601 35.4841 85.0609C28.1602 84.1526 20.815 83.6432 13.4449 83.3959C12.3788 83.359 11.809 82.872 11.4604 81.951C10.8865 80.4426 10.5055 78.8908 10.3514 76.8221L10.3611 76.8271ZM62.2339 82.2014C62.9118 82.2765 63.1775 81.8588 63.4266 81.2691C63.7549 80.4935 63.0965 80.3765 62.7558 80.2446C62.1478 80.009 61.4649 79.8643 60.8146 79.8715C58.2351 79.9037 55.6819 79.6066 53.1157 79.4086C45.1521 78.7868 37.1753 78.3159 29.2041 77.7865C26.9017 77.6346 24.5951 77.5259 22.2963 77.3248C21.3679 77.2417 20.9171 77.6897 20.8048 78.4651C20.673 79.3891 21.5585 79.1232 22.0271 79.3107C22.2598 79.4031 22.5517 79.3484 22.8175 79.3577C27.5601 79.5634 32.2816 80.0644 37.0334 80.2172C40.1605 80.3176 43.2876 80.8969 46.4347 81.0927C51.7025 81.4214 56.9669 81.8268 62.2309 82.2018L62.2339 82.2014Z" fill="#FBFBFB"/>
  <path d="M41.3919 17.9367C41.7995 18.549 42.2704 18.9955 43.1168 18.8409C43.7724 18.7203 43.8663 19.3562 44.0177 19.8025C44.2298 20.4341 44.3482 21.0977 44.7983 21.6289C45.1569 22.0516 45.5925 22.2154 46.1011 21.9804C46.6241 21.7376 46.7041 21.2923 46.6235 20.7464C46.5316 20.1285 45.6451 19.2659 47.0698 19.0331C48.7665 18.757 49.5785 19.1797 49.8425 20.4795C49.9046 20.7835 49.9064 21.1188 50.0348 21.3909C50.331 22.0128 50.74 22.6097 51.5383 22.4332C52.3693 22.2498 51.9866 21.537 52.0657 21.0034C52.1629 20.3365 51.272 19.3554 52.6524 19.0544C53.9762 18.7629 54.2791 18.9907 54.4739 20.3502C54.5986 21.2296 54.8048 22.1028 55.0514 22.9562C55.1676 23.3608 55.3622 23.8663 55.9395 23.779C56.463 23.7009 56.7803 23.3353 56.9281 22.8181C57.0476 22.3988 56.8778 22.0308 56.7967 21.6405C56.0685 18.0878 55.6987 14.5033 55.7955 10.8747C55.8223 9.91085 56.0063 9.20354 57.2523 9.45777C57.8971 9.58851 58.146 9.84986 58.1399 10.5155C58.1035 14.7534 58.475 18.966 58.9584 23.1719C59.1166 24.557 58.9819 24.737 57.5655 24.6426C47.4454 23.9742 37.3032 23.9642 27.1761 24.0592C23.2706 24.0964 19.2665 24.2029 15.3818 25.0888C14.5398 25.2826 14.1054 24.8624 14.049 24.0484C13.7685 19.9138 13.4727 15.7779 13.6529 11.6274C13.6804 10.9623 14.0031 10.5381 14.6869 10.4509C16.0898 10.2663 17.4414 9.7398 18.9036 9.91445C19.6069 9.99884 20.2732 9.78549 20.9253 9.39381C21.509 9.04348 22.3449 9.3293 22.9253 9.40333C25.6921 9.75843 28.4227 9.18429 31.1702 9.37077C32.6758 9.47335 34.1963 9.41258 35.7033 9.34114C36.5929 9.29751 36.9245 9.64396 36.882 10.4968C36.679 14.3144 37.5987 17.9185 38.9274 21.4544C39.2022 22.1826 39.4835 22.7269 40.3365 22.3367C41.0998 21.9872 41.2093 21.3738 40.7537 20.6877C40.0115 19.5707 40.2733 18.6928 41.3858 17.9374L41.3919 17.9367Z" fill="#FBFBFB"/>
  <path d="M28.2407 27.8703C28.1475 26.3344 28.6255 25.8315 30.2583 26.008C34.6355 26.4781 39.0242 26.2759 43.4072 26.3701C48.4673 26.4786 53.5267 26.6603 58.5863 26.8177C58.849 26.8273 59.1455 26.8392 59.3663 26.9604C59.9148 27.2607 60.2185 27.8422 60.1325 28.395C60.0407 28.9758 59.3918 28.7297 58.9959 28.7261C50.7337 28.6599 42.4707 28.6397 34.2181 29.1642C32.889 29.2489 31.558 29.3429 30.2328 29.4882C28.3546 29.6935 28.3573 29.7176 28.2437 27.8699L28.2407 27.8703Z" fill="#FBFBFB"/>
  <path d="M88.1793 73.2083C87.7177 70.9245 87.2742 68.6387 86.7829 66.3614C86.5882 65.4564 86.6168 64.5075 85.3724 64.0549C84.6518 63.7925 84.4838 62.6678 84.5557 61.8056C84.599 61.279 84.9882 61.1705 85.4183 61.4996C86.1952 62.0942 86.9961 62.7134 87.3381 63.6565C88.4466 66.7296 88.6081 69.9291 88.6008 73.1419C88.4603 73.164 88.3198 73.1861 88.1793 73.2083Z" fill="#FBFBFB"/>
  <path d="M76.8303 78.1371C78.0418 80.2468 77.9536 80.6198 76.1213 81.494C75.4777 81.7993 74.8585 82.1324 74.3052 82.589C73.2488 83.4631 72.5987 83.339 72.1897 81.9949C71.7512 80.5534 71.4855 79.0525 71.2332 77.5623C71.0152 76.2665 70.9197 74.9505 70.7516 73.4782C71.4929 75.4402 71.9969 77.3226 72.4042 79.2374C72.5344 79.8447 72.7387 80.4345 72.9399 81.0246C73.1311 81.5793 73.6339 81.6927 74.1264 81.7157C74.6309 81.7374 74.734 81.3352 74.8545 80.9249C74.9377 80.6409 75.1083 80.2432 75.3307 80.166C76.2588 79.8465 76.642 79.1256 76.8333 78.1368L76.8303 78.1371Z" fill="#FBFBFB"/>
  <path d="M38.8753 11.7001C38.7822 10.21 39.4952 9.41895 41.0141 9.32684C42.2005 9.25439 42.7542 9.8134 42.6752 11.0039C42.6647 11.1789 42.6467 11.3671 42.6869 11.5333C43.0378 12.9543 42.4188 13.4215 41.0774 13.2117C40.9504 13.1926 40.8133 13.2174 40.6812 13.2325C39.5522 13.3818 38.9501 12.87 38.875 11.6971L38.8753 11.7001Z" fill="#FBFBFB"/>
  <path d="M51.9763 12.9218C50.3811 13.101 49.2254 11.6926 49.6403 10.0774C49.7521 9.64369 50.0215 9.36585 50.4661 9.34253C51.3433 9.29727 52.2217 9.28847 53.0989 9.27065C53.4541 9.26364 53.6418 9.46793 53.773 9.79151C54.495 11.5575 53.8358 12.7125 51.9733 12.9222L51.9763 12.9218Z" fill="#FBFBFB"/>
  <path d="M74.7226 78.9695C73.8334 77.311 73.7144 75.4427 73.1768 73.6922C72.269 70.7518 71.9974 67.6807 71.3515 64.689C71.2725 64.3168 71.0774 63.8876 71.48 63.5763C71.6898 63.415 71.8734 63.5313 72.0357 63.7263C72.2971 64.0442 72.5091 64.2487 72.5093 64.81C72.5144 67.1459 72.8279 69.4648 73.4694 71.725C73.5261 71.929 73.8002 72.1173 73.7837 72.293C73.551 74.5981 74.2362 76.7618 74.726 78.9721L74.7226 78.9695Z" fill="#FBFBFB"/>
  <path d="M44.6824 11.0739C44.7052 10.2874 44.2035 9.30458 45.6801 9.31287C47.2692 9.32051 47.7025 9.81092 47.9054 11.987C48.0012 13.0131 47.4255 13.1673 46.6405 13.2203C45.1039 13.3256 44.8224 13.0192 44.6851 11.0706L44.6824 11.0739Z" fill="#FBFBFB"/>
  <path d="M68.6114 22.0421C69.1231 21.1144 68.8418 20.3291 68.3661 19.5476C68.2688 19.3879 68.0479 19.2393 68.1756 18.9716C69.3912 16.481 68.1026 13.883 68.4831 11.3536C68.5145 11.1487 68.4654 10.8523 68.3345 10.7178C67.1885 9.5554 68.1879 9.62123 68.9684 9.60836C69.4087 9.60078 69.8494 9.70297 70.2925 9.71948C70.7265 9.73701 70.9689 9.94115 70.963 10.3689C70.9586 10.7567 70.7921 11.0838 70.3532 11.1034C69.0097 11.1684 68.9644 12.1313 68.981 13.1025C69.0224 15.5959 69.0153 18.0918 69.2599 20.5802C69.3114 21.1112 69.5365 21.7504 68.6111 22.0391L68.6114 22.0421Z" fill="#FBFBFB"/>
  <path d="M66.7417 79.3925C67.3329 79.6941 67.3761 80.1528 67.4803 80.5587C67.8266 81.8857 68.1315 83.2235 68.4951 84.5424C68.6921 85.255 68.5502 85.8507 68.0759 86.3868C67.7067 86.8041 67.2507 87.1277 66.6884 86.9997C66.051 86.8529 66.2312 86.2192 66.1626 85.7787C66.0329 84.9364 66.0176 84.1359 66.8482 83.5225C67.4516 83.0785 67.3721 82.3555 67.2253 81.6829C67.0693 80.9565 66.9134 80.23 66.7353 79.3902L66.7417 79.3925Z" fill="#FBFBFB"/>
  <path d="M68.3408 75.0375C67.8465 72.6812 67.3646 70.5126 66.9454 68.3339C66.6896 66.9996 67.4596 66.1491 68.488 65.4827C68.7005 65.3455 68.958 65.1484 69.2121 65.3756C69.3206 65.473 69.3931 65.6813 69.3795 65.8292C69.3476 66.1623 69.0943 66.2095 68.7955 66.204C67.6641 66.1807 67.6277 66.981 67.7204 67.7665C67.9549 69.7132 68.2581 71.649 68.5076 73.594C68.5604 74.0028 68.8138 74.4375 68.3374 75.0348L68.3408 75.0375Z" fill="#FBFBFB"/>
  <path d="M85.5875 43.6607C85.8475 45.9369 86.1678 48.2094 86.3343 50.4933C86.3952 51.319 85.6579 51.7906 84.9234 52.0727C84.524 52.2251 84.1699 52.0551 84.0991 51.6483C83.9986 51.062 83.704 50.2141 84.4655 50.0082C85.7257 49.666 85.579 48.8348 85.4935 47.9264C85.3607 46.5233 85.0646 45.1296 85.1647 43.715C85.3059 43.6989 85.4467 43.6798 85.5875 43.6607Z" fill="#FBFBFB"/>
  <path d="M42.5904 16.8157C41.7065 16.8556 41.0907 16.8985 40.4715 16.9113C39.5454 16.9286 39.2526 16.3093 39.1946 15.535C39.1684 15.172 39.2908 14.7249 39.7963 14.9691C40.643 15.3757 41.5434 15.1875 42.4118 15.3049C42.9866 15.3826 43.513 15.4628 43.4513 16.2019C43.3916 16.9042 42.7765 16.767 42.5904 16.8157Z" fill="#FBFBFB"/>
  <path d="M53.9164 15.8963C53.8079 16.412 54.0656 17.4166 52.7428 16.9698C52.4233 16.8629 52.0453 16.9366 51.6957 16.9124C50.9721 16.8639 50.7294 16.3639 50.6979 15.7422C50.6591 15.0024 51.2255 15.0597 51.7071 15.0413C52.1918 15.0226 52.6755 14.9948 53.1579 15.0099C53.6037 15.023 53.9131 15.2287 53.9164 15.8963Z" fill="#FBFBFB"/>
  <path d="M47.5705 16.9691C46.8057 16.8002 45.6066 17.3306 45.3978 15.9545C45.2844 15.2018 46.0199 15.1941 46.5257 15.2004C47.3757 15.2101 48.4266 15.0077 48.6363 16.2313C48.7541 16.9163 48.1251 16.9241 47.5678 16.9725L47.5705 16.9691Z" fill="#FBFBFB"/>
  <path d="M81.3257 69.8088C81.1448 68.9968 80.9004 68.1889 80.7975 67.368C80.4567 64.6769 80.17 61.9797 79.9581 59.271C81.0922 62.701 80.9226 66.3319 81.668 69.8216C81.5548 69.8162 81.4389 69.8142 81.3257 69.8088Z" fill="#FBFBFB"/>
  <path d="M82.7018 59.1286C81.9357 57.6422 81.7369 56.0879 81.7447 54.504C81.7451 54.2416 81.9201 53.9624 82.2339 53.9662C82.7424 53.9691 82.7448 54.3898 82.742 54.7378C82.7388 56.2023 82.7173 57.6658 82.6991 59.132L82.7018 59.1286Z" fill="#FBFBFB"/>
  <path d="M76.6211 50.9378C77.2138 51.1721 77.4473 51.725 77.3708 52.3072C77.2673 53.1059 77.2038 53.8818 77.3947 54.6745C77.4892 55.0754 77.3391 55.4403 76.8924 55.4181C76.3051 55.3906 76.6572 54.9569 76.7165 54.7305C77.0534 53.4445 76.0916 52.2153 76.6241 50.9375L76.6211 50.9378Z" fill="#FBFBFB"/>
  <path d="M85.8852 33.3449C85.6638 33.0316 85.1902 33.1467 84.774 33.0997C84.08 33.0173 84.0067 32.4552 83.8665 31.9466C83.7942 31.6865 83.9375 31.5023 84.1757 31.4568C84.7088 31.3563 85.111 31.5208 85.3828 32.0358C85.6274 32.4989 85.9583 32.9187 85.8819 33.3422L85.8852 33.3449Z" fill="#FBFBFB"/>
  <path d="M62.2697 10.2061C61.8096 10.2007 61.1935 10.6401 60.9683 9.89415C60.8607 9.53737 61.2938 9.38725 61.6045 9.44328C62.1824 9.5481 63.1091 9.244 63.2636 9.8242C63.4431 10.49 62.6031 9.98198 62.267 10.2095L62.2697 10.2061Z" fill="#FBFBFB"/>
  <path d="M75.8626 72.1932C76.191 74.0834 76.9646 75.9015 76.7584 78.0663C76.0407 76.071 75.8878 74.1455 75.5563 72.2556C75.6574 72.2349 75.7585 72.2142 75.8626 72.1932Z" fill="#FDFDFD"/>
  <path d="M64.4094 16.9256C63.5335 15.7567 63.9799 14.5497 63.9336 13.3989C64.3642 14.4783 64.3963 15.6124 64.4094 16.9256Z" fill="#FBFBFB"/>
  <path d="M74.5867 41.2511C75.1452 40.7603 75.652 40.2692 75.8585 39.3062C76.2859 41.4505 76.1144 41.6805 74.5867 41.2511Z" fill="#FBFBFB"/>
  <path d="M73.3487 56.9722C73.5524 58.2758 73.7926 59.261 73.6553 60.5364C72.9433 59.3366 73.0194 58.3244 73.3487 56.9722Z" fill="#FBFBFB"/>
  <path d="M75.8625 72.1923C75.7614 72.213 75.6603 72.2337 75.5563 72.2548C75.3171 71.5195 75.1054 70.7842 75.6101 69.9823L75.8625 72.1923Z" fill="#FBFBFB"/>
  <path d="M30.4533 43.9115C29.8965 39.0886 33.8251 34.0311 38.6104 33.625C43.1217 33.244 48.2072 36.0795 48.8716 41.9241C49.4712 47.1752 45.9358 51.7059 40.6736 52.3587C35.5976 52.9902 31.0656 49.2466 30.453 43.9085L30.4533 43.9115ZM46.5194 42.3483C46.4126 40.8537 45.817 39.6345 44.9367 38.5333C44.7731 38.3262 44.6386 38.0549 44.3243 38.0999C43.9289 38.1542 43.938 38.5009 43.8509 38.8037C42.8467 42.2126 41.3226 43.3078 37.7614 43.1624C37.1624 43.1393 36.8608 43.2957 36.8259 43.9494C36.7354 45.6617 37.7333 47.0729 39.4027 47.5441C40.4938 47.8527 41.6139 47.6699 42.7086 47.798C44.6821 48.0271 44.9245 47.9385 45.8597 46.1632C46.505 44.9396 46.7133 43.6469 46.5224 42.3479L46.5194 42.3483ZM39.003 41.166C40.5794 40.9555 42.1175 38.8918 41.9622 37.3448C41.8924 36.6268 41.5384 36.6977 41.0664 36.9072C39.8409 37.4467 38.7433 38.1729 37.9226 39.2458C37.5919 39.6801 37.0454 40.1695 37.4757 40.767C37.8442 41.277 38.5082 41.1493 39.003 41.166Z" fill="#040404"/>
  <path d="M54.4653 39.8571C54.1538 38.2486 54.7402 37.0958 56.0984 36.2269C57.3856 35.4028 58.736 34.785 60.2454 34.5211C61.4746 34.3075 62.5658 34.5642 63.3773 35.5421C64.6825 37.1134 65.5446 38.8817 65.6588 40.9733C65.7275 42.2679 65.3086 43.2094 64.0394 43.7113C63.0528 44.1045 62.1043 44.5911 61.1306 45.0165C60.3975 45.3381 60.2196 45.7519 60.7291 46.4563C61.0614 46.9155 61.3383 47.4482 61.4943 47.9885C61.8036 49.0452 61.2317 49.9523 60.1288 50.3925C59.0783 50.8114 58.4579 50.3606 57.9881 49.4443C56.4192 46.3902 55.1922 43.2117 54.4653 39.8571ZM60.5115 37.73C59.6348 38.2328 57.9671 38.0968 57.8103 39.4416C57.6129 41.1234 58.8133 42.789 59.6533 42.7114C60.5992 42.6278 62.7691 40.6078 62.651 39.9198C62.4103 38.5045 61.576 37.5932 60.5115 37.73Z" fill="#040404"/>
  <path d="M62.2335 82.2018C56.9695 81.8268 51.7051 81.4214 46.4373 81.0927C43.2902 80.8969 40.1635 80.3206 37.036 80.2172C32.2843 80.0644 27.5627 79.5634 22.8201 79.3577C22.554 79.3454 22.2624 79.4031 22.0297 79.3107C21.5611 79.1232 20.6756 79.3891 20.8074 78.4651C20.9167 77.69 21.3709 77.2447 22.2989 77.3248C24.5978 77.5259 26.9043 77.6346 29.2067 77.7865C37.1776 78.3129 45.1517 78.7871 53.1183 79.4086C55.6849 79.6096 58.2377 79.9037 60.8172 79.8715C61.4675 79.8643 62.1534 80.0087 62.7584 80.2446C63.0991 80.3765 63.7575 80.4935 63.4292 81.2691C63.1801 81.8588 62.9144 82.2765 62.2365 82.2014L62.2335 82.2018Z" fill="#040404"/>
  <path d="M46.5191 42.3477C46.7101 43.6466 46.4987 44.9397 45.8564 46.163C44.9212 47.9382 44.6788 48.0269 42.7054 47.7978C41.6106 47.6696 40.4905 47.8524 39.3995 47.5439C37.73 47.0727 36.7321 45.6615 36.8226 43.9491C36.8572 43.2925 37.1588 43.136 37.7581 43.1621C41.3224 43.3072 42.8464 42.212 43.8476 38.8034C43.9351 38.5037 43.9259 38.157 44.321 38.0997C44.6327 38.058 44.7671 38.3293 44.9334 38.533C45.8137 39.6343 46.4123 40.8531 46.5161 42.3481L46.5191 42.3477Z" fill="#FBFBFB"/>
  <path d="M39.0027 41.166C38.5079 41.1493 37.841 41.2773 37.4754 40.7669C37.0451 40.1694 37.5916 39.68 37.9224 39.2457C38.7431 38.1728 39.8407 37.4466 41.0661 36.9071C41.5385 36.7006 41.8891 36.6271 41.9619 37.3447C42.1143 38.8921 40.5787 40.9524 39.0027 41.166Z" fill="#FBFBFB"/>
  <path d="M60.5112 37.7304C61.5757 37.5935 62.41 38.5048 62.6507 39.9201C62.7688 40.6082 60.5989 42.6281 59.653 42.7117C58.8127 42.7864 57.6123 41.1208 57.81 39.4419C57.9668 38.0972 59.6348 38.2361 60.5112 37.7304Z" fill="#FBFBFB"/>
  <defs>
    <filter id="filter0_d_2378_5634" x="1.19287" y="1.08203" width="95.7837" height="95.1055" filterUnits="userSpaceOnUse" color-interpolation-filters="sRGB">
      <feFlood flood-opacity="0" result="BackgroundImageFix"/>
      <feColorMatrix in="SourceAlpha" type="matrix" values="0 0 0 0 0 0 0 0 0 0 0 0 0 0 0 0 0 0 127 0" result="hardAlpha"/>
      <feOffset/>
      <feGaussianBlur stdDeviation="2"/>
      <feComposite in2="hardAlpha" operator="out"/>
      <feColorMatrix type="matrix" values="0 0 0 0 0 0 0 0 0 0 0 0 0 0 0 0 0 0 0.25 0"/>
      <feBlend mode="normal" in2="BackgroundImageFix" result="effect1_dropShadow_2378_5634"/>
      <feBlend mode="normal" in="SourceGraphic" in2="effect1_dropShadow_2378_5634" result="shape"/>
    </filter>
  </defs>
</svg>