<svg width="48" height="48" viewBox="0 0 48 48" fill="none" xmlns="http://www.w3.org/2000/svg">
<path d="M4.15422 23.7882C4.37843 22.613 4.73937 21.7044 5.13432 20.7889C5.85703 19.1128 6.92167 17.6477 7.9888 16.2115C9.26999 14.4862 10.7571 12.9087 12.2521 11.3509C13.5675 9.97968 14.8829 8.63958 16.4245 7.49184C19.5024 5.20311 21.8157 5.54579 24.7438 7.42867C26.4865 8.54868 27.9847 9.98168 29.4865 11.3982C31.5447 13.3392 33.613 15.2714 35.6867 17.1968C37.0766 18.4874 38.5056 19.7356 39.8698 21.0481C40.7652 21.91 41.5925 22.8478 42.4254 23.7741C43.0101 24.4227 43.131 25.1326 42.5744 25.8848C42.0123 26.646 41.5039 27.4546 40.8969 28.1788C39.2351 30.1538 37.5931 32.1494 35.8265 34.0276C34.42 35.5231 33.0692 37.0708 31.5886 38.5054C30.3203 39.7345 29.1441 41.0378 27.6317 41.9966C27.2291 42.2517 26.8202 42.4656 26.4 42.6715C25.7161 43.0072 25.1618 42.8511 24.479 42.4769C22.0817 41.169 19.9833 39.4353 17.7257 37.9328C17.0853 37.5046 16.522 36.9485 15.9454 36.4393C13.5924 34.3579 11.2026 32.3191 9.02266 30.0434C7.74163 28.7065 6.44523 27.3826 5.24917 25.9687C4.68077 25.2951 3.97783 24.6301 4.15222 23.7832L4.15422 23.7882Z" fill="#060606"/>
<path d="M5.67028 23.5087C5.7487 22.5754 6.27569 21.8042 6.6704 21.013C7.61342 19.12 8.91093 17.4605 10.2258 15.7929C11.7771 13.8259 13.5407 12.0766 15.2289 10.2519C16.1383 9.26944 17.2768 8.53453 18.4472 7.88102C19.9077 7.06395 21.4003 7.26538 22.7496 8.06987C24.6238 9.19069 26.3264 10.5466 27.9548 12.0257C29.7974 13.6987 31.6369 15.3809 33.4611 17.0739C35.976 19.4071 38.7197 21.5049 40.9182 24.1813C41.3697 24.7308 41.295 25.1026 41.0493 25.6403C40.6273 26.5656 39.7944 27.1548 39.2146 27.9577C38.1137 29.4893 36.8557 30.92 35.5615 32.2952C33.6204 34.3557 31.7639 36.4946 29.7221 38.4682C28.7905 39.3677 27.9095 40.2926 26.8002 40.9605C26.2306 41.3028 25.7422 41.3719 25.0406 40.9627C22.2042 39.3118 19.5666 37.4136 17.0134 35.3547C15.3681 34.0296 13.7775 32.6467 12.2467 31.2039C10.0862 29.1665 7.9344 27.1105 6.09734 24.7615C5.7513 24.3199 5.60821 23.9014 5.66809 23.5061L5.67028 23.5087Z" fill="white"/>
<path d="M21.6272 35.1733C20.0245 34.944 18.7257 34.1053 17.493 33.1546C16.1276 32.1002 14.7542 31.0548 13.4494 29.9287C11.6252 28.3552 9.74553 26.7893 8.43352 24.7543C7.6476 23.5352 7.90904 22.1 8.60501 20.8234C9.4492 19.274 10.4619 17.8311 11.5695 16.4579C12.841 14.8848 14.0595 13.2574 15.63 11.9566C16.5865 11.1643 17.5081 10.331 18.7317 9.91115C20.3189 9.36703 21.7379 9.62242 23.176 10.422C25.2028 11.5477 26.8249 13.1673 28.4837 14.7158C29.9555 16.0893 31.3879 17.5674 32.492 19.2681C34.2143 21.9212 34.4909 23.8985 32.2667 26.5773C30.6952 28.4685 29.1037 30.339 27.3285 32.054C26.0191 33.3181 24.5809 34.3378 22.9021 35.042C22.462 35.2272 22.0471 35.0319 21.6295 35.1735L21.6272 35.1733Z" fill="#060606"/>
<path d="M22.1023 23.1531C22.0208 23.8519 21.877 24.6151 21.4114 25.274C20.5094 26.5558 18.8882 26.5618 18.0952 25.2203C17.1965 23.7031 17.0933 22.1029 17.9894 20.5313C18.8412 19.0375 20.6359 19.0141 21.5715 20.4577C22.0937 21.2615 22.1936 22.1467 22.1023 23.1531Z" fill="#FEFEFE"/>
<path d="M17.213 16.1339C17.7036 16.1583 18.1165 16.5901 18.105 17.0697C18.0924 17.5922 17.7072 17.93 17.1577 17.8962C16.6176 17.8631 16.2387 17.4842 16.2536 16.993C16.2679 16.5088 16.7154 16.109 17.213 16.1339Z" fill="#F1F1F1"/>
<path d="M21.1906 16.1033C21.6537 16.202 21.9343 16.4943 21.9558 16.9789C21.9766 17.4419 21.4583 17.8911 21.007 17.7933C20.5369 17.6917 20.2464 17.3747 20.305 16.8749C20.3624 16.3894 20.6793 16.1299 21.1906 16.1033Z" fill="#EDEDED"/>
</svg>
