
<svg width="40" height="11" viewBox="0 0 40 11" fill="none" xmlns="http://www.w3.org/2000/svg">
<path fill-rule="evenodd" clip-rule="evenodd" d="M40 10.9984C38.5426 10.9984 37.0855 11.0055 35.6281 10.9899C34.2332 10.9747 32.672 10.9531 31.3145 10.4441C29.8481 9.89399 28.8774 8.93222 27.9006 7.80035C27.1974 6.98626 25.8161 5.24932 25.1436 4.41068C24.5931 3.7231 23.5155 2.36401 22.9272 1.70647C22.1866 0.879258 21.2711 -1.63733e-06 19.9996 -1.74849e-06C18.728 -1.85965e-06 17.813 0.879257 17.0728 1.70562C16.4845 2.36274 15.4069 3.72267 14.856 4.40983C14.1843 5.24847 12.803 6.98541 12.0994 7.7995C11.1209 8.93137 10.1519 9.89314 8.68592 10.4432C7.32803 10.951 5.76637 10.9738 4.37231 10.989C2.91445 11.0047 1.45744 10.9975 2.18186e-10 10.9975" fill="#0A0A0A"/>
</svg>
