<svg width="32" height="32" viewBox="0 0 32 32" fill="none" xmlns="http://www.w3.org/2000/svg">
<path d="M13.4722 23.5831C13.8074 23.5831 14.1289 23.4499 14.3659 23.2129C14.603 22.9759 14.7361 22.6544 14.7361 22.3192V14.7358C14.7361 14.4006 14.603 14.0792 14.3659 13.8421C14.1289 13.6051 13.8074 13.472 13.4722 13.472C13.137 13.472 12.8155 13.6051 12.5785 13.8421C12.3415 14.0792 12.2083 14.4006 12.2083 14.7358V22.3192C12.2083 22.6544 12.3415 22.9759 12.5785 23.2129C12.8155 23.4499 13.137 23.5831 13.4722 23.5831ZM26.1111 8.4164H21.0556V7.15251C21.0556 6.14689 20.6561 5.18247 19.945 4.47139C19.2339 3.76032 18.2695 3.36084 17.2639 3.36084H14.7361C13.7305 3.36084 12.7661 3.76032 12.055 4.47139C11.3439 5.18247 10.9444 6.14689 10.9444 7.15251V8.4164H5.88889C5.55368 8.4164 5.23221 8.54955 4.99518 8.78658C4.75816 9.0236 4.625 9.34508 4.625 9.68028C4.625 10.0155 4.75816 10.337 4.99518 10.574C5.23221 10.811 5.55368 10.9442 5.88889 10.9442H7.15278V24.847C7.15278 25.8526 7.55226 26.817 8.26333 27.5281C8.97441 28.2391 9.93883 28.6386 10.9444 28.6386H21.0556C22.0612 28.6386 23.0256 28.2391 23.7367 27.5281C24.4477 26.817 24.8472 25.8526 24.8472 24.847V10.9442H26.1111C26.4463 10.9442 26.7678 10.811 27.0048 10.574C27.2418 10.337 27.375 10.0155 27.375 9.68028C27.375 9.34508 27.2418 9.0236 27.0048 8.78658C26.7678 8.54955 26.4463 8.4164 26.1111 8.4164ZM13.4722 7.15251C13.4722 6.8173 13.6054 6.49583 13.8424 6.2588C14.0794 6.02178 14.4009 5.88862 14.7361 5.88862H17.2639C17.5991 5.88862 17.9206 6.02178 18.1576 6.2588C18.3946 6.49583 18.5278 6.8173 18.5278 7.15251V8.4164H13.4722V7.15251ZM22.3194 24.847C22.3194 25.1822 22.1863 25.5036 21.9493 25.7407C21.7122 25.9777 21.3908 26.1108 21.0556 26.1108H10.9444C10.6092 26.1108 10.2878 25.9777 10.0507 25.7407C9.81371 25.5036 9.68056 25.1822 9.68056 24.847V10.9442H22.3194V24.847ZM18.5278 23.5831C18.863 23.5831 19.1845 23.4499 19.4215 23.2129C19.6585 22.9759 19.7917 22.6544 19.7917 22.3192V14.7358C19.7917 14.4006 19.6585 14.0792 19.4215 13.8421C19.1845 13.6051 18.863 13.472 18.5278 13.472C18.1926 13.472 17.8711 13.6051 17.6341 13.8421C17.397 14.0792 17.2639 14.4006 17.2639 14.7358V22.3192C17.2639 22.6544 17.397 22.9759 17.6341 23.2129C17.8711 23.4499 18.1926 23.5831 18.5278 23.5831Z" fill="#F5F5F5"/>
</svg>
