<svg xmlns="http://www.w3.org/2000/svg" width="33" height="39" viewBox="0 0 33 39" fill="none">
  <path d="M9.30391 33.6584C9.34222 33.1187 9.30938 32.462 9.33127 31.8833C9.38599 31.132 9.29297 30.4365 8.5214 30.481C7.72795 30.5088 6.96733 30.6813 6.16841 30.7425C5.46798 30.8037 4.66906 30.8371 4.37357 30.4142C3.0931 27.3035 2.40909 23.9536 1.85641 20.6314C0.997292 15.4284 -0.157318 10.2365 0.0177889 4.95006C0.0287331 4.15987 0.636134 3.68687 1.33109 3.49767C4.46112 2.52941 7.56926 1.52776 10.765 0.759829C17.7528 -1.11548 19.2139 0.297958 20.1386 7.05352C20.27 7.7825 21.0142 7.9884 21.6599 7.92162C23.1702 7.83815 24.6422 7.74355 26.1306 8.17203C26.5136 8.2722 26.9021 8.38349 27.2852 8.43357C27.7558 8.50591 28.2209 8.45583 28.686 8.43914C30.4699 8.35567 32.3304 9.8804 32.1225 11.7947C32.0787 14.9944 31.6683 18.183 31.1649 21.3437C30.3605 26.1516 29.7093 30.9929 28.5766 35.7341C28.2264 37.103 27.2688 38.0824 25.846 38.0323C21.348 38.1436 16.8827 38.2048 12.3956 38.2326C9.18353 38.5276 9.24372 36.4074 9.29297 33.7085V33.6529L9.30391 33.6584ZM5.68139 28.6557C5.83461 28.7392 6.02066 28.7504 6.22313 28.7281C10.2123 28.077 14.2999 27.4148 18.311 26.7359C19.3233 26.5412 20.467 26.3297 20.3356 24.9942C20.0401 21.366 19.5477 17.7656 19.1591 14.1485C18.8253 11.3161 18.497 8.48922 18.1194 5.66234C17.9662 3.95954 17.4026 1.7893 15.3943 1.76704C14.7815 1.71696 14.0263 1.84495 13.4134 1.96181C10.0536 2.62957 6.74845 3.28065 3.50351 4.4548C2.45834 4.85546 1.30373 5.0391 1.45147 6.43584C1.97679 12.084 3.22443 17.6487 3.98505 23.2747C4.06713 25.0443 4.4064 26.5912 5.26552 28.1772C5.35854 28.3553 5.47893 28.5278 5.63762 28.6279L5.68139 28.6557ZM23.6134 9.6745C22.4807 9.68563 20.5873 9.32949 20.6694 10.6984C20.7023 11.8614 20.8336 12.941 22.2563 12.9299C23.4164 13.0133 24.5437 13.0968 25.7037 13.2415C26.8802 13.2971 27.8433 14.1318 27.8652 15.3783C27.6244 19.474 27.1484 23.5362 26.7434 27.6096C26.6395 28.8004 26.3768 30.225 25.058 30.5533C24.5218 30.7147 23.9363 30.7314 23.3891 30.7314C21.0963 30.7091 17.1673 31.1599 15.1864 30.4643C14.6556 30.2751 14.1631 29.8689 13.5831 29.8076C13.003 29.7687 12.4066 29.9078 11.8813 30.1304C11.4763 30.3252 11.3778 30.7982 11.3669 31.2266C11.3395 32.4731 11.3286 33.7196 11.3286 34.9717C11.3012 35.8954 11.7062 36.2961 12.6364 36.2572C16.7624 36.2572 20.8555 36.1069 24.9924 36.0679C25.9719 36.0846 26.6997 35.7508 26.8748 34.6879C27.8981 29.5016 28.6587 24.3041 29.6874 19.1123C29.9993 17.1535 30.9186 12.3289 29.9172 10.7095C29.6218 10.3311 29.1457 10.2421 28.697 10.1865C26.9514 9.975 25.3207 9.79136 23.69 9.6745H23.6189H23.6134Z" fill="#0A0A0A"/>
  <path d="M5.77747 28.6367C5.61694 28.5373 5.49516 28.3661 5.40106 28.1893C4.86412 27.0902 4.43236 26.1457 4.2663 24.9858C3.66293 18.9487 2.19051 12.989 1.55946 6.95199C1.35465 5.25631 2.25693 5.12928 3.62419 4.6377C6.9067 3.47779 10.2501 2.82603 13.6489 2.16323C14.2633 2.04171 15.0327 1.9202 15.6527 1.96991C17.6842 1.99753 18.2544 4.14612 18.4094 5.83627C18.7913 8.64214 19.1234 11.448 19.4611 14.2594C19.8264 17.3249 20.1641 20.3959 20.5184 23.4669C20.7066 25.3669 21.0774 26.3721 18.7415 26.7256C14.6397 27.4161 10.4549 28.0733 6.3753 28.7306C6.17049 28.7527 5.98228 28.7417 5.82729 28.6588L5.78301 28.6312L5.77747 28.6367ZM3.34188 8.26103C3.80132 11.5143 4.61503 14.7344 5.30142 17.949C5.46195 18.6063 5.8439 19.2194 6.41405 19.595C7.07277 20.07 7.82559 20.081 8.56734 19.8988C10.6321 19.4679 12.7078 19.0537 14.7061 18.3798C17.2746 17.6121 18.0329 15.7728 17.6233 13.2486C17.3355 10.8957 17.0587 8.5869 16.721 6.25604C16.6214 5.49934 16.3945 4.67636 15.7634 4.20687C14.5511 3.37285 12.8794 3.63797 11.4901 3.74291C8.42341 4.01908 4.16112 4.68741 3.34188 8.18922V8.24998V8.26103Z" fill="white"/>
  <path d="M23.9007 9.64789C25.5376 9.76549 27.1744 9.94467 28.9266 10.1631C29.3771 10.2191 29.8604 10.3086 30.1515 10.6894C31.1567 12.3077 30.2339 17.185 29.9208 19.1448C28.9211 24.2181 28.1631 29.2802 27.1964 34.3478C27.1085 34.8238 26.9987 35.4005 26.6856 35.7421C26.2187 36.2517 25.3838 36.1901 24.7411 36.2125C20.5556 36.1957 16.3535 36.5261 12.179 36.3301C11.5253 36.1845 11.4924 35.5461 11.5143 34.9918C11.5803 33.6927 11.2672 31.3072 11.7725 30.3945C11.9098 30.2321 12.1295 30.1705 12.3273 30.1089C12.7997 29.9969 13.3654 29.8177 13.8818 29.9241C14.5409 30.0585 15.0902 30.5961 15.7493 30.7193C18.6605 31.0832 21.5992 30.8928 24.5324 30.7977C26.3505 30.7025 26.8613 29.325 26.9657 27.6955C27.3996 23.8653 27.6908 20.0464 28.0807 16.1994C28.2785 14.8835 27.6798 13.422 26.2571 13.2876C24.9883 13.0917 23.7359 13.0189 22.4616 12.9237C22.0002 12.8845 21.5388 12.8173 21.2971 12.5037C20.9346 11.9997 20.8906 11.2886 20.8686 10.6838C20.7808 9.30632 22.6868 9.64789 23.8238 9.64789H23.8952H23.9007Z" fill="white"/>
  <path d="M3.06079 8.18349C3.88874 4.58091 8.19073 3.9001 11.2955 3.61644C12.6997 3.50864 14.3892 3.23632 15.6143 4.093C16.2521 4.58091 16.4814 5.42056 16.5821 6.19781C16.9234 8.59197 17.1975 10.9634 17.494 13.3803C17.908 15.973 17.1416 17.8679 14.5458 18.6508C12.5263 19.3373 10.434 19.7685 8.34178 20.211C7.58655 20.3982 6.82573 20.3869 6.16561 19.899C5.5894 19.5075 5.20339 18.8834 5.04116 18.2083C4.34747 14.9007 3.52512 11.5932 3.06079 8.25724V8.19484V8.18349Z" fill="#0A0A0A"/>
  <path d="M9.68163 13.3743C8.51492 13.2356 7.5125 12.3744 7.21211 11.2435C7.17374 11.0967 7.1482 10.9415 7.15927 10.7916C7.17774 10.5403 7.30746 10.3552 7.57529 10.3124C7.83118 10.2713 8.03435 10.3602 8.14121 10.6028C8.21272 10.7651 8.24835 10.9451 8.31645 11.1091C8.87894 12.4571 10.5826 12.7411 11.5271 11.6275C11.8385 11.2594 12.0677 10.8193 12.3316 10.4109C12.5113 10.1333 12.7573 10.029 13.0539 10.1823C13.3147 10.3193 13.4086 10.5917 13.2871 10.8407C12.7146 12.0152 12.0531 13.1039 10.597 13.3479C10.2891 13.3999 9.98734 13.4127 9.67992 13.3751L9.68163 13.3743Z" fill="#FEFEFE"/>
  <path d="M9.31805 8.19325C9.27544 8.49468 9.02649 8.66627 8.70722 8.61333C8.41691 8.56311 8.20285 8.28836 8.24274 8.01588C8.28345 7.74938 8.59403 7.53042 8.86475 7.57967C9.14312 7.63152 9.35626 7.91736 9.31805 8.19325Z" fill="#F1F1F1"/>
  <path d="M11.3225 7.50085C11.5948 7.57056 11.7394 7.76483 11.7131 8.05186C11.6867 8.35168 11.4771 8.49537 11.1908 8.49205C10.907 8.48959 10.6829 8.17727 10.7424 7.9015C10.7933 7.65551 11.0654 7.4619 11.3216 7.49914L11.3225 7.50085Z" fill="#EDEDED"/>
</svg>