<svg xmlns="http://www.w3.org/2000/svg" width="68" height="81" viewBox="0 0 68 81" fill="none">
  <path d="M20.0497 70.5385C20.1295 69.4139 20.0611 68.0459 20.1067 66.8403C20.2207 65.2752 20.0269 63.826 18.4194 63.9188C16.7664 63.9767 15.1818 64.3361 13.5174 64.4637C12.0581 64.5912 10.3937 64.6607 9.7781 63.7797C7.11046 57.2991 5.68544 50.32 4.53402 43.3989C2.74419 32.5593 0.338759 21.7429 0.703564 10.7294C0.726364 9.08315 1.99178 8.09773 3.4396 7.70356C9.9605 5.68635 16.4358 3.59958 23.0935 1.99973C37.6515 -1.90717 40.6954 1.03749 42.622 15.1116C42.8956 16.6303 44.446 17.0592 45.7912 16.9201C48.9377 16.7462 52.0043 16.5491 55.1052 17.4418C55.9032 17.6505 56.7126 17.8824 57.5106 17.9867C58.491 18.1374 59.46 18.0331 60.4291 17.9983C64.1455 17.8244 68.0216 21.0009 67.5884 24.989C67.4972 31.655 66.6422 38.2979 65.5933 44.8828C63.9175 54.8993 62.5609 64.9854 60.2011 74.8627C59.4714 77.7146 57.4764 79.755 54.5124 79.6507C45.1414 79.8826 35.8389 80.0101 26.4907 80.068C19.7988 80.6825 19.9243 76.2655 20.0269 70.6428V70.5269L20.0497 70.5385ZM12.5027 60.1162C12.8219 60.2901 13.2096 60.3133 13.6314 60.2669C21.9421 58.9105 30.458 57.531 38.8143 56.1166C40.9234 55.7108 43.306 55.2703 43.0324 52.4879C42.4168 44.9292 41.3908 37.4284 40.5814 29.8929C39.8859 23.9919 39.2019 18.1026 38.4153 12.2133C38.0961 8.66579 36.9219 4.14446 32.738 4.09809C31.4612 3.99375 29.888 4.26039 28.6112 4.50385C21.6115 5.89503 14.7258 7.25143 7.96547 9.69758C5.78804 10.5323 3.3826 10.9149 3.69041 13.8247C4.78483 25.5918 7.38406 37.185 8.96869 48.9056C9.13969 52.5923 9.8465 55.8152 11.6363 59.1192C11.8301 59.4902 12.0809 59.8496 12.4115 60.0583L12.5027 60.1162ZM49.8611 20.572C47.5013 20.5952 43.5568 19.8532 43.7278 22.7051C43.7962 25.1281 44.0698 27.3771 47.0339 27.354C49.4507 27.5279 51.7991 27.7018 54.216 28.0032C56.667 28.1191 58.6734 29.8581 58.719 32.455C58.2174 40.9875 57.2256 49.4505 56.382 57.9367C56.1654 60.4176 55.6182 63.3855 52.8707 64.0695C51.7535 64.4057 50.5337 64.4405 49.3937 64.4405C44.617 64.3941 36.4317 65.3331 32.3048 63.884C31.199 63.4898 30.173 62.6435 28.9646 62.516C27.7562 62.4349 26.5135 62.7247 25.4191 63.1884C24.5755 63.5942 24.3703 64.5796 24.3475 65.4723C24.2905 68.0691 24.2677 70.666 24.2677 73.2745C24.2107 75.1989 25.0543 76.0336 26.9924 75.9525C35.5881 75.9525 44.1154 75.6395 52.7339 75.5583C54.7746 75.5931 56.2908 74.8975 56.6556 72.6832C58.7874 61.8784 60.3721 51.0504 62.5153 40.234C63.1651 36.1532 65.0803 26.1019 62.9941 22.7283C62.3785 21.94 61.3867 21.7545 60.4519 21.6385C56.8152 21.198 53.418 20.8154 50.0207 20.572H49.8725H49.8611Z" fill="#0A0A0A"/>
  <path d="M12.7023 60.0765C12.3679 59.8693 12.1142 59.5126 11.9181 59.1444C10.7995 56.8545 9.9 54.8868 9.55403 52.4703C8.29702 39.8932 5.22947 27.4771 3.9148 14.8999C3.48811 11.3673 5.36785 11.1026 8.2163 10.0785C15.0549 7.66202 22.0203 6.30419 29.1011 4.92335C30.3811 4.6702 31.9841 4.41704 33.2757 4.52061C37.508 4.57814 38.6958 9.05437 39.0187 12.5755C39.8145 18.4211 40.5064 24.2666 41.2098 30.1237C41.971 36.5101 42.6744 42.908 43.4125 49.3059C43.8046 53.2643 44.5772 55.3586 39.7107 56.095C31.1653 57.5334 22.447 58.9028 13.9478 60.2721C13.5211 60.3181 13.129 60.2951 12.8061 60.1225L12.7138 60.065L12.7023 60.0765ZM7.62816 17.6271C8.58533 24.4047 10.2806 31.1133 11.7105 37.8104C12.045 39.1797 12.8407 40.457 14.0285 41.2395C15.4008 42.2291 16.9692 42.2521 18.5145 41.8724C22.816 40.9748 27.1406 40.1118 31.3037 38.7079C36.6546 37.1085 38.2345 33.2766 37.3812 28.0179C36.7815 23.1159 36.2049 18.306 35.5014 13.4501C35.2938 11.8736 34.821 10.159 33.5064 9.18095C30.9808 7.44339 27.4981 7.99573 24.6035 8.21436C18.2147 8.78971 9.33492 10.1821 7.62816 17.4775V17.6041V17.6271Z" fill="white"/>
  <path d="M50.4597 20.5164C53.8698 20.7614 57.2799 21.1347 60.9304 21.5897C61.8687 21.7064 62.8758 21.893 63.4823 22.6863C65.5764 26.0577 63.6539 36.2187 63.0016 40.3018C60.9189 50.871 59.3397 61.417 57.3257 71.9746C57.1426 72.9662 56.9137 74.1678 56.2615 74.8794C55.2888 75.941 53.5494 75.8127 52.2105 75.8593C43.4906 75.8243 34.7364 76.5126 26.0394 76.1043C24.6776 75.801 24.609 74.4711 24.6548 73.3162C24.7921 70.6097 24.1398 65.64 25.1926 63.7385C25.4787 63.4002 25.9364 63.2719 26.3484 63.1435C27.3325 62.9102 28.5112 62.5369 29.5869 62.7586C30.9601 63.0385 32.1044 64.1585 33.4776 64.4151C39.5426 65.1734 45.6649 64.7768 51.7757 64.5784C55.5634 64.3801 56.6277 61.5103 56.8451 58.1155C57.7491 50.1361 58.3556 42.18 59.1681 34.1655C59.5801 31.424 58.3327 28.3792 55.3689 28.0993C52.7255 27.691 50.1164 27.5393 47.4615 27.341C46.5002 27.2593 45.539 27.1193 45.0355 26.466C44.2802 25.4161 44.1887 23.9345 44.1429 22.6746C43.9598 19.8048 47.9307 20.5164 50.2994 20.5164H50.4482H50.4597Z" fill="white"/>
  <path d="M7.04395 17.4655C8.76884 9.9601 17.7313 8.54176 24.1997 7.95079C27.125 7.72622 30.6448 7.15888 33.1971 8.94362C34.5258 9.9601 35.0036 11.7094 35.2134 13.3287C35.9243 18.3165 36.4954 23.257 37.1131 28.2921C37.9756 33.6936 36.3789 37.6414 30.9711 39.2724C26.7637 40.7026 22.4049 41.6009 18.046 42.5228C16.4726 42.9128 14.8876 42.8892 13.5123 41.8727C12.3119 41.0572 11.5077 39.757 11.1697 38.3505C9.72453 31.4598 8.01129 24.569 7.04395 17.6191V17.4891V17.4655Z" fill="#0A0A0A"/>
  <path d="M20.8367 28.2798C18.4061 27.9909 16.3177 26.1966 15.6919 23.8406C15.612 23.5348 15.5587 23.2114 15.5818 22.899C15.6203 22.3755 15.8906 21.99 16.4485 21.9009C16.9816 21.8151 17.4049 22.0004 17.6275 22.5058C17.7765 22.844 17.8507 23.219 17.9926 23.5607C19.1645 26.3689 22.7137 26.9606 24.6815 24.6407C25.3303 23.8738 25.8077 22.9569 26.3576 22.106C26.7319 21.5276 27.2444 21.3103 27.8622 21.6298C28.4057 21.9152 28.6013 22.4827 28.348 23.0014C27.1554 25.4483 25.7773 27.7165 22.7438 28.2249C22.1023 28.3331 21.4736 28.3597 20.8332 28.2815L20.8367 28.2798Z" fill="#FEFEFE"/>
  <path d="M20.079 17.4859C19.9903 18.1139 19.4716 18.4714 18.8065 18.3611C18.2016 18.2565 17.7557 17.6841 17.8388 17.1164C17.9236 16.5612 18.5706 16.105 19.1346 16.2076C19.7146 16.3157 20.1586 16.9111 20.079 17.4859Z" fill="#F1F1F1"/>
  <path d="M24.2546 16.0434C24.8219 16.1887 25.1232 16.5934 25.0683 17.1914C25.0133 17.816 24.5766 18.1154 23.9801 18.1084C23.389 18.1033 22.9222 17.4527 23.0461 16.8781C23.152 16.3656 23.7189 15.9623 24.2528 16.0399L24.2546 16.0434Z" fill="#EDEDED"/>
</svg>