<svg width="48" height="48" viewBox="0 0 48 48" fill="none" xmlns="http://www.w3.org/2000/svg">
<path d="M17.3039 38.6584C17.3422 38.1187 17.3094 37.462 17.3313 36.8833C17.386 36.132 17.293 35.4365 16.5214 35.481C15.728 35.5088 14.9673 35.6813 14.1684 35.7425C13.468 35.8037 12.6691 35.8371 12.3736 35.4142C11.0931 32.3035 10.4091 28.9536 9.85641 25.6314C8.99729 20.4284 7.84268 15.2365 8.01779 9.95006C8.02873 9.15987 8.63613 8.68687 9.33109 8.49767C12.4611 7.52941 15.5693 6.52776 18.765 5.75983C25.7528 3.88452 27.2139 5.29796 28.1386 12.0535C28.27 12.7825 29.0142 12.9884 29.6599 12.9216C31.1702 12.8381 32.6422 12.7435 34.1306 13.172C34.5136 13.2722 34.9021 13.3835 35.2852 13.4336C35.7558 13.5059 36.2209 13.4558 36.686 13.4391C38.4699 13.3557 40.3304 14.8804 40.1225 16.7947C40.0787 19.9944 39.6683 23.183 39.1649 26.3437C38.3605 31.1516 37.7093 35.9929 36.5766 40.7341C36.2264 42.103 35.2688 43.0824 33.846 43.0323C29.348 43.1436 24.8827 43.2048 20.3956 43.2326C17.1835 43.5276 17.2437 41.4074 17.293 38.7085V38.6529L17.3039 38.6584ZM13.6814 33.6558C13.8346 33.7392 14.0207 33.7504 14.2231 33.7281C18.2123 33.077 22.2999 32.4148 26.311 31.7359C27.3233 31.5412 28.467 31.3297 28.3356 29.9942C28.0401 26.366 27.5477 22.7656 27.1591 19.1485C26.8253 16.3161 26.497 13.4892 26.1194 10.6623C25.9662 8.95954 25.4026 6.7893 23.3943 6.76704C22.7815 6.71696 22.0263 6.84495 21.4134 6.96181C18.0536 7.62957 14.7485 8.28065 11.5035 9.4548C10.4583 9.85546 9.30373 10.0391 9.45147 11.4358C9.97679 17.084 11.2244 22.6487 11.985 28.2747C12.0671 30.0443 12.4064 31.5912 13.2655 33.1772C13.3585 33.3553 13.4789 33.5278 13.6376 33.6279L13.6814 33.6558ZM31.6134 14.6745C30.4807 14.6856 28.5873 14.3295 28.6694 15.6984C28.7023 16.8614 28.8336 17.941 30.2563 17.9299C31.4164 18.0133 32.5437 18.0968 33.7037 18.2415C34.8802 18.2971 35.8433 19.1318 35.8652 20.3783C35.6244 24.474 35.1484 28.5362 34.7434 32.6096C34.6395 33.8004 34.3768 35.225 33.058 35.5533C32.5218 35.7147 31.9363 35.7314 31.3891 35.7314C29.0963 35.7091 25.1673 36.1599 23.1864 35.4643C22.6556 35.2751 22.1631 34.8689 21.5831 34.8076C21.003 34.7687 20.4066 34.9078 19.8813 35.1304C19.4763 35.3252 19.3778 35.7982 19.3669 36.2266C19.3395 37.4731 19.3286 38.7196 19.3286 39.9717C19.3012 40.8954 19.7062 41.2961 20.6364 41.2572C24.7624 41.2572 28.8555 41.1069 32.9924 41.0679C33.9719 41.0846 34.6997 40.7508 34.8748 39.6879C35.8981 34.5016 36.6587 29.3041 37.6874 24.1123C37.9993 22.1535 38.9186 17.3289 37.9172 15.7095C37.6218 15.3311 37.1457 15.2421 36.697 15.1865C34.9514 14.975 33.3207 14.7914 31.69 14.6745H31.6189H31.6134Z" fill="black"/>
<path d="M13.7774 33.6366C13.6168 33.5372 13.495 33.366 13.4009 33.1892C12.864 32.0901 12.4322 31.1456 12.2662 29.9857C11.6628 23.9486 10.1904 17.9889 9.55934 11.9519C9.35453 10.2562 10.2568 10.1292 11.6241 9.63761C14.9066 8.4777 18.25 7.82594 21.6488 7.16314C22.2632 7.04162 23.0326 6.92011 23.6526 6.96982C25.6841 6.99744 26.2542 9.14603 26.4092 10.8362C26.7912 13.642 27.1233 16.4479 27.461 19.2593C27.8263 22.3248 28.164 25.3958 28.5182 28.4668C28.7064 30.3668 29.0773 31.3721 26.7414 31.7256C22.6396 32.416 18.4548 33.0732 14.3752 33.7305C14.1704 33.7526 13.9822 33.7416 13.8272 33.6587L13.7829 33.6311L13.7774 33.6366ZM11.3418 13.2609C11.8012 16.5142 12.6149 19.7343 13.3013 22.9489C13.4618 23.6062 13.8438 24.2193 14.4139 24.5949C15.0726 25.0699 15.8255 25.0809 16.5672 24.8987C18.6319 24.4678 20.7077 24.0536 22.706 23.3797C25.2745 22.612 26.0328 20.7727 25.6232 18.2485C25.3354 15.8956 25.0586 13.5868 24.7209 11.256C24.6213 10.4993 24.3943 9.67627 23.7633 9.20678C22.551 8.37275 20.8793 8.63788 19.4899 8.74282C16.4233 9.01899 12.161 9.68732 11.3418 13.1891V13.2499V13.2609Z" fill="white"/>
<path d="M31.9007 14.648C33.5376 14.7656 35.1744 14.9447 36.9266 15.1631C37.3771 15.2191 37.8604 15.3087 38.1515 15.6895C39.1567 17.3078 38.2339 22.1851 37.9208 24.1449C36.9211 29.2182 36.1631 34.2802 35.1964 39.3479C35.1085 39.8239 34.9987 40.4006 34.6856 40.7422C34.2187 41.2518 33.3838 41.1902 32.7411 41.2126C28.5556 41.1958 24.3535 41.5261 20.179 41.3302C19.5253 41.1846 19.4924 40.5462 19.5143 39.9918C19.5803 38.6927 19.2672 36.3073 19.7725 35.3946C19.9098 35.2322 20.1295 35.1706 20.3273 35.109C20.7997 34.997 21.3654 34.8178 21.8818 34.9242C22.5409 35.0586 23.0902 35.5961 23.7493 35.7193C26.6605 36.0833 29.5992 35.8929 32.5324 35.7977C34.3505 35.7025 34.8613 34.325 34.9657 32.6955C35.3996 28.8654 35.6908 25.0465 36.0807 21.1995C36.2785 19.8836 35.6798 18.4221 34.2571 18.2877C32.9883 18.0917 31.7359 18.0189 30.4616 17.9237C30.0002 17.8845 29.5388 17.8174 29.2971 17.5038C28.9346 16.9998 28.8906 16.2887 28.8686 15.6839C28.7808 14.3064 30.6868 14.648 31.8238 14.648H31.8952H31.9007Z" fill="white"/>
<path d="M11.0608 13.1835C11.8887 9.58094 16.1907 8.90013 19.2955 8.61647C20.6997 8.50867 22.3892 8.23635 23.6143 9.09303C24.2521 9.58094 24.4814 10.4206 24.5821 11.1978C24.9234 13.592 25.1975 15.9635 25.494 18.3803C25.908 20.973 25.1416 22.8679 22.5458 23.6509C20.5263 24.3373 18.434 24.7685 16.3418 25.211C15.5866 25.3983 14.8257 25.3869 14.1656 24.899C13.5894 24.5075 13.2034 23.8835 13.0412 23.2083C12.3475 19.9008 11.5251 16.5932 11.0608 13.2573V13.1949V13.1835Z" fill="black"/>
<path d="M17.6816 18.3742C16.5149 18.2355 15.5125 17.3743 15.2121 16.2434C15.1737 16.0966 15.1482 15.9414 15.1593 15.7915C15.1777 15.5402 15.3075 15.3551 15.5753 15.3123C15.8312 15.2712 16.0343 15.3601 16.1412 15.6027C16.2127 15.7651 16.2484 15.9451 16.3165 16.1091C16.8789 17.457 18.5826 17.741 19.5271 16.6275C19.8385 16.2594 20.0677 15.8192 20.3316 15.4108C20.5113 15.1332 20.7573 15.0289 21.0539 15.1823C21.3147 15.3192 21.4086 15.5916 21.2871 15.8406C20.7146 17.0151 20.0531 18.1039 18.597 18.3479C18.2891 18.3998 17.9873 18.4126 17.6799 18.3751L17.6816 18.3742Z" fill="#FEFEFE"/>
<path d="M17.3182 13.1934C17.2756 13.4948 17.0266 13.6664 16.7073 13.6134C16.417 13.5632 16.203 13.2885 16.2429 13.016C16.2836 12.7495 16.5942 12.5305 16.8649 12.5798C17.1432 12.6316 17.3564 12.9175 17.3182 13.1934Z" fill="#F1F1F1"/>
<path d="M19.3225 12.5009C19.5948 12.5706 19.7394 12.7649 19.7131 13.0519C19.6867 13.3517 19.4771 13.4954 19.1908 13.4921C18.907 13.4897 18.6829 13.1773 18.7424 12.9016C18.7933 12.6556 19.0654 12.462 19.3216 12.4992L19.3225 12.5009Z" fill="#EDEDED"/>
</svg>
