<svg width="85" height="110" viewBox="0 0 85 110" fill="none" xmlns="http://www.w3.org/2000/svg">
<path opacity="0.51" d="M0 0.000244141L0 109.022H1.72739L1.72739 0.000244141H0Z" fill="#FB64A8"/>
<path opacity="0.51" d="M4.64648 0.000244141L4.64648 109.022H6.37387L6.37387 0.000244141H4.64648Z" fill="#FB64A8"/>
<path opacity="0.51" d="M9.29248 0.000244141L9.29248 109.022H11.0199L11.0199 0.000244141H9.29248Z" fill="#FB64A8"/>
<path opacity="0.51" d="M13.9319 0.000244141L13.9319 109.022H15.6593L15.6593 0.000244141H13.9319Z" fill="#FB64A8"/>
<path opacity="0.51" d="M18.5781 0.000244141L18.5781 109.022H20.3055L20.3055 0.000244141H18.5781Z" fill="#FB64A8"/>
<path opacity="0.51" d="M23.2173 0.000244141L23.2173 109.022H24.9447L24.9447 0.000244141H23.2173Z" fill="#FB64A8"/>
<path opacity="0.51" d="M27.8638 0.000244141L27.8638 109.022H29.5912L29.5912 0.000244141H27.8638Z" fill="#FB64A8"/>
<path opacity="0.51" d="M32.51 0.000244141L32.51 109.022H34.2374L34.2374 0.000244141H32.51Z" fill="#FB64A8"/>
<path opacity="0.51" d="M37.1492 0.000244141L37.1492 109.022H38.8766L38.8766 0.000244141H37.1492Z" fill="#FB64A8"/>
<path opacity="0.51" d="M41.7957 0.000244141L41.7957 109.022H43.523L43.523 0.000244141H41.7957Z" fill="#FB64A8"/>
<path opacity="0.51" d="M46.4419 0.000244141L46.4419 109.022H48.1693L48.1693 0.000244141H46.4419Z" fill="#FB64A8"/>
<path opacity="0.51" d="M51.0811 0.000244141L51.0811 109.022H52.8084L52.8084 0.000244141H51.0811Z" fill="#FB64A8"/>
<path opacity="0.51" d="M55.7275 0.000244141L55.7275 109.022H57.4549L57.4549 0.000244141H55.7275Z" fill="#FB64A8"/>
<path opacity="0.51" d="M60.3738 0.000244141L60.3738 109.022H62.1012L62.1012 0.000244141H60.3738Z" fill="#FB64A8"/>
<path opacity="0.51" d="M65.0129 0.000244141V109.022H66.7403V0.000244141H65.0129Z" fill="#FB64A8"/>
<path opacity="0.51" d="M69.6594 0.000244141V109.022H71.3868V0.000244141H69.6594Z" fill="#FB64A8"/>
<path opacity="0.51" d="M74.2986 0.000244141V109.022H76.026V0.000244141H74.2986Z" fill="#FB64A8"/>
<path opacity="0.51" d="M78.9448 0.000244141V109.022H80.6722V0.000244141H78.9448Z" fill="#FB64A8"/>
<path opacity="0.51" d="M83.5913 0.000244141V109.022H85.3187V0.000244141H83.5913Z" fill="#FB64A8"/>
<path opacity="0.51" d="M-1.52588e-05 1.7373L85.3115 1.7373V-1.71661e-05L-1.52588e-05 -1.71661e-05V1.7373Z" fill="#FB64A8"/>
<path opacity="0.51" d="M-1.52588e-05 109.022L85.3115 109.022V107.285L-1.52588e-05 107.285V109.022Z" fill="#FB64A8"/>
<path opacity="0.51" d="M-1.52588e-05 62.375L85.3115 62.375V60.6377L-1.52588e-05 60.6377V62.375Z" fill="#FB64A8"/>
<path opacity="0.51" d="M-1.52588e-05 57.7114L85.3115 57.7114V55.9741L-1.52588e-05 55.9741V57.7114Z" fill="#FB64A8"/>
<path opacity="0.51" d="M-1.52588e-05 53.0479L85.3115 53.0479V51.3105L-1.52588e-05 51.3105V53.0479Z" fill="#FB64A8"/>
<path opacity="0.51" d="M-1.52588e-05 48.3848L85.3115 48.3848V46.6474L-1.52588e-05 46.6474V48.3848Z" fill="#FB64A8"/>
<path opacity="0.51" d="M-1.52588e-05 43.7217L85.3115 43.7217V41.9844L-1.52588e-05 41.9844V43.7217Z" fill="#FB64A8"/>
<path opacity="0.51" d="M-1.52588e-05 39.0581L85.3115 39.0581V37.3208L-1.52588e-05 37.3208V39.0581Z" fill="#FB64A8"/>
<path opacity="0.51" d="M-1.52588e-05 34.3945L85.3115 34.3945V32.6572L-1.52588e-05 32.6572V34.3945Z" fill="#FB64A8"/>
<path opacity="0.51" d="M-1.52588e-05 29.7241L85.3115 29.7241V27.9868L-1.52588e-05 27.9868V29.7241Z" fill="#FB64A8"/>
<path opacity="0.51" d="M-1.52588e-05 25.061L85.3115 25.061V23.3237L-1.52588e-05 23.3237V25.061Z" fill="#FB64A8"/>
<path opacity="0.51" d="M-1.52588e-05 20.3975L85.3115 20.3975V18.6601L-1.52588e-05 18.6601V20.3975Z" fill="#FB64A8"/>
<path opacity="0.51" d="M-1.52588e-05 15.7344L85.3115 15.7344V13.9971L-1.52588e-05 13.9971V15.7344Z" fill="#FB64A8"/>
<path opacity="0.51" d="M-1.52588e-05 11.0713L85.3115 11.0713V9.33397L-1.52588e-05 9.33397V11.0713Z" fill="#FB64A8"/>
<path opacity="0.51" d="M-1.52588e-05 6.40771L85.3115 6.40771V4.67039L-1.52588e-05 4.67039V6.40771Z" fill="#FB64A8"/>
<path opacity="0.51" d="M-1.52588e-05 104.359L85.3115 104.359V102.622L-1.52588e-05 102.622V104.359Z" fill="#FB64A8"/>
<path opacity="0.51" d="M-1.52588e-05 99.6958L85.3115 99.6958V97.9585L-1.52588e-05 97.9585V99.6958Z" fill="#FB64A8"/>
<path opacity="0.51" d="M-1.52588e-05 95.0322L85.3115 95.0322V93.2949L-1.52588e-05 93.2949V95.0322Z" fill="#FB64A8"/>
<path opacity="0.51" d="M-1.52588e-05 90.3618L85.3115 90.3618V88.6245L-1.52588e-05 88.6245V90.3618Z" fill="#FB64A8"/>
<path opacity="0.51" d="M-1.52588e-05 85.6982L85.3115 85.6982V83.9609L-1.52588e-05 83.9609V85.6982Z" fill="#FB64A8"/>
<path opacity="0.51" d="M-1.52588e-05 81.0352L85.3115 81.0352V79.2978L-1.52588e-05 79.2978V81.0352Z" fill="#FB64A8"/>
<path opacity="0.51" d="M-1.52588e-05 76.3721L85.3115 76.3721V74.6347L-1.52588e-05 74.6347V76.3721Z" fill="#FB64A8"/>
<path opacity="0.51" d="M-1.52588e-05 71.7085L85.3115 71.7085V69.9712L-1.52588e-05 69.9712V71.7085Z" fill="#FB64A8"/>
<path opacity="0.51" d="M-1.52588e-05 67.0449L85.3115 67.0449V65.3076L-1.52588e-05 65.3076V67.0449Z" fill="#FB64A8"/>
</svg>
