<svg width="85" height="134" viewBox="0 0 85 134" fill="none" xmlns="http://www.w3.org/2000/svg">
<rect x="37.88" y="-53.8469" width="10.2" height="170.2" transform="rotate(29.6887 37.88 -53.8469)" fill="#A72C33" stroke="#ECE6CA" stroke-width="1.8"/>
<rect x="53.6908" y="-44.8327" width="10.2" height="170.2" transform="rotate(29.6887 53.6908 -44.8327)" fill="#A72C33" stroke="#ECE6CA" stroke-width="1.8"/>
<rect x="69.5016" y="-35.8184" width="10.2" height="170.2" transform="rotate(29.6887 69.5016 -35.8184)" fill="#A72C33" stroke="#ECE6CA" stroke-width="1.8"/>
<rect x="85.3127" y="-26.8042" width="10.2" height="170.2" transform="rotate(29.6887 85.3127 -26.8042)" fill="#A72C33" stroke="#ECE6CA" stroke-width="1.8"/>
<rect x="101.123" y="-17.79" width="10.2" height="170.2" transform="rotate(29.6887 101.123 -17.79)" fill="#A72C33" stroke="#ECE6CA" stroke-width="1.8"/>
<rect x="116.934" y="-8.77574" width="10.2" height="170.2" transform="rotate(29.6887 116.934 -8.77574)" fill="#A72C33" stroke="#ECE6CA" stroke-width="1.8"/>
<rect x="132.745" y="0.23854" width="10.2" height="170.2" transform="rotate(29.6887 132.745 0.23854)" fill="#A72C33" stroke="#ECE6CA" stroke-width="1.8"/>
<rect x="148.556" y="9.25276" width="10.2" height="170.2" transform="rotate(29.6887 148.556 9.25276)" fill="#A72C33" stroke="#ECE6CA" stroke-width="1.8"/>
<rect x="164.367" y="18.2669" width="10.2" height="170.2" transform="rotate(29.6887 164.367 18.2669)" fill="#A72C33" stroke="#ECE6CA" stroke-width="1.8"/>
</svg>
