<svg width="85" height="134" viewBox="0 0 85 134" fill="none" xmlns="http://www.w3.org/2000/svg">
<g clip-path="url(#clip0_5125_49156)">
<g clip-path="url(#clip1_5125_49156)">
</g>
<g clip-path="url(#clip2_5125_49156)">
<circle cx="86.2463" cy="0.449451" r="1.31572" transform="rotate(45 86.2463 0.449451)" fill="#EF5656"/>
</g>
<g clip-path="url(#clip3_5125_49156)">
<circle cx="75.0825" cy="0.449329" r="1.31572" transform="rotate(45 75.0825 0.449329)" fill="#EF5656"/>
<circle cx="80.6643" cy="6.03142" r="1.31572" transform="rotate(45 80.6643 6.03142)" fill="#EF5656"/>
<circle cx="86.2466" cy="11.6136" r="1.31572" transform="rotate(45 86.2466 11.6136)" fill="#EF5656"/>
</g>
<g clip-path="url(#clip4_5125_49156)">
<circle cx="63.9182" cy="0.44939" r="1.31572" transform="rotate(45 63.9182 0.44939)" fill="#EF5656"/>
<circle cx="69.5002" cy="6.03142" r="1.31572" transform="rotate(45 69.5002 6.03142)" fill="#EF5656"/>
<circle cx="75.0825" cy="11.6136" r="1.31572" transform="rotate(45 75.0825 11.6136)" fill="#EF5656"/>
<circle cx="80.6643" cy="17.1957" r="1.31572" transform="rotate(45 80.6643 17.1957)" fill="#EF5656"/>
</g>
<g clip-path="url(#clip5_5125_49156)">
<circle cx="52.7539" cy="0.449329" r="1.31572" transform="rotate(45 52.7539 0.449329)" fill="#EF5656"/>
<circle cx="58.3359" cy="6.03142" r="1.31572" transform="rotate(45 58.3359 6.03142)" fill="#EF5656"/>
<circle cx="63.9182" cy="11.6136" r="1.31572" transform="rotate(45 63.9182 11.6136)" fill="#EF5656"/>
<circle cx="69.5" cy="17.1957" r="1.31572" transform="rotate(45 69.5 17.1957)" fill="#EF5656"/>
<circle cx="75.0825" cy="22.7778" r="1.31572" transform="rotate(45 75.0825 22.7778)" fill="#EF5656"/>
</g>
<g clip-path="url(#clip6_5125_49156)">
<circle cx="41.5894" cy="0.44939" r="1.31572" transform="rotate(45 41.5894 0.44939)" fill="#EF5656"/>
<circle cx="47.1716" cy="6.03142" r="1.31572" transform="rotate(45 47.1716 6.03142)" fill="#EF5656"/>
<circle cx="52.7539" cy="11.6136" r="1.31572" transform="rotate(45 52.7539 11.6136)" fill="#EF5656"/>
<circle cx="58.3359" cy="17.1957" r="1.31572" transform="rotate(45 58.3359 17.1957)" fill="#EF5656"/>
<circle cx="63.9182" cy="22.7778" r="1.31572" transform="rotate(45 63.9182 22.7778)" fill="#EF5656"/>
<circle cx="69.5002" cy="28.36" r="1.31572" transform="rotate(45 69.5002 28.36)" fill="#EF5656"/>
</g>
<g clip-path="url(#clip7_5125_49156)">
<circle cx="30.4253" cy="0.44939" r="1.31572" transform="rotate(45 30.4253 0.44939)" fill="#EF5656"/>
<circle cx="36.0073" cy="6.03148" r="1.31572" transform="rotate(45 36.0073 6.03148)" fill="#EF5656"/>
<circle cx="41.5891" cy="11.6136" r="1.31572" transform="rotate(45 41.5891 11.6136)" fill="#EF5656"/>
<circle cx="47.1716" cy="17.1958" r="1.31572" transform="rotate(45 47.1716 17.1958)" fill="#EF5656"/>
<circle cx="52.7537" cy="22.7778" r="1.31572" transform="rotate(45 52.7537 22.7778)" fill="#EF5656"/>
<circle cx="58.3357" cy="28.36" r="1.31572" transform="rotate(45 58.3357 28.36)" fill="#EF5656"/>
<circle cx="63.918" cy="33.942" r="1.31572" transform="rotate(45 63.918 33.942)" fill="#EF5656"/>
</g>
<g clip-path="url(#clip8_5125_49156)">
<circle cx="19.2607" cy="0.449451" r="1.31572" transform="rotate(45 19.2607 0.449451)" fill="#EF5656"/>
<circle cx="24.843" cy="6.03142" r="1.31572" transform="rotate(45 24.843 6.03142)" fill="#EF5656"/>
<circle cx="30.425" cy="11.6136" r="1.31572" transform="rotate(45 30.425 11.6136)" fill="#EF5656"/>
<circle cx="36.0073" cy="17.1958" r="1.31572" transform="rotate(45 36.0073 17.1958)" fill="#EF5656"/>
<circle cx="41.5891" cy="22.7779" r="1.31572" transform="rotate(45 41.5891 22.7779)" fill="#EF5656"/>
<circle cx="47.1714" cy="28.36" r="1.31572" transform="rotate(45 47.1714 28.36)" fill="#EF5656"/>
<circle cx="52.7537" cy="33.942" r="1.31572" transform="rotate(45 52.7537 33.942)" fill="#EF5656"/>
<circle cx="58.3357" cy="39.5242" r="1.31572" transform="rotate(45 58.3357 39.5242)" fill="#EF5656"/>
</g>
<g clip-path="url(#clip9_5125_49156)">
<circle cx="8.09692" cy="0.449329" r="1.31572" transform="rotate(45 8.09692 0.449329)" fill="#EF5656"/>
<circle cx="13.6787" cy="6.03142" r="1.31572" transform="rotate(45 13.6787 6.03142)" fill="#EF5656"/>
<circle cx="19.261" cy="11.6136" r="1.31572" transform="rotate(45 19.261 11.6136)" fill="#EF5656"/>
<circle cx="24.8433" cy="17.1957" r="1.31572" transform="rotate(45 24.8433 17.1957)" fill="#EF5656"/>
<circle cx="30.4253" cy="22.7778" r="1.31572" transform="rotate(45 30.4253 22.7778)" fill="#EF5656"/>
<circle cx="36.0076" cy="28.3599" r="1.31572" transform="rotate(45 36.0076 28.3599)" fill="#EF5656"/>
<circle cx="41.5894" cy="33.942" r="1.31572" transform="rotate(45 41.5894 33.942)" fill="#EF5656"/>
<circle cx="47.1716" cy="39.5242" r="1.31572" transform="rotate(45 47.1716 39.5242)" fill="#EF5656"/>
<circle cx="52.7539" cy="45.1063" r="1.31572" transform="rotate(45 52.7539 45.1063)" fill="#EF5656"/>
</g>
<g clip-path="url(#clip10_5125_49156)">
<circle cx="2.51489" cy="6.03142" r="1.31572" transform="rotate(45 2.51489 6.03142)" fill="#EF5656"/>
<circle cx="8.09692" cy="11.6136" r="1.31572" transform="rotate(45 8.09692 11.6136)" fill="#EF5656"/>
<circle cx="13.6787" cy="17.1957" r="1.31572" transform="rotate(45 13.6787 17.1957)" fill="#EF5656"/>
<circle cx="19.261" cy="22.7778" r="1.31572" transform="rotate(45 19.261 22.7778)" fill="#EF5656"/>
<circle cx="24.8433" cy="28.36" r="1.31572" transform="rotate(45 24.8433 28.36)" fill="#EF5656"/>
<circle cx="30.4255" cy="33.9419" r="1.31572" transform="rotate(45 30.4255 33.9419)" fill="#EF5656"/>
<circle cx="36.0076" cy="39.5242" r="1.31572" transform="rotate(45 36.0076 39.5242)" fill="#EF5656"/>
<circle cx="41.5894" cy="45.1063" r="1.31572" transform="rotate(45 41.5894 45.1063)" fill="#EF5656"/>
<circle cx="47.1719" cy="50.6883" r="1.31572" transform="rotate(45 47.1719 50.6883)" fill="#EF5656"/>
</g>
<g clip-path="url(#clip11_5125_49156)">
<circle cx="2.51489" cy="17.1957" r="1.31572" transform="rotate(45 2.51489 17.1957)" fill="#EF5656"/>
<circle cx="8.09692" cy="22.7778" r="1.31572" transform="rotate(45 8.09692 22.7778)" fill="#EF5656"/>
<circle cx="13.6787" cy="28.36" r="1.31572" transform="rotate(45 13.6787 28.36)" fill="#EF5656"/>
<circle cx="19.261" cy="33.942" r="1.31572" transform="rotate(45 19.261 33.942)" fill="#EF5656"/>
<circle cx="24.8433" cy="39.5242" r="1.31572" transform="rotate(45 24.8433 39.5242)" fill="#EF5656"/>
<circle cx="30.4253" cy="45.1063" r="1.31572" transform="rotate(45 30.4253 45.1063)" fill="#EF5656"/>
<circle cx="36.0076" cy="50.6883" r="1.31572" transform="rotate(45 36.0076 50.6883)" fill="#EF5656"/>
<circle cx="41.5894" cy="56.2705" r="1.31572" transform="rotate(45 41.5894 56.2705)" fill="#EF5656"/>
</g>
</g>
<g clip-path="url(#clip12_5125_49156)">
<g clip-path="url(#clip13_5125_49156)">
<circle cx="3.27856" cy="27.5961" r="1.31572" transform="rotate(45 3.27856 27.5961)" fill="#EF5656"/>
<circle cx="8.86108" cy="33.1783" r="1.31572" transform="rotate(45 8.86108 33.1783)" fill="#EF5656"/>
<circle cx="14.4429" cy="38.7604" r="1.31572" transform="rotate(45 14.4429 38.7604)" fill="#EF5656"/>
<circle cx="20.0249" cy="44.3424" r="1.31572" transform="rotate(45 20.0249 44.3424)" fill="#EF5656"/>
<circle cx="25.6069" cy="49.9245" r="1.31572" transform="rotate(45 25.6069 49.9245)" fill="#EF5656"/>
<circle cx="31.1892" cy="55.5067" r="1.31572" transform="rotate(45 31.1892 55.5067)" fill="#EF5656"/>
<circle cx="36.7712" cy="61.0889" r="1.31572" transform="rotate(45 36.7712 61.0889)" fill="#EF5656"/>
</g>
<g clip-path="url(#clip14_5125_49156)">
<circle cx="3.27832" cy="38.7604" r="1.31572" transform="rotate(45 3.27832 38.7604)" fill="#EF5656"/>
<circle cx="8.86084" cy="44.3424" r="1.31572" transform="rotate(45 8.86084 44.3424)" fill="#EF5656"/>
<circle cx="14.4426" cy="49.9247" r="1.31572" transform="rotate(45 14.4426 49.9247)" fill="#EF5656"/>
<circle cx="20.0247" cy="55.5067" r="1.31572" transform="rotate(45 20.0247 55.5067)" fill="#EF5656"/>
<circle cx="25.6069" cy="61.0889" r="1.31572" transform="rotate(45 25.6069 61.0889)" fill="#EF5656"/>
<circle cx="31.189" cy="66.6709" r="1.31572" transform="rotate(45 31.189 66.6709)" fill="#EF5656"/>
</g>
<g clip-path="url(#clip15_5125_49156)">
<circle cx="3.27856" cy="49.9245" r="1.31572" transform="rotate(45 3.27856 49.9245)" fill="#EF5656"/>
<circle cx="8.86108" cy="55.5067" r="1.31572" transform="rotate(45 8.86108 55.5067)" fill="#EF5656"/>
<circle cx="14.4429" cy="61.0889" r="1.31572" transform="rotate(45 14.4429 61.0889)" fill="#EF5656"/>
<circle cx="20.0249" cy="66.671" r="1.31572" transform="rotate(45 20.0249 66.671)" fill="#EF5656"/>
<circle cx="25.6072" cy="72.253" r="1.31572" transform="rotate(45 25.6072 72.253)" fill="#EF5656"/>
</g>
<g clip-path="url(#clip16_5125_49156)">
<circle cx="3.27808" cy="61.0889" r="1.31572" transform="rotate(45 3.27808 61.0889)" fill="#EF5656"/>
<circle cx="8.8606" cy="66.671" r="1.31572" transform="rotate(45 8.8606 66.671)" fill="#EF5656"/>
<circle cx="14.4424" cy="72.253" r="1.31572" transform="rotate(45 14.4424 72.253)" fill="#EF5656"/>
<circle cx="20.0244" cy="77.8352" r="1.31572" transform="rotate(45 20.0244 77.8352)" fill="#EF5656"/>
</g>
<g clip-path="url(#clip17_5125_49156)">
<circle cx="3.27856" cy="72.253" r="1.31572" transform="rotate(45 3.27856 72.253)" fill="#EF5656"/>
<circle cx="8.86084" cy="77.8351" r="1.31572" transform="rotate(45 8.86084 77.8351)" fill="#EF5656"/>
<circle cx="14.4429" cy="83.4172" r="1.31572" transform="rotate(45 14.4429 83.4172)" fill="#EF5656"/>
</g>
<g clip-path="url(#clip18_5125_49156)">
<circle cx="3.27856" cy="83.4173" r="1.31572" transform="rotate(45 3.27856 83.4173)" fill="#EF5656"/>
<circle cx="8.86108" cy="88.9994" r="1.31572" transform="rotate(45 8.86108 88.9994)" fill="#EF5656"/>
</g>
<g clip-path="url(#clip19_5125_49156)">
<circle cx="3.27856" cy="94.5815" r="1.31572" transform="rotate(45 3.27856 94.5815)" fill="#EF5656"/>
</g>
</g>
<g clip-path="url(#clip20_5125_49156)">
<g clip-path="url(#clip21_5125_49156)">
<circle cx="85.9495" cy="22.4807" r="1.31572" transform="rotate(45 85.9495 22.4807)" fill="#EF5656"/>
</g>
<g clip-path="url(#clip22_5125_49156)">
<circle cx="80.3672" cy="28.0627" r="1.31572" transform="rotate(45 80.3672 28.0627)" fill="#EF5656"/>
<circle cx="85.9492" cy="33.6449" r="1.31572" transform="rotate(45 85.9492 33.6449)" fill="#EF5656"/>
</g>
<g clip-path="url(#clip23_5125_49156)">
<circle cx="74.7852" cy="33.645" r="1.31572" transform="rotate(45 74.7852 33.645)" fill="#EF5656"/>
<circle cx="80.3672" cy="39.227" r="1.31572" transform="rotate(45 80.3672 39.227)" fill="#EF5656"/>
<circle cx="85.9495" cy="44.8091" r="1.31572" transform="rotate(45 85.9495 44.8091)" fill="#EF5656"/>
</g>
<g clip-path="url(#clip24_5125_49156)">
<circle cx="69.2031" cy="39.2269" r="1.31572" transform="rotate(45 69.2031 39.2269)" fill="#EF5656"/>
<circle cx="74.7852" cy="44.8089" r="1.31572" transform="rotate(45 74.7852 44.8089)" fill="#EF5656"/>
<circle cx="80.3674" cy="50.3912" r="1.31572" transform="rotate(45 80.3674 50.3912)" fill="#EF5656"/>
<circle cx="85.9495" cy="55.9733" r="1.31572" transform="rotate(45 85.9495 55.9733)" fill="#EF5656"/>
</g>
<g clip-path="url(#clip25_5125_49156)">
<circle cx="63.6211" cy="44.8091" r="1.31572" transform="rotate(45 63.6211 44.8091)" fill="#EF5656"/>
<circle cx="69.2029" cy="50.3913" r="1.31572" transform="rotate(45 69.2029 50.3913)" fill="#EF5656"/>
<circle cx="74.7852" cy="55.9734" r="1.31572" transform="rotate(45 74.7852 55.9734)" fill="#EF5656"/>
<circle cx="80.3672" cy="61.5555" r="1.31572" transform="rotate(45 80.3672 61.5555)" fill="#EF5656"/>
<circle cx="85.9495" cy="67.1376" r="1.31572" transform="rotate(45 85.9495 67.1376)" fill="#EF5656"/>
</g>
<g clip-path="url(#clip26_5125_49156)">
<circle cx="58.0386" cy="50.3912" r="1.31572" transform="rotate(45 58.0386 50.3912)" fill="#EF5656"/>
<circle cx="63.6211" cy="55.9733" r="1.31572" transform="rotate(45 63.6211 55.9733)" fill="#EF5656"/>
<circle cx="69.2031" cy="61.5554" r="1.31572" transform="rotate(45 69.2031 61.5554)" fill="#EF5656"/>
<circle cx="74.7852" cy="67.1376" r="1.31572" transform="rotate(45 74.7852 67.1376)" fill="#EF5656"/>
<circle cx="80.3674" cy="72.7197" r="1.31572" transform="rotate(45 80.3674 72.7197)" fill="#EF5656"/>
<circle cx="85.9495" cy="78.3017" r="1.31572" transform="rotate(45 85.9495 78.3017)" fill="#EF5656"/>
</g>
<g clip-path="url(#clip27_5125_49156)">
<circle cx="52.4565" cy="55.9733" r="1.31572" transform="rotate(45 52.4565 55.9733)" fill="#EF5656"/>
<circle cx="58.0388" cy="61.5554" r="1.31572" transform="rotate(45 58.0388 61.5554)" fill="#EF5656"/>
<circle cx="63.6211" cy="67.1376" r="1.31572" transform="rotate(45 63.6211 67.1376)" fill="#EF5656"/>
<circle cx="69.2031" cy="72.7196" r="1.31572" transform="rotate(45 69.2031 72.7196)" fill="#EF5656"/>
<circle cx="74.7852" cy="78.3017" r="1.31572" transform="rotate(45 74.7852 78.3017)" fill="#EF5656"/>
<circle cx="80.3674" cy="83.8839" r="1.31572" transform="rotate(45 80.3674 83.8839)" fill="#EF5656"/>
<circle cx="85.9495" cy="89.4659" r="1.31572" transform="rotate(45 85.9495 89.4659)" fill="#EF5656"/>
</g>
<g clip-path="url(#clip28_5125_49156)">
<circle cx="46.8745" cy="61.5554" r="1.31572" transform="rotate(45 46.8745 61.5554)" fill="#EF5656"/>
<circle cx="52.4565" cy="67.1376" r="1.31572" transform="rotate(45 52.4565 67.1376)" fill="#EF5656"/>
<circle cx="58.0388" cy="72.7197" r="1.31572" transform="rotate(45 58.0388 72.7197)" fill="#EF5656"/>
<circle cx="63.6211" cy="78.3017" r="1.31572" transform="rotate(45 63.6211 78.3017)" fill="#EF5656"/>
<circle cx="69.2031" cy="83.8839" r="1.31572" transform="rotate(45 69.2031 83.8839)" fill="#EF5656"/>
<circle cx="74.7852" cy="89.466" r="1.31572" transform="rotate(45 74.7852 89.466)" fill="#EF5656"/>
<circle cx="80.3672" cy="95.0482" r="1.31572" transform="rotate(45 80.3672 95.0482)" fill="#EF5656"/>
<circle cx="85.9495" cy="100.63" r="1.31572" transform="rotate(45 85.9495 100.63)" fill="#EF5656"/>
</g>
</g>
<g clip-path="url(#clip29_5125_49156)">
<g clip-path="url(#clip30_5125_49156)">
<circle cx="42.0562" cy="66.3738" r="1.31572" transform="rotate(45 42.0562 66.3738)" fill="#EF5656"/>
<circle cx="47.6384" cy="71.9559" r="1.31572" transform="rotate(45 47.6384 71.9559)" fill="#EF5656"/>
<circle cx="53.2207" cy="77.5379" r="1.31572" transform="rotate(45 53.2207 77.5379)" fill="#EF5656"/>
<circle cx="58.8027" cy="83.1201" r="1.31572" transform="rotate(45 58.8027 83.1201)" fill="#EF5656"/>
<circle cx="64.385" cy="88.7023" r="1.31572" transform="rotate(45 64.385 88.7023)" fill="#EF5656"/>
<circle cx="69.967" cy="94.2844" r="1.31572" transform="rotate(45 69.967 94.2844)" fill="#EF5656"/>
<circle cx="75.5493" cy="99.8666" r="1.31572" transform="rotate(45 75.5493 99.8666)" fill="#EF5656"/>
<circle cx="81.1311" cy="105.449" r="1.31572" transform="rotate(45 81.1311 105.449)" fill="#EF5656"/>
<circle cx="86.7134" cy="111.031" r="1.31572" transform="rotate(45 86.7134 111.031)" fill="#EF5656"/>
</g>
<g clip-path="url(#clip31_5125_49156)">
<circle cx="36.4744" cy="71.9559" r="1.31572" transform="rotate(45 36.4744 71.9559)" fill="#EF5656"/>
<circle cx="42.0562" cy="77.5379" r="1.31572" transform="rotate(45 42.0562 77.5379)" fill="#EF5656"/>
<circle cx="47.6387" cy="83.1201" r="1.31572" transform="rotate(45 47.6387 83.1201)" fill="#EF5656"/>
<circle cx="53.2207" cy="88.7023" r="1.31572" transform="rotate(45 53.2207 88.7023)" fill="#EF5656"/>
<circle cx="58.8027" cy="94.2844" r="1.31572" transform="rotate(45 58.8027 94.2844)" fill="#EF5656"/>
<circle cx="64.385" cy="99.8666" r="1.31572" transform="rotate(45 64.385 99.8666)" fill="#EF5656"/>
<circle cx="69.967" cy="105.449" r="1.31572" transform="rotate(45 69.967 105.449)" fill="#EF5656"/>
<circle cx="75.5493" cy="111.031" r="1.31572" transform="rotate(45 75.5493 111.031)" fill="#EF5656"/>
<circle cx="81.1311" cy="116.613" r="1.31572" transform="rotate(45 81.1311 116.613)" fill="#EF5656"/>
<circle cx="86.7134" cy="122.195" r="1.31572" transform="rotate(45 86.7134 122.195)" fill="#EF5656"/>
</g>
<g clip-path="url(#clip32_5125_49156)">
<circle cx="30.8921" cy="77.5379" r="1.31572" transform="rotate(45 30.8921 77.5379)" fill="#EF5656"/>
<circle cx="36.4744" cy="83.1201" r="1.31572" transform="rotate(45 36.4744 83.1201)" fill="#EF5656"/>
<circle cx="42.0562" cy="88.7023" r="1.31572" transform="rotate(45 42.0562 88.7023)" fill="#EF5656"/>
<circle cx="47.6384" cy="94.2844" r="1.31572" transform="rotate(45 47.6384 94.2844)" fill="#EF5656"/>
<circle cx="53.2207" cy="99.8664" r="1.31572" transform="rotate(45 53.2207 99.8664)" fill="#EF5656"/>
<circle cx="58.8027" cy="105.449" r="1.31572" transform="rotate(45 58.8027 105.449)" fill="#EF5656"/>
<circle cx="64.385" cy="111.031" r="1.31572" transform="rotate(45 64.385 111.031)" fill="#EF5656"/>
<circle cx="69.967" cy="116.613" r="1.31572" transform="rotate(45 69.967 116.613)" fill="#EF5656"/>
<circle cx="75.5493" cy="122.195" r="1.31572" transform="rotate(45 75.5493 122.195)" fill="#EF5656"/>
<circle cx="81.1311" cy="127.777" r="1.31572" transform="rotate(45 81.1311 127.777)" fill="#EF5656"/>
<circle cx="86.7134" cy="133.359" r="1.31572" transform="rotate(45 86.7134 133.359)" fill="#EF5656"/>
</g>
<g clip-path="url(#clip33_5125_49156)">
<circle cx="25.3101" cy="83.1201" r="1.31572" transform="rotate(45 25.3101 83.1201)" fill="#EF5656"/>
<circle cx="30.8921" cy="88.7023" r="1.31572" transform="rotate(45 30.8921 88.7023)" fill="#EF5656"/>
<circle cx="36.4744" cy="94.2843" r="1.31572" transform="rotate(45 36.4744 94.2843)" fill="#EF5656"/>
<circle cx="42.0562" cy="99.8664" r="1.31572" transform="rotate(45 42.0562 99.8664)" fill="#EF5656"/>
<circle cx="47.6387" cy="105.448" r="1.31572" transform="rotate(45 47.6387 105.448)" fill="#EF5656"/>
<circle cx="53.2207" cy="111.031" r="1.31572" transform="rotate(45 53.2207 111.031)" fill="#EF5656"/>
<circle cx="58.8027" cy="116.613" r="1.31572" transform="rotate(45 58.8027 116.613)" fill="#EF5656"/>
<circle cx="64.385" cy="122.195" r="1.31572" transform="rotate(45 64.385 122.195)" fill="#EF5656"/>
<circle cx="69.967" cy="127.777" r="1.31572" transform="rotate(45 69.967 127.777)" fill="#EF5656"/>
<circle cx="75.5493" cy="133.359" r="1.31572" transform="rotate(45 75.5493 133.359)" fill="#EF5656"/>
</g>
<g clip-path="url(#clip34_5125_49156)">
<circle cx="19.7278" cy="88.7023" r="1.31572" transform="rotate(45 19.7278 88.7023)" fill="#EF5656"/>
<circle cx="25.3098" cy="94.2844" r="1.31572" transform="rotate(45 25.3098 94.2844)" fill="#EF5656"/>
<circle cx="30.8921" cy="99.8664" r="1.31572" transform="rotate(45 30.8921 99.8664)" fill="#EF5656"/>
<circle cx="36.4744" cy="105.449" r="1.31572" transform="rotate(45 36.4744 105.449)" fill="#EF5656"/>
<circle cx="42.0562" cy="111.031" r="1.31572" transform="rotate(45 42.0562 111.031)" fill="#EF5656"/>
<circle cx="47.6384" cy="116.613" r="1.31572" transform="rotate(45 47.6384 116.613)" fill="#EF5656"/>
<circle cx="53.2207" cy="122.195" r="1.31572" transform="rotate(45 53.2207 122.195)" fill="#EF5656"/>
<circle cx="58.8027" cy="127.777" r="1.31572" transform="rotate(45 58.8027 127.777)" fill="#EF5656"/>
<circle cx="64.385" cy="133.359" r="1.31572" transform="rotate(45 64.385 133.359)" fill="#EF5656"/>
</g>
<g clip-path="url(#clip35_5125_49156)">
<circle cx="14.1455" cy="94.2844" r="1.31572" transform="rotate(45 14.1455 94.2844)" fill="#EF5656"/>
<circle cx="19.7278" cy="99.8664" r="1.31572" transform="rotate(45 19.7278 99.8664)" fill="#EF5656"/>
<circle cx="25.3101" cy="105.449" r="1.31572" transform="rotate(45 25.3101 105.449)" fill="#EF5656"/>
<circle cx="30.8921" cy="111.031" r="1.31572" transform="rotate(45 30.8921 111.031)" fill="#EF5656"/>
<circle cx="36.4744" cy="116.613" r="1.31572" transform="rotate(45 36.4744 116.613)" fill="#EF5656"/>
<circle cx="42.0562" cy="122.195" r="1.31572" transform="rotate(45 42.0562 122.195)" fill="#EF5656"/>
<circle cx="47.6384" cy="127.777" r="1.31572" transform="rotate(45 47.6384 127.777)" fill="#EF5656"/>
<circle cx="53.2207" cy="133.359" r="1.31572" transform="rotate(45 53.2207 133.359)" fill="#EF5656"/>
</g>
<g clip-path="url(#clip36_5125_49156)">
<circle cx="8.56372" cy="99.8664" r="1.31572" transform="rotate(45 8.56372 99.8664)" fill="#EF5656"/>
<circle cx="14.1455" cy="105.449" r="1.31572" transform="rotate(45 14.1455 105.449)" fill="#EF5656"/>
<circle cx="19.7278" cy="111.031" r="1.31572" transform="rotate(45 19.7278 111.031)" fill="#EF5656"/>
<circle cx="25.3101" cy="116.613" r="1.31572" transform="rotate(45 25.3101 116.613)" fill="#EF5656"/>
<circle cx="30.8923" cy="122.195" r="1.31572" transform="rotate(45 30.8923 122.195)" fill="#EF5656"/>
<circle cx="36.4744" cy="127.777" r="1.31572" transform="rotate(45 36.4744 127.777)" fill="#EF5656"/>
<circle cx="42.0562" cy="133.359" r="1.31572" transform="rotate(45 42.0562 133.359)" fill="#EF5656"/>
</g>
<g clip-path="url(#clip37_5125_49156)">
<circle cx="2.98145" cy="105.449" r="1.31572" transform="rotate(45 2.98145 105.449)" fill="#EF5656"/>
<circle cx="8.56323" cy="111.031" r="1.31572" transform="rotate(45 8.56323 111.031)" fill="#EF5656"/>
<circle cx="14.1453" cy="116.613" r="1.31572" transform="rotate(45 14.1453 116.613)" fill="#EF5656"/>
<circle cx="19.7275" cy="122.195" r="1.31572" transform="rotate(45 19.7275 122.195)" fill="#EF5656"/>
<circle cx="25.3098" cy="127.777" r="1.31572" transform="rotate(45 25.3098 127.777)" fill="#EF5656"/>
<circle cx="30.8918" cy="133.359" r="1.31572" transform="rotate(45 30.8918 133.359)" fill="#EF5656"/>
</g>
<g clip-path="url(#clip38_5125_49156)">
<circle cx="2.98169" cy="116.613" r="1.31572" transform="rotate(45 2.98169 116.613)" fill="#EF5656"/>
<circle cx="8.56372" cy="122.195" r="1.31572" transform="rotate(45 8.56372 122.195)" fill="#EF5656"/>
<circle cx="14.1455" cy="127.777" r="1.31572" transform="rotate(45 14.1455 127.777)" fill="#EF5656"/>
<circle cx="19.7278" cy="133.359" r="1.31572" transform="rotate(45 19.7278 133.359)" fill="#EF5656"/>
</g>
<g clip-path="url(#clip39_5125_49156)">
<circle cx="2.98169" cy="127.777" r="1.31572" transform="rotate(45 2.98169 127.777)" fill="#EF5656"/>
<circle cx="8.56372" cy="133.359" r="1.31572" transform="rotate(45 8.56372 133.359)" fill="#EF5656"/>
</g>
<g clip-path="url(#clip40_5125_49156)">
</g>
</g>
<defs>
<clipPath id="clip0_5125_49156">
<rect width="82.2222" height="81.5943" fill="white" transform="translate(41.5894 -57.2325) rotate(45)"/>
</clipPath>
<clipPath id="clip1_5125_49156">
<rect width="87.7145" height="7.89431" fill="white" transform="translate(41.5894 -57.2325) rotate(45)"/>
</clipPath>
<clipPath id="clip2_5125_49156">
<rect width="87.7145" height="7.89431" fill="white" transform="translate(36.0073 -51.6505) rotate(45)"/>
</clipPath>
<clipPath id="clip3_5125_49156">
<rect width="87.7145" height="7.89431" fill="white" transform="translate(30.4253 -46.0684) rotate(45)"/>
</clipPath>
<clipPath id="clip4_5125_49156">
<rect width="87.7145" height="7.89431" fill="white" transform="translate(24.8433 -40.4862) rotate(45)"/>
</clipPath>
<clipPath id="clip5_5125_49156">
<rect width="87.7145" height="7.89431" fill="white" transform="translate(19.261 -34.9041) rotate(45)"/>
</clipPath>
<clipPath id="clip6_5125_49156">
<rect width="87.7145" height="7.89431" fill="white" transform="translate(13.6787 -29.322) rotate(45)"/>
</clipPath>
<clipPath id="clip7_5125_49156">
<rect width="87.7145" height="7.89431" fill="white" transform="translate(8.09668 -23.7399) rotate(45)"/>
</clipPath>
<clipPath id="clip8_5125_49156">
<rect width="87.7145" height="7.89431" fill="white" transform="translate(2.51465 -18.1577) rotate(45)"/>
</clipPath>
<clipPath id="clip9_5125_49156">
<rect width="87.7145" height="7.89431" fill="white" transform="translate(-3.06763 -12.5756) rotate(45)"/>
</clipPath>
<clipPath id="clip10_5125_49156">
<rect width="87.7145" height="7.89431" fill="white" transform="translate(-8.64941 -6.99353) rotate(45)"/>
</clipPath>
<clipPath id="clip11_5125_49156">
<rect width="87.7145" height="7.89431" fill="white" transform="translate(-14.2317 -1.41138) rotate(45)"/>
</clipPath>
<clipPath id="clip12_5125_49156">
<rect width="82.2222" height="81.5943" fill="white" transform="translate(-19.05 3.40698) rotate(45)"/>
</clipPath>
<clipPath id="clip13_5125_49156">
<rect width="87.7145" height="7.89431" fill="white" transform="translate(-19.05 3.40698) rotate(45)"/>
</clipPath>
<clipPath id="clip14_5125_49156">
<rect width="87.7145" height="7.89431" fill="white" transform="translate(-24.6321 8.98907) rotate(45)"/>
</clipPath>
<clipPath id="clip15_5125_49156">
<rect width="87.7145" height="7.89431" fill="white" transform="translate(-30.2144 14.5712) rotate(45)"/>
</clipPath>
<clipPath id="clip16_5125_49156">
<rect width="87.7145" height="7.89431" fill="white" transform="translate(-35.7964 20.1533) rotate(45)"/>
</clipPath>
<clipPath id="clip17_5125_49156">
<rect width="87.7145" height="7.89431" fill="white" transform="translate(-41.3784 25.7354) rotate(45)"/>
</clipPath>
<clipPath id="clip18_5125_49156">
<rect width="87.7145" height="7.89431" fill="white" transform="translate(-46.9604 31.3176) rotate(45)"/>
</clipPath>
<clipPath id="clip19_5125_49156">
<rect width="87.7145" height="7.89431" fill="white" transform="translate(-52.5425 36.8997) rotate(45)"/>
</clipPath>
<clipPath id="clip20_5125_49156">
<rect width="82.2222" height="81.5943" fill="white" transform="translate(102.696 3.8736) rotate(45)"/>
</clipPath>
<clipPath id="clip21_5125_49156">
<rect width="87.7145" height="7.89431" fill="white" transform="translate(85.9495 20.62) rotate(45)"/>
</clipPath>
<clipPath id="clip22_5125_49156">
<rect width="87.7145" height="7.89431" fill="white" transform="translate(80.3672 26.202) rotate(45)"/>
</clipPath>
<clipPath id="clip23_5125_49156">
<rect width="87.7145" height="7.89431" fill="white" transform="translate(74.7852 31.7843) rotate(45)"/>
</clipPath>
<clipPath id="clip24_5125_49156">
<rect width="87.7145" height="7.89431" fill="white" transform="translate(69.2031 37.3662) rotate(45)"/>
</clipPath>
<clipPath id="clip25_5125_49156">
<rect width="87.7145" height="7.89431" fill="white" transform="translate(63.6211 42.9484) rotate(45)"/>
</clipPath>
<clipPath id="clip26_5125_49156">
<rect width="87.7145" height="7.89431" fill="white" transform="translate(58.0386 48.5305) rotate(45)"/>
</clipPath>
<clipPath id="clip27_5125_49156">
<rect width="87.7145" height="7.89431" fill="white" transform="translate(52.4565 54.1125) rotate(45)"/>
</clipPath>
<clipPath id="clip28_5125_49156">
<rect width="87.7145" height="7.89431" fill="white" transform="translate(46.8745 59.6947) rotate(45)"/>
</clipPath>
<clipPath id="clip29_5125_49156">
<rect width="82.2222" height="81.5943" fill="white" transform="translate(42.0562 64.5131) rotate(45)"/>
</clipPath>
<clipPath id="clip30_5125_49156">
<rect width="87.7145" height="7.89431" fill="white" transform="translate(42.0562 64.5131) rotate(45)"/>
</clipPath>
<clipPath id="clip31_5125_49156">
<rect width="87.7145" height="7.89431" fill="white" transform="translate(36.4744 70.0952) rotate(45)"/>
</clipPath>
<clipPath id="clip32_5125_49156">
<rect width="87.7145" height="7.89431" fill="white" transform="translate(30.8921 75.6772) rotate(45)"/>
</clipPath>
<clipPath id="clip33_5125_49156">
<rect width="87.7145" height="7.89431" fill="white" transform="translate(25.3101 81.2594) rotate(45)"/>
</clipPath>
<clipPath id="clip34_5125_49156">
<rect width="87.7145" height="7.89431" fill="white" transform="translate(19.7278 86.8416) rotate(45)"/>
</clipPath>
<clipPath id="clip35_5125_49156">
<rect width="87.7145" height="7.89431" fill="white" transform="translate(14.1455 92.4237) rotate(45)"/>
</clipPath>
<clipPath id="clip36_5125_49156">
<rect width="87.7145" height="7.89431" fill="white" transform="translate(8.56372 98.0057) rotate(45)"/>
</clipPath>
<clipPath id="clip37_5125_49156">
<rect width="87.7145" height="7.89431" fill="white" transform="translate(2.98145 103.588) rotate(45)"/>
</clipPath>
<clipPath id="clip38_5125_49156">
<rect width="87.7145" height="7.89431" fill="white" transform="translate(-2.60083 109.17) rotate(45)"/>
</clipPath>
<clipPath id="clip39_5125_49156">
<rect width="87.7145" height="7.89431" fill="white" transform="translate(-8.18262 114.752) rotate(45)"/>
</clipPath>
<clipPath id="clip40_5125_49156">
<rect width="87.7145" height="7.89431" fill="white" transform="translate(-13.7649 120.334) rotate(45)"/>
</clipPath>
</defs>
</svg>
