<svg width="85" height="109" viewBox="0 0 85 109" fill="none" xmlns="http://www.w3.org/2000/svg">
<g clip-path="url(#clip0_5125_49070)">
<path d="M85 0H0V108.97H85V0Z" fill="#AF0301"/>
<path d="M84.99 100.04V97.49H78.57V100.04H84.99Z" fill="#2D4D2E"/>
<g style="mix-blend-mode:overlay">
<path d="M85 104.01V103H0V104.01H85Z" fill="#BAA4A2"/>
</g>
<g style="mix-blend-mode:lighten">
<path d="M85 106.5V105.49H0V106.5H85Z" fill="#F39800"/>
</g>
<g style="mix-blend-mode:color">
<path d="M84.9999 4H0.139893V5.47H84.9999V4Z" fill="#1A2F58"/>
</g>
<path d="M19.6801 0H18.0801V108.97H19.6801V0Z" fill="#8D4B19"/>
<path d="M22.56 0H20.96V5.96H22.56V0Z" fill="#B47C79"/>
<path opacity="0.6" d="M22.5599 0H11.4299V5.5H22.5599V0Z" fill="#80150D"/>
<g style="mix-blend-mode:multiply" opacity="0.6">
<path d="M62.1299 108.97L62.1299 0L57.1299 0L57.1299 108.97H62.1299Z" fill="#80150D"/>
</g>
<path opacity="0.3" d="M44.73 108.97L44.73 0.0100098L43.53 0.0100098L43.53 108.97H44.73Z" fill="white"/>
<path d="M6.77002 51.06L6.77002 40.71H1.90735e-05L1.90735e-05 51.06H6.77002Z" fill="#71160C"/>
<g style="mix-blend-mode:color">
<path d="M32.5 101V98.45H0V101H32.5Z" fill="#2D4D2E"/>
</g>
<path d="M85 95.47V94.46H0V95.47H85Z" fill="#41170C"/>
<g style="mix-blend-mode:overlay">
<path d="M85 92.4499V91.4399H0V92.4499H85Z" fill="#C8AAA9"/>
</g>
<g style="mix-blend-mode:color">
<path d="M21.59 100.3H11.99V109H21.59V100.3Z" fill="#0F4518"/>
</g>
<g style="mix-blend-mode:color">
<path d="M57.1301 100.3H44.55V109H57.1301V100.3Z" fill="#0F4518"/>
</g>
<path d="M18.02 108.99V101H11.99V108.99H18.02Z" fill="#0C0C0C"/>
<path d="M44.73 108.99V100.31H36.36V108.99H44.73Z" fill="#0C0C0C"/>
<g style="mix-blend-mode:lighten">
<path d="M85 18.45H0V20.4799H85V18.45Z" fill="#F39800"/>
</g>
<g style="mix-blend-mode:overlay">
<path d="M85 5.5H0V9.1H85V5.5Z" fill="#000041"/>
</g>
<g style="mix-blend-mode:color" opacity="0.8">
<path d="M85 11.4H0V15.69H85V11.4Z" fill="#0F4518"/>
</g>
<path opacity="0.8" d="M85 81.65H0V85.94H85V81.65Z" fill="#0F4518"/>
<path opacity="0.4" d="M34.4399 108.97L34.4399 0L33.0999 0L33.0999 108.97H34.4399Z" fill="#C7BCBC"/>
<path d="M63.47 109L63.47 0L62.13 0L62.13 109H63.47Z" fill="#0C0C0C"/>
<g style="mix-blend-mode:overlay">
<path d="M11.99 109L11.99 0L11.21 0L11.21 109H11.99Z" fill="#0C0C0C"/>
</g>
<path d="M73.78 108.97V0L72.85 0V108.97H73.78Z" fill="#000041"/>
<path d="M85 11.39V6.89001H80.28V11.39H85Z" fill="#0C0C0C"/>
<path d="M85 81.65V77.3H78.58V81.65H85Z" fill="#0C0C0C"/>
<path opacity="0.7" d="M33.1101 108.97L33.1101 0L31.9101 0L31.9101 108.97H33.1101Z" fill="#F39800"/>
<path opacity="0.3" d="M42.5 108.97L42.5 0.0100098L41.3 0.0100098L41.3 108.97H42.5Z" fill="#F39800"/>
<path opacity="0.8" d="M36.8 108.99L36.8 0L36.14 0L36.14 108.99H36.8Z" fill="#000041"/>
<path opacity="0.3" d="M51.3101 108.97L51.3101 0L49.6801 0L49.6801 108.97H51.3101Z" fill="#000041"/>
<g style="mix-blend-mode:color" opacity="0.8">
<path d="M85 25.03H0V29.32H85V25.03Z" fill="#0F4518"/>
</g>
<path d="M85 59.49H0V60.29H85V59.49Z" fill="#F39800"/>
<path opacity="0.6" d="M85 51.0601H0V51.8601H85V51.0601Z" fill="#F39800"/>
<g style="mix-blend-mode:color">
<path d="M85 34H0V36.03H85V34Z" fill="#1F411F"/>
</g>
<path d="M85 22.26H0V23.25H85V22.26Z" fill="#000041"/>
<g style="mix-blend-mode:overlay">
<path d="M85 37.88H0V38.87H85V37.88Z" fill="#A4A3A3"/>
</g>
<g style="mix-blend-mode:multiply">
<path d="M85 40.71H0V47.89H85V40.71Z" fill="#80150D"/>
</g>
<path opacity="0.7" d="M85 61.5699H0V63.1099H85V61.5699Z" fill="white"/>
<path d="M85 31.3101H0V32.0001H85V31.3101Z" fill="#0C0C0C"/>
<path d="M85 76.61H0V77.3H85V76.61Z" fill="#000041"/>
<g style="mix-blend-mode:multiply">
<path d="M85 65.9301H0V73.1101H85V65.9301Z" fill="#80150D"/>
</g>
<path d="M85 51.86H0V53.33H85V51.86Z" fill="#1D2C4C"/>
<path opacity="0.7" d="M85 65.1899H0V66.6599H85V65.1899Z" fill="#000041"/>
</g>
<defs>
<clipPath id="clip0_5125_49070">
<rect width="85" height="109" fill="white"/>
</clipPath>
</defs>
</svg>
