<svg width="85" height="109" viewBox="0 0 85 109" fill="none" xmlns="http://www.w3.org/2000/svg">
<mask id="mask0_5125_47799" style="mask-type:luminance" maskUnits="userSpaceOnUse" x="0" y="0" width="85" height="109">
<path d="M85 0H0V109H85V0Z" fill="white"/>
</mask>
<g mask="url(#mask0_5125_47799)">
<mask id="mask1_5125_47799" style="mask-type:luminance" maskUnits="userSpaceOnUse" x="-52" y="-83" width="194" height="247">
<path d="M141.767 -82.5918H-51.6902V163.374H141.767V-82.5918Z" fill="white"/>
</mask>
<g mask="url(#mask1_5125_47799)">
<path d="M79.6392 -0.0522609L81.6308 3.22775L81.8003 3.50464L83.792 6.80595L85.8048 3.50464L85.9531 3.22775L87.9448 -0.0522609L85.9531 -3.35357L85.8048 -3.63045L83.792 -6.93176L81.8003 -3.63045L81.6308 -3.35357L79.6392 -0.0522609Z" fill="#005341"/>
<path d="M83.6218 -0.0522997L81.6301 3.22771L81.7996 3.5046L83.7913 0.203283L85.8041 3.5046L85.9524 3.22771L83.9608 -0.0522997L85.9524 -3.35361L85.8041 -3.63049L83.7913 -0.329186L81.7996 -3.63049L81.6301 -3.35361L83.6218 -0.0522997Z" fill="#006941"/>
<path d="M87.9448 13.6854L85.9531 16.9867L85.8048 17.2423L83.792 20.5649L81.8003 17.2423L81.6308 16.9867L79.6392 13.6854L81.6308 10.3841L81.8003 10.1285L83.792 6.80591L85.8048 10.1285L85.9531 10.3841L87.9448 13.6854Z" fill="black"/>
<path d="M83.9608 13.6854L85.9524 16.9867L85.8041 17.2423L83.7913 13.941L81.7996 17.2423L81.6301 16.9867L83.6218 13.6854L81.6301 10.3841L81.7996 10.1285L83.7913 13.4086L85.8041 10.1285L85.9524 10.3841L83.9608 13.6854Z" fill="#1A1A1A"/>
<path d="M79.6392 27.4231L81.6308 30.7245L81.8003 31.0013L83.792 34.3027L85.8048 31.0013L85.9531 30.7245L87.9448 27.4231L85.9531 24.1431L85.8048 23.8662L83.792 20.5649L81.8003 23.8662L81.6308 24.1431L79.6392 27.4231Z" fill="#005341"/>
<path d="M83.6218 27.4231L81.6301 30.7244L81.7996 31.0013L83.7913 27.7L85.8041 31.0013L85.9524 30.7244L83.9608 27.4231L85.9524 24.1431L85.8041 23.8662L83.7913 27.1675L81.7996 23.8662L81.6301 24.1431L83.6218 27.4231Z" fill="#006941"/>
<path d="M87.9448 41.1821L85.9531 44.4834L85.8048 44.739L83.792 48.0403L81.8003 44.739L81.6308 44.4834L79.6392 41.1821L81.6308 37.8808L81.8003 37.6039L83.792 34.3026L85.8048 37.6039L85.9531 37.8808L87.9448 41.1821Z" fill="black"/>
<path d="M83.9608 41.1821L85.9524 44.4834L85.8041 44.739L83.7913 41.4377L81.7996 44.739L81.6301 44.4834L83.6218 41.1821L81.6301 37.8808L81.7996 37.6039L83.7913 40.9052L85.8041 37.6039L85.9524 37.8808L83.9608 41.1821Z" fill="#1A1A1A"/>
<path d="M79.6392 54.9198L81.6308 58.2211L81.8003 58.498L83.792 61.7993L85.8048 58.498L85.9531 58.2211L87.9448 54.9198L85.9531 51.6185L85.8048 51.3629L83.792 48.0403L81.8003 51.3629L81.6308 51.6185L79.6392 54.9198Z" fill="#005341"/>
<path d="M83.6218 54.9198L81.6301 58.2211L81.7996 58.498L83.7913 55.1967L85.8041 58.498L85.9524 58.2211L83.9608 54.9198L85.9524 51.6185L85.8041 51.3629L83.7913 54.6642L81.7996 51.3629L81.6301 51.6185L83.6218 54.9198Z" fill="#006941"/>
<path d="M87.9448 68.6788L85.9531 71.9588L85.8048 72.2357L83.792 75.537L81.8003 72.2357L81.6308 71.9588L79.6392 68.6788L81.6308 65.3775L81.8003 65.1006L83.792 61.7993L85.8048 65.1006L85.9531 65.3775L87.9448 68.6788Z" fill="black"/>
<path d="M83.9608 68.6789L85.9524 71.9589L85.8041 72.2358L83.7913 68.9345L81.7996 72.2358L81.6301 71.9589L83.6218 68.6789L81.6301 65.3776L81.7996 65.1007L83.7913 68.402L85.8041 65.1007L85.9524 65.3776L83.9608 68.6789Z" fill="#1A1A1A"/>
<path d="M79.6392 82.4166L81.6308 85.7179L81.8003 85.9735L83.792 89.2961L85.8048 85.9735L85.9531 85.7179L87.9448 82.4166L85.9531 79.1153L85.8048 78.8597L83.792 75.5371L81.8003 78.8597L81.6308 79.1153L79.6392 82.4166Z" fill="#005341"/>
<path d="M83.6218 82.4166L81.6301 85.7179L81.7996 85.9735L83.7913 82.6722L85.8041 85.9735L85.9524 85.7179L83.9608 82.4166L85.9524 79.1153L85.8041 78.8597L83.7913 82.1398L81.7996 78.8597L81.6301 79.1153L83.6218 82.4166Z" fill="#006941"/>
<path d="M87.9448 96.1542L85.9531 99.4555L85.8048 99.7324L83.792 103.034L81.8003 99.7324L81.6308 99.4555L79.6392 96.1542L81.6308 92.8742L81.8003 92.5973L83.792 89.296L85.8048 92.5973L85.9531 92.8742L87.9448 96.1542Z" fill="black"/>
<path d="M83.9608 96.1542L85.9524 99.4555L85.8041 99.7324L83.7913 96.4311L81.7996 99.7324L81.6301 99.4555L83.6218 96.1542L81.6301 92.8742L81.7996 92.5973L83.7913 95.8986L85.8041 92.5973L85.9524 92.8742L83.9608 96.1542Z" fill="#1A1A1A"/>
<path d="M79.6392 109.913L81.6308 113.215L81.8003 113.47L83.792 116.771L85.8048 113.47L85.9531 113.215L87.9448 109.913L85.9531 106.612L85.8048 106.335L83.792 103.034L81.8003 106.335L81.6308 106.612L79.6392 109.913Z" fill="#005341"/>
<path d="M83.6218 109.913L81.6301 113.214L81.7996 113.47L83.7913 110.169L85.8041 113.47L85.9524 113.214L83.9608 109.913L85.9524 106.612L85.8041 106.335L83.7913 109.636L81.7996 106.335L81.6301 106.612L83.6218 109.913Z" fill="#006941"/>
<path d="M71.312 -0.0522609L73.3037 3.22775L73.4732 3.50464L75.486 6.80595L77.4776 3.50464L77.6472 3.22775L79.6388 -0.0522609L77.6472 -3.35357L77.4776 -3.63045L75.486 -6.93176L73.4732 -3.63045L73.3037 -3.35357L71.312 -0.0522609Z" fill="black"/>
<path d="M75.3153 -0.0522997L73.3025 3.22771L73.472 3.5046L75.4848 0.203283L77.4765 3.5046L77.646 3.22771L75.6331 -0.0522997L77.646 -3.35361L77.4765 -3.63049L75.4848 -0.329186L73.472 -3.63049L73.3025 -3.35361L75.3153 -0.0522997Z" fill="#1A1A1A"/>
<path d="M63.0063 -0.0522609L64.998 3.22775L65.1463 3.50464L67.1591 6.80595L69.1508 3.50464L69.3203 3.22775L71.3119 -0.0522609L69.3203 -3.35357L69.1508 -3.63045L67.1591 -6.93176L65.1463 -3.63045L64.998 -3.35357L63.0063 -0.0522609Z" fill="#005341"/>
<path d="M66.9885 -0.0522997L64.9968 3.22771L65.1451 3.5046L67.158 0.203283L69.1496 3.5046L69.3191 3.22771L67.3275 -0.0522997L69.3191 -3.35361L69.1496 -3.63049L67.158 -0.329186L65.1451 -3.63049L64.9968 -3.35361L66.9885 -0.0522997Z" fill="#006941"/>
<path d="M54.6797 -0.0522609L56.6713 3.22775L56.8408 3.50464L58.8325 6.80595L60.8453 3.50464L60.9936 3.22775L63.0065 -0.0522609L60.9936 -3.35357L60.8453 -3.63045L58.8325 -6.93176L56.8408 -3.63045L56.6713 -3.35357L54.6797 -0.0522609Z" fill="black"/>
<path d="M58.6825 -0.0522997L56.6697 3.22771L56.8392 3.5046L58.8308 0.203283L60.8437 3.5046L60.992 3.22771L59.0003 -0.0522997L60.992 -3.35361L60.8437 -3.63049L58.8308 -0.329186L56.8392 -3.63049L56.6697 -3.35361L58.6825 -0.0522997Z" fill="#1A1A1A"/>
<path d="M46.3523 -0.0522609L48.3651 3.22775L48.5134 3.50464L50.5263 6.80595L52.5179 3.50464L52.6874 3.22775L54.6791 -0.0522609L52.6874 -3.35357L52.5179 -3.63045L50.5263 -6.93176L48.5134 -3.63045L48.3651 -3.35357L46.3523 -0.0522609Z" fill="#005341"/>
<path d="M50.3571 -0.0522997L48.3655 3.22771L48.5138 3.5046L50.5266 0.203283L52.5183 3.5046L52.6878 3.22771L50.6749 -0.0522997L52.6878 -3.35361L52.5183 -3.63049L50.5266 -0.329186L48.5138 -3.63049L48.3655 -3.35361L50.3571 -0.0522997Z" fill="#006941"/>
<path d="M54.6791 13.6854L52.6874 16.9867L52.5179 17.2423L50.5263 20.5649L48.5134 17.2423L48.3651 16.9867L46.3523 13.6854L48.3651 10.3841L48.5134 10.1285L50.5263 6.80591L52.5179 10.1285L52.6874 10.3841L54.6791 13.6854Z" fill="black"/>
<path d="M50.6749 13.6854L52.6878 16.9867L52.5183 17.2423L50.5266 13.941L48.5138 17.2423L48.3655 16.9867L50.3571 13.6854L48.3655 10.3841L48.5138 10.1285L50.5266 13.4086L52.5183 10.1285L52.6878 10.3841L50.6749 13.6854Z" fill="#1A1A1A"/>
<path d="M63.0065 13.6854L60.9936 16.9867L60.8453 17.2423L58.8325 20.5649L56.8408 17.2423L56.6713 16.9867L54.6797 13.6854L56.6713 10.3841L56.8408 10.1285L58.8325 6.80591L60.8453 10.1285L60.9936 10.3841L63.0065 13.6854Z" fill="#005341"/>
<path d="M59.0003 13.6854L60.992 16.9867L60.8437 17.2423L58.8308 13.941L56.8392 17.2423L56.6697 16.9867L58.6825 13.6854L56.6697 10.3841L56.8392 10.1285L58.8308 13.4086L60.8437 10.1285L60.992 10.3841L59.0003 13.6854Z" fill="#006941"/>
<path d="M71.3119 13.6854L69.3203 16.9867L69.1508 17.2423L67.1591 20.5649L65.1463 17.2423L64.998 16.9867L63.0063 13.6854L64.998 10.3841L65.1463 10.1285L67.1591 6.80591L69.1508 10.1285L69.3203 10.3841L71.3119 13.6854Z" fill="black"/>
<path d="M67.3275 13.6854L69.3191 16.9867L69.1496 17.2423L67.158 13.941L65.1451 17.2423L64.9968 16.9867L66.9885 13.6854L64.9968 10.3841L65.1451 10.1285L67.158 13.4086L69.1496 10.1285L69.3191 10.3841L67.3275 13.6854Z" fill="#1A1A1A"/>
<path d="M79.6388 13.6854L77.6472 16.9867L77.4776 17.2423L75.486 20.5649L73.4732 17.2423L73.3037 16.9867L71.312 13.6854L73.3037 10.3841L73.4732 10.1285L75.486 6.80591L77.4776 10.1285L77.6472 10.3841L79.6388 13.6854Z" fill="#005341"/>
<path d="M75.6344 13.6854L77.6472 16.9867L77.4777 17.2423L75.486 13.941L73.4732 17.2423L73.3037 16.9867L75.3165 13.6854L73.3037 10.3841L73.4732 10.1285L75.486 13.4086L77.4777 10.1285L77.6472 10.3841L75.6344 13.6854Z" fill="#006941"/>
<path d="M71.312 27.4231L73.3037 30.7245L73.4732 31.0013L75.486 34.3027L77.4776 31.0013L77.6472 30.7245L79.6388 27.4231L77.6472 24.1431L77.4776 23.8662L75.486 20.5649L73.4732 23.8662L73.3037 24.1431L71.312 27.4231Z" fill="black"/>
<path d="M75.3153 27.4231L73.3025 30.7244L73.472 31.0013L75.4848 27.7L77.4765 31.0013L77.646 30.7244L75.6331 27.4231L77.646 24.1431L77.4765 23.8662L75.4848 27.1675L73.472 23.8662L73.3025 24.1431L75.3153 27.4231Z" fill="#1A1A1A"/>
<path d="M63.0063 27.4231L64.998 30.7245L65.1463 31.0013L67.1591 34.3027L69.1508 31.0013L69.3203 30.7245L71.3119 27.4231L69.3203 24.1431L69.1508 23.8662L67.1591 20.5649L65.1463 23.8662L64.998 24.1431L63.0063 27.4231Z" fill="#005341"/>
<path d="M66.9885 27.4231L64.9968 30.7244L65.1451 31.0013L67.158 27.7L69.1496 31.0013L69.3191 30.7244L67.3275 27.4231L69.3191 24.1431L69.1496 23.8662L67.158 27.1675L65.1451 23.8662L64.9968 24.1431L66.9885 27.4231Z" fill="#006941"/>
<path d="M54.6797 27.4231L56.6713 30.7245L56.8408 31.0013L58.8325 34.3027L60.8453 31.0013L60.9936 30.7245L63.0065 27.4231L60.9936 24.1431L60.8453 23.8662L58.8325 20.5649L56.8408 23.8662L56.6713 24.1431L54.6797 27.4231Z" fill="black"/>
<path d="M58.6825 27.4231L56.6697 30.7244L56.8392 31.0013L58.8308 27.7L60.8437 31.0013L60.992 30.7244L59.0003 27.4231L60.992 24.1431L60.8437 23.8662L58.8308 27.1675L56.8392 23.8662L56.6697 24.1431L58.6825 27.4231Z" fill="#1A1A1A"/>
<path d="M46.3523 27.4231L48.3651 30.7245L48.5134 31.0013L50.5263 34.3027L52.5179 31.0013L52.6874 30.7245L54.6791 27.4231L52.6874 24.1431L52.5179 23.8662L50.5263 20.5649L48.5134 23.8662L48.3651 24.1431L46.3523 27.4231Z" fill="#005341"/>
<path d="M50.3571 27.4231L48.3655 30.7244L48.5138 31.0013L50.5266 27.7L52.5183 31.0013L52.6878 30.7244L50.6749 27.4231L52.6878 24.1431L52.5183 23.8662L50.5266 27.1675L48.5138 23.8662L48.3655 24.1431L50.3571 27.4231Z" fill="#006941"/>
<path d="M54.6791 41.1821L52.6874 44.4834L52.5179 44.739L50.5263 48.0403L48.5134 44.739L48.3651 44.4834L46.3523 41.1821L48.3651 37.8808L48.5134 37.6039L50.5263 34.3026L52.5179 37.6039L52.6874 37.8808L54.6791 41.1821Z" fill="black"/>
<path d="M50.6749 41.1821L52.6878 44.4834L52.5183 44.739L50.5266 41.4377L48.5138 44.739L48.3655 44.4834L50.3571 41.1821L48.3655 37.8808L48.5138 37.6039L50.5266 40.9052L52.5183 37.6039L52.6878 37.8808L50.6749 41.1821Z" fill="#1A1A1A"/>
<path d="M63.0065 41.1821L60.9936 44.4834L60.8453 44.739L58.8325 48.0403L56.8408 44.739L56.6713 44.4834L54.6797 41.1821L56.6713 37.8808L56.8408 37.6039L58.8325 34.3026L60.8453 37.6039L60.9936 37.8808L63.0065 41.1821Z" fill="#005341"/>
<path d="M59.0003 41.1821L60.992 44.4834L60.8437 44.739L58.8308 41.4377L56.8392 44.739L56.6697 44.4834L58.6825 41.1821L56.6697 37.8808L56.8392 37.6039L58.8308 40.9052L60.8437 37.6039L60.992 37.8808L59.0003 41.1821Z" fill="#006941"/>
<path d="M71.3119 41.1821L69.3203 44.4834L69.1508 44.739L67.1591 48.0403L65.1463 44.739L64.998 44.4834L63.0063 41.1821L64.998 37.8808L65.1463 37.6039L67.1591 34.3026L69.1508 37.6039L69.3203 37.8808L71.3119 41.1821Z" fill="black"/>
<path d="M67.3275 41.1821L69.3191 44.4834L69.1496 44.739L67.158 41.4377L65.1451 44.739L64.9968 44.4834L66.9885 41.1821L64.9968 37.8808L65.1451 37.6039L67.158 40.9052L69.1496 37.6039L69.3191 37.8808L67.3275 41.1821Z" fill="#1A1A1A"/>
<path d="M79.6388 41.1821L77.6472 44.4834L77.4776 44.739L75.486 48.0403L73.4732 44.739L73.3037 44.4834L71.312 41.1821L73.3037 37.8808L73.4732 37.6039L75.486 34.3026L77.4776 37.6039L77.6472 37.8808L79.6388 41.1821Z" fill="#005341"/>
<path d="M75.6344 41.1821L77.6472 44.4834L77.4777 44.739L75.486 41.4377L73.4732 44.739L73.3037 44.4834L75.3165 41.1821L73.3037 37.8808L73.4732 37.6039L75.486 40.9052L77.4777 37.6039L77.6472 37.8808L75.6344 41.1821Z" fill="#006941"/>
<path d="M71.312 54.9198L73.3037 58.2211L73.4732 58.498L75.486 61.7993L77.4776 58.498L77.6472 58.2211L79.6388 54.9198L77.6472 51.6185L77.4776 51.3629L75.486 48.0403L73.4732 51.3629L73.3037 51.6185L71.312 54.9198Z" fill="black"/>
<path d="M75.3153 54.9198L73.3025 58.2211L73.472 58.498L75.4848 55.1967L77.4765 58.498L77.646 58.2211L75.6331 54.9198L77.646 51.6185L77.4765 51.3629L75.4848 54.6642L73.472 51.3629L73.3025 51.6185L75.3153 54.9198Z" fill="#1A1A1A"/>
<path d="M63.0063 54.9198L64.998 58.2211L65.1463 58.498L67.1591 61.7993L69.1508 58.498L69.3203 58.2211L71.3119 54.9198L69.3203 51.6185L69.1508 51.3629L67.1591 48.0403L65.1463 51.3629L64.998 51.6185L63.0063 54.9198Z" fill="#005341"/>
<path d="M66.9885 54.9198L64.9968 58.2211L65.1451 58.498L67.158 55.1967L69.1496 58.498L69.3191 58.2211L67.3275 54.9198L69.3191 51.6185L69.1496 51.3629L67.158 54.6642L65.1451 51.3629L64.9968 51.6185L66.9885 54.9198Z" fill="#006941"/>
<path d="M54.6797 54.9198L56.6713 58.2211L56.8408 58.498L58.8325 61.7993L60.8453 58.498L60.9936 58.2211L63.0065 54.9198L60.9936 51.6185L60.8453 51.3629L58.8325 48.0403L56.8408 51.3629L56.6713 51.6185L54.6797 54.9198Z" fill="black"/>
<path d="M58.6825 54.9198L56.6697 58.2211L56.8392 58.498L58.8308 55.1967L60.8437 58.498L60.992 58.2211L59.0003 54.9198L60.992 51.6185L60.8437 51.3629L58.8308 54.6642L56.8392 51.3629L56.6697 51.6185L58.6825 54.9198Z" fill="#1A1A1A"/>
<path d="M46.3523 54.9198L48.3651 58.2211L48.5134 58.498L50.5263 61.7993L52.5179 58.498L52.6874 58.2211L54.6791 54.9198L52.6874 51.6185L52.5179 51.3629L50.5263 48.0403L48.5134 51.3629L48.3651 51.6185L46.3523 54.9198Z" fill="#005341"/>
<path d="M50.3571 54.9198L48.3655 58.2211L48.5138 58.498L50.5266 55.1967L52.5183 58.498L52.6878 58.2211L50.6749 54.9198L52.6878 51.6185L52.5183 51.3629L50.5266 54.6642L48.5138 51.3629L48.3655 51.6185L50.3571 54.9198Z" fill="#006941"/>
<path d="M54.6791 68.6788L52.6874 71.9588L52.5179 72.2357L50.5263 75.537L48.5134 72.2357L48.3651 71.9588L46.3523 68.6788L48.3651 65.3775L48.5134 65.1006L50.5263 61.7993L52.5179 65.1006L52.6874 65.3775L54.6791 68.6788Z" fill="black"/>
<path d="M50.6749 68.6789L52.6878 71.9589L52.5183 72.2358L50.5266 68.9345L48.5138 72.2358L48.3655 71.9589L50.3571 68.6789L48.3655 65.3776L48.5138 65.1007L50.5266 68.402L52.5183 65.1007L52.6878 65.3776L50.6749 68.6789Z" fill="#1A1A1A"/>
<path d="M63.0065 68.6788L60.9936 71.9588L60.8453 72.2357L58.8325 75.537L56.8408 72.2357L56.6713 71.9588L54.6797 68.6788L56.6713 65.3775L56.8408 65.1006L58.8325 61.7993L60.8453 65.1006L60.9936 65.3775L63.0065 68.6788Z" fill="#005341"/>
<path d="M59.0003 68.6789L60.992 71.9589L60.8437 72.2358L58.8308 68.9345L56.8392 72.2358L56.6697 71.9589L58.6825 68.6789L56.6697 65.3776L56.8392 65.1007L58.8308 68.402L60.8437 65.1007L60.992 65.3776L59.0003 68.6789Z" fill="#006941"/>
<path d="M71.3119 68.6788L69.3203 71.9588L69.1508 72.2357L67.1591 75.537L65.1463 72.2357L64.998 71.9588L63.0063 68.6788L64.998 65.3775L65.1463 65.1006L67.1591 61.7993L69.1508 65.1006L69.3203 65.3775L71.3119 68.6788Z" fill="black"/>
<path d="M67.3275 68.6788L69.3191 71.9588L69.1496 72.2357L67.158 68.9344L65.1451 72.2357L64.9968 71.9588L66.9885 68.6788L64.9968 65.3775L65.1451 65.1006L67.158 68.4019L69.1496 65.1006L69.3191 65.3775L67.3275 68.6788Z" fill="#1A1A1A"/>
<path d="M79.6388 68.6788L77.6472 71.9588L77.4776 72.2357L75.486 75.537L73.4732 72.2357L73.3037 71.9588L71.312 68.6788L73.3037 65.3775L73.4732 65.1006L75.486 61.7993L77.4776 65.1006L77.6472 65.3775L79.6388 68.6788Z" fill="#005341"/>
<path d="M75.6344 68.6788L77.6472 71.9588L77.4777 72.2357L75.486 68.9344L73.4732 72.2357L73.3037 71.9588L75.3165 68.6788L73.3037 65.3775L73.4732 65.1006L75.486 68.4019L77.4777 65.1006L77.6472 65.3775L75.6344 68.6788Z" fill="#006941"/>
<path d="M71.312 82.4166L73.3037 85.7179L73.4732 85.9735L75.486 89.2961L77.4776 85.9735L77.6472 85.7179L79.6388 82.4166L77.6472 79.1153L77.4776 78.8597L75.486 75.5371L73.4732 78.8597L73.3037 79.1153L71.312 82.4166Z" fill="black"/>
<path d="M75.3153 82.4165L73.3025 85.7178L73.472 85.9734L75.4848 82.6721L77.4765 85.9734L77.646 85.7178L75.6331 82.4165L77.646 79.1152L77.4765 78.8596L75.4848 82.1396L73.472 78.8596L73.3025 79.1152L75.3153 82.4165Z" fill="#1A1A1A"/>
<path d="M63.0063 82.4166L64.998 85.7179L65.1463 85.9735L67.1591 89.2961L69.1508 85.9735L69.3203 85.7179L71.3119 82.4166L69.3203 79.1153L69.1508 78.8597L67.1591 75.5371L65.1463 78.8597L64.998 79.1153L63.0063 82.4166Z" fill="#005341"/>
<path d="M66.9885 82.4165L64.9968 85.7178L65.1451 85.9734L67.158 82.6721L69.1496 85.9734L69.3191 85.7178L67.3275 82.4165L69.3191 79.1152L69.1496 78.8596L67.158 82.1396L65.1451 78.8596L64.9968 79.1152L66.9885 82.4165Z" fill="#006941"/>
<path d="M54.6797 82.4166L56.6713 85.7179L56.8408 85.9735L58.8325 89.2961L60.8453 85.9735L60.9936 85.7179L63.0065 82.4166L60.9936 79.1153L60.8453 78.8597L58.8325 75.5371L56.8408 78.8597L56.6713 79.1153L54.6797 82.4166Z" fill="black"/>
<path d="M58.6825 82.4166L56.6697 85.7179L56.8392 85.9735L58.8308 82.6722L60.8437 85.9735L60.992 85.7179L59.0003 82.4166L60.992 79.1153L60.8437 78.8597L58.8308 82.1398L56.8392 78.8597L56.6697 79.1153L58.6825 82.4166Z" fill="#1A1A1A"/>
<path d="M46.3523 82.4166L48.3651 85.7179L48.5134 85.9735L50.5263 89.2961L52.5179 85.9735L52.6874 85.7179L54.6791 82.4166L52.6874 79.1153L52.5179 78.8597L50.5263 75.5371L48.5134 78.8597L48.3651 79.1153L46.3523 82.4166Z" fill="#005341"/>
<path d="M50.3571 82.4166L48.3655 85.7179L48.5138 85.9735L50.5266 82.6722L52.5183 85.9735L52.6878 85.7179L50.6749 82.4166L52.6878 79.1153L52.5183 78.8597L50.5266 82.1398L48.5138 78.8597L48.3655 79.1153L50.3571 82.4166Z" fill="#006941"/>
<path d="M54.6791 96.1542L52.6874 99.4555L52.5179 99.7324L50.5263 103.034L48.5134 99.7324L48.3651 99.4555L46.3523 96.1542L48.3651 92.8742L48.5134 92.5973L50.5263 89.296L52.5179 92.5973L52.6874 92.8742L54.6791 96.1542Z" fill="black"/>
<path d="M50.6749 96.1542L52.6878 99.4555L52.5183 99.7324L50.5266 96.4311L48.5138 99.7324L48.3655 99.4555L50.3571 96.1542L48.3655 92.8742L48.5138 92.5973L50.5266 95.8986L52.5183 92.5973L52.6878 92.8742L50.6749 96.1542Z" fill="#1A1A1A"/>
<path d="M63.0065 96.1542L60.9936 99.4555L60.8453 99.7324L58.8325 103.034L56.8408 99.7324L56.6713 99.4555L54.6797 96.1542L56.6713 92.8742L56.8408 92.5973L58.8325 89.296L60.8453 92.5973L60.9936 92.8742L63.0065 96.1542Z" fill="#005341"/>
<path d="M59.0003 96.1542L60.992 99.4555L60.8437 99.7324L58.8308 96.4311L56.8392 99.7324L56.6697 99.4555L58.6825 96.1542L56.6697 92.8742L56.8392 92.5973L58.8308 95.8986L60.8437 92.5973L60.992 92.8742L59.0003 96.1542Z" fill="#006941"/>
<path d="M71.3119 96.1542L69.3203 99.4555L69.1508 99.7324L67.1591 103.034L65.1463 99.7324L64.998 99.4555L63.0063 96.1542L64.998 92.8742L65.1463 92.5973L67.1591 89.296L69.1508 92.5973L69.3203 92.8742L71.3119 96.1542Z" fill="black"/>
<path d="M67.3275 96.1542L69.3191 99.4555L69.1496 99.7324L67.158 96.4311L65.1451 99.7324L64.9968 99.4555L66.9885 96.1542L64.9968 92.8742L65.1451 92.5973L67.158 95.8986L69.1496 92.5973L69.3191 92.8742L67.3275 96.1542Z" fill="#1A1A1A"/>
<path d="M79.6388 96.1542L77.6472 99.4555L77.4776 99.7324L75.486 103.034L73.4732 99.7324L73.3037 99.4555L71.312 96.1542L73.3037 92.8742L73.4732 92.5973L75.486 89.296L77.4776 92.5973L77.6472 92.8742L79.6388 96.1542Z" fill="#005341"/>
<path d="M75.6344 96.1542L77.6472 99.4555L77.4777 99.7324L75.486 96.4311L73.4732 99.7324L73.3037 99.4555L75.3165 96.1542L73.3037 92.8742L73.4732 92.5973L75.486 95.8986L77.4777 92.5973L77.6472 92.8742L75.6344 96.1542Z" fill="#006941"/>
<path d="M71.312 109.913L73.3037 113.215L73.4732 113.47L75.486 116.771L77.4776 113.47L77.6472 113.215L79.6388 109.913L77.6472 106.612L77.4776 106.335L75.486 103.034L73.4732 106.335L73.3037 106.612L71.312 109.913Z" fill="black"/>
<path d="M75.3153 109.913L73.3025 113.215L73.472 113.47L75.4848 110.169L77.4765 113.47L77.646 113.215L75.6331 109.913L77.646 106.612L77.4765 106.335L75.4848 109.636L73.472 106.335L73.3025 106.612L75.3153 109.913Z" fill="#1A1A1A"/>
<path d="M63.0063 109.913L64.998 113.215L65.1463 113.47L67.1591 116.771L69.1508 113.47L69.3203 113.215L71.3119 109.913L69.3203 106.612L69.1508 106.335L67.1591 103.034L65.1463 106.335L64.998 106.612L63.0063 109.913Z" fill="#005341"/>
<path d="M66.9885 109.913L64.9968 113.215L65.1451 113.47L67.158 110.169L69.1496 113.47L69.3191 113.215L67.3275 109.913L69.3191 106.612L69.1496 106.335L67.158 109.636L65.1451 106.335L64.9968 106.612L66.9885 109.913Z" fill="#006941"/>
<path d="M54.6797 109.913L56.6713 113.215L56.8408 113.47L58.8325 116.771L60.8453 113.47L60.9936 113.215L63.0065 109.913L60.9936 106.612L60.8453 106.335L58.8325 103.034L56.8408 106.335L56.6713 106.612L54.6797 109.913Z" fill="black"/>
<path d="M58.6825 109.913L56.6697 113.214L56.8392 113.47L58.8308 110.169L60.8437 113.47L60.992 113.214L59.0003 109.913L60.992 106.612L60.8437 106.335L58.8308 109.636L56.8392 106.335L56.6697 106.612L58.6825 109.913Z" fill="#1A1A1A"/>
<path d="M46.3523 109.913L48.3651 113.215L48.5134 113.47L50.5263 116.771L52.5179 113.47L52.6874 113.215L54.6791 109.913L52.6874 106.612L52.5179 106.335L50.5263 103.034L48.5134 106.335L48.3651 106.612L46.3523 109.913Z" fill="#005341"/>
<path d="M50.3571 109.913L48.3655 113.214L48.5138 113.47L50.5266 110.169L52.5183 113.47L52.6878 113.214L50.6749 109.913L52.6878 106.612L52.5183 106.335L50.5266 109.636L48.5138 106.335L48.3655 106.612L50.3571 109.913Z" fill="#006941"/>
<path d="M38.0464 -0.0522609L40.038 3.22775L40.2075 3.50464L42.1992 6.80595L44.212 3.50464L44.3603 3.22775L46.352 -0.0522609L44.3603 -3.35357L44.212 -3.63045L42.1992 -6.93176L40.2075 -3.63045L40.038 -3.35357L38.0464 -0.0522609Z" fill="black"/>
<path d="M42.0288 -0.0522997L40.0371 3.22771L40.2066 3.5046L42.1983 0.203283L44.2111 3.5046L44.3594 3.22771L42.3678 -0.0522997L44.3594 -3.35361L44.2111 -3.63049L42.1983 -0.329186L40.2066 -3.63049L40.0371 -3.35361L42.0288 -0.0522997Z" fill="#1A1A1A"/>
<path d="M29.719 -0.0522609L31.7106 3.22775L31.8801 3.50464L33.8718 6.80595L35.8846 3.50464L36.0541 3.22775L38.0458 -0.0522609L36.0541 -3.35357L35.8846 -3.63045L33.8718 -6.93176L31.8801 -3.63045L31.7106 -3.35357L29.719 -0.0522609Z" fill="#005341"/>
<path d="M33.723 -0.0522997L31.7102 3.22771L31.8797 3.5046L33.8714 0.203283L35.8842 3.5046L36.0537 3.22771L34.0409 -0.0522997L36.0537 -3.35361L35.8842 -3.63049L33.8714 -0.329186L31.8797 -3.63049L31.7102 -3.35361L33.723 -0.0522997Z" fill="#006941"/>
<path d="M21.4131 -0.0522609L23.4047 3.22775L23.553 3.50464L25.5659 6.80595L27.5575 3.50464L27.727 3.22775L29.7187 -0.0522609L27.727 -3.35357L27.5575 -3.63045L25.5659 -6.93176L23.553 -3.63045L23.4047 -3.35357L21.4131 -0.0522609Z" fill="black"/>
<path d="M25.3979 -0.0522997L23.4062 3.22771L23.5546 3.5046L25.5674 0.203283L27.5591 3.5046L27.7286 3.22771L25.7157 -0.0522997L27.7286 -3.35361L27.5591 -3.63049L25.5674 -0.329186L23.5546 -3.63049L23.4062 -3.35361L25.3979 -0.0522997Z" fill="#1A1A1A"/>
<path d="M13.0876 -0.0522609L15.0793 3.22775L15.2488 3.50464L17.2404 6.80595L19.2533 3.50464L19.4016 3.22775L21.4144 -0.0522609L19.4016 -3.35357L19.2533 -3.63045L17.2404 -6.93176L15.2488 -3.63045L15.0793 -3.35357L13.0876 -0.0522609Z" fill="#005341"/>
<path d="M17.0915 -0.0522997L15.0786 3.22771L15.2481 3.5046L17.2398 0.203283L19.2526 3.5046L19.4009 3.22771L17.4093 -0.0522997L19.4009 -3.35361L19.2526 -3.63049L17.2398 -0.329186L15.2481 -3.63049L15.0786 -3.35361L17.0915 -0.0522997Z" fill="#006941"/>
<path d="M21.4139 13.6854L19.4011 16.9867L19.2528 17.2423L17.24 20.5649L15.2483 17.2423L15.0788 16.9867L13.0872 13.6854L15.0788 10.3841L15.2483 10.1285L17.24 6.80591L19.2528 10.1285L19.4011 10.3841L21.4139 13.6854Z" fill="black"/>
<path d="M17.4093 13.6854L19.4009 16.9867L19.2526 17.2423L17.2398 13.941L15.2481 17.2423L15.0786 16.9867L17.0915 13.6854L15.0786 10.3841L15.2481 10.1285L17.2398 13.4086L19.2526 10.1285L19.4009 10.3841L17.4093 13.6854Z" fill="#1A1A1A"/>
<path d="M29.7187 13.6854L27.727 16.9867L27.5575 17.2423L25.5659 20.5649L23.553 17.2423L23.4047 16.9867L21.4131 13.6854L23.4047 10.3841L23.553 10.1285L25.5659 6.80591L27.5575 10.1285L27.727 10.3841L29.7187 13.6854Z" fill="#005341"/>
<path d="M25.7157 13.6854L27.7286 16.9867L27.5591 17.2423L25.5674 13.941L23.5546 17.2423L23.4062 16.9867L25.3979 13.6854L23.4062 10.3841L23.5546 10.1285L25.5674 13.4086L27.5591 10.1285L27.7286 10.3841L25.7157 13.6854Z" fill="#006941"/>
<path d="M38.0458 13.6854L36.0541 16.9867L35.8846 17.2423L33.8718 20.5649L31.8801 17.2423L31.7106 16.9867L29.719 13.6854L31.7106 10.3841L31.8801 10.1285L33.8718 6.80591L35.8846 10.1285L36.0541 10.3841L38.0458 13.6854Z" fill="black"/>
<path d="M34.0409 13.6854L36.0537 16.9867L35.8842 17.2423L33.8714 13.941L31.8797 17.2423L31.7102 16.9867L33.723 13.6854L31.7102 10.3841L31.8797 10.1285L33.8714 13.4086L35.8842 10.1285L36.0537 10.3841L34.0409 13.6854Z" fill="#1A1A1A"/>
<path d="M46.352 13.6854L44.3603 16.9867L44.212 17.2423L42.1992 20.5649L40.2075 17.2423L40.038 16.9867L38.0464 13.6854L40.038 10.3841L40.2075 10.1285L42.1992 6.80591L44.212 10.1285L44.3603 10.3841L46.352 13.6854Z" fill="#005341"/>
<path d="M42.3692 13.6854L44.3609 16.9867L44.2126 17.2423L42.1997 13.941L40.2081 17.2423L40.0386 16.9867L42.0302 13.6854L40.0386 10.3841L40.2081 10.1285L42.1997 13.4086L44.2126 10.1285L44.3609 10.3841L42.3692 13.6854Z" fill="#006941"/>
<path d="M38.0464 27.4231L40.038 30.7245L40.2075 31.0013L42.1992 34.3027L44.212 31.0013L44.3603 30.7245L46.352 27.4231L44.3603 24.1431L44.212 23.8662L42.1992 20.5649L40.2075 23.8662L40.038 24.1431L38.0464 27.4231Z" fill="black"/>
<path d="M42.0288 27.4231L40.0371 30.7244L40.2066 31.0013L42.1983 27.7L44.2111 31.0013L44.3594 30.7244L42.3678 27.4231L44.3594 24.1431L44.2111 23.8662L42.1983 27.1675L40.2066 23.8662L40.0371 24.1431L42.0288 27.4231Z" fill="#1A1A1A"/>
<path d="M29.719 27.4231L31.7106 30.7245L31.8801 31.0013L33.8718 34.3027L35.8846 31.0013L36.0541 30.7245L38.0458 27.4231L36.0541 24.1431L35.8846 23.8662L33.8718 20.5649L31.8801 23.8662L31.7106 24.1431L29.719 27.4231Z" fill="#005341"/>
<path d="M33.723 27.4231L31.7102 30.7244L31.8797 31.0013L33.8714 27.7L35.8842 31.0013L36.0537 30.7244L34.0409 27.4231L36.0537 24.1431L35.8842 23.8662L33.8714 27.1675L31.8797 23.8662L31.7102 24.1431L33.723 27.4231Z" fill="#006941"/>
<path d="M21.4131 27.4231L23.4047 30.7245L23.553 31.0013L25.5659 34.3027L27.5575 31.0013L27.727 30.7245L29.7187 27.4231L27.727 24.1431L27.5575 23.8662L25.5659 20.5649L23.553 23.8662L23.4047 24.1431L21.4131 27.4231Z" fill="black"/>
<path d="M25.3979 27.4231L23.4062 30.7244L23.5546 31.0013L25.5674 27.7L27.5591 31.0013L27.7286 30.7244L25.7157 27.4231L27.7286 24.1431L27.5591 23.8662L25.5674 27.1675L23.5546 23.8662L23.4062 24.1431L25.3979 27.4231Z" fill="#1A1A1A"/>
<path d="M13.0876 27.4231L15.0793 30.7245L15.2488 31.0013L17.2404 34.3027L19.2533 31.0013L19.4016 30.7245L21.4144 27.4231L19.4016 24.1431L19.2533 23.8662L17.2404 20.5649L15.2488 23.8662L15.0793 24.1431L13.0876 27.4231Z" fill="#005341"/>
<path d="M17.0915 27.4231L15.0786 30.7244L15.2481 31.0013L17.2398 27.7L19.2526 31.0013L19.4009 30.7244L17.4093 27.4231L19.4009 24.1431L19.2526 23.8662L17.2398 27.1675L15.2481 23.8662L15.0786 24.1431L17.0915 27.4231Z" fill="#006941"/>
<path d="M21.4139 41.1821L19.4011 44.4834L19.2528 44.739L17.24 48.0403L15.2483 44.739L15.0788 44.4834L13.0872 41.1821L15.0788 37.8808L15.2483 37.6039L17.24 34.3026L19.2528 37.6039L19.4011 37.8808L21.4139 41.1821Z" fill="black"/>
<path d="M17.4093 41.1821L19.4009 44.4834L19.2526 44.739L17.2398 41.4377L15.2481 44.739L15.0786 44.4834L17.0915 41.1821L15.0786 37.8808L15.2481 37.6039L17.2398 40.9052L19.2526 37.6039L19.4009 37.8808L17.4093 41.1821Z" fill="#1A1A1A"/>
<path d="M29.7187 41.1821L27.727 44.4834L27.5575 44.739L25.5659 48.0403L23.553 44.739L23.4047 44.4834L21.4131 41.1821L23.4047 37.8808L23.553 37.6039L25.5659 34.3026L27.5575 37.6039L27.727 37.8808L29.7187 41.1821Z" fill="#005341"/>
<path d="M25.7157 41.1821L27.7286 44.4834L27.5591 44.739L25.5674 41.4377L23.5546 44.739L23.4062 44.4834L25.3979 41.1821L23.4062 37.8808L23.5546 37.6039L25.5674 40.9052L27.5591 37.6039L27.7286 37.8808L25.7157 41.1821Z" fill="#006941"/>
<path d="M38.0458 41.1821L36.0541 44.4834L35.8846 44.739L33.8718 48.0403L31.8801 44.739L31.7106 44.4834L29.719 41.1821L31.7106 37.8808L31.8801 37.6039L33.8718 34.3026L35.8846 37.6039L36.0541 37.8808L38.0458 41.1821Z" fill="black"/>
<path d="M34.0409 41.1821L36.0537 44.4834L35.8842 44.739L33.8714 41.4377L31.8797 44.739L31.7102 44.4834L33.723 41.1821L31.7102 37.8808L31.8797 37.6039L33.8714 40.9052L35.8842 37.6039L36.0537 37.8808L34.0409 41.1821Z" fill="#1A1A1A"/>
<path d="M46.352 41.1821L44.3603 44.4834L44.212 44.739L42.1992 48.0403L40.2075 44.739L40.038 44.4834L38.0464 41.1821L40.038 37.8808L40.2075 37.6039L42.1992 34.3026L44.212 37.6039L44.3603 37.8808L46.352 41.1821Z" fill="#005341"/>
<path d="M42.3692 41.1821L44.3609 44.4834L44.2126 44.739L42.1997 41.4377L40.2081 44.739L40.0386 44.4834L42.0302 41.1821L40.0386 37.8808L40.2081 37.6039L42.1997 40.9052L44.2126 37.6039L44.3609 37.8808L42.3692 41.1821Z" fill="#006941"/>
<path d="M38.0464 54.9198L40.038 58.2211L40.2075 58.498L42.1992 61.7993L44.212 58.498L44.3603 58.2211L46.352 54.9198L44.3603 51.6185L44.212 51.3629L42.1992 48.0403L40.2075 51.3629L40.038 51.6185L38.0464 54.9198Z" fill="black"/>
<path d="M42.0288 54.9198L40.0371 58.2211L40.2066 58.498L42.1983 55.1967L44.2111 58.498L44.3594 58.2211L42.3678 54.9198L44.3594 51.6185L44.2111 51.3629L42.1983 54.6642L40.2066 51.3629L40.0371 51.6185L42.0288 54.9198Z" fill="#1A1A1A"/>
<path d="M29.719 54.9198L31.7106 58.2211L31.8801 58.498L33.8718 61.7993L35.8846 58.498L36.0541 58.2211L38.0458 54.9198L36.0541 51.6185L35.8846 51.3629L33.8718 48.0403L31.8801 51.3629L31.7106 51.6185L29.719 54.9198Z" fill="#005341"/>
<path d="M33.723 54.9198L31.7102 58.2211L31.8797 58.498L33.8714 55.1967L35.8842 58.498L36.0537 58.2211L34.0409 54.9198L36.0537 51.6185L35.8842 51.3629L33.8714 54.6642L31.8797 51.3629L31.7102 51.6185L33.723 54.9198Z" fill="#006941"/>
<path d="M21.4131 54.9198L23.4047 58.2211L23.553 58.498L25.5659 61.7993L27.5575 58.498L27.727 58.2211L29.7187 54.9198L27.727 51.6185L27.5575 51.3629L25.5659 48.0403L23.553 51.3629L23.4047 51.6185L21.4131 54.9198Z" fill="black"/>
<path d="M25.3979 54.9198L23.4062 58.2211L23.5546 58.498L25.5674 55.1967L27.5591 58.498L27.7286 58.2211L25.7157 54.9198L27.7286 51.6185L27.5591 51.3629L25.5674 54.6642L23.5546 51.3629L23.4062 51.6185L25.3979 54.9198Z" fill="#1A1A1A"/>
<path d="M13.0876 54.9198L15.0793 58.2211L15.2488 58.498L17.2404 61.7993L19.2533 58.498L19.4016 58.2211L21.4144 54.9198L19.4016 51.6185L19.2533 51.3629L17.2404 48.0403L15.2488 51.3629L15.0793 51.6185L13.0876 54.9198Z" fill="#005341"/>
<path d="M17.0915 54.9198L15.0786 58.2211L15.2481 58.498L17.2398 55.1967L19.2526 58.498L19.4009 58.2211L17.4093 54.9198L19.4009 51.6185L19.2526 51.3629L17.2398 54.6642L15.2481 51.3629L15.0786 51.6185L17.0915 54.9198Z" fill="#006941"/>
<path d="M21.4139 68.6788L19.4011 71.9588L19.2528 72.2357L17.24 75.537L15.2483 72.2357L15.0788 71.9588L13.0872 68.6788L15.0788 65.3775L15.2483 65.1006L17.24 61.7993L19.2528 65.1006L19.4011 65.3775L21.4139 68.6788Z" fill="black"/>
<path d="M17.4093 68.6789L19.4009 71.9589L19.2526 72.2358L17.2398 68.9345L15.2481 72.2358L15.0786 71.9589L17.0915 68.6789L15.0786 65.3776L15.2481 65.1007L17.2398 68.402L19.2526 65.1007L19.4009 65.3776L17.4093 68.6789Z" fill="#1A1A1A"/>
<path d="M29.7187 68.6788L27.727 71.9588L27.5575 72.2357L25.5659 75.537L23.553 72.2357L23.4047 71.9588L21.4131 68.6788L23.4047 65.3775L23.553 65.1006L25.5659 61.7993L27.5575 65.1006L27.727 65.3775L29.7187 68.6788Z" fill="#005341"/>
<path d="M25.7157 68.6789L27.7286 71.9589L27.5591 72.2358L25.5674 68.9345L23.5546 72.2358L23.4062 71.9589L25.3979 68.6789L23.4062 65.3776L23.5546 65.1007L25.5674 68.402L27.5591 65.1007L27.7286 65.3776L25.7157 68.6789Z" fill="#006941"/>
<path d="M38.0458 68.6788L36.0541 71.9588L35.8846 72.2357L33.8718 75.537L31.8801 72.2357L31.7106 71.9588L29.719 68.6788L31.7106 65.3775L31.8801 65.1006L33.8718 61.7993L35.8846 65.1006L36.0541 65.3775L38.0458 68.6788Z" fill="black"/>
<path d="M34.0409 68.6788L36.0537 71.9588L35.8842 72.2357L33.8714 68.9344L31.8797 72.2357L31.7102 71.9588L33.723 68.6788L31.7102 65.3775L31.8797 65.1006L33.8714 68.4019L35.8842 65.1006L36.0537 65.3775L34.0409 68.6788Z" fill="#1A1A1A"/>
<path d="M46.352 68.6788L44.3603 71.9588L44.212 72.2357L42.1992 75.537L40.2075 72.2357L40.038 71.9588L38.0464 68.6788L40.038 65.3775L40.2075 65.1006L42.1992 61.7993L44.212 65.1006L44.3603 65.3775L46.352 68.6788Z" fill="#005341"/>
<path d="M42.3692 68.6788L44.3609 71.9588L44.2126 72.2357L42.1997 68.9344L40.2081 72.2357L40.0386 71.9588L42.0302 68.6788L40.0386 65.3775L40.2081 65.1006L42.1997 68.4019L44.2126 65.1006L44.3609 65.3775L42.3692 68.6788Z" fill="#006941"/>
<path d="M38.0464 82.4166L40.038 85.7179L40.2075 85.9735L42.1992 89.2961L44.212 85.9735L44.3603 85.7179L46.352 82.4166L44.3603 79.1153L44.212 78.8597L42.1992 75.5371L40.2075 78.8597L40.038 79.1153L38.0464 82.4166Z" fill="black"/>
<path d="M42.0288 82.4165L40.0371 85.7178L40.2066 85.9734L42.1983 82.6721L44.2111 85.9734L44.3594 85.7178L42.3678 82.4165L44.3594 79.1152L44.2111 78.8596L42.1983 82.1396L40.2066 78.8596L40.0371 79.1152L42.0288 82.4165Z" fill="#1A1A1A"/>
<path d="M29.719 82.4166L31.7106 85.7179L31.8801 85.9735L33.8718 89.2961L35.8846 85.9735L36.0541 85.7179L38.0458 82.4166L36.0541 79.1153L35.8846 78.8597L33.8718 75.5371L31.8801 78.8597L31.7106 79.1153L29.719 82.4166Z" fill="#005341"/>
<path d="M33.723 82.4165L31.7102 85.7178L31.8797 85.9734L33.8714 82.6721L35.8842 85.9734L36.0537 85.7178L34.0409 82.4165L36.0537 79.1152L35.8842 78.8596L33.8714 82.1396L31.8797 78.8596L31.7102 79.1152L33.723 82.4165Z" fill="#006941"/>
<path d="M21.4131 82.4166L23.4047 85.7179L23.553 85.9735L25.5659 89.2961L27.5575 85.9735L27.727 85.7179L29.7187 82.4166L27.727 79.1153L27.5575 78.8597L25.5659 75.5371L23.553 78.8597L23.4047 79.1153L21.4131 82.4166Z" fill="black"/>
<path d="M25.3979 82.4166L23.4062 85.7179L23.5546 85.9735L25.5674 82.6722L27.5591 85.9735L27.7286 85.7179L25.7157 82.4166L27.7286 79.1153L27.5591 78.8597L25.5674 82.1398L23.5546 78.8597L23.4062 79.1153L25.3979 82.4166Z" fill="#1A1A1A"/>
<path d="M13.0876 82.4166L15.0793 85.7179L15.2488 85.9735L17.2404 89.2961L19.2533 85.9735L19.4016 85.7179L21.4144 82.4166L19.4016 79.1153L19.2533 78.8597L17.2404 75.5371L15.2488 78.8597L15.0793 79.1153L13.0876 82.4166Z" fill="#005341"/>
<path d="M17.0915 82.4166L15.0786 85.7179L15.2481 85.9735L17.2398 82.6722L19.2526 85.9735L19.4009 85.7179L17.4093 82.4166L19.4009 79.1153L19.2526 78.8597L17.2398 82.1398L15.2481 78.8597L15.0786 79.1153L17.0915 82.4166Z" fill="#006941"/>
<path d="M21.4139 96.1542L19.4011 99.4555L19.2528 99.7324L17.24 103.034L15.2483 99.7324L15.0788 99.4555L13.0872 96.1542L15.0788 92.8742L15.2483 92.5973L17.24 89.296L19.2528 92.5973L19.4011 92.8742L21.4139 96.1542Z" fill="black"/>
<path d="M17.4093 96.1542L19.4009 99.4555L19.2526 99.7324L17.2398 96.4311L15.2481 99.7324L15.0786 99.4555L17.0915 96.1542L15.0786 92.8742L15.2481 92.5973L17.2398 95.8986L19.2526 92.5973L19.4009 92.8742L17.4093 96.1542Z" fill="#1A1A1A"/>
<path d="M29.7187 96.1542L27.727 99.4555L27.5575 99.7324L25.5659 103.034L23.553 99.7324L23.4047 99.4555L21.4131 96.1542L23.4047 92.8742L23.553 92.5973L25.5659 89.296L27.5575 92.5973L27.727 92.8742L29.7187 96.1542Z" fill="#005341"/>
<path d="M25.7157 96.1542L27.7286 99.4555L27.5591 99.7324L25.5674 96.4311L23.5546 99.7324L23.4062 99.4555L25.3979 96.1542L23.4062 92.8742L23.5546 92.5973L25.5674 95.8986L27.5591 92.5973L27.7286 92.8742L25.7157 96.1542Z" fill="#006941"/>
<path d="M38.0458 96.1542L36.0541 99.4555L35.8846 99.7324L33.8718 103.034L31.8801 99.7324L31.7106 99.4555L29.719 96.1542L31.7106 92.8742L31.8801 92.5973L33.8718 89.296L35.8846 92.5973L36.0541 92.8742L38.0458 96.1542Z" fill="black"/>
<path d="M34.0409 96.1542L36.0537 99.4555L35.8842 99.7324L33.8714 96.4311L31.8797 99.7324L31.7102 99.4555L33.723 96.1542L31.7102 92.8742L31.8797 92.5973L33.8714 95.8986L35.8842 92.5973L36.0537 92.8742L34.0409 96.1542Z" fill="#1A1A1A"/>
<path d="M46.352 96.1542L44.3603 99.4555L44.212 99.7324L42.1992 103.034L40.2075 99.7324L40.038 99.4555L38.0464 96.1542L40.038 92.8742L40.2075 92.5973L42.1992 89.296L44.212 92.5973L44.3603 92.8742L46.352 96.1542Z" fill="#005341"/>
<path d="M42.3692 96.1542L44.3609 99.4555L44.2126 99.7324L42.1997 96.4311L40.2081 99.7324L40.0386 99.4555L42.0302 96.1542L40.0386 92.8742L40.2081 92.5973L42.1997 95.8986L44.2126 92.5973L44.3609 92.8742L42.3692 96.1542Z" fill="#006941"/>
<path d="M38.0464 109.913L40.038 113.215L40.2075 113.47L42.1992 116.771L44.212 113.47L44.3603 113.215L46.352 109.913L44.3603 106.612L44.212 106.335L42.1992 103.034L40.2075 106.335L40.038 106.612L38.0464 109.913Z" fill="black"/>
<path d="M42.0288 109.913L40.0371 113.215L40.2066 113.47L42.1983 110.169L44.2111 113.47L44.3594 113.215L42.3678 109.913L44.3594 106.612L44.2111 106.335L42.1983 109.636L40.2066 106.335L40.0371 106.612L42.0288 109.913Z" fill="#1A1A1A"/>
<path d="M29.719 109.913L31.7106 113.215L31.8801 113.47L33.8718 116.771L35.8846 113.47L36.0541 113.215L38.0458 109.913L36.0541 106.612L35.8846 106.335L33.8718 103.034L31.8801 106.335L31.7106 106.612L29.719 109.913Z" fill="#005341"/>
<path d="M33.723 109.913L31.7102 113.215L31.8797 113.47L33.8714 110.169L35.8842 113.47L36.0537 113.215L34.0409 109.913L36.0537 106.612L35.8842 106.335L33.8714 109.636L31.8797 106.335L31.7102 106.612L33.723 109.913Z" fill="#006941"/>
<path d="M21.4131 109.913L23.4047 113.215L23.553 113.47L25.5659 116.771L27.5575 113.47L27.727 113.215L29.7187 109.913L27.727 106.612L27.5575 106.335L25.5659 103.034L23.553 106.335L23.4047 106.612L21.4131 109.913Z" fill="black"/>
<path d="M25.3979 109.913L23.4062 113.214L23.5546 113.47L25.5674 110.169L27.5591 113.47L27.7286 113.214L25.7157 109.913L27.7286 106.612L27.5591 106.335L25.5674 109.636L23.5546 106.335L23.4062 106.612L25.3979 109.913Z" fill="#1A1A1A"/>
<path d="M13.0876 109.913L15.0793 113.215L15.2488 113.47L17.2404 116.771L19.2533 113.47L19.4016 113.215L21.4144 109.913L19.4016 106.612L19.2533 106.335L17.2404 103.034L15.2488 106.335L15.0793 106.612L13.0876 109.913Z" fill="#005341"/>
<path d="M17.0915 109.913L15.0786 113.214L15.2481 113.47L17.2398 110.169L19.2526 113.47L19.4009 113.214L17.4093 109.913L19.4009 106.612L19.2526 106.335L17.2398 109.636L15.2481 106.335L15.0786 106.612L17.0915 109.913Z" fill="#006941"/>
<path d="M4.76147 -0.0522609L6.75312 3.22775L6.92263 3.50464L8.93546 6.80595L10.9271 3.50464L11.0966 3.22775L13.0883 -0.0522609L11.0966 -3.35357L10.9271 -3.63045L8.93546 -6.93176L6.92263 -3.63045L6.75312 -3.35357L4.76147 -0.0522609Z" fill="black"/>
<path d="M8.76528 -0.0522997L6.75244 3.22771L6.92194 3.5046L8.93478 0.203283L10.9264 3.5046L11.0959 3.22771L9.08309 -0.0522997L11.0959 -3.35361L10.9264 -3.63049L8.93478 -0.329186L6.92194 -3.63049L6.75244 -3.35361L8.76528 -0.0522997Z" fill="#1A1A1A"/>
<path d="M-3.54443 -0.0522609L-1.55278 3.22775L-1.40447 3.50464L0.608367 6.80595L2.60001 3.50464L2.76952 3.22775L4.76116 -0.0522609L2.76952 -3.35357L2.60001 -3.63045L0.608367 -6.93176L-1.40447 -3.63045L-1.55278 -3.35357L-3.54443 -0.0522609Z" fill="#005341"/>
<path d="M0.438182 -0.0522997L-1.55347 3.22771L-1.40515 3.5046L0.607684 0.203283L2.59933 3.5046L2.76884 3.22771L0.777186 -0.0522997L2.76884 -3.35361L2.59933 -3.63049L0.607684 -0.329186L-1.40515 -3.63049L-1.55347 -3.35361L0.438182 -0.0522997Z" fill="#006941"/>
<path d="M4.76116 13.6854L2.76952 16.9867L2.60001 17.2423L0.608367 20.5649L-1.40447 17.2423L-1.55278 16.9867L-3.54443 13.6854L-1.55278 10.3841L-1.40447 10.1285L0.608367 6.80591L2.60001 10.1285L2.76952 10.3841L4.76116 13.6854Z" fill="black"/>
<path d="M0.777186 13.6854L2.76884 16.9867L2.59933 17.2423L0.607684 13.941L-1.40515 17.2423L-1.55347 16.9867L0.438182 13.6854L-1.55347 10.3841L-1.40515 10.1285L0.607684 13.4086L2.59933 10.1285L2.76884 10.3841L0.777186 13.6854Z" fill="#1A1A1A"/>
<path d="M13.0883 13.6854L11.0966 16.9867L10.9271 17.2423L8.93546 20.5649L6.92263 17.2423L6.75312 16.9867L4.76147 13.6854L6.75312 10.3841L6.92263 10.1285L8.93546 6.80591L10.9271 10.1285L11.0966 10.3841L13.0883 13.6854Z" fill="#005341"/>
<path d="M9.08309 13.6854L11.0959 16.9867L10.9264 17.2423L8.93478 13.941L6.92194 17.2423L6.75244 16.9867L8.76528 13.6854L6.75244 10.3841L6.92194 10.1285L8.93478 13.4086L10.9264 10.1285L11.0959 10.3841L9.08309 13.6854Z" fill="#006941"/>
<path d="M4.76147 27.4231L6.75312 30.7245L6.92263 31.0013L8.93546 34.3027L10.9271 31.0013L11.0966 30.7245L13.0883 27.4231L11.0966 24.1431L10.9271 23.8662L8.93546 20.5649L6.92263 23.8662L6.75312 24.1431L4.76147 27.4231Z" fill="black"/>
<path d="M8.76528 27.4231L6.75244 30.7244L6.92194 31.0013L8.93478 27.7L10.9264 31.0013L11.0959 30.7244L9.08309 27.4231L11.0959 24.1431L10.9264 23.8662L8.93478 27.1675L6.92194 23.8662L6.75244 24.1431L8.76528 27.4231Z" fill="#1A1A1A"/>
<path d="M-3.54443 27.4231L-1.55278 30.7245L-1.40447 31.0013L0.608367 34.3027L2.60001 31.0013L2.76952 30.7245L4.76116 27.4231L2.76952 24.1431L2.60001 23.8662L0.608367 20.5649L-1.40447 23.8662L-1.55278 24.1431L-3.54443 27.4231Z" fill="#005341"/>
<path d="M0.438182 27.4231L-1.55347 30.7244L-1.40515 31.0013L0.607684 27.7L2.59933 31.0013L2.76884 30.7244L0.777186 27.4231L2.76884 24.1431L2.59933 23.8662L0.607684 27.1675L-1.40515 23.8662L-1.55347 24.1431L0.438182 27.4231Z" fill="#006941"/>
<path d="M4.76116 41.1821L2.76952 44.4834L2.60001 44.739L0.608367 48.0403L-1.40447 44.739L-1.55278 44.4834L-3.54443 41.1821L-1.55278 37.8808L-1.40447 37.6039L0.608367 34.3026L2.60001 37.6039L2.76952 37.8808L4.76116 41.1821Z" fill="black"/>
<path d="M0.777186 41.1821L2.76884 44.4834L2.59933 44.739L0.607684 41.4377L-1.40515 44.739L-1.55347 44.4834L0.438182 41.1821L-1.55347 37.8808L-1.40515 37.6039L0.607684 40.9052L2.59933 37.6039L2.76884 37.8808L0.777186 41.1821Z" fill="#1A1A1A"/>
<path d="M13.0883 41.1821L11.0966 44.4834L10.9271 44.739L8.93546 48.0403L6.92263 44.739L6.75312 44.4834L4.76147 41.1821L6.75312 37.8808L6.92263 37.6039L8.93546 34.3026L10.9271 37.6039L11.0966 37.8808L13.0883 41.1821Z" fill="#005341"/>
<path d="M9.08309 41.1821L11.0959 44.4834L10.9264 44.739L8.93478 41.4377L6.92194 44.739L6.75244 44.4834L8.76528 41.1821L6.75244 37.8808L6.92194 37.6039L8.93478 40.9052L10.9264 37.6039L11.0959 37.8808L9.08309 41.1821Z" fill="#006941"/>
<path d="M4.76147 54.9198L6.75312 58.2211L6.92263 58.498L8.93546 61.7993L10.9271 58.498L11.0966 58.2211L13.0883 54.9198L11.0966 51.6185L10.9271 51.3629L8.93546 48.0403L6.92263 51.3629L6.75312 51.6185L4.76147 54.9198Z" fill="black"/>
<path d="M8.76528 54.9198L6.75244 58.2211L6.92194 58.498L8.93478 55.1967L10.9264 58.498L11.0959 58.2211L9.08309 54.9198L11.0959 51.6185L10.9264 51.3629L8.93478 54.6642L6.92194 51.3629L6.75244 51.6185L8.76528 54.9198Z" fill="#1A1A1A"/>
<path d="M-3.54443 54.9198L-1.55278 58.2211L-1.40447 58.498L0.608367 61.7993L2.60001 58.498L2.76952 58.2211L4.76116 54.9198L2.76952 51.6185L2.60001 51.3629L0.608367 48.0403L-1.40447 51.3629L-1.55278 51.6185L-3.54443 54.9198Z" fill="#005341"/>
<path d="M0.438182 54.9198L-1.55347 58.2211L-1.40515 58.498L0.607684 55.1967L2.59933 58.498L2.76884 58.2211L0.777186 54.9198L2.76884 51.6185L2.59933 51.3629L0.607684 54.6642L-1.40515 51.3629L-1.55347 51.6185L0.438182 54.9198Z" fill="#006941"/>
<path d="M4.76116 68.6788L2.76952 71.9588L2.60001 72.2357L0.608367 75.537L-1.40447 72.2357L-1.55278 71.9588L-3.54443 68.6788L-1.55278 65.3775L-1.40447 65.1006L0.608367 61.7993L2.60001 65.1006L2.76952 65.3775L4.76116 68.6788Z" fill="black"/>
<path d="M0.777186 68.6788L2.76884 71.9588L2.59933 72.2357L0.607684 68.9344L-1.40515 72.2357L-1.55347 71.9588L0.438182 68.6788L-1.55347 65.3775L-1.40515 65.1006L0.607684 68.4019L2.59933 65.1006L2.76884 65.3775L0.777186 68.6788Z" fill="#1A1A1A"/>
<path d="M13.0883 68.6788L11.0966 71.9588L10.9271 72.2357L8.93546 75.537L6.92263 72.2357L6.75312 71.9588L4.76147 68.6788L6.75312 65.3775L6.92263 65.1006L8.93546 61.7993L10.9271 65.1006L11.0966 65.3775L13.0883 68.6788Z" fill="#005341"/>
<path d="M9.08309 68.6788L11.0959 71.9588L10.9264 72.2357L8.93478 68.9344L6.92194 72.2357L6.75244 71.9588L8.76528 68.6788L6.75244 65.3775L6.92194 65.1006L8.93478 68.4019L10.9264 65.1006L11.0959 65.3775L9.08309 68.6788Z" fill="#006941"/>
<path d="M4.76147 82.4166L6.75312 85.7179L6.92263 85.9735L8.93546 89.2961L10.9271 85.9735L11.0966 85.7179L13.0883 82.4166L11.0966 79.1153L10.9271 78.8597L8.93546 75.5371L6.92263 78.8597L6.75312 79.1153L4.76147 82.4166Z" fill="black"/>
<path d="M8.76528 82.4165L6.75244 85.7178L6.92194 85.9734L8.93478 82.6721L10.9264 85.9734L11.0959 85.7178L9.08309 82.4165L11.0959 79.1152L10.9264 78.8596L8.93478 82.1396L6.92194 78.8596L6.75244 79.1152L8.76528 82.4165Z" fill="#1A1A1A"/>
<path d="M-3.54443 82.4166L-1.55278 85.7179L-1.40447 85.9735L0.608367 89.2961L2.60001 85.9735L2.76952 85.7179L4.76116 82.4166L2.76952 79.1153L2.60001 78.8597L0.608367 75.5371L-1.40447 78.8597L-1.55278 79.1153L-3.54443 82.4166Z" fill="#005341"/>
<path d="M0.438182 82.4165L-1.55347 85.7178L-1.40515 85.9734L0.607684 82.6721L2.59933 85.9734L2.76884 85.7178L0.777186 82.4165L2.76884 79.1152L2.59933 78.8596L0.607684 82.1396L-1.40515 78.8596L-1.55347 79.1152L0.438182 82.4165Z" fill="#006941"/>
<path d="M4.76116 96.1542L2.76952 99.4555L2.60001 99.7324L0.608367 103.034L-1.40447 99.7324L-1.55278 99.4555L-3.54443 96.1542L-1.55278 92.8742L-1.40447 92.5973L0.608367 89.296L2.60001 92.5973L2.76952 92.8742L4.76116 96.1542Z" fill="black"/>
<path d="M0.777186 96.1542L2.76884 99.4555L2.59933 99.7324L0.607684 96.4311L-1.40515 99.7324L-1.55347 99.4555L0.438182 96.1542L-1.55347 92.8742L-1.40515 92.5973L0.607684 95.8986L2.59933 92.5973L2.76884 92.8742L0.777186 96.1542Z" fill="#1A1A1A"/>
<path d="M13.0883 96.1542L11.0966 99.4555L10.9271 99.7324L8.93546 103.034L6.92263 99.7324L6.75312 99.4555L4.76147 96.1542L6.75312 92.8742L6.92263 92.5973L8.93546 89.296L10.9271 92.5973L11.0966 92.8742L13.0883 96.1542Z" fill="#005341"/>
<path d="M9.08309 96.1542L11.0959 99.4555L10.9264 99.7324L8.93478 96.4311L6.92194 99.7324L6.75244 99.4555L8.76528 96.1542L6.75244 92.8742L6.92194 92.5973L8.93478 95.8986L10.9264 92.5973L11.0959 92.8742L9.08309 96.1542Z" fill="#006941"/>
<path d="M4.76147 109.913L6.75312 113.215L6.92263 113.47L8.93546 116.771L10.9271 113.47L11.0966 113.215L13.0883 109.913L11.0966 106.612L10.9271 106.335L8.93546 103.034L6.92263 106.335L6.75312 106.612L4.76147 109.913Z" fill="black"/>
<path d="M8.76528 109.913L6.75244 113.215L6.92194 113.47L8.93478 110.169L10.9264 113.47L11.0959 113.215L9.08309 109.913L11.0959 106.612L10.9264 106.335L8.93478 109.636L6.92194 106.335L6.75244 106.612L8.76528 109.913Z" fill="#1A1A1A"/>
<path d="M-3.54443 109.913L-1.55278 113.215L-1.40447 113.47L0.608367 116.771L2.60001 113.47L2.76952 113.215L4.76116 109.913L2.76952 106.612L2.60001 106.335L0.608367 103.034L-1.40447 106.335L-1.55278 106.612L-3.54443 109.913Z" fill="#005341"/>
<path d="M0.438182 109.913L-1.55347 113.215L-1.40515 113.47L0.607684 110.169L2.59933 113.47L2.76884 113.215L0.777186 109.913L2.76884 106.612L2.59933 106.335L0.607684 109.636L-1.40515 106.335L-1.55347 106.612L0.438182 109.913Z" fill="#006941"/>
</g>
</g>
</svg>
