<svg width="85" height="134" viewBox="0 0 85 134" fill="none" xmlns="http://www.w3.org/2000/svg">
<rect x="29.0754" y="-54.3073" width="5" height="172" transform="rotate(24.9082 29.0754 -54.3073)" fill="#B51513"/>
<rect x="39.2336" y="-49.5902" width="5" height="172" transform="rotate(24.9082 39.2336 -49.5902)" fill="#B51513"/>
<rect x="49.3918" y="-44.8731" width="5" height="172" transform="rotate(24.9082 49.3918 -44.8731)" fill="#B51513"/>
<rect x="59.55" y="-40.1561" width="5" height="172" transform="rotate(24.9082 59.55 -40.1561)" fill="#B51513"/>
<rect x="69.7083" y="-35.439" width="5" height="172" transform="rotate(24.9082 69.7083 -35.439)" fill="#B51513"/>
<rect x="79.8665" y="-30.722" width="5" height="172" transform="rotate(24.9082 79.8665 -30.722)" fill="#B51513"/>
<rect x="90.0247" y="-26.0049" width="5" height="172" transform="rotate(24.9082 90.0247 -26.0049)" fill="#B51513"/>
<rect x="100.183" y="-21.2879" width="5" height="172" transform="rotate(24.9082 100.183 -21.2879)" fill="#B51513"/>
<rect x="110.341" y="-16.5708" width="5" height="172" transform="rotate(24.9082 110.341 -16.5708)" fill="#B51513"/>
<rect x="120.499" y="-11.8538" width="5" height="172" transform="rotate(24.9082 120.499 -11.8538)" fill="#B51513"/>
<rect x="130.657" y="-7.13669" width="5" height="172" transform="rotate(24.9082 130.657 -7.13669)" fill="#B51513"/>
</svg>
