<svg width="85" height="108" viewBox="0 0 85 108" fill="none" xmlns="http://www.w3.org/2000/svg">
<g filter="url(#filter0_i_5449_1366)">
<rect width="85" height="108" fill="#262626"/>
</g>
<rect x="4" y="2" width="4" height="3" rx="1" fill="#F0E6DA"/>
<rect x="16" y="2" width="4" height="3" rx="1" fill="#F0E6DA"/>
<rect x="28" y="2" width="4" height="3" rx="1" fill="#F0E6DA"/>
<rect x="40" y="2" width="4" height="3" rx="1" fill="#F0E6DA"/>
<rect x="52" y="2" width="4" height="3" rx="1" fill="#F0E6DA"/>
<rect x="64" y="2" width="4" height="3" rx="1" fill="#F0E6DA"/>
<rect x="76" y="2" width="4" height="3" rx="1" fill="#F0E6DA"/>
<rect x="4" y="105" width="4" height="3" rx="1" fill="#F0E6DA"/>
<rect x="16" y="105" width="4" height="3" rx="1" fill="#F0E6DA"/>
<rect x="28" y="105" width="4" height="3" rx="1" fill="#F0E6DA"/>
<rect x="40" y="105" width="4" height="3" rx="1" fill="#F0E6DA"/>
<rect x="52" y="105" width="4" height="3" rx="1" fill="#F0E6DA"/>
<rect x="64" y="105" width="4" height="3" rx="1" fill="#F0E6DA"/>
<rect x="76" y="105" width="4" height="3" rx="1" fill="#F0E6DA"/>
<defs>
<filter id="filter0_i_5449_1366" x="0" y="0" width="85" height="108.313" filterUnits="userSpaceOnUse" color-interpolation-filters="sRGB">
<feFlood flood-opacity="0" result="BackgroundImageFix"/>
<feBlend mode="normal" in="SourceGraphic" in2="BackgroundImageFix" result="shape"/>
<feColorMatrix in="SourceAlpha" type="matrix" values="0 0 0 0 0 0 0 0 0 0 0 0 0 0 0 0 0 0 127 0" result="hardAlpha"/>
<feOffset dy="0.312591"/>
<feGaussianBlur stdDeviation="0.312591"/>
<feComposite in2="hardAlpha" operator="arithmetic" k2="-1" k3="1"/>
<feColorMatrix type="matrix" values="0 0 0 0 0 0 0 0 0 0 0 0 0 0 0 0 0 0 0.1 0"/>
<feBlend mode="normal" in2="shape" result="effect1_innerShadow_5449_1366"/>
</filter>
</defs>
</svg>
