<svg width="85" height="108" viewBox="0 0 85 108" fill="none" xmlns="http://www.w3.org/2000/svg">
<g filter="url(#filter0_i_5424_10315)">
<rect width="85" height="108" fill="#1E1D1D"/>
<g filter="url(#filter1_i_5424_10315)">
<rect x="1" y="7" width="2" height="2" fill="#D0C2A0"/>
<rect x="1" y="17" width="2" height="2" fill="#D0C2A0"/>
<rect x="1" y="63" width="2" height="2" fill="#D0C2A0"/>
<rect x="1" y="81" width="2" height="2" fill="#D0C2A0"/>
<rect x="1" y="23" width="2" height="2" fill="#D0C2A0"/>
<rect x="1" y="69" width="2" height="2" fill="#D0C2A0"/>
<rect x="1" y="87" width="2" height="2" fill="#D0C2A0"/>
<rect x="1" y="29" width="2" height="2" fill="#D0C2A0"/>
<rect x="1" y="75" width="2" height="2" fill="#D0C2A0"/>
<rect x="1" y="93" width="2" height="2" fill="#D0C2A0"/>
<rect x="1" y="47" width="2" height="2" fill="#D0C2A0"/>
<rect x="1" y="20" width="2" height="2" fill="#D0C2A0"/>
<rect x="1" y="66" width="2" height="2" fill="#D0C2A0"/>
<rect x="1" y="84" width="2" height="2" fill="#D0C2A0"/>
<rect x="1" y="10" width="2" height="2" fill="#D0C2A0"/>
<rect x="1" y="26" width="2" height="2" fill="#D0C2A0"/>
<rect x="1" y="72" width="2" height="2" fill="#D0C2A0"/>
<rect x="1" y="90" width="2" height="2" fill="#D0C2A0"/>
<rect x="1" y="44" width="2" height="2" fill="#D0C2A0"/>
<rect x="1" y="32" width="2" height="2" fill="#D0C2A0"/>
<rect x="1" y="78" width="2" height="2" fill="#D0C2A0"/>
<rect x="1" y="96" width="2" height="2" fill="#D0C2A0"/>
<rect x="1" y="50" width="2" height="2" fill="#D0C2A0"/>
</g>
<g filter="url(#filter2_i_5424_10315)">
<rect x="82" y="51" width="2" height="2" fill="#D0C2A0"/>
<rect x="82" y="54" width="2" height="1" fill="#D0C2A0"/>
<path d="M83 8L83.866 16.25H82.134L83 8Z" fill="#D0C2A0"/>
<path d="M83 60L83.866 66H82.134L83 60Z" fill="#D0C2A0"/>
</g>
</g>
<defs>
<filter id="filter0_i_5424_10315" x="0" y="0" width="85" height="108.313" filterUnits="userSpaceOnUse" color-interpolation-filters="sRGB">
<feFlood flood-opacity="0" result="BackgroundImageFix"/>
<feBlend mode="normal" in="SourceGraphic" in2="BackgroundImageFix" result="shape"/>
<feColorMatrix in="SourceAlpha" type="matrix" values="0 0 0 0 0 0 0 0 0 0 0 0 0 0 0 0 0 0 127 0" result="hardAlpha"/>
<feOffset dy="0.312591"/>
<feGaussianBlur stdDeviation="0.312591"/>
<feComposite in2="hardAlpha" operator="arithmetic" k2="-1" k3="1"/>
<feColorMatrix type="matrix" values="0 0 0 0 0 0 0 0 0 0 0 0 0 0 0 0 0 0 0.1 0"/>
<feBlend mode="normal" in2="shape" result="effect1_innerShadow_5424_10315"/>
</filter>
<filter id="filter1_i_5424_10315" x="1" y="7" width="2" height="91" filterUnits="userSpaceOnUse" color-interpolation-filters="sRGB">
<feFlood flood-opacity="0" result="BackgroundImageFix"/>
<feBlend mode="normal" in="SourceGraphic" in2="BackgroundImageFix" result="shape"/>
<feColorMatrix in="SourceAlpha" type="matrix" values="0 0 0 0 0 0 0 0 0 0 0 0 0 0 0 0 0 0 127 0" result="hardAlpha"/>
<feOffset dy="0.2"/>
<feComposite in2="hardAlpha" operator="arithmetic" k2="-1" k3="1"/>
<feColorMatrix type="matrix" values="0 0 0 0 0.111667 0 0 0 0 0.104222 0 0 0 0 0.104222 0 0 0 1 0"/>
<feBlend mode="normal" in2="shape" result="effect1_innerShadow_5424_10315"/>
</filter>
<filter id="filter2_i_5424_10315" x="82" y="8" width="2" height="58.1" filterUnits="userSpaceOnUse" color-interpolation-filters="sRGB">
<feFlood flood-opacity="0" result="BackgroundImageFix"/>
<feBlend mode="normal" in="SourceGraphic" in2="BackgroundImageFix" result="shape"/>
<feColorMatrix in="SourceAlpha" type="matrix" values="0 0 0 0 0 0 0 0 0 0 0 0 0 0 0 0 0 0 127 0" result="hardAlpha"/>
<feOffset dy="0.2"/>
<feGaussianBlur stdDeviation="0.05"/>
<feComposite in2="hardAlpha" operator="arithmetic" k2="-1" k3="1"/>
<feColorMatrix type="matrix" values="0 0 0 0 0.358333 0 0 0 0 0.33116 0 0 0 0 0.265167 0 0 0 1 0"/>
<feBlend mode="normal" in2="shape" result="effect1_innerShadow_5424_10315"/>
</filter>
</defs>
</svg>
