<svg width="90" height="90" viewBox="0 0 90 90" fill="none" xmlns="http://www.w3.org/2000/svg">
<path d="M77.5605 43.4846V44.3174C77.2587 44.8178 76.9531 45.322 76.6513 45.8225C72.3194 53.0233 67.0362 59.5289 61.7951 66.0535C59.1478 69.3464 56.3668 72.5285 53.0701 75.2102H47.7831C47.68 74.7251 47.2063 74.7251 46.8854 74.5341C43.1532 72.3299 39.2529 70.3626 35.7231 67.8719C30.333 64.0709 25.0384 60.1057 20.1678 55.6324C17.49 53.1684 14.6326 50.884 12.436 47.935V45.429C13.0358 44.6344 13.0396 43.6374 13.3261 42.7358C14.6135 38.6751 16.7871 35.0766 19.2319 31.6538C22.6738 26.8329 26.2647 22.1151 30.6883 18.1232C34.9362 14.2916 38.6799 13.8027 43.7873 16.3316C47.3858 18.1079 50.4419 20.6597 53.5476 23.1427C60.2289 28.487 66.9369 33.7893 73.5762 39.1832C75.0851 40.4094 76.636 41.6777 77.5605 43.4846Z" fill="black"/>
<path d="M53.0701 76.3562H47.7831C47.3438 76.3562 46.9542 76.1079 46.7632 75.7336C46.6371 75.6877 46.469 75.6228 46.3009 75.5196C45.1511 74.8397 43.9554 74.1673 42.7979 73.5179C40.2117 72.0625 37.5377 70.5574 35.0623 68.8116C30.5661 65.6409 24.7252 61.3778 19.3924 56.4804C18.8232 55.9571 18.2502 55.4452 17.6734 54.9295C15.5303 53.0156 13.3109 51.033 11.5154 48.6226C11.3664 48.4239 11.29 48.1833 11.29 47.9388V45.4328C11.29 45.1845 11.3703 44.94 11.5231 44.7414C11.7752 44.4052 11.8745 43.9353 11.9891 43.3929C12.0579 43.072 12.1266 42.7358 12.2374 42.392C13.3834 38.7744 15.2553 35.26 18.3037 30.993C22.1925 25.5456 25.6573 21.1296 29.9243 17.2789C34.4816 13.1685 38.783 12.5803 44.2992 15.3116C47.7144 16.9962 50.6558 19.357 53.5018 21.6414L54.2658 22.2527C56.2828 23.8647 58.3036 25.4768 60.3244 27.085C64.9161 30.7447 69.6644 34.5303 74.302 38.2969C75.8224 39.5308 77.5414 40.9328 78.5843 42.965C78.6683 43.1255 78.7104 43.305 78.7104 43.4884V44.3212C78.7104 44.5313 78.6531 44.7337 78.5461 44.9133L77.6369 46.4184C73.4272 53.4206 68.2625 59.8421 63.2735 66.0535L62.6928 66.7755C60.29 69.7666 57.3524 73.2123 53.7959 76.1041C53.5896 76.2722 53.3375 76.36 53.0739 76.36L53.0701 76.3562ZM48.4058 74.0642H52.6613C55.9122 71.3596 58.6474 68.1431 60.905 65.3353L61.4857 64.6133C66.4288 58.4592 71.5401 52.0988 75.6734 45.2303L76.4183 43.9965V43.7711C75.5779 42.2851 74.195 41.162 72.858 40.0694C68.2281 36.3067 63.4836 32.5286 58.8957 28.869C56.8749 27.2569 54.8541 25.6487 52.8332 24.0328L52.0654 23.4178C49.1889 21.1105 46.469 18.9292 43.2793 17.3553C38.5577 15.0175 35.3526 15.4568 31.4562 18.9712C27.3419 22.6843 23.9688 26.9895 20.164 32.3185C17.2608 36.3831 15.4883 39.7027 14.4187 43.0796C14.3423 43.3165 14.2888 43.5801 14.2315 43.8589C14.1054 44.4625 13.9641 45.131 13.5821 45.7728V47.5491C15.198 49.6425 17.1462 51.3806 19.2014 53.2181C19.7859 53.7376 20.3665 54.261 20.9433 54.7881C26.1768 59.5938 31.9451 63.8035 36.384 66.9321C38.7639 68.613 41.3883 70.0875 43.9249 71.5162C45.09 72.1733 46.2971 72.8532 47.4699 73.5447C47.5042 73.5599 47.5463 73.5752 47.5883 73.5905C47.7793 73.6631 48.1155 73.7891 48.4058 74.0604V74.0642Z" fill="white"/>
<path d="M12.4364 45.429C13.0362 44.6344 13.04 43.6336 13.3265 42.7358C14.6177 38.6751 16.7875 35.0766 19.2323 31.65C22.6742 26.8291 26.2651 22.1113 30.6887 18.1193C34.9366 14.2878 38.6803 13.8027 43.7877 16.3277C47.3824 18.1079 50.4423 20.6559 53.548 23.1389C60.2254 28.4832 66.9373 33.7854 73.5727 39.1794C75.0817 40.4056 76.6364 41.6739 77.5609 43.4807V44.3173C77.2591 44.8178 76.9535 45.322 76.6517 45.8224C72.3198 53.0194 67.0366 59.525 61.7917 66.0535C59.1444 69.3464 56.3672 72.5285 53.0666 75.2102H47.7797C47.6804 74.7251 47.2067 74.7251 46.882 74.534C43.1498 72.3299 39.2495 70.3625 35.7197 67.8719C30.3296 64.0671 25.035 60.1057 20.1644 55.6286C17.4866 53.1684 14.6292 50.884 12.4326 47.9349V45.429H12.4364ZM37.9315 17.2789C36.7435 17.2484 35.6357 17.5463 34.6272 18.1652C32.6828 19.3609 30.8568 20.7284 29.4166 22.5048C26.5936 25.9887 23.7094 29.4306 21.2111 33.1704C18.9458 36.5588 16.9097 40.058 15.4428 43.8819C14.6979 45.8224 14.824 47.3925 16.4208 48.9014C18.2047 50.5861 19.9199 52.3433 21.788 53.9401C29.6917 60.6749 37.9888 66.8481 47.2525 71.6155C51.6074 73.8579 52.039 73.7395 55.3319 70.0569C61.9712 62.6307 67.9763 54.7117 73.6224 46.5139C75.0014 44.5122 74.9098 43.6145 73.2213 41.9336C72.8278 41.5402 72.4267 41.1543 72.0103 40.7876C67.0175 36.3678 61.4899 32.6279 56.2908 28.4641C52.1766 25.1712 48.1235 21.7828 43.4783 19.2195C41.7402 18.2607 40.0326 17.1987 37.9277 17.2751L37.9315 17.2789Z" fill="#0D0D0D"/>
<path d="M37.9312 17.2789C40.0361 17.2025 41.7436 18.2645 43.4818 19.2233C48.127 21.7828 52.1801 25.175 56.2943 28.4679C61.4934 32.628 67.021 36.3716 72.0138 40.7914C72.4302 41.1582 72.8313 41.544 73.2248 41.9374C74.9094 43.6145 75.0049 44.516 73.6259 46.5177C67.976 54.7117 61.9709 62.6346 55.3354 70.0608C52.0425 73.7433 51.607 73.8617 47.256 71.6194C37.9923 66.8481 29.6952 60.6787 21.7914 53.9439C19.9234 52.3509 18.2082 50.5899 16.4243 48.9052C14.8275 47.3963 14.7014 45.8263 15.4463 43.8857C16.9132 40.0618 18.9493 36.5626 21.2146 33.1742C23.7129 29.4344 26.5971 25.9925 29.4201 22.5086C30.8603 20.7323 32.6863 19.3685 34.6307 18.169C35.6392 17.5463 36.747 17.2484 37.935 17.2828L37.9312 17.2789ZM61.9976 42.1896C62.0091 39.951 61.0808 38.041 59.7514 36.3411C55.0871 30.3856 49.273 25.7633 42.6872 22.1457C39.0161 20.1287 35.4405 20.7399 32.2813 23.498C26.9944 28.1088 23.3348 33.9382 20.1183 40.0618C17.8109 44.4511 18.1547 46.4107 21.5202 50.0016C21.7418 50.2384 21.9863 50.4524 22.2269 50.6701C26.8759 54.8836 32.1018 58.295 37.3888 61.6261C38.5348 62.3481 39.761 62.8599 41.056 63.2381C43.031 63.815 44.8761 63.6049 46.6257 62.455C48.1002 61.4847 49.5175 60.4495 50.7628 59.1927C54.4606 55.4567 57.4861 51.1896 60.4199 46.8615C61.3597 45.4748 61.9785 43.9201 62.0014 42.1896H61.9976Z" fill="#FBFBFB"/>
<path d="M61.9977 42.1896C61.9748 43.9201 61.356 45.4748 60.4162 46.8615C57.4786 51.1896 54.4531 55.4566 50.7591 59.1927C49.5138 60.4495 48.1003 61.4847 46.622 62.455C44.8762 63.6048 43.0273 63.8111 41.0523 63.2381C39.7573 62.8599 38.5273 62.348 37.3851 61.626C32.0981 58.295 26.8722 54.8836 22.2232 50.6701C21.9826 50.4524 21.7381 50.2384 21.5165 50.0016C18.151 46.4107 17.8072 44.451 20.1145 40.0618C23.3349 33.9382 26.9907 28.1126 32.2776 23.498C35.4368 20.7399 39.0124 20.1325 42.6835 22.1457C49.2693 25.7633 55.0872 30.3856 59.7477 36.341C61.0771 38.0372 62.0054 39.9472 61.9939 42.1896H61.9977ZM42.355 43.2439C42.3129 41.6968 42.0723 40.2222 41.0676 38.954C39.318 36.7498 36.4415 37.0134 35.1962 39.5308C33.8057 42.3347 34.18 45.0088 35.9716 47.4765C37.4538 49.5164 40.0018 49.356 41.3885 47.2282C42.1792 46.0134 42.3053 44.6382 42.355 43.2439ZM33.374 35.3211C34.3214 35.2294 34.9402 34.7825 34.8753 33.8236C34.8142 32.9335 34.245 32.3567 33.3358 32.3644C32.354 32.372 31.7696 32.9679 31.8116 33.9497C31.8536 34.9047 32.5412 35.2676 33.374 35.3211ZM38.5464 33.0711C38.5311 34.0528 38.9933 34.5533 39.8643 34.5838C40.7391 34.6144 41.2815 34.0681 41.2968 33.2468C41.3121 32.4369 40.8117 31.8448 39.9407 31.8104C39.0621 31.7761 38.6037 32.288 38.5502 33.0711H38.5464Z" fill="#070707"/>
<path d="M42.355 43.2439C42.3054 44.6382 42.1793 46.0096 41.3847 47.2282C39.998 49.356 37.4462 49.5165 35.9679 47.4765C34.1763 45.0088 33.8019 42.3347 35.1924 39.5308C36.4377 37.0134 39.3181 36.7498 41.0638 38.954C42.0685 40.2222 42.3092 41.6968 42.355 43.2439Z" fill="#FBFBFB"/>
<path d="M33.3741 35.3211C32.5375 35.2676 31.8499 34.9047 31.8117 33.9497C31.7697 32.9641 32.3541 32.372 33.3359 32.3644C34.2489 32.3567 34.8181 32.9336 34.8754 33.8236C34.9403 34.7825 34.3215 35.2256 33.3741 35.3211Z" fill="#E3E3E3"/>
<path d="M38.5465 33.0711C38.6 32.2841 39.0584 31.7761 39.937 31.8105C40.808 31.8448 41.3084 32.4369 41.2931 33.2468C41.2779 34.0681 40.7392 34.6144 39.8606 34.5838C38.9935 34.5533 38.5312 34.0528 38.5427 33.0711H38.5465Z" fill="#E3E3E3"/>
</svg>
