<svg width="90" height="90" viewBox="0 0 90 90" fill="none" xmlns="http://www.w3.org/2000/svg">
<path d="M79.156 58.953C78.7134 58.1534 78.4159 57.246 78.1296 56.3683L77.9622 55.8625C77.0362 53.1067 76.1176 50.3472 75.199 47.5914C73.756 43.2625 72.2647 38.7848 70.7733 34.3889C70.2713 32.9087 69.7209 31.4211 69.1927 29.9819C68.4936 28.0852 67.7721 26.1289 67.151 24.1727C66.3849 21.7628 65.5109 19.3566 64.6667 17.0248C64.2799 15.9537 63.8894 14.8863 63.5101 13.8115C62.9969 12.3649 62.4799 12.0376 60.9849 12.2198C58.3853 12.5359 55.8377 13.2314 53.3758 13.9008C52.1373 14.2392 50.8617 14.5851 49.5935 14.8826C48.3774 15.1653 47.1538 15.4405 45.934 15.712C42.1741 16.5525 38.2877 17.4264 34.5389 18.6054C33.9141 18.8025 33.2893 19.0107 32.6683 19.219C32.1959 19.3789 31.7199 19.5351 31.2439 19.6913C30.9166 19.7955 30.593 19.9107 30.2695 20.026C29.4811 20.305 28.6666 20.5913 27.8521 20.7252C27.3501 20.807 26.993 21.0897 26.6472 21.3649C26.2381 21.6922 25.8513 22.0008 25.2376 21.945C23.8467 21.8298 22.5711 22.4062 21.3401 22.9678C21.0575 23.0979 20.7785 23.2244 20.4996 23.3434C19.9343 23.5814 19.3393 23.7785 18.7628 23.9645C17.45 24.3922 16.0926 24.8347 14.8876 25.85C13.1471 27.3116 12.3587 29.0856 11.5256 30.9637L11.3471 31.3653C11.0496 32.0273 11.1463 32.7637 11.6074 33.3364C12.195 34.0653 12.169 34.6678 11.5256 35.5678C10.4769 37.022 10.131 38.7067 10.555 40.3133C10.9826 41.9385 12.1281 43.255 13.7793 44.0174C14.062 44.1476 14.3595 44.248 14.6496 44.3484C14.7984 44.4005 14.9471 44.4488 15.0922 44.5046C15.7727 44.7575 16.286 45.3526 16.4719 46.0964C16.6542 46.829 16.4794 47.5877 16.007 48.1195C14.6236 49.6741 14.0732 51.6675 14.5306 53.4526C14.9397 55.0518 16.0814 56.2604 17.7438 56.8518C19.7372 57.5621 20.6707 58.6555 21.0686 60.7567C21.1021 60.939 21.169 61.1101 21.236 61.2737C21.2843 61.4001 21.3327 61.5229 21.3662 61.6419C21.4963 62.1551 21.3996 62.5419 21.0389 62.9361C19.4248 64.6952 19.3021 67.1832 20.7302 69.1283C21.593 70.2998 22.8389 71.1217 24.5385 71.6386C24.6091 71.6609 24.6798 71.6795 24.7542 71.7018C25.2005 71.8283 25.6207 71.9473 25.7286 72.3192C26.0967 73.5762 26.9224 74.506 27.722 75.4022C28.1645 75.9006 28.6257 76.4175 28.9901 76.9791C29.3806 77.5816 29.9199 77.8494 30.5447 77.7601C31.5488 77.6113 32.5864 77.656 33.5906 77.7006C33.8732 77.7118 34.1596 77.7266 34.4422 77.7341C35.0224 77.7713 35.5988 77.7899 36.1753 77.7899C38.6596 77.7899 41.1104 77.4663 43.6022 77.1018C47.4328 76.5403 51.3526 76.1684 55.146 75.8113C58.5749 75.4878 62.1192 75.1493 65.5927 74.6733C66.489 74.5506 67.4113 74.4762 68.3039 74.4056C70.0965 74.2642 71.9485 74.1155 73.7411 73.5576C75.9948 72.8547 77.0101 71.4712 76.8502 69.3254C76.8056 68.7489 76.7386 68.165 76.6717 67.5997C76.6345 67.2911 76.5973 66.9824 76.5676 66.67C76.5304 66.3092 76.4077 65.9485 76.2886 65.6026C76.0878 65.015 75.8944 64.4572 76.151 64.0035C76.3965 63.5646 76.9581 63.4233 77.5494 63.2745C77.9101 63.1853 78.2783 63.0923 78.6056 62.9249C78.6614 62.8952 78.7209 62.8803 78.7804 62.8617C78.9886 62.7948 79.2713 62.7055 79.3903 62.2927C79.6767 61.2848 79.8515 60.184 79.1746 58.9567L79.156 58.953Z" fill="black"/>
<path d="M36.1639 78.9018C35.554 78.9018 34.9552 78.8832 34.3788 78.8461C34.0962 78.8386 33.8135 78.8237 33.5346 78.8126C32.5825 78.7717 31.6007 78.7271 30.7007 78.8609C29.6408 79.0134 28.6775 78.5485 28.049 77.5853C27.7292 77.0944 27.2978 76.6109 26.8813 76.1423C26.0854 75.246 25.1891 74.2382 24.7242 72.8584C24.6387 72.8287 24.5271 72.7989 24.4453 72.7766C24.3523 72.7506 24.2779 72.7283 24.2073 72.7097C22.2697 72.1183 20.8378 71.1663 19.8263 69.794C18.0709 67.4063 18.2234 64.353 20.2093 62.1886C20.2874 62.1067 20.2986 62.0658 20.2986 62.0658C20.2986 62.0658 20.306 62.0286 20.28 61.9282C20.2614 61.8501 20.2242 61.772 20.1945 61.6865C20.1201 61.4968 20.0271 61.2588 19.9713 60.9724C19.644 59.258 18.9895 58.4844 17.368 57.908C15.3449 57.1865 13.9539 55.7063 13.4482 53.7352C12.8977 51.5894 13.5411 49.2166 15.1701 47.3831C15.4006 47.1265 15.4787 46.7472 15.3858 46.3716C15.2891 45.9848 15.0325 45.6836 14.6977 45.5571C14.5601 45.505 14.4225 45.4604 14.2849 45.4121C13.9837 45.3079 13.6453 45.1926 13.3105 45.0402C11.3506 44.1364 9.98574 42.5596 9.47252 40.6071C8.96301 38.6732 9.3721 36.6538 10.618 34.9244C11.0085 34.3815 10.9601 34.3257 10.737 34.0467C10.0081 33.143 9.85558 31.9752 10.3279 30.919L10.5064 30.5211C11.3581 28.6095 12.2357 26.6347 14.1696 25.0058C15.542 23.8529 17.0705 23.3546 18.4168 22.9157C18.9709 22.7335 19.5436 22.5475 20.0643 22.3281C20.3321 22.2128 20.6035 22.0901 20.875 21.9674C22.1693 21.376 23.6383 20.7029 25.3267 20.8479C25.4792 20.8591 25.5647 20.8107 25.9403 20.5132C26.342 20.1934 26.8813 19.7657 27.666 19.6393C28.38 19.524 29.1461 19.2525 29.8825 18.9921C30.2246 18.8731 30.5594 18.7541 30.8941 18.6463C31.3329 18.505 31.7755 18.3562 32.218 18.2074L32.3445 18.1665C32.9618 17.962 33.5792 17.7537 34.1966 17.5603C37.9862 16.3665 41.8949 15.4925 45.6735 14.6446C46.9007 14.3694 48.1206 14.0979 49.333 13.8116C50.5751 13.5215 51.8396 13.1756 53.0632 12.8446C55.5735 12.1603 58.1619 11.4574 60.8433 11.1301C62.8591 10.8847 63.8669 11.5132 64.5586 13.4545C64.9194 14.4735 65.2876 15.4925 65.6595 16.5078L65.7153 16.6603C66.5632 18.9996 67.4409 21.4169 68.2144 23.8492C68.8244 25.7719 69.5421 27.717 70.2339 29.5951C70.7471 30.9823 71.3198 32.5368 71.8293 34.043C73.3169 38.4277 74.8045 42.8906 76.2401 47.2084L76.4335 47.7922C77.2926 50.3695 78.1517 52.9468 79.0145 55.5204L79.1855 56.0299C79.457 56.8592 79.7397 57.7146 80.1302 58.4249C81.0042 60.0092 80.781 61.4262 80.4426 62.6051C80.1599 63.5981 79.3566 63.851 79.0963 63.9328C79.0963 63.9328 79.0777 63.9402 79.0591 63.9439C78.6277 64.1559 78.1889 64.2675 77.8021 64.3642C77.5864 64.42 77.274 64.4981 77.1289 64.5687C77.1475 64.7287 77.2517 65.0336 77.326 65.2493C77.4599 65.6361 77.6087 66.0787 77.6608 66.5621C77.6942 66.8671 77.7277 67.1721 77.7649 67.477C77.8318 68.0535 77.9025 68.6485 77.9471 69.251C78.0884 71.1105 77.5269 73.5539 74.057 74.6324C72.1492 75.2274 70.2339 75.3799 68.3818 75.5287C67.4967 75.5993 66.5929 75.67 65.7339 75.789C62.2417 76.2688 58.6863 76.6035 55.2499 76.9308C51.4528 77.2915 47.5516 77.6597 43.7507 78.2175C41.3334 78.5709 38.7524 78.9204 36.1602 78.9204L36.1639 78.9018ZM32.1065 76.5403C32.6197 76.5403 33.1292 76.5626 33.6313 76.5849C33.9102 76.596 34.1891 76.6109 34.4643 76.6184C34.4792 76.6184 34.4904 76.6184 34.5052 76.6184C35.0408 76.6518 35.5986 76.6704 36.1639 76.6704C38.6073 76.6704 41.0916 76.3357 43.4309 75.9936C47.2875 75.4283 51.2148 75.0564 55.0156 74.6956C58.4557 74.3684 61.9851 74.0374 65.4326 73.5613C66.3587 73.4349 67.2884 73.3605 68.1921 73.2898C69.9363 73.1485 71.7289 73.0072 73.3988 72.4865C75.1504 71.9398 75.8459 71.0175 75.7269 69.4035C75.686 68.8456 75.619 68.2766 75.5521 67.7225C75.5149 67.4101 75.4777 67.094 75.4442 66.7816C75.4182 66.5473 75.3215 66.2609 75.2174 65.9597C74.9831 65.2754 74.6632 64.3382 75.1616 63.4493C75.645 62.5939 76.5413 62.3671 77.2591 62.1886C77.5715 62.1105 77.869 62.0361 78.081 61.9282C78.1777 61.8762 78.2707 61.8427 78.3451 61.8204C78.5719 60.9687 78.6091 60.2696 78.1777 59.4923C77.6868 58.5997 77.3707 57.6439 77.0694 56.7179L76.9021 56.2158C76.0393 53.6423 75.1802 51.065 74.3211 48.4877L74.1277 47.9001C72.6921 43.586 71.2045 39.1269 69.7206 34.7459C69.2186 33.2657 68.6756 31.793 68.1475 30.3686C67.4409 28.4533 66.7157 26.486 66.0872 24.5112C65.3285 22.1198 64.4582 19.7248 63.6177 17.4078L63.5619 17.2554C63.19 16.2326 62.8219 15.2099 62.4574 14.1872C62.1115 13.2091 62.0743 13.2128 61.1185 13.3318C58.5971 13.6405 56.0904 14.3211 53.6656 14.983C52.4123 15.3252 51.1255 15.6748 49.8425 15.9723C48.6226 16.2587 47.3991 16.5302 46.1755 16.8054C42.4305 17.6421 38.5701 18.5087 34.8697 19.6727C34.2635 19.8624 33.6573 20.0669 33.0548 20.2678L32.9284 20.3087C32.4821 20.4574 32.0321 20.6062 31.5821 20.755C31.266 20.8554 30.9499 20.9669 30.6375 21.0785C29.8007 21.376 28.9416 21.681 28.0267 21.8298C27.8259 21.8632 27.6325 22.0083 27.3387 22.2426C26.8738 22.6108 26.1932 23.1612 25.1333 23.0608C24.0399 22.9715 22.9502 23.4624 21.8011 23.9868C21.5073 24.1207 21.2209 24.2508 20.9308 24.3736C20.3209 24.6302 19.7035 24.831 19.1048 25.0281C17.8366 25.4409 16.6428 25.8314 15.6015 26.7054C14.0581 28.0033 13.3552 29.5839 12.5407 31.4174L12.3622 31.819C12.2357 32.1017 12.2729 32.3918 12.47 32.6372C13.6676 34.1286 13.0167 35.3967 12.4217 36.2186C11.57 37.3976 11.2874 38.7513 11.6258 40.0306C11.968 41.3286 12.894 42.3848 14.2403 43.0059C14.4709 43.1137 14.7275 43.1992 14.999 43.2922C15.1589 43.348 15.3188 43.4001 15.475 43.4596C16.4977 43.8426 17.275 44.7278 17.5465 45.8286C17.818 46.922 17.5465 48.0526 16.8325 48.8633C15.6982 50.1389 15.237 51.753 15.6052 53.1774C15.925 54.4233 16.7915 55.3344 18.1118 55.803C20.4734 56.6435 21.6858 58.0642 22.1581 60.5485C22.173 60.6303 22.2176 60.7456 22.2659 60.8683C22.3255 61.0171 22.3887 61.1807 22.437 61.3704C22.6602 62.2444 22.4631 63.0291 21.8494 63.6948C20.5887 65.0708 20.4957 66.9452 21.6188 68.47C22.3329 69.4407 23.3928 70.1287 24.8544 70.575L25.0292 70.627C25.5945 70.7869 26.5093 71.0473 26.792 72.0068C27.0895 73.0258 27.7998 73.8217 28.5474 74.6659C28.9974 75.1717 29.5069 75.7444 29.916 76.3766C30.1242 76.6965 30.273 76.6741 30.3734 76.6593C30.9573 76.5737 31.5337 76.544 32.1028 76.544L32.1065 76.5403ZM79.1 63.9105C79.1 63.9105 79.0926 63.9105 79.0926 63.9142C79.0926 63.9142 79.1 63.9142 79.1 63.9105Z" fill="white"/>
<path d="M76.5861 61.2588C71.5506 63.0997 66.4592 64.7435 61.2861 66.153C55.0902 67.834 48.7827 68.8939 42.4827 70.0543C40.0877 70.5006 37.793 71.3001 35.4501 71.951C31.0393 73.1597 30.6488 72.944 29.1054 68.682C28.9566 68.284 28.9195 67.8563 28.8004 67.4472C28.6145 66.7704 28.224 66.5472 27.4988 66.7592C26.6806 67.001 26.4686 67.2501 26.9335 68.1055C27.6587 69.4146 28.1682 70.8353 28.819 72.1816C29.8492 74.3014 30.5744 74.6324 32.8691 74.2159C38.3695 73.2229 43.6988 71.4935 49.229 70.5749C50.7055 70.3332 52.2489 70.1844 53.7253 69.8311C58.1844 68.7526 62.651 67.6853 67.1026 66.5807C68.144 66.3204 69.0365 65.6621 70.0853 65.346C71.2568 64.9927 72.5101 65.134 73.6258 64.539C74.0721 64.3084 74.2208 64.5873 74.2766 65.0113C74.4998 66.6923 74.7415 68.3733 74.9907 70.0543C75.0725 70.6568 74.7601 70.984 74.2655 71.2258C73.4845 71.6051 72.6477 71.8022 71.8035 71.8282C67.3072 71.9696 62.9225 73.0369 58.4634 73.4163C51.0699 74.0559 43.7398 75.313 36.3277 75.7035C35.9856 75.7221 35.6397 75.7407 35.2864 75.7593V75.7332C34.5538 75.7332 33.81 75.6663 33.0848 75.7518C30.6711 76.0307 29.2281 74.6101 27.9376 72.8919C27.4653 72.2708 27.0748 71.6088 27.4467 70.7646C27.5769 70.4671 27.5285 70.1621 27.2719 69.9204C25.5909 68.2952 25.2562 66.008 24.3451 64.0034C24.1033 63.4828 24.3897 63.2782 24.8657 63.2596C25.6095 63.2224 26.3236 63.3452 26.9372 63.8063C27.2161 64.0183 27.4951 64.2415 27.8112 64.3642C28.1719 64.5055 28.5438 65.0038 28.9455 64.5799C29.3546 64.1448 29.1017 63.6427 28.8711 63.1852C28.5847 62.6571 28.1942 62.1923 27.6252 62.0249C26.2604 61.6158 25.6913 60.5299 25.3232 59.3398C24.6537 57.2125 24.0587 55.0592 23.4748 52.9133C23.326 52.3852 23.2517 51.872 22.5451 52.0393C21.8682 52.2067 21.924 52.7274 22.0727 53.2369C22.7794 55.6431 23.4748 58.0493 24.1889 60.4443C24.3079 60.8237 24.5496 61.1881 24.0327 61.4187C23.5232 61.6493 23.1698 61.3741 23.0471 60.9278C22.6492 59.5443 22.0355 58.2055 21.924 56.7476C21.8979 56.3571 21.831 55.9666 21.6079 55.6505C20.8008 54.5162 20.5851 53.1699 20.2318 51.8683C20.1017 51.3848 20.0012 50.9757 19.5252 50.6224C18.8744 50.1389 19.4769 49.2947 19.2463 48.5881C19.1533 48.3017 20.1463 48.3017 20.6855 48.3761C21.8756 48.536 22.6008 49.2687 23.0918 50.31C23.3223 50.7823 23.5827 51.4517 24.2335 51.1282C24.8732 50.8046 25.0517 50.1166 24.6984 49.4174C24.1889 48.4059 23.538 47.4761 22.4707 46.9926C21.6079 46.5947 21.2546 45.9439 21.0203 45.0587C20.5107 43.1249 19.886 41.2207 19.2723 39.3166C19.1422 38.9186 19.1161 38.3124 18.3983 38.5096C17.6917 38.7141 17.6843 39.2348 17.8702 39.8C18.4541 41.5554 18.5769 43.441 19.581 45.0662C19.8041 45.4195 19.9789 45.9959 19.6182 46.3307C19.4062 46.5278 18.7926 46.7844 18.5769 46.4348C18.1603 45.7765 17.4909 45.0773 17.7029 44.2517C17.9074 43.4633 17.6025 43.017 17.238 42.3922C16.0293 40.3691 15.5756 38.0186 14.6645 35.8616C14.4413 35.3223 14.9322 35.1922 15.2967 35.1104C16.5872 34.8314 17.7587 35.0434 18.6959 36.0587C18.9004 36.2819 19.0864 36.5422 19.3281 36.717C19.7372 37.0219 20.1537 36.836 20.5182 36.6128C20.9719 36.3265 20.7488 35.936 20.5814 35.5901C20.1537 34.7087 19.3839 34.188 18.5471 33.7678C17.9074 33.4442 17.5988 32.9682 17.4054 32.2802C16.9033 30.5508 16.4942 28.8066 16.338 27.0141C16.2822 26.3 16.9516 26.3818 17.3124 26.2628C21.5855 24.8236 25.8959 23.5145 30.1505 22.0083C39.3104 18.7653 48.8794 17.1698 58.27 14.8454C61.4758 14.0458 61.5129 14.1128 62.5877 17.2516C66.0427 27.267 69.4233 37.3083 72.9638 47.2939C74.4589 51.5038 75.5002 55.8662 77.3857 59.9385C77.7762 60.7939 77.2109 61.0357 76.5861 61.2588Z" fill="white"/>
<path d="M19.3023 55.0852C17.3424 55.0071 15.9738 52.2811 17.0077 50.3137C17.1453 50.0497 17.2866 49.7075 17.6288 49.7112C17.9672 49.7187 17.9672 50.1092 18.0379 50.336C18.5102 51.8943 19.2428 53.3931 19.306 55.0815L19.3023 55.0852Z" fill="#F2F2F2"/>
<path d="M14.8988 28.338C15.1406 29.9186 15.5497 31.1831 15.9625 32.4476C16.0964 32.8529 15.9848 33.1579 15.5199 33.169C14.9063 33.1839 14.1736 33.831 13.7125 33.2174C13.2439 32.5852 13.1323 31.7224 13.5526 30.9265C13.9579 30.1566 14.155 29.279 14.8988 28.338Z" fill="#F2F2F2"/>
<path d="M12.5411 38.9298C12.5411 38.8517 12.5299 38.7736 12.5411 38.6992C12.6675 38.1302 12.5151 37.26 13.2217 37.1744C13.8651 37.0963 13.7609 37.974 13.9506 38.4315C14.3337 39.3463 14.6423 40.2947 14.9845 41.2282C15.0737 41.4773 15.2671 41.7749 15.0477 41.9757C14.7874 42.21 14.4713 41.9906 14.2147 41.853C13.0543 41.2282 12.5411 40.224 12.5374 38.9298H12.5411Z" fill="#F2F2F2"/>
<path d="M22.7123 64.3939C23.3817 65.9968 24.0177 67.5142 24.6499 69.0241C23.6049 69.039 22.6379 68.325 22.1656 67.1088C21.7974 66.1716 21.7119 65.2493 22.7123 64.3902V64.3939Z" fill="#F2F2F2"/>
<path d="M30.5932 34.6678C30.6602 34.6343 30.5337 34.7236 30.5114 34.705C30.4408 34.638 30.3887 34.5339 30.3627 34.4335C30.3552 34.4037 30.4668 34.2996 30.4891 34.3108C30.5709 34.3517 30.7085 34.3666 30.5932 34.6678Z" fill="#FCFCFC"/>
<path d="M62.822 48.1381C62.8108 47.3534 62.8071 46.5687 62.7997 45.784C62.7736 42.1058 62.7476 38.3013 62.1935 34.5488C61.8513 32.2318 60.1406 30.6736 57.9352 30.6736C57.6191 30.6736 57.2955 30.707 56.9682 30.7703L56.6596 30.8335C56.3248 30.9042 56.0087 30.9711 55.7298 30.9711C55.6591 30.9711 55.5922 30.9674 55.5215 30.9562C55.0083 30.8818 54.4691 30.8484 53.9261 30.8484C52.3492 30.8484 50.8356 31.1533 49.5637 31.4471C49.4298 31.4769 49.3442 31.4843 49.2959 31.4843C49.2587 31.4843 49.2401 31.4806 49.2364 31.4806C49.2364 31.4806 49.162 31.3988 49.0653 31.1013C48.6451 29.8145 48.1244 28.2153 47.2579 26.7984C46.2537 25.162 44.8628 24.3326 43.1186 24.3326C42.8694 24.3326 42.6091 24.3512 42.3488 24.3847C41.4822 24.5 40.7831 24.6636 40.1545 24.8905C36.2012 26.3335 32.4227 28.2525 28.7669 30.1083L27.9152 30.5397C26.8367 31.0864 26.3644 32.0682 26.5764 33.3029L26.6359 33.6562C26.7995 34.6046 26.9669 35.5864 27.1863 36.5533C27.919 39.7926 29.0272 42.9389 30.0983 45.9848C30.381 46.7844 30.6599 47.5802 30.9351 48.3835C32.0657 51.6786 33.226 54.8881 35 57.9154C35.3161 58.4584 35.7959 59.2728 36.8892 59.2728C37.1533 59.2728 37.4471 59.2282 37.8711 59.1241C38.6112 58.9418 39.3475 58.7261 40.0616 58.5179L40.4707 58.3989C40.4967 58.5253 40.5153 58.6518 40.5376 58.7782C40.5562 58.8972 40.5748 59.0125 40.5971 59.1278C40.6826 59.589 40.7422 60.0576 40.8054 60.5522C40.9169 61.4187 41.0322 62.315 41.3 63.2076C41.8169 64.9295 42.8694 65.8034 44.4314 65.8034C44.7364 65.8034 45.0525 65.77 45.4058 65.7067C49.9579 64.8625 54.5137 64.0257 59.0695 63.2001C61.4236 62.7724 62.491 61.5563 62.636 59.1278C62.8294 55.8476 62.8964 52.2476 62.8369 48.1269L62.822 48.1381Z" fill="white"/>
<path d="M44.4205 66.1605C42.7135 66.1605 41.5159 65.1749 40.9544 63.3154C40.6792 62.4005 40.5639 61.4931 40.4486 60.6154C40.3854 60.1133 40.3259 59.6522 40.2403 59.2022C40.218 59.0869 40.1994 58.9679 40.1808 58.8526L40.1473 58.8638C39.4333 59.072 38.6969 59.2877 37.942 59.4737C37.492 59.5852 37.1721 59.6336 36.8783 59.6336C35.5841 59.6336 35.0225 58.6741 34.6878 58.1014C32.899 55.048 31.7312 51.8199 30.5932 48.5063C30.3328 47.7439 30.0651 46.9852 29.7973 46.2265L29.7564 46.1112C28.6816 43.0542 27.5696 39.8967 26.8332 36.6389C26.6138 35.6719 26.4465 34.6938 26.2866 33.7455L26.2233 33.3699C25.9853 31.9901 26.5432 30.8484 27.7481 30.2347L28.5998 29.8033C32.263 27.9438 36.0527 26.0211 40.0246 24.5707C40.6792 24.3327 41.3969 24.1653 42.2932 24.0463C44.5395 23.7488 46.3209 24.6302 47.5445 26.6236C48.437 28.0777 48.9651 29.6992 49.3891 31.0009C49.404 31.0455 49.4189 31.0864 49.4337 31.1236C49.4486 31.1236 49.4635 31.1161 49.4821 31.1124C50.7726 30.8112 52.3085 30.5025 53.9189 30.5025C54.4842 30.5025 55.0383 30.5397 55.5664 30.6141C55.8676 30.655 56.1986 30.5769 56.5817 30.4951L56.8978 30.4318C57.2474 30.3649 57.597 30.3277 57.9354 30.3277C60.3193 30.3277 62.1677 32.005 62.5396 34.5005C63.0974 38.279 63.1272 42.0947 63.1495 45.784C63.1532 46.5687 63.1606 47.3534 63.1718 48.1344C63.2313 52.2625 63.1644 55.8699 62.971 59.1576C62.8185 61.7423 61.6321 63.096 59.1218 63.5497C54.5511 64.3791 49.9544 65.2233 45.4581 66.0563C45.0862 66.127 44.7441 66.1605 44.4205 66.1605ZM40.4597 58.0567C40.523 58.0567 40.5825 58.0716 40.6383 58.1051C40.7201 58.1534 40.7796 58.2352 40.8019 58.3319C40.8279 58.4547 40.8465 58.5774 40.8651 58.7038C40.8874 58.8452 40.906 58.9604 40.9246 59.072C41.0139 59.5443 41.0734 60.0129 41.1366 60.5076C41.2482 61.3741 41.3635 62.2518 41.6201 63.1109C42.0961 64.6915 43.011 65.4613 44.4168 65.4613C44.6994 65.4613 44.9969 65.4315 45.3279 65.3683C49.8242 64.5353 54.4209 63.691 58.9916 62.8617C61.1858 62.4638 62.1379 61.3778 62.2718 59.1129C62.4652 55.8402 62.5284 52.2513 62.4726 48.1381C62.4615 47.3534 62.4577 46.5687 62.4503 45.784C62.4243 42.117 62.3982 38.3273 61.8478 34.5971C61.5317 32.4587 59.9586 31.0194 57.9354 31.0194C57.6416 31.0194 57.3404 31.0492 57.0354 31.1087L56.7267 31.1719C56.2767 31.2649 55.8751 31.3542 55.4697 31.2984C54.9751 31.2277 54.4544 31.1942 53.9226 31.1942C52.3829 31.1942 50.8953 31.4918 49.642 31.7856C49.4337 31.8339 49.2701 31.8451 49.1548 31.819C49.0656 31.7967 48.9875 31.7447 48.9391 31.6666C48.9056 31.6182 48.8201 31.4918 48.7271 31.2091C48.3143 29.9409 47.8011 28.3641 46.9531 26.9806C45.8821 25.2327 44.3424 24.4703 42.3899 24.7306C41.5494 24.8422 40.8726 24.9984 40.2701 25.2215C36.3353 26.657 32.568 28.5723 28.9196 30.4207L28.068 30.8521C27.1271 31.3318 26.7254 32.1575 26.9151 33.2471L26.9746 33.6004C27.1382 34.56 27.3056 35.5306 27.5213 36.479C28.2465 39.6959 29.351 42.8311 30.4184 45.8658L30.4593 45.9848C30.7271 46.7472 30.9948 47.5059 31.2552 48.272C32.382 51.5522 33.5349 54.7431 35.2903 57.7406C35.599 58.2687 35.9858 58.927 36.8783 58.927C37.1126 58.927 37.3804 58.8861 37.7746 58.7857C38.5147 58.6034 39.2436 58.3914 39.9502 58.1832L40.3593 58.0642C40.3928 58.053 40.4225 58.0493 40.456 58.0493L40.4597 58.0567Z" fill="black"/>
<path d="M61.8924 48.153C61.9445 51.7976 61.9073 55.4423 61.6953 59.0832C61.5801 61.0617 60.8177 61.9468 58.8912 62.2964C54.3354 63.122 49.7796 63.9588 45.2238 64.803C43.5763 65.108 42.6651 64.5687 42.1779 62.9472C41.7874 61.6493 41.7428 60.2919 41.4973 58.9679C41.449 58.7113 41.423 58.4547 41.3672 58.1981C41.2296 57.5733 40.8688 57.3204 40.2292 57.5063C39.3701 57.7555 38.5072 58.0158 37.6407 58.2315C36.5771 58.4956 36.3353 58.3766 35.7961 57.4542C34.0667 54.5013 32.9138 51.3104 31.8093 48.0898C30.4779 44.2071 28.9977 40.3728 28.0903 36.3562C27.8523 35.2963 27.6737 34.2215 27.4915 33.1505C27.3502 32.3397 27.5919 31.7484 28.3357 31.3728C32.3151 29.357 36.2758 27.3004 40.4746 25.7682C41.118 25.5339 41.7874 25.4 42.4717 25.3108C44.2569 25.0727 45.5511 25.8017 46.466 27.2893C47.2507 28.5649 47.723 29.9781 48.1841 31.3951C48.4705 32.269 48.9056 32.5628 49.7833 32.3583C51.6354 31.9269 53.4912 31.6145 55.4028 31.8823C55.9978 31.9678 56.578 31.8004 57.1581 31.6889C59.2966 31.2723 60.9664 32.548 61.2862 34.6938C61.9482 39.1641 61.8441 43.6641 61.9036 48.1567L61.8924 48.153ZM42.985 27.0736C42.8027 27.0959 42.6614 27.1145 42.5238 27.1331C40.9618 27.3599 39.5597 28.0591 38.1056 28.6058C35.3647 29.6323 32.6907 30.8 30.1618 32.2914C29.1056 32.9162 28.9308 33.3141 29.2655 34.5116C29.6597 35.9211 30.0539 37.3306 30.4928 38.7253C31.932 43.2885 33.7134 47.7439 34.9742 52.3666C35.2754 53.4675 35.8221 54.4604 36.4953 55.3865C37.0903 56.2047 37.2502 56.2679 38.2209 55.9443C42.2226 54.6018 46.2242 53.2592 50.2259 51.9055C51.8325 51.3625 52.1189 50.8121 51.654 49.1906C49.973 43.3443 48.2883 37.498 46.5812 31.6591C46.2651 30.5769 46.0122 29.4649 45.3577 28.5091C44.7738 27.6537 43.9668 27.1963 42.9887 27.0773L42.985 27.0736ZM60.2338 48.1232C60.2338 45.3526 60.2672 42.5856 60.2226 39.8149C60.1929 38.093 60.1445 36.3562 59.5681 34.6976C59.1738 33.5633 58.8689 33.3476 57.7011 33.3959C56.3288 33.4517 54.9565 33.5 53.5879 33.6116C52.461 33.7046 51.323 33.7715 50.2296 34.1211C49.9023 34.2252 49.6085 34.374 49.4672 34.7013C48.9763 35.8096 50.1069 37.4124 51.297 37.3195C52.5466 37.2191 53.7961 37.1186 55.0495 37.0368C56.3734 36.9476 57.4185 37.7583 57.5412 39.0228C57.9689 43.3554 58.2515 47.703 58.4449 52.0542C58.5305 54.0253 57.9354 54.7505 56.0722 55.1299C54.3131 55.4906 52.5503 55.8439 50.78 56.1377C49.337 56.3794 47.868 56.6621 46.4325 56.1191C45.5734 55.7956 44.8184 55.9964 44.0523 56.3757C43.5316 56.6323 43.3234 57.0377 43.4052 57.5844C43.6135 58.9865 43.8217 60.3923 44.0672 61.7869C44.1974 62.5307 44.6883 62.8394 45.4544 62.7464C49.7759 62.2146 54.0081 61.1993 58.2924 60.4629C59.6908 60.2212 59.9511 59.8828 60.0143 58.4956C60.1668 55.0406 60.0887 51.5856 60.2338 48.1269V48.1232Z" fill="#0E0E0E"/>
<path d="M42.9848 27.0736C43.9666 27.1926 44.7699 27.65 45.3538 28.5054C46.0083 29.4612 46.2649 30.5769 46.5773 31.6554C48.2806 37.4943 49.9654 43.3406 51.6501 49.1869C52.1149 50.8084 51.8286 51.3588 50.222 51.9018C46.224 53.2555 42.2224 54.598 38.217 55.9406C37.2463 56.2642 37.0901 56.2009 36.4913 55.3828C35.8182 54.4604 35.2715 53.4637 34.9703 52.3629C33.7095 47.7365 31.9281 43.2848 30.4888 38.7215C30.05 37.3269 29.6521 35.9174 29.2616 34.5079C28.9269 33.3141 29.1016 32.9124 30.1579 32.2876C32.6831 30.7963 35.3608 29.6285 38.1017 28.6021C39.5558 28.0554 40.9579 27.3562 42.5199 27.1294C42.6612 27.1108 42.8025 27.0922 42.981 27.0699L42.9848 27.0736ZM41.2182 29.1562C38.7228 29.6174 35.8442 30.2236 33.3302 31.9232C32.7574 32.31 32.2479 32.7823 31.8946 33.3773C31.3851 34.229 30.8979 35.1104 31.2326 36.1703C32.2442 39.3872 33.5793 42.4852 34.8215 45.6129C35.3831 47.0224 36.7554 47.6881 38.1054 47.1972C40.4558 46.3418 42.7839 45.4232 44.967 44.1922C46.622 43.2587 47.362 41.7302 46.9418 39.8856C46.2501 36.8472 45.298 33.8794 44.3162 30.9265C43.8773 29.6099 43.0554 29.1413 41.2219 29.1562H41.2182Z" fill="#FCFCFC"/>
<path d="M60.2335 48.1232C60.0885 51.5782 60.1666 55.0369 60.0141 58.4919C59.9546 59.8791 59.6943 60.2212 58.2922 60.4592C54.0079 61.1956 49.7719 62.2109 45.4541 62.7427C44.688 62.8357 44.2008 62.527 44.0669 61.7832C43.8215 60.3848 43.6132 58.9828 43.4049 57.5807C43.3231 57.034 43.5314 56.6249 44.052 56.372C44.8182 55.9927 45.5731 55.7919 46.4322 56.1154C47.8678 56.6584 49.3368 56.3757 50.7798 56.134C52.55 55.8402 54.3128 55.4832 56.0719 55.1261C57.9352 54.7468 58.5302 54.0216 58.4447 52.0505C58.2513 47.6993 57.9686 43.3554 57.5409 39.0191C57.4145 37.7546 56.3694 36.9476 55.0492 37.0331C53.7996 37.1187 52.5463 37.2153 51.2967 37.3158C50.1103 37.4125 48.9798 35.8058 49.4669 34.6976C49.612 34.374 49.9021 34.2253 50.2293 34.1174C51.3227 33.7678 52.4608 33.6972 53.5876 33.6079C54.9562 33.4963 56.3285 33.448 57.7009 33.3922C58.8686 33.3438 59.1736 33.5595 59.5678 34.6939C60.1442 36.3525 60.1889 38.0893 60.2223 39.8112C60.2707 42.5782 60.2335 45.3488 60.2335 48.1195V48.1232Z" fill="#FCFCFC"/>
<path d="M41.2181 29.1562C43.0553 29.1413 43.8735 29.6099 44.3124 30.9265C45.2979 33.8794 46.25 36.8472 46.938 39.8856C47.3582 41.7302 46.6181 43.2588 44.9632 44.1922C42.7801 45.4269 40.452 46.3418 38.1016 47.1972C36.7516 47.6881 35.3793 47.0224 34.8177 45.6129C33.5755 42.4852 32.2404 39.3873 31.2288 36.1703C30.8979 35.1104 31.3813 34.229 31.8908 33.3773C32.2479 32.7823 32.7574 32.31 33.3264 31.9232C35.8367 30.2236 38.7152 29.6174 41.2144 29.1562H41.2181ZM38.5479 39.8744C40.2623 39.8819 41.8243 38.4017 41.9396 36.6612C41.9619 36.3525 41.8281 36.1703 41.5454 36.0773C41.2665 35.9843 41.0731 36.1071 40.9578 36.3377C40.7979 36.6501 40.664 36.981 40.5301 37.3083C40.188 38.1302 39.6413 38.7178 38.7004 38.7587C37.8078 38.7959 37.1756 38.3571 36.7925 37.5501C36.6363 37.2191 36.3871 36.9885 36.0078 37.1633C35.621 37.3381 35.6619 37.6616 35.7884 38.0112C36.1677 39.0749 37.3318 39.867 38.5516 39.8744H38.5479ZM39.3661 33.6562C39.0537 33.6786 38.8826 33.8831 38.8789 34.1583C38.8751 34.441 39.0648 34.6641 39.3623 34.6529C39.6375 34.6418 39.8533 34.4856 39.8458 34.1583C39.8384 33.8459 39.6673 33.686 39.3661 33.6562ZM37.4396 34.7124C37.421 34.4186 37.2685 34.1955 36.945 34.162C36.614 34.1248 36.4094 34.3108 36.3722 34.6343C36.3313 34.9728 36.5322 35.1624 36.852 35.1885C37.1681 35.2182 37.3913 35.0806 37.4396 34.7124Z" fill="#0E0E0E"/>
<path d="M38.5481 39.8744C37.3282 39.867 36.1642 39.0748 35.7849 38.0112C35.6621 37.6653 35.6212 37.3381 36.0043 37.1633C36.3873 36.9885 36.6328 37.2191 36.789 37.55C37.172 38.3571 37.8043 38.7959 38.6968 38.7587C39.634 38.7178 40.1845 38.1302 40.5266 37.3083C40.6605 36.981 40.7944 36.6538 40.9543 36.3376C41.0696 36.1108 41.2667 35.9881 41.5419 36.0773C41.8283 36.1703 41.9584 36.3525 41.9361 36.6612C41.8208 38.4017 40.2588 39.8819 38.5444 39.8744H38.5481Z" fill="#FCFCFC"/>
<path d="M39.3663 33.6562C39.6713 33.686 39.8386 33.8459 39.8461 34.1583C39.8535 34.4856 39.6378 34.6418 39.3626 34.6529C39.0613 34.6641 38.8717 34.441 38.8791 34.1583C38.8828 33.8831 39.0539 33.6748 39.3663 33.6562Z" fill="#FCFCFC"/>
<path d="M37.4398 34.7125C37.3915 35.0806 37.172 35.2182 36.8522 35.1885C36.5324 35.1587 36.3315 34.9728 36.3725 34.6344C36.4096 34.3145 36.6142 34.1286 36.9452 34.162C37.2687 34.1992 37.4212 34.4187 37.4398 34.7125Z" fill="#FCFCFC"/>
<path d="M58.973 28.2674C58.7201 28.074 58.6159 27.7988 58.5527 27.4975C58.4969 27.2335 58.4225 26.9732 58.3147 26.724C58.1808 26.4079 57.9911 26.3112 57.6564 26.3856C57.3254 26.4562 57.0093 26.5901 56.6858 26.6905C56.6039 26.7165 56.5221 26.7463 56.4366 26.7612C56.232 26.8021 56.0461 26.7761 55.9122 26.5901C55.782 26.4041 55.7932 26.2108 55.8899 26.0211C55.9643 25.8723 56.0796 25.7459 56.1911 25.6232C56.4031 25.3889 56.5891 25.1322 56.775 24.8756C56.9982 24.567 57.0948 24.2211 57.08 23.838C57.0651 23.4141 57.0428 22.9864 57.0986 22.5624C57.1506 22.1831 57.4147 22.0752 57.7457 22.2798C58.0358 22.4583 58.2366 22.7298 58.4597 22.9752C58.7498 23.295 58.9469 23.3471 59.3486 23.1798C59.7056 23.031 60.0292 22.819 60.3676 22.6368C60.4903 22.5698 60.6168 22.5178 60.7544 22.4992C61.0816 22.4546 61.275 22.6628 61.2081 22.9864C61.1858 23.0979 61.1411 23.2058 61.0816 23.3062C60.9887 23.4661 60.8771 23.6112 60.7655 23.7562C60.6093 23.9645 60.6391 24.0835 60.8845 24.169C61.1858 24.2694 61.487 24.3587 61.792 24.4405C62.0858 24.5186 62.335 24.6562 62.4651 24.9463V25.2587C62.361 25.4372 62.2011 25.5339 62.0002 25.5748C61.8998 25.5934 61.7994 25.6232 61.699 25.6418C61.1672 25.7236 60.6316 25.8017 60.0998 25.8835C59.8135 25.9281 59.7316 26.0062 59.6982 26.2889C59.6573 26.6087 59.6312 26.9285 59.5977 27.2484C59.5568 27.6203 59.5568 28.007 59.2184 28.2674H58.9767H58.973ZM57.9353 23.5256C57.7977 23.5182 57.7903 23.6112 57.794 23.7079C57.8052 24.1207 57.6936 24.5 57.5002 24.8608C57.3254 25.188 57.106 25.4781 56.868 25.7608C56.8196 25.8203 56.7229 25.8798 56.7713 25.9616C56.8196 26.0397 56.9238 25.9913 56.9944 25.9765C57.2399 25.9207 57.4853 25.8537 57.7271 25.7905C58.1213 25.6938 58.363 25.7979 58.5601 26.1475C58.6345 26.2777 58.6977 26.4116 58.7684 26.5455C58.787 26.5789 58.8019 26.631 58.8502 26.6236C58.8949 26.6161 58.8986 26.5715 58.9097 26.5306C58.9506 26.3446 58.9878 26.1587 59.0399 25.9765C59.1924 25.4409 59.449 25.2475 60.0068 25.2178C60.3787 25.1992 60.7544 25.1583 61.1151 25.069C61.1858 25.0504 61.3122 25.0541 61.3085 24.9612C61.3085 24.8831 61.1858 24.8756 61.1077 24.8645C60.8139 24.8161 60.5163 24.7715 60.2225 24.7269C59.9882 24.6934 59.9659 24.6674 59.9697 24.4368C59.9697 24.3066 59.9994 24.1876 60.0552 24.0723C60.1296 23.9124 60.1965 23.7488 60.2672 23.5851C60.2895 23.5331 60.323 23.4736 60.2709 23.4252C60.2225 23.3806 60.1593 23.4141 60.1073 23.4327C59.9622 23.4922 59.8506 23.6037 59.7242 23.6967C59.4453 23.8975 59.144 24.0054 58.8019 23.8938C58.5862 23.8269 58.3965 23.7004 58.1957 23.6037C58.1139 23.5628 58.032 23.5219 57.9353 23.5182V23.5256Z" fill="black"/>
<path d="M54.443 17.6198C54.588 17.8987 54.5731 18.2074 54.6066 18.5049C54.6438 18.795 54.6661 19.0888 54.681 19.3826C54.6921 19.5463 54.7628 19.6318 54.9227 19.6616C55.6479 19.8066 56.3731 19.9554 57.0983 20.1041C57.143 20.1116 57.1913 20.1227 57.2322 20.1376C57.3326 20.1822 57.4628 20.2045 57.4814 20.3458C57.5 20.4909 57.4368 20.6062 57.3215 20.6843C57.0649 20.8591 56.7934 21.0078 56.5145 21.1492C56.1872 21.3165 55.8636 21.4876 55.5289 21.6401C55.3467 21.7256 55.2611 21.8483 55.2351 22.0454C55.1384 22.8153 55.0268 23.5851 54.9302 24.355C54.9041 24.5669 54.8 24.7083 54.6103 24.7864C54.4318 24.8607 54.2942 24.7752 54.1566 24.6636C53.6211 24.2099 53.0744 23.7711 52.5463 23.3099C52.3789 23.1649 52.2339 23.1463 52.033 23.2318C51.3934 23.5145 50.7463 23.7785 50.1066 24.0612C49.876 24.1616 49.664 24.1802 49.4595 24.0165C49.4595 23.9124 49.4595 23.8083 49.4595 23.7041C49.85 22.9901 50.2442 22.2797 50.6347 21.5657C50.7872 21.2868 50.7834 21.2756 50.5752 21.0227C50.2516 20.6248 49.9281 20.2306 49.6529 19.7954C49.4706 19.5091 49.5896 19.2487 49.9169 19.1669C50.0991 19.1223 50.2851 19.1334 50.4673 19.1558C51.0512 19.2264 51.6314 19.3008 52.2115 19.3715C52.3752 19.3938 52.5128 19.3529 52.6281 19.219C52.8549 18.9587 53.0781 18.6946 53.3198 18.4491C53.5987 18.1591 53.8144 17.802 54.1938 17.6161H54.4355L54.443 17.6198ZM50.2888 19.6616C50.3297 19.7843 50.3967 19.8735 50.4636 19.9628C50.7202 20.2975 50.9768 20.6285 51.2334 20.9595C51.3859 21.1566 51.3859 21.2124 51.2186 21.3872C51.1293 21.4802 51.0587 21.5806 50.9991 21.6921C50.7388 22.1868 50.4822 22.6777 50.2628 23.1909C50.2256 23.2802 50.1066 23.3954 50.1772 23.4624C50.2479 23.533 50.3818 23.4475 50.4785 23.4066C51.0661 23.1611 51.6537 22.9194 52.2413 22.674C52.4124 22.5996 52.5537 22.6256 52.7025 22.7446C53.1078 23.0645 53.5244 23.3731 53.9111 23.7153C54.0227 23.8157 54.1492 23.8901 54.3016 23.9459C54.3128 23.8789 54.3277 23.8157 54.3388 23.7562C54.443 23.15 54.5471 22.5438 54.6475 21.9376C54.6884 21.681 54.826 21.5099 55.0678 21.4132C55.2054 21.3574 55.3467 21.3016 55.4768 21.2347C55.8673 21.0376 56.2578 20.8368 56.6558 20.6322C56.5814 20.543 56.4996 20.5355 56.4215 20.5206C55.7781 20.3942 55.1384 20.2715 54.495 20.1487C54.1863 20.0892 54.1417 20.0335 54.1268 19.7173C54.1045 19.2748 54.0673 18.8322 54.0339 18.3934C54.0301 18.3413 54.045 18.2669 53.9706 18.2446C53.9074 18.226 53.8851 18.293 53.8516 18.3264C53.5169 18.6983 53.1599 19.0479 52.9182 19.4942C52.7731 19.762 52.5388 19.9293 52.2078 19.8847C51.9735 19.8549 51.743 19.8103 51.5124 19.7694C51.1107 19.6987 50.7091 19.6355 50.2851 19.6616H50.2888Z" fill="black"/>
<path d="M57.9316 23.5256C58.0283 23.5256 58.1101 23.5703 58.192 23.6112C58.3928 23.7079 58.5825 23.8306 58.7982 23.9013C59.144 24.0128 59.4415 23.9013 59.7205 23.7041C59.8469 23.6149 59.9585 23.4996 60.1035 23.4401C60.1556 23.4178 60.2151 23.388 60.2672 23.4327C60.3192 23.481 60.2858 23.5405 60.2634 23.5926C60.1928 23.7562 60.1258 23.9199 60.0515 24.0798C59.9957 24.1951 59.9697 24.3178 59.9659 24.4442C59.9659 24.6748 59.9845 24.7008 60.2188 24.7343C60.5126 24.7789 60.8101 24.8236 61.104 24.8719C61.182 24.8831 61.3011 24.8905 61.3048 24.9686C61.3085 25.0616 61.182 25.0579 61.1114 25.0765C60.7469 25.1657 60.375 25.2066 60.0031 25.2252C59.449 25.255 59.1887 25.4484 59.0362 25.9839C58.9841 26.1661 58.9469 26.3521 58.906 26.538C58.8986 26.579 58.8911 26.6236 58.8465 26.631C58.7982 26.6385 58.7833 26.5901 58.7647 26.5529C58.6977 26.419 58.6308 26.2851 58.5564 26.155C58.3593 25.8017 58.1176 25.6975 57.7234 25.798C57.4779 25.8575 57.2362 25.9281 56.9907 25.9839C56.9201 25.9988 56.8159 26.0471 56.7676 25.969C56.7192 25.8872 56.8159 25.824 56.8643 25.7682C57.1023 25.4856 57.3217 25.1918 57.4965 24.8682C57.6899 24.5075 57.8052 24.1281 57.7903 23.7153C57.7903 23.6149 57.794 23.5256 57.9316 23.5294V23.5256Z" fill="black"/>
<path d="M50.289 19.6616C50.713 19.6393 51.1146 19.6988 51.5163 19.7694C51.7469 19.8103 51.9812 19.855 52.2118 19.8847C52.539 19.9293 52.777 19.762 52.9221 19.4942C53.1638 19.0479 53.5208 18.6983 53.8556 18.3264C53.889 18.2892 53.9113 18.226 53.9746 18.2446C54.0452 18.2669 54.0304 18.3413 54.0378 18.3934C54.0713 18.8359 54.1085 19.2785 54.1308 19.7174C54.1456 20.0335 54.1903 20.0893 54.499 20.1488C55.1423 20.2715 55.7857 20.3942 56.4254 20.5207C56.4998 20.5355 56.5853 20.543 56.6597 20.6322C56.2618 20.8368 55.8713 21.0376 55.4808 21.2347C55.3469 21.3017 55.2093 21.3574 55.0717 21.4132C54.8299 21.5099 54.6961 21.681 54.6514 21.9376C54.551 22.5438 54.4469 23.15 54.3428 23.7562C54.3316 23.8194 54.3204 23.8789 54.3056 23.9459C54.1531 23.8938 54.0266 23.8157 53.9151 23.7153C53.5283 23.3694 53.1118 23.0645 52.7064 22.7446C52.5576 22.6256 52.4163 22.6033 52.2452 22.674C51.6576 22.9231 51.07 23.1649 50.4824 23.4066C50.382 23.4475 50.2518 23.5331 50.1812 23.4624C50.1105 23.3917 50.2295 23.2802 50.2667 23.1909C50.4861 22.6777 50.7427 22.1868 51.0031 21.6922C51.0626 21.5806 51.1332 21.4764 51.2225 21.3872C51.3898 21.2124 51.3898 21.1566 51.2374 20.9595C50.9808 20.6285 50.7241 20.2975 50.4675 19.9628C50.4006 19.8736 50.3336 19.7806 50.2927 19.6616H50.289Z" fill="black"/>
<path d="M34.4423 77.5258C33.1295 77.4886 31.8129 77.3622 30.5076 77.5518C29.8456 77.6485 29.4179 77.2692 29.1538 76.8638C28.1311 75.2907 26.4799 74.1675 25.9183 72.2559C25.7546 71.7055 25.115 71.6014 24.5906 71.4415C23.1216 70.9952 21.8236 70.2737 20.8902 69.0055C19.529 67.1534 19.622 64.777 21.184 63.0737C21.6042 62.6162 21.7009 62.1476 21.5596 61.5898C21.4815 61.2923 21.3253 61.0133 21.2658 60.7121C20.8827 58.6964 20.0348 57.4468 17.8071 56.6546C14.1885 55.3679 13.56 51.1691 16.1559 48.2497C17.2641 47.0001 16.736 44.8951 15.1592 44.3075C14.7278 44.1476 14.2778 44.0174 13.8612 43.824C10.5922 42.3141 9.57691 38.6062 11.6893 35.6794C12.3215 34.8054 12.4777 34.0876 11.7674 33.2025C11.3695 32.7079 11.2616 32.057 11.5368 31.4434C12.422 29.4612 13.1955 27.5384 15.0216 26.0025C16.7249 24.5707 18.7331 24.3103 20.5815 23.5293C22.0505 22.9083 23.5679 22.0045 25.2228 22.1496C26.4501 22.2537 26.8592 21.0934 27.8856 20.926C29.0534 20.7363 30.1691 20.2492 31.3071 19.8847C32.408 19.5277 33.4977 19.1483 34.5985 18.8025C39.5336 17.2479 44.6101 16.2549 49.6382 15.0834C53.4279 14.1983 57.1209 12.9004 61.011 12.4243C62.4316 12.2533 62.8444 12.5396 63.3205 13.8785C64.5403 17.326 65.8531 20.7401 66.9614 24.2322C68.0548 27.676 69.4271 31.0269 70.5874 34.4521C73.0122 41.6001 75.3738 48.7703 77.7726 55.9257C78.1296 56.9856 78.4457 58.079 78.9813 59.0497C79.5763 60.1282 79.4945 61.1286 79.1821 62.2295C79.0631 62.6497 78.7507 62.6088 78.5015 62.739C77.6573 63.1704 76.4151 63.0923 75.9614 63.8993C75.4965 64.7249 76.2552 65.7365 76.3556 66.6886C76.4486 67.57 76.5713 68.4514 76.6383 69.3365C76.7982 71.4638 75.7494 72.7134 73.6742 73.3605C71.0188 74.1861 68.263 74.1006 65.5593 74.4688C58.2514 75.4729 50.8692 75.8262 43.5688 76.8973C40.5526 77.3398 37.5179 77.7341 34.446 77.5295L34.4423 77.5258ZM35.2865 75.7369C35.2865 75.7369 35.2865 75.7518 35.2865 75.7593C35.6324 75.7407 35.982 75.7258 36.3278 75.7072C43.7436 75.313 51.0663 74.0597 58.456 73.4237C62.9188 73.0407 67.3035 71.9733 71.7998 71.832C72.6478 71.8059 73.4846 71.6088 74.2618 71.2295C74.7527 70.9878 75.0689 70.6642 74.9796 70.0543C74.7304 68.377 74.4924 66.696 74.2693 65.015C74.2135 64.5873 74.061 64.301 73.6147 64.539C72.5065 65.1266 71.2457 64.9927 70.0779 65.3423C69.0254 65.6584 68.1403 66.3204 67.099 66.577C62.6473 67.6815 58.1845 68.7489 53.7217 69.8237C52.2415 70.1807 50.7056 70.3295 49.2254 70.5749C43.6952 71.4898 38.3658 73.2229 32.8654 74.2159C30.5671 74.6287 29.8456 74.294 28.8191 72.1853C28.1646 70.839 27.6551 69.4109 26.9336 68.1055C26.465 67.2576 26.6807 67.0047 27.4989 66.763C28.2204 66.551 28.6109 66.7667 28.8042 67.4472C28.9195 67.8563 28.9642 68.2877 29.1055 68.682C30.6452 72.9514 31.0394 73.1634 35.4539 71.951C37.7931 71.3076 40.0878 70.5006 42.4828 70.058C48.7791 68.8939 55.0977 67.8377 61.2899 66.153C66.4668 64.7435 71.5544 63.0997 76.5899 61.2662C77.211 61.0394 77.7726 60.7976 77.3821 59.946C75.504 55.8737 74.4552 51.5075 72.9639 47.3013C69.4271 37.3157 66.0465 27.2744 62.5878 17.2591C61.5056 14.1202 61.4721 14.0607 58.27 14.8529C48.8795 17.181 39.3068 18.7764 30.1468 22.0157C25.896 23.5182 21.5819 24.8347 17.3088 26.274C16.948 26.3967 16.2786 26.3074 16.3381 27.0252C16.4906 28.8215 16.8959 30.562 17.398 32.2876C17.5988 32.9719 17.9075 33.4554 18.5472 33.7752C19.384 34.1918 20.1538 34.7124 20.5778 35.5976C20.7414 35.9434 20.972 36.3265 20.5146 36.6166C20.1538 36.8471 19.7336 37.0294 19.3282 36.7244C19.0864 36.5422 18.9005 36.2893 18.6885 36.0662C17.7513 35.0583 16.5835 34.8389 15.2968 35.1215C14.9323 35.2033 14.4377 35.3335 14.6645 35.8653C15.5757 38.0261 16.0294 40.3691 17.2307 42.3996C17.5951 43.017 17.9075 43.467 17.6993 44.2592C17.4835 45.0773 18.153 45.7765 18.5658 46.4422C18.7815 46.7918 19.3951 46.5278 19.6108 46.3306C19.9753 45.9959 19.7968 45.4269 19.5699 45.0662C18.5658 43.4484 18.4431 41.5554 17.8666 39.8075C17.6769 39.2348 17.6807 38.7215 18.3947 38.517C19.105 38.3162 19.1385 38.9261 19.265 39.3203C19.8749 41.2244 20.496 43.1286 21.0092 45.0625C21.2435 45.9476 21.6005 46.591 22.4633 46.9889C23.5232 47.4761 24.1815 48.4021 24.691 49.4212C25.0406 50.1166 24.8621 50.8009 24.2261 51.1245C23.5716 51.4555 23.315 50.786 23.0844 50.3063C22.586 49.2724 21.8683 48.5286 20.6707 48.3724C20.1389 48.3017 19.1422 48.3017 19.2352 48.5881C19.4658 49.291 18.8596 50.1389 19.5141 50.6261C19.9864 50.9794 20.0831 51.3885 20.217 51.8683C20.5703 53.1625 20.786 54.5088 21.5893 55.6468C21.8125 55.9629 21.8794 56.3497 21.9092 56.7439C22.0208 58.2055 22.6307 59.5406 23.0286 60.9278C23.1588 61.3741 23.5084 61.6493 24.0179 61.4187C24.5385 61.1844 24.2894 60.82 24.1778 60.448C23.4563 58.0493 22.7571 55.6431 22.0542 53.2406C21.9017 52.7236 21.8534 52.2067 22.5265 52.0431C23.2294 51.8683 23.3113 52.3815 23.4563 52.9096C24.0439 55.0592 24.6352 57.2125 25.3046 59.3398C25.6803 60.5299 26.2418 61.6195 27.6067 62.0286C28.172 62.196 28.5699 62.6534 28.8489 63.189C29.0869 63.6464 29.3361 64.1522 28.9307 64.5873C28.529 65.015 28.1571 64.5092 27.7964 64.3716C27.4803 64.2526 27.2013 64.022 26.9261 63.8175C26.3051 63.3489 25.5947 63.2299 24.8472 63.2671C24.3786 63.2894 24.0922 63.4902 24.3303 64.0109C25.2451 66.0117 25.5724 68.3063 27.2571 69.9241C27.5175 70.1733 27.5695 70.4783 27.4394 70.7721C27.0675 71.6163 27.4542 72.2745 27.9266 72.903C29.2171 74.6175 30.66 76.0345 33.0737 75.7593C33.7989 75.6774 34.5427 75.7481 35.2753 75.7481L35.2865 75.7369ZM19.3021 55.0852C19.2426 53.3968 18.51 51.898 18.034 50.3398C17.9633 50.1129 17.9633 49.7187 17.6249 49.715C17.2864 49.7075 17.1451 50.0534 17.0038 50.3174C15.9699 52.2811 17.3385 55.0108 19.2984 55.0889L19.3021 55.0852ZM14.8988 28.338C14.155 29.2789 13.9579 30.1566 13.5525 30.9265C13.1323 31.7223 13.2439 32.5851 13.7125 33.2174C14.1699 33.8347 14.9025 33.1876 15.5199 33.169C15.9848 33.1579 16.0964 32.8529 15.9625 32.4475C15.5497 31.1831 15.1406 29.9186 14.8988 28.338ZM12.541 38.9298C12.5447 40.2203 13.0579 41.2282 14.2182 41.8529C14.4749 41.9905 14.791 42.21 15.0513 41.9757C15.2707 41.7748 15.0811 41.4773 14.9881 41.2282C14.6459 40.2947 14.3373 39.3463 13.9542 38.4314C13.7608 37.974 13.8687 37.1 13.2253 37.1744C12.5187 37.26 12.6711 38.1302 12.5447 38.6992C12.5298 38.7736 12.5447 38.8517 12.541 38.9298ZM22.7125 64.3939C21.7121 65.2493 21.8013 66.1716 22.1658 67.1125C22.6381 68.3287 23.6051 69.039 24.6501 69.0278C24.0179 67.5179 23.3819 66.0005 22.7125 64.3977V64.3939Z" fill="#080808"/>
<path d="M36.1639 77.7861C35.5875 77.7861 35.011 77.7675 34.4308 77.7303C34.1482 77.7229 33.8656 77.708 33.5792 77.6969C32.5751 77.6522 31.5374 77.6076 30.5333 77.7564C29.9085 77.8456 29.373 77.5779 28.9788 76.9754C28.6143 76.4138 28.1531 75.8969 27.7106 75.3985C26.911 74.5022 26.0891 73.5725 25.7172 72.3155C25.6093 71.9436 25.1891 71.8245 24.7428 71.6981C24.6684 71.6758 24.5978 71.6572 24.5271 71.6349C22.8275 71.1179 21.5816 70.296 20.7188 69.1245C19.287 67.1795 19.4134 64.6915 21.0275 62.9324C21.3882 62.5382 21.4887 62.1514 21.3548 61.6381C21.325 61.5154 21.2767 61.3964 21.2246 61.27C21.1614 61.1063 21.0944 60.9353 21.0572 60.753C20.6556 58.6518 19.7258 57.5584 17.7324 56.848C16.07 56.2567 14.9283 55.048 14.5192 53.4489C14.0618 51.6637 14.6122 49.6703 15.9957 48.1158C16.468 47.584 16.6428 46.829 16.4605 46.0926C16.2746 45.3488 15.7614 44.7538 15.0808 44.5009C14.9357 44.4451 14.787 44.3968 14.6382 44.3447C14.3519 44.248 14.0543 44.1439 13.768 44.0137C12.1167 43.2513 10.9713 41.9348 10.5436 40.3096C10.1233 38.7029 10.4655 37.0182 11.5142 35.5641C12.1613 34.6678 12.1837 34.0616 11.5961 33.3327C11.1349 32.76 11.0382 32.0236 11.3357 31.3616L11.5142 30.9599C12.3473 29.0818 13.1357 27.3079 14.8762 25.8463C16.0812 24.831 17.4386 24.3884 18.7515 23.9608C19.3279 23.7748 19.9229 23.5777 20.4882 23.3397C20.7672 23.2207 21.0461 23.0942 21.3287 22.9641C22.5597 22.4025 23.8354 21.826 25.2263 21.9413C25.8399 21.9971 26.223 21.6847 26.6358 21.3612C26.9816 21.0859 27.3387 20.8033 27.8407 20.7215C28.6552 20.5876 29.4697 20.3012 30.2581 20.0223C30.5817 19.907 30.9052 19.7917 31.2325 19.6876C31.7085 19.5351 32.1808 19.3752 32.6569 19.2153C33.2779 19.007 33.9027 18.7988 34.5275 18.6016C38.2763 17.4227 42.1627 16.5525 45.9226 15.7082C47.1425 15.433 48.3623 15.1616 49.5821 14.8789C50.8503 14.5851 52.1259 14.2355 53.3644 13.8971C55.8264 13.2277 58.3776 12.5322 60.9735 12.2161C62.4685 12.0339 62.9892 12.3611 63.4987 13.8078C63.878 14.8826 64.2685 15.95 64.6553 17.0211C65.5033 19.3492 66.3772 21.7591 67.1396 24.169C67.7607 26.1215 68.4822 28.0814 69.1814 29.9781C69.7132 31.4174 70.2636 32.905 70.762 34.3852C72.2533 38.781 73.7446 43.2587 75.1876 47.5877C76.1062 50.3472 77.0248 53.103 77.9508 55.8588L78.1182 56.3646C78.4045 57.2423 78.7021 58.1497 79.1446 58.9493C79.8215 60.1766 79.6504 61.2774 79.3603 62.2853C79.2413 62.7018 78.9587 62.791 78.7504 62.8543C78.6909 62.8729 78.6314 62.8915 78.5756 62.9175C78.2521 63.0848 77.8802 63.1778 77.5194 63.2671C76.9281 63.4158 76.3665 63.5572 76.1211 63.996C75.8644 64.4497 76.0578 65.0076 76.2587 65.5952C76.3777 65.9411 76.5004 66.3018 76.5376 66.6625C76.5711 66.9712 76.6083 67.2799 76.6417 67.5923C76.7087 68.1576 76.7756 68.7415 76.8202 69.3179C76.9839 71.4638 75.9649 72.851 73.7111 73.5502C71.9186 74.108 70.0665 74.2568 68.2739 74.3981C67.3814 74.4688 66.4628 74.5431 65.5628 74.6659C62.0892 75.1419 58.545 75.4766 55.116 75.8039C51.3264 76.1609 47.4065 76.5328 43.5722 77.0944C41.0805 77.4589 38.6296 77.7824 36.1453 77.7824L36.1639 77.7861ZM32.1102 77.2469C32.6122 77.2469 33.1106 77.2692 33.5978 77.2915C33.8804 77.3027 34.1631 77.3175 34.4457 77.325H34.4532C37.4953 77.5258 40.4854 77.1427 43.5313 76.6965C47.373 76.1312 51.2966 75.763 55.0937 75.4022C58.5189 75.0787 62.0594 74.744 65.5256 74.2679C66.433 74.1415 67.3628 74.0708 68.2591 73.9965C70.0293 73.8551 71.8591 73.7101 73.607 73.1634C75.6785 72.52 76.5748 71.3076 76.426 69.3514C76.3814 68.7824 76.3145 68.2022 76.2475 67.6406C76.2103 67.3283 76.1731 67.0196 76.1434 66.7072C76.1099 66.3948 75.9946 66.0563 75.883 65.7291C75.6599 65.082 75.4293 64.4088 75.7752 63.7952C76.1099 63.2039 76.7831 63.0328 77.4302 62.8691C77.7686 62.7836 78.1145 62.6981 78.3971 62.553C78.4715 62.5158 78.5533 62.4898 78.6351 62.4638C78.8174 62.408 78.914 62.3745 78.9736 62.1737C79.2376 61.2514 79.3975 60.2472 78.7913 59.1501C78.3302 58.3171 78.0289 57.391 77.7351 56.4947L77.5678 55.9927C76.6417 53.2369 75.7231 50.4774 74.8045 47.7178C73.3615 43.3889 71.8702 38.9112 70.3826 34.519C69.8843 33.0463 69.3338 31.5587 68.8057 30.1232C68.1066 28.2227 67.3814 26.2591 66.7566 24.2955C65.9942 21.893 65.1202 19.4905 64.276 17.1661C63.8855 16.095 63.4987 15.0239 63.1194 13.9491C62.6694 12.681 62.3384 12.469 61.0293 12.6289C58.4594 12.9413 55.9268 13.633 53.4759 14.2987C52.2375 14.6372 50.9545 14.9868 49.6788 15.2843C48.459 15.5669 47.2391 15.8421 46.0156 16.1173C42.2631 16.9578 38.3842 17.8281 34.654 18.9996C34.0292 19.1967 33.4081 19.4012 32.7908 19.6095C32.3147 19.7694 31.8387 19.9256 31.3627 20.0818C31.0391 20.1859 30.7193 20.2975 30.3994 20.4128C29.5961 20.6955 28.7631 20.993 27.9114 21.1306C27.5172 21.1938 27.2159 21.4355 26.8961 21.6884C26.4647 22.0343 25.9701 22.4211 25.1965 22.3579C23.9135 22.2426 22.6899 22.8041 21.5035 23.3471C21.2172 23.4773 20.9345 23.6074 20.6519 23.7265C20.0717 23.9719 19.4655 24.169 18.8816 24.3587C17.606 24.7752 16.2895 25.2066 15.144 26.1661C13.4779 27.5682 12.708 29.3013 11.8936 31.1347L11.7151 31.5364C11.4845 32.0571 11.5589 32.6335 11.9196 33.0835C12.7973 34.1769 12.4031 35.0397 11.849 35.8095C10.8746 37.1633 10.551 38.7253 10.9415 40.2129C11.3357 41.7154 12.3994 42.9352 13.939 43.6492C14.2031 43.772 14.4895 43.8687 14.7684 43.9654C14.9209 44.0174 15.0733 44.0695 15.2221 44.1253C16.0291 44.4265 16.6391 45.1294 16.8548 46.0034C17.0705 46.8699 16.8622 47.7625 16.2969 48.3984C15.0064 49.8526 14.4895 51.7046 14.9134 53.3596C15.289 54.8249 16.3378 55.9294 17.8663 56.4761C20.0196 57.2423 21.0275 58.4249 21.4589 60.6898C21.4849 60.8348 21.5444 60.9799 21.6039 61.1361C21.656 61.27 21.7118 61.4076 21.749 61.5526C21.9163 62.1997 21.7787 62.7315 21.325 63.2262C19.8486 64.8365 19.737 67.1163 21.0461 68.8977C21.8643 70.0097 23.0097 70.7609 24.6424 71.2593C24.7093 71.2816 24.78 71.3002 24.8506 71.3188C25.3341 71.4564 25.9366 71.6274 26.1077 72.215C26.4498 73.3865 27.2085 74.2382 28.0118 75.1419C28.4655 75.6514 28.9341 76.1795 29.3172 76.7671C29.6184 77.232 30.0089 77.4328 30.4664 77.3659C31.0093 77.2878 31.556 77.2617 32.099 77.2617L32.1102 77.2469ZM32.497 75.9898C30.325 75.9898 28.9416 74.5729 27.7701 73.0183C27.2978 72.3936 26.8329 71.646 27.2606 70.6828C27.361 70.4559 27.3164 70.2477 27.1267 70.0654C25.9143 68.9014 25.3825 67.3915 24.8692 65.9336C24.6535 65.32 24.4267 64.684 24.1552 64.089C24.025 63.8063 24.0176 63.5646 24.1329 63.3786C24.2556 63.1778 24.4973 63.07 24.8506 63.0551C25.7655 63.0105 26.4684 63.2001 27.0635 63.6464L27.1639 63.7208C27.3945 63.8956 27.6325 64.0778 27.8854 64.1745C28.0044 64.2191 28.1159 64.2935 28.2238 64.3642C28.5436 64.5725 28.644 64.6022 28.7965 64.4423C29.0903 64.1262 28.9379 63.7617 28.685 63.282C28.3874 62.7129 28.0118 62.3559 27.5655 62.2258C26.0593 61.772 25.4866 60.5448 25.1259 59.403C24.4713 57.3241 23.8986 55.2563 23.2738 52.9654L23.244 52.8575C23.1027 52.3183 23.0283 52.1398 22.5895 52.2476C22.4072 52.2922 22.292 52.3629 22.2325 52.467C22.1283 52.6493 22.1953 52.9505 22.2659 53.1885L22.6304 54.4381C23.2106 56.4241 23.7907 58.4138 24.3858 60.396C24.4044 60.4518 24.423 60.5113 24.4453 60.5671C24.5494 60.8572 24.7242 61.3369 24.1143 61.6121C23.7647 61.7683 23.5044 61.7162 23.3482 61.6419C23.1101 61.534 22.9316 61.2997 22.8424 60.991C22.7271 60.5819 22.5858 60.1729 22.4519 59.7749C22.1283 58.8154 21.7936 57.8224 21.7155 56.7662C21.6895 56.4204 21.6374 56.0596 21.4329 55.7733C20.7597 54.8249 20.4882 53.7315 20.2242 52.6753C20.161 52.4261 20.0977 52.177 20.0308 51.9278L20.0159 51.8794C19.8969 51.4406 19.8039 51.091 19.4023 50.7935C18.9151 50.429 18.9858 49.9084 19.049 49.4509C19.0899 49.1646 19.1271 48.8931 19.049 48.655C19.0155 48.5509 19.0341 48.4431 19.1048 48.3612C19.3948 48.0079 20.6928 48.1716 20.7077 48.1753C21.8457 48.3241 22.6899 48.9935 23.2775 50.2208L23.3258 50.3212C23.4597 50.6038 23.6122 50.9274 23.8168 50.998C23.906 51.0278 24.0101 51.0129 24.1403 50.946C24.6684 50.6782 24.8172 50.1166 24.5122 49.5179C23.9023 48.298 23.244 47.5802 22.3812 47.1823C21.3622 46.7137 21.0238 45.9141 20.8155 45.122C20.3581 43.4001 19.8039 41.6707 19.2684 39.9972L19.075 39.3872C19.0564 39.3277 19.0378 39.2608 19.0192 39.1939C18.9672 38.993 18.9114 38.7848 18.7924 38.7178C18.718 38.6769 18.6064 38.6769 18.4577 38.7178C18.2382 38.781 18.0969 38.874 18.0262 39.0042C17.9407 39.1641 17.9556 39.4058 18.0672 39.748C18.268 40.3505 18.413 40.979 18.5543 41.5852C18.8258 42.7344 19.1048 43.9245 19.7482 44.9658C20.0382 45.4344 20.1944 46.0815 19.7482 46.4869C19.5659 46.6505 19.1531 46.8625 18.8035 46.8141C18.6213 46.7881 18.48 46.6988 18.3907 46.5538C18.3126 46.4274 18.2234 46.2972 18.1341 46.167C17.7436 45.6017 17.301 44.9621 17.4981 44.2108C17.6692 43.5488 17.4498 43.1769 17.1151 42.6191L17.0481 42.5075C16.2895 41.2282 15.8209 39.8112 15.3709 38.4426C15.0957 37.6133 14.813 36.7579 14.4709 35.9472C14.3779 35.724 14.3742 35.5269 14.4597 35.3633C14.6047 35.0843 14.9432 34.9914 15.2481 34.9244C16.7097 34.6046 17.9184 34.943 18.8333 35.9286C18.8965 35.9955 18.9523 36.0624 19.0118 36.1294C19.1531 36.293 19.287 36.4455 19.4432 36.5645C19.6924 36.7542 19.9713 36.7207 20.399 36.4492C20.637 36.3005 20.6147 36.1666 20.4176 35.7612L20.3841 35.6905C19.9639 34.8129 19.1717 34.3257 18.4465 33.9649C17.8031 33.6414 17.4275 33.1616 17.1932 32.3546C16.5981 30.3128 16.2597 28.6281 16.1221 27.0513C16.0589 26.3037 16.6428 26.1996 16.9886 26.1401C17.0779 26.1252 17.1597 26.1103 17.2304 26.088C18.9151 25.519 20.637 24.9612 22.2994 24.4219C24.8544 23.5926 27.4912 22.7372 30.0647 21.8298C36.4205 19.5835 43.0738 18.1033 49.5115 16.6678C52.3677 16.0318 55.3206 15.3735 58.2065 14.6595C61.4756 13.8487 61.6466 13.9454 62.7698 17.1996C63.8892 20.4388 64.9975 23.6855 66.1095 26.9285C68.3929 33.593 70.7508 40.4881 73.1458 47.2418C73.6665 48.7108 74.1388 50.2245 74.6 51.686C75.4554 54.4121 76.3368 57.2311 77.5566 59.8716C77.7202 60.2286 77.75 60.5224 77.6459 60.7716C77.4934 61.1398 77.1029 61.3072 76.6492 61.4708C71.4388 63.3712 66.2843 65.015 61.3342 66.365C56.0086 67.8154 50.5044 68.8159 45.1825 69.7865C44.29 69.9502 43.4011 70.1101 42.5086 70.2737C40.8647 70.5787 39.2358 71.0621 37.659 71.5345C36.9412 71.7502 36.2197 71.9621 35.4982 72.163C30.9796 73.4051 30.485 73.1522 28.9044 68.7675C28.8151 68.5221 28.7631 68.2654 28.7147 68.02C28.6812 67.8526 28.6478 67.6816 28.5994 67.5179C28.5213 67.2353 28.406 67.0568 28.2536 66.9712C28.0936 66.882 27.8631 66.882 27.5469 66.9749C27.1527 67.0902 26.9556 67.1981 26.9035 67.3245C26.8515 67.4547 26.9147 67.6816 27.1044 68.0237C27.5395 68.8084 27.9002 69.6489 28.2498 70.4559C28.4878 71.0026 28.7333 71.5717 28.9974 72.1146C29.9792 74.1341 30.5891 74.439 32.8242 74.0336C35.4313 73.565 38.0457 72.9179 40.5709 72.2894C43.3751 71.594 46.2722 70.8762 49.1842 70.3927C49.6714 70.3109 50.1623 70.2402 50.6569 70.1733C51.6536 70.032 52.6801 69.8869 53.6656 69.6489L56.6817 68.92C60.0772 68.1018 63.5917 67.2576 67.0392 66.4022C67.5673 66.272 68.0508 66.034 68.564 65.7811C69.0215 65.5543 69.4938 65.3237 70.007 65.1712C70.4905 65.0262 70.9888 64.9629 71.4686 64.8997C72.1901 64.8068 72.8744 64.7175 73.5066 64.3828C73.7372 64.2601 73.9417 64.2415 74.1091 64.3233C74.362 64.4534 74.4326 64.777 74.4624 65.0113C74.6632 66.5138 74.8938 68.1613 75.1727 70.0469C75.2954 70.8688 74.7562 71.2332 74.3397 71.434C73.5512 71.8171 72.6958 72.0291 71.7958 72.0551C69.2223 72.1369 66.6338 72.5312 64.1347 72.9105C62.2826 73.1931 60.3636 73.4832 58.4632 73.6469C55.3764 73.9109 52.2449 74.294 49.2177 74.6584C45.004 75.1717 40.6453 75.6998 36.3275 75.9303L35.0817 75.9936V75.9601C34.9106 75.9601 34.7432 75.9527 34.5759 75.9489C34.085 75.9341 33.5792 75.9192 33.0957 75.975C32.8874 75.9973 32.6829 76.0122 32.4858 76.0122L32.497 75.9898ZM25.0924 63.4567C25.018 63.4567 24.9436 63.4567 24.8655 63.4605C24.6647 63.4716 24.5234 63.5163 24.4787 63.5906C24.4416 63.6539 24.4564 63.7691 24.5271 63.9179C24.806 64.5278 25.0329 65.1749 25.2523 65.796C25.773 67.2725 26.2676 68.6708 27.4093 69.7679C27.7217 70.0692 27.8073 70.4634 27.6362 70.8464C27.3312 71.5345 27.5767 72.0737 28.1011 72.7729C29.492 74.6212 30.8643 75.7965 33.0622 75.5473C33.5755 75.4878 34.0961 75.5027 34.5982 75.5175C34.8288 75.525 35.0594 75.5324 35.2862 75.5324L35.6246 75.5398L36.3164 75.5064C40.623 75.2758 44.9705 74.7477 49.1805 74.2382C52.2115 73.87 55.3466 73.4907 58.4408 73.2229C60.3301 73.0593 62.238 72.7692 64.0863 72.4902C66.6004 72.1072 69.1962 71.713 71.7958 71.6312C72.6401 71.6051 73.4396 71.408 74.176 71.051C74.6706 70.8093 74.8454 70.5303 74.7822 70.0915C74.5033 68.2059 74.2727 66.5584 74.0719 65.0522C74.031 64.7472 73.9603 64.6877 73.938 64.6766C73.9082 64.6617 73.8339 64.6691 73.7186 64.7324C73.0194 65.1043 72.2682 65.201 71.5429 65.2939C71.0781 65.3535 70.5946 65.4167 70.1446 65.5506C69.6648 65.6956 69.2074 65.9187 68.7648 66.1382C68.2553 66.3873 67.7272 66.6477 67.1582 66.789C63.707 67.6444 60.1962 68.4923 56.8008 69.3105L53.7846 70.0394C52.7805 70.2812 51.7429 70.4299 50.7387 70.5712C50.2478 70.6419 49.7569 70.7126 49.2735 70.7907C46.3801 71.2704 43.4867 71.9882 40.69 72.6799C38.1536 73.3084 35.5354 73.9593 32.9172 74.4316C30.511 74.8667 29.7114 74.465 28.6478 72.2857C28.38 71.7353 28.1345 71.1626 27.8928 70.6121C27.5469 69.8126 27.1899 68.9832 26.7622 68.2134C26.4982 67.7373 26.4312 67.4249 26.5391 67.1609C26.6618 66.8596 26.9928 66.7072 27.4465 66.5733C27.8705 66.4506 28.2052 66.458 28.4655 66.603C28.7184 66.7444 28.8969 67.0047 29.0048 67.3989C29.0531 67.5737 29.0903 67.7522 29.1275 67.9307C29.1759 68.1725 29.2242 68.403 29.3023 68.6225C30.8085 72.8026 31.0949 72.9477 35.4015 71.7613C36.123 71.5642 36.837 71.3485 37.5548 71.1365C39.1391 70.6642 40.7792 70.1733 42.4491 69.8683C43.3416 69.7047 44.2305 69.5411 45.123 69.3774C50.4375 68.4105 55.9305 67.4101 61.2413 65.9634C66.1801 64.6171 71.3235 62.977 76.5264 61.0803C76.8872 60.9464 77.1959 60.82 77.2851 60.608C77.3409 60.4704 77.3149 60.2807 77.2033 60.039C75.9723 57.3724 75.0872 54.5423 74.2281 51.8051C73.7706 50.3472 73.2983 48.841 72.7814 47.3757C70.3863 40.6182 68.0285 33.7269 65.745 27.0587C64.633 23.8157 63.5247 20.5727 62.4053 17.3297C61.7086 15.314 60.3499 14.5553 58.3293 15.0537C55.4396 15.7715 52.483 16.4297 49.623 17.0657C43.2003 18.4938 36.5544 19.974 30.2246 22.2128C27.6474 23.124 25.0068 23.9793 22.4482 24.8087C20.7858 25.3479 19.0676 25.9058 17.3829 26.4711C17.2936 26.5008 17.1895 26.5194 17.0816 26.538C16.6762 26.6087 16.5238 26.6682 16.5535 27.0103C16.6837 28.5575 17.0184 30.2161 17.606 32.2356C17.8105 32.931 18.1118 33.3252 18.6473 33.5967C19.432 33.9872 20.2986 34.5228 20.7709 35.5157L20.8044 35.5827C20.9568 35.8988 21.2134 36.4269 20.6333 36.7951C20.4027 36.9401 19.7928 37.3269 19.2126 36.8918C19.0229 36.7505 18.8667 36.5719 18.718 36.4009C18.6622 36.3377 18.6064 36.2707 18.5469 36.2075C17.725 35.3224 16.6762 35.0323 15.3485 35.3224C15.2035 35.3521 14.9023 35.4191 14.8353 35.5492C14.8093 35.6013 14.8167 35.6831 14.8614 35.7872C15.2109 36.6129 15.4973 37.4794 15.7725 38.3124C16.2188 39.6625 16.68 41.0571 17.4163 42.2992L17.4833 42.4071C17.8291 42.9835 18.1267 43.4856 17.911 44.3149C17.7622 44.884 18.1304 45.4195 18.4874 45.9364C18.5804 46.074 18.6734 46.2042 18.7552 46.3381C18.7738 46.3641 18.7998 46.3976 18.8779 46.4088C19.0676 46.4311 19.3688 46.2935 19.4878 46.1856C19.8263 45.8732 19.4581 45.2521 19.4134 45.1815C18.7329 44.0844 18.4465 42.8608 18.1676 41.6782C18.0262 41.0794 17.8812 40.462 17.6878 39.8782C17.5948 39.5918 17.487 39.1678 17.6767 38.8145C17.7994 38.5839 18.0262 38.4203 18.3572 38.3273C18.6176 38.2529 18.837 38.2641 19.0081 38.3645C19.2796 38.5207 19.3614 38.8368 19.4283 39.0934C19.4432 39.153 19.4581 39.2125 19.4767 39.2645L19.6701 39.8744C20.2093 41.5517 20.7634 43.2848 21.2246 45.0178C21.4366 45.8212 21.749 46.4348 22.5672 46.8104C23.787 47.372 24.4527 48.4542 24.8916 49.3356C25.2969 50.1464 25.0738 50.9422 24.3374 51.3141C24.1068 51.4294 23.8911 51.4555 23.694 51.3885C23.3221 51.2621 23.125 50.8381 22.9651 50.4997L22.9205 50.403C22.3887 49.2947 21.6709 48.7146 20.6667 48.5844C20.1796 48.5212 19.6515 48.5472 19.4767 48.6104C19.5548 48.9154 19.5101 49.2315 19.4729 49.5141C19.4097 49.9716 19.3837 50.2654 19.6626 50.4699C20.1758 50.853 20.2986 51.303 20.4287 51.7753L20.4436 51.8237C20.5106 52.0728 20.5738 52.3257 20.637 52.5786C20.9048 53.646 21.1577 54.6501 21.7825 55.539C22.0428 55.9109 22.1097 56.3534 22.1395 56.7365C22.2176 57.7406 22.5411 58.7076 22.8573 59.6448C22.9911 60.0464 23.1325 60.4629 23.2515 60.8795C23.3073 61.0729 23.4077 61.2105 23.5341 61.27C23.6494 61.322 23.7944 61.3109 23.9581 61.2365C24.211 61.1212 24.1924 61.0319 24.0734 60.701C24.0511 60.6377 24.0287 60.5745 24.0064 60.5076C23.4114 58.5253 22.8312 56.5356 22.2473 54.546L21.8829 53.2964C21.7825 52.958 21.7081 52.5675 21.8866 52.2551C22.0019 52.0542 22.2101 51.9166 22.5002 51.8422C23.3519 51.634 23.523 52.2774 23.6494 52.746L23.6792 52.8501C24.304 55.1373 24.873 57.1976 25.5275 59.2729C25.8734 60.3662 26.3717 61.4299 27.6957 61.8278C28.2498 61.9952 28.7073 62.4154 29.0606 63.0886C29.2874 63.52 29.6259 64.1708 29.1089 64.7212C28.6998 65.1563 28.2684 64.8774 28.0118 64.7063C27.9188 64.6431 27.8296 64.5873 27.7515 64.5576C27.4465 64.4423 27.1825 64.2415 26.9296 64.0481L26.8329 63.9737C26.368 63.6241 25.8176 63.4567 25.111 63.4567H25.0924ZM24.6201 69.2287C23.4783 69.2287 22.4668 68.4477 21.9721 67.1832C21.6411 66.3353 21.4106 65.2344 22.5746 64.2377L22.7903 64.0555L24.9548 69.2249H24.6498C24.6498 69.2249 24.6275 69.2287 24.6201 69.2287ZM22.6378 64.7435C21.9089 65.5059 22.0688 66.2944 22.3589 67.0344C22.7457 68.0274 23.4858 68.6783 24.3374 68.7973L22.6415 64.7435H22.6378ZM19.5139 55.3009L19.2944 55.2935C18.3833 55.2563 17.5167 54.6761 16.9738 53.7389C16.3304 52.6232 16.2709 51.277 16.825 50.2245L16.8622 50.1538C17.0035 49.8823 17.2043 49.5104 17.6283 49.5141C18.0634 49.5216 18.1527 49.9307 18.1973 50.1501C18.2085 50.1984 18.2159 50.2431 18.2308 50.284C18.361 50.7079 18.5134 51.1394 18.6585 51.5559C19.0527 52.6716 19.4618 53.8282 19.5064 55.0852L19.5139 55.3047V55.3009ZM17.6172 49.9195C17.4535 49.9195 17.3531 50.0831 17.2267 50.336L17.1857 50.4141C16.6986 51.3439 16.7506 52.5377 17.3271 53.5344C17.751 54.2708 18.3944 54.7542 19.0824 54.8621C19.0006 53.7575 18.6287 52.7088 18.2717 51.6898C18.1229 51.2695 17.9705 50.8344 17.8366 50.3993C17.8217 50.3509 17.8068 50.2914 17.7957 50.2319C17.7362 49.9641 17.7027 49.9195 17.6209 49.9195C17.6209 49.9195 17.6209 49.9195 17.6172 49.9195ZM14.7944 42.2844C14.575 42.2844 14.3593 42.1654 14.1957 42.0761L14.1176 42.0352C12.9386 41.3992 12.3361 40.3579 12.3324 38.9335V38.9261C12.3324 38.9038 12.3324 38.8815 12.3324 38.8591C12.3324 38.7996 12.3287 38.7327 12.3436 38.6583C12.3733 38.5319 12.3845 38.3831 12.3994 38.2269C12.444 37.7323 12.5035 37.0591 13.2027 36.9736C13.8498 36.8992 13.9651 37.5166 14.0432 37.9294C14.0729 38.0893 14.099 38.2418 14.1473 38.3534C14.4151 38.993 14.6494 39.6587 14.8762 40.3021C14.9766 40.5885 15.0771 40.8749 15.1849 41.1612C15.1998 41.2021 15.2184 41.243 15.237 41.2877C15.3337 41.5182 15.4824 41.8678 15.1924 42.1319C15.0659 42.2472 14.932 42.2918 14.7981 42.2918L14.7944 42.2844ZM12.7452 38.9335C12.749 40.2092 13.2659 41.1054 14.3147 41.6707L14.3965 41.7154C14.6754 41.8678 14.8056 41.9162 14.9134 41.8195C14.9766 41.7637 14.9469 41.6596 14.8539 41.4401C14.8316 41.3918 14.813 41.3435 14.7944 41.2951C14.6903 41.0087 14.5862 40.7187 14.4857 40.4323C14.2626 39.7963 14.0283 39.1381 13.7642 38.5058C13.701 38.3534 13.6676 38.1711 13.6341 37.9963C13.5374 37.4645 13.4667 37.3418 13.2473 37.3753C12.9163 37.4162 12.8568 37.6877 12.8047 38.2567C12.7899 38.4203 12.775 38.5877 12.7415 38.7401C12.7378 38.7625 12.7415 38.7996 12.7415 38.8331C12.7415 38.8629 12.7415 38.8963 12.7415 38.9298L12.7452 38.9335ZM14.2217 33.6897C13.98 33.6897 13.7457 33.6042 13.5485 33.3401C13.0018 32.6038 12.9349 31.6628 13.3737 30.8298C13.5002 30.5843 13.608 30.3277 13.7233 30.0562C13.9576 29.4984 14.2217 28.8624 14.7386 28.2079L15.0324 27.836L15.1031 28.3008C15.3485 29.8963 15.78 31.2166 16.1593 32.3769C16.282 32.7488 16.2002 32.9794 16.1109 33.1021C16.0291 33.2174 15.8618 33.3587 15.5233 33.3662C15.3486 33.3699 15.1514 33.4405 14.9432 33.5112C14.72 33.5893 14.4671 33.6786 14.2217 33.6786V33.6897ZM14.7758 28.8587C14.4709 29.3273 14.2812 29.781 14.099 30.2199C13.9837 30.4988 13.8721 30.7666 13.7345 31.0269C13.37 31.7149 13.4258 32.4922 13.8758 33.0984C14.0692 33.3624 14.3109 33.3104 14.8056 33.1393C15.0362 33.0575 15.2742 32.9757 15.5122 32.9682C15.6052 32.9682 15.7242 32.9496 15.7725 32.8752C15.8209 32.8083 15.8171 32.6744 15.7651 32.5145C15.4192 31.4546 15.0324 30.2719 14.7758 28.8587Z" fill="black"/>
</svg>
