<svg xmlns="http://www.w3.org/2000/svg" width="34" height="34" viewBox="0 0 34 34" fill="none">
  <path d="M4.43688 10.3936L3.68495 12.1512L6.52545 20.6811L9.08093 27.6465L10.4746 29.7057L26.6674 28.2548L28.1278 27.4438L27.7042 24.4707L29.3016 23.8821L29.0649 23.1713L22.8405 5.18808L22.1803 5.09529L13.131 7.21132L5.19044 9.82193L4.43688 10.3936Z" fill="white"/>
  <path d="M26.6392 24.8631L27.7042 24.4707M27.7042 24.4707L29.3016 23.8821L29.0649 23.1713L22.8405 5.18808L22.1803 5.09529L13.131 7.21132L5.19044 9.82193L4.43688 10.3936L3.68495 12.1512L6.52546 20.6811L9.08093 27.6465L10.4746 29.7057L26.6674 28.2549L28.1278 27.4438L27.7042 24.4707Z" stroke="black"/>
  <path d="M9.38281 8.24721C9.38281 8.24721 9.44513 8.19092 9.43746 8.14875C9.37412 7.80089 9.65893 7.78271 9.85983 7.70823C10.5849 7.43692 11.3343 7.23409 12.0685 6.99488C12.7026 6.78955 13.3224 6.54112 13.9748 6.39998C15.0333 6.17554 16.0722 5.87301 17.1312 5.64522C18.0183 5.45489 18.9016 5.24349 19.781 5.011C20.869 4.72222 21.9526 4.39174 23.0789 4.26585C23.5484 4.21543 23.7677 4.34896 23.8822 4.817C23.9645 5.15042 24.1197 5.44957 24.2383 5.76754C24.581 6.66825 24.8913 7.58153 25.1983 8.49435C25.3546 8.95458 25.4077 9.47219 25.604 9.89011C25.8147 10.3271 26.0167 10.7767 26.1407 11.2255C26.4183 12.2267 26.9043 13.1475 27.1462 14.1607C27.3148 14.8726 27.5934 15.5521 27.8396 16.2441C28.3196 17.5955 28.7991 18.9502 29.2215 20.3244C29.5013 21.2368 29.7974 22.1549 30.2124 23.0247C30.3337 23.2746 30.19 23.6926 29.9092 23.8518C29.6326 24.0046 29.3499 24.1532 29.0528 24.2587C28.7339 24.3748 28.7685 24.6365 28.8254 24.8362C29.0264 25.5355 29.0993 26.2511 29.1478 26.9701C29.1847 27.482 28.5782 28.0713 27.9602 28.2104C27.3312 28.3548 26.6887 28.4015 26.0524 28.4524C24.9446 28.5433 23.8638 28.8057 22.7637 28.9147C21.3016 29.0584 19.8338 29.1466 18.3784 29.3392C17.0341 29.5167 15.693 29.6945 14.3472 29.8341C13.1671 29.9559 11.9829 29.8647 10.8039 29.7607C10.6762 29.7496 10.5423 29.7102 10.4841 29.5925C10.2262 29.0803 9.689 28.7891 9.46491 28.2543C9.42716 28.16 9.32941 28.0812 9.31834 27.9906C9.28364 27.681 9.06584 27.5853 8.81759 27.5128C8.42544 27.3995 8.04943 27.2439 7.72521 26.9861C6.85981 26.2961 6.67095 25.3896 7.19123 24.4218C7.21879 24.3709 7.24156 24.3057 7.28249 24.2806C7.69606 24.0237 7.58466 23.7033 7.4451 23.3413C7.31558 23.0047 7.23652 22.6478 7.14651 22.2962C7.08907 22.0758 6.97748 21.9745 6.73118 21.9365C5.83936 21.7975 4.79668 21.038 4.82902 19.9127C4.84864 19.2649 5.07889 18.6912 5.54365 18.2396C5.7011 18.0871 5.73618 17.9585 5.66115 17.7664C5.61622 17.6506 5.59272 17.5274 5.56922 17.4043C5.50306 17.0766 5.32993 16.905 4.98686 16.8054C4.38554 16.6319 3.83597 16.3321 3.50941 15.7521C3.10647 15.0381 3.19418 14.0027 3.71537 13.3672C3.93697 13.097 4.00096 12.8595 3.76098 12.5587C3.48904 12.2192 3.53475 11.8456 3.72335 11.4715C3.96326 10.9985 4.11118 10.4783 4.47406 10.0739C4.55825 9.98301 4.64051 9.88158 4.7476 9.82131C4.94369 9.70849 5.1484 9.63111 5.23428 9.38297C5.27414 9.26873 5.41886 9.2069 5.54076 9.18637C6.28743 9.05164 6.94324 8.64391 7.68128 8.47372C7.89222 8.42462 8.11832 8.31602 8.32919 8.21897C8.48533 8.14847 8.64568 8.02378 8.83683 8.13966C8.86209 8.15349 8.91878 8.16145 8.92781 8.1456C9.2207 7.75535 9.19283 8.29241 9.3852 8.25439L9.38281 8.24721ZM19.2304 26.713C18.936 27.0654 18.5185 27.1574 18.0999 27.2321C17.3608 27.361 16.6146 27.4924 15.8804 27.6357C14.8594 27.8346 13.8606 28.1667 12.855 28.45C12.5579 28.5315 12.2397 28.497 11.9573 28.5703C10.9898 28.8247 10.7097 28.4224 10.3835 27.7671C10.0913 27.1851 9.90895 26.5466 9.55814 25.9939C9.51662 25.9265 9.44504 25.8308 9.53263 25.7883C9.71494 25.701 9.91058 25.6155 10.1063 25.6019C10.2644 25.5899 10.319 25.7824 10.3749 25.917C10.4542 26.1028 10.435 26.3123 10.5376 26.5014C10.7339 26.8713 10.922 27.2505 11.0678 27.6407C11.1644 27.8974 11.3174 27.9702 11.555 27.9489C12.1746 27.8956 12.787 27.7728 13.3687 27.5772C14.3723 27.2355 15.3975 26.9824 16.4365 26.7997C17.8661 26.5487 19.2937 26.311 20.7093 25.9896C22.244 25.6437 23.75 25.2117 25.2621 24.7839C26.5762 24.4105 27.843 23.8901 29.138 23.4592C29.4808 23.343 29.5425 23.1942 29.3763 22.8764C29.3009 22.7357 29.2359 22.593 29.1895 22.4393C28.8925 21.4799 28.4231 20.5854 28.245 19.5777C28.1467 19.0195 27.8316 18.5027 27.6604 17.9548C27.2342 16.5835 26.7009 15.2486 26.3037 13.8643C25.8845 12.3947 25.3273 10.964 24.8262 9.52058C24.328 8.08101 23.8227 6.64385 23.3173 5.20669C23.2733 5.0841 23.225 4.94378 23.0374 4.97219C22.7141 5.02262 22.3797 5.03041 22.0679 5.12011C20.9752 5.44247 19.8719 5.71883 18.7601 5.95974C17.3602 6.26631 15.9679 6.61504 14.5689 6.91489C13.4609 7.15291 12.3954 7.5236 11.3276 7.8871C10.6953 8.10297 10.0224 8.14878 9.4121 8.42595C9.24121 8.50465 9.07665 8.68353 8.87109 8.4766C8.81767 8.42116 8.76869 8.47932 8.75019 8.53835C8.69473 8.73941 8.51519 8.75869 8.35952 8.82583C8.12436 8.92632 7.87199 8.97988 7.62918 9.06217C7.09978 9.24798 6.60766 9.53147 6.05913 9.65981C5.93961 9.68753 5.82966 9.74398 5.71685 9.7966C5.62926 9.83908 5.42996 9.68439 5.46076 9.92496C5.47473 10.0433 5.56537 10.1485 5.60696 10.2639C5.61892 10.2998 5.59803 10.3517 5.58522 10.3944C5.5207 10.5873 5.54905 10.7728 5.6036 10.9654C5.72611 11.4003 5.84908 11.8319 5.95778 12.2683C6.00182 12.4388 6.08721 12.533 6.24212 12.6164C6.56433 12.7918 6.90463 12.9594 7.09845 13.2983C7.18821 13.4581 7.35378 13.6834 7.13627 13.8035C6.97397 13.8936 6.72975 13.986 6.52649 13.7143C6.15526 13.2102 5.63208 13.0614 5.0212 13.222C4.80932 13.2778 4.76656 13.3643 4.84446 13.5601C4.98877 13.9125 5.10737 14.2784 5.25882 14.6284C5.50248 15.1933 5.53526 15.8553 6.02931 16.3082C6.08654 16.3608 6.10724 16.5281 6.07018 16.5982C5.84351 17.0012 6.22204 17.2598 6.29154 17.588C6.34187 17.8347 6.58024 17.6388 6.73364 17.6604C6.807 17.6707 6.89789 17.6047 6.85441 17.5027C6.79564 17.3644 6.8278 17.184 6.75431 17.0778C6.36823 16.51 6.34542 15.8254 6.13359 15.2033C6.09773 15.0955 6.06853 14.9887 6.05409 14.8737C6.0276 14.6509 6.14756 14.5958 6.3361 14.5367C6.56701 14.4664 6.56393 14.6577 6.60168 14.7521C6.70635 15.0236 6.81294 15.3056 6.85761 15.5927C6.94359 16.1423 7.25524 16.6107 7.34027 17.167C7.36815 17.3558 7.47288 17.6753 7.71402 17.7742C8.19869 17.9793 8.50448 18.3441 8.75512 18.7868C8.87209 18.9949 8.83421 19.1677 8.73873 19.3631C8.68079 19.4851 8.61132 19.5438 8.48366 19.5327C8.27883 19.5142 8.21383 19.3475 8.14408 19.1905C7.89136 18.6174 7.50812 18.3924 6.87465 18.3992C6.58839 18.4035 6.52041 18.5001 6.65314 18.7413C6.72619 18.8748 6.79399 18.9973 6.56779 19.034C6.41779 19.0609 6.51031 19.1526 6.51897 19.2121C6.5257 19.2609 6.47867 19.3536 6.61533 19.3249C6.86723 19.2747 6.95082 19.4542 6.98395 19.654C7.0334 19.9554 7.16 20.2403 7.20373 20.534C7.27631 21.0339 7.84403 21.3739 7.63999 21.9546C7.6381 21.9681 7.66575 21.9891 7.67626 22.0111C7.80758 22.2624 7.91366 22.5238 7.94119 22.8119C7.9634 23.041 8.04227 23.2541 8.16065 23.4522C8.24324 23.5905 8.36854 23.6183 8.50992 23.556C8.65797 23.4947 8.66832 23.3968 8.60669 23.2546C8.54745 23.1196 8.51678 22.9749 8.4823 22.8331C8.2544 21.9383 7.87414 21.0871 7.70718 20.17C7.69421 20.0928 7.64413 20.0379 7.73215 19.968C8.00764 19.75 8.2659 19.8239 8.27207 20.1672C8.27528 20.4347 8.46649 20.5985 8.50824 20.8338C8.58739 21.2626 8.70798 21.687 8.82332 22.1004C8.93101 22.4956 9.02064 22.9225 9.27546 23.287C9.40001 23.4654 9.46642 23.622 9.70467 23.6931C10.1002 23.8069 10.3953 24.0778 10.5069 24.4941C10.5667 24.7216 10.3879 24.9293 10.2387 24.8296C10.0742 24.7174 9.87223 24.7028 9.71723 24.5474C9.48449 24.3161 9.17099 24.2481 8.8395 24.2597C8.60707 24.2682 8.53192 24.3432 8.6251 24.5754C8.821 25.0446 8.96931 25.538 9.2052 25.9888C9.36325 26.2918 9.37854 26.6911 9.76412 26.8754C9.90757 26.9435 9.9026 27.1483 9.81898 27.3077C9.75295 27.4388 9.76739 27.5538 9.82569 27.6955C10.065 28.2428 10.548 28.5811 10.9153 29.0162C10.9473 29.055 11.0135 29.0677 11.0664 29.0785C11.5656 29.1556 12.0787 29.1831 12.5788 29.1815C13.5214 29.1771 14.4668 29.1285 15.4059 29.0036C16.3969 28.8724 17.3913 28.7657 18.3818 28.6378C19.0852 28.5449 19.791 28.5072 20.4934 28.421C21.573 28.2885 22.6642 28.2193 23.7384 28.0279C24.8965 27.8209 26.0643 27.6906 27.2335 27.6221C27.6107 27.5998 27.9602 27.5085 28.2657 27.3426C28.7103 27.1072 28.3363 26.6951 28.3797 26.3622C28.3892 26.2951 28.3819 26.2256 28.3742 26.1595C28.306 25.7253 28.2864 25.2843 28.1872 24.8526C28.1321 24.6155 27.9992 24.6174 27.8459 24.6677C27.3456 24.8405 26.8476 25.0205 26.331 25.1396C25.9619 25.2247 25.6694 25.5157 25.3132 25.582C24.7999 25.6777 24.3129 25.8523 23.8086 25.98C23.213 26.1291 22.6068 26.2562 22.0116 26.402C21.226 26.5963 20.4384 26.7801 19.6465 26.9461C19.3308 27.0147 19.3246 26.9865 19.228 26.7058L19.2304 26.713ZM5.98607 18.9146C5.95562 18.9377 5.90707 18.9686 5.87426 19.0085C5.33309 19.6651 5.67752 20.7955 6.48805 21.0532C6.65102 21.1035 6.68814 21.0813 6.65838 20.9059C6.55179 20.261 6.30665 19.6581 6.11103 19.0417C6.09476 18.9881 6.07516 18.934 5.98607 18.9146ZM4.31951 11.7059C4.29847 12.0008 4.35783 12.2317 4.43101 12.4611C4.46354 12.5684 4.53501 12.5922 4.64119 12.5626C4.82451 12.5164 5.01355 12.478 5.20165 12.4462C5.35498 12.4198 5.39827 12.378 5.35183 12.2002C5.23021 11.7107 5.00621 11.2477 4.97601 10.7368C4.97453 10.6989 4.94206 10.6396 4.91586 10.6324C4.85725 10.6139 4.80968 10.662 4.78498 10.7168C4.62064 11.0635 4.45963 11.4106 4.31857 11.7126L4.31951 11.7059ZM4.00461 14.5514C3.98024 15.2088 4.21289 15.7311 4.88619 15.949C5.05868 16.0041 5.06044 15.8948 5.02172 15.7832C4.87014 15.3373 4.72523 14.8924 4.54509 14.4562C4.47437 14.2819 4.43964 13.9483 4.26107 13.9849C4.05822 14.0248 4.07247 14.359 4.00461 14.5514ZM8.85977 26.6319C8.61218 26.3369 8.54366 26.026 8.4104 25.7402C8.27713 25.4544 8.21909 25.1415 8.05678 24.8688C7.94938 24.6893 7.91845 24.7158 7.8153 24.8691C7.40173 25.4889 7.97371 26.5245 8.85977 26.6319Z" fill="black"/>
  <path d="M10.906 12.4846C10.9249 12.4133 10.9362 12.27 11.0736 12.2831C11.2492 12.2986 11.3826 12.4036 11.4293 12.5982C11.497 12.8758 11.5708 13.1512 11.6327 13.4279C11.6823 13.6444 11.7701 13.6938 11.9504 13.5496C12.0507 13.4682 12.1841 13.4253 12.2683 13.3324C12.3633 13.2255 12.3958 13.0791 12.3086 12.9405C12.1751 12.7307 12.1439 12.489 12.1122 12.2504C12.0863 12.0557 12.1772 11.9144 12.3476 11.8829C12.53 11.85 12.6571 11.9788 12.6573 12.1668C12.6587 12.3888 12.7453 12.5736 12.8186 12.7688C13.0056 13.2511 13.1 13.7605 13.2163 14.2606C13.2917 14.5886 13.4486 14.8849 13.5186 15.2091C13.5706 15.4506 13.4722 15.5816 13.2625 15.5768C13.2006 15.5742 13.1271 15.5701 13.1095 15.506C13.0011 15.1179 12.6852 14.8146 12.7065 14.3677C12.7123 14.2422 12.6064 14.1102 12.5441 13.9843C12.5301 13.9577 12.4828 13.9357 12.4475 13.9338C12.2391 13.9199 11.9197 14.3373 11.9668 14.5503C12.036 14.859 12.1987 15.1345 12.2276 15.456C12.2417 15.609 12.286 15.7785 12.0877 15.84C11.8808 15.9003 11.7728 15.7618 11.7144 15.5872C11.5547 15.1211 11.3922 14.6545 11.2541 14.1821C11.1243 13.7355 11.0344 13.2791 10.9137 12.8308C10.887 12.7253 10.9035 12.629 10.9052 12.4906L10.906 12.4846Z" fill="black"/>
  <path d="M10.7976 14.3807C10.6877 14.9427 10.4275 15.3785 10.0698 15.7107C9.87653 15.8897 9.87645 16.0697 9.94059 16.3112C10.0387 16.6699 10.1303 17.0353 10.1983 17.4085C10.2231 17.5507 10.2605 17.8034 10.0781 17.8453C9.91316 17.8821 9.733 17.868 9.67868 17.5567C9.51196 16.5697 9.29217 15.6014 9.15998 14.608C9.11649 14.2794 9.0486 13.9849 8.95168 13.6976C8.85595 13.4216 8.94156 13.2312 9.12008 13.0576C9.57076 12.6222 10.2194 12.7322 10.5131 13.2946C10.6806 13.6181 10.8606 13.9321 10.8003 14.3811L10.7976 14.3807ZM10.2063 14.56C10.2828 14.0159 10.1709 13.7152 9.87576 13.5425C9.66885 13.4197 9.50099 13.5573 9.5299 13.8501C9.56651 14.2077 9.64091 14.5556 9.70105 14.9052C9.72881 15.0666 9.82447 15.0838 9.91484 14.999C10.0537 14.8685 10.1724 14.7015 10.2036 14.5597L10.2063 14.56Z" fill="black"/>
  <path d="M15.7325 12.5881C15.6941 12.8014 15.7388 13.0205 15.6663 13.2379C15.5622 13.5603 15.3023 13.837 15.0295 13.846C14.7655 13.8532 14.4136 13.5289 14.3162 13.2462C14.2034 12.9141 14.019 12.6133 13.9836 12.2477C13.9616 12.0259 13.8304 11.8242 13.9898 11.5865C14.0467 11.5 13.927 11.356 13.943 11.2223C13.9849 10.8646 14.1781 10.6849 14.5077 10.749C15.5095 10.9489 15.7911 11.5737 15.7297 12.5877L15.7325 12.5881ZM15.1801 12.874C15.2759 12.4914 15.1814 12.1678 15.105 11.8556C15.057 11.6597 14.9169 11.5011 14.7176 11.4258C14.4995 11.3449 14.3967 11.4191 14.4092 11.6691C14.4336 12.0923 14.51 12.505 14.6743 12.8887C14.7399 13.0398 14.8137 13.2511 15.0068 13.231C15.2223 13.211 15.1263 12.9581 15.1801 12.874Z" fill="black"/>
  <path d="M20.7507 11.7232C20.6074 12.0576 20.5933 12.511 20.171 12.7151C19.7639 12.9149 19.3379 12.7932 19.1428 12.3559C18.9015 11.8113 18.8549 11.2095 18.8892 10.6126C18.9081 10.2705 19.2093 10.0981 19.4585 9.964C19.9886 9.67744 20.187 9.78014 20.5011 10.3252C20.7451 10.7466 20.7714 11.2024 20.7478 11.7228L20.7507 11.7232ZM20.1589 11.7018C20.1477 11.4498 20.158 11.2105 20.117 10.9836C20.0845 10.8001 20.0014 10.603 19.8239 10.5586C19.6832 10.5225 19.5913 10.6787 19.512 10.8075C19.3796 11.0231 19.5031 11.9284 19.6996 12.0861C19.7993 12.1652 19.8887 12.2135 19.9709 12.0852C20.0493 11.9629 20.1042 11.821 20.1618 11.7022L20.1589 11.7018Z" fill="black"/>
  <path d="M22.0723 8.82568C22.2625 8.83363 22.3278 9.04937 22.3831 9.19986C22.4417 9.35456 22.2395 9.405 22.1107 9.45074C21.4467 9.68416 21.3678 10.0824 21.9046 10.5635C22.2306 10.8571 22.5746 11.1308 22.9048 11.4213C23.518 11.9582 23.8265 13.1921 22.8142 13.8084C22.693 13.8815 22.5555 13.9072 22.4168 13.914C22.2091 13.9224 22.0912 13.8082 22.0245 13.6298C21.9523 13.4356 22.0546 13.3336 22.2095 13.2389C22.8326 12.8608 22.8811 12.4883 22.3403 11.9542C21.8932 11.5158 21.3512 11.1805 21.0117 10.6295C20.6721 10.0785 20.8657 9.24573 21.4287 8.94178C21.6108 8.84345 21.8099 8.81509 22.0686 8.82516L22.0723 8.82568Z" fill="black"/>
  <path d="M17.855 9.9365C17.9858 9.95487 18.0993 10.0465 18.1305 10.1896C18.1621 10.3297 18.0755 10.4594 17.9329 10.4772C17.6157 10.5209 17.6319 10.7218 17.672 10.923C17.8401 11.7696 18.033 12.6103 18.4135 13.4048C18.4608 13.5061 18.4703 13.6083 18.4761 13.7132C18.4828 13.8844 18.3538 13.9514 18.2139 13.998C18.0736 14.0476 17.9826 13.9655 17.901 13.8657C17.7434 13.6733 17.6829 13.4472 17.6258 13.2216C17.4642 12.5714 17.1302 11.9568 17.1454 11.2652C17.1477 11.1268 17.0021 10.996 16.9617 10.8452C16.9275 10.7238 16.8056 10.7886 16.707 10.8094C16.4598 10.8661 16.204 10.9595 15.9897 10.7086C15.8488 10.5438 15.8938 10.3451 16.0512 10.32C16.6306 10.2343 17.1543 9.961 17.7494 9.93426C17.7733 9.93446 17.7938 9.93421 17.8517 9.93603L17.855 9.9365Z" fill="black"/>
</svg>