<svg width="34" height="34" viewBox="0 0 34 34" fill="none" xmlns="http://www.w3.org/2000/svg">
<path d="M12.2568 27.3831C12.2839 27.0007 12.2607 26.5356 12.2762 26.1257C12.3149 25.5935 12.249 25.1008 11.7025 25.1324C11.1405 25.1521 10.6017 25.2743 10.0358 25.3176C9.53966 25.361 8.97375 25.3846 8.76445 25.0851C7.85745 22.8817 7.37294 20.5088 6.98146 18.1556C6.37292 14.4701 5.55507 10.7925 5.6791 7.04796C5.68686 6.48824 6.1171 6.1532 6.60936 6.01918C8.82646 5.33333 11.0281 4.62383 13.2917 4.07988C18.2414 2.75153 19.2763 3.75272 19.9314 8.53791C20.0244 9.05427 20.5515 9.20011 21.0089 9.15281C22.0787 9.09369 23.1214 9.02668 24.1757 9.33019C24.447 9.40114 24.7222 9.47997 24.9935 9.51544C25.3268 9.56669 25.6563 9.53121 25.9858 9.51939C27.2494 9.46026 28.5672 10.5403 28.4199 11.8962C28.3889 14.1627 28.0982 16.4213 27.7416 18.6601C27.1718 22.0657 26.7106 25.495 25.9083 28.8533C25.6602 29.8229 24.9819 30.5167 23.9741 30.4812C20.788 30.56 17.6251 30.6034 14.4467 30.6231C12.1715 30.832 12.2141 29.3302 12.249 27.4185V27.3791L12.2568 27.3831ZM9.69082 23.8395C9.79935 23.8986 9.93114 23.9065 10.0746 23.8907C12.9002 23.4296 15.7956 22.9605 18.6368 22.4796C19.3538 22.3417 20.1639 22.1919 20.0709 21.2459C19.8616 18.6759 19.5128 16.1256 19.2376 13.5635C19.0011 11.5572 18.7686 9.55486 18.5011 7.55249C18.3926 6.34634 17.9933 4.80909 16.5708 4.79332C16.1367 4.75784 15.6018 4.8485 15.1677 4.93128C12.7878 5.40428 10.4467 5.86545 8.14815 6.69715C7.40783 6.98095 6.58998 7.11102 6.69463 8.10038C7.06673 12.1012 7.95047 16.0429 8.48925 20.0279C8.54739 21.2813 8.7877 22.3771 9.39624 23.5005C9.46214 23.6266 9.54741 23.7488 9.65982 23.8198L9.69082 23.8395ZM22.3927 10.3944C21.5903 10.4023 20.2492 10.1501 20.3073 11.1197C20.3306 11.9435 20.4236 12.7082 21.4314 12.7003C22.2531 12.7594 23.0516 12.8186 23.8733 12.9211C24.7067 12.9605 25.3889 13.5517 25.4044 14.4347C25.2338 17.3357 24.8966 20.2131 24.6098 23.0985C24.5361 23.942 24.3501 24.951 23.4159 25.1836C23.0361 25.2979 22.6214 25.3097 22.2337 25.3097C20.6097 25.294 17.8267 25.6132 16.4235 25.1205C16.0476 24.9865 15.6987 24.6988 15.2879 24.6554C14.877 24.6278 14.4545 24.7264 14.0824 24.884C13.7956 25.022 13.7258 25.357 13.718 25.6605C13.6987 26.5435 13.6909 27.4264 13.6909 28.3133C13.6715 28.9676 13.9584 29.2514 14.6173 29.2238C17.5398 29.2238 20.4391 29.1174 23.3694 29.0898C24.0632 29.1016 24.5788 28.8651 24.7028 28.1123C25.4276 24.4386 25.9664 20.7571 26.6951 17.0795C26.916 15.692 27.5672 12.2746 26.8579 11.1276C26.6486 10.8596 26.3114 10.7965 25.9935 10.7571C24.7571 10.6073 23.602 10.4772 22.4469 10.3944H22.3965H22.3927Z" fill="#0A0A0A"/>
<path d="M9.75875 23.826C9.64504 23.7555 9.55878 23.6342 9.49212 23.509C9.11179 22.7305 8.80596 22.0615 8.68833 21.2399C8.26095 16.9636 7.21798 12.7422 6.77099 8.46593C6.62592 7.26483 7.26503 7.17484 8.2335 6.82664C10.5586 6.00504 12.9269 5.54338 15.3343 5.07389C15.7695 4.98782 16.3146 4.90175 16.7537 4.93696C18.1927 4.95652 18.5965 6.47844 18.7063 7.67563C18.9769 9.66312 19.2121 11.6506 19.4513 13.642C19.7101 15.8134 19.9493 17.9887 20.2002 20.164C20.3335 21.5098 20.5962 22.2219 18.9416 22.4723C16.0362 22.9613 13.0719 23.4269 10.1822 23.8925C10.0371 23.9081 9.90382 23.9003 9.79404 23.8416L9.76267 23.822L9.75875 23.826ZM8.03354 9.39316C8.35897 11.6976 8.93535 13.9785 9.42155 16.2555C9.53525 16.7211 9.8058 17.1553 10.2097 17.4214C10.6762 17.7578 11.2095 17.7657 11.7349 17.6366C13.1974 17.3314 14.6678 17.038 16.0832 16.5607C17.9025 16.0168 18.4397 14.714 18.1496 12.926C17.9457 11.2594 17.7496 9.62399 17.5104 7.97297C17.4399 7.43697 17.2791 6.85403 16.8321 6.52147C15.9734 5.9307 14.7893 6.1185 13.8052 6.19283C11.633 6.38845 8.61383 6.86185 8.03354 9.3423V9.38534V9.39316Z" fill="white"/>
<path d="M22.5963 10.3756C23.7557 10.4589 24.9152 10.5859 26.1563 10.7405C26.4754 10.7802 26.8177 10.8437 27.0239 11.1134C27.736 12.2597 27.0823 15.7144 26.8605 17.1026C26.1524 20.6962 25.6155 24.2818 24.9307 27.8714C24.8685 28.2086 24.7907 28.6171 24.5689 28.859C24.2382 29.22 23.6468 29.1764 23.1916 29.1922C20.2268 29.1803 17.2504 29.4143 14.2934 29.2755C13.8304 29.1724 13.807 28.7202 13.8226 28.3275C13.8693 27.4073 13.6475 25.7177 14.0055 25.0711C14.1027 24.9561 14.2584 24.9125 14.3984 24.8688C14.733 24.7895 15.1338 24.6626 15.4995 24.738C15.9664 24.8332 16.3555 25.2139 16.8224 25.3012C18.8845 25.559 20.966 25.4241 23.0437 25.3567C24.3315 25.2893 24.6934 24.3136 24.7673 23.1593C25.0747 20.4463 25.2809 17.7412 25.5571 15.0163C25.6972 14.0842 25.2731 13.049 24.2654 12.9538C23.3666 12.815 22.4795 12.7634 21.5769 12.696C21.2501 12.6682 20.9232 12.6206 20.752 12.3985C20.4953 12.0415 20.4641 11.5378 20.4486 11.1094C20.3863 10.1337 21.7364 10.3756 22.5418 10.3756H22.5924H22.5963Z" fill="white"/>
<path d="M7.83447 9.33833C8.42094 6.7865 11.4682 6.30426 13.6674 6.10333C14.662 6.02698 15.8587 5.83408 16.7266 6.4409C17.1783 6.7865 17.3408 7.38126 17.4121 7.93181C17.6538 9.62767 17.848 11.3075 18.058 13.0194C18.3512 14.8559 17.8083 16.1981 15.9697 16.7527C14.5392 17.2389 13.0572 17.5444 11.5752 17.8578C11.0402 17.9904 10.5013 17.9824 10.0337 17.6368C9.62557 17.3595 9.35215 16.9175 9.23723 16.4392C8.74587 14.0964 8.16337 11.7535 7.83447 9.39057V9.34636V9.33833Z" fill="#0A0A0A"/>
<path d="M12.5242 13.0151C11.6978 12.9168 10.9878 12.3068 10.775 11.5058C10.7478 11.4018 10.7297 11.2918 10.7376 11.1856C10.7507 11.0076 10.8425 10.8766 11.0323 10.8462C11.2135 10.8171 11.3574 10.8801 11.4331 11.0519C11.4838 11.1669 11.509 11.2944 11.5572 11.4106C11.9557 12.3654 13.1624 12.5666 13.8315 11.7778C14.0521 11.5171 14.2144 11.2053 14.4013 10.916C14.5286 10.7193 14.7029 10.6455 14.9129 10.7541C15.0977 10.8511 15.1642 11.0441 15.0781 11.2204C14.6726 12.0524 14.204 12.8236 13.1726 12.9964C12.9545 13.0332 12.7408 13.0423 12.523 13.0157L12.5242 13.0151Z" fill="#FEFEFE"/>
<path d="M12.2666 9.3453C12.2364 9.55881 12.0601 9.68035 11.8339 9.64285C11.6283 9.60728 11.4767 9.41266 11.5049 9.21966C11.5337 9.03089 11.7537 8.87579 11.9455 8.91068C12.1427 8.94741 12.2936 9.14987 12.2666 9.3453Z" fill="#F1F1F1"/>
<path d="M13.6863 8.85481C13.8792 8.90419 13.9816 9.0418 13.963 9.24512C13.9443 9.45749 13.7958 9.55927 13.593 9.55691C13.392 9.55517 13.2333 9.33395 13.2754 9.13861C13.3114 8.96436 13.5041 8.82722 13.6857 8.8536L13.6863 8.85481Z" fill="#EDEDED"/>
</svg>
