<svg width="90" height="90" viewBox="0 0 90 90" fill="none" xmlns="http://www.w3.org/2000/svg">
<path d="M39.4998 47.5L40.9998 47L57 41L58.5 46L60.5 46.5L61.5 45V41L63 39.5L64.5 45.5L66.5 45V39.5L68 39L69.5 44.5L73 43L70.5 32.5L67.5 31.5L39.4998 39C39.4998 36 38 34.5 33.5 34.5C29.9 34.5 28.3333 38.8333 28 41L23.9998 38C15.5998 38.4 17.8331 46.8333 19.9998 51L25.9998 55C27.4998 56 31.1998 57.7 33.9998 56.5C36.7998 55.3 38.8331 50 39.4998 47.5Z" fill="white"/>
<path d="M62.0985 40.8826C62.5285 42.4326 62.9385 43.8326 62.6685 45.3326C62.6085 45.6726 62.6085 46.0326 62.2885 46.2026C61.1885 46.8026 60.0085 47.2026 58.7385 47.1026C58.0185 47.0526 57.6585 46.5026 57.5185 45.8126C57.3085 44.7326 57.0685 43.6526 56.8985 42.5626C56.8085 42.0426 56.6085 42.0126 56.1585 42.1626C51.1485 43.8526 46.1285 45.5326 41.1085 47.1926C40.5085 47.3926 40.1986 47.7326 39.9686 48.3226C39.0886 50.6326 38.1386 52.9126 36.8086 55.0126C36.3186 55.7826 35.6686 56.4226 35.0886 57.1026C34.1686 58.1826 32.9385 58.2526 31.6685 58.0026C25.9085 56.8826 21.2085 53.9926 17.5785 49.3926C15.8785 47.2426 15.6785 44.7726 16.3785 42.1726C16.6785 41.0626 17.0785 40.0626 17.7685 39.1226C19.2585 37.0726 21.3185 36.8426 23.5085 37.1926C25.0785 37.4426 26.6785 37.8026 27.9085 39.1126C28.2685 38.3526 28.3985 37.6226 28.6485 36.9526C29.4785 34.7526 32.1386 32.8526 34.4686 32.9726C37.5486 33.1326 39.8985 34.9426 40.3885 37.6026C40.4885 38.1426 40.6585 38.2926 41.1785 38.1126C46.6385 36.2526 52.2086 34.7826 57.7486 33.1626C61.4786 32.0726 65.2585 31.1626 69.1685 31.0026C69.8485 30.9726 70.3085 31.2026 70.6685 31.7726C71.2985 32.7726 71.4085 33.9126 71.6985 35.0126C72.3285 37.4426 73.0086 39.8626 73.5286 42.3126C73.8686 43.9426 73.4885 44.3226 71.8885 44.6526C71.3685 44.7626 70.8785 45.0026 70.3585 45.1426C69.5385 45.3526 68.8986 45.2026 68.6886 44.2326C68.4486 43.1226 68.1585 42.0226 67.9085 40.9226C67.8285 40.5826 67.8186 40.2126 67.3386 40.2726C66.8286 40.3426 67.0886 40.7426 67.0886 40.9926C67.0886 41.9926 67.4985 42.9426 67.4485 43.9726C67.3685 45.5426 66.9485 46.0726 65.4185 46.2826C64.4685 46.4126 63.6486 45.7026 63.3086 44.4226C63.0786 43.5426 62.8885 42.6626 62.6685 41.7826C62.5885 41.4726 62.6285 41.0926 62.0985 40.8726V40.8826ZM19.0385 43.6826C19.0385 47.4826 21.0286 49.9226 23.4686 52.0626C25.9886 54.2726 29.2785 54.8626 32.3285 55.9626C33.5485 56.4026 34.1286 55.8526 34.8386 55.0226C36.7986 52.7026 37.8586 49.9126 38.9386 47.1526C39.2386 46.4026 39.6486 46.0226 40.3686 45.7826C43.2886 44.8226 46.2085 43.8326 49.1285 42.8426C51.5685 42.0126 54.0085 41.1526 56.4585 40.3526C57.5085 40.0026 58.0585 40.3326 58.2885 41.3826C58.5185 42.4326 58.6985 43.4826 58.9285 44.5326C59.0185 44.9626 59.0385 45.6026 59.7685 45.2826C60.3585 45.0226 61.5185 45.3826 61.2585 44.0826C61.0785 43.1326 60.8185 42.1826 60.6785 41.2226C60.5085 40.0526 61.0285 39.3126 62.1485 39.1026C63.1485 38.9226 63.5585 39.6526 63.9085 40.4126C64.3885 41.4626 64.5685 42.5926 64.8885 43.6826C64.9885 44.0226 64.8885 44.6426 65.4785 44.5226C65.9785 44.4226 65.7586 43.9226 65.7186 43.5826C65.6386 42.8126 65.5485 42.0526 65.4485 41.2826C65.1085 38.6826 64.9385 38.4026 68.0685 38.5626C68.7685 38.6026 69.1985 38.9026 69.3485 39.6026C69.5585 40.5926 69.8586 41.5626 69.9686 42.5526C70.0886 43.6226 70.7185 43.1626 71.2585 43.1126C72.0185 43.0526 71.9886 42.6526 71.8086 42.0626C71.4886 41.0426 71.2285 39.9926 70.9585 38.9526C70.4685 37.1026 69.9985 35.2626 69.5185 33.4126C69.4085 32.9926 69.2785 32.7126 68.7085 32.7526C66.2585 32.9426 63.8485 33.2826 61.4785 33.9626C57.9085 34.9926 54.3685 36.1426 50.7685 37.0826C48.3185 37.7226 45.8985 38.4826 43.5385 39.3726C42.2285 39.8726 40.9086 40.0926 39.5586 40.2926C38.8486 40.4026 38.6286 40.0926 38.7786 39.4626C38.9486 38.7126 38.8985 37.9626 38.6285 37.2826C38.0485 35.8126 36.0086 34.5026 34.4386 34.6126C32.4386 34.7626 30.2885 35.9926 29.9485 37.6226C29.7585 38.5426 29.4485 39.4226 29.4085 40.3726C29.3885 40.8926 29.3585 41.4826 28.6985 41.6426C28.0385 41.8026 27.5786 41.4526 27.3086 40.8926C27.1186 40.5026 26.8485 40.2526 26.5185 40.0126C25.3285 39.1226 23.9085 39.0826 22.5185 38.8626C21.4385 38.6926 20.7285 39.1526 20.1385 39.9926C19.2985 41.1926 18.9185 42.5026 19.0685 43.6826H19.0385Z" fill="black"/>
<path d="M37.6185 42.3926C37.2485 46.1226 36.5085 49.7426 34.1485 52.8026C33.1785 54.0626 32.6785 54.1426 31.1985 53.6226C29.4685 53.0126 27.5785 52.8426 25.9885 51.8726C24.1985 50.7826 22.5385 49.6326 21.5585 47.5626C20.8885 46.1426 20.5285 44.8326 20.7885 43.3526C21.0985 41.5126 22.5185 40.6826 24.2885 41.2826C25.0785 41.5526 25.8085 41.9526 26.3885 42.6126C26.7585 43.0326 26.7585 43.3726 26.4485 43.7526C26.0985 44.1826 25.7985 43.8826 25.4985 43.6626C25.0385 43.3326 24.5785 42.9926 24.0385 42.7826C23.0385 42.4026 22.5385 42.6626 22.2985 43.7426C21.8685 45.7626 22.8585 47.2626 24.2185 48.5326C25.8585 50.0726 27.7785 51.1326 30.0485 51.4626C30.6085 51.5426 31.1585 51.7526 31.6685 51.9926C32.2585 52.2626 32.6385 52.0626 32.9485 51.5826C34.8885 48.6126 35.8585 45.3526 35.8585 41.8126C35.8585 41.2126 35.7285 40.6026 35.4485 40.0626C35.0885 39.3626 34.4885 39.0426 33.7085 39.0926C33.0185 39.1326 32.5085 39.4426 32.2685 40.1426C32.1285 40.5526 31.9785 40.9626 31.7785 41.3526C31.6085 41.7026 31.3185 41.9326 30.8885 41.8126C30.4785 41.6926 30.4385 41.3726 30.4285 41.0226C30.3985 39.4726 31.7985 37.6826 33.2685 37.4226C35.0985 37.0926 36.6985 38.0726 37.2485 39.8626C37.4985 40.6726 37.5485 41.5126 37.6185 42.3626V42.3926Z" fill="black"/>
<path d="M40.8584 43.3326C40.1984 43.3726 39.7684 43.2526 39.6384 42.8326C39.5084 42.4126 39.8984 42.2026 40.2484 42.0726C41.6884 41.5426 43.1184 40.9726 44.5884 40.5126C47.9684 39.4526 51.3584 38.4726 54.7384 37.4126C57.3884 36.5826 60.0484 35.8326 62.7784 35.3126C63.6684 35.1426 64.5584 34.7426 65.4484 34.4526C65.7984 34.3326 66.1584 34.2426 66.5284 34.2026C67.0084 34.1526 67.4084 34.3426 67.5684 34.8126C67.7484 35.3526 67.3584 35.6226 66.9384 35.7826C65.3684 36.3826 63.7084 36.7026 62.0784 37.0626C58.0784 37.9426 54.1984 39.1926 50.2884 40.3726C47.5084 41.2126 44.7184 42.0126 41.9384 42.8926C41.5084 43.0326 41.1084 43.3226 40.8484 43.3226L40.8584 43.3326Z" fill="black"/>
<path d="M29.5885 48.0726C28.4985 48.0726 27.4385 47.1626 27.4385 46.2326C27.4385 45.1726 28.4784 44.2126 29.6584 44.1926C30.7384 44.1726 31.6085 45.0026 31.6185 46.0526C31.6285 47.1526 30.6985 48.0826 29.5785 48.0726H29.5885Z" fill="black"/>
</svg>
