<svg width="90" height="90" viewBox="0 0 90 90" fill="none" xmlns="http://www.w3.org/2000/svg">
<path d="M75.4402 55.2449C74.7902 54.6349 74.1102 54.0549 73.4902 53.4349C72.8602 52.7949 72.3702 52.0849 72.2002 51.1549C71.4102 46.8549 70.0302 42.6849 68.8202 38.4949C67.9202 35.3649 67.3902 32.0949 65.9202 29.1549C64.7302 26.7849 63.4802 26.3949 61.0302 27.3949C57.2402 28.9349 53.4602 30.4849 49.6602 32.0149C46.6202 33.2349 46.2102 32.9749 45.9602 29.6549C45.9102 29.0449 45.9202 28.4349 45.9202 27.8249C45.9202 24.9349 45.8102 22.0349 46.3402 19.1949C46.8302 16.5049 45.5502 14.7149 43.7602 13.1049C42.0702 11.5949 40.0302 10.8749 37.7902 11.0349C32.6302 11.4149 28.0402 13.3849 23.9202 16.4449C22.5202 17.4849 21.4102 18.7949 20.4802 20.2549C18.9102 22.6849 18.7402 26.7049 20.2602 28.4349C22.3802 30.8549 24.4902 33.3049 26.8702 35.4449C27.6902 36.1849 28.2702 37.8549 29.9602 37.3249C29.9802 37.5949 30.0002 37.8649 30.0302 38.1349C29.9502 39.2249 30.1302 40.4149 28.8702 41.0249C24.8402 42.9749 20.8202 44.9549 16.7602 46.8549C14.3902 47.9749 13.3502 50.5049 14.4102 52.9049C17.1202 58.9949 20.6202 64.7349 22.3202 71.2749C22.6602 72.5549 23.0902 73.7749 23.0902 75.1349C23.1102 78.8549 23.7402 79.2649 27.1902 77.9749C30.4502 76.7449 33.4602 74.9449 36.7902 73.8649C37.6202 73.5949 37.8302 72.8749 38.0002 72.0549C38.6402 69.0649 42.3302 67.5949 44.7902 69.3149C45.8402 70.0449 46.9202 70.3449 48.0402 69.6349C49.9402 68.4349 52.0302 67.7349 54.1602 67.1549C55.9302 66.6849 57.0002 65.6849 57.5602 63.9049C58.3102 61.5449 60.1502 60.8949 62.2602 62.1849C63.3602 62.8649 64.4202 62.9349 65.5602 62.4449C68.6602 61.1249 71.7602 59.7949 74.8502 58.4549C77.1202 57.4649 77.2102 56.9049 75.4402 55.2449ZM31.9802 31.9049C30.2202 30.1949 28.6702 28.3449 27.7102 26.0449C26.9102 24.1349 27.2702 22.4949 28.7002 21.0349C30.8202 18.8749 33.5302 17.9049 36.3902 17.4549C38.6302 17.0949 40.0602 18.6849 40.0102 21.5549C39.8002 22.7449 39.4602 24.3749 39.2202 26.0049C38.7702 29.0249 38.7402 31.9849 40.6402 34.6149C41.1102 35.2749 40.8402 35.5949 40.2102 35.8549C39.0402 36.3449 37.8902 36.8749 36.7102 37.3549C36.3302 37.5049 35.8402 37.8149 35.6902 37.0849C35.2202 34.8049 33.5302 33.4149 31.9802 31.9049Z" fill="#FEFEFE"/>
<path d="M75.4402 55.2449C74.7902 54.6349 74.1102 54.0549 73.4902 53.4349C72.8602 52.7949 72.3702 52.0849 72.2002 51.1549C71.4102 46.8549 70.0302 42.6849 68.8202 38.4949C67.9202 35.3649 67.3902 32.0949 65.9202 29.1549C64.7302 26.7849 63.4802 26.3949 61.0302 27.3949C57.2402 28.9349 53.4602 30.4849 49.6602 32.0149C46.6202 33.2349 46.2102 32.9749 45.9602 29.6549C45.9102 29.0449 45.9202 28.4349 45.9202 27.8249C45.9202 24.9349 45.8102 22.0349 46.3402 19.1949C46.8302 16.5049 45.5502 14.7149 43.7602 13.1049C42.0702 11.5949 40.0302 10.8749 37.7902 11.0349C32.6302 11.4149 28.0402 13.3849 23.9202 16.4449C22.5202 17.4849 21.4102 18.7949 20.4802 20.2549C18.9102 22.6849 18.7402 26.7049 20.2602 28.4349C22.3802 30.8549 24.4902 33.3049 26.8702 35.4449C27.6902 36.1849 28.2702 37.8549 29.9602 37.3249C30.1602 36.5549 29.6502 36.0949 29.2202 35.5949C28.1102 34.2849 27.0202 32.9649 25.9202 31.6449C26.0502 31.5349 26.1802 31.4249 26.3102 31.3049C28.1002 33.2549 29.9002 35.2049 31.7902 37.2449C31.0402 37.3849 30.4402 37.6049 30.0302 38.1349C29.9502 39.2249 30.1302 40.4149 28.8702 41.0249C24.8402 42.9749 20.8202 44.9549 16.7602 46.8549C14.3902 47.9749 13.3502 50.5049 14.4102 52.9049C17.1202 58.9949 20.6202 64.7349 22.3202 71.2749C22.6602 72.5549 23.0902 73.7749 23.0902 75.1349C23.1102 78.8549 23.7402 79.2649 27.1902 77.9749C30.4502 76.7449 33.4602 74.9449 36.7902 73.8649C37.6202 73.5949 37.8302 72.8749 38.0002 72.0549C38.6402 69.0649 42.3302 67.5949 44.7902 69.3149C45.8402 70.0449 46.9202 70.3449 48.0402 69.6349C49.9402 68.4349 52.0302 67.7349 54.1602 67.1549C55.9302 66.6849 57.0002 65.6849 57.5602 63.9049C58.3102 61.5449 60.1502 60.8949 62.2602 62.1849C63.3602 62.8649 64.4202 62.9349 65.5602 62.4449C68.6602 61.1249 71.7602 59.7949 74.8502 58.4549C77.1202 57.4649 77.2102 56.9049 75.4402 55.2449ZM24.6902 20.6249C22.4802 23.2949 22.3902 26.3649 24.3802 29.4749C22.0702 28.6849 20.2802 24.5049 21.5802 22.1749C23.1002 19.4549 25.3002 17.5349 27.9402 16.0549C30.5202 14.6149 33.3402 13.7649 36.2002 13.1449C39.9302 12.3449 43.7402 14.8149 44.0902 18.3649C42.2502 15.4149 39.5802 14.1849 36.2102 14.4149C34.7702 14.5149 33.3702 14.8449 32.0102 15.3549C29.0902 16.4449 26.6202 18.2849 24.6902 20.6249ZM27.7102 26.0449C26.9102 24.1349 27.2702 22.4949 28.7002 21.0349C30.8202 18.8749 33.5302 17.9049 36.3902 17.4549C38.6302 17.0949 40.0602 18.6849 40.0102 21.5549C39.8002 22.7449 39.4602 24.3749 39.2202 26.0049C38.7702 29.0249 38.7402 31.9849 40.6402 34.6149C41.1102 35.2749 40.8402 35.5949 40.2102 35.8549C39.0402 36.3449 37.8902 36.8749 36.7102 37.3549C36.3302 37.5049 35.8402 37.8149 35.6902 37.0849C35.2202 34.8049 33.5302 33.4149 31.9802 31.9049C30.2202 30.1949 28.6702 28.3449 27.7102 26.0449ZM71.6702 57.6849C69.5002 58.5249 67.3702 59.4449 65.2402 60.3749C64.5202 60.6949 63.9402 60.7349 63.2202 60.2949C60.6102 58.6749 57.0702 59.6449 55.8802 62.5649C55.0302 64.6449 53.5302 65.4849 51.6302 66.0849C50.2102 66.5249 48.7302 66.8449 47.4302 67.6149C46.8902 67.9449 46.4402 67.7649 45.9102 67.4849C41.9402 65.3949 37.7702 66.8849 36.1202 71.0549C35.7702 71.9449 35.2902 72.3849 34.4502 72.6549C31.7502 73.5249 29.3302 75.0249 26.7202 76.0849C25.1002 76.7549 24.5902 76.4549 24.9302 74.7449C25.1902 73.4149 24.2502 71.9549 25.4302 70.7249C25.7302 70.4149 25.3502 70.0149 25.1402 69.6849C21.6502 64.2349 19.5002 58.1749 17.3802 52.1249C16.5102 49.6849 17.1202 48.6349 19.4602 47.4449C22.5802 45.8749 25.7002 44.3349 28.8102 42.7649C29.6802 42.3249 30.0502 42.3949 30.1002 43.5149C30.3602 49.6649 31.7202 55.7049 32.0002 61.8649C32.0302 62.5149 32.1302 63.1349 32.9902 63.0749C33.8202 63.0249 33.7102 62.4249 33.6602 61.8449C33.4802 59.4749 33.3102 57.0949 33.1402 54.7149C32.4402 50.1249 31.8402 45.535 31.9902 40.8649C32.0102 40.3249 31.9702 39.7649 31.8802 39.2249C31.8202 38.9349 31.4202 38.5849 31.8302 38.3949C32.2302 38.2149 32.5602 38.5249 32.6502 38.9749C32.7302 39.3549 32.8102 39.7349 32.8302 40.1249C33.0902 44.9749 33.3302 49.8349 33.5802 54.6949C33.8602 57.1649 34.1002 59.6549 34.4102 62.1249C34.6202 63.7549 36.7302 64.7649 38.1002 63.9149C38.6802 63.5649 38.5002 62.9649 38.4602 62.4149C38.0802 57.0449 37.0602 51.7549 36.4702 46.4149C36.2702 44.5949 36.1002 42.7749 35.8902 40.9649C35.7702 40.0049 36.0902 39.4049 37.0302 39.0549C38.6402 38.4449 40.2302 37.1649 41.7702 37.2449C43.4502 37.3249 44.1902 39.4949 45.2102 40.8049C48.7102 45.3149 51.8602 50.0949 55.8702 54.1849C56.4502 54.7749 56.9102 56.2249 58.0002 55.4349C59.2702 54.5149 57.9802 53.5849 57.4002 52.9849C52.8302 48.1949 49.3802 42.5049 44.9302 37.6249C41.7202 34.1049 40.0902 30.1249 41.4402 25.2649C41.5102 25.3649 41.6002 25.4249 41.6002 25.4949C41.6602 30.7049 43.9602 34.8149 47.3102 38.7249C51.0602 43.0849 54.5302 47.7049 58.4602 51.9349C58.6502 52.1349 58.8202 52.3649 59.0202 52.5449C59.5702 53.0449 60.1502 53.5849 60.8802 52.9049C61.6202 52.2149 61.3802 51.4449 60.7702 50.8549C58.6802 48.8449 56.9602 46.5249 55.1202 44.3149C52.8402 41.5949 50.6802 38.7849 48.6102 35.8949C47.9302 34.9349 48.0902 34.4749 49.1502 34.0749C53.2402 32.5349 57.3302 30.9849 61.4102 29.3949C62.6302 28.9149 63.3502 29.2349 63.8902 30.4549C65.5202 34.1649 65.9102 38.1549 66.5802 42.0749C67.0702 44.9149 67.6202 47.7349 68.3602 50.5149C68.9502 52.7649 70.0602 54.7349 71.9302 56.1849C72.8702 56.9049 72.7302 57.2649 71.6702 57.6849Z" fill="#080808"/>
<path d="M29.9702 37.3249C30.1702 36.5549 29.6502 36.0949 29.2302 35.5949C28.1202 34.2849 27.0302 32.9649 25.9302 31.6449C26.0602 31.5349 26.1902 31.4149 26.3202 31.3049C28.1202 33.2549 29.9202 35.2049 31.8002 37.2449C31.0502 37.3849 30.4502 37.5949 30.0402 38.1349C30.0202 37.8649 30.0002 37.5949 29.9802 37.3249H29.9702Z" fill="#EAEAEA"/>
<path d="M71.9299 56.1849C70.0599 54.7349 68.9499 52.7649 68.3599 50.5149C67.6199 47.7349 67.0699 44.9149 66.5799 42.0749C65.9099 38.1549 65.5199 34.1649 63.8899 30.4549C63.3499 29.2349 62.6299 28.9149 61.4099 29.3949C57.3299 30.9849 53.2399 32.5349 49.1499 34.0749C48.0899 34.4749 47.9299 34.9349 48.6099 35.8949C50.6799 38.7849 52.8399 41.5949 55.1199 44.3149C56.9599 46.5249 58.6799 48.8449 60.7699 50.8549C61.3799 51.4449 61.6199 52.2149 60.8799 52.9049C60.1499 53.5849 59.5699 53.0449 59.0199 52.5449C58.8199 52.3649 58.6499 52.1349 58.4599 51.9349C54.5299 47.7049 51.0599 43.0849 47.3099 38.7249C43.9599 34.8149 41.6599 30.7049 41.5999 25.4949C41.5999 25.4249 41.5099 25.3649 41.4399 25.2649C40.0899 30.1249 41.7199 34.1049 44.9299 37.6249C49.3799 42.5049 52.8299 48.1949 57.3999 52.9849C57.9799 53.5849 59.2699 54.5149 57.9999 55.4349C56.9099 56.2249 56.4499 54.7749 55.8699 54.1849C51.8599 50.0949 48.7099 45.3149 45.2099 40.8049C44.1899 39.4949 43.4499 37.3249 41.7699 37.2449C40.2299 37.1649 38.6399 38.4449 37.0299 39.0549C36.0899 39.4049 35.7699 40.0049 35.8899 40.9649C36.0999 42.7749 36.2699 44.5949 36.4699 46.4149C37.0599 51.7549 38.0799 57.0449 38.4599 62.4149C38.4999 62.9649 38.6799 63.5649 38.0999 63.9149C36.7299 64.7649 34.6199 63.7549 34.4099 62.1249C34.0999 59.6549 33.8599 57.1649 33.5799 54.6949C33.4399 54.7049 33.2899 54.7049 33.1399 54.7149C33.3099 57.0949 33.4799 59.4749 33.6599 61.8449C33.7099 62.4249 33.8199 63.0249 32.9899 63.0749C32.1299 63.1349 32.0299 62.5149 31.9999 61.8649C31.7199 55.7049 30.3599 49.6649 30.0999 43.5149C30.0499 42.3949 29.6799 42.3249 28.8099 42.7649C25.6999 44.3349 22.5799 45.8749 19.4599 47.4449C17.1199 48.6349 16.5099 49.6849 17.3799 52.1249C19.4999 58.1749 21.6499 64.2349 25.1399 69.6849C25.3499 70.0149 25.7299 70.4149 25.4299 70.7249C24.2499 71.9549 25.1899 73.4149 24.9299 74.7449C24.5899 76.4549 25.0999 76.7549 26.7199 76.0849C29.3299 75.0249 31.7499 73.5249 34.4499 72.6549C35.2899 72.3849 35.7699 71.9449 36.1199 71.0549C37.7699 66.8849 41.9399 65.3949 45.9099 67.4849C46.4399 67.7649 46.8899 67.9449 47.4299 67.6149C48.7299 66.8449 50.2099 66.5249 51.6299 66.0849C53.5299 65.4849 55.0299 64.6449 55.8799 62.5649C57.0699 59.6449 60.6099 58.6749 63.2199 60.2949C63.9399 60.7349 64.5199 60.6949 65.2399 60.3749C67.3699 59.4449 69.4999 58.5249 71.6699 57.6849C72.7299 57.2649 72.8699 56.9049 71.9299 56.1849ZM59.3299 34.4249C56.8499 35.5049 54.3699 36.5849 51.8799 37.6349C51.4799 37.8049 50.9799 37.8549 50.7199 37.3449C50.5599 37.0449 50.7399 36.7749 50.9899 36.6549C53.6099 35.3549 56.2499 34.1149 58.8099 33.3049C59.3899 33.2849 59.7799 33.1749 59.9199 33.5849C60.0799 34.0649 59.7099 34.2649 59.3299 34.4249ZM20.3099 50.8249C20.0999 50.7049 19.8399 50.6249 19.7799 50.4749C19.7099 50.3149 19.7699 49.9749 19.8999 49.8949C21.9099 48.4849 24.0999 47.4549 26.4299 46.7149C26.6499 46.6449 26.8999 46.7049 26.9399 46.9749C26.9699 47.1749 26.9499 47.5349 26.8299 47.5849C24.6799 48.6849 22.5099 49.7449 20.3099 50.8249ZM33.6999 66.4849C32.0999 68.0949 30.0499 68.8949 27.9599 69.6249C27.5699 69.7549 27.1699 69.7149 26.9899 69.2549C26.7999 68.7449 26.9999 68.3449 27.4699 68.1849C29.5299 67.4749 31.3599 66.4149 32.9999 64.9549C33.7899 64.2449 33.9399 65.1449 34.2899 65.6349C34.0699 65.9549 33.9299 66.2549 33.6999 66.4849ZM63.0399 52.8249C64.1299 52.4249 65.2299 52.0849 66.3399 51.7749C66.7599 51.6549 67.1099 51.9049 67.2499 52.3049C67.3999 52.7349 67.4399 53.2249 66.9099 53.4349C65.7899 53.8849 64.6499 54.2849 63.5499 54.6949C62.9699 54.7149 62.7399 54.3549 62.5899 53.9249C62.4299 53.4349 62.5699 52.9949 63.0399 52.8249ZM67.2899 55.7849C65.3599 56.4149 63.4399 57.0549 61.4999 57.6549C61.1699 57.7549 60.6699 57.8949 60.5099 57.4149C60.3599 56.9949 60.8399 56.8649 61.0999 56.7749C63.0799 56.1249 65.0699 55.5249 67.0499 54.8949C67.4599 54.7649 67.8099 54.7549 67.9999 55.2149C67.9499 55.6449 67.5899 55.6849 67.2899 55.7849Z" fill="#FAFAFA"/>
<path d="M44.1 18.3648C42.26 15.4048 39.59 14.1848 36.22 14.4148C34.78 14.5148 33.38 14.8448 32.02 15.3548C29.1 16.4448 26.63 18.2848 24.69 20.6248C22.49 23.2948 22.39 26.3648 24.38 29.4748C22.07 28.6848 20.28 24.5048 21.58 22.1748C23.1 19.4548 25.3 17.5348 27.94 16.0548C30.52 14.6148 33.33 13.7648 36.2 13.1448C39.93 12.3448 43.74 14.8148 44.09 18.3648H44.1Z" fill="#EAEAEA"/>
<path d="M33.5902 54.6949C33.4402 54.6949 33.2902 54.7149 33.1402 54.7249C32.4402 50.1349 31.8402 45.5349 32.0002 40.8749C32.0202 40.3249 31.9802 39.7649 31.8802 39.2349C31.8302 38.9449 31.4302 38.5949 31.8402 38.4049C32.2402 38.2249 32.5702 38.5349 32.6602 38.9849C32.7402 39.3649 32.8202 39.7449 32.8402 40.1349C33.1002 44.9949 33.3502 49.8449 33.6002 54.7049L33.5902 54.6949Z" fill="#EAEAEA"/>
<path d="M58.81 33.3049C59.4 33.2849 59.79 33.1749 59.92 33.5849C60.08 34.0749 59.71 34.2749 59.34 34.4349C56.86 35.5049 54.38 36.5949 51.89 37.6349C51.49 37.8049 50.99 37.8649 50.73 37.3449C50.57 37.0449 50.75 36.7749 51 36.6549C53.62 35.3649 56.26 34.1149 58.82 33.3049H58.81Z" fill="#131313"/>
<path d="M34.2902 65.6349C34.0702 65.9549 33.9302 66.2549 33.7002 66.4849C32.1002 68.0949 30.0402 68.9049 27.9502 69.6249C27.5602 69.7549 27.1702 69.7249 26.9902 69.2549C26.8002 68.7549 26.9902 68.3449 27.4702 68.1849C29.5302 67.4749 31.3602 66.4149 32.9902 64.9549C33.7802 64.2449 33.9402 65.1449 34.2802 65.6349H34.2902Z" fill="#131313"/>
<path d="M20.3101 50.8249C20.1101 50.7049 19.8401 50.6249 19.7801 50.4749C19.7101 50.3149 19.7801 49.9849 19.9101 49.8949C21.9101 48.4849 24.1101 47.4549 26.4401 46.7249C26.6601 46.6549 26.9101 46.7149 26.9501 46.9749C26.9801 47.1749 26.9501 47.5349 26.8401 47.5949C24.6901 48.6849 22.5201 49.7449 20.3101 50.8349V50.8249Z" fill="#131313"/>
<path d="M63.56 54.6948C62.98 54.7148 62.75 54.3548 62.6 53.9148C62.43 53.4248 62.58 52.9848 63.05 52.8148C64.13 52.4248 65.24 52.0848 66.35 51.7648C66.77 51.6448 67.12 51.9048 67.26 52.2948C67.41 52.7248 67.45 53.2148 66.92 53.4248C65.8 53.8748 64.66 54.2748 63.56 54.6848V54.6948Z" fill="#131313"/>
<path d="M68.0101 55.2148C67.9601 55.6448 67.6001 55.6848 67.2901 55.7848C65.3601 56.4148 63.4401 57.0548 61.5001 57.6548C61.1701 57.7548 60.6701 57.9048 60.5001 57.4148C60.3601 56.9948 60.8301 56.8648 61.0901 56.7848C63.0701 56.1348 65.0601 55.5248 67.0401 54.8948C67.4501 54.7648 67.8001 54.7548 67.9901 55.2248L68.0101 55.2148Z" fill="#131313"/>
</svg>
