<svg width="90" height="90" viewBox="0 0 90 90" fill="none" xmlns="http://www.w3.org/2000/svg">
<path d="M37.2899 69.5049C50.5599 69.3249 63.7699 68.2649 76.9399 66.7249C78.2699 66.5649 78.7499 65.9649 78.9699 64.7949C80.0699 59.0849 80.3299 53.3649 79.4299 47.5949C79.0599 45.1849 78.8899 42.7449 78.6299 40.3249C78.0798 35.1449 77.5199 29.9649 76.0199 24.9449C74.9899 21.4449 72.8999 19.9349 69.2899 20.0149C67.1799 20.0649 65.0799 20.2649 62.9699 20.2649C54.3599 20.2649 45.7899 20.7749 37.2199 21.5749C33.9499 21.8849 30.8199 22.8649 27.5899 23.3449C22.5499 24.0949 17.5899 25.2649 12.6299 26.4349C11.4499 26.7149 10.6899 27.4349 10.6099 28.7449C10.5299 30.0749 10.3699 31.3949 10.2699 32.7149C9.46985 43.1849 10.5499 53.5549 12.1399 63.8749C12.8699 68.5749 13.9199 69.2249 18.6599 69.6949C24.8799 70.3149 31.0799 69.6049 37.2799 69.4949L37.2899 69.5049Z" fill="#FEFEFE"/>
<path d="M37.2902 69.5049C31.0902 69.6149 24.8902 70.3249 18.6702 69.7049C13.9302 69.2349 12.8702 68.5849 12.1502 63.8849C10.5502 53.5649 9.47022 43.1949 10.2702 32.7249C10.3702 31.3949 10.5302 30.0749 10.6102 28.7549C10.6902 27.4449 11.4602 26.7149 12.6302 26.4449C17.5902 25.2849 22.5502 24.1149 27.5902 23.3549C30.8202 22.8749 33.9502 21.8949 37.2202 21.5849C45.7902 20.7849 54.3602 20.2749 62.9702 20.2749C65.0802 20.2749 67.1802 20.0749 69.2902 20.0249C72.9002 19.9349 74.9902 21.4449 76.0302 24.9449C77.5202 29.9649 78.0802 35.1449 78.6402 40.3249C78.9002 42.7449 79.0602 45.1849 79.4402 47.5949C80.3302 53.3649 80.0802 59.0849 78.9802 64.7949C78.7502 65.9649 78.2802 66.5649 76.9502 66.7249C63.7802 68.2649 50.5702 69.3149 37.3002 69.5049H37.2902ZM75.8202 64.6749C75.1802 63.6849 74.7802 62.8849 74.2202 62.2249C69.0902 56.1849 64.7502 49.5249 59.5202 43.5649C59.2502 43.2549 59.1302 42.6449 58.5802 42.8049C58.0002 42.9649 57.7402 43.4649 57.6902 44.0749C57.5702 45.4649 56.8802 46.6049 56.0002 47.6149C54.0802 49.8349 52.1002 52.0149 50.1402 54.1949C49.5402 54.8649 48.9102 55.1649 47.9502 54.6849C45.2302 53.3149 42.5802 51.8449 40.2902 49.7849C39.1002 48.7149 37.8202 47.7249 36.4602 46.8749C33.8502 45.2349 33.4702 45.3449 31.4502 47.6549C27.7702 51.8549 24.4602 56.3549 20.9802 60.7149C19.6002 62.4449 18.1602 64.1349 16.7802 65.8649C15.6202 67.3249 15.6802 67.4349 17.4502 67.7149C18.8802 67.9449 20.3202 67.9949 21.7602 67.9649C28.3502 67.7949 34.9502 67.5449 41.5402 67.4149C52.9202 67.1949 64.2202 66.1049 75.8202 64.6749ZM13.9702 28.0249C15.3102 29.1649 16.6002 30.1949 17.8202 31.2949C23.0602 36.0049 28.4302 40.5349 34.6902 43.8949C36.3602 44.7949 36.3502 44.8149 36.4602 43.0049C36.5902 40.8949 37.4502 39.7649 39.4502 39.0749C41.3602 38.4149 43.1802 38.5949 44.8202 39.7949C47.1402 41.4949 47.0802 41.1749 48.7002 39.3849C49.3502 38.6649 50.1402 38.1949 51.0802 37.9449C53.9402 37.1849 56.0402 38.2149 57.6102 41.0349C57.9202 40.5749 58.0702 40.2649 58.2902 40.0249C62.9002 35.0349 66.6502 29.4249 70.2602 23.6949C70.5302 23.2649 71.1402 22.8049 70.7702 22.2449C70.4302 21.7249 69.7402 21.9849 69.2102 21.9949C53.4402 22.0549 37.7002 22.4249 22.2402 26.0549C19.5102 26.6949 16.6602 26.8149 13.9702 28.0149V28.0249ZM11.7402 40.8449C11.5102 45.9149 12.2902 51.4049 12.8802 56.9149C13.1702 59.6149 13.3302 62.3249 14.2802 64.9049C14.4102 65.2549 14.3002 65.7749 14.7702 65.8849C15.2402 65.9949 15.3902 65.4949 15.6102 65.2049C20.6302 58.5149 25.8802 52.0149 31.2902 45.6549C31.9902 44.8249 31.9002 44.5149 30.9902 43.9849C26.8102 41.5449 23.1602 38.4149 19.4702 35.3049C17.4402 33.5949 15.8102 31.4349 13.4602 30.0849C12.5102 29.5349 12.0302 29.5049 11.9902 30.8749C11.9002 34.0349 11.6202 37.1849 11.7402 40.8449ZM77.9602 55.1749C77.5102 47.5049 76.6202 39.4649 75.4602 31.4449C75.1002 28.9749 74.6202 26.5249 73.6202 24.2249C73.4502 23.8449 73.3502 23.2949 72.8102 23.2849C72.3502 23.2849 72.2902 23.7949 72.0602 24.0849C71.1302 25.2549 70.5902 26.6849 69.7402 27.8849C66.8502 31.9449 64.2302 36.2049 60.8102 39.8749C59.9902 40.7649 59.9502 41.4749 60.7402 42.4449C62.9802 45.1949 65.2002 47.9649 67.3002 50.8249C70.1402 54.7049 73.3602 58.2949 75.9302 62.3649C76.1402 62.7049 76.4202 62.8049 76.7502 62.7549C77.1402 62.6949 77.2202 62.3849 77.2702 62.0249C77.5502 59.8849 77.9402 57.7549 77.9602 55.1649V55.1749Z" fill="#080808"/>
<path d="M75.8201 64.6749C64.2201 66.0949 52.9201 67.1849 41.5401 67.4149C34.9501 67.5449 28.3501 67.7949 21.7601 67.9649C20.3201 68.0049 18.8801 67.9449 17.4501 67.7149C15.6901 67.4349 15.6201 67.3248 16.7801 65.8648C18.1601 64.1348 19.6001 62.4449 20.9801 60.7149C24.4601 56.3549 27.7701 51.8549 31.4501 47.6549C33.4701 45.3449 33.8501 45.2349 36.4601 46.8749C37.8101 47.7249 39.1001 48.7249 40.2901 49.7849C42.5801 51.8449 45.2301 53.3048 47.9501 54.6848C48.9001 55.1648 49.5401 54.8649 50.1401 54.1949C52.1001 52.0149 54.0801 49.8349 56.0001 47.6149C56.8801 46.6049 57.5601 45.4549 57.6901 44.0749C57.7401 43.4649 58.0001 42.9649 58.5801 42.8049C59.1401 42.6449 59.2501 43.2549 59.5201 43.5649C64.7501 49.5249 69.0901 56.1848 74.2201 62.2248C74.7801 62.8848 75.1801 63.6849 75.8201 64.6749Z" fill="#FCFCFC"/>
<path d="M13.9702 28.0249C16.6602 26.8149 19.5102 26.7049 22.2402 26.0649C37.7002 22.4249 53.4502 22.0549 69.2102 21.9949C69.7402 21.9949 70.4202 21.7349 70.7702 22.2449C71.1402 22.8049 70.5302 23.2649 70.2602 23.6949C66.6502 29.4149 62.9002 35.0349 58.2902 40.0249C58.0602 40.2649 57.9102 40.5749 57.6102 41.0349C56.0402 38.2149 53.9402 37.1949 51.0802 37.9449C50.1402 38.1949 49.3502 38.6649 48.7002 39.3849C47.0902 41.1749 47.1402 41.4949 44.8202 39.7949C43.1802 38.5949 41.3602 38.4149 39.4502 39.0749C37.4502 39.7649 36.5902 40.8949 36.4602 43.0049C36.3502 44.8249 36.3602 44.7949 34.6902 43.8949C28.4302 40.5449 23.0602 36.0149 17.8202 31.2949C16.6002 30.1949 15.3102 29.1649 13.9702 28.0249Z" fill="#FCFCFC"/>
<path d="M11.74 40.8449C11.62 37.1849 11.9 34.0349 11.99 30.8749C12.03 29.5049 12.51 29.5449 13.46 30.0849C15.81 31.4349 17.44 33.5949 19.47 35.3049C23.15 38.4049 26.81 41.5449 30.99 43.9849C31.9 44.5149 31.99 44.8249 31.29 45.6549C25.87 52.0149 20.62 58.5149 15.61 65.2049C15.4 65.4949 15.25 65.9949 14.77 65.8849C14.3 65.7749 14.41 65.2549 14.28 64.9049C13.32 62.3249 13.16 59.6149 12.88 56.9149C12.29 51.4049 11.51 45.9149 11.74 40.8449Z" fill="#FBFBFB"/>
<path d="M77.9599 55.1749C77.9299 57.7649 77.5499 59.8949 77.2699 62.0349C77.2199 62.3949 77.1399 62.7049 76.7499 62.7649C76.4099 62.8149 76.1399 62.7149 75.9299 62.3749C73.3599 58.2949 70.1399 54.7049 67.2999 50.8349C65.2099 47.9749 62.9799 45.2049 60.7399 42.4549C59.9499 41.4849 59.9899 40.7649 60.8099 39.8849C64.2299 36.2149 66.8499 31.9549 69.7399 27.8949C70.5899 26.6949 71.1299 25.2649 72.0599 24.0949C72.2899 23.8049 72.3499 23.2849 72.8099 23.2949C73.3499 23.2949 73.4599 23.8549 73.6199 24.2349C74.6199 26.5449 75.0999 28.9949 75.4599 31.4549C76.6299 39.4649 77.5099 47.5149 77.9599 55.1849V55.1749Z" fill="#FBFBFB"/>
</svg>
