<svg width="90" height="90" viewBox="0 0 90 90" fill="none" xmlns="http://www.w3.org/2000/svg">
<path d="M26.23 66.6149C25.84 66.6149 25.5 66.5649 25.21 66.4649C24.47 66.2149 24.5 65.6349 24.51 65.3849C24.51 65.3449 24.51 65.2949 24.51 65.2549C24.45 63.9949 24.77 62.9249 25.49 61.9749C26.69 60.3949 28.3 58.3449 30.13 56.4649C31.35 55.2149 31.34 55.1449 30.12 53.8849C28.6 52.3249 27.44 50.7649 26.57 49.1249C25.8 47.6749 25.67 46.2849 26.19 45.1149C26.71 43.9349 27.84 43.1049 29.46 42.6949C31.02 42.3049 32.48 42.1249 34.05 42.1249C34.45 42.1249 34.87 42.1349 35.3 42.1649C35.34 42.1649 35.38 42.1649 35.42 42.1849C35.77 42.2949 36.11 42.3449 36.44 42.3449C37.73 42.3449 38.94 41.5349 40.25 39.7949C41.13 38.6249 42.08 37.5049 43.01 36.4149C43.4 35.9549 43.79 35.4949 44.17 35.0349C44.84 34.2349 45.07 33.3849 44.9 32.3649C44.63 30.7449 44.71 29.3149 45.15 28.0149C46.06 25.2849 48.43 23.5249 51.17 23.5249C52.08 23.5249 52.99 23.7249 53.87 24.1049C58.44 26.1249 61.94 29.6949 63.99 34.4549C64.8 36.3249 64.65 38.3249 63.59 39.9349C62.5 41.5949 60.58 42.5849 58.45 42.5849H57.97C56.65 42.5849 55.65 43.0149 54.75 43.9849C54.29 44.4849 53.84 44.9949 53.4 45.5049C52.62 46.4049 51.81 47.3349 50.92 48.1749C49.84 49.2049 49.54 50.3949 49.88 52.2849C49.96 52.7149 50.04 53.1449 50.13 53.5749C50.47 55.3149 50.82 57.1049 50.81 58.9449C50.78 61.9649 49.25 63.8349 46.79 63.8449C46.05 63.8449 45.24 63.6749 44.39 63.3349C41.95 62.3749 39.49 61.0449 36.43 59.0449C36.04 58.7949 35.75 58.6649 35.53 58.6649C35.34 58.6649 35.09 58.7549 34.62 59.3849C33.59 60.7949 32.46 62.1549 31.36 63.4749C30.91 64.0149 30.46 64.5549 30.02 65.0949C29.21 66.0849 27.46 66.6149 26.23 66.6149Z" fill="#0A0A0A"/>
<path d="M51.1598 24.0149C51.9798 24.0149 52.8198 24.1849 53.6498 24.5549C58.2398 26.5849 61.5498 30.0849 63.5198 34.6449C65.1198 38.3649 62.4698 42.0749 58.4398 42.0749C58.3598 42.0749 58.2798 42.0749 58.1998 42.0749C58.1198 42.0749 58.0398 42.0749 57.9598 42.0749C56.4698 42.0749 55.3398 42.5949 54.3698 43.6449C53.0898 45.0249 51.9198 46.5149 50.5598 47.8049C49.1598 49.1349 49.0598 50.6549 49.3798 52.3749C49.7798 54.5549 50.3198 56.7049 50.2998 58.9449C50.2798 61.7449 48.9398 63.3449 46.7798 63.3449C46.1098 63.3449 45.3698 63.1949 44.5598 62.8749C41.7798 61.7749 39.1898 60.2649 36.6898 58.6349C36.2198 58.3349 35.8498 58.1749 35.5198 58.1749C35.0498 58.1749 34.6598 58.4749 34.2098 59.0949C32.7798 61.0549 31.1698 62.8949 29.6298 64.7849C28.9898 65.5749 27.4298 66.1249 26.2198 66.1249C25.8998 66.1249 25.6098 66.0849 25.3598 66.0049C24.8898 65.8449 25.0098 65.5449 24.9998 65.2349C24.9398 64.1449 25.2098 63.1649 25.8798 62.2749C27.3198 60.3749 28.8098 58.5249 30.4798 56.8149C31.8798 55.3849 31.8898 55.0049 30.4698 53.5349C29.1098 52.1349 27.9098 50.6149 26.9998 48.8949C25.5798 46.2049 26.6098 43.9249 29.5698 43.1849C30.9698 42.8349 32.3798 42.6249 34.0398 42.6249C34.4298 42.6249 34.8398 42.6349 35.2598 42.6649C35.6698 42.7949 36.0598 42.8549 36.4298 42.8549C38.0798 42.8549 39.4398 41.7049 40.6398 40.1049C41.8698 38.4649 43.2398 36.9349 44.5398 35.3649C45.2898 34.4649 45.5698 33.4849 45.3698 32.2949C45.1398 30.9249 45.1498 29.5349 45.5998 28.1849C46.4498 25.6349 48.6598 24.0349 51.1398 24.0349M51.1598 23.0149C48.1998 23.0149 45.6498 24.9149 44.6698 27.8449C44.2098 29.2249 44.1198 30.7349 44.3998 32.4349C44.5498 33.3149 44.3598 34.0149 43.7798 34.7049C43.3998 35.1649 43.0098 35.6249 42.6198 36.0749C41.6898 37.1749 40.7298 38.3049 39.8398 39.4849C38.6298 41.0849 37.5498 41.8349 36.4298 41.8349C36.1498 41.8349 35.8498 41.7849 35.5498 41.6949C35.4698 41.6749 35.3898 41.6549 35.3098 41.6549C34.8698 41.6249 34.4398 41.6149 34.0298 41.6149C32.4198 41.6149 30.9198 41.8049 29.3198 42.2049C27.5498 42.6449 26.3098 43.5849 25.7198 44.9049C25.1298 46.2249 25.2698 47.7549 26.1098 49.3549C26.9998 51.0349 28.1898 52.6349 29.7498 54.2249C30.3898 54.8849 30.5198 55.1149 30.5298 55.1949C30.5098 55.2549 30.3598 55.4949 29.7598 56.1049C27.9098 58.0049 26.2898 60.0749 25.0798 61.6649C24.2898 62.7049 23.9298 63.9149 23.9998 65.2749C23.9998 65.3049 23.9998 65.3349 23.9998 65.3649C23.9698 66.1649 24.3198 66.6949 25.0398 66.9449C25.3798 67.0549 25.7798 67.1149 26.2198 67.1149C27.5698 67.1149 29.4998 66.5149 30.3998 65.4049C30.8398 64.8649 31.2898 64.3249 31.7298 63.7849C32.8298 62.4649 33.9698 61.0949 35.0098 59.6749C35.3698 59.1849 35.5098 59.1649 35.5098 59.1649C35.5398 59.1649 35.6998 59.1749 36.1398 59.4649C39.2298 61.4849 41.7098 62.8249 44.1898 63.7949C45.0998 64.1549 45.9698 64.3349 46.7798 64.3349C49.5398 64.3349 51.2698 62.2649 51.2998 58.9449C51.3198 57.0549 50.9598 55.2349 50.6098 53.4749C50.5298 53.0449 50.4398 52.6149 50.3598 52.1949C50.0398 50.4649 50.2898 49.4449 51.2498 48.5349C52.1498 47.6749 52.9698 46.7449 53.7598 45.8349C54.1998 45.3249 54.6398 44.8249 55.0998 44.3249C55.8998 43.4649 56.7798 43.0749 57.9598 43.0749C58.0298 43.0749 58.0898 43.0749 58.1598 43.0749C58.2498 43.0749 58.3398 43.0749 58.4298 43.0749C60.7198 43.0749 62.7998 42.0049 63.9798 40.2049C65.1298 38.4549 65.2898 36.2849 64.4198 34.2549C62.3198 29.3849 58.7298 25.7149 54.0398 23.6449C53.0998 23.2249 52.1198 23.0149 51.1398 23.0149H51.1598Z" fill="white"/>
</svg>
