<svg width="90" height="90" viewBox="0 0 90 90" fill="none" xmlns="http://www.w3.org/2000/svg">
<path d="M70.99 45.885C70.99 41.415 71.01 37.975 70.99 34.535C70.96 31.825 69.84 29.695 67.36 28.455C62.31 25.945 57.34 23.265 52.38 20.585C49.04 18.775 45.54 17.555 41.57 18.185C33.9 19.395 27.75 23.625 21.78 28.145C18.97 30.285 17.69 33.315 18.06 36.935C18.25 38.805 18.34 40.695 18.57 42.565C19.17 47.415 20.66 52.075 21.51 56.875C21.89 59.0149 22.98 60.625 24.61 62.005C29.69 66.295 35.65 68.8549 41.83 71.075C44.22 71.935 46.5 72.055 48.97 71.485C55.86 69.9049 61.65 66.095 67.56 62.535C69.61 61.305 70.87 59.2049 70.73 56.8149C70.51 52.8049 71.16 48.845 70.98 45.885H70.99Z" fill="#FEFEFE"/>
<path d="M70.9902 45.8849C71.1602 48.8449 70.5102 52.8049 70.7402 56.8149C70.8702 59.2049 69.6202 61.3049 67.5702 62.5349C61.6602 66.0849 55.8602 69.8949 48.9802 71.4849C46.5102 72.0549 44.2302 71.9349 41.8402 71.0749C35.6702 68.8549 29.7002 66.2849 24.6202 62.0049C22.9902 60.6349 21.9002 59.0149 21.5202 56.8749C20.6702 52.0749 19.1802 47.4149 18.5802 42.5649C18.3502 40.6949 18.2602 38.8149 18.0702 36.9349C17.7002 33.3149 18.9802 30.2849 21.7902 28.1549C27.7502 23.6249 33.9002 19.3949 41.5702 18.1849C45.5402 17.5549 49.0302 18.7849 52.3702 20.5949C57.3302 23.2749 62.3002 25.9549 67.3502 28.4649C69.8302 29.6949 70.9502 31.8249 70.9802 34.5449C71.0102 37.9849 70.9802 41.4249 70.9802 45.8949L70.9902 45.8849ZM68.7202 44.5949C68.7202 41.1849 68.6902 38.3549 68.7302 35.5249C68.7702 33.1849 67.8202 31.4049 65.7902 30.3149C60.3302 27.3849 54.8702 24.4649 49.3502 21.6549C46.2802 20.0949 42.9502 19.6749 39.6502 20.7049C33.0502 22.7549 27.2402 26.2349 22.1502 30.9049C21.0002 31.9649 20.4002 33.3049 20.4002 34.8949C20.4002 36.7849 20.4102 38.6549 20.6002 40.5449C21.1802 46.3649 22.8502 51.9449 24.1102 57.6249C24.2902 58.4249 24.6502 59.1849 25.3302 59.7449C31.0702 64.4949 37.7702 67.3149 44.7902 69.4849C46.4702 70.0049 46.9202 69.5549 46.7002 67.7749C45.9502 61.7649 45.4902 55.7449 45.6102 49.6849C45.6302 48.8049 45.1202 47.3249 46.6702 47.3749C47.9702 47.4149 47.6402 48.8449 47.6302 49.6749C47.6202 55.5749 48.2102 61.4049 48.9502 67.2449C49.1502 68.7749 49.5902 68.9249 50.9602 68.4349C56.3602 66.4949 61.3302 63.7349 66.1802 60.7349C67.5802 59.8749 68.2302 58.6249 68.1002 56.9649C68.0502 56.3049 68.0502 55.6349 68.0902 54.9749C68.3002 51.3249 68.5302 47.6649 68.7202 44.5849V44.5949Z" fill="#090909"/>
<path d="M68.7199 44.5949C68.5299 47.6749 68.2999 51.3249 68.0899 54.9849C68.0499 55.6449 68.0499 56.3149 68.0999 56.9749C68.2299 58.6349 67.5799 59.8849 66.1799 60.7449C61.3199 63.7449 56.3499 66.4949 50.9599 68.4449C49.5999 68.9349 49.1499 68.7849 48.9499 67.2549C48.1999 61.4149 47.6099 55.5749 47.6299 49.6849C47.6299 48.8549 47.9599 47.4349 46.6699 47.3849C45.1199 47.3349 45.6299 48.8149 45.6099 49.6949C45.4899 55.7549 45.9499 61.7749 46.6999 67.7849C46.9199 69.5649 46.4699 70.0149 44.7899 69.4949C37.7699 67.3249 31.0699 64.5049 25.3299 59.7549C24.6499 59.1949 24.2899 58.4349 24.1099 57.6349C22.8499 51.9649 21.1799 46.3749 20.5999 40.5549C20.4099 38.6649 20.3999 36.7949 20.3999 34.9049C20.3999 33.3149 20.9999 31.9749 22.1499 30.9149C27.2399 26.2449 33.0499 22.7649 39.6499 20.7149C42.9599 19.6849 46.2899 20.1049 49.3499 21.6649C54.8699 24.4749 60.3399 27.3949 65.7899 30.3249C67.8199 31.4149 68.7599 33.1949 68.7299 35.5349C68.6799 38.3649 68.7199 41.1949 68.7199 44.6049V44.5949ZM25.1299 33.9849C24.3499 34.0749 23.2299 33.7849 23.0999 34.8849C22.9599 36.0649 24.1499 35.8149 24.8199 35.8749C25.7699 35.9549 26.4699 36.3849 27.1699 36.9649C31.9099 40.8749 37.4799 43.6349 42.1599 47.6249C42.6699 48.0649 43.2699 48.1749 43.7899 47.6049C44.3199 47.0249 43.8999 46.5249 43.5199 46.1649C42.7199 45.4049 41.8799 44.6649 40.9699 44.0549C36.4799 41.0249 31.9699 38.0249 27.6099 34.8049C26.8799 34.2649 26.0699 33.9349 25.1299 33.9849ZM66.9999 34.2549C66.9999 33.7849 66.8199 33.4449 66.5099 33.1849C66.0899 32.8249 65.6799 33.0349 65.2899 33.2749C63.9799 34.0849 62.6599 34.8949 61.3599 35.7249C57.2099 38.3549 53.0599 40.9849 48.9199 43.6449C48.3199 44.0349 47.6699 44.5449 48.1999 45.3949C48.7699 46.3049 49.4999 46.0049 50.1999 45.5349C55.4399 42.0449 60.6699 38.5249 66.0599 35.2749C66.4699 35.0249 66.9399 34.7749 66.9899 34.2549H66.9999ZM66.0199 42.5449C66.0599 40.8649 65.2899 40.0249 63.6799 39.9849C61.8499 39.9449 61.0199 40.6149 61.0099 42.1549C61.0099 43.7549 62.1299 44.9749 63.6499 44.9949C65.0299 45.0149 65.9899 44.0249 66.0199 42.5549V42.5449ZM57.0199 60.4549C56.9799 59.1049 55.7799 57.9749 54.3999 57.9749C52.9399 57.9749 51.9599 59.0349 52.0199 60.5549C52.0799 61.9549 53.1199 62.9949 54.4399 62.9749C55.8099 62.9449 57.0599 61.7249 57.0199 60.4549ZM34.0399 29.4549C34.0399 28.0749 33.0999 26.9849 31.9099 27.0049C30.3399 27.0349 29.0299 28.1249 29.0399 29.3949C29.0599 30.7849 30.2399 32.0149 31.5199 31.9949C32.9099 31.9749 34.0199 30.8449 34.0299 29.4549H34.0399ZM45.7299 39.9849C47.0299 39.9849 48.0599 38.9549 48.0299 37.6949C47.9899 36.3149 46.5599 34.9349 45.2099 34.9849C44.0199 35.0249 43.0099 36.1649 43.0299 37.4349C43.0499 38.8549 44.2599 39.9849 45.7299 39.9749V39.9849ZM31.0399 56.7849C31.0799 55.4449 29.7599 53.9849 28.5099 53.9749C27.3299 53.9749 26.1199 55.0749 26.0399 56.2349C25.9499 57.5549 27.2299 58.9149 28.6199 58.9749C29.9299 59.0349 30.9999 58.0649 31.0399 56.7849ZM57.0199 29.6649C57.0599 28.4549 55.7899 27.0949 54.5299 26.9949C53.4299 26.9049 52.0899 28.3049 52.0299 29.6149C51.9699 30.8349 53.1699 31.9949 54.4799 31.9949C55.7899 31.9949 56.9799 30.9049 57.0199 29.6649ZM62.0199 50.5449C61.9799 49.2549 60.5699 47.9449 59.2599 47.9849C57.9699 48.0249 56.9599 49.1849 57.0199 50.5449C57.0799 51.9249 58.2499 53.0249 59.6199 52.9749C60.9499 52.9349 62.0599 51.8049 62.0199 50.5349V50.5449ZM41.0299 51.8949C41.0599 50.3049 39.8099 48.9949 38.4399 48.9849C37.2199 48.9749 36.0299 50.0049 36.0399 51.0649C36.0599 52.2549 37.8699 54.0449 39.0499 53.9649C40.4099 53.8749 40.8999 52.9249 41.0299 51.8949ZM45.0199 25.0049C45.9999 24.9449 46.9099 24.5249 47.0099 23.2149C47.0999 22.0949 45.7799 21.0149 44.3399 21.0149C43.2099 21.0149 42.2199 21.4049 42.0499 22.6849C41.8999 23.8049 43.3499 24.9549 45.0099 25.0049H45.0199Z" fill="#FBFBFB"/>
<path d="M25.1302 33.9848C26.0702 33.9348 26.8802 34.2648 27.6102 34.8048C31.9702 38.0248 36.4802 41.0148 40.9702 44.0548C41.8802 44.6748 42.7202 45.4148 43.5202 46.1648C43.9002 46.5248 44.3202 47.0348 43.7902 47.6048C43.2702 48.1748 42.6802 48.0648 42.1602 47.6248C37.4802 43.6248 31.9102 40.8648 27.1702 36.9648C26.4702 36.3948 25.7802 35.9548 24.8202 35.8748C24.1502 35.8148 22.9602 36.0648 23.1002 34.8848C23.2302 33.7848 24.3502 34.0748 25.1302 33.9848Z" fill="#0E0E0E"/>
<path d="M66.9998 34.2549C66.9498 34.7849 66.4798 35.0249 66.0698 35.2749C60.6698 38.5249 55.4498 42.0449 50.2098 45.5349C49.5098 45.9949 48.7798 46.2949 48.2098 45.3949C47.6698 44.5349 48.3298 44.0249 48.9298 43.6449C53.0698 40.9849 57.2198 38.3549 61.3698 35.7249C62.6698 34.8949 63.9898 34.0949 65.2998 33.2749C65.6898 33.0349 66.0898 32.8249 66.5198 33.1849C66.8198 33.4449 67.0098 33.7749 67.0098 34.2549H66.9998Z" fill="#0A0A0A"/>
<path d="M66.0198 42.5448C65.9898 44.0148 65.0298 45.0048 63.6498 44.9848C62.1398 44.9648 61.0098 43.7548 61.0098 42.1448C61.0098 40.6048 61.8398 39.9348 63.6798 39.9748C65.2898 40.0148 66.0498 40.8548 66.0198 42.5348V42.5448Z" fill="#090909"/>
<path d="M57.0202 60.4549C57.0602 61.7249 55.8102 62.9449 54.4402 62.9749C53.1202 63.0049 52.0702 61.9549 52.0202 60.5549C51.9602 59.0349 52.9302 57.9749 54.4002 57.9749C55.7802 57.9749 56.9802 59.1049 57.0202 60.4549Z" fill="#0A0A0A"/>
<path d="M34.04 29.4549C34.04 30.8449 32.92 31.9749 31.53 31.9949C30.25 32.0149 29.07 30.7749 29.05 29.3949C29.03 28.1249 30.35 27.0349 31.92 27.0049C33.1 26.9849 34.06 28.0849 34.05 29.4549H34.04Z" fill="#090909"/>
<path d="M45.7301 39.9849C44.2501 39.9849 43.0501 38.8649 43.0301 37.4449C43.0101 36.1749 44.0201 35.0349 45.2101 34.9949C46.5601 34.9449 47.9901 36.3149 48.0301 37.7049C48.0701 38.9549 47.0401 39.9849 45.7301 39.9949V39.9849Z" fill="#090909"/>
<path d="M31.0401 56.7849C31.0001 58.0649 29.9301 59.0349 28.6201 58.9749C27.2301 58.9149 25.9501 57.5549 26.0401 56.2349C26.1201 55.0749 27.3301 53.9649 28.5101 53.9749C29.7601 53.9749 31.0901 55.4449 31.0401 56.7849Z" fill="#0A0A0A"/>
<path d="M57.02 29.6649C56.98 30.9049 55.79 31.9949 54.48 31.9949C53.17 31.9949 51.97 30.8349 52.03 29.6149C52.09 28.3149 53.43 26.9149 54.53 26.9949C55.79 27.0949 57.05 28.4549 57.02 29.6649Z" fill="#090909"/>
<path d="M62.0201 50.5449C62.0601 51.8149 60.9501 52.9349 59.6201 52.9849C58.2601 53.0249 57.0901 51.9349 57.0201 50.5549C56.9601 49.1949 57.9701 48.0349 59.2601 47.9949C60.5701 47.9549 61.9801 49.2649 62.0201 50.5549V50.5449Z" fill="#070707"/>
<path d="M41.0301 51.8949C40.9001 52.9249 40.4201 53.8649 39.0501 53.9649C37.8701 54.0449 36.0501 52.2549 36.0401 51.0649C36.0301 50.0049 37.2201 48.9749 38.4401 48.9849C39.8101 48.9949 41.0601 50.3049 41.0301 51.8949Z" fill="#0A0A0A"/>
<path d="M45.0201 25.0048C43.3501 24.9548 41.9101 23.8048 42.0601 22.6848C42.2301 21.3948 43.2101 21.0048 44.3501 21.0148C45.7901 21.0148 47.1101 22.1048 47.0201 23.2148C46.9201 24.5148 46.0101 24.9448 45.0301 25.0048H45.0201Z" fill="#0A0A0A"/>
</svg>
