<svg width="90" height="90" viewBox="0 0 90 90" fill="none" xmlns="http://www.w3.org/2000/svg">
<path d="M34.3702 59.4849C33.7402 59.4849 33.1602 59.1349 32.7202 58.8349C31.2002 57.7849 29.8602 56.5249 28.5602 55.2949C27.9802 54.7449 27.3902 54.1949 26.7902 53.6649L26.5302 53.4349C25.7802 52.7749 25.0102 52.0949 24.3302 51.3349C23.9702 50.9349 23.8302 50.9249 23.8202 50.9249C23.8102 50.9249 23.6802 51.0049 23.4002 51.5749C23.1702 52.0649 22.9502 52.5549 22.7302 53.0449C22.0702 54.5249 21.3902 56.0449 20.3302 57.3749C20.0102 57.7749 19.6102 58.2749 18.9602 58.2749C18.7602 58.2749 18.5502 58.2249 18.3402 58.1249C17.5502 57.7449 17.4902 56.9549 17.5302 56.3149C17.6602 55.3849 18.1002 54.4549 18.4602 53.8349C18.9702 52.9349 19.4602 52.0049 19.9402 51.0849C20.2702 50.4449 20.6102 49.8049 20.9602 49.1649C21.2802 48.5849 21.0202 48.2249 20.4902 47.5849L20.4202 47.5049C20.1702 47.1949 19.8602 46.9249 19.5402 46.6349C18.7802 45.9449 17.9202 45.1749 17.7502 43.8749H17.7302C16.0102 43.4349 14.7802 42.3349 13.5902 41.2749C12.9702 40.7249 12.3902 40.2049 11.7502 39.7749L11.5802 39.6649C11.1602 39.3949 10.6502 39.0649 10.5402 38.4849C10.4802 38.1349 10.5802 37.7749 10.8502 37.4049C11.4102 36.6449 12.0502 36.4849 12.4902 36.4849C12.9302 36.4849 13.4202 36.6549 13.8802 36.9849C16.5902 38.9449 19.4202 41.0949 21.6402 43.9249L21.7702 44.0949C21.8502 44.2049 21.9202 44.3049 22.0202 44.3949C22.3802 44.7549 22.7302 44.9549 23.0102 44.9549C23.4502 44.9549 23.7102 44.3849 23.8202 44.0449C25.1102 40.1449 27.2002 36.5949 29.2302 33.2949C29.9602 32.1149 30.9402 31.2549 32.1702 30.7349C32.5102 30.5849 32.8002 30.5249 33.0602 30.5249C33.4002 30.5249 33.8902 30.6449 34.2502 31.2349C34.8302 32.1749 34.7402 33.0449 34.0302 33.5549C31.7402 35.1949 30.6102 37.5549 29.4102 40.0649C28.9902 40.9449 28.5502 41.8649 28.0602 42.7349C27.6602 43.4549 27.2802 44.1849 26.9002 44.9149C26.5702 45.5649 26.2302 46.2049 25.8802 46.8449C25.5502 47.4449 25.6202 47.8649 26.1202 48.2649C27.4302 49.3349 28.6702 50.5049 29.8702 51.6349C31.4402 53.1149 33.0602 54.6549 34.8302 55.9349L34.9902 56.0449C35.5002 56.4049 36.0702 56.8149 36.1802 57.4749C36.2402 57.8749 36.1202 58.3049 35.8002 58.7349C35.3302 59.3649 34.7802 59.5049 34.4002 59.5049L34.3702 59.4849Z" fill="#0A0A0A"/>
<path d="M33.0402 31.0149C33.3302 31.0149 33.5902 31.1349 33.8002 31.4849C34.1402 32.0449 34.3002 32.7149 33.7202 33.1349C30.4702 35.4649 29.4302 39.2249 27.6102 42.4749C26.8502 43.8249 26.1802 45.2249 25.4302 46.5749C24.9802 47.3849 25.0902 48.0649 25.7902 48.6349C28.8002 51.0849 31.3602 54.0449 34.5202 56.3249C35.2602 56.8549 36.1502 57.3649 35.3702 58.4249C35.0702 58.8349 34.7302 58.9849 34.3802 58.9849C33.9102 58.9849 33.4202 58.7049 33.0102 58.4149C30.8602 56.9349 29.0702 55.0049 27.1202 53.2749C26.2902 52.5349 25.4402 51.8149 24.7002 50.9949C24.3402 50.5949 24.0602 50.4249 23.8202 50.4249C23.4902 50.4249 23.2302 50.7749 22.9502 51.3649C22.0202 53.3049 21.3102 55.3649 19.9402 57.0749C19.6702 57.4049 19.3902 57.7849 18.9602 57.7849C18.8402 57.7849 18.7102 57.7549 18.5602 57.6849C18.1002 57.4649 17.9902 57.0349 18.0302 56.3549C18.1202 55.6749 18.4502 54.8749 18.8902 54.0949C19.7602 52.5649 20.5402 50.9749 21.3902 49.4249C21.9102 48.4749 21.3102 47.8349 20.7902 47.2049C19.8602 46.0849 18.3402 45.3949 18.2202 43.6749C18.2202 43.5749 17.9902 43.4349 17.8402 43.3949C15.4002 42.7749 13.9702 40.6849 12.0102 39.3649C11.4302 38.9749 10.5902 38.5749 11.2302 37.7049C11.5802 37.2349 12.0002 36.9949 12.4602 36.9949C12.8102 36.9949 13.1802 37.1349 13.5602 37.4049C16.3502 39.4249 19.0802 41.5149 21.2202 44.2549C21.3602 44.4249 21.4802 44.6149 21.6302 44.7749C22.1002 45.2449 22.5602 45.4749 22.9702 45.4749C23.5202 45.4749 23.9802 45.0549 24.2502 44.2249C25.5102 40.4049 27.5202 36.9749 29.6102 33.5749C30.2702 32.5049 31.1502 31.7049 32.3202 31.2149C32.5602 31.1149 32.8002 31.0449 33.0202 31.0449M33.0402 30.0149C32.7102 30.0149 32.3602 30.0949 31.9502 30.2649C30.6302 30.8249 29.5602 31.7549 28.7802 33.0249C26.7302 36.3549 24.6202 39.9349 23.3202 43.8849C23.1802 44.3149 23.0202 44.4349 22.9902 44.4449C22.9102 44.4449 22.6702 44.3549 22.3502 44.0349C22.2902 43.9749 22.2202 43.8849 22.1502 43.7849C22.1102 43.7249 22.0602 43.6649 22.0202 43.6049C19.7602 40.7149 16.9002 38.5449 14.1602 36.5649C13.6102 36.1649 13.0402 35.9649 12.4802 35.9649C11.6902 35.9649 10.9702 36.3649 10.4402 37.0849C10.0902 37.5649 9.95024 38.0649 10.0402 38.5549C10.1902 39.3449 10.8602 39.7749 11.3002 40.0649L11.4602 40.1749C12.0802 40.5949 12.6502 41.0949 13.2502 41.6349C14.4202 42.6749 15.6302 43.7549 17.3102 44.2649C17.5902 45.5549 18.4702 46.3549 19.2002 47.0049C19.5102 47.2849 19.8002 47.5449 20.0302 47.8249L20.1002 47.9149C20.6702 48.5949 20.6502 48.6849 20.5202 48.9349C20.1702 49.5749 19.8302 50.2149 19.5002 50.8649C19.0302 51.7649 18.5402 52.7049 18.0302 53.5949C17.6602 54.2549 17.1802 55.2449 17.0502 56.2149C17.0502 56.2449 17.0502 56.2649 17.0502 56.2949C17.0302 56.7249 16.9502 58.0149 18.1502 58.5849C18.4202 58.7149 18.7002 58.7849 18.9802 58.7849C19.8702 58.7849 20.4002 58.1349 20.7102 57.7349C21.8402 56.3249 22.5302 54.7649 23.2002 53.2649C23.4202 52.7749 23.6402 52.2849 23.8702 51.8049C23.9002 51.7449 23.9202 51.6949 23.9502 51.6549C23.9502 51.6549 23.9702 51.6749 23.9802 51.6849C24.6802 52.4649 25.4702 53.1549 26.2202 53.8249L26.4702 54.0449C27.0602 54.5749 27.6602 55.1349 28.2302 55.6749C29.5402 56.9149 30.9002 58.1949 32.4502 59.2549C32.9502 59.6049 33.6202 59.9949 34.3902 59.9949C34.8802 59.9949 35.6002 59.8249 36.1902 59.0249C36.5902 58.4749 36.7502 57.9249 36.6602 57.3849C36.5202 56.5149 35.8302 56.0249 35.2702 55.6249L35.1202 55.5149C33.3802 54.2549 31.7702 52.7349 30.2102 51.2649C29.0002 50.1249 27.7602 48.9449 26.4302 47.8649C26.1502 47.6349 26.0702 47.5149 26.3102 47.0649C26.6602 46.4249 27.0002 45.7749 27.3402 45.1249C27.7102 44.4149 28.0902 43.6749 28.4902 42.9749C28.9902 42.0849 29.4302 41.1649 29.8602 40.2749C31.0302 37.8349 32.1302 35.5249 34.3202 33.9549C35.0502 33.4249 35.5302 32.3649 34.6802 30.9649C34.3102 30.3549 33.7302 30.0249 33.0702 30.0249L33.0402 30.0149Z" fill="white"/>
<path d="M53.28 54.5149C53.13 54.5149 52.96 54.4849 52.79 54.4449C51.92 54.1949 51.55 53.5149 51.7 52.4249C52.18 49.4249 53.19 46.2949 54.79 42.8449C55.65 40.9749 55.48 39.6049 54.2 38.0949C53.41 37.1649 52.69 36.1449 52 35.1749C51.77 34.8449 51.54 34.5249 51.31 34.2049C50.98 33.7449 50.21 32.6649 51.36 31.7749C51.72 31.4949 52.09 31.3549 52.48 31.3549C53.02 31.3549 53.53 31.6249 53.95 32.1449C54.88 33.2949 55.97 34.6749 57 36.1249C57.34 36.6049 57.49 36.6249 57.49 36.6249C57.49 36.6249 57.64 36.5949 57.95 36.1049C58.62 35.0549 59.39 33.9949 60.24 32.9749C60.78 32.3249 61.64 31.4649 63 31.4649C64.05 31.4649 64.75 31.9749 64.98 32.9049C65.23 33.9449 64.41 34.2849 64.01 34.4449C63.93 34.4749 63.84 34.5149 63.76 34.5549C61.6 35.6149 60.66 37.6349 59.73 39.9749C59.63 40.2249 59.73 40.4049 60.02 40.8249L60.15 41.0249C61.79 43.5249 63.42 46.0349 65.05 48.5349L66.74 51.1249C67.13 51.7149 67.84 52.8049 66.64 53.7249C66.31 53.9749 65.98 54.0949 65.66 54.0949C64.96 54.0949 64.5 53.5449 64.13 53.0949L64.05 52.9949C62.13 50.7049 60.54 48.1449 59 45.6749L58.23 44.4349C58.16 44.3249 58.1 44.2049 58.04 44.0749C57.92 43.8449 57.82 43.6449 57.74 43.6449C57.65 43.6949 57.62 43.9049 57.6 44.0349C57.57 44.1949 57.55 44.3549 57.5 44.4949C57.09 45.7349 56.69 46.9649 56.29 48.2049C55.77 49.8049 55.25 51.4049 54.72 52.9949L54.67 53.1449C54.51 53.6649 54.23 54.5249 53.29 54.5249L53.28 54.5149Z" fill="#0A0A0A"/>
<path d="M52.5001 31.8448C52.9001 31.8448 53.2701 32.0748 53.5801 32.4448C54.6201 33.7348 55.6501 35.0448 56.6101 36.3948C56.9401 36.8648 57.2301 37.1048 57.5101 37.1048C57.7901 37.1048 58.0701 36.8548 58.3901 36.3548C59.0701 35.2848 59.8301 34.2548 60.6401 33.2748C61.2401 32.5548 61.9701 31.9548 63.0201 31.9548C63.7801 31.9548 64.3201 32.2648 64.5001 33.0148C64.6901 33.7848 64.0401 33.8548 63.5401 34.0948C61.1601 35.2648 60.1701 37.4948 59.2601 39.7848C59.0201 40.3948 59.4201 40.8248 59.7301 41.2948C61.9101 44.6248 64.0801 47.9648 66.2601 51.3048C66.6901 51.9648 67.2201 52.6648 66.3401 53.3248C66.0901 53.5148 65.8601 53.5948 65.6601 53.5948C65.1501 53.5948 64.7801 53.0948 64.4301 52.6748C62.2201 50.0348 60.4701 47.0748 58.6501 44.1748C58.4001 43.7748 58.2601 43.1548 57.7301 43.1548C57.7101 43.1548 57.7001 43.1548 57.6801 43.1548C57.0501 43.1948 57.1601 43.9048 57.0101 44.3448C56.0801 47.1748 55.1701 50.0148 54.2301 52.8448C54.0601 53.3648 53.9201 54.0248 53.2701 54.0248C53.1701 54.0248 53.0501 54.0048 52.9201 53.9748C52.1801 53.7648 52.1001 53.1648 52.1901 52.5048C52.7201 49.2048 53.8501 46.0648 55.2401 43.0648C56.1801 41.0248 55.9901 39.4348 54.5801 37.7848C53.5401 36.5648 52.6501 35.2248 51.7201 33.9148C51.3201 33.3548 50.9401 32.7348 51.6701 32.1748C51.9501 31.9548 52.2201 31.8648 52.4901 31.8648M52.5001 30.8448C52.0001 30.8448 51.5101 31.0248 51.0701 31.3648C50.0501 32.1548 50.0001 33.2048 50.9201 34.4848C51.1501 34.8048 51.3801 35.1248 51.6001 35.4548C52.3001 36.4448 53.0201 37.4648 53.8301 38.4248C54.9801 39.7748 55.1201 40.9548 54.3401 42.6348C52.7201 46.1248 51.7001 49.2948 51.2101 52.3348C50.9601 54.1648 52.0101 54.7448 52.6501 54.9248C52.8701 54.9848 53.0801 55.0148 53.2701 55.0148C54.5801 55.0148 54.9701 53.8048 55.1301 53.2948L55.1801 53.1548C55.7101 51.5648 56.2301 49.9648 56.7501 48.3648C57.1301 47.1948 57.5101 46.0248 57.8901 44.8548C58.1101 45.2148 58.3401 45.5748 58.5601 45.9348C60.1101 48.4248 61.7101 50.9948 63.6501 53.3148L63.7301 53.4148C64.1201 53.8848 64.7101 54.5948 65.6501 54.5948C66.0901 54.5948 66.5201 54.4348 66.9401 54.1148C68.5201 52.9148 67.5301 51.4148 67.1601 50.8448L67.1001 50.7448L65.5401 48.3448C63.8901 45.8048 62.2301 43.2748 60.5801 40.7348C60.5301 40.6648 60.4901 40.5948 60.4401 40.5248C60.3501 40.3948 60.2201 40.2048 60.2001 40.1248C61.1201 37.8148 61.9901 35.9648 63.9901 34.9848C64.0601 34.9548 64.1301 34.9248 64.2101 34.8948C64.6101 34.7348 65.8401 34.2348 65.4801 32.7748C65.2001 31.6248 64.3101 30.9548 63.0301 30.9548C61.4501 30.9548 60.4701 31.9148 59.8701 32.6448C59.0101 33.6848 58.2201 34.7648 57.5501 35.8248C57.5301 35.8548 57.5101 35.8848 57.5001 35.9048C57.4801 35.8748 57.4601 35.8548 57.4401 35.8248C56.4001 34.3548 55.3001 32.9748 54.3701 31.8248C53.8601 31.1948 53.2001 30.8448 52.5101 30.8448H52.5001Z" fill="white"/>
<path d="M76.5103 50.4049C74.9203 50.4049 73.9503 49.2249 73.2103 48.0649C71.5603 45.4949 71.3403 42.5649 71.2703 40.0249C71.2303 38.5749 72.1603 37.8149 73.3403 37.2949C73.0703 37.0849 72.8503 36.9149 72.6303 36.7449C71.7803 36.1149 71.5603 35.4249 72.0003 34.7049C72.3403 34.1349 72.9003 33.8049 73.5203 33.8049C73.7503 33.8049 73.9703 33.8449 74.2003 33.9349C74.9303 34.2149 75.5103 34.5549 75.9203 34.9549C79.1303 38.0449 80.6203 41.4349 80.4803 45.3049C80.4603 45.9249 80.3403 46.5849 80.1403 47.2249C79.9103 47.9249 79.2303 50.0649 77.0203 50.3849C76.8503 50.4049 76.6903 50.4249 76.5403 50.4249L76.5103 50.4049ZM74.8303 39.0949C74.4503 41.3449 74.7803 43.4949 75.8503 45.6249C75.9003 45.7249 75.9503 45.8449 76.0003 45.9649C76.1803 46.3949 76.2603 46.5149 76.3703 46.5149C76.4003 46.5149 76.4403 46.5149 76.4803 46.5049C76.7303 46.4449 76.7903 46.2149 76.8503 45.5849V45.4449C77.0803 43.1749 76.4303 41.1449 74.8303 39.1049V39.0949Z" fill="#0A0A0A"/>
<path d="M73.5102 34.2949C73.6702 34.2949 73.8402 34.3249 74.0102 34.3949C74.5602 34.6049 75.1402 34.8949 75.5602 35.3049C78.3802 38.0249 80.1102 41.2449 79.9602 45.2749C79.9402 45.8749 79.8202 46.4849 79.6402 47.0549C79.2002 48.4249 78.4702 49.6549 76.9302 49.8749C76.7902 49.8949 76.6502 49.9049 76.5202 49.9049C75.1702 49.9049 74.3402 48.8949 73.6402 47.7949C72.1202 45.4149 71.8602 42.7149 71.7702 40.0049C71.7302 38.6449 72.7402 37.9949 74.3402 37.4349C73.7002 36.9449 73.3202 36.6349 72.9202 36.3349C72.4402 35.9849 72.0502 35.5649 72.4202 34.9549C72.6802 34.5249 73.0702 34.2949 73.5102 34.2949ZM76.3702 47.0049C76.4402 47.0049 76.5102 47.0049 76.5902 46.9749C77.2902 46.8149 77.2902 46.0649 77.3502 45.4749C77.6302 42.5249 76.4802 40.1249 74.5502 37.9849C73.8202 40.8049 74.1702 43.3849 75.4002 45.8349C75.6302 46.2949 75.7602 47.0049 76.3702 47.0049ZM73.5102 33.2949C72.7102 33.2949 72.0002 33.7149 71.5602 34.4349C71.2302 34.9849 70.8802 36.0749 72.3202 37.1349C72.3502 37.1549 72.3702 37.1749 72.4002 37.1949C71.5302 37.7349 70.7202 38.5949 70.7602 40.0249C70.8402 42.6349 71.0702 45.6449 72.7802 48.3249C73.5902 49.5949 74.6702 50.8949 76.5002 50.8949C76.6802 50.8949 76.8702 50.8849 77.0602 50.8549C79.5802 50.4949 80.3402 48.1249 80.5802 47.3449C80.7902 46.6749 80.9202 45.9649 80.9502 45.2949C81.1002 41.2749 79.5602 37.7649 76.2402 34.5749C75.7802 34.1249 75.1402 33.7549 74.3502 33.4549C74.0702 33.3449 73.7802 33.2949 73.5002 33.2949H73.5102ZM76.3502 45.5049C76.3502 45.5049 76.3102 45.4249 76.3002 45.3949C75.4902 43.7749 75.1202 42.1449 75.1902 40.4749C76.1602 42.0549 76.5302 43.6449 76.3702 45.3849V45.5149H76.3602L76.3502 45.5049Z" fill="white"/>
<path d="M43.05 52.855C40.66 52.855 38.64 51.235 37.89 48.735C37.58 47.705 37.5 46.785 37.65 46.015C37.69 44.485 37.82 42.755 38.42 41.085C38.56 40.715 38.97 39.575 40.22 39.575C40.48 39.575 40.76 39.625 41.07 39.725C41.66 39.915 42.3 40.055 42.9 40.195C43.46 40.325 44.03 40.455 44.58 40.615C47.21 41.395 49.13 43.595 49.25 45.985C49.38 48.595 47.63 51.365 45.18 52.415C44.49 52.715 43.77 52.865 43.05 52.865V52.855ZM41.94 43.505C41.53 43.505 41.21 43.645 41.02 44.355C40.74 45.355 40.75 46.395 41.05 47.525C41.34 48.635 42.06 49.295 42.97 49.295C43.46 49.295 43.98 49.095 44.48 48.715C45.56 47.885 45.97 46.895 45.7 45.755C45.46 44.775 43.43 43.505 42.07 43.505L41.95 43.005V43.505H41.94Z" fill="#0A0A0A"/>
<path d="M40.2098 40.0649C40.4198 40.0649 40.6498 40.1049 40.9098 40.1849C42.0598 40.5449 43.2698 40.7349 44.4398 41.0749C46.8898 41.8049 48.6398 43.8249 48.7498 45.9949C48.8698 48.4049 47.2498 50.9649 44.9798 51.9349C44.3298 52.2149 43.6798 52.3449 43.0398 52.3449C40.9498 52.3449 39.0598 50.9249 38.3598 48.5849C38.1098 47.7349 37.9798 46.8549 38.1298 46.0949C38.1798 44.3549 38.3298 42.7649 38.8798 41.2349C39.1598 40.4649 39.5498 40.0549 40.2098 40.0549M42.9698 49.7949C43.5498 49.7949 44.1798 49.5749 44.7798 49.1149C45.8998 48.2549 46.5198 47.0849 46.1798 45.6449C45.8798 44.3949 43.6098 43.0149 42.0598 43.0149C42.0198 43.0149 41.9798 43.0149 41.9398 43.0149C41.1498 43.0149 40.7498 43.4749 40.5398 44.2249C40.2198 45.3749 40.2698 46.5149 40.5698 47.6549C40.9298 49.0249 41.8798 49.7949 42.9698 49.7949ZM40.2098 39.0649C39.4798 39.0649 38.4898 39.3849 37.9398 40.9049C37.3198 42.6249 37.1798 44.3649 37.1298 45.9949C36.9898 46.8249 37.0798 47.7949 37.3998 48.8749C38.2098 51.5949 40.4198 53.3549 43.0398 53.3549C43.8298 53.3549 44.6098 53.1949 45.3698 52.8649C48.0098 51.7349 49.8898 48.7649 49.7398 45.9549C49.6098 43.3649 47.5398 40.9649 44.7098 40.1349C44.1398 39.9649 43.5598 39.8349 42.9998 39.7049C42.3698 39.5649 41.7798 39.4249 41.1998 39.2449C40.8398 39.1349 40.5098 39.0749 40.1998 39.0749L40.2098 39.0649ZM42.9698 48.7949C42.2998 48.7949 41.7598 48.2749 41.5298 47.3949C41.2498 46.3449 41.2398 45.3949 41.4998 44.4849C41.6298 44.0049 41.7498 44.0049 41.9398 44.0049H41.9998C41.9998 44.0049 42.0398 44.0049 42.0498 44.0049C43.2398 44.0049 45.0298 45.1649 45.1998 45.8749C45.4298 46.8149 45.0898 47.6149 44.1698 48.3149C43.7698 48.6249 43.3498 48.7849 42.9698 48.7849V48.7949Z" fill="white"/>
</svg>
