<svg width="90" height="90" viewBox="0 0 90 90" fill="none" xmlns="http://www.w3.org/2000/svg">
<path d="M30.0102 30.4949C30.1102 28.9149 29.8002 26.9649 30.2402 25.0349C30.7202 22.9749 31.6102 22.5149 33.4402 23.5349C36.7502 25.3749 39.6202 27.8249 42.5402 30.2049C47.4902 34.2349 52.3202 38.3949 56.7802 42.9549C59.9702 46.2149 59.8102 47.0249 55.7302 48.9149C54.2502 49.5949 51.9102 49.8449 51.5802 51.1449C51.3202 52.1649 53.1502 53.7249 54.0602 55.0449C54.7902 56.0949 55.5602 57.1049 56.2702 58.1649C57.3702 59.8049 57.1602 61.2649 55.5102 62.3049C53.6002 63.5149 51.6102 64.6249 49.6102 65.6949C48.2102 66.4449 47.0402 65.9949 46.1702 64.7149C44.7402 62.6049 43.2602 60.5249 41.9102 58.3649C41.3202 57.4149 40.9002 57.5349 40.1902 58.1649C38.7902 59.4249 37.3802 60.6849 35.8802 61.8249C34.4002 62.9449 33.4302 62.5849 33.0002 60.7649C31.9402 56.3349 31.6302 51.7849 31.1002 47.2749C30.9202 45.7849 30.8002 44.2949 30.7002 42.8049C30.4402 38.8149 30.0002 34.8449 30.0102 30.4949ZM32.6602 25.8249C32.6102 26.9749 32.5102 27.7849 32.5402 28.5849C32.6802 32.4049 32.7802 36.2349 33.0502 40.0549C33.4802 46.0249 34.0602 51.9949 34.9802 57.9149C35.1302 58.8849 35.3302 59.1349 36.1302 58.3949C37.3902 57.2249 38.6802 56.0849 39.9802 54.9649C41.4202 53.7249 41.7702 53.7649 42.8502 55.3249C44.4602 57.6549 46.0702 59.9749 47.5802 62.3649C48.2002 63.3549 48.7202 63.4649 49.6702 62.8249C50.7202 62.1149 51.8502 61.5149 53.0002 60.9549C54.1702 60.3849 54.4902 59.8349 53.5602 58.6549C51.8402 56.4849 50.2902 54.1749 48.6902 51.9249C47.4702 50.2049 47.6202 49.7649 49.5902 48.8649C51.7202 47.8949 53.9302 47.1049 56.1102 45.8249C48.8402 38.4849 41.1602 31.9349 32.6602 25.8249Z" fill="#080808"/>
<path d="M32.6602 25.8249C41.1602 31.9349 48.8402 38.4849 56.0902 45.8149C53.9102 47.0949 51.7002 47.8849 49.5702 48.8549C47.6002 49.7549 47.4502 50.1949 48.6702 51.9149C50.2802 54.1749 51.8302 56.4749 53.5402 58.6449C54.4702 59.8249 54.1602 60.3749 52.9802 60.9449C51.8402 61.5049 50.7002 62.0949 49.6502 62.8149C48.7002 63.4649 48.1802 63.3449 47.5602 62.3549C46.0502 59.9649 44.4402 57.6449 42.8302 55.3149C41.7502 53.7549 41.4002 53.7149 39.9602 54.9549C38.6602 56.0749 37.3702 57.2149 36.1102 58.3849C35.3102 59.1249 35.1102 58.8749 34.9602 57.9049C34.0402 51.9849 33.4602 46.0149 33.0302 40.0449C32.7602 36.2249 32.6602 32.3949 32.5202 28.5749C32.4902 27.7649 32.5902 26.9549 32.6402 25.8149L32.6602 25.8249Z" fill="#FCFCFC"/>
</svg>
