<svg width="90" height="90" viewBox="0 0 90 90" fill="none" xmlns="http://www.w3.org/2000/svg">
<path d="M60.1902 35.1849C63.0802 39.5449 64.6702 44.4049 65.8202 49.4549C66.2002 51.1149 66.9602 52.6749 67.5302 54.2849C67.8302 55.1449 68.3502 55.3349 69.2002 55.0249C70.5102 54.5549 71.8802 54.3349 73.2502 54.1349C77.0302 53.6049 80.1202 55.1449 82.7502 57.5949C85.0002 59.6949 84.8402 63.1949 82.6502 65.5449C81.4102 66.8749 79.9302 67.9749 78.9502 69.5649C78.3102 70.5949 77.5202 70.1749 77.4102 69.2749C76.7802 64.0549 73.1602 61.2649 69.1902 58.6349C68.1102 57.9149 67.1602 57.5449 65.8402 57.6649C58.5102 58.3349 53.6302 53.3949 54.2502 46.0349C54.4302 43.8849 54.7802 41.7449 54.4502 39.5649C54.2702 38.4049 54.0002 37.2849 53.5502 36.2149C52.4502 33.5549 52.1602 33.4249 49.3102 33.8949C47.6602 34.1649 45.9702 34.3449 44.4902 33.3049C43.3002 32.4749 42.4102 32.8449 41.3902 33.6949C36.3102 37.9149 33.6902 43.5449 32.1702 49.7649C31.9402 50.7249 31.6602 51.8149 31.3102 52.5949C29.8802 55.8549 30.6702 59.4549 29.5002 62.6449C27.4202 68.3049 22.9702 71.2549 17.1902 72.3249C15.3902 72.6549 13.5602 72.7749 11.7502 73.0549C10.8602 73.1949 9.91018 73.0649 9.21018 73.9749C8.63018 74.7249 8.03018 74.0649 7.85018 73.5149C7.17018 71.4049 6.36018 69.3849 5.21018 67.4649C4.67018 66.5649 5.16018 65.7149 6.36018 65.6349C8.02018 65.5249 9.68018 65.3649 11.3402 65.3749C16.5902 65.4249 20.9402 63.6949 24.8002 59.9649C27.2102 57.6349 27.9802 55.7649 26.9502 52.3949C24.8402 45.4849 26.4502 39.3449 32.4502 34.7749C32.9802 34.3749 33.4902 33.9549 34.0002 33.5349C34.0302 33.5049 34.0302 33.4349 34.0702 33.2549C32.6702 33.2749 31.4302 33.8349 30.1602 34.2049C28.0402 34.8249 25.9402 35.5249 23.8102 36.1049C23.0802 36.3049 22.2702 36.3549 21.5002 36.3149C20.2102 36.2449 19.5902 35.5149 19.8502 34.2049C20.0502 33.1749 20.3602 32.1649 20.5602 31.1349C20.8202 29.8249 20.9202 28.5349 20.5202 27.1949C20.0202 25.5449 20.3402 23.9149 21.0302 22.3449C23.9302 15.7649 32.2402 14.0749 37.2702 19.0649C39.3102 21.0949 41.5302 22.9649 43.2002 25.3449C43.4602 25.7149 43.7102 25.9149 44.1302 25.6049C45.0902 24.9049 46.5302 25.3449 47.2102 24.9149C49.0702 23.7349 51.3902 24.2749 53.1702 22.5549C57.0302 18.8149 61.5702 16.0549 67.0302 15.1749C68.5302 14.9349 70.0102 14.9049 71.4702 15.3549C74.0702 16.1449 75.2002 18.1049 74.5402 20.7349C74.3102 21.6449 74.0202 22.5449 73.7102 23.4249C72.8602 25.8149 72.5502 28.2549 72.8702 30.7849C73.0202 31.9349 73.0402 33.1149 73.0202 34.2749C72.9702 36.6449 71.8302 37.5449 69.4702 37.2349C66.3702 36.8249 63.4902 35.6849 60.5402 34.7449C60.3502 34.6649 60.1402 34.5349 60.0202 34.7849C59.9802 34.8649 60.1302 35.0349 60.1902 35.1749V35.1849ZM53.3802 30.2649C53.6202 30.3849 53.8502 30.5449 54.1002 30.6249C58.8902 32.1649 63.6702 33.7249 68.4702 35.2249C70.7702 35.9449 71.5802 35.3949 71.2302 32.9849C70.6302 28.8049 71.2602 24.8649 72.6402 20.9249C73.5402 18.3549 72.4402 16.9649 69.6702 16.7449C68.9102 16.6849 68.1202 16.7849 67.3602 16.8849C61.6902 17.6149 57.4502 21.0349 53.2302 24.4649C52.1802 25.3149 53.2002 26.1849 53.3102 27.0349C53.4002 27.7149 53.8502 27.7849 54.4102 27.6349C56.7802 27.0349 59.2002 26.7349 61.6102 26.4049C62.1902 26.3249 62.8002 26.1849 62.7602 25.4849C62.7202 24.8049 62.2002 24.4549 61.5102 24.3849C60.7402 24.3049 59.9702 24.2049 59.2102 24.0849C58.8202 24.0249 58.4302 23.8949 58.4002 23.4049C58.3702 22.9049 58.7602 22.7949 59.1302 22.6349C60.2602 22.1549 61.2902 22.6749 62.3502 22.9249C63.7902 23.2649 64.6202 24.1449 64.6102 25.5949C64.6002 27.1649 63.5902 27.9549 62.0902 28.1949C59.6802 28.5749 57.2802 28.9649 54.8702 29.3349C54.2502 29.4249 53.6702 29.5149 53.4002 30.2849L53.3802 30.2649ZM22.2302 31.6449C22.9202 31.7449 23.2002 31.1749 23.5802 30.8249C26.2102 28.4549 29.3102 27.3449 32.8202 27.3549C35.5602 27.3549 38.1802 28.0549 40.8002 28.7549C41.3402 28.9049 41.9802 29.5049 42.4402 28.9549C42.9502 28.3549 42.5802 27.5649 42.2902 26.9149C42.1102 26.5249 41.8102 26.1749 41.5202 25.8349C39.7302 23.7149 37.8002 21.7449 35.6702 19.9649C31.9202 16.8249 27.0302 17.3249 23.9002 21.1549C22.6302 22.7149 21.6502 24.4449 22.2202 26.4649C22.7202 28.2349 22.5202 29.9049 22.2202 31.6349L22.2302 31.6449ZM53.5802 32.9649C55.8302 36.4549 56.6002 40.0149 56.0602 43.8349C55.9102 44.9149 55.7502 45.9749 55.8102 47.0749C56.1402 52.6849 59.2402 55.7849 64.6502 55.9449C65.7002 55.9749 65.9402 55.7349 65.5602 54.7449C64.5202 52.0549 63.9502 49.2349 63.2702 46.4449C62.2902 42.4349 60.8102 38.6349 58.1302 35.4049C57.0402 34.0949 55.7802 33.0949 53.5802 32.9649ZM7.39018 67.4649C7.76018 68.3049 8.23018 69.0749 8.43018 69.9049C8.76018 71.2349 9.57018 71.4949 10.7702 71.3349C11.9802 71.1649 13.2002 71.1449 14.4102 70.9749C17.8302 70.4949 21.2002 69.8049 23.9502 67.4949C26.3802 65.4449 28.0402 62.9449 28.4102 59.2049C25.2202 61.9349 22.6602 64.7949 18.9402 66.1349C15.2002 67.4749 11.2702 66.7349 7.39018 67.4649ZM29.2702 54.2749C31.3602 45.8649 33.5202 38.0049 40.1302 32.3149C35.6702 34.4449 31.1902 36.5349 29.0202 41.2449C27.1302 45.3549 27.4202 49.6149 29.2602 54.2749H29.2702ZM70.0902 56.8749C73.6702 59.6849 77.6902 61.9049 78.6502 66.5649C79.5702 65.7449 80.4402 64.9849 81.3002 64.2149C81.5002 64.0349 81.6902 63.8249 81.8602 63.6049C82.8302 62.3149 82.6102 60.1349 81.3902 59.0749C78.1002 56.2149 74.4802 54.9549 70.0902 56.8849V56.8749ZM51.7002 28.1349C51.7002 27.9849 51.7002 27.4849 51.6402 26.9849C51.5302 26.1949 50.9202 25.9049 50.2502 25.7549C49.4702 25.5849 49.1602 26.1349 48.9302 26.7249C48.7902 27.0849 48.7302 27.4749 48.5902 27.8349C48.3802 28.3749 48.3602 29.2349 47.6102 29.1949C46.8702 29.1549 47.0002 28.2849 46.8102 27.7449C46.6702 27.3649 46.9802 26.7749 46.3602 26.6349C45.7802 26.5049 45.2602 26.7249 44.8402 27.1349C43.8602 28.0949 44.3802 31.6249 45.5802 32.2449C48.4002 33.7049 51.7102 31.6749 51.7002 28.1349ZM39.0502 30.2449C32.8802 27.8249 26.1802 29.6049 23.5102 34.2949C28.7602 33.0849 33.6502 30.6749 39.0502 30.2449Z" fill="#0B0B0B"/>
<path d="M53.3801 30.2649C53.6501 29.4949 54.2301 29.4049 54.8501 29.3149C57.2601 28.9549 59.6601 28.5549 62.0701 28.1749C63.5701 27.9449 64.5701 27.1549 64.5901 25.5749C64.6001 24.1249 63.7801 23.2449 62.3301 22.9049C61.2601 22.6549 60.2401 22.1349 59.1101 22.6149C58.7401 22.7649 58.3601 22.8849 58.3801 23.3849C58.4101 23.8749 58.8001 24.0049 59.1901 24.0649C59.9601 24.1849 60.7201 24.2849 61.4901 24.3649C62.1801 24.4349 62.7101 24.7849 62.7401 25.4649C62.7801 26.1649 62.1701 26.3049 61.5901 26.3849C59.1801 26.7149 56.7601 27.0149 54.3901 27.6149C53.8301 27.7549 53.3801 27.6849 53.2901 27.0149C53.1801 26.1649 52.1601 25.2949 53.2101 24.4449C57.4301 21.0149 61.6701 17.5949 67.3401 16.8649C68.1101 16.7649 68.8901 16.6749 69.6501 16.7249C72.4201 16.9349 73.5201 18.3349 72.6201 20.9049C71.2501 24.8449 70.6101 28.7849 71.2101 32.9649C71.5601 35.3749 70.7501 35.9249 68.4501 35.2049C63.6501 33.7049 58.8701 32.1549 54.0801 30.6049C53.8301 30.5249 53.6001 30.3649 53.3601 30.2449L53.3801 30.2649Z" fill="#F9F9F9"/>
<path d="M22.23 31.6449C22.53 29.9149 22.73 28.2449 22.23 26.4749C21.66 24.4549 22.64 22.7149 23.91 21.1649C27.03 17.3349 31.93 16.8249 35.68 19.9749C37.8 21.7549 39.74 23.7349 41.53 25.8449C41.81 26.1849 42.12 26.5249 42.3 26.9249C42.59 27.5749 42.96 28.3649 42.45 28.9649C41.99 29.5049 41.35 28.9049 40.81 28.7649C38.19 28.0649 35.57 27.3749 32.83 27.3649C29.32 27.3549 26.22 28.4649 23.59 30.8349C23.21 31.1849 22.93 31.7549 22.24 31.6549L22.23 31.6449ZM31.92 21.7049C31.18 21.7449 30.19 21.4849 30.08 22.4049C29.97 23.3749 30.98 23.2749 31.65 23.3749C32.47 23.4949 33.26 23.6849 34.02 24.0249C34.51 24.2349 35.1 24.5949 35.38 23.8049C35.6 23.2049 35.25 22.7349 34.71 22.4549C33.82 22.0049 32.88 21.7349 31.92 21.7049Z" fill="#F9F9F9"/>
<path d="M53.5801 32.9648C55.7801 33.0948 57.0401 34.0948 58.1301 35.4048C60.8101 38.6348 62.2901 42.4348 63.2701 46.4448C63.9501 49.2348 64.5201 52.0548 65.5601 54.7448C65.9401 55.7348 65.7001 55.9748 64.6501 55.9448C59.2401 55.7848 56.1401 52.6848 55.8101 47.0748C55.7501 45.9748 55.9101 44.9148 56.0601 43.8348C56.6001 40.0248 55.8301 36.4548 53.5801 32.9648Z" fill="#F8F8F8"/>
<path d="M7.39014 67.4648C11.2701 66.7348 15.2001 67.4748 18.9401 66.1348C22.6501 64.8048 25.2201 61.9348 28.4101 59.2048C28.0401 62.9348 26.3801 65.4448 23.9501 67.4948C21.2101 69.8048 17.8401 70.4948 14.4101 70.9748C13.2001 71.1448 11.9801 71.1648 10.7701 71.3348C9.57014 71.5048 8.76014 71.2348 8.43014 69.9048C8.22014 69.0748 7.76014 68.3048 7.39014 67.4648Z" fill="#F5F5F5"/>
<path d="M29.2699 54.2749C27.4299 49.6149 27.1399 45.3449 29.0299 41.2449C31.1999 36.5449 35.6799 34.4449 40.1399 32.3149C33.5299 38.0049 31.3599 45.8649 29.2799 54.2749H29.2699Z" fill="#F5F5F5"/>
<path d="M70.0898 56.8749C74.4798 54.9449 78.0998 56.2049 81.3898 59.0649C82.6098 60.1249 82.8298 62.3049 81.8598 63.5949C81.6998 63.8149 81.5099 64.0249 81.2999 64.2049C80.4399 64.9749 79.5698 65.7349 78.6498 66.5549C77.6898 61.8949 73.6698 59.6749 70.0898 56.8649V56.8749Z" fill="#F8F8F8"/>
<path d="M51.7002 28.1349C51.7102 31.6649 48.4002 33.7049 45.5802 32.2449C44.3702 31.6149 43.8602 28.0949 44.8402 27.1349C45.2602 26.7249 45.7802 26.5149 46.3602 26.6349C46.9802 26.7749 46.6802 27.3649 46.8102 27.7449C47.0002 28.2849 46.8702 29.1549 47.6102 29.1949C48.3602 29.2449 48.3802 28.3749 48.5902 27.8349C48.7302 27.4749 48.7902 27.0849 48.9302 26.7249C49.1602 26.1349 49.4702 25.5749 50.2502 25.7549C50.9202 25.9049 51.5402 26.1949 51.6402 26.9849C51.7102 27.4749 51.6902 27.9749 51.7002 28.1349Z" fill="#F5F5F5"/>
<path d="M39.0498 30.2449C33.6398 30.6849 28.7598 33.0849 23.5098 34.2949C26.1798 29.5949 32.8798 27.8149 39.0498 30.2449Z" fill="#F0F0F0"/>
<path d="M31.92 21.7048C32.87 21.7348 33.82 21.9948 34.71 22.4548C35.25 22.7248 35.59 23.1948 35.38 23.8048C35.1 24.5948 34.51 24.2348 34.02 24.0248C33.26 23.6948 32.47 23.4948 31.65 23.3748C30.99 23.2848 29.97 23.3748 30.08 22.4048C30.19 21.4848 31.18 21.7448 31.92 21.7048Z" fill="#0B0B0B"/>
</svg>
