<svg width="90" height="90" viewBox="0 0 90 90" fill="none" xmlns="http://www.w3.org/2000/svg">
<path d="M57.3599 28.2649C57.3599 28.3249 57.3599 28.3749 57.3599 28.4349C57.3399 30.2049 56.8999 32.1249 57.4199 33.7249C57.9699 35.4149 60.2999 35.1549 61.7099 36.0749C66.0299 38.9049 68.2299 42.9649 68.6799 47.9549C69.3699 55.6249 66.6999 62.2249 61.6499 67.8849C58.1899 71.7649 54.2399 75.0249 49.2999 76.9549C45.3499 78.4949 41.5299 78.3849 37.7699 76.3649C30.8699 72.6549 25.4599 67.5649 22.5899 60.1049C20.2299 53.9949 20.6199 47.9249 23.1199 41.9749C24.6199 38.4149 27.3299 36.0249 31.1199 35.0649C32.5299 34.7049 33.1099 34.0449 33.1399 32.5449C33.2199 29.0549 33.3699 25.5549 33.6999 22.0849C34.1299 17.5649 36.2799 14.0849 40.5599 12.2549C45.1899 10.2649 49.6899 10.6549 53.8099 13.5749C56.2199 15.2849 56.6999 18.0649 57.0299 20.7949C57.3299 23.2749 57.4099 25.7749 57.3699 28.2749L57.3599 28.2649ZM23.6099 51.6749C23.6099 52.3949 23.5699 53.1249 23.6199 53.8349C23.6699 54.6049 23.7399 55.3949 23.9299 56.1349C26.0499 64.3349 31.2999 70.0449 38.6099 73.8949C41.8099 75.5849 45.0999 76.4749 48.8799 74.5049C52.2199 72.7649 55.4199 70.9249 58.0099 68.2849C63.6699 62.5049 67.1799 55.7749 65.9799 47.3649C65.3199 42.7249 63.0099 39.0349 58.4699 37.4149C54.1299 35.8549 49.9699 36.6049 46.3799 39.6649C45.5899 40.3349 44.8899 40.3849 44.2399 39.5849C42.9399 37.9749 41.0999 37.3649 39.2199 36.8749C32.5599 35.1249 26.0399 38.9549 24.3099 45.5849C23.7899 47.5849 23.6299 49.6249 23.5999 51.6849L23.6099 51.6749ZM54.7399 27.5849C54.7399 27.5849 54.6899 27.5849 54.6699 27.5849C54.6699 25.8149 54.7899 24.0249 54.6399 22.2649C54.4299 19.8449 54.2999 17.2449 52.2299 15.5849C49.1199 13.0849 45.5299 12.9049 41.8699 14.2349C38.4199 15.4949 36.1399 17.9749 35.7399 21.6249C35.3299 25.4149 35.3899 29.2549 35.2799 33.0749C35.2499 33.9349 35.5099 34.5649 36.6299 34.4649C37.5899 34.3849 38.2799 34.1849 38.2499 33.0649C38.2299 32.2849 38.1599 31.5149 38.1599 30.7449C38.1599 27.8049 38.1599 24.8549 39.1999 22.0549C40.3599 18.9049 43.9699 16.7249 47.0899 17.1849C50.2399 17.6449 51.9199 19.7549 52.4099 23.6349C52.7899 26.6849 52.2099 29.7149 52.3399 32.7649C52.3699 33.5849 52.2599 34.3549 53.4299 34.3749C54.5899 34.3949 54.7599 33.7149 54.7399 32.7549C54.6999 31.0349 54.7299 29.3149 54.7299 27.5949L54.7399 27.5849ZM49.9799 28.7349C50.0899 26.8049 50.2699 24.8649 49.8099 22.9549C49.0299 19.7149 46.6199 18.6549 43.6799 20.2549C42.0299 21.1549 41.2499 22.5849 41.0299 24.4049C40.7299 26.8849 40.8299 29.3849 40.6899 31.8649C40.5799 33.8849 40.6499 35.6049 43.1399 36.0049C43.3499 36.0349 43.5799 36.1649 43.7099 36.3149C44.9999 37.8349 45.9599 37.5349 47.6599 36.4549C49.6799 35.1749 50.0999 33.7549 49.9799 31.7249C49.9199 30.7349 49.9699 29.7349 49.9699 28.7349H49.9799Z" fill="#080808"/>
<path d="M23.6101 51.6749C23.6501 49.6149 23.8001 47.5849 24.3201 45.5749C26.0501 38.9449 32.5701 35.1149 39.2301 36.8649C41.1101 37.3549 42.9501 37.9649 44.2501 39.5749C44.9001 40.3749 45.6001 40.3249 46.3901 39.6549C49.9801 36.5949 54.1401 35.8549 58.4801 37.4049C63.0201 39.0349 65.3201 42.7149 65.9901 47.3549C67.1901 55.7649 63.6801 62.4949 58.0201 68.2749C55.4301 70.9249 52.2301 72.7649 48.8901 74.4949C45.1001 76.4649 41.8201 75.5649 38.6201 73.8849C31.3101 70.0349 26.0601 64.3249 23.9401 56.1249C23.7501 55.3849 23.6801 54.5949 23.6301 53.8249C23.5801 53.1049 23.6201 52.3849 23.6201 51.6649L23.6101 51.6749ZM63.3701 52.0749C63.3301 49.9949 63.0301 47.6949 62.2501 45.4849C60.8801 41.6349 56.1101 38.7849 52.6101 39.8449C50.0801 40.6149 47.5301 41.4849 45.7301 43.6449C45.4001 44.0349 45.1401 44.3449 44.6201 43.6349C40.6801 38.1549 32.5401 38.2449 28.6901 43.8149C25.9001 47.8649 25.3401 52.2449 26.8401 56.9549C29.0201 63.7849 33.6901 68.1249 40.1801 70.8149C43.0101 71.9849 45.7601 72.0949 48.5501 70.9349C51.9601 69.5149 54.9801 67.4749 57.7101 65.0049C61.4501 61.6249 63.2501 57.3549 63.3701 52.0749Z" fill="#F6F6F6"/>
<path d="M54.7399 27.5849C54.7399 29.3049 54.7099 31.0249 54.7499 32.7449C54.7699 33.7049 54.5999 34.3849 53.4399 34.3649C52.2699 34.3449 52.3799 33.5749 52.3499 32.7549C52.2199 29.7149 52.7999 26.6849 52.4199 23.6249C51.9299 19.7449 50.2499 17.6349 47.0999 17.1749C43.9799 16.7249 40.3699 18.9049 39.2099 22.0449C38.1699 24.8449 38.1799 27.8049 38.1699 30.7349C38.1699 31.5049 38.2399 32.2849 38.2599 33.0549C38.2799 34.1749 37.5899 34.3749 36.6399 34.4549C35.5099 34.5549 35.2599 33.9249 35.2899 33.0649C35.3999 29.2449 35.3399 25.4049 35.7499 21.6149C36.1499 17.9649 38.4199 15.4849 41.8799 14.2249C45.5399 12.8849 49.1199 13.0649 52.2399 15.5749C54.2999 17.2349 54.4399 19.8349 54.6499 22.2549C54.7999 24.0149 54.6799 25.7949 54.6799 27.5749C54.6999 27.5749 54.7299 27.5749 54.7499 27.5749L54.7399 27.5849Z" fill="#F6F6F6"/>
<path d="M63.37 52.0749C63.25 57.3549 61.45 61.6249 57.71 65.0049C54.98 67.4649 51.96 69.5149 48.55 70.9349C45.76 72.1049 43 71.9949 40.18 70.8149C33.69 68.1249 29.02 63.7849 26.84 56.9549C25.34 52.2549 25.9 47.8649 28.69 43.8149C32.53 38.2449 40.67 38.1549 44.62 43.6349C45.14 44.3549 45.41 44.0449 45.73 43.6449C47.53 41.4849 50.08 40.6149 52.61 39.8449C56.11 38.7849 60.88 41.6249 62.25 45.4849C63.04 47.6949 63.33 50.0049 63.37 52.0749ZM60.87 51.9649C60.8 50.9749 60.8 49.9649 60.65 48.9849C59.94 44.2449 56.8 41.6849 52.57 42.4049C50.25 42.8049 48.53 44.1749 47.24 46.0649C45.46 48.6649 47.04 51.9249 50.17 52.2249C50.64 52.2649 51.09 52.2049 51.34 51.7949C51.64 51.3049 51.5 50.8149 51.07 50.4549C50.52 49.9849 49.94 49.5549 49.37 49.1249C48.92 48.7749 48.79 48.3449 48.98 47.8149C49.13 47.3749 49.5 47.1949 49.88 47.2049C51.35 47.2449 52.57 47.8549 53.39 49.0949C54.24 50.3849 54.44 51.7949 53.7 53.1849C53.02 54.4549 51.8 54.8549 50.45 54.7249C48.84 54.5549 47.24 54.1349 46.08 52.9449C45.16 51.9949 44.45 52.0149 43.37 52.7149C41.3 54.0549 38.62 53.4949 37.29 51.6349C36.31 50.2549 36.51 48.1749 37.69 47.2449C38.35 46.7249 39.02 46.7149 39.67 47.2149C40.39 47.7549 39.73 48.1649 39.49 48.6049C38.67 50.0649 38.96 50.7049 40.58 51.0449C41.79 51.2949 42.47 50.6949 42.93 49.6949C44.14 47.0349 42.54 43.4449 39.72 42.4849C36.66 41.4349 33.23 42.3149 31.09 44.7849C28.63 47.6149 28.29 50.9249 28.97 54.4649C30.4 61.9449 35.31 66.2949 42.06 68.8449C45.48 70.1349 48.47 68.4349 51.25 66.6549C56.61 63.2149 61.08 59.1249 60.87 51.9949V51.9649Z" fill="#080808"/>
<path d="M60.8702 51.9649C61.0802 59.1049 56.6102 63.1949 51.2502 66.6249C48.4802 68.4049 45.4802 70.1049 42.0602 68.8149C35.3002 66.2649 30.4002 61.9149 28.9702 54.4349C28.2902 50.8949 28.6402 47.5749 31.0902 44.7549C33.2302 42.2949 36.6702 41.4149 39.7202 42.4549C42.5402 43.4149 44.1402 47.0149 42.9302 49.6649C42.4702 50.6649 41.7902 51.2749 40.5802 51.0149C38.9602 50.6749 38.6702 50.0349 39.4902 48.5749C39.7402 48.1349 40.3902 47.7349 39.6702 47.1849C39.0202 46.6949 38.3502 46.6949 37.6902 47.2149C36.5102 48.1449 36.3202 50.2249 37.2902 51.6049C38.6102 53.4649 41.2902 54.0249 43.3702 52.6849C44.4502 51.9849 45.1602 51.9749 46.0802 52.9149C47.2402 54.1049 48.8402 54.5249 50.4502 54.6949C51.8002 54.8349 53.0202 54.4249 53.7002 53.1549C54.4402 51.7649 54.2402 50.3549 53.3902 49.0649C52.5702 47.8249 51.3502 47.2249 49.8802 47.1749C49.5002 47.1649 49.1302 47.3449 48.9802 47.7849C48.8002 48.3249 48.9202 48.7549 49.3702 49.0949C49.9402 49.5349 50.5202 49.9649 51.0702 50.4249C51.4902 50.7849 51.6402 51.2749 51.3402 51.7649C51.0902 52.1749 50.6502 52.2349 50.1702 52.1949C47.0402 51.9049 45.4602 48.6349 47.2402 46.0349C48.5402 44.1449 50.2502 42.7649 52.5702 42.3749C56.8002 41.6549 59.9402 44.2149 60.6502 48.9549C60.8002 49.9349 60.8002 50.9449 60.8702 51.9349V51.9649ZM42.4102 61.9649C42.4002 62.1849 42.3802 62.4049 42.3802 62.6249C42.3802 63.4949 42.1802 64.5349 43.4202 64.7249C44.7402 64.9349 44.9002 63.9449 45.0802 62.9649C45.2902 61.7649 45.6002 60.6449 46.5502 59.7149C47.6102 58.6749 47.2702 57.4849 46.4002 56.4549C45.3802 55.2349 43.8302 55.0449 42.5402 55.9849C41.4202 56.8049 40.9602 57.9149 41.7602 59.1449C42.3502 60.0449 42.5502 60.9449 42.4102 61.9649Z" fill="#FBFBFB"/>
<path d="M42.4101 61.9649C42.5501 60.9449 42.3501 60.0449 41.7601 59.1449C40.9601 57.9149 41.4201 56.8049 42.5401 55.9849C43.8301 55.0449 45.3801 55.2449 46.4001 56.4549C47.2701 57.4849 47.6001 58.6749 46.5501 59.7149C45.6001 60.6449 45.3001 61.7749 45.0801 62.9649C44.9101 63.9449 44.7501 64.9349 43.4201 64.7249C42.1801 64.5349 42.3901 63.4949 42.3801 62.6249C42.3801 62.4049 42.4001 62.1849 42.4101 61.9649Z" fill="#080808"/>
</svg>
