<svg width="90" height="90" viewBox="0 0 90 90" fill="none" xmlns="http://www.w3.org/2000/svg">
<path d="M26.8801 69.3148C24.4301 69.3148 22.3401 67.8448 21.0001 65.1848C19.2501 61.7048 19.3601 58.0048 19.6901 54.8548C20.0601 51.2748 21.4201 48.4748 23.7201 46.5348L23.8901 46.3848C24.1501 46.1548 24.4501 45.8848 24.8301 45.7748C25.0301 45.7148 25.2601 45.6548 25.5201 45.6548C26.0001 45.6548 26.3801 45.8948 26.5901 46.3348C26.9401 47.0848 26.4001 47.5748 26.1201 47.8348C22.2001 51.4648 21.2201 56.1648 22.9901 62.6748C23.7201 65.3748 24.9201 66.7348 26.5601 66.7348C27.6501 66.7348 28.9601 66.1648 30.4601 65.0248C30.8101 64.7648 31.0801 64.5348 31.3001 64.3148C31.5401 64.0748 31.8101 63.8548 32.0701 63.6248C32.6601 63.1248 33.2101 62.6548 33.4501 62.0948C33.6101 61.7048 33.5101 61.5548 32.7801 61.0548C32.4101 60.8048 32.0001 60.5248 31.7401 60.1148C30.6401 58.3148 30.1701 56.5748 30.3201 54.7948C30.6901 50.4148 32.4201 46.3548 35.5901 42.3748C36.9001 40.7348 38.2101 39.9348 39.5901 39.9348C40.0601 39.9348 40.5501 40.0348 41.0201 40.2148C43.3401 41.1248 43.5801 43.2648 43.4901 45.4548C43.3201 49.8448 42.0201 54.0748 39.6301 58.0448C39.2501 58.6748 38.8901 59.3048 38.5001 59.9748L38.3501 60.2348C39.7701 60.1748 40.9101 59.5648 41.9601 58.9348C44.7701 57.2548 46.7801 54.7548 48.5301 52.3048C48.9801 51.6748 48.9801 51.1248 48.5301 50.6748C45.6001 47.7048 45.0801 44.1248 46.8901 39.3848C48.0101 36.4748 49.5601 33.9148 51.5101 31.7748C52.3701 30.8248 53.2401 30.3648 54.1801 30.3648C54.4801 30.3648 54.8001 30.4148 55.1101 30.5148C56.5101 30.9548 57.4301 31.9748 57.7701 33.4548C58.7901 37.9048 57.4201 41.9348 55.8001 45.6248C55.2701 46.8248 54.6401 47.9748 54.0201 49.0948L53.6501 49.7648C53.5601 49.9348 53.5101 50.0548 53.4901 50.1248C53.5201 50.1248 53.5601 50.1248 53.6101 50.1248C53.7001 50.1248 53.7901 50.1248 53.9001 50.1048C55.6701 49.9148 57.0901 49.2448 58.1201 48.1048C63.4001 42.2348 66.7001 36.2748 68.2201 29.8948C68.7001 27.8748 68.4101 25.7948 68.0101 23.8548C67.9201 23.3948 67.7601 23.1148 67.4901 22.9648C67.1401 22.7648 66.7801 22.5148 66.6701 22.0848C66.6001 21.8048 66.6701 21.5148 66.8501 21.2248C67.1801 20.7348 67.6601 20.4648 68.2001 20.4648C68.4201 20.4648 68.6601 20.5148 68.8901 20.5948C69.7901 20.9348 70.3901 21.6448 70.7101 22.7648C71.8601 26.7448 71.7201 30.4648 70.2901 33.8248C67.8201 39.5948 65.2901 44.0448 62.3101 47.8348C60.4801 50.1648 57.8501 52.8348 53.7601 52.8348C53.3201 52.8348 52.8701 52.8048 52.4101 52.7448C52.3601 52.7448 52.3201 52.7448 52.2701 52.7448C51.8301 52.7448 51.5501 53.0748 51.1401 53.5948L51.0201 53.7448C50.6501 54.2048 50.2901 54.6748 49.9401 55.1448C48.7901 56.6448 47.6101 58.1948 46.0901 59.4548C44.2901 60.9548 41.4701 62.9348 37.8001 62.9348C37.6501 62.9348 37.3401 62.9348 37.3401 62.9348C36.6201 62.9348 36.0901 63.2348 35.4701 63.9248C34.0001 65.5948 32.5601 66.8948 31.0701 67.8848C29.6701 68.8148 28.2601 69.2848 26.8701 69.2848L26.8801 69.3148ZM39.9801 42.6448C39.8501 42.6448 39.5401 42.7248 38.9401 43.2448C35.0101 46.6648 33.8001 51.3648 33.1901 55.0748C33.2101 56.9148 33.5001 58.4248 34.9001 59.5548C35.1901 59.7848 35.3101 59.7948 35.3301 59.7948C35.3601 59.7948 35.4601 59.7348 35.5901 59.4948C35.9201 58.8848 36.2701 58.2848 36.6201 57.6748C37.8301 55.5748 39.0801 53.3948 39.7701 51.0448C40.5201 48.4848 41.1001 46.1748 40.6001 43.8248C40.5301 43.4748 40.3201 42.6448 39.9901 42.6448H39.9801ZM54.3601 33.3448C53.8201 33.3448 53.3501 33.5648 53.2601 33.7548C52.7501 34.9048 52.1001 35.9948 51.4801 37.0448C50.3401 38.9648 49.2601 40.7848 48.9201 42.9548C48.5701 45.2448 49.0701 47.1248 50.4701 48.7048C50.6301 48.8848 50.7201 48.9648 50.7701 48.9948C50.7801 48.9648 50.8301 48.9048 50.9001 48.7848L51.1401 48.3548C53.2201 44.6648 55.1801 41.1748 55.1301 36.9148C55.1301 36.7148 55.1301 36.5148 55.1301 36.3148C55.1301 35.6048 55.1401 34.9248 54.9201 34.2948C54.8701 34.1548 54.8401 34.0048 54.8001 33.8548C54.6801 33.3548 54.6401 33.3448 54.5201 33.3348C54.4701 33.3348 54.4101 33.3348 54.3601 33.3348V33.3448Z" fill="#0A0A0A"/>
<path d="M68.2 21.0149C68.36 21.0149 68.53 21.0449 68.71 21.1149C69.57 21.4449 69.99 22.1349 70.23 22.9549C71.28 26.5749 71.29 30.2449 69.83 33.6749C67.73 38.5849 65.24 43.3449 61.91 47.5749C59.78 50.2749 57.29 52.3849 53.76 52.3849C53.35 52.3849 52.92 52.3549 52.48 52.2949C52.41 52.2949 52.34 52.2849 52.27 52.2849C51.5 52.2849 51.07 52.9149 50.63 53.4749C49.08 55.4149 47.7 57.5049 45.77 59.1049C43.44 61.0349 40.9 62.4749 37.8 62.4749C37.66 62.4749 37.51 62.4749 37.37 62.4749C37.33 62.4749 37.3 62.4749 37.26 62.4749C36.33 62.4749 35.68 62.9849 35.1 63.6349C33.82 65.0949 32.42 66.4249 30.8 67.5049C29.46 68.3949 28.13 68.8249 26.88 68.8249C24.67 68.8249 22.71 67.4849 21.45 64.9749C19.83 61.7449 19.83 58.2949 20.19 54.9149C20.51 51.9049 21.57 49.0049 24.05 46.9249C24.34 46.6749 24.63 46.3649 24.98 46.2649C25.15 46.2149 25.34 46.1649 25.53 46.1649C25.77 46.1649 26 46.2549 26.15 46.5549C26.36 46.9949 26.02 47.2549 25.74 47.5249C21.06 51.8549 21.02 57.2749 22.52 62.8149C23.33 65.7949 24.71 67.2449 26.57 67.2449C27.78 67.2449 29.19 66.6349 30.78 65.4349C31.09 65.2049 31.39 64.9549 31.67 64.6849C32.46 63.9149 33.54 63.2449 33.93 62.3049C34.47 61.0049 32.73 60.7649 32.19 59.8749C31.23 58.3049 30.69 56.6749 30.85 54.8649C31.24 50.2549 33.18 46.2649 36.02 42.7149C36.97 41.5249 38.16 40.4649 39.63 40.4649C40.03 40.4649 40.44 40.5449 40.88 40.7149C42.95 41.5249 43.11 43.4649 43.04 45.4649C42.86 49.9249 41.54 54.0149 39.25 57.8249C38.69 58.7549 38.16 59.6949 37.55 60.7449C37.76 60.7649 37.97 60.7749 38.17 60.7749C39.78 60.7749 41.05 60.1349 42.27 59.4049C45.08 57.7249 47.12 55.2549 48.99 52.6349C49.53 51.8749 49.61 51.0449 48.93 50.3549C45.75 47.1349 45.92 43.4549 47.41 39.5949C48.47 36.8449 49.94 34.3349 51.93 32.1449C52.58 31.4349 53.33 30.9049 54.23 30.9049C54.48 30.9049 54.74 30.9449 55.01 31.0349C56.25 31.4249 57.03 32.3049 57.33 33.6149C58.29 37.8349 57.05 41.6949 55.39 45.4749C54.77 46.8849 54 48.2249 53.26 49.5749C52.83 50.3549 52.96 50.6749 53.65 50.6749C53.75 50.6749 53.87 50.6749 53.99 50.6549C55.76 50.4649 57.35 49.7949 58.52 48.4849C63.33 43.1349 67.05 37.1349 68.74 30.0549C69.23 27.9949 68.96 25.8749 68.54 23.8049C68.44 23.3049 68.24 22.8449 67.77 22.5749C67.35 22.3349 66.97 22.0449 67.31 21.5449C67.54 21.1949 67.86 21.0049 68.24 21.0049M50.78 49.5149C50.96 49.5149 51.14 49.3849 51.34 49.0349C53.47 45.2449 55.68 41.4849 55.64 36.9249C55.63 35.9949 55.72 35.0549 55.4 34.1449C55.22 33.6449 55.26 32.9249 54.58 32.8549C54.51 32.8549 54.44 32.8549 54.37 32.8549C53.75 32.8549 53.02 33.0949 52.82 33.5649C51.43 36.7049 48.99 39.3649 48.44 42.8949C48.09 45.1749 48.54 47.2749 50.11 49.0549C50.34 49.3149 50.57 49.5249 50.79 49.5249M35.33 60.2949C35.59 60.2949 35.81 60.1249 36.03 59.7349C37.56 56.9449 39.35 54.2649 40.25 51.1849C40.96 48.7649 41.63 46.2849 41.09 43.7249C40.87 42.6649 40.52 42.1449 39.99 42.1449C39.63 42.1449 39.18 42.3849 38.63 42.8649C34.94 46.0749 33.48 50.3649 32.71 54.9849C32.72 56.9049 33.01 58.6449 34.6 59.9349C34.88 60.1649 35.13 60.2849 35.35 60.2849M68.2 20.0149C67.48 20.0149 66.85 20.3649 66.43 21.0049C66.09 21.5149 66.11 21.9649 66.18 22.2549C66.35 22.9549 66.97 23.3049 67.24 23.4649C67.3 23.4949 67.43 23.5749 67.52 24.0249C67.9 25.9049 68.19 27.9149 67.73 29.8449C66.23 36.1349 62.96 42.0249 57.74 47.8349C56.9 48.7749 55.76 49.3649 54.34 49.6049L54.46 49.3849C55.08 48.2549 55.72 47.0949 56.26 45.8749C57.92 42.1049 59.31 37.9749 58.26 33.3849C57.88 31.7149 56.84 30.5749 55.27 30.0749C54.91 29.9649 54.55 29.9049 54.19 29.9049C53.1 29.9049 52.11 30.4149 51.15 31.4749C49.16 33.6649 47.58 36.2749 46.44 39.2449C45.25 42.3549 44.13 46.9549 48.19 51.0649C48.33 51.2149 48.57 51.4549 48.14 52.0549C46.42 54.4649 44.46 56.9149 41.72 58.5449C40.98 58.9849 40.2 59.4149 39.31 59.6349C39.57 59.1949 39.82 58.7649 40.07 58.3449C42.5 54.3049 43.82 49.9849 44 45.5149C44.06 44.0349 44.18 40.9549 41.21 39.7949C40.67 39.5849 40.13 39.4749 39.59 39.4749C38.04 39.4749 36.61 40.3349 35.2 42.1049C31.96 46.1649 30.2 50.3149 29.82 54.7949C29.66 56.6849 30.15 58.5149 31.31 60.4149C31.62 60.9149 32.08 61.2349 32.49 61.5049C32.66 61.6149 32.91 61.7849 33 61.8849C33 61.8949 33 61.9149 32.98 61.9349C32.79 62.3749 32.28 62.8149 31.74 63.2749C31.47 63.5049 31.2 63.7349 30.94 63.9849C30.73 64.1849 30.49 64.3949 30.15 64.6449C28.74 65.7049 27.52 66.2449 26.55 66.2449C25.17 66.2449 24.13 65.0049 23.46 62.5449C21.72 56.1449 22.63 51.7349 26.39 48.2549L26.44 48.2049C26.74 47.9349 27.53 47.2049 27.03 46.1249C26.74 45.5049 26.19 45.1549 25.51 45.1549C25.21 45.1549 24.94 45.2249 24.68 45.2949C24.19 45.4349 23.83 45.7549 23.54 46.0149C23.49 46.0649 23.44 46.1049 23.39 46.1549C20.99 48.1849 19.57 51.0949 19.18 54.8049C18.84 58.0349 18.74 61.8149 20.54 65.4149C21.94 68.2149 24.25 69.8249 26.86 69.8249C28.35 69.8249 29.85 69.3249 31.33 68.3349C32.85 67.3249 34.32 65.9949 35.83 64.2949C36.35 63.7049 36.76 63.4649 37.24 63.4649H37.31C37.47 63.4649 37.63 63.4749 37.78 63.4749C41.61 63.4749 44.53 61.4249 46.39 59.8749C47.95 58.5849 49.15 57.0049 50.32 55.4849C50.68 55.0149 51.03 54.5549 51.4 54.0949L51.52 53.9449C51.87 53.4949 52.06 53.2849 52.26 53.2849C52.28 53.2849 52.31 53.2849 52.33 53.2849C52.81 53.3449 53.28 53.3849 53.75 53.3849C58.11 53.3849 60.94 50.4249 62.69 48.1949C65.7 44.3749 68.25 39.8849 70.74 34.0749C72.22 30.6049 72.37 26.7749 71.18 22.6749C70.81 21.3949 70.12 20.5749 69.06 20.1749C68.77 20.0649 68.47 20.0049 68.19 20.0049L68.2 20.0149ZM53.7 34.0049C53.78 33.9449 54.01 33.8649 54.28 33.8449C54.29 33.8949 54.3 33.9449 54.31 33.9849C54.35 34.1549 54.39 34.3249 54.44 34.4749C54.64 35.0249 54.63 35.6549 54.62 36.3249C54.62 36.5249 54.62 36.7349 54.62 36.9349C54.66 41.0549 52.73 44.4849 50.69 48.1149L50.66 48.1649C49.5 46.7449 49.09 45.0649 49.4 43.0249C49.72 40.9449 50.78 39.1749 51.89 37.2949C52.52 36.2449 53.16 35.1549 53.68 33.9949L53.7 34.0049ZM33.7 55.0649C34.6 49.7149 36.32 46.1849 39.27 43.6149C39.57 43.3549 39.76 43.2349 39.87 43.1849C39.93 43.2949 40.01 43.5149 40.1 43.9249C40.57 46.1649 40.01 48.4149 39.28 50.9049C38.61 53.1949 37.43 55.2549 36.18 57.4249C35.85 57.9949 35.52 58.5749 35.2 59.1449C33.98 58.1549 33.72 56.8449 33.7 55.0649Z" fill="white"/>
</svg>
