<svg width="90" height="90" viewBox="0 0 90 90" fill="none" xmlns="http://www.w3.org/2000/svg">
<path d="M21.3484 29.7858L21.3478 29.7868C20.45 31.2152 19.7344 32.757 19.0365 34.2604C18.953 34.4402 18.8698 34.6195 18.7866 34.798C18.641 35.1082 18.6459 35.447 18.6629 35.6908C18.6699 35.79 18.6807 35.892 18.6902 35.9811C18.6927 36.0055 18.6952 36.0288 18.6975 36.0509C18.7 36.0753 18.7023 36.0984 18.7043 36.1204C18.6638 36.161 18.6204 36.2028 18.574 36.2469C18.5554 36.2647 18.536 36.283 18.5161 36.3018C18.4367 36.3771 18.3492 36.4598 18.2683 36.5425C18.0733 36.7415 17.8326 37.0195 17.7456 37.3818C17.6889 37.6093 17.6311 37.8383 17.5728 38.0686C17.1669 39.6744 16.7447 41.3447 16.6078 43.0248L16.6078 43.0253C16.0839 49.5335 17.4543 55.6199 21.0712 61.1566C24.6636 66.6621 29.4732 70.7401 35.7481 72.8383L35.7483 72.8384C44.9329 75.9041 53.6716 74.7119 61.791 69.3918C66.8546 66.0801 70.3884 61.4686 72.4862 55.9637L72.4864 55.9632C75.7639 47.3325 75.0346 38.8035 70.3408 30.7824L70.3407 30.7822C67.274 25.5452 62.9155 21.6998 57.3279 19.1686L57.3276 19.1684C53.2546 17.3272 49.0438 16.422 44.6293 16.5053L44.6289 16.5053C38.5856 16.6244 33.1617 18.6283 28.3694 22.3264C25.6291 24.4327 23.2044 26.8475 21.3484 29.7858ZM65.7334 37.6316H65.7286L65.7407 38.1434C65.8746 43.8089 61.5311 48.3019 55.7126 48.4698C53.1987 48.5414 50.6637 47.4365 48.7156 45.6931C46.7657 43.9481 45.457 41.6119 45.3255 39.2842C44.965 32.8661 49.6688 28.2541 54.4607 28.1442L54.461 28.1442C57.8362 28.0649 60.6308 29.0677 62.5888 30.8186C64.4341 32.4689 65.5692 34.8123 65.7334 37.6316Z" fill="black" stroke="white"/>
<path d="M65.9885 38.3279C66.1262 44.1859 61.6387 48.8239 55.6935 48.9965C50.46 49.1462 45.2953 44.4045 45.0198 39.4903C44.6525 32.9187 49.45 28.1195 54.4425 28.0044C61.2599 27.8433 65.8967 32.0786 66 38.3279H65.9885ZM58.471 36.6476C58.5743 36.3599 58.6317 36.1757 58.712 36.0031C60.1811 32.7231 58.999 30.4098 55.5214 29.7423C53.708 29.397 51.7913 30.3868 50.8272 32.1591C49.932 33.8049 50.173 35.7039 51.6306 37.0619C52.3537 37.7294 52.3537 38.2588 51.952 39.0759C51.2289 40.5491 51.4011 42.0798 52.0438 43.5529C52.8243 45.3367 54.6032 45.4633 56.1526 45.8661C58.5284 46.4876 60.5254 45.613 61.4436 43.691C62.6028 41.2626 62.1437 39.2946 60.0089 37.6603C59.5499 37.3151 59.0449 37.0274 58.471 36.6591V36.6476Z" fill="white"/>
<path d="M28.3221 27C28.2453 36.4521 29.7269 45.7142 31 55C28.9257 45.7854 27.2795 36.5233 28.3221 27Z" fill="white"/>
<path d="M36 24.0113V39C35.6523 34.0075 34.4144 29.0377 35.3324 24C35.5549 24 35.7775 24 36 24V24.0113Z" fill="white"/>
<path d="M31 62C28.6437 59.4421 29.2753 55.9961 28 53.1184C28.1215 53.0829 28.2429 53.0355 28.3644 53C28.8623 54.4921 29.3968 55.9605 29.834 57.4645C30.2713 58.9566 30.6113 60.4842 31 62Z" fill="white"/>
<path d="M39.1184 58C38.75 56.0224 38.3816 54.0559 38 52.0782C38.1316 52.0559 38.2763 52.0223 38.4079 52C38.9342 53.9441 39.4737 55.8883 40 57.8324C39.7105 57.8883 39.4079 57.9441 39.1184 58Z" fill="white"/>
<path d="M58.3342 36.247C58.9197 36.6291 59.435 36.9277 59.9034 37.2859C62.0816 38.9814 62.55 41.0233 61.3672 43.5427C60.4304 45.5368 58.3927 46.4323 55.9686 45.7995C54.3877 45.3816 52.5725 45.2621 51.7762 43.3994C51.1204 41.871 50.9447 40.2949 51.6825 38.7545C52.0924 37.9068 52.0924 37.3694 51.3546 36.665C49.8673 35.256 49.6214 33.2858 50.5348 31.5783C51.5185 29.7395 53.4742 28.7126 55.3245 29.0708C58.8846 29.7633 60.0908 32.1634 58.5801 35.5664C58.4981 35.7455 58.4396 35.9366 58.3342 36.2351V36.247ZM57.0343 43.0412C57.6784 42.1696 58.2522 41.7039 58.4161 41.1307C58.6269 40.3904 56.8352 39.077 55.8281 39.1367C54.6336 39.1964 54.3525 40.4023 54.6219 40.9755C54.9849 41.7397 55.992 42.1934 57.046 43.0532L57.0343 43.0412ZM54.9381 32.0082C54.1886 32.6768 53.6499 33.1664 53.0995 33.644C53.5562 34.0261 54.1183 34.8142 54.4462 34.7187C55.0318 34.5515 55.547 33.9067 55.9335 33.3574C56.0155 33.238 55.4065 32.6291 54.9498 32.0082H54.9381Z" fill="black"/>
<path d="M57.5796 43C56.5006 42.1222 55.4695 41.6712 55.0978 40.8787C54.822 40.2936 55.0978 39.0623 56.3327 39.0013C57.3758 38.9525 59.1982 40.2936 58.9824 41.0372C58.8146 41.6346 58.2391 42.11 57.5676 42.9878L57.5796 43Z" fill="white"/>
<path d="M54.9522 32C55.434 32.672 56.0888 33.3573 55.99 33.489C55.5823 34.1083 55.0386 34.8067 54.4209 34.9912C54.0873 35.0966 53.4819 34.2269 53 33.8053C53.5683 33.265 54.149 32.7379 54.9398 32H54.9522Z" fill="white"/>
</svg>
