<svg width="90" height="90" viewBox="0 0 90 90" fill="none" xmlns="http://www.w3.org/2000/svg">
<path d="M41.97 69.2549C41.4 69.2549 40.79 69.0449 40.11 68.6249C37.3 66.8849 35.71 64.1849 34.18 61.5749L33.84 60.9949C29.92 54.3449 27.49 46.9349 26.63 38.9449C26.09 33.8949 27.21 28.8849 29.95 24.0449C30.56 22.9649 31.54 22.0249 32.86 21.2549C33.69 20.7649 34.53 20.5149 35.36 20.5149C36.31 20.5149 37.27 20.8449 38.2 21.4849C40 22.7249 41.32 24.4949 42.37 27.0749C42.51 27.4149 42.62 27.7749 42.74 28.1249C42.8 28.3049 42.85 28.4849 42.92 28.6649C43.08 29.1349 43.25 29.6149 43.36 29.8049C43.54 29.7049 43.93 29.3749 44.31 29.0549C48.13 25.8749 51.68 24.3949 55.49 24.3949C55.91 24.3949 56.33 24.4149 56.76 24.4449C61.49 24.8449 64.39 28.1249 64.31 32.9849C63.89 38.7449 61.77 44.2949 58.02 49.5149C54.98 53.7449 51.77 57.9549 48.67 62.0349C47.18 63.9949 45.69 65.9549 44.2 67.9249C43.54 68.8049 42.81 69.2349 41.98 69.2349L41.97 69.2549Z" fill="#0A0A0A"/>
<path d="M35.36 21.0149C36.22 21.0149 37.07 21.3149 37.92 21.8949C39.87 23.2349 41.04 25.1249 41.91 27.2549C42.12 27.7649 42.26 28.2949 42.44 28.8149C42.8 29.8549 42.96 30.3249 43.28 30.3249C43.55 30.3249 43.93 30.0049 44.63 29.4249C47.82 26.7649 51.29 24.8949 55.48 24.8949C55.88 24.8949 56.29 24.9149 56.7 24.9449C61.11 25.3249 63.87 28.2949 63.8 32.9849C63.37 38.8349 61.14 44.3249 57.6 49.2349C53.12 55.4549 48.4 61.5049 43.79 67.6349C43.22 68.3849 42.64 68.7449 41.97 68.7449C41.49 68.7449 40.96 68.5549 40.37 68.1949C37.46 66.3949 35.93 63.5449 34.27 60.7349C30.28 53.9649 27.97 46.6749 27.13 38.8849C26.57 33.6549 27.82 28.8149 30.38 24.2849C31.01 23.1749 31.99 22.3349 33.11 21.6749C33.87 21.2249 34.62 21.0049 35.36 21.0049M35.36 20.0149C34.44 20.0149 33.51 20.2849 32.6 20.8149C31.21 21.6349 30.17 22.6349 29.51 23.7949C26.72 28.7249 25.58 33.8449 26.14 38.9949C27.01 47.0549 29.46 54.5349 33.41 61.2449L33.75 61.8249C35.31 64.4849 36.93 67.2349 39.85 69.0449C40.61 69.5149 41.31 69.7449 41.97 69.7449C42.95 69.7449 43.84 69.2349 44.59 68.2349C46.08 66.2549 47.57 64.2849 49.07 62.3249C52.17 58.2549 55.37 54.0449 58.41 49.8249C62.22 44.5349 64.37 38.8949 64.79 33.0649C64.79 33.0449 64.79 33.0249 64.79 33.0049C64.87 27.8549 61.8 24.3849 56.78 23.9549C56.34 23.9149 55.9 23.8949 55.47 23.8949C51.53 23.8949 47.88 25.4049 43.98 28.6549C43.84 28.7749 43.69 28.8949 43.55 29.0049C43.49 28.8449 43.43 28.6649 43.37 28.4949C43.31 28.3149 43.25 28.1449 43.2 27.9649C43.09 27.6149 42.97 27.2449 42.82 26.8749C41.74 24.2049 40.36 22.3549 38.47 21.0649C37.45 20.3649 36.4 20.0049 35.34 20.0049L35.36 20.0149Z" fill="white"/>
</svg>
