<svg width="90" height="90" viewBox="0 0 90 90" fill="none" xmlns="http://www.w3.org/2000/svg">
<path d="M63.9201 62.1749C63.1501 57.4449 61.3001 53.0349 59.9701 48.4749C57.6101 40.4049 54.4101 32.6349 51.2801 24.8549C50.6001 23.1849 49.7301 21.4749 48.3101 20.2949C42.1401 15.1949 31.8001 15.7949 26.9801 23.8849C26.2101 25.1749 25.9301 26.4849 26.0201 27.9949C26.4101 34.6949 28.2301 41.0749 30.2701 47.4049C31.1301 50.0849 31.7601 52.8449 33.0901 55.3649C34.1101 57.2849 35.5301 57.6649 37.3201 56.4949C37.6301 56.2849 37.9301 56.0649 38.3401 55.7849C39.6701 60.7649 42.3401 64.9649 44.8101 69.2649C46.3601 71.9549 48.6701 73.2349 51.7901 73.2149C54.1101 73.2049 56.2801 72.6749 58.4101 71.8449C62.9501 70.0749 64.7001 67.0149 63.9201 62.1749ZM58.6601 69.7249C56.2001 70.9549 53.6101 71.6649 50.8001 71.4349C48.8901 71.2749 47.4301 70.4249 46.4301 68.7949C43.6701 64.3149 41.2101 59.7049 39.5201 54.6849C38.3001 51.0449 36.4801 47.6349 35.9401 43.7449C35.5901 41.2649 35.6301 38.8849 36.4701 36.5449C37.1401 34.6549 38.4801 33.4149 40.4201 32.8049C43.2701 31.9149 45.1901 32.4949 46.2501 35.2549C47.9401 39.6649 49.2601 44.2249 50.7301 48.7149C49.5601 48.5149 49.2901 47.7449 49.0201 46.9749C48.0701 44.2049 47.1501 41.4249 46.1501 38.6649C45.8101 37.7449 45.2701 36.8849 44.8401 35.9949C43.7401 33.7349 41.1601 33.4149 39.2601 35.9649C37.5301 38.2849 37.0501 40.9249 37.8201 43.7049C39.7701 50.7949 41.8801 57.8449 45.4701 64.3249C45.7901 64.9049 46.1801 65.4549 46.5801 65.9849C49.0401 69.2949 51.6101 70.0149 55.4501 68.4849C58.9001 67.1049 60.0601 65.2649 59.3601 61.6249C58.4701 56.9749 57.8801 52.2649 56.4301 47.7449C54.1501 40.6349 51.9101 33.5149 48.4901 26.8349C47.0901 24.0949 45.2401 21.7249 42.0201 21.0849C38.7201 20.4249 35.6101 21.0849 32.8901 23.1149C31.3601 24.2649 30.5501 25.8549 30.3801 27.7949C30.0001 32.1949 30.9501 36.4049 32.2001 40.5549C33.4301 44.6349 34.8501 48.6549 36.4301 52.6149C36.5901 53.0249 36.7101 53.4649 36.8001 53.8949C36.9601 54.6449 36.6901 55.2349 35.9401 55.4649C35.2101 55.6749 34.7701 55.2049 34.5001 54.6149C33.4501 52.2949 32.7401 49.8449 32.0101 47.4049C30.0801 41.0449 28.1401 34.6849 27.7001 27.9949C27.6301 26.8949 27.7301 25.8949 28.3001 24.9549C32.7101 17.6649 40.8301 17.4849 46.5701 20.9649C47.6501 21.6149 48.2301 22.7249 48.7601 23.8249C53.3501 33.3249 56.6601 43.3049 59.7601 53.3449C60.7301 56.4649 61.7801 59.5649 62.2301 62.8149C62.7101 66.2649 61.7401 68.1849 58.6601 69.7249ZM52.5501 48.3949C50.9501 43.8149 49.6901 39.1049 47.7001 34.6549C46.0601 30.9849 42.3901 29.8849 38.8801 31.8149C35.9701 33.4149 34.6501 35.8749 34.2901 39.0249C34.2401 39.5049 34.3401 40.0049 33.9101 40.6149C32.9901 38.1149 32.5101 35.6349 32.1401 33.1449C31.8501 31.1749 31.5801 29.1949 32.0701 27.2049C32.3901 25.8949 33.0401 24.8249 34.1301 24.0849C37.7201 21.6849 43.4901 21.3949 46.4201 26.4449C48.7301 30.4349 50.1801 34.7949 51.7801 39.0949C54.4801 46.3249 56.3501 53.7649 57.6401 61.3649C58.1601 64.4649 57.7701 65.4449 55.3601 66.6549C52.6101 68.0449 50.5001 67.7749 48.6301 65.6549C45.9301 62.5949 44.6601 58.7749 43.2401 55.0649C41.6901 50.9749 40.4501 46.7849 39.2801 42.5749C38.6601 40.3649 39.1201 38.5549 40.5001 36.8549C41.6301 35.4649 42.7301 35.4949 43.6401 37.0649C44.9701 39.3849 45.5901 41.9849 46.4301 44.5049C46.9701 46.1249 47.3601 47.8249 48.3101 49.2649C49.5801 51.1949 50.9701 51.2149 52.3901 49.5449C52.7701 49.0949 52.7001 48.8349 52.5501 48.3949Z" fill="#0C0C0C"/>
<path d="M50.73 48.7149C49.56 48.5149 49.29 47.7449 49.03 46.9649C48.08 44.1949 47.16 41.4149 46.16 38.6649C45.82 37.7349 45.28 36.8849 44.85 35.9949C43.75 33.7349 41.18 33.4149 39.27 35.9649C37.54 38.2849 37.06 40.9249 37.83 43.7049C39.78 50.7949 41.89 57.8449 45.48 64.3249C45.8 64.9049 46.19 65.4449 46.59 65.9849C49.05 69.2949 51.62 70.0149 55.46 68.4849C58.91 67.1149 60.08 65.2749 59.38 61.6249C58.49 56.9849 57.89 52.2649 56.44 47.7449C54.16 40.6349 51.92 33.5149 48.51 26.8349C47.11 24.0949 45.26 21.7249 42.03 21.0849C38.73 20.4249 35.62 21.0749 32.9 23.1149C31.37 24.2649 30.56 25.8549 30.39 27.7949C30.01 32.1949 30.97 36.4049 32.22 40.5549C33.45 44.6349 34.87 48.6549 36.45 52.6149C36.61 53.0249 36.73 53.4549 36.82 53.8949C36.98 54.6549 36.71 55.2349 35.96 55.4649C35.24 55.6749 34.8 55.2049 34.53 54.6149C33.47 52.2949 32.77 49.8449 32.03 47.4049C30.11 41.0449 28.16 34.6849 27.73 27.9949C27.66 26.9049 27.76 25.8949 28.33 24.9649C32.7 17.6649 40.82 17.4749 46.56 20.9549C47.64 21.6149 48.22 22.7149 48.76 23.8249C53.34 33.3249 56.65 43.2949 59.76 53.3449C60.72 56.4649 61.78 59.5549 62.23 62.8149C62.7 66.2649 61.74 68.1849 58.66 69.7249C56.19 70.9549 53.6 71.6649 50.8 71.4349C48.89 71.2749 47.43 70.4249 46.43 68.8049C43.67 64.3249 41.21 59.7149 39.52 54.6849C38.3 51.0449 36.47 47.6349 35.94 43.7449C35.6 41.2649 35.63 38.8849 36.47 36.5449C37.14 34.6649 38.49 33.4149 40.42 32.8149C43.27 31.9249 45.2 32.4949 46.26 35.2649C47.95 39.6749 49.26 44.2349 50.74 48.7249L50.73 48.7149Z" fill="#F2F2F2"/>
</svg>
