<svg width="90" height="90" viewBox="0 0 90 90" fill="none" xmlns="http://www.w3.org/2000/svg">
<path d="M75.0198 23.2649C75.2698 31.7249 76.3799 40.1149 76.9698 48.5449C77.4499 55.4349 78.1599 62.3049 78.7198 69.1949C78.9099 71.5149 77.8098 73.4449 76.5598 75.2849C76.2898 75.6849 75.9198 76.0149 75.6298 76.4049C74.4698 78.0249 73.0498 78.8249 70.8998 78.8649C66.6498 78.9449 62.4098 79.4949 58.1598 79.6649C50.1498 79.9749 42.1598 80.5749 34.1698 81.1449C31.4698 81.3349 28.7598 81.2249 26.0498 81.2449C25.7198 81.2449 25.3798 81.2049 25.0598 81.2249C20.6998 81.5949 18.2298 80.0449 16.7098 75.8349C16.3298 74.8049 16.0498 74.0849 14.6698 74.3649C13.4498 74.6049 12.5398 73.8149 12.0898 72.6949C10.9698 69.9149 10.6398 67.0149 11.4098 64.1049C11.7398 62.8749 12.3998 61.7649 14.0698 61.8949C15.1398 61.9849 15.0798 61.0949 15.0398 60.3749C14.8098 56.3449 14.3998 52.3249 14.3598 48.2949C14.2698 38.5649 14.2698 28.8349 14.6598 19.1149C14.8298 14.8449 17.0198 13.0149 21.2298 12.6249C27.6598 12.0249 34.0798 11.2649 40.4898 10.5149C47.5798 9.69494 54.7398 9.87494 61.8198 9.09494C65.5098 8.68494 68.5698 9.57494 71.4198 11.6649C73.8498 13.4549 75.0599 15.8949 75.0098 18.9349C74.9898 20.3749 75.0098 21.8149 75.0098 23.2449L75.0198 23.2649ZM72.7598 23.4749C72.8198 23.4749 72.8798 23.4749 72.9398 23.4749C72.9398 22.7049 72.9998 21.9249 72.9298 21.1549C72.6998 18.6449 72.8998 15.8949 70.7598 14.0749C68.3198 12.0049 65.5598 10.5849 62.1398 11.0049C58.7898 11.4149 55.4198 11.5849 52.0498 11.6149C44.4098 11.6849 36.8698 13.0449 29.2698 13.5749C28.4898 13.6249 28.2298 14.1049 28.2698 14.8049C28.3798 16.7349 28.4998 18.6549 28.6198 20.5849C28.6698 21.3349 29.2298 21.5949 29.8098 21.8049C31.7198 22.4949 32.4498 23.9649 32.6698 25.8749C33.0598 29.2349 32.9898 32.6149 33.2598 35.9749C33.3898 37.5949 32.8098 38.6449 31.2098 39.0849C30.5298 39.2749 29.9598 39.5349 30.0398 40.4149C30.5398 45.8049 30.8598 51.2149 31.5698 56.5749C32.4798 63.5349 33.1098 70.5249 33.8598 77.4949C34.0098 78.9249 34.4898 79.0849 35.6798 79.0049C39.9798 78.7149 44.2898 78.5049 48.5898 78.2549C56.0898 77.8149 63.6098 77.5249 71.0798 76.6449C72.4898 76.4749 73.5998 75.8749 74.4198 74.7549C76.0098 72.5749 76.7798 70.2049 76.3598 67.4549C76.0499 65.4349 75.9398 63.3849 75.7798 61.3449C75.2198 54.1849 74.9998 46.9949 74.1898 39.8549C73.5698 34.4249 73.2298 28.9649 72.7698 23.5149L72.7598 23.4749ZM16.0198 40.7049C16.0998 49.4949 16.5098 58.0949 17.4398 66.6749C17.7298 69.4049 17.7598 72.1949 18.6598 74.8449C19.7198 77.9549 21.2298 79.1149 24.4598 79.2349C25.6698 79.2849 26.8898 79.3149 28.0998 79.2649C32.5098 79.1049 32.5598 79.0649 31.9198 74.6149C30.9498 67.8149 30.4698 60.9549 29.5898 54.1449C29.0098 49.6249 28.9698 45.0249 28.7498 40.4549C28.7298 39.9349 28.6298 39.7749 28.1898 39.7249C26.5898 39.5549 26.1298 38.3949 25.6298 37.0749C24.1498 33.2149 24.1298 29.1849 24.0598 25.1549C24.0298 23.6749 24.5698 22.5549 26.1198 22.1949C26.6998 22.0649 26.9398 21.8349 26.9498 21.2049C26.9698 19.1049 26.8298 17.0149 26.5398 14.9249C26.4298 14.1049 26.0498 13.7949 25.1898 13.9649C23.4598 14.2949 21.7098 14.5649 19.9598 14.8349C18.1098 15.1249 16.9098 16.3049 16.7198 18.1749C16.5398 19.9249 16.3998 21.6849 16.2698 23.4449C15.8498 29.2449 16.1598 35.0449 16.0098 40.6749L16.0198 40.7049ZM31.2798 32.9749C31.3098 30.3649 30.9098 27.7949 30.6198 25.2149C30.5298 24.4549 30.2898 23.8349 29.3898 23.6949C26.9698 23.3249 26.0398 24.1049 26.0498 26.5249C26.0498 27.1349 26.0098 27.7449 26.0298 28.3449C26.0898 31.0549 26.3498 33.7449 27.2298 36.3249C27.6298 37.5149 28.2498 38.0949 29.7298 37.5249C31.0098 37.0349 31.4998 36.4349 31.3098 35.1149C31.2098 34.4149 31.2898 33.6849 31.2898 32.9649L31.2798 32.9749ZM15.8798 68.9549C15.8498 67.6049 15.6998 66.1349 15.4298 64.6649C15.3498 64.2149 15.6598 63.6449 14.8598 63.5749C14.1398 63.5149 13.5398 63.6149 13.2798 64.4049C12.4498 66.9349 12.8798 69.4149 13.7298 71.8349C13.9798 72.5549 14.6898 72.6749 15.3998 72.5149C16.1598 72.3549 16.0798 71.7849 16.0398 71.2249C15.9898 70.5149 15.9398 69.7949 15.8898 68.9449L15.8798 68.9549Z" fill="#0B0B0B"/>
<path d="M72.7598 23.4749C73.2298 28.9249 73.5698 34.3849 74.1798 39.8149C74.9898 46.9649 75.2198 54.1449 75.7698 61.3049C75.9298 63.3449 76.0398 65.3949 76.3498 67.4149C76.7698 70.1649 76.0098 72.5449 74.4098 74.7149C73.5898 75.8349 72.4698 76.4449 71.0698 76.6049C63.5998 77.4849 56.0798 77.7749 48.5798 78.2149C44.2798 78.4649 39.9698 78.6749 35.6698 78.9649C34.4798 79.0449 33.9998 78.8949 33.8498 77.4549C33.0998 70.4849 32.4698 63.4949 31.5598 56.5349C30.8598 51.1749 30.5298 45.7649 30.0298 40.3749C29.9498 39.5049 30.5198 39.2349 31.1998 39.0449C32.7898 38.6049 33.3798 37.5549 33.2498 35.9349C32.9798 32.5749 33.0498 29.1949 32.6598 25.8349C32.4398 23.9249 31.7098 22.4649 29.7998 21.7649C29.2298 21.5549 28.6598 21.2949 28.6098 20.5449C28.4898 18.6149 28.3698 16.6949 28.2598 14.7649C28.2198 14.0649 28.4798 13.5849 29.2598 13.5349C36.8598 13.0149 44.3998 11.6449 52.0398 11.5749C55.4198 11.5449 58.7898 11.3749 62.1298 10.9649C65.5498 10.5449 68.3098 11.9649 70.7498 14.0349C72.8898 15.8549 72.6798 18.6049 72.9198 21.1149C72.9898 21.8849 72.9298 22.6549 72.9298 23.4349C72.8698 23.4349 72.8098 23.4349 72.7498 23.4349L72.7598 23.4749ZM33.9498 51.8349C33.9498 64.2749 44.1398 71.7749 53.4798 71.6149C64.6698 71.4249 72.9398 62.8549 72.7998 51.5249C72.6598 40.8049 63.7798 32.6049 52.4998 32.7649C42.7298 32.9149 33.8098 42.0849 33.9598 51.8249L33.9498 51.8349Z" fill="#FCFCFC"/>
<path d="M16.02 40.7049C16.17 35.0749 15.86 29.2649 16.28 23.4749C16.41 21.7149 16.55 19.9549 16.73 18.2049C16.92 16.3349 18.11 15.1449 19.97 14.8649C21.72 14.5949 23.46 14.3249 25.2 13.9949C26.06 13.8249 26.44 14.1449 26.55 14.9549C26.84 17.0349 26.98 19.1249 26.96 21.2349C26.96 21.8649 26.71 22.0949 26.13 22.2249C24.57 22.5849 24.04 23.7049 24.07 25.1849C24.14 29.2149 24.16 33.2449 25.64 37.1049C26.14 38.4149 26.61 39.5849 28.2 39.7549C28.64 39.8049 28.74 39.9549 28.76 40.4849C28.97 45.0549 29.01 49.6449 29.6 54.1749C30.48 60.9849 30.96 67.8449 31.93 74.6449C32.56 79.1049 32.52 79.1349 28.11 79.2949C26.9 79.3449 25.68 79.3049 24.47 79.2649C21.23 79.1349 19.72 77.9849 18.67 74.8749C17.77 72.2249 17.75 69.4349 17.45 66.7049C16.53 58.1349 16.11 49.5249 16.03 40.7349L16.02 40.7049ZM17.01 30.8149C17.1 31.5649 17.12 32.6249 17.37 33.6349C17.71 35.0149 18.7 35.7749 20.14 35.7549C21.44 35.7349 22.69 35.3049 22.88 33.8649C23.14 31.8849 22.97 29.8649 21.78 28.1549C20.46 26.2549 18.08 26.4949 17.18 28.5549C16.9 29.1949 17.06 29.8549 17.01 30.8149Z" fill="#FCFCFC"/>
<path d="M31.2801 32.9748C31.2801 33.6948 31.2001 34.4248 31.3001 35.1248C31.4901 36.4448 30.9901 37.0448 29.7201 37.5348C28.2401 38.1048 27.6301 37.5348 27.2201 36.3348C26.3501 33.7548 26.0801 31.0648 26.0201 28.3548C26.0101 27.7448 26.0401 27.1348 26.0401 26.5348C26.0401 24.1048 26.9701 23.3248 29.3801 23.7048C30.2801 23.8448 30.5301 24.4748 30.6101 25.2248C30.9001 27.8048 31.3001 30.3748 31.2701 32.9848L31.2801 32.9748Z" fill="#F9F9F9"/>
<path d="M15.8802 68.9548C15.9402 69.8048 15.9802 70.5248 16.0302 71.2348C16.0702 71.7948 16.1502 72.3648 15.3902 72.5248C14.6702 72.6748 13.9702 72.5648 13.7202 71.8448C12.8702 69.4248 12.4402 66.9548 13.2702 64.4148C13.5302 63.6248 14.1302 63.5248 14.8502 63.5848C15.6602 63.6548 15.3402 64.2148 15.4202 64.6748C15.6902 66.1448 15.8402 67.6148 15.8702 68.9648L15.8802 68.9548Z" fill="#F2F2F2"/>
<path d="M33.9499 51.8349C33.7999 42.0849 42.7199 32.9149 52.4899 32.7749C63.7699 32.6049 72.6499 40.8149 72.7899 51.5349C72.9399 62.8649 64.6699 71.4449 53.4699 71.6249C44.1299 71.7849 33.9499 64.2749 33.9399 51.8449L33.9499 51.8349ZM53.3199 69.7149C63.3399 69.5949 70.9399 62.1149 70.8799 52.2749C70.8199 42.7449 63.7899 34.9349 53.5499 34.8449C42.7999 34.7549 35.8999 42.1149 35.6599 52.1149C35.4299 61.9049 43.4799 69.7549 53.3099 69.7249L53.3199 69.7149Z" fill="#0B0B0B"/>
<path d="M17.0101 30.8149C17.0601 29.8649 16.9001 29.1949 17.1801 28.5549C18.0801 26.4949 20.4601 26.2549 21.7801 28.1549C22.9701 29.8649 23.1501 31.8849 22.8801 33.8649C22.6901 35.3049 21.4401 35.7349 20.1401 35.7549C18.6901 35.7749 17.7101 35.0149 17.3701 33.6349C17.1201 32.6249 17.1001 31.5649 17.0101 30.8149ZM21.2901 32.5649C21.1201 31.5949 21.0801 30.5249 20.5601 29.5849C20.3101 29.1349 19.9201 28.7849 19.3501 28.8849C18.6901 28.9949 18.7301 29.5449 18.6901 30.0449C18.6101 31.0549 18.8601 32.0249 19.0401 32.9949C19.1901 33.7749 19.7201 34.1549 20.4701 34.0449C21.2401 33.9249 21.3001 33.2649 21.2801 32.5649H21.2901Z" fill="#0B0B0B"/>
<path d="M53.3199 69.7149C43.4799 69.7449 35.4399 61.9049 35.6699 52.1049C35.8999 42.1049 42.7999 34.7449 53.5599 34.8349C63.7999 34.9249 70.8199 42.7349 70.8899 52.2649C70.9499 62.1049 63.3499 69.5849 53.3299 69.7049L53.3199 69.7149ZM67.8099 52.1949C67.8099 44.8749 61.9299 38.7749 54.8699 38.7549C47.0699 38.7349 40.9699 44.5849 40.9299 52.1149C40.8999 59.6749 46.9499 65.6249 54.6899 65.6349C61.8999 65.6349 67.7999 59.5949 67.8099 52.1949Z" fill="#F9F9F9"/>
<path d="M21.2899 32.5649C21.2999 33.2649 21.2399 33.9249 20.4799 34.0449C19.7299 34.1649 19.1899 33.7749 19.0499 32.9949C18.8699 32.0249 18.6199 31.0549 18.6999 30.0449C18.7399 29.5449 18.6999 28.9949 19.3599 28.8849C19.9299 28.7849 20.3199 29.1349 20.5699 29.5849C21.0899 30.5249 21.1299 31.5949 21.2999 32.5649H21.2899Z" fill="#F2F2F2"/>
<path d="M67.8098 52.1949C67.8098 59.5949 61.8998 65.6449 54.6898 65.6349C46.9498 65.6349 40.8998 59.6749 40.9298 52.1149C40.9598 44.5949 47.0698 38.7349 54.8698 38.7549C61.9398 38.7749 67.8198 44.8849 67.8098 52.1949ZM57.4198 52.6949C57.3598 48.9249 56.8598 48.4449 53.7098 48.9149C52.7598 49.0549 52.4798 49.4749 52.6098 50.3449C52.7698 51.4949 52.8698 52.6549 53.0898 53.7849C53.4798 55.7749 53.8298 55.9449 55.7798 55.6049C57.5798 55.2949 57.4398 53.9849 57.4198 52.6949Z" fill="#020202"/>
<path d="M57.42 52.6948C57.43 53.9848 57.57 55.2948 55.77 55.6048C53.82 55.9348 53.47 55.7748 53.08 53.7848C52.86 52.6548 52.76 51.4948 52.6 50.3448C52.48 49.4848 52.75 49.0548 53.7 48.9148C56.85 48.4448 57.35 48.9248 57.41 52.7048L57.42 52.6948Z" fill="#F2F2F2"/>
</svg>
