<svg width="90" height="90" viewBox="0 0 90 90" fill="none" xmlns="http://www.w3.org/2000/svg">
<path d="M18.2902 27.2349C20.9302 27.5549 23.5802 27.8149 26.2102 28.2249C27.6002 28.4449 28.6102 28.2749 29.5602 27.0949C31.0502 25.2349 32.7302 23.5349 34.3502 21.7849C34.8002 21.2949 35.2702 20.8049 35.8202 20.4549C37.1002 19.6249 37.8902 19.9649 38.0902 21.4949C38.3602 23.5249 38.6002 25.5649 38.7002 27.6149C38.7602 28.9149 39.1102 29.5949 40.5402 29.8249C43.7602 30.3549 46.9502 31.0649 50.1402 31.7649C50.9002 31.9349 51.9102 31.9649 52.0302 33.0649C52.1402 34.0549 51.4002 34.5549 50.6602 34.9549C48.0802 36.3349 45.4902 37.7149 42.8702 39.0249C41.9902 39.4649 41.5202 40.0449 41.4002 41.0349C40.9702 44.4949 40.4802 47.9549 40.0402 51.4149C39.9102 52.4649 39.6102 53.3649 38.5902 53.8549C37.5402 54.3549 36.8202 53.7549 36.0802 53.1249C33.7102 51.1249 31.2802 49.1949 28.9402 47.1549C27.9802 46.3149 27.1502 46.1549 25.9602 46.7049C23.0402 48.0349 20.0602 49.2249 17.1102 50.4649C16.1702 50.8649 15.1302 51.2449 14.3502 50.3349C13.6002 49.4649 14.2302 48.5549 14.6802 47.7349C16.3102 44.7249 17.9102 41.6849 19.6402 38.7249C20.2702 37.6549 20.0702 36.9549 19.3402 36.0749C18.0202 34.5049 16.8102 32.8449 15.5702 31.2149C14.9202 30.3649 14.2502 29.4349 14.8502 28.3349C15.4302 27.2649 16.5502 27.2249 17.6402 27.2549C17.8602 27.2549 18.0802 27.2749 18.3002 27.2949C18.3002 27.2649 18.3002 27.2449 18.3002 27.2149L18.2902 27.2349ZM17.8002 29.8049C19.4102 31.8949 20.8602 33.8249 22.3602 35.7149C23.0202 36.5449 23.0002 37.1149 22.3202 38.0149C20.1402 40.9249 18.8302 44.2949 17.3202 47.6049C18.1102 47.8649 18.6102 47.5449 19.1002 47.3449C21.6602 46.2949 24.2202 45.2649 26.7402 44.1249C27.9102 43.6049 28.8002 43.7249 29.7702 44.5549C31.4502 45.9949 33.2002 47.3549 34.9402 48.7349C35.5302 49.2049 36.1002 49.7649 37.0102 49.7849C37.4702 46.9849 38.0002 44.2149 38.3702 41.4249C38.6202 39.5249 39.4902 38.3249 41.3302 37.6449C43.6502 36.7849 45.8202 35.5749 48.3702 34.0549C44.7302 33.3449 41.5202 32.5949 38.2702 32.1249C36.6302 31.8849 36.0902 31.1649 36.0902 29.6449C36.0902 27.4549 35.9402 25.2749 35.5102 22.7849C33.7402 24.5449 32.1902 26.1049 31.0302 27.9749C29.2802 30.8049 28.6402 31.1049 25.3302 30.5349C22.9602 30.1249 20.6002 29.4849 17.8002 29.8249V29.8049Z" fill="#080808"/>
<path d="M46.5199 62.9849C45.4899 62.9249 44.8099 62.6449 44.3699 61.9049C43.7899 60.9249 43.9099 59.9349 44.4999 59.0949C45.6199 57.5149 46.8499 56.0149 48.0499 54.4949C49.4799 52.6649 50.0499 50.6249 49.8999 48.2949C49.7899 46.5849 49.8299 44.8549 49.9799 43.1449C50.1599 40.9549 51.4299 40.4349 53.2599 41.7049C54.2299 42.3749 54.9899 43.2549 55.7399 44.1449C57.7899 46.5749 58.7399 46.7549 61.5899 45.2749C62.7699 44.6649 63.8899 43.9549 65.0599 43.3349C65.5899 43.0549 66.1599 42.7949 66.7399 42.6649C68.5899 42.2549 69.4999 43.2149 69.0899 45.0849C68.8499 46.1949 68.1999 47.0949 67.5399 47.9849C66.2099 49.7649 66.2999 50.0649 68.4899 50.7649C69.8599 51.2049 71.2399 51.6149 72.5999 52.0649C73.2799 52.2949 73.9199 52.6049 74.3899 53.2149C75.6399 54.8449 75.1899 56.4849 73.2199 57.1049C70.2999 58.0149 67.2299 58.1549 64.2199 58.6449C62.7199 58.8849 62.1299 59.6049 62.0199 61.0249C61.8699 62.9549 61.6499 64.8849 61.4199 66.8149C61.3599 67.3549 61.2199 67.9049 61.0399 68.4249C60.7499 69.2249 60.3099 70.0049 59.3399 70.0249C58.3999 70.0449 57.7699 69.3749 57.4899 68.5849C56.9199 66.9749 56.5299 65.3049 55.9999 63.6749C55.1099 60.9649 54.2899 60.5449 51.5399 61.3949C49.7999 61.9249 48.0699 62.5149 46.5299 63.0249L46.5199 62.9849ZM48.1199 59.1649C50.0099 59.2949 51.3699 58.5849 52.8099 58.2849C54.9199 57.8549 55.7999 58.2249 56.8799 60.1149C57.2699 60.7949 57.4199 61.6549 58.2499 62.2049C58.5099 61.1949 58.7199 60.2949 58.9599 59.4049C59.6999 56.6449 60.6199 55.8749 63.4199 55.5849C64.4699 55.4749 65.5399 55.4749 66.5499 55.2349C67.5499 55.0049 68.7499 55.2249 69.6099 54.2049C68.1599 53.6049 66.7099 53.5349 65.2999 53.3349C63.1899 53.0349 62.8699 52.5449 63.6199 50.4849C63.9199 49.6549 64.3299 48.8649 64.6499 48.0449C64.7599 47.7549 64.9799 47.3849 64.7099 47.1249C64.3799 46.8049 63.9899 47.0249 63.6599 47.2349C63.4299 47.3849 63.1799 47.5149 62.9799 47.7049C60.7599 49.7549 58.4099 49.9549 55.8799 48.2849C55.5099 48.0449 55.0999 47.8849 54.6999 47.6849C53.7999 47.2349 53.1899 47.3349 53.2099 48.5149C53.2399 51.5449 51.9399 54.0749 50.1999 56.4249C49.5799 57.2549 48.9499 58.0749 48.1099 59.1749L48.1199 59.1649Z" fill="#070707"/>
<path d="M17.7998 29.8049C20.5998 29.4649 22.9598 30.1049 25.3298 30.5149C28.6398 31.0849 29.2798 30.7849 31.0298 27.9549C32.1898 26.0849 33.7398 24.5349 35.5098 22.7649C35.9298 25.2549 36.0898 27.4349 36.0898 29.6249C36.0898 31.1449 36.6298 31.8749 38.2698 32.1049C41.5198 32.5749 44.7398 33.3249 48.3698 34.0349C45.8298 35.5449 43.6598 36.7549 41.3298 37.6249C39.4998 38.3049 38.6298 39.5049 38.3698 41.4049C37.9998 44.1949 37.4698 46.9649 37.0098 49.7649C36.0998 49.7449 35.5298 49.1849 34.9398 48.7149C33.1998 47.3449 31.4498 45.9849 29.7698 44.5349C28.8098 43.7049 27.9098 43.5849 26.7398 44.1049C24.2198 45.2349 21.6498 46.2649 19.0998 47.3249C18.5998 47.5349 18.1098 47.8449 17.3198 47.5849C18.8298 44.2749 20.1398 40.9049 22.3198 37.9949C22.9998 37.0949 23.0198 36.5149 22.3598 35.6949C20.8598 33.8149 19.4098 31.8849 17.7998 29.7849V29.8049Z" fill="#FBFBFB"/>
<path d="M48.1201 59.1649C48.9501 58.0649 49.5901 57.2549 50.2101 56.4149C51.9501 54.0549 53.2501 51.5349 53.2201 48.5049C53.2101 47.3149 53.8101 47.2249 54.7101 47.6749C55.1101 47.8749 55.5201 48.0349 55.8901 48.2749C58.4101 49.9449 60.7701 49.7449 62.9901 47.6949C63.1901 47.5049 63.4401 47.3749 63.6701 47.2249C64.0001 47.0149 64.3901 46.7949 64.7201 47.1149C64.9901 47.3749 64.7701 47.7549 64.6601 48.0349C64.3401 48.8549 63.9301 49.6449 63.6301 50.4749C62.8801 52.5349 63.2001 53.0249 65.3101 53.3249C66.7201 53.5249 68.1701 53.5949 69.6201 54.1949C68.7601 55.2149 67.5601 54.9949 66.5601 55.2249C65.5401 55.4549 64.4701 55.4649 63.4301 55.5749C60.6301 55.8549 59.7101 56.6349 58.9701 59.3949C58.7301 60.2849 58.5201 61.1849 58.2601 62.1949C57.4201 61.6549 57.2701 60.7849 56.8901 60.1049C55.8101 58.2149 54.9301 57.8449 52.8201 58.2749C51.3801 58.5749 50.0201 59.2849 48.1301 59.1549L48.1201 59.1649Z" fill="#F8F8F8"/>
</svg>
