<svg width="90" height="90" viewBox="0 0 90 90" fill="none" xmlns="http://www.w3.org/2000/svg">
<path d="M47.62 11.0648C52.18 11.1848 58.24 10.8148 64.28 11.3548C66.85 11.5848 67.07 11.8648 67.72 14.2948C68.94 18.8648 68.46 23.5448 68.84 28.1648C68.93 29.3148 68.93 29.9448 70.4 29.5148C71.6 29.1648 72.92 29.1548 74.19 29.0948C75.55 29.0348 76.45 29.8448 77.15 30.9248C78.79 33.4548 79.06 36.3248 79.19 39.2148C79.27 41.0448 79.25 42.8748 79.24 44.7048C79.24 46.7348 78.5399 48.3748 76.59 49.3148C75.6099 49.7848 74.82 50.3848 74.9 51.6948C74.98 52.9748 75.36 53.8948 76.69 54.3648C77.79 54.7548 78.41 55.7148 78.78 56.8048C79.92 60.1748 80.1 63.6448 79.91 67.1548C79.86 68.1048 79.57 68.9148 78.28 68.6448C77.59 68.5048 77.0099 68.8748 76.45 69.2748C74.0499 70.9848 71.45 72.3348 68.78 73.5748C67.22 74.2948 65.71 75.1248 64.35 76.1848C61.59 78.3348 58.47 79.1748 55.01 78.9848C48.47 78.6248 41.96 77.9648 35.46 77.1548C29.57 76.4148 23.67 75.8048 17.72 75.7748C13.54 75.7548 12.23 74.8548 11.71 70.6648C11.22 66.8248 11.2 62.9248 11 59.0548C10.95 58.0948 11.46 57.3348 12.24 56.8248C14.65 55.2548 16.86 53.3748 19.4 51.9848C20.37 51.4548 20.72 50.6548 20.8 49.5548C21.07 46.0048 20.68 42.4648 20.69 38.9148C20.69 38.3548 20.62 37.7948 20.69 37.2548C20.91 35.4748 20.99 33.9848 18.38 34.1448C17.17 34.2148 16.36 33.1448 15.99 31.9248C14.23 26.2048 14.35 20.3248 14.49 14.4448C14.53 12.9248 15.38 12.2648 16.88 12.0448C22.38 11.2148 27.94 11.3248 33.48 11.1048C37.69 10.9348 41.92 11.0748 47.62 11.0748V11.0648ZM50.63 24.7248C50.04 23.9948 49.97 23.0948 49.81 22.2248C49.68 21.5448 49.81 20.6948 48.68 20.7748C47.51 20.8548 47.62 21.6348 47.73 22.4448C47.79 22.9248 47.97 23.5448 47.27 23.6548C46.62 23.7648 46.28 23.2348 46.07 22.7048C45.93 22.3548 45.95 21.9348 45.8 21.5848C45.35 20.5848 44.44 20.7648 43.64 20.8748C42.72 21.0048 43.13 21.6348 43.26 22.1448C43.4 22.6848 43.31 23.1948 42.71 23.3448C42.13 23.4848 41.76 23.1048 41.57 22.5948C41.2 21.5748 40.97 20.4648 39.5 20.5148C39.22 20.5148 39.02 19.7948 38.58 20.3048C38.25 20.6848 37.95 21.0948 38.22 21.6448C38.34 21.8948 38.47 22.1348 38.58 22.3948C38.81 22.9548 38.62 23.3948 38.08 23.6148C37.47 23.8648 37.18 23.4948 36.99 22.9448C36.29 20.9048 35.62 18.8548 35.33 16.7048C35.17 15.5148 35.85 13.9648 34.95 13.2048C34.02 12.4348 32.49 12.9948 31.23 13.0148C26.68 13.0548 22.11 12.8348 17.6 13.7448C16.84 13.8948 16.2 14.0748 16.18 15.0248C16.1 18.2948 16.21 21.5648 16.53 24.8148C16.62 25.7048 16.9 25.9548 17.92 25.8048C21.59 25.2748 25.3 25.0048 29.01 25.0048C36.22 25.0048 43.43 24.9848 50.64 25.3048C50.97 25.3348 51.3 25.3348 51.63 25.3948C53.09 25.6348 53.68 25.3648 53.41 23.5848C52.96 20.5848 52.89 17.5148 52.69 14.4748C52.65 13.7748 52.97 12.9848 51.76 12.9848C50.64 12.9848 50.89 13.7948 50.87 14.3848C50.77 17.2748 51.03 20.1448 51.66 22.9748C51.87 23.9148 51.83 24.6548 50.62 24.7248H50.63ZM14.23 57.8648C15.34 58.3348 16.29 58.3848 17.23 58.4048C25.05 58.5648 32.86 58.8448 40.68 58.8448C45.51 58.8448 50.43 58.5548 55.12 60.2948C55.41 60.4048 55.66 60.2748 55.87 60.0748C57.44 58.5348 59.58 57.9148 61.33 56.6248C62.64 55.6548 63.16 54.5948 63.11 52.9848C63.01 49.7148 63.01 46.4348 63.1 43.1648C63.13 42.1948 63.61 41.3348 62.04 41.2448C61.36 41.2048 61.33 40.3748 61.3 39.7448C61.2 37.9148 61.06 36.0948 60.96 34.2648C60.83 31.9948 60.31 31.3648 58.1 30.8648C57.06 30.6248 56 30.7348 54.95 30.7548C52.23 30.7948 49.51 30.9048 46.8 30.8348C39.57 30.6648 32.38 30.9948 25.23 32.0748C22.81 32.4448 22.68 32.6348 22.67 35.1048C22.67 35.6548 22.58 36.2148 22.58 36.7648C22.6 41.0748 22.56 45.3948 22.69 49.7048C22.74 51.3348 22.22 52.4648 20.89 53.3448C18.72 54.7748 16.59 56.2548 14.24 57.8548L14.23 57.8648ZM29.79 60.6548C26.51 60.4448 21.52 60.3348 16.53 60.3448C13.23 60.3448 13.22 60.3248 13.32 63.6848C13.41 66.4448 13.38 69.2248 14.21 71.9148C14.58 73.1048 15.15 73.7448 16.54 73.7648C19.81 73.8148 23.08 73.9248 26.33 74.2248C36.09 75.1348 45.78 76.7048 55.6 76.9548C57.78 77.0148 57.86 77.0548 57.57 74.8248C57 70.5448 56.34 66.2848 55.71 62.0148C55.66 61.6848 55.62 61.2548 55.17 61.3748C52.72 61.9848 50.34 61.2148 47.94 60.9948C42.46 60.4948 36.97 60.9448 29.78 60.6648L29.79 60.6548ZM46.74 28.7648C49.01 28.7648 51.28 28.7648 53.55 28.7648C53.84 28.7648 54.29 28.9148 54.36 28.4648C54.43 28.0048 54.24 27.5548 53.77 27.3848C53.42 27.2648 53.01 27.2848 52.63 27.2748C47.1 27.1348 41.57 27.0048 36.04 26.8648C33.78 26.8048 31.51 26.7548 29.25 26.6848C27.99 26.6448 28.06 27.3748 28.15 28.3148C28.24 29.2448 28.35 29.6848 29.51 29.5548C35.24 28.9248 40.99 28.7948 46.75 28.7748L46.74 28.7648ZM77.63 65.5148C78.0099 63.0848 77.7 60.6748 77.2 58.2948C77.03 57.4748 76.61 56.7448 75.95 56.1948C75.59 55.8948 75.21 55.2848 74.73 55.6748C74.34 55.9948 74.59 56.6148 74.77 57.0848C74.88 57.3948 75.0099 57.7148 75.38 57.8248C76.16 58.0748 76.21 58.7348 76.34 59.4048C76.74 61.4548 77.2 63.4848 77.64 65.5248L77.63 65.5148ZM49.3 14.3548C49.24 13.6148 49.37 12.5648 48.18 12.8548C47.35 13.0548 45.87 12.1648 45.8 13.7448C45.77 14.4448 45.51 16.0348 47.13 15.8848C48.04 15.7948 49.45 16.0948 49.3 14.3548ZM36.98 14.6648C37.44 14.9648 36.1 16.3748 37.7 16.2948C40.03 16.1648 40.26 15.8348 40.15 13.6248C40.1 12.4748 39.24 12.9148 38.69 12.9148C37.68 12.9148 36.36 12.6748 36.98 14.6748V14.6648ZM63.34 67.4148C63.56 68.5748 63.76 69.7348 63.99 70.8848C64.57 73.6948 64.61 73.7048 67.1 72.3348C67.25 72.2548 67.39 72.1648 67.54 72.0948C68.14 71.8348 68.87 71.6848 68.89 70.8448C68.89 70.5448 68.67 69.9648 68.44 70.0648C67.83 70.3348 67.24 70.7548 66.77 71.2348C66.43 71.5748 66.53 72.3848 65.69 72.1648C64.97 71.9748 64.86 71.3148 64.69 70.7548C64.35 69.6248 64.38 68.3848 63.34 67.4148ZM42.87 12.9148C42.01 12.8948 41.46 13.0048 41.65 13.8948C41.85 14.8048 41.37 16.1448 43.08 16.0748C43.81 16.0448 44.48 15.9448 44.29 15.0048C44.1 14.0748 44.3 12.7548 42.86 12.9148H42.87ZM60.69 72.0748C60.47 72.8548 60.29 73.4948 59.7 74.1248C59.08 74.7848 59.35 75.6948 59.7 76.4548C59.87 76.8348 60.27 76.6248 60.56 76.4548C61.39 75.9848 61.69 75.3348 61.35 74.3848C61.08 73.6248 60.91 72.8448 60.7 72.0648L60.69 72.0748ZM64.72 63.9148C64.91 63.8848 65.09 63.8648 65.28 63.8348C64.81 61.6848 65.04 59.3848 64.14 57.3148C63.96 57.3548 63.77 57.3848 63.59 57.4248C63.97 59.5848 64.34 61.7548 64.72 63.9148ZM39 19.0848C39.22 19.0848 39.44 19.1048 39.65 19.0848C40.06 19.0448 40.63 19.1948 40.64 18.5448C40.65 17.8948 40.11 17.8148 39.6 17.7748C39.11 17.7448 38.62 17.7348 38.13 17.6848C37.74 17.6448 37.2 17.2648 37.2 18.0548C37.2 18.5548 37.36 19.0548 38.01 19.0848C38.34 19.1048 38.66 19.0848 38.99 19.0848H39ZM75.66 44.7248C75.26 45.2948 75.21 45.9448 74.42 46.2748C73.81 46.5348 73.92 47.3948 74.41 47.8148C74.89 48.2348 75.32 47.7148 75.63 47.3748C76.3699 46.5548 75.84 45.6548 75.66 44.7248ZM48.34 19.1248C48.96 19.4148 49.22 19.1048 49.3 18.4948C49.42 17.5948 48.83 17.4748 48.18 17.5448C47.61 17.6148 46.67 17.2048 46.68 18.2648C46.69 19.3448 47.67 19.0148 48.34 19.1248ZM61.57 17.5448C61.88 16.1048 61.12 14.4448 63.1 14.1348C63.33 14.0948 63.41 13.6348 63.18 13.4348C62.6 12.8948 61.85 13.0548 61.15 13.1048C60.91 13.1248 60.55 13.3248 60.83 13.6348C61.82 14.7248 60.86 16.0948 61.56 17.5548L61.57 17.5448ZM60.65 59.8148C59.64 61.6048 60.66 63.2148 61.24 64.8948C61.04 63.2048 60.85 61.5148 60.65 59.8148ZM43.5 17.6948C42.99 17.7548 42.25 17.5948 42.33 18.4248C42.42 19.2848 43.2 19.0848 43.77 19.0948C44.21 19.0948 44.92 19.3648 44.94 18.6248C44.97 17.7048 44.17 17.7348 43.5 17.6948ZM72.73 49.4648C71.84 50.8348 72.46 52.1748 72.87 53.5148C73.02 52.1648 73.12 50.8048 72.73 49.4648ZM57.9 19.0948C57.9 17.9048 58.1 16.9648 57.58 15.6148C57.39 17.0348 57.4 17.9548 57.9 19.0948ZM68.43 50.2048C68.5166 48.5648 68.37 47.5448 67.99 47.1448C67.74 48.2248 68.14 49.1848 68.43 50.2048ZM75.63 32.2448C75.2599 31.5548 75.08 30.8348 74.18 31.0248C73.91 31.0848 73.91 31.3148 73.97 31.5448C74.2 32.3948 74.79 32.4748 75.63 32.2448Z" fill="#060606"/>
<path d="M14.2302 57.8649C16.5802 56.2649 18.7102 54.7849 20.8802 53.3549C22.2102 52.4749 22.7302 51.3549 22.6802 49.7149C22.5502 45.4049 22.5902 41.0849 22.5702 36.7749C22.5702 36.2249 22.6502 35.6649 22.6602 35.1149C22.6702 32.6349 22.8002 32.4449 25.2202 32.0849C32.3702 31.0049 39.5602 30.6649 46.7902 30.8449C49.5002 30.9149 52.2202 30.7949 54.9402 30.7649C55.9902 30.7549 57.0502 30.6349 58.0902 30.8749C60.3002 31.3749 60.8202 32.0049 60.9502 34.2749C61.0502 36.1049 61.1902 37.9249 61.2902 39.7549C61.3302 40.3849 61.3502 41.2149 62.0302 41.2549C63.6002 41.3449 63.1202 42.2149 63.0902 43.1749C63.0002 46.4449 63.0002 49.7249 63.1002 52.9949C63.1502 54.6049 62.6302 55.6649 61.3202 56.6349C59.5802 57.9249 57.4302 58.5449 55.8602 60.0849C55.6502 60.2849 55.4102 60.4149 55.1102 60.3049C50.4302 58.5649 45.5002 58.8549 40.6702 58.8549C32.8502 58.8549 25.0302 58.5749 17.2202 58.4149C16.2802 58.3949 15.3402 58.3549 14.2202 57.8749L14.2302 57.8649ZM32.3802 49.0249C36.4902 49.0349 39.9402 45.7449 39.9702 41.7849C40.0102 37.3649 36.6502 34.0249 32.1902 34.0249C28.6802 34.0249 25.0102 37.6949 24.9802 41.2249C24.9402 45.5149 28.2602 49.0049 32.3802 49.0149V49.0249ZM54.7902 53.9949C56.0102 53.9949 57.2302 54.0249 58.4502 53.9849C59.1802 53.9649 60.0002 53.9049 59.9402 52.8649C59.8802 51.8549 59.1202 51.9149 58.3602 51.8849C55.0902 51.7849 51.8202 51.7949 48.5702 51.4949C40.7702 50.7549 32.9702 51.1849 25.1702 51.3849C24.6702 51.3949 23.9302 51.2449 24.0202 52.1549C24.0802 52.8349 24.4402 53.3349 25.2002 53.2749C29.2102 52.9749 33.2302 53.4149 37.2402 53.2049C40.3602 53.0449 43.4402 53.1749 46.5302 53.4549C49.2902 53.7049 52.0402 53.9549 54.8102 53.9849L54.7902 53.9949ZM44.9402 37.9549C45.4502 40.7449 46.4602 43.3649 47.7202 45.8949C48.1302 46.7149 48.6002 47.3349 49.6402 46.8549C50.6202 46.3949 51.0702 45.4449 50.5002 44.6849C49.0902 42.7649 50.4902 42.4249 51.7902 41.8949C52.7002 41.5249 53.8102 41.2449 53.9102 40.0449C54.1002 37.8749 53.3402 35.9649 51.6802 34.5749C50.2302 33.3649 48.7402 34.3149 47.3202 34.8849C46.8702 35.0649 46.4702 35.4049 46.0602 35.6849C45.2602 36.2249 44.8802 36.9749 44.9302 37.9649L44.9402 37.9549Z" fill="#F9F9F9"/>
<path d="M29.79 60.6549C36.97 60.9349 42.46 60.4849 47.95 60.9849C50.35 61.2049 52.73 61.9749 55.18 61.3649C55.63 61.2549 55.68 61.6849 55.72 62.0049C56.35 66.2749 57.02 70.5449 57.58 74.8149C57.87 77.0349 57.79 76.9949 55.61 76.9449C45.79 76.6949 36.09 75.1349 26.34 74.2149C23.09 73.9149 19.81 73.8049 16.55 73.7549C15.16 73.7349 14.58 73.0949 14.22 71.9049C13.39 69.2149 13.42 66.4449 13.33 63.6749C13.22 60.3249 13.23 60.3449 16.54 60.3349C21.53 60.3249 26.52 60.4349 29.8 60.6449L29.79 60.6549ZM18.44 66.0349C18.15 66.0349 17.65 66.0349 17.15 66.0349C16.62 66.0349 16.09 66.1049 16.02 66.7349C15.95 67.4549 16.45 67.6349 17.08 67.6849C18.35 67.7749 19.61 67.9349 20.88 68.0249C26.74 68.4249 32.6 68.8149 38.47 69.2149C42.29 69.4749 46.1 69.7349 49.92 69.9949C50.71 70.0449 51.78 70.1149 51.86 69.2249C51.97 68.1349 50.79 68.1649 50.01 68.0849C48.8 67.9549 47.58 67.9249 46.36 67.8449C37.12 67.2449 27.88 66.6449 18.43 66.0349H18.44ZM19.49 70.0249C18.95 70.0249 18.73 70.0449 18.51 70.0249C17.76 69.9349 17.07 70.1249 17.05 70.9449C17.04 71.8249 17.9 71.5849 18.45 71.6849C18.77 71.7449 19.11 71.6849 19.45 71.7049C23.48 71.9449 27.53 72.0249 31.54 72.4849C37.98 73.2349 44.46 73.2849 50.9 73.9849C51.3 74.0249 51.69 74.0149 51.88 73.5649C52.02 73.2449 52.06 72.8749 51.84 72.6149C51.41 72.1149 50.79 72.0349 50.18 72.0149C48.8 71.9749 47.4 72.0849 46.03 71.9249C37.11 70.9349 28.13 70.8349 19.51 70.0149L19.49 70.0249Z" fill="#F9F9F9"/>
<path d="M50.6301 25.2949C43.4201 24.9749 36.2101 25.0049 29.0001 24.9949C25.2901 24.9949 21.5801 25.2649 17.9101 25.7949C16.8901 25.9449 16.6101 25.6849 16.5201 24.8049C16.2001 21.5449 16.0901 18.2849 16.1701 15.0149C16.1901 14.0649 16.8301 13.8849 17.5901 13.7349C22.1001 12.8249 26.6701 13.0549 31.2201 13.0049C32.4801 12.9949 34.0101 12.4249 34.9401 13.1949C35.8401 13.9449 35.1601 15.4949 35.3201 16.6949C35.6101 18.8549 36.2801 20.8949 36.9801 22.9349C37.1701 23.4849 37.4501 23.8449 38.0701 23.6049C38.6101 23.3849 38.8001 22.9549 38.5701 22.3849C38.4701 22.1249 38.3301 21.8849 38.2101 21.6349C37.9401 21.0849 38.2501 20.6849 38.5701 20.2949C39.0101 19.7749 39.2101 20.5049 39.4901 20.5049C40.9601 20.4549 41.1901 21.5649 41.5601 22.5849C41.7501 23.0949 42.1201 23.4749 42.7001 23.3349C43.3001 23.1849 43.3901 22.6749 43.2501 22.1349C43.1201 21.6249 42.7101 20.9849 43.6301 20.8649C44.4301 20.7549 45.3501 20.5749 45.7901 21.5749C45.9401 21.9249 45.9201 22.3449 46.0601 22.6949C46.2701 23.2249 46.6101 23.7549 47.2601 23.6449C47.9601 23.5249 47.7801 22.9049 47.7201 22.4349C47.6101 21.6249 47.5001 20.8549 48.6701 20.7649C49.7901 20.6849 49.6701 21.5349 49.8001 22.2149C49.9601 23.0849 50.0401 23.9849 50.6201 24.7149C50.6201 24.9049 50.6201 25.0949 50.6201 25.2949H50.6301Z" fill="#FAFAFA"/>
<path d="M46.74 28.7649C40.98 28.7949 35.23 28.9149 29.5 29.5449C28.34 29.6749 28.23 29.2349 28.14 28.3049C28.05 27.3649 27.98 26.6349 29.24 26.6749C31.5 26.7449 33.77 26.7949 36.03 26.8549C41.56 26.9949 47.09 27.1249 52.62 27.2649C53 27.2649 53.41 27.2649 53.76 27.3749C54.23 27.5349 54.42 27.9849 54.35 28.4549C54.28 28.9149 53.83 28.7549 53.54 28.7549C51.27 28.7749 49 28.7549 46.73 28.7549L46.74 28.7649Z" fill="#EFEFEF"/>
<path d="M50.6299 25.2949C50.6299 25.1049 50.6299 24.9149 50.6299 24.7149C51.8399 24.6449 51.8799 23.9049 51.6699 22.9649C51.0399 20.1349 50.7699 17.2749 50.8799 14.3749C50.8999 13.7849 50.6499 12.9749 51.7699 12.9749C52.9699 12.9749 52.6499 13.7649 52.6999 14.4649C52.8899 17.5049 52.9699 20.5649 53.4199 23.5749C53.6899 25.3549 53.0999 25.6249 51.6399 25.3849C51.3099 25.3349 50.9799 25.3249 50.6499 25.2949H50.6299Z" fill="#EFEFEF"/>
<path d="M77.6302 65.5149C77.1902 63.4749 76.7302 61.4449 76.3302 59.3949C76.2002 58.7249 76.1502 58.0649 75.3702 57.8149C75.0102 57.6949 74.8802 57.3749 74.7602 57.0749C74.5902 56.6049 74.3302 55.9849 74.7202 55.6649C75.2102 55.2749 75.5802 55.8849 75.9402 56.1849C76.6002 56.7349 77.0202 57.4649 77.1902 58.2849C77.6802 60.6649 78.0002 63.0749 77.6202 65.5049L77.6302 65.5149Z" fill="#EFEFEF"/>
<path d="M49.3002 14.3548C49.4502 16.0948 48.0302 15.7948 47.1302 15.8848C45.5102 16.0448 45.7802 14.4548 45.8002 13.7448C45.8602 12.1648 47.3502 13.0548 48.1802 12.8548C49.3702 12.5648 49.2402 13.6148 49.3002 14.3548Z" fill="#EFEFEF"/>
<path d="M36.9802 14.665C36.3602 12.675 37.6802 12.905 38.6902 12.905C39.2402 12.905 40.1002 12.465 40.1502 13.615C40.2502 15.825 40.0202 16.155 37.7002 16.285C36.1002 16.375 37.4402 14.955 36.9802 14.655V14.665Z" fill="#EFEFEF"/>
<path d="M63.3398 67.4149C64.3898 68.3849 64.3498 69.6249 64.6898 70.7549C64.8598 71.3249 64.9698 71.9749 65.6898 72.1649C66.5298 72.3949 66.4298 71.5849 66.7698 71.2349C67.2498 70.7549 67.8298 70.3349 68.4398 70.0649C68.6698 69.9649 68.8898 70.5449 68.8898 70.8449C68.8698 71.6849 68.1398 71.8349 67.5398 72.0949C67.3898 72.1649 67.2498 72.2549 67.0998 72.3349C64.5998 73.7049 64.5598 73.6949 63.9898 70.8849C63.7498 69.7349 63.5498 68.5649 63.3398 67.4149Z" fill="#EFEFEF"/>
<path d="M42.8702 12.9149C44.3102 12.7649 44.1102 14.0849 44.3002 15.0049C44.4902 15.9449 43.8202 16.0449 43.0902 16.0749C41.3702 16.1449 41.8502 14.8049 41.6602 13.8949C41.4602 12.9949 42.0102 12.8949 42.8802 12.9149H42.8702Z" fill="#F9F9F9"/>
<path d="M60.6898 72.075C60.8998 72.845 61.0798 73.635 61.3398 74.395C61.6698 75.335 61.3698 75.9949 60.5498 76.4649C60.2598 76.6249 59.8698 76.8449 59.6898 76.4649C59.3498 75.7049 59.0798 74.7949 59.6898 74.1349C60.2798 73.5049 60.4598 72.8649 60.6798 72.0849L60.6898 72.075Z" fill="#EFEFEF"/>
<path d="M64.7198 63.9149C64.3398 61.7549 63.9698 59.5849 63.5898 57.4249C63.7698 57.3849 63.9598 57.3549 64.1398 57.3149C65.0398 59.3849 64.8098 61.6849 65.2798 63.8349C65.0898 63.8649 64.9098 63.8849 64.7198 63.9149Z" fill="#EFEFEF"/>
<path d="M39 19.0849C38.67 19.0849 38.34 19.0949 38.02 19.0849C37.37 19.0449 37.21 18.5549 37.21 18.0549C37.21 17.2649 37.75 17.6449 38.14 17.6849C38.63 17.7349 39.12 17.7349 39.61 17.7749C40.12 17.8049 40.66 17.8849 40.65 18.5449C40.64 19.1949 40.06 19.0449 39.66 19.0849C39.44 19.1049 39.22 19.0849 39.01 19.0849H39Z" fill="#EFEFEF"/>
<path d="M75.6602 44.7249C75.8402 45.6549 76.3802 46.5549 75.6302 47.3749C75.3102 47.7249 74.8802 48.2349 74.4102 47.8149C73.9302 47.3949 73.8102 46.5349 74.4202 46.2749C75.2102 45.9449 75.2602 45.2949 75.6602 44.7249Z" fill="#EFEFEF"/>
<path d="M48.3398 19.1249C47.6698 19.0149 46.6898 19.3449 46.6798 18.2649C46.6698 17.2049 47.6098 17.6149 48.1798 17.5449C48.8398 17.4649 49.4198 17.5849 49.2998 18.4949C49.2198 19.1149 48.9598 19.4149 48.3398 19.1249Z" fill="#EFEFEF"/>
<path d="M61.5698 17.5449C60.8598 16.0949 61.8198 14.7149 60.8398 13.6249C60.5598 13.3149 60.9098 13.1049 61.1598 13.0949C61.8598 13.0449 62.5998 12.8849 63.1898 13.4249C63.4098 13.6349 63.3398 14.0949 63.1098 14.1249C61.1298 14.4349 61.8898 16.0949 61.5798 17.5349L61.5698 17.5449Z" fill="#EFEFEF"/>
<path d="M60.6499 59.8149C60.8499 61.5049 61.0399 63.1949 61.2399 64.8949C60.6599 63.2249 59.6399 61.6049 60.6499 59.8149Z" fill="#EFEFEF"/>
<path d="M43.5002 17.6949C44.1702 17.7449 44.9702 17.7049 44.9402 18.6249C44.9202 19.3549 44.2102 19.0949 43.7702 19.0949C43.2002 19.0949 42.4202 19.2949 42.3302 18.4249C42.2502 17.5849 42.9902 17.7449 43.5002 17.6949Z" fill="#EFEFEF"/>
<path d="M72.7301 49.4648C73.1201 50.8148 73.0201 52.1648 72.8701 53.5148C72.4701 52.1648 71.8501 50.8248 72.7301 49.4648Z" fill="#EFEFEF"/>
<path d="M57.8999 19.0949C57.3999 17.9549 57.3799 17.0349 57.5799 15.6149C58.0999 16.9649 57.9099 17.9049 57.8999 19.0949Z" fill="#EFEFEF"/>
<path d="M68.4302 50.2049C68.1402 49.1949 67.7502 48.2249 67.9902 47.1449C68.3636 47.5449 68.5102 48.5649 68.4302 50.2049Z" fill="#EFEFEF"/>
<path d="M75.6298 32.2449C74.7898 32.4649 74.1998 32.3949 73.9698 31.5449C73.9098 31.3149 73.9098 31.0849 74.1798 31.0249C75.0698 30.8449 75.2598 31.5549 75.6298 32.2449Z" fill="#EFEFEF"/>
<path d="M32.3798 49.0249C28.2598 49.0149 24.9398 45.5149 24.9798 41.2349C25.0098 37.7049 28.6799 34.0349 32.1899 34.0349C36.6499 34.0349 40.0098 37.3749 39.9698 41.7949C39.9398 45.7549 36.4898 49.0449 32.3798 49.0349V49.0249ZM38.0199 41.5749C38.1299 40.4549 37.7299 39.3849 37.0299 38.4149C36.8099 38.1149 36.6599 37.6449 36.1999 37.7249C35.8199 37.7949 35.8699 38.2449 35.7599 38.5349C34.8699 40.9049 33.7299 41.7949 31.3399 41.6949C30.2299 41.6449 30.1499 42.0949 30.2799 42.9549C30.4799 44.3149 31.3699 45.1949 32.5799 45.1649C34.0799 45.1249 35.8199 46.5249 37.1199 44.6349C37.7299 43.7449 38.0799 42.7749 38.0099 41.5749H38.0199ZM31.8898 40.0749C33.0299 40.0349 33.6899 39.1349 34.1699 38.0349C34.3499 37.6249 34.4998 37.1149 34.2198 36.7849C33.8598 36.3749 33.4298 36.7949 33.0598 36.9749C32.1998 37.3749 31.4799 37.9549 30.9399 38.7449C30.2999 39.6749 30.6998 40.0249 31.8898 40.0849V40.0749Z" fill="#060606"/>
<path d="M54.7902 53.9949C52.0202 53.9649 49.2602 53.7149 46.5102 53.4649C43.4202 53.1849 40.3402 53.0549 37.2202 53.2149C33.2202 53.4249 29.2002 52.9849 25.1802 53.2849C24.4302 53.3449 24.0702 52.8449 24.0002 52.1649C23.9202 51.2649 24.6502 51.4149 25.1502 51.3949C32.9502 51.1849 40.7502 50.7649 48.5502 51.5049C51.8002 51.8149 55.0802 51.8049 58.3402 51.8949C59.1002 51.9149 59.8702 51.8649 59.9202 52.8749C59.9802 53.9049 59.1502 53.9649 58.4302 53.9949C57.2102 54.0349 55.9902 54.0049 54.7702 54.0049L54.7902 53.9949Z" fill="#060606"/>
<path d="M44.9399 37.9549C44.8899 36.9649 45.2699 36.2149 46.0699 35.6749C46.4799 35.3949 46.8699 35.0549 47.3299 34.8749C48.7499 34.3149 50.2399 33.3549 51.6899 34.5649C53.3499 35.9549 54.1099 37.8649 53.9199 40.0349C53.8199 41.2349 52.7099 41.5049 51.7999 41.8849C50.4999 42.4149 49.0899 42.7649 50.5099 44.6749C51.0699 45.4349 50.6299 46.3949 49.6499 46.8449C48.6099 47.3249 48.1299 46.7049 47.7299 45.8849C46.4699 43.3549 45.4599 40.7349 44.9499 37.9449L44.9399 37.9549ZM49.9699 36.6549C49.2599 37.1249 47.7799 36.9249 47.7799 38.0949C47.7799 38.9449 47.7199 40.3349 49.0799 40.6649C49.6999 40.8149 51.7399 39.0949 51.5699 38.5749C51.3099 37.7949 51.2599 36.7549 49.9699 36.6549Z" fill="#060606"/>
<path d="M18.4398 66.0349C27.8898 66.6449 37.1298 67.2449 46.3698 67.8449C47.5898 67.9249 48.8098 67.9549 50.0198 68.0849C50.8098 68.1749 51.9798 68.1449 51.8698 69.2249C51.7798 70.1149 50.7098 70.0449 49.9298 69.9949C46.1098 69.7349 42.2998 69.4749 38.4798 69.2149C32.6198 68.8149 26.7498 68.4249 20.8898 68.0249C19.6198 67.9349 18.3598 67.7749 17.0898 67.6849C16.4598 67.6349 15.9498 67.4549 16.0298 66.7349C16.0998 66.1049 16.6298 66.0249 17.1598 66.0349C17.6598 66.0349 18.1598 66.0349 18.4498 66.0349H18.4398Z" fill="#0E0E0E"/>
<path d="M19.4899 70.0249C28.1099 70.8449 37.0899 70.9449 46.0099 71.9349C47.3799 72.0849 48.7799 71.9849 50.1599 72.0249C50.7699 72.0449 51.3999 72.1249 51.8199 72.6249C52.0399 72.8849 51.9999 73.2549 51.8599 73.5749C51.6699 74.0249 51.2899 74.0349 50.8799 73.9949C44.4399 73.2949 37.9599 73.2449 31.5199 72.4949C27.5099 72.0349 23.4599 71.9549 19.4299 71.7149C19.0999 71.6949 18.7599 71.7549 18.4299 71.6949C17.8899 71.5949 17.0199 71.8349 17.0299 70.9549C17.0399 70.1349 17.7299 69.9349 18.4899 70.0349C18.7099 70.0649 18.9299 70.0349 19.4699 70.0349L19.4899 70.0249Z" fill="#0E0E0E"/>
<path d="M38.0202 41.5748C38.0902 42.7748 37.7402 43.7348 37.1302 44.6348C35.8302 46.5248 34.0902 45.1248 32.5902 45.1648C31.3802 45.1948 30.4802 44.3148 30.2902 42.9548C30.1602 42.0948 30.2402 41.6448 31.3502 41.6948C33.7402 41.7948 34.8802 40.9048 35.7702 38.5348C35.8802 38.2448 35.8302 37.7848 36.2102 37.7248C36.6702 37.6448 36.8202 38.1148 37.0402 38.4148C37.7402 39.3948 38.1402 40.4548 38.0302 41.5748H38.0202Z" fill="#F9F9F9"/>
<path d="M31.8898 40.0748C30.6998 40.0148 30.2998 39.6748 30.9398 38.7348C31.4798 37.9448 32.1998 37.3748 33.0598 36.9648C33.4298 36.7948 33.8598 36.3648 34.2198 36.7748C34.5098 37.1048 34.3498 37.6248 34.1698 38.0248C33.6798 39.1248 33.0198 40.0248 31.8898 40.0648V40.0748Z" fill="#EFEFEF"/>
<path d="M49.9702 36.6549C51.2602 36.7549 51.3102 37.7949 51.5702 38.5749C51.7402 39.0949 49.7002 40.8149 49.0802 40.6649C47.7202 40.3349 47.7802 38.9449 47.7802 38.0949C47.7802 36.9249 49.2602 37.1249 49.9702 36.6549Z" fill="#F9F9F9"/>
</svg>
