<svg width="90" height="90" viewBox="0 0 90 90" fill="none" xmlns="http://www.w3.org/2000/svg">
<path d="M33.5699 80.1549C33.1299 80.1549 32.6699 80.0749 32.2399 80.1649C28.1899 81.0449 26.5699 78.0949 24.9599 75.3849C24.3699 74.3849 23.7499 73.8349 22.6899 73.4749C19.3499 72.3549 17.6899 69.9349 18.1999 67.0449C18.3099 66.4049 18.4399 65.5749 18.8799 65.2149C20.2199 64.1049 19.9199 62.9449 19.3299 61.6449C19.0999 61.1449 18.9599 60.5949 18.8899 60.0449C18.7699 59.0049 18.1999 58.5649 17.2199 58.2949C12.2099 56.9149 10.8399 52.4649 14.1499 48.4349C15.0699 47.3149 14.5799 45.1949 13.2199 44.5249C12.8299 44.3349 12.3899 44.2249 11.9799 44.0649C8.09989 42.5449 6.82989 38.5549 9.18989 35.1049C9.84989 34.1449 10.0299 33.3549 9.24989 32.4249C8.87989 31.9749 8.71989 31.3549 8.93989 30.8449C9.84989 28.6749 10.4899 26.4349 12.5799 24.8649C15.8999 22.3849 19.8099 21.5849 23.6399 20.5849C24.7899 20.2849 25.6099 19.5749 26.6699 19.1949C34.7299 16.3649 43.0299 14.4649 51.3299 12.5649C54.9399 11.7349 58.4699 10.5449 62.1599 10.0249C63.5399 9.83488 64.3099 10.2249 64.7899 11.6049C67.3199 18.9049 69.9799 26.1749 72.4899 33.4849C75.0999 41.0649 77.5799 48.6849 80.1399 56.2849C80.6499 57.8049 81.2499 59.2949 81.8399 60.7849C82.5899 62.7049 82.1299 63.9549 80.1699 64.5249C78.5399 64.9949 77.8899 65.6749 78.5199 67.4449C78.9399 68.6249 79.0099 69.9449 79.1199 71.2049C79.3299 73.5349 78.2799 74.8149 76.0099 75.6049C73.3899 76.5049 70.6699 76.4649 67.9799 76.7749C58.1199 77.9149 48.2399 78.7649 38.3899 80.0449C36.8099 80.2549 35.1799 80.0749 33.5699 80.0749C33.5699 80.0949 33.5699 80.1049 33.5699 80.1249V80.1549ZM26.2399 71.4549C26.2599 70.9149 25.8999 70.5349 25.6999 70.0849C25.4899 69.6049 24.7499 69.0949 25.8299 68.7249C26.6199 68.4549 27.3699 68.2049 27.6099 69.3749C27.8799 70.6949 28.7099 71.7949 29.0799 73.0449C29.6399 74.9249 30.7699 75.0149 32.3899 74.7149C35.1799 74.2049 37.7899 73.0749 40.5599 72.5049C48.3699 70.8949 56.2599 69.7349 63.9499 67.5449C68.9599 66.1249 73.8899 64.4749 78.7899 62.7449C79.6199 62.4549 80.3499 62.1549 79.7999 60.9849C77.8199 56.7649 76.7599 52.2149 75.2099 47.8449C71.2099 36.5349 67.3499 25.1649 63.5199 13.7949C63.0399 12.3549 62.2599 11.9449 60.9599 12.2749C51.4699 14.6749 41.7799 16.2849 32.4399 19.2849C26.8099 21.0949 21.1899 22.9749 15.5799 24.8549C15.0699 25.0249 14.0899 24.9649 14.2499 25.7749C14.7999 28.6749 14.2099 32.1049 17.6999 33.7449C17.8899 33.8349 18.0399 34.0349 18.1799 34.2049C18.6099 34.7549 19.3799 35.3849 18.6999 36.0449C18.0299 36.6949 17.2899 36.2449 16.7299 35.5749C15.9699 34.6549 14.9499 34.3049 13.7699 34.3649C12.5699 34.4349 11.9999 34.8949 12.6499 36.1349C13.8199 38.3749 13.9699 41.0749 15.6799 43.0849C15.8799 43.3149 15.8799 43.6049 15.7399 43.8649C15.3099 44.6449 15.8399 45.2349 16.1199 45.8749C16.3699 46.4449 16.5399 47.0649 17.3999 46.6749C18.2899 46.2749 17.8699 45.6149 17.6099 45.1649C16.6199 43.4449 16.4299 41.4849 15.8599 39.6449C15.6799 39.0849 15.4999 38.4049 16.3999 38.1849C17.2699 37.9749 17.2699 38.7649 17.4099 39.1949C18.0499 41.1349 18.6699 43.0849 19.1799 45.0649C19.4299 46.0449 19.7599 46.7949 20.7399 47.2249C21.8499 47.7149 22.5499 48.6849 23.1099 49.7149C23.4799 50.4049 23.4699 51.2549 22.7699 51.6549C21.9399 52.1349 21.6499 51.2849 21.3799 50.7049C20.7399 49.3549 19.6599 48.7249 18.1999 48.7349C17.6599 48.7349 17.3299 48.7349 17.2899 49.6349C17.2299 50.8649 18.0999 51.4949 18.3799 52.4649C19.0699 54.8849 19.8899 57.2549 20.6499 59.6549C20.8999 60.4449 21.0399 61.2649 21.3099 62.0449C21.4699 62.5049 21.7299 63.0449 22.3799 62.8149C23.1099 62.5449 22.7099 62.0449 22.5699 61.5749C21.8499 59.1349 21.1399 56.6949 20.4399 54.2449C20.2799 53.6849 19.8799 53.0249 20.8199 52.7649C21.7199 52.5149 21.6599 53.2249 21.8899 53.7949C22.7199 55.8549 22.9999 58.0649 23.7199 60.1549C24.2199 61.5949 24.7799 62.9349 26.4099 63.4849C27.0499 63.7049 27.5099 64.2349 27.7799 64.8649C27.9499 65.2649 28.0999 65.7449 27.7799 66.1249C27.3799 66.5949 26.9699 66.1549 26.5899 66.0049C25.7299 65.6649 25.1199 64.8649 24.0899 64.7749C22.9399 64.6849 22.4899 64.9449 22.9999 66.1349C23.6499 67.6549 24.2599 69.2049 24.8999 70.7349C25.1399 71.3049 25.4599 71.8249 26.1399 71.9749C26.0999 75.9449 28.3099 78.1549 32.3999 78.1949C34.4499 78.2149 36.5299 78.2949 38.5499 78.0449C48.7799 76.7849 59.0599 75.9549 69.2599 74.4249C71.1199 74.1449 73.0199 74.1049 74.8799 73.8449C77.0599 73.5449 77.3599 73.1049 77.0999 70.9549C76.9499 69.7449 76.7299 68.5449 76.6199 67.3349C76.5299 66.3049 76.3299 66.1149 75.1499 66.3249C72.6799 66.7649 70.4499 67.8049 68.0899 68.5149C62.0499 70.3449 55.8599 71.6449 49.6499 72.6849C43.5199 73.7149 37.6099 75.5949 31.5099 76.6849C29.8299 76.9849 28.6899 76.4449 27.9299 74.9949C27.3199 73.8249 26.7799 72.6149 26.2099 71.4249L26.2399 71.4549ZM14.5299 52.2749C14.5299 53.9449 15.2299 55.0149 16.4099 55.7849C16.6099 55.9149 16.9799 55.9649 17.1899 55.8749C17.5099 55.7449 17.3499 55.3949 17.2799 55.1449C16.9199 53.8749 16.5799 52.5949 16.1599 51.3349C16.0299 50.9549 16.0899 50.3049 15.5799 50.2749C14.9599 50.2249 14.9099 50.9249 14.7099 51.3449C14.5499 51.6749 14.5599 52.0949 14.5299 52.2649V52.2749ZM12.5599 27.3949C11.7199 28.4949 11.2799 29.5949 10.9799 30.7249C10.8199 31.3349 10.9299 32.1849 11.4699 32.5349C12.0699 32.9149 12.9099 32.6649 13.5099 32.3249C14.2799 31.8949 13.5999 31.2249 13.4999 30.7049C13.2799 29.6549 12.9299 28.6349 12.5699 27.3949H12.5599ZM13.0699 41.9649C12.4399 40.2349 11.9099 38.7449 11.3599 37.2549C11.2699 37.0049 11.1699 36.7049 10.8299 36.6949C10.4899 36.6949 10.4099 36.9949 10.3099 37.2449C9.47989 39.2649 10.6399 41.4349 13.0699 41.9649ZM23.1699 71.1549C22.6099 69.7549 22.1199 68.4849 21.5899 67.2249C21.4299 66.8549 21.3799 66.2049 20.8599 66.2949C20.3399 66.3849 20.2599 66.9949 20.2099 67.4849C20.0499 69.0549 21.1699 70.4849 23.1699 71.1549Z" fill="#0A0A0A"/>
<path d="M26.1501 72.0049C25.4701 71.8649 25.1501 71.3349 24.9101 70.7649C24.2601 69.2349 23.6601 67.6949 23.0101 66.1649C22.5001 64.9749 22.9501 64.7249 24.1001 64.8049C25.1301 64.8849 25.7401 65.6849 26.6001 66.0349C26.9801 66.1849 27.3901 66.6149 27.7901 66.1549C28.1201 65.7749 27.9701 65.2949 27.7901 64.8949C27.5201 64.2649 27.0601 63.7249 26.4201 63.5149C24.8001 62.9649 24.2301 61.6249 23.7301 60.1849C23.0101 58.0949 22.7301 55.8849 21.9001 53.8249C21.6701 53.2549 21.7301 52.5449 20.8301 52.7949C19.8901 53.0549 20.2901 53.7149 20.4501 54.2749C21.1501 56.7249 21.8501 59.1649 22.5801 61.6049C22.7201 62.0749 23.1101 62.5749 22.3901 62.8449C21.7401 63.0849 21.4801 62.5349 21.3201 62.0749C21.0501 61.2949 20.9101 60.4749 20.6601 59.6849C19.9101 57.2849 19.0801 54.9049 18.3901 52.4949C18.1101 51.5249 17.2401 50.8849 17.3001 49.6649C17.3501 48.7549 17.6801 48.7749 18.2101 48.7649C19.6701 48.7549 20.7501 49.3849 21.3901 50.7349C21.6701 51.3149 21.9501 52.1649 22.7801 51.6849C23.4701 51.2849 23.4901 50.4349 23.1201 49.7449C22.5601 48.7149 21.8601 47.7449 20.7501 47.2549C19.7701 46.8149 19.4401 46.0649 19.1901 45.0949C18.6801 43.1149 18.0601 41.1649 17.4201 39.2249C17.2801 38.7949 17.2801 37.9949 16.4101 38.2149C15.5101 38.4349 15.7001 39.1149 15.8701 39.6749C16.4401 41.5149 16.6301 43.4749 17.6201 45.1949C17.8801 45.6449 18.3001 46.3049 17.4101 46.7049C16.5501 47.0949 16.3801 46.4749 16.1301 45.9049C15.8501 45.2549 15.3201 44.6749 15.7501 43.8949C15.8901 43.6349 15.8901 43.3449 15.6901 43.1149C13.9801 41.1049 13.8301 38.4149 12.6601 36.1649C12.0101 34.9249 12.5701 34.4649 13.7801 34.3949C14.9601 34.3249 15.9801 34.6849 16.7401 35.6049C17.3001 36.2849 18.0501 36.7349 18.7101 36.0749C19.3801 35.4149 18.6101 34.7849 18.1901 34.2349C18.0601 34.0649 17.9001 33.8649 17.7101 33.7749C14.2301 32.1349 14.8101 28.7049 14.2601 25.8049C14.1101 24.9949 15.0801 25.0549 15.5901 24.8849C21.2001 23.0049 26.8101 21.1249 32.4501 19.3149C41.7901 16.3049 51.4801 14.7049 60.9701 12.3049C62.2601 11.9749 63.0401 12.3949 63.5301 13.8249C67.3601 25.1949 71.2201 36.5549 75.2201 47.8749C76.7701 52.2549 77.8301 56.7949 79.8101 61.0149C80.3601 62.1849 79.6301 62.4849 78.8001 62.7749C73.8901 64.4949 68.9601 66.1549 63.9601 67.5749C56.2701 69.7549 48.3801 70.9249 40.5701 72.5349C37.8001 73.1049 35.1901 74.2349 32.4001 74.7449C30.7801 75.0349 29.6501 74.9549 29.0901 73.0749C28.7201 71.8249 27.8801 70.7249 27.6201 69.4049C27.3801 68.2249 26.6301 68.4749 25.8401 68.7549C24.7601 69.1249 25.5001 69.6349 25.7101 70.1149C25.9101 70.5649 26.2701 70.9449 26.2501 71.4849C26.2201 71.6649 26.1901 71.8449 26.1601 72.0349L26.1501 72.0049ZM29.4401 34.0549C27.9401 32.2149 26.0601 31.7449 24.4301 32.7949C23.7701 33.2149 23.3401 33.6849 23.7701 34.5649C24.5101 36.0649 24.7101 37.7349 25.1801 39.3249C25.7201 41.1249 26.2601 42.9249 26.7801 44.7249C27.0001 45.4649 27.5301 45.7049 28.1801 45.5049C28.8401 45.2949 28.6301 44.6849 28.4901 44.2349C28.2301 43.3949 27.8901 42.5749 27.5901 41.7449C27.3801 41.1549 27.1801 40.5149 27.7901 40.0749C28.9201 39.2649 29.6901 38.1649 30.3401 36.8649C30.9001 38.5549 31.3801 40.0749 31.9201 41.5849C32.0901 42.0549 32.3701 42.5249 33.0101 42.3449C33.7001 42.1549 33.5601 41.5649 33.4601 41.1049C33.2901 40.2949 32.9601 39.5249 32.7901 38.7249C32.5801 37.7649 33.0701 36.9449 33.9301 36.7949C34.7401 36.6549 34.8001 37.5349 34.8801 38.1949C35.0101 39.2649 35.6001 40.1549 36.0101 41.1149C36.1701 41.4849 36.4001 41.6249 36.7801 41.5449C37.2401 41.4449 37.4501 41.1049 37.3801 40.6949C37.3001 40.2049 37.0901 39.7449 36.9601 39.2649C36.2601 36.8249 35.5401 34.3949 34.8701 31.9449C34.7001 31.3349 34.8501 30.4249 33.8701 30.5549C32.7801 30.7049 33.2101 31.6349 33.2301 32.2949C33.2301 32.5649 33.3301 32.8549 33.4701 33.0749C34.3001 34.3449 33.6301 35.1849 32.5201 35.4849C31.2701 35.8149 31.7601 34.4949 31.4401 33.9349C31.0201 33.1749 31.3501 31.6549 30.0801 31.8049C28.9201 31.9349 29.8101 33.3049 29.4301 34.0249L29.4401 34.0549ZM44.8701 35.3049C44.9801 33.0449 44.7101 31.1049 42.7101 29.9249C41.7001 29.3249 40.5601 28.8149 39.4101 29.3349C38.3201 29.8249 38.6101 30.8749 38.8001 31.7949C38.8001 31.8449 38.7601 31.8949 38.7501 31.9449C38.2601 34.3449 39.2801 36.4049 40.5001 38.2849C41.7001 40.1449 43.6401 39.7749 44.5801 37.7249C44.9701 36.8749 44.7601 35.9849 44.8701 35.2949V35.3049ZM51.4601 29.8149C51.4401 31.2549 51.6301 32.4449 52.0801 33.5949C52.4501 34.5449 53.0101 35.2149 54.1101 35.2649C55.2501 35.3149 56.0101 34.7249 56.4701 33.7549C57.3201 31.9549 57.3101 30.0949 56.5301 28.2849C55.5301 25.9549 53.8201 25.7149 52.0401 27.5249C51.3101 28.2649 51.5101 29.1549 51.4701 29.8049L51.4601 29.8149ZM48.3401 25.5049C47.0701 25.8849 45.8001 26.2549 44.5501 26.6649C44.1301 26.8049 43.4301 26.7549 43.5601 27.5049C43.6801 28.2049 44.2401 28.6749 44.8801 28.4449C46.6501 27.8149 46.7401 29.0149 46.8001 30.1349C46.9201 32.3249 47.7901 34.3249 48.2501 36.4249C48.3801 37.0149 48.6101 38.0149 49.6301 37.6249C50.5601 37.2749 50.2801 36.4449 50.0101 35.7749C49.1401 33.6049 48.7201 31.3149 48.3001 29.0349C48.1601 28.2749 47.9501 27.4749 49.0301 27.1449C49.4401 27.0249 49.6201 26.6349 49.4201 26.2049C49.2201 25.7549 48.8801 25.5149 48.3401 25.5049ZM60.9901 24.0449C60.8601 23.8549 60.7401 23.4749 60.4901 23.3549C59.9701 23.1049 59.4201 23.2249 58.9001 23.4949C57.1801 24.3749 56.9201 26.7149 58.4501 28.4649C59.2801 29.4149 60.2901 30.2049 61.1701 31.1249C61.9501 31.9449 61.9601 32.7949 61.0101 33.5249C60.4801 33.9249 59.7101 34.3149 60.3101 35.0649C60.9301 35.8349 61.7101 35.4249 62.3501 34.9149C63.9501 33.6549 63.9301 31.1549 62.2601 29.5149C61.5501 28.8149 60.7401 28.2349 60.0101 27.5649C58.7501 26.3949 58.8301 25.7149 60.3201 24.8149C60.5901 24.6549 60.9801 24.6049 60.9901 24.0649V24.0449Z" fill="#FCFCFC"/>
<path d="M26.1499 72.0049C26.1799 71.8249 26.2099 71.6449 26.2399 71.4549C26.8099 72.6449 27.3499 73.8449 27.9599 75.0249C28.7099 76.4749 29.8599 77.0149 31.5399 76.7149C37.6399 75.6249 43.5599 73.7449 49.6799 72.7149C55.8899 71.6749 62.0699 70.3749 68.1199 68.5449C70.4799 67.8349 72.7099 66.7949 75.1799 66.3549C76.3599 66.1449 76.5699 66.3449 76.6499 67.3649C76.7499 68.5749 76.9799 69.7749 77.1299 70.9849C77.3899 73.1349 77.0899 73.5849 74.9099 73.8749C73.0399 74.1249 71.1499 74.1749 69.2899 74.4549C59.0899 75.9749 48.8099 76.8149 38.5799 78.0749C36.5499 78.3249 34.4799 78.2349 32.4299 78.2249C28.3399 78.1949 26.1299 75.9749 26.1699 72.0049H26.1499Z" fill="#F8F8F8"/>
<path d="M12.5598 27.3949C12.9198 28.6349 13.2798 29.6549 13.4898 30.7049C13.5998 31.2249 14.2798 31.8849 13.4998 32.3249C12.8998 32.6649 12.0598 32.9149 11.4598 32.5349C10.9198 32.1949 10.8098 31.3449 10.9698 30.7249C11.2698 29.5949 11.7098 28.4949 12.5498 27.3949H12.5598Z" fill="#F0F0F0"/>
<path d="M29.4402 34.0549C29.8202 33.3349 28.9302 31.9649 30.0902 31.8349C31.3602 31.6849 31.0302 33.2049 31.4502 33.9649C31.7602 34.5349 31.2802 35.8549 32.5302 35.5149C33.6402 35.2149 34.3102 34.3749 33.4802 33.1049C33.3302 32.8849 33.2402 32.5849 33.2402 32.3249C33.2202 31.6649 32.7902 30.7349 33.8802 30.5849C34.8602 30.4549 34.7102 31.3549 34.8802 31.9749C35.5602 34.4149 36.2702 36.8549 36.9702 39.2949C37.1102 39.7749 37.3202 40.2349 37.3902 40.7249C37.4502 41.1349 37.2502 41.4849 36.7902 41.5749C36.4102 41.6549 36.1802 41.5149 36.0202 41.1449C35.6102 40.1849 35.0202 39.2849 34.8902 38.2249C34.8102 37.5649 34.7502 36.6849 33.9402 36.8249C33.0802 36.9749 32.5902 37.7949 32.8002 38.7549C32.9802 39.5649 33.3002 40.3349 33.4702 41.1349C33.5702 41.5949 33.7102 42.1849 33.0202 42.3749C32.3802 42.5549 32.0902 42.0849 31.9302 41.6149C31.4002 40.1049 30.9102 38.5849 30.3502 36.8949C29.7002 38.1949 28.9302 39.2949 27.8002 40.1049C27.1902 40.5449 27.3802 41.1849 27.6002 41.7749C27.9002 42.6049 28.2402 43.4249 28.5002 44.2649C28.6402 44.7149 28.8502 45.3249 28.1902 45.5349C27.5402 45.7349 27.0002 45.5049 26.7902 44.7549C26.2702 42.9549 25.7302 41.1549 25.1902 39.3549C24.7202 37.7649 24.5102 36.0949 23.7802 34.5949C23.3502 33.7149 23.7802 33.2449 24.4402 32.8249C26.0702 31.7749 27.9402 32.2449 29.4502 34.0849L29.4402 34.0549ZM28.2402 36.0449C28.2102 35.9049 28.1902 35.5449 28.0402 35.2649C27.6802 34.5949 27.0902 34.0249 26.3302 34.2249C25.3702 34.4749 25.9202 35.3149 25.9802 35.8949C26.0302 36.3849 26.2402 36.8549 26.3702 37.3349C26.6602 38.4749 27.2002 38.2749 27.8402 37.6149C28.2202 37.2149 28.2802 36.7449 28.2502 36.0449H28.2402Z" fill="#0A0A0A"/>
<path d="M44.8701 35.3049C44.7601 35.9849 44.9701 36.8749 44.5801 37.7349C43.6401 39.7849 41.7001 40.1549 40.5001 38.2949C39.2901 36.4149 38.2701 34.3549 38.7501 31.9549C38.7601 31.9049 38.8101 31.8449 38.8001 31.8049C38.6201 30.8849 38.3301 29.8349 39.4101 29.3449C40.5601 28.8249 41.7001 29.3449 42.7101 29.9349C44.7101 31.1149 44.9801 33.0549 44.8701 35.3149V35.3049ZM43.1401 35.0949C42.8401 33.9649 43.0401 32.4949 41.7401 31.6649C41.4001 31.4449 41.0201 31.1049 40.5301 31.4549C40.1401 31.7349 40.2001 32.1349 40.2401 32.5049C40.3801 33.6549 40.5501 34.8149 41.0201 35.8749C41.2901 36.4949 41.4401 37.4949 42.3301 37.3549C43.2401 37.2149 42.7801 36.1349 43.1001 35.5449C43.1501 35.4549 43.1201 35.3249 43.1401 35.0949Z" fill="#0C0C0C"/>
<path d="M51.4602 29.8149C51.5002 29.1649 51.3002 28.2749 52.0302 27.5349C53.8102 25.7249 55.5202 25.9749 56.5202 28.2949C57.3002 30.1049 57.3002 31.9649 56.4602 33.7649C56.0002 34.7349 55.2502 35.3249 54.1002 35.2749C53.0002 35.2249 52.4402 34.5449 52.0702 33.6049C51.6202 32.4549 51.4302 31.2649 51.4502 29.8249L51.4602 29.8149ZM55.1902 30.7149C55.0902 30.1049 55.4202 28.6049 54.0902 28.7049C52.8602 28.7949 53.1202 30.2549 53.2402 31.2049C53.3402 31.9749 53.3002 33.2549 54.2702 33.1949C55.2702 33.1349 55.2702 31.9449 55.1902 30.7149Z" fill="#0C0C0C"/>
<path d="M48.3398 25.5049C48.8798 25.5149 49.2198 25.7549 49.4198 26.2049C49.6098 26.6449 49.4398 27.0249 49.0298 27.1449C47.9398 27.4749 48.1498 28.2749 48.2998 29.0349C48.7198 31.3149 49.1498 33.5949 50.0098 35.7749C50.2798 36.4449 50.5598 37.2649 49.6298 37.6249C48.6098 38.0149 48.3798 37.0149 48.2498 36.4249C47.7898 34.3249 46.9198 32.3149 46.7998 30.1349C46.7398 29.0049 46.6498 27.8149 44.8798 28.4449C44.2398 28.6749 43.6898 28.2049 43.5598 27.5049C43.4298 26.7549 44.1298 26.8049 44.5498 26.6649C45.8098 26.2549 47.0798 25.8949 48.3398 25.5049Z" fill="#0C0C0C"/>
<path d="M60.99 24.0449C60.98 24.5949 60.6 24.6349 60.32 24.7949C58.83 25.6949 58.75 26.3749 60.01 27.5449C60.74 28.2249 61.55 28.8049 62.26 29.4949C63.93 31.1349 63.95 33.6349 62.35 34.8949C61.71 35.3949 60.93 35.8149 60.31 35.0449C59.71 34.2949 60.48 33.9049 61.01 33.5049C61.96 32.7749 61.95 31.9249 61.17 31.1049C60.29 30.1849 59.28 29.3949 58.45 28.4449C56.92 26.6949 57.17 24.3549 58.9 23.4749C59.41 23.2149 59.97 23.0949 60.49 23.3349C60.74 23.4549 60.86 23.8349 60.99 24.0249V24.0449Z" fill="#0C0C0C"/>
<path d="M28.2398 36.0449C28.2698 36.7449 28.2098 37.2149 27.8298 37.6149C27.1898 38.2849 26.6598 38.4849 26.3598 37.3349C26.2398 36.8549 26.0198 36.3849 25.9698 35.8949C25.9098 35.3049 25.3598 34.4749 26.3198 34.2249C27.0798 34.0249 27.6698 34.5949 28.0298 35.2649C28.1798 35.5449 28.1998 35.8949 28.2298 36.0449H28.2398Z" fill="#F0F0F0"/>
<path d="M43.1402 35.0949C43.1202 35.3349 43.1502 35.4649 43.1002 35.5449C42.7802 36.1349 43.2402 37.2149 42.3302 37.3549C41.4402 37.4949 41.2902 36.4949 41.0202 35.8749C40.5502 34.8049 40.3802 33.6549 40.2402 32.5049C40.2002 32.1249 40.1402 31.7349 40.5302 31.4549C41.0102 31.1049 41.4002 31.4549 41.7402 31.6649C43.0502 32.5049 42.8502 33.9649 43.1402 35.0949Z" fill="#F0F0F0"/>
<path d="M55.19 30.7148C55.27 31.9348 55.27 33.1248 54.27 33.1948C53.3 33.2548 53.34 31.9748 53.24 31.2048C53.12 30.2548 52.86 28.7948 54.09 28.7048C55.42 28.6148 55.09 30.1048 55.19 30.7148Z" fill="#F0F0F0"/>
</svg>
