<svg xmlns="http://www.w3.org/2000/svg" width="28" height="26" viewBox="0 0 28 26" fill="none">
<path d="M14.0694 0.58313C6.60251 0.58313 0.580811 5.40043 0.580811 11.2487C0.580811 15.0448 3.08584 18.3687 6.84337 20.2668L5.57159 25.0167C5.54761 25.0879 5.54392 25.1643 5.56094 25.2375C5.57796 25.3107 5.61501 25.3777 5.66794 25.431C5.74512 25.499 5.84443 25.5367 5.94735 25.5369C6.03267 25.5301 6.11363 25.4964 6.17858 25.4406L11.6511 21.7506C12.4589 21.8621 13.2732 21.9199 14.0887 21.9239C21.5459 21.9239 27.5773 17.1066 27.5773 11.2487C27.5773 5.3908 21.5267 0.58313 14.0694 0.58313Z" fill="#392020"/>
<path d="M5.30136 9.56257H3.82725C3.64454 9.56787 3.46409 9.52108 3.30697 9.42767C3.23722 9.38397 3.17724 9.32629 3.13082 9.25831C3.0844 9.19033 3.05252 9.11349 3.0372 9.03262C3.03252 8.98134 3.03252 8.92982 3.0372 8.87855C3.03262 8.7826 3.05125 8.6869 3.0915 8.59969C3.13176 8.51247 3.19245 8.43629 3.26843 8.37752C3.4364 8.25587 3.63914 8.19161 3.84651 8.1944H8.28812C8.47228 8.18793 8.65395 8.23842 8.80839 8.33894C8.87979 8.38072 8.94103 8.43788 8.98768 8.50619C9.03434 8.5745 9.06524 8.65229 9.07816 8.734C9.08287 8.78206 9.08287 8.83049 9.07816 8.87855C9.08271 8.97588 9.06412 9.07287 9.02393 9.16164C8.98374 9.2504 8.92308 9.3283 8.84693 9.3891C8.68305 9.5106 8.48227 9.5719 8.27848 9.56257H6.85255V14.6304C6.85834 14.7384 6.84163 14.8463 6.80348 14.9475C6.76533 15.0487 6.70658 15.1409 6.63095 15.2181C6.55842 15.292 6.47124 15.3499 6.37499 15.3881C6.27875 15.4263 6.17558 15.4438 6.07213 15.4397C5.89119 15.4449 5.71408 15.3871 5.57113 15.276C5.43503 15.1675 5.34267 15.0135 5.31099 14.8424C5.30147 14.772 5.30147 14.7008 5.31099 14.6304L5.30136 9.56257Z" fill="#FEE500"/>
<path d="M9.50348 8.57015C9.54586 8.4116 9.64538 8.27431 9.78289 8.18474C9.92941 8.10169 10.0964 8.06163 10.2646 8.06913H10.6307C10.8093 8.06273 10.9861 8.1061 11.1414 8.19438C11.306 8.30505 11.4229 8.47357 11.469 8.66647L13.3959 14.1101C13.4459 14.2521 13.4877 14.397 13.5212 14.5437C13.5245 14.6047 13.5245 14.6658 13.5212 14.7267C13.5244 14.8206 13.5071 14.9141 13.4705 15.0007C13.4339 15.0872 13.3789 15.1647 13.3092 15.2278C13.2417 15.297 13.1607 15.3515 13.0711 15.388C12.9816 15.4244 12.8855 15.442 12.7889 15.4397C12.6403 15.4545 12.4911 15.4188 12.3652 15.3384C12.2394 15.258 12.1443 15.1376 12.0952 14.9965L11.6906 13.8115H9.15663L8.75197 14.9965C8.70411 15.1404 8.60785 15.2632 8.4796 15.344C8.35135 15.4248 8.19904 15.4586 8.04864 15.4397C7.88572 15.444 7.72613 15.393 7.5958 15.2952C7.46883 15.1942 7.38316 15.0503 7.35494 14.8906C7.34983 14.8361 7.34983 14.7812 7.35494 14.7267C7.33839 14.6311 7.33839 14.5334 7.35494 14.4378C7.35494 14.3318 7.42238 14.2161 7.46092 14.1101L9.50348 8.57015ZM10.467 9.83235L9.55165 12.7228H11.3726L10.467 9.83235Z" fill="#FEE500"/>
<path d="M13.7418 8.87868C13.732 8.66247 13.8082 8.45118 13.9538 8.29098C14.0278 8.21635 14.1166 8.15803 14.2145 8.11986C14.3124 8.08169 14.4172 8.06442 14.5222 8.06928C14.7027 8.06718 14.8788 8.1248 15.0232 8.23312C15.157 8.34613 15.2459 8.50334 15.2737 8.67628C15.2832 8.74339 15.2832 8.81158 15.2737 8.87868V13.9466H17.9233C18.1069 13.9442 18.2874 13.9942 18.4435 14.091C18.5137 14.1342 18.574 14.1918 18.6204 14.2599C18.6669 14.3279 18.6986 14.405 18.7133 14.486C18.7133 14.486 18.7133 14.5824 18.7133 14.6306C18.7179 14.7265 18.6993 14.8221 18.659 14.9093C18.6188 14.9965 18.5581 15.0728 18.4821 15.1316C18.3141 15.2533 18.1114 15.3174 17.904 15.3146H14.6475C14.4401 15.328 14.2339 15.274 14.0597 15.1605C13.904 15.0441 13.8002 14.8711 13.7707 14.6788C13.7636 14.5729 13.7636 14.4666 13.7707 14.3608L13.7418 8.87868Z" fill="#FEE500"/>
<path d="M18.887 8.87873C18.8812 8.66314 18.9569 8.45331 19.0989 8.29103C19.2433 8.15981 19.4286 8.08233 19.6234 8.0718C19.8182 8.06127 20.0107 8.11828 20.1684 8.23316C20.3051 8.34519 20.3974 8.50232 20.4285 8.67632C20.4333 8.74368 20.4333 8.81137 20.4285 8.87873V11.2392L22.8661 8.42581C22.96 8.32983 23.0598 8.23983 23.1648 8.15613C23.2637 8.0972 23.3772 8.06708 23.4924 8.06933C23.6608 8.06841 23.8254 8.11885 23.9645 8.21388C24.03 8.25799 24.0859 8.3149 24.129 8.38112C24.172 8.44733 24.2012 8.52151 24.215 8.59929C24.2189 8.61836 24.2189 8.63808 24.215 8.65715C24.2103 8.67939 24.2103 8.70231 24.215 8.72454C24.2146 8.82593 24.1881 8.92555 24.1379 9.01363C24.0868 9.1069 24.0254 9.19406 23.9548 9.27367L22.3555 11.0273L24.2824 14.014V14.1103C24.3825 14.2484 24.4605 14.4012 24.5136 14.5632V14.6113C24.5248 14.723 24.5087 14.8357 24.4667 14.9397C24.4248 15.0437 24.3582 15.136 24.2728 15.2087C24.112 15.3302 23.9154 15.3946 23.714 15.3918C23.5801 15.3973 23.4472 15.3673 23.3286 15.305C23.2002 15.219 23.0945 15.1033 23.0203 14.9678L21.2282 12.0774L20.3707 12.9735V14.5824C20.3765 14.798 20.3008 15.0078 20.1588 15.1701C20.0826 15.2445 19.992 15.3027 19.8926 15.3408C19.7932 15.3789 19.687 15.3963 19.5807 15.3918C19.4029 15.3955 19.2293 15.3376 19.0893 15.228C18.9532 15.1195 18.8608 14.9656 18.8292 14.7945C18.8196 14.7241 18.8196 14.6527 18.8292 14.5824L18.887 8.87873Z" fill="#FEE500"/>
</svg>