<svg width="90" height="90" viewBox="0 0 90 90" fill="none" xmlns="http://www.w3.org/2000/svg">
<g clip-path="url(#clip0_3386_19283)">
<path fill-rule="evenodd" clip-rule="evenodd" d="M16.2219 48.3918L30.4518 40.9815L30.4528 38.5142L26.1253 32.9654L19.324 26.1844L19.9446 21.2494L26.1325 15.6943L37.8866 11.9865L43.4526 14.4505L44.6881 18.1507L43.4464 29.2542L45.9183 34.8041L60.7665 28.0103L63.859 28.6253L68.183 42.8096L70.0348 52.0609L74.9814 56.3757L63.2266 61.9341L58.8972 60.703L55.8036 62.5553L53.9467 65.6405L45.9041 68.7294L41.5748 67.4983L37.2438 69.9681L35.3869 73.0533L24.2508 77.9945L23.6335 74.9108L22.3995 67.5096L14.9838 50.8598L16.2219 48.3918ZM40.9919 35.4757L39.736 27.305C39.947 24.581 40.3691 19.0075 40.3693 18.5046C40.3696 17.876 38.4815 15.9914 37.2222 15.9922C36.2148 15.9928 28.8258 19.3495 25.2572 21.0278L23.9948 28.5714C26.9317 31.7125 32.9316 37.9947 33.4353 37.9944C33.939 37.9941 37.0033 37.5733 38.4726 37.3629L40.9919 35.4757Z" fill="white"/>
<path d="M31.6429 37.3862C29.0711 34.771 27.0781 32.2023 24.6844 29.9785C21.6181 27.1388 22.1724 21.8656 25.7886 19.0834C27.5799 17.7041 29.2519 16.189 31.4462 15.3771C34.1759 14.3633 36.9573 14.0078 39.5614 14.7864C41.3398 15.3124 42.6098 16.7065 43.5972 18.244C43.673 18.3691 43.6846 18.5528 43.8797 18.576C44.1334 17.6168 43.5077 16.0724 42.5253 15.1711C40.5418 13.3497 38.1225 12.5101 35.2625 13.2541C31.7927 14.1746 28.3182 15.2216 25.3509 17.4895C23.7341 18.7236 22.3362 20.1607 21.4153 21.9029C20.141 24.2997 21.0019 26.3417 22.3644 28.2056C22.9404 29.0034 23.6882 29.6945 24.3868 30.4019C26.1596 32.1929 27.7276 34.164 29.3566 36.065C29.7207 36.495 29.9941 37.0801 29.4139 37.4093C28.9167 37.6985 28.4591 37.4618 28.1534 36.7623C27.9209 36.2263 26.994 36.0445 26.4828 35.4754C24.362 33.074 22.1252 30.7859 19.9493 28.4276C18.4506 26.7963 18.6462 22.492 20.1661 20.2018C22.4324 16.7896 25.6227 14.5483 29.4382 13.0885C31.1891 12.4229 32.914 11.6658 34.7459 11.2861C39.8031 10.2168 43.4855 11.9025 45.7601 15.9416C46.1145 16.575 46.2407 17.2587 46.1361 18.0311C45.6055 21.7707 45.563 25.4742 45.6073 29.199C45.6161 30.3717 46.0754 31.2331 46.2585 32.2607C46.3783 32.9216 46.7237 33.0952 47.4432 32.7826C51.7365 30.9649 56.1354 29.4251 60.3905 27.52C63.1053 26.3111 64.257 26.6687 65.5793 29.0086C66.5601 30.7609 66.8856 32.7671 67.4509 34.669C68.8049 39.2622 70.0604 43.8878 71.3619 48.4858C71.5659 49.2063 71.7271 49.966 71.817 50.7118C72.0924 53.1597 74.2797 54.226 75.7221 55.8009C76.716 56.8859 76.745 57.4642 75.2878 58.1204C72.8283 59.2325 70.3177 60.2115 67.8265 61.2591C66.9838 61.6123 66.1696 62.0187 65.3489 62.4022C64.0764 62.9974 62.981 62.9338 61.9163 62.1222C60.1336 60.7723 57.7371 61.7261 57.1907 63.9826C56.8052 65.5231 56.0719 66.453 54.301 67.0002C52.2714 67.6327 50.1602 68.1672 48.264 69.3185C46.4812 70.3948 45.7158 70.2598 44.2474 69.0687C42.9008 67.975 41.9357 67.9434 40.3441 68.9816C39.0132 69.8463 37.6817 70.6611 37.6209 72.4446C37.6039 73.0505 37.1325 73.6689 36.4518 73.8811C32.6604 75.0453 29.2725 77.3019 25.4525 78.413C23.6103 78.9461 23.1897 78.6973 22.9258 76.9084C22.8074 76.1096 22.7849 75.3166 22.8117 74.5073C22.8809 72.6585 21.7645 71.1886 21.3288 69.5065C21.1766 68.9689 20.9661 68.4631 20.9371 67.8849C20.8753 66.4295 19.9831 65.3234 19.4169 64.0845C17.6524 60.2773 15.8172 56.5059 14.028 52.7068C13.3194 51.2023 13.7826 49.6987 14.5245 48.2281C14.7748 47.7327 15.2429 47.3406 15.7719 47.1159C19.5861 45.5565 23.2604 43.6931 26.8842 41.7463C27.2712 41.5435 27.6576 41.2908 28.0614 41.195C29.0908 40.9302 29.5473 40.3543 29.6519 39.3442C29.7578 38.4338 29.5591 37.1612 31.6397 37.3748L31.6429 37.3862ZM31.5009 37.8834C31.5278 39.0251 31.8425 39.9467 31.7126 40.9151C31.43 43.2471 31.8267 45.5049 31.9855 47.7786C32.1728 50.3432 32.5298 52.8892 32.8837 55.4238C33.0331 56.475 32.8799 57.5512 33.0513 58.6327C33.2098 59.6684 33.0915 60.8205 33.3836 61.8997C33.5131 62.3573 33.5265 62.9281 32.8206 63.0986C32.1361 63.2496 31.7946 62.8996 31.7371 62.2682C31.6764 61.3878 31.6773 60.487 31.5797 59.6188C31.2053 56.4406 30.8588 53.2658 30.4072 50.1007C30.0909 47.8414 29.8517 45.5691 29.7914 43.2628C29.7761 42.5424 29.7334 42.1063 28.7014 42.6471C25.501 44.3291 22.2247 45.886 18.9925 47.5034C16.8357 48.5906 16.3862 49.7145 16.9606 51.8386C17.9014 55.305 19.5157 58.4865 20.7917 61.8047C21.738 64.2437 22.9488 66.5704 24.2023 68.858C24.7024 69.7684 26.1243 70.4621 24.3584 71.6454C24.3124 71.6731 24.2896 71.8308 24.3149 71.8724C25.1948 72.9827 24.3985 74.3086 24.5128 75.5215C24.6124 76.5392 24.8897 76.7103 25.9418 76.2879C28.9782 75.0728 31.7943 73.3177 34.933 72.369C35.3919 72.23 35.5119 71.9402 35.6306 71.5508C36.9891 67.0252 42.1861 65.0218 45.8306 67.6205C46.2175 67.893 46.5123 67.9833 46.9603 67.7103C49.0497 66.4327 51.5497 66.3202 53.6955 65.099C54.3554 64.7185 54.7911 64.4496 55.0291 63.7207C55.3859 62.6024 55.8976 61.5079 56.9576 60.7328C58.7437 59.4302 61.3546 58.8058 62.9688 60.274C63.5164 60.7811 64.1282 60.7541 64.9275 60.3902C67.1316 59.3749 69.3861 58.4429 71.6504 57.5453C72.5333 57.1913 72.7382 57.0111 71.9359 56.413C70.0003 54.9509 68.7246 52.8708 68.1341 50.6895C66.9278 46.2852 66.2232 41.7028 65.5005 37.1514C65.1045 34.7058 64.4525 32.3072 63.4096 30.0501C63.0118 29.1684 62.4856 28.8794 61.4484 29.2594C59.7313 29.9013 57.9882 30.4518 56.2866 31.1011C53.6865 32.0971 51.1182 33.1576 48.5246 34.1765C47.8233 34.4581 47.6131 34.9527 48.0025 35.4244C49.0521 36.7538 49.9456 38.1972 50.9829 39.5306C53.1237 42.2882 55.396 44.9397 57.5705 47.6737C58.466 48.7913 59.4561 49.8151 60.4831 50.8267C61.0812 51.4172 61.2897 52.2488 60.6115 52.8979C59.8478 53.6253 59.2089 52.9858 58.6983 52.4665C58.1125 51.872 57.5482 51.2579 57.0052 50.6243C54.9155 48.2375 52.7279 45.9332 50.7945 43.4323C49.0717 41.1997 47.3948 38.9393 45.5741 36.789C43.9199 34.8463 42.3298 32.8449 41.9436 30.196C41.6661 28.3115 41.4164 26.4304 41.2776 24.5127C40.4257 27.5454 40.4139 30.5009 41.6673 33.2638C42.7044 35.5477 44.4189 37.3704 46.0783 39.2364C49.4004 42.9796 51.8434 47.3758 55.4229 50.934C56.378 51.8819 57.1743 52.9822 57.9641 54.0596C58.2537 54.4643 58.3851 55.0712 57.7628 55.4893C57.1955 55.8642 56.7523 55.5353 56.4478 55.1731C54.2985 52.7185 52.1064 50.3031 50.046 47.7816C48.3717 45.7205 47.157 43.3326 45.4335 41.2877C44.4382 40.103 43.3509 38.9737 42.4782 37.6985C41.9994 37.0061 41.5561 36.9149 40.8151 37.247C39.2931 37.9121 37.7898 38.596 36.2612 39.2383C35.637 39.5069 35.4989 39.8277 35.535 40.4786C35.7401 43.9627 36.3244 47.3592 36.7578 50.793C36.9841 52.5442 37.0102 54.3491 37.4213 56.0393C37.9794 58.3439 38.0066 60.7236 38.2036 63.0849C38.2656 63.8273 37.7593 64.132 37.0153 63.9775C36.7735 63.9322 36.5079 63.7073 36.3264 63.7797C35.7384 63.9863 35.164 64.2885 34.6936 63.7684C34.2828 63.3163 34.1793 62.7126 34.1159 62.1082C33.869 59.7134 33.554 57.3161 33.344 54.9091C32.9273 50.1066 32.6434 45.2977 32.5229 40.4474C32.5031 39.6161 32.5455 38.5765 31.4879 37.8376L31.5009 37.8834ZM33.5118 18.0594C32.1596 18.4683 30.8554 18.9989 29.7189 19.8369C27.9056 21.1859 26.4902 22.9414 27.0665 24.9773C27.905 27.9397 29.8314 30.1302 31.9568 32.1674C33.4939 33.6485 35.0361 35.0528 35.4321 37.2608C35.535 37.8146 35.9026 37.5432 36.2041 37.4187C37.4928 36.8807 38.7594 36.3124 40.0514 35.7858C40.7774 35.4961 40.7477 35.1057 40.3894 34.6487C38.7119 32.5761 38.6581 30.055 38.7366 27.4778C38.7864 25.5603 39.4273 23.6854 39.6813 21.7756C39.9827 19.4624 39.2312 17.9971 37.3789 17.4955C36.0509 17.1336 34.7674 17.5948 33.5118 18.0594Z" fill="black"/>
<path d="M57.5004 33.6472C57.7741 33.599 58.2419 33.2278 58.8327 33.2377C59.2105 33.2461 59.6452 33.1059 59.6952 33.5806C59.7354 33.9783 59.5007 34.2043 59.0766 34.3811C57.4058 35.0901 55.757 35.832 54.0782 36.5135C53.3276 36.8156 52.6079 37.1378 51.8794 37.4728C51.3374 37.7177 50.5981 37.8859 50.3771 37.2961C50.1861 36.7667 50.8345 36.4574 51.3387 36.2548C53.3237 35.4646 55.1948 34.4106 57.4889 33.6509L57.5004 33.6472Z" fill="black"/>
<path d="M27.9702 69.5109C27.6104 69.555 26.9056 69.9192 26.6581 69.2797C26.4138 68.6515 26.871 68.185 27.5704 67.9813C29.3804 67.4399 30.9631 66.5087 32.3548 65.2249C32.6389 64.9614 33.0844 64.3645 33.5903 64.9196C34.0631 65.449 33.9209 65.9836 33.3964 66.4841C31.9021 67.9479 30.0472 68.7359 27.9702 69.5109Z" fill="black"/>
<path d="M62.7579 56.137C63.9744 55.7475 65.1909 55.358 66.4073 54.9684C66.9758 54.7864 67.6246 54.6669 67.7652 55.0632C67.9335 55.555 67.1668 55.6962 66.6751 55.8858C64.9635 56.5382 63.1576 56.8677 61.4454 57.5604C60.8443 57.8011 60.2635 57.7704 60.118 57.3997C59.9618 56.9923 60.6518 56.8435 61.0526 56.6831C61.6103 56.4644 62.1873 56.3117 62.7671 56.1261C62.7671 56.1261 62.7671 56.1261 62.7693 56.1334L62.7579 56.137Z" fill="black"/>
<path d="M26.6975 46.8839C26.556 47.2827 26.7978 47.7484 25.9935 47.9996C24.0987 48.5849 22.4227 49.603 20.6824 50.4909C20.2226 50.7209 19.7902 50.9521 19.4902 50.5657C19.2282 50.2174 19.4666 49.8275 19.9184 49.5699C21.8393 48.5125 23.7522 47.4274 25.8937 46.762C26.2514 46.6458 26.565 46.5641 26.7098 46.8799L26.6975 46.8839Z" fill="black"/>
<path d="M64.4514 52.2584C64.9594 52.093 65.468 51.8851 65.987 51.7585C66.4861 51.6524 66.9132 51.8803 67.0408 52.4598C67.158 52.958 66.9368 53.3123 66.491 53.5139C65.5048 53.9478 64.4252 54.1017 63.4495 54.6169C62.8095 54.9523 62.4056 54.2652 62.2331 53.7992C62.0524 53.3499 62.4205 52.8772 62.9011 52.7067C63.409 52.5413 63.9435 52.4237 64.4589 52.2842C64.4589 52.2842 64.4514 52.2584 64.4477 52.2455L64.4514 52.2584Z" fill="black"/>
</g>
<defs>
<clipPath id="clip0_3386_19283">
<rect width="90" height="90" fill="white"/>
</clipPath>
</defs>
</svg>
