<svg width="90" height="90" viewBox="0 0 90 90" fill="none" xmlns="http://www.w3.org/2000/svg">
<path d="M48.6429 21H71.7143L75.3571 25.3077L79 53L78.3929 64.6923C77.7857 65.1026 76.45 65.9231 75.9643 65.9231C75.4786 65.9231 60.381 67.5641 52.8929 68.3846L21.3214 69L15.25 68.3846L14.0357 64.6923L11 45.6154L12.2143 29L13.4286 27.1538L48.6429 21Z" fill="white"/>
<path d="M44.7209 69.2668C39.431 69.4745 34.1289 69.621 28.8511 69.9019C24.4388 70.134 20.0508 69.9508 15.6872 69.3889C14.1636 69.1935 13.4079 68.0333 12.896 66.7509C12.0915 64.7601 11.9209 62.6227 11.6283 60.5342C11.1042 56.7969 10.6654 53.0352 10.3607 49.2734C10.0072 44.9987 9.92191 40.7118 10.0682 36.4126C10.1657 33.7989 10.2145 31.1853 10.5801 28.5838C10.7629 27.3136 11.3846 26.7762 12.6522 26.422C16.5892 25.335 20.6359 24.8099 24.5729 23.7961C26.2915 23.3565 28.1442 23.4053 29.875 22.9534C32.3371 22.3183 34.8114 21.8053 37.3223 21.5733C43.5386 20.9993 49.7549 20.5229 55.9956 20.3641C60.3592 20.2542 64.7349 20.3153 69.0985 20.0222C72.8527 19.7779 75.1807 21.5489 76.2168 25.4816C77.6551 30.8799 78.2767 36.4004 78.7765 41.9453C79.0446 44.9498 79.5443 47.9299 79.8247 50.9344C80.2757 55.8442 79.8247 60.6441 78.8374 65.444C78.6668 66.2745 78.2279 66.6165 77.4357 66.6898C73.4987 67.105 69.5617 67.5814 65.6125 67.9478C62.1144 68.2775 58.604 68.4974 55.1058 68.7783C51.6564 69.047 48.1947 69.2546 44.7331 69.2668H44.7209ZM75.7658 64.6746C74.3032 61.7311 71.8532 59.7159 70.1224 57.1389C68.7816 55.1603 67.2215 53.3283 65.7588 51.423C64.6984 50.0306 63.6989 48.565 62.5897 47.246C61.5537 46.0124 60.5908 44.6812 59.4572 43.5087C59.189 43.2277 59.1281 42.6415 58.6284 42.7514C58.0799 42.8735 57.7264 43.3499 57.6898 43.9239C57.5679 45.5361 56.7025 46.7941 55.7274 47.9421C53.8747 50.1161 51.9245 52.2046 49.9987 54.3176C49.5477 54.8061 49.0236 55.2336 48.2801 54.8549C46.3299 53.8412 44.3309 52.9374 42.5391 51.6306C39.8942 49.7009 37.7368 47.0872 34.4945 45.9513C33.6779 45.6704 33.3 45.7071 32.7272 46.2811C30.07 48.9314 27.9613 52.0336 25.487 54.8427C24.9873 55.4046 24.2803 56.0396 24.0731 56.5648C23.4027 58.2259 22.0498 59.264 21.0381 60.6075C19.5632 62.5739 17.8934 64.3936 16.382 66.3356C15.6141 67.3249 15.7969 67.5691 17.028 67.7279C21.5013 68.2897 25.9868 67.8012 30.46 67.8256C32.8734 67.8378 35.2746 67.5814 37.688 67.5325C43.8433 67.4226 49.9987 67.2516 56.1297 66.7386C59.9082 66.4211 63.6745 65.9814 67.453 65.7249C70.2321 65.5295 72.9258 64.9799 75.7536 64.6868L75.7658 64.6746ZM57.5557 40.8705C58.9696 39.1485 60.5054 37.6462 61.834 35.9241C64.9178 31.9059 67.7699 27.7411 70.4393 23.4419C71.2681 22.0985 71.1828 21.9886 69.6592 21.9641C67.3068 21.9275 64.9422 22.0618 62.5897 22.074C56.3369 22.0863 50.1084 22.416 43.8799 22.7458C37.688 23.0756 31.5936 24.2725 25.4992 25.4327C24.3413 25.6526 23.1955 25.9091 22.0376 26.1167C19.2951 26.6052 16.4917 26.8983 13.7126 28.0342C14.5293 28.6204 15.2606 29.0601 15.8944 29.6097C19.2585 32.541 22.5251 35.5943 26.0721 38.3179C29.034 40.6019 32.1909 42.5316 35.4453 44.3392C36.4813 44.9132 36.5788 44.5834 36.4935 43.6186C36.3594 41.9575 36.7982 40.4064 38.3218 39.6003C40.5524 38.4156 42.8317 38.3301 45.0013 39.9301C46.988 41.3835 47.0002 41.3591 48.6579 39.4171C50.2059 37.5973 53.2043 37.2309 55.3374 38.379C56.3978 38.953 56.7878 39.979 57.5557 40.8705ZM14.8462 66.0425C14.9681 65.9326 15.1387 65.8226 15.2606 65.6639C18.2347 61.6212 21.3794 57.7007 24.5363 53.8046C25.8892 52.1436 26.9984 50.3115 28.6317 48.8215C29.7653 47.7834 30.5332 46.33 31.6545 45.2185C32.203 44.6689 31.8008 44.4979 31.3742 44.2415C30.2285 43.5453 29.034 42.898 27.9613 42.0919C23.8659 39.0385 19.8314 35.8997 16.2235 32.2723C15.224 31.2708 14.1636 30.4036 12.8838 29.7929C12.2987 29.512 12.0428 29.5365 11.994 30.3303C11.7624 34.4951 11.5552 38.6477 11.7258 42.8125C11.8355 45.6582 11.7258 48.5528 12.2012 51.3497C12.8594 55.2824 12.8229 59.2762 13.7004 63.1723C13.8955 64.015 14.2367 64.7967 14.4196 65.6272C14.4561 65.8226 14.5537 66.018 14.8706 66.0425H14.8462ZM77.8988 53.768C77.6551 51.3375 77.6429 48.8826 77.3138 46.4521C76.6068 41.1392 76.2899 35.7775 75.327 30.5013C74.9248 28.254 74.4616 26.0068 73.5109 23.9183C73.0721 22.9656 72.6455 22.9168 72.231 23.8328C71.7557 24.9198 70.6587 25.5427 70.354 26.8129C70.1468 27.6922 69.2692 28.4128 68.7329 29.2311C66.2585 33.0906 63.577 36.779 60.5542 40.211C59.9935 40.8461 59.8351 41.2736 60.3957 41.982C61.7731 43.7407 63.126 45.5239 64.5277 47.2582C68.2819 51.9115 71.6704 56.8335 75.5098 61.4136C75.6683 61.5968 75.9608 61.8532 75.9121 61.9876C75.5952 62.9158 76.5703 62.8059 76.7897 62.8425C77.3625 62.928 77.2041 62.2929 77.265 61.9388C77.7648 59.2396 78.1061 56.516 77.8745 53.7557L77.8988 53.768Z" fill="black"/>
</svg>
