<svg width="90" height="90" viewBox="0 0 90 90" fill="none" xmlns="http://www.w3.org/2000/svg">
<path d="M35.4706 58.4749C34.0103 60.21 32.6514 61.8233 31.2704 63.4586L31.2678 63.4618C31.0412 63.7256 30.8461 64.0031 30.6371 64.3004C30.5103 64.4808 30.3783 64.6685 30.2312 64.8648C29.8718 65.3441 29.4375 65.8462 28.8612 66.126L28.8487 66.1321L28.8486 66.1319C28.2291 66.4117 27.54 66.4747 26.8968 66.4874C26.6372 66.4926 26.3727 66.4895 26.1179 66.4865C26.0555 66.4857 25.9937 66.485 25.9327 66.4844C25.6171 66.4813 25.3172 66.4815 25.0305 66.4991L24.4181 66.5365L24.505 65.9292C24.5386 65.6946 24.5535 65.439 24.5643 65.1614C24.5671 65.09 24.5696 65.0163 24.5722 64.9412C24.5793 64.7339 24.5867 64.5162 24.6009 64.3069C24.639 63.7459 24.7303 63.1054 25.0913 62.5975C25.0914 62.5974 25.0915 62.5973 25.0915 62.5973L25.499 62.887L35.4706 58.4749ZM35.4706 58.4749C35.6598 58.5921 35.8461 58.7083 36.0303 58.8233C36.7627 59.2803 37.4622 59.7169 38.1814 60.1118C38.5466 60.3153 38.913 60.5229 39.2814 60.7316C40.8287 61.608 42.4091 62.5033 44.0684 63.1985C45.9217 63.98 47.632 64.0261 48.9052 63.2592C50.1906 62.485 50.8751 60.9778 50.8751 59.0019C50.8751 57.6861 50.6813 56.3742 50.4525 55.0884C50.3886 54.7291 50.3222 54.3732 50.2562 54.0195C50.0841 53.0965 49.9148 52.1889 49.799 51.2752C49.7632 50.9157 49.742 50.5173 49.7724 50.1562C49.8038 49.7826 49.8853 49.5204 49.996 49.3726C51.5832 47.3926 53.2404 45.4924 55.0424 43.7185L55.0448 43.716C55.357 43.4044 55.7939 43.0811 56.2477 42.8533C56.7145 42.6189 57.1276 42.5211 57.4155 42.5621L57.4187 42.5626C59.9774 42.9102 62.2319 41.8738 63.4803 40.0663C64.7339 38.2513 64.9304 35.7231 63.5121 33.1823C61.8756 30.2223 59.3532 27.5042 56.6058 25.5237L56.6049 25.5231C54.3498 23.9044 50.9489 22.4374 47.825 24.5434L47.8241 24.5441C44.8659 26.5486 44.4788 29.6667 45.0167 32.8366L45.0166 32.8366L45.018 32.8442C45.0626 33.0842 45.0393 33.4028 44.9467 33.7371C44.8547 34.0691 44.7059 34.3749 44.5405 34.5886C42.8281 36.7931 41.0148 38.9256 39.1701 41.0654C38.7219 41.5696 38.2892 41.8892 37.8002 42.0674C37.3087 42.2465 36.7156 42.299 35.9212 42.1943L35.4706 58.4749Z" fill="black" stroke="white"/>
</svg>
