<svg width="90" height="90" viewBox="0 0 90 90" fill="none" xmlns="http://www.w3.org/2000/svg">
<path d="M33.6408 21.9714C34.0447 21.5752 40.5405 19.8254 43.7379 19L69.4854 29.8952L71 38.3143L69.4854 56.6381L66.9612 62.0857L48.7864 71L37.1748 68.5238L23.5437 58.619L19 34.3524L19.5049 31.381C24.0485 28.4095 33.2369 22.3676 33.6408 21.9714Z" fill="white"/>
<path d="M71 41.2525C70.9018 45.734 70.9299 50.2016 70.5792 54.6691C70.5091 55.5181 70.9159 56.2697 70.7896 57.1465C70.3548 60.1388 68.6997 62.129 66.1049 63.5347C63.3839 65.01 60.761 66.6244 58.026 68.0719C54.4493 69.9786 50.6483 71.2869 46.6228 71.9271C44.4348 72.275 42.5693 71.3008 40.6337 70.6327C36.1314 69.074 31.7974 67.1672 27.842 64.4811C26.4114 63.5208 25.0508 62.4352 23.7745 61.28C22.6664 60.2641 21.909 58.9975 21.6145 57.4388C20.6607 52.3031 19.1038 47.2928 18.4586 42.0875C18.2062 40.0416 18.094 37.9957 18.0098 35.9498C17.8555 32.5261 19.5386 30.007 22.0212 27.8776C24.2514 25.9708 26.8181 24.5791 29.2867 23.062C29.9179 22.6723 30.535 22.2548 31.1662 21.8651C34.3641 19.9166 37.9267 18.8589 41.5454 18.1908C45.108 17.5367 48.4462 18.6501 51.6441 20.2228C55.1366 21.9347 58.3906 24.0919 61.9252 25.7203C63.7345 26.5554 65.4597 27.5853 67.2551 28.4482C70.0182 29.7843 70.986 32.0668 70.972 34.9478C70.972 37.0493 70.972 39.137 70.972 41.2386L71 41.2525ZM68.6436 42.9226C68.6436 40.6818 68.4613 38.4272 68.6857 36.2143C69.0223 32.9019 67.4795 31.009 64.6182 29.659C60.4665 27.6966 56.455 25.442 52.4576 23.1873C50.6343 22.1574 48.7267 21.2667 46.6789 20.6821C41.7698 19.2764 37.4498 21.1832 33.3122 23.2569C29.6794 25.0801 26.215 27.2791 23.1153 29.9513C21.7968 31.0926 20.5485 32.3591 20.4082 34.2101C20.0997 38.2323 20.6467 42.2128 21.4041 46.1515C22.0353 49.45 22.9049 52.6928 23.6763 55.9635C23.9849 57.2718 24.1672 58.7888 25.149 59.6378C26.9443 61.1826 28.894 62.6161 31.0119 63.7574C34.28 65.511 37.6181 67.0976 41.1106 68.3502C42.5693 68.8652 43.9859 69.5332 45.5568 69.6307C46.3002 69.6863 46.8893 69.5193 46.7911 68.5868C46.6509 67.2925 46.5387 65.9981 46.3563 64.7038C45.5989 59.3872 45.5569 54.0289 45.5428 48.6706C45.5428 47.8912 45.8935 47.3345 46.6369 47.3067C47.3662 47.2788 47.4784 48.0165 47.5205 48.5453C47.6467 50.0206 47.773 51.5098 47.7309 52.999C47.5906 58.0094 48.5023 62.9223 49.0072 67.877C49.0914 68.7121 49.4421 69.0879 50.2976 68.726C53.0467 67.5708 55.88 66.5409 58.5449 65.2048C61.0977 63.9244 63.454 62.2543 65.9647 60.9043C67.2691 60.2084 67.8722 59.1506 68.1387 57.8424C68.2649 57.2439 67.9423 56.548 68.0125 55.9217C68.4613 51.5933 68.5595 47.2649 68.6436 42.9365V42.9226Z" fill="black"/>
<path d="M25.0954 34.0572C26.8737 33.8617 27.9352 35.1886 29.107 36.0546C31.2437 37.633 33.601 38.8622 35.6551 40.5104C37.8745 42.2844 40.48 43.4856 42.6167 45.3573C42.8648 45.5669 43.1681 45.7345 43.3474 45.9859C43.7196 46.4888 44.3675 47.0475 43.7334 47.69C43.1957 48.2348 42.4789 47.9833 41.9688 47.5364C39.5288 45.4551 36.8682 43.6812 34.1938 41.9631C31.4781 40.2031 28.7899 38.4432 26.3361 36.32C25.8674 35.915 25.0265 35.915 24.3372 35.8451C23.7306 35.7753 23 35.8451 23 35.007C23 34.1271 23.7996 34.1271 24.4337 34.0153C24.6543 33.9734 24.8886 34.0293 25.0816 34.0432L25.0954 34.0572Z" fill="black"/>
<path d="M49.2722 46C48.6719 46 48.3228 45.7846 48.1274 45.3538C47.89 44.8511 47.9877 44.3773 48.3926 44.047C48.9371 43.6018 49.5375 43.2284 50.1379 42.8407C52.5393 41.2897 55.0245 39.8537 57.3561 38.1735C59.7715 36.4215 62.5359 35.3157 64.9094 33.5207C65.3981 33.1473 66.2776 32.5298 66.8361 33.5925C67.3387 34.569 66.5848 34.9567 65.9286 35.3588C60.5813 38.5756 55.3875 42.0796 50.1937 45.5405C49.8865 45.7415 49.5235 45.8851 49.3001 46H49.2722Z" fill="black"/>
<path d="M59.3821 48.0001C60.5994 48.0001 61.9868 49.3685 61.9999 50.5395C62.013 51.9474 60.9266 53 59.4607 53C58.1125 53 57 51.8421 57 50.4474C57 49.0396 58.0209 47.987 59.3952 48.0001H59.3821Z" fill="black"/>
<path d="M45.6544 39.9852C44.0955 39.9426 42.9747 38.821 43.0004 37.3446C43.0262 36.0527 44.1084 34.9453 45.3065 35.0021C46.7495 35.0731 48.0378 36.4502 47.9992 37.8982C47.9734 39.0766 46.9041 40.0278 45.6544 39.9994V39.9852Z" fill="black"/>
<path d="M54.4517 58.0137C55.8014 58.0137 56.972 59.1675 56.9996 60.5547C57.0271 61.7909 55.6912 63.027 54.3415 62.9996C52.9918 62.9721 51.9864 61.9008 52.0001 60.486C52.0001 58.934 52.9229 58.0137 54.4654 58L54.4517 58.0137Z" fill="black"/>
<path d="M54.4129 32C53.1933 32 52.0138 30.9307 52.0004 29.8037C51.9736 28.5754 53.2201 27.0149 54.2521 27.0004C55.5923 26.9715 57.0264 28.3443 56.9996 29.6158C56.9728 30.9307 55.8336 31.9856 54.4263 32H54.4129Z" fill="black"/>
<path d="M34 29.4123C34 30.9178 32.8441 32.0287 31.3118 31.9994C30.1156 31.9702 29 30.6547 29 29.2515C29 28.0383 30.3575 27.059 32.1048 27.0005C33.0726 26.9713 34 28.1406 34 29.4123Z" fill="black"/>
<path d="M38.8963 53.9994C37.7215 53.9709 35.973 52.162 36.0003 50.9798C36.0276 49.997 37.2161 49 38.3636 49C39.7842 49 41 50.2534 41 51.692C41 53.0309 40.0848 54.0279 38.8826 53.9994H38.8963Z" fill="black"/>
<path d="M66 42.5677C66 43.9504 65.078 44.9683 63.7669 44.9987C62.2398 45.0443 61.0297 43.8592 61.0008 42.3094C60.972 40.6078 61.678 40 63.6661 40C65.2364 40 65.9856 40.8205 66 42.5677Z" fill="black"/>
<path d="M44.8413 24.9976C43.2689 24.9205 41.933 23.8293 42.0026 22.6611C42.0583 21.7496 43.1993 20.928 44.2847 21.005C45.8571 21.1206 47.0538 22.1091 46.9981 23.2645C46.9564 24.2787 45.9823 25.0489 44.8413 24.9976Z" fill="black"/>
<path d="M31 56.7026C31 58.0237 30.0939 58.9544 28.7498 58.9994C27.3302 59.0295 26.0465 57.8285 26.0012 56.4024C25.9559 55.2465 27.1943 54.0305 28.4477 54.0005C29.6408 53.9704 30.9849 55.3966 31 56.7176V56.7026Z" fill="black"/>
</svg>
