<svg width="90" height="90" viewBox="0 0 90 90" fill="none" xmlns="http://www.w3.org/2000/svg">
<path d="M16.5214 56.3148C16.5058 56.228 16.5132 56.1374 16.5447 56.0524C16.5852 55.9434 16.624 55.8087 16.6696 55.6414C16.6779 55.6111 16.6864 55.5798 16.6951 55.5476C16.7326 55.4093 16.7743 55.2552 16.8213 55.1007C16.9367 54.7218 17.1001 54.2814 17.3824 53.9058L17.3855 53.9016L17.3855 53.9017C17.8954 53.2376 18.2555 52.4911 18.6241 51.692C18.6521 51.6313 18.6801 51.5703 18.7083 51.5089C19.0448 50.7772 19.4009 50.0025 19.8878 49.2905L19.8898 49.2875C20.0907 48.9983 20.1128 48.8044 20.0837 48.6354C20.048 48.4277 19.9238 48.1882 19.6864 47.8272L19.6823 47.8209L19.6824 47.8209C19.5015 47.5365 19.2541 47.2793 18.9587 47.0119C18.8311 46.8964 18.6999 46.7836 18.5629 46.6658C18.5414 46.6473 18.5196 46.6286 18.4978 46.6098C18.3395 46.4736 18.175 46.3308 18.016 46.1813C17.4154 45.6165 16.8431 44.9089 16.7807 43.8432C15.3269 43.5176 14.2308 42.7013 13.2542 41.8563C13.0185 41.6523 12.7917 41.4489 12.5692 41.2493C11.8319 40.588 11.1406 39.9681 10.3246 39.5067L16.5214 56.3148ZM16.5214 56.3148C16.4977 56.656 16.5008 56.9969 16.5916 57.3012C16.7051 57.6814 16.9462 57.9767 17.3331 58.1663C17.7432 58.3673 18.1327 58.3601 18.479 58.1778C18.7737 58.0228 18.999 57.7564 19.1637 57.5565C19.9465 56.6282 20.5153 55.5996 21.0073 54.5677C21.2348 54.0906 21.4483 53.6075 21.6579 53.1331C21.675 53.0944 21.6921 53.0558 21.7091 53.0172C21.9364 52.503 22.1608 51.9992 22.4013 51.5081L22.4025 51.5054C22.5464 51.2073 22.6493 51.014 22.7353 50.8915C22.7477 50.8738 22.7587 50.8592 22.7683 50.8471C22.7757 50.8517 22.7838 50.8568 22.7928 50.8627C22.9076 50.9382 23.0665 51.0768 23.3029 51.3085L23.3042 51.3098C25.124 53.0814 27.0254 54.7956 28.9127 56.497C29.4423 56.9745 29.9708 57.4509 30.4961 57.9274L30.4961 57.9274C31.1603 58.5297 31.9271 59.1352 32.9418 59.3585C33.2845 59.4438 33.6569 59.4655 34.0129 59.3421C34.3839 59.2136 34.6798 58.9472 34.8863 58.5636L34.8863 58.5636L34.8891 58.5583C35.0847 58.1844 35.1927 57.7738 35.1204 57.3639C35.0457 56.9404 34.7921 56.5944 34.4143 56.3404L34.4125 56.3392C32.7408 55.2257 31.2578 53.8916 29.7826 52.5033C29.527 52.2627 29.2713 52.0202 29.0148 51.777C27.7998 50.6247 26.5673 49.4558 25.2405 48.3964L25.2371 48.3937C24.8492 48.0895 24.6832 47.8694 24.6267 47.6802C24.5769 47.513 24.5846 47.2701 24.8131 46.8429C24.8132 46.8428 24.8133 46.8426 24.8133 46.8425L24.3725 46.6066C25.6061 44.3138 26.7993 41.9912 27.9918 39.6701L16.5214 56.3148ZM22.8693 43.7828C24.1155 40.1022 26.0891 36.7566 28.0484 33.4911C28.7403 32.3378 29.7472 31.2684 31.1524 30.7032L31.1543 30.7024C31.4834 30.5716 31.8936 30.4568 32.2985 30.516C32.7494 30.582 33.1264 30.8539 33.3483 31.3464L33.35 31.3501L33.35 31.3501C33.4943 31.6773 33.6262 32.0936 33.5889 32.5212C33.5486 32.9832 33.314 33.4097 32.8276 33.7092L32.827 33.7095C31.2084 34.7032 30.3134 36.2667 29.4119 38.0023L10.3243 39.5065C9.93712 39.2879 9.64887 38.9109 9.54354 38.4889C9.43449 38.0521 9.52238 37.5547 9.9096 37.1751C10.5413 36.5557 11.6464 36.1097 12.6431 36.8204L12.6491 36.8246L12.649 36.8246C12.7316 36.8854 12.8143 36.9461 12.8971 37.007C15.6846 39.0555 18.569 41.1752 20.7009 44.0466C21.1801 44.6828 21.5657 44.9583 22.0953 44.9367L22.0976 44.9366C22.2395 44.9314 22.322 44.8975 22.3754 44.8628C22.4317 44.8263 22.4867 44.7685 22.5427 44.6728C22.6006 44.5737 22.6512 44.4489 22.7044 44.2911C22.7284 44.2199 22.7513 44.1474 22.7758 44.0695L22.7831 44.0463C22.8096 43.9623 22.8382 43.8721 22.8693 43.7828ZM22.8693 43.7828C22.8696 43.7821 22.8698 43.7814 22.87 43.7807L23.3422 43.9452L22.8686 43.7849C22.8688 43.7842 22.8691 43.7835 22.8693 43.7828ZM22.7067 50.8159C22.7067 50.8159 22.7072 50.816 22.7084 50.8164L22.7067 50.8159Z" fill="black" stroke="white" stroke-linejoin="round"/>
<path d="M50.6964 52.6216C50.695 52.6284 50.6937 52.6352 50.6926 52.6421C50.6533 52.8785 50.634 53.2472 50.7865 53.6072C50.9523 53.9988 51.2945 54.3151 51.8434 54.4448L51.8461 54.4454C52.1409 54.5133 52.4219 54.5231 52.6802 54.4447C52.9479 54.3635 53.143 54.2021 53.2834 54.0136C53.4165 53.835 53.5011 53.6316 53.5633 53.4529C53.604 53.3362 53.6439 53.2022 53.6802 53.0801C53.6972 53.0232 53.7133 52.9689 53.7285 52.92C54.565 50.2394 55.4564 47.5858 56.3535 44.9153C56.4177 44.7239 56.4821 44.5325 56.5464 44.3409C56.6006 44.1826 56.6221 44.0128 56.6366 43.8971L56.6368 43.896L56.6386 43.8813C56.6548 43.7526 56.6651 43.6714 56.6837 43.6028C56.6869 43.5908 56.69 43.5811 56.6926 43.5734C56.6998 43.5729 56.7087 43.5725 56.7193 43.5725C56.7505 43.5725 56.7585 43.5784 56.7635 43.5821C56.7638 43.5823 56.7641 43.5825 56.7644 43.5827C56.7788 43.5932 56.8087 43.6216 56.8529 43.6948C56.8964 43.7669 56.9353 43.8498 56.9884 43.9628L56.9961 43.9793C57.0468 44.0872 57.1135 44.2285 57.1985 44.3574C57.533 44.8825 57.8656 45.4123 58.1993 45.9438C59.6916 48.3209 61.2066 50.7341 63.0172 52.9305C63.017 52.9303 63.0168 52.93 63.0166 52.9297L50.6964 52.6216ZM50.6964 52.6216C50.8665 50.9155 51.3563 49.4759 51.8123 48.1356C51.9101 47.848 52.0064 47.5649 52.0977 47.2848C52.7171 45.3773 53.4735 43.5076 54.216 41.6722C54.3129 41.4327 54.4096 41.1937 54.5057 40.9553L54.507 40.9521C54.6528 40.5974 54.6152 40.3323 54.4998 40.0696C54.4369 39.9264 54.3489 39.7812 54.2398 39.6192C54.2029 39.5643 54.1578 39.4994 54.1101 39.4308C54.0361 39.3245 53.9559 39.2091 53.8903 39.1081C52.7787 37.4585 51.6032 35.8538 50.4078 34.2595C50.3986 34.2472 50.3891 34.2347 50.3795 34.222C50.1792 33.957 49.9046 33.5936 49.7984 33.1988C49.7377 32.9728 49.7257 32.7204 49.8114 32.4591C49.8961 32.2012 50.0626 31.9759 50.2902 31.778L50.2908 31.7775L50.2908 31.7775C50.7507 31.3789 51.2771 31.254 51.7803 31.3545C52.2631 31.4508 52.6785 31.7439 52.9834 32.0979L52.9852 32.1L52.9852 32.1C54.0238 33.3187 54.9795 34.614 55.9111 35.9134C56.1683 36.2684 56.3412 36.5005 56.4766 36.646C56.4929 36.6635 56.5075 36.6784 56.5203 36.6911C56.5305 36.6803 56.5417 36.6679 56.554 36.6538C56.6803 36.5087 56.8389 36.2789 57.0775 35.9258L57.0795 35.9229L57.0795 35.9229C57.2268 35.7082 57.3737 35.487 57.5227 35.2626C58.1885 34.2599 58.8968 33.1932 59.8765 32.3466L59.8803 32.3433L59.8803 32.3433C60.3993 31.9038 61.0082 31.4632 61.8381 31.4035C62.3557 31.3651 62.844 31.4739 63.2416 31.7472C63.6422 32.0226 63.9117 32.4386 64.0318 32.9409L64.0336 32.948L64.0335 32.948C64.0941 33.2191 64.0858 33.4855 63.9717 33.7276C63.8592 33.9659 63.6743 34.116 63.507 34.2142C63.3451 34.3092 63.1653 34.3749 63.027 34.4245C63.0105 34.4304 62.9945 34.4361 62.979 34.4417C62.8497 34.4879 62.751 34.5231 62.6627 34.5659C60.6501 35.5702 59.7906 37.4891 58.8564 39.5748C58.7904 39.7221 58.7241 39.8703 58.6569 40.019L58.6567 40.0195C58.644 40.0475 58.623 40.1461 58.7737 40.4158C58.8416 40.5373 58.9285 40.6655 59.0278 40.8051C59.0532 40.8409 59.0802 40.8784 59.1078 40.9168C59.1815 41.0192 59.2599 41.1283 59.3271 41.2295L59.3296 41.2333L59.3296 41.2333C59.9285 42.1527 60.5275 43.0712 61.1262 43.9892C62.6388 46.3084 64.1498 48.6251 65.6523 50.9495L50.6964 52.6216ZM56.6657 43.5775C56.6656 43.5775 56.6663 43.5772 56.6677 43.5769C56.6664 43.5774 56.6657 43.5776 56.6657 43.5775Z" fill="black" stroke="white" stroke-linejoin="round"/>
<path d="M36.6695 45.7465C36.67 45.7684 36.6718 45.79 36.6749 45.8111C36.6716 45.8428 36.6681 45.8753 36.6646 45.9082C36.6377 46.1578 36.6074 46.4404 36.6072 46.7141C36.5752 50.407 39.5057 53.4014 42.8921 52.7753L42.8933 52.7751C45.7405 52.2415 48.1106 49.4973 48.2788 46.5325L48.2789 46.5302C48.418 43.8661 46.3643 41.3866 43.5119 40.5861L43.5116 40.586C43.0194 40.4483 42.5201 40.3384 42.0392 40.2325C41.9338 40.2093 41.8292 40.1863 41.7258 40.1632C41.1432 40.0332 40.5884 39.8997 40.0582 39.7143C39.4983 39.5156 38.946 39.4526 38.4552 39.6818C37.9626 39.912 37.6605 40.3764 37.4612 40.9311L37.4612 40.9311L37.4607 40.9324C36.9122 42.473 36.6372 44.0841 36.6695 45.7465ZM39.863 45.8838C39.863 45.8409 39.8576 45.7992 39.8475 45.7595C39.851 45.0998 39.9129 44.6022 40.0252 44.2412C40.1425 43.864 40.3004 43.6786 40.4639 43.5847C40.6326 43.4877 40.896 43.4372 41.3257 43.5132C41.7559 43.5892 42.3028 43.7838 42.9881 44.1136C43.764 44.49 44.2569 44.9058 44.5255 45.3377C44.7845 45.754 44.8619 46.2272 44.7262 46.7964L44.726 46.7975C44.3658 48.3239 43.1454 49.307 41.8574 49.2535L41.8568 49.2535C41.2004 49.227 40.7362 48.9617 40.4136 48.4601C40.0717 47.9286 39.863 47.0887 39.863 45.8838Z" fill="black" stroke="white" stroke-linejoin="round"/>
<path d="M73.8807 39.7018C73.9353 39.5326 73.9612 39.3706 73.9682 39.2174C75.2321 40.9162 76.0249 42.7711 75.9319 45.0192C75.9279 45.0987 75.926 45.1647 75.9242 45.2257C75.9216 45.314 75.9194 45.3918 75.9114 45.4848C75.8995 45.6255 75.8782 45.7179 75.85 45.7796L75.8441 45.7929C75.7944 45.9105 75.7563 46.0373 75.7265 46.1362L75.7221 46.1509C75.6884 46.2628 75.6625 46.3465 75.6321 46.4186C75.6021 46.4895 75.579 46.5208 75.5671 46.5332L75.5664 46.5339C75.5618 46.5387 75.561 46.5395 75.5508 46.5417C75.4747 46.5577 75.411 46.543 75.3243 46.4639C75.2237 46.372 75.1284 46.2189 75.0562 46.0439C74.9627 45.8107 74.8682 45.5806 74.7746 45.353C73.9817 43.4236 73.2609 41.6695 73.8807 39.7018ZM72.2724 37.3041C71.8672 37.479 71.4774 37.6987 71.1525 37.9938C70.5806 38.5133 70.2436 39.2339 70.2899 40.225L70.29 40.227C70.4168 42.7215 70.6551 45.3254 72.0049 47.6562L72.0057 47.6576C72.412 48.3539 72.889 49.0948 73.5313 49.6264C74.1963 50.1769 75.029 50.4955 76.0968 50.3629L76.0982 50.3627C76.9181 50.2586 77.6545 49.7122 78.2112 49.0043C78.7741 48.2886 79.1987 47.3538 79.3794 46.3568C79.4491 45.9966 79.4664 45.6415 79.4817 45.3257L79.4823 45.3143C79.4823 45.3138 79.4823 45.3133 79.4823 45.3128C79.6646 41.9983 78.414 39.1637 76.547 36.6756C75.7685 35.625 74.7854 34.5633 73.4609 33.9896C73.0324 33.8036 72.5664 33.7264 72.1169 33.8362C71.657 33.9485 71.2712 34.243 70.9965 34.6929L70.9965 34.6929L70.9955 34.6946C70.8489 34.9369 70.7658 35.1885 70.7727 35.4478C70.7796 35.7098 70.8771 35.9253 70.9968 36.0952C71.1117 36.2582 71.2556 36.391 71.3756 36.4944C71.4359 36.5463 71.4853 36.5871 71.5302 36.6242C71.5912 36.6746 71.6439 36.7181 71.704 36.7731L71.704 36.7731L71.7059 36.7748C71.8981 36.9487 72.0844 37.1246 72.2724 37.3041Z" fill="black" stroke="white" stroke-linejoin="round"/>
</svg>
