<svg width="90" height="90" viewBox="0 0 90 90" fill="none" xmlns="http://www.w3.org/2000/svg">
<path d="M54.8301 40.2808C54.9727 39.8322 55.1095 39.3884 55.245 38.949C55.6227 37.7239 55.9901 36.5323 56.4445 35.3635M54.8301 40.2808L41.5651 32.7721C41.5653 32.7722 41.5656 32.7723 41.5659 32.7724C41.9774 32.9483 42.2364 33.0077 42.454 32.9912C42.6592 32.9756 42.8969 32.8864 43.246 32.6086L43.2465 32.6082C48.0816 28.7702 52.9643 24.9867 57.8874 21.2576L57.8875 21.2575C58.2792 20.961 58.758 20.8316 59.179 20.7468C59.3639 20.7096 59.5306 20.6815 59.6879 20.655C59.9296 20.6143 60.149 20.5773 60.3784 20.5166C60.5233 20.4783 60.6778 20.507 60.7993 20.5948C60.9208 20.6827 60.9964 20.8204 61.0054 20.9701C61.0205 21.2222 61.0584 21.458 61.1 21.7178C61.1267 21.8839 61.1549 22.0597 61.1797 22.2559C61.2368 22.7068 61.2674 23.2334 61.0844 23.7206C60.25 25.9443 59.3463 28.1635 58.4454 30.3757C57.7665 32.0426 57.0893 33.7056 56.4445 35.3635M54.8301 40.2808C58.2098 42.2739 61.3113 44.0767 64.9128 44.8293C65.8727 45.0296 66.8317 45.5349 67.5689 46.1391C67.8697 46.3853 68.1233 46.7613 68.2863 47.1334C68.4439 47.4934 68.5622 47.9542 68.4645 48.3639C68.368 48.7712 68.0362 49.1287 67.7307 49.3694C67.4137 49.6192 67.0001 49.8415 66.6058 49.8961C64.8528 50.1403 63.0805 50.2684 61.3283 50.3951C60.9278 50.424 60.5284 50.4529 60.1304 50.4831C59.9398 50.4977 59.7491 50.5124 59.5584 50.5271C56.879 50.7338 54.1946 50.9408 51.5066 51.1035L51.5054 51.1036C51.1936 51.1218 51.062 51.2051 50.9801 51.2901C50.8749 51.3995 50.7868 51.578 50.6742 51.9101C49.0293 56.8007 48.3551 61.8681 47.9419 67.0237L47.9419 67.0243C47.9369 67.0859 47.9321 67.1502 47.9271 67.2167C47.8856 67.7756 47.8327 68.4867 47.5323 69.0691L47.5321 69.0694C47.3795 69.3647 47.1381 69.6984 46.8687 69.9638C46.7332 70.0972 46.5789 70.225 46.4131 70.3219C46.252 70.4159 46.044 70.5019 45.8115 70.5L45.8092 70.5C45.4142 70.4948 44.9828 70.3318 44.6346 70.1249C44.2907 69.9205 43.9303 69.6153 43.7541 69.2418L43.753 69.2396C42.615 66.7979 41.5903 64.306 40.5719 61.8293C40.5025 61.6603 40.433 61.4915 40.3636 61.3227L40.3634 61.3223C39.9348 60.2779 39.5187 59.2359 39.1036 58.1966C38.4253 56.498 37.7498 54.8064 37.0272 53.1235C37.0269 53.1227 37.0217 53.112 37.0066 53.092C36.991 53.0715 36.9686 53.0461 36.9384 53.0173C36.8773 52.959 36.7965 52.8982 36.7062 52.8447C36.6156 52.7911 36.5267 52.7516 36.4525 52.729C36.3831 52.7079 36.3515 52.7089 36.3515 52.7085C36.3515 52.7084 36.3516 52.7084 36.3517 52.7084C33.8944 53.1049 31.449 53.5533 28.9976 54.0029C27.9815 54.1892 26.9645 54.3757 25.9451 54.5588C25.8381 54.5781 25.7271 54.5995 25.6127 54.6215C25.0058 54.7383 24.306 54.873 23.6324 54.815L23.6317 54.8149C23.2969 54.7856 22.8734 54.693 22.5117 54.556C22.331 54.4877 22.1455 54.4007 21.9891 54.2919C21.8465 54.1928 21.6524 54.0238 21.5805 53.7658L21.5794 53.7618C21.4742 53.3717 21.4791 52.9022 21.5613 52.4801C21.642 52.0661 21.8143 51.6101 22.1233 51.3018L22.1244 51.3008C23.4041 50.0317 24.844 48.9186 26.2489 47.8405L26.2492 47.8403C28.0155 46.4867 29.8248 45.1921 31.6263 43.9031L31.6296 43.9007C31.9679 43.6585 32.0727 43.4621 32.1026 43.2942C32.1367 43.1025 32.0942 42.8371 31.9155 42.4193C30.2716 38.5767 28.6711 34.7143 27.1472 30.8183L27.1467 30.817C27.0011 30.4416 26.956 29.9789 26.9908 29.5572C27.0248 29.1452 27.143 28.6802 27.4114 28.3491L27.4142 28.3456L27.4142 28.3456C27.5666 28.161 27.7782 28.0496 27.9642 27.9803C28.1584 27.9079 28.374 27.8633 28.5854 27.8406C28.9963 27.7963 29.4754 27.8261 29.8437 27.9696L54.8301 40.2808ZM56.4445 35.3635C56.4445 35.3635 56.4445 35.3635 56.4445 35.3635L55.9785 35.1823L56.4445 35.3635Z" fill="black" stroke="white" stroke-linejoin="round"/>
</svg>
