<svg width="90" height="90" viewBox="0 0 90 90" fill="none" xmlns="http://www.w3.org/2000/svg">
<path d="M45.6498 70.3249C44.7298 70.3249 43.9998 69.7049 43.4998 68.4949C42.8598 66.9549 42.2198 65.4149 41.5698 63.8849C40.2398 60.7349 38.8698 57.4849 37.6098 54.2449C37.1098 52.9549 36.5498 52.6949 35.8098 52.6949C35.5498 52.6949 35.2498 52.7349 34.8898 52.8049C32.3698 53.3349 29.7898 53.7949 27.2998 54.2349L25.0698 54.6249C24.7498 54.6849 24.4298 54.7149 24.1298 54.7149C23.9498 54.7149 23.7698 54.7149 23.5998 54.6849C22.9098 54.6049 21.9998 54.4849 21.6498 53.5849C21.3298 52.7449 21.5498 51.8249 22.2098 51.1949C23.3798 50.0749 24.3198 49.2549 25.2498 48.5349L25.6098 48.2549C27.3098 46.9349 29.0698 45.5749 30.9098 44.3849C32.1098 43.6049 32.2898 42.9449 31.6598 41.5549C30.4398 38.8749 29.3298 36.1049 28.2498 33.4149L27.6398 31.8949C27.5898 31.7749 27.5398 31.6449 27.4798 31.5149C27.0798 30.5849 26.5298 29.3149 27.5798 28.2449C27.9598 27.8549 28.4198 27.6549 28.9398 27.6549C29.5298 27.6549 30.1098 27.9149 30.6098 28.1449C30.7598 28.2149 30.9098 28.2849 31.0498 28.3349L31.8998 28.6849C34.8998 29.8949 37.9998 31.1449 41.0198 32.4549C41.4698 32.6549 41.8698 32.7449 42.2298 32.7449C42.7598 32.7449 43.2798 32.5349 43.8498 32.0749C47.3098 29.3249 50.8698 26.5749 54.3098 23.9249L57.0698 21.7949C57.5898 21.3949 58.1198 20.9749 58.8198 20.7449C59.2698 20.5949 59.6398 20.5149 59.9498 20.5149C60.4898 20.5149 60.7898 20.7449 60.9498 20.9349C61.2198 21.2649 61.2998 21.7449 61.1798 22.4049C61.2998 23.2049 61.0498 23.8249 60.8298 24.3749L60.7298 24.6249C60.0698 26.3649 59.3498 28.1149 58.6598 29.8149C57.3998 32.8949 56.0998 36.0649 55.0998 39.2949C54.8598 40.0749 54.9398 40.2749 55.6098 40.6649C58.7598 42.4449 61.7098 44.1149 65.1698 44.7849C65.2598 44.8049 65.3398 44.8349 65.4198 44.8649L65.6498 44.9549C66.8598 45.4349 68.5298 46.0949 68.4198 47.9049C68.3098 49.8249 66.6098 49.9049 65.4798 49.9649C65.2998 49.9649 65.1198 49.9849 64.9498 49.9949C59.7898 50.4649 55.8498 50.7549 52.1498 50.9549C51.1898 51.0049 50.8098 51.3149 50.5098 52.2749C48.9298 57.2749 48.3398 62.5149 47.9198 67.0349C47.9198 67.1349 47.9098 67.2349 47.8998 67.3349C47.8998 67.5249 47.8798 67.7149 47.8498 67.8949C47.7598 68.4349 47.4998 70.0749 45.9698 70.3149C45.8598 70.3349 45.7498 70.3449 45.6498 70.3449V70.3249Z" fill="#0A0A0A"/>
<path d="M59.94 21.0149C60.57 21.0149 60.86 21.4149 60.66 22.3949C60.81 23.2149 60.49 23.8149 60.26 24.4349C58.4 29.3449 56.17 34.1049 54.62 39.1349C54.32 40.1249 54.47 40.5749 55.37 41.0849C58.46 42.8349 61.54 44.5749 65.08 45.2549C65.13 45.2649 65.19 45.2849 65.24 45.3049C66.49 45.8049 68.02 46.3049 67.93 47.8549C67.83 49.5749 66.11 49.3649 64.92 49.4749C60.67 49.8649 56.41 50.2049 52.14 50.4349C50.9 50.5049 50.39 51.0249 50.05 52.1049C48.52 56.9449 47.91 61.9449 47.44 66.9649C47.41 67.2449 47.42 67.5249 47.37 67.7949C47.22 68.7149 46.89 69.6449 45.91 69.7949C45.83 69.8049 45.74 69.8149 45.66 69.8149C44.82 69.8149 44.31 69.1149 43.97 68.2949C42.01 63.5449 39.95 58.8449 38.09 54.0549C37.57 52.7149 36.89 52.1849 35.82 52.1849C35.51 52.1849 35.17 52.2249 34.8 52.3049C31.55 52.9949 28.27 53.5349 25 54.1249C24.72 54.1749 24.43 54.2049 24.14 54.2049C23.98 54.2049 23.83 54.2049 23.67 54.1749C23.08 54.1049 22.38 54.0449 22.13 53.3949C21.88 52.7349 22.06 52.0249 22.56 51.5449C23.52 50.6249 24.51 49.7249 25.56 48.9149C27.4 47.4949 29.24 46.0549 31.19 44.7849C32.65 43.8349 32.83 42.8749 32.12 41.3249C30.68 38.1549 29.41 34.9149 28.11 31.6849C27.71 30.6849 27.01 29.5249 27.94 28.5749C28.26 28.2549 28.59 28.1349 28.94 28.1349C29.58 28.1349 30.25 28.5349 30.87 28.7849C34.2 30.1349 37.54 31.4749 40.83 32.8949C41.34 33.1149 41.8 33.2249 42.24 33.2249C42.9 33.2249 43.51 32.9749 44.17 32.4449C48.51 28.9949 52.91 25.6249 57.3 22.2249C57.82 21.8249 58.33 21.4049 58.99 21.1849C59.37 21.0549 59.69 20.9849 59.96 20.9849M59.94 20.0149C59.57 20.0149 59.15 20.0949 58.65 20.2649C57.87 20.5349 57.27 20.9949 56.75 21.4049L56.68 21.4649L53.94 23.5749C50.52 26.2149 46.98 28.9449 43.54 31.6849C42.92 32.1849 42.51 32.2449 42.23 32.2449C41.95 32.2449 41.61 32.1649 41.22 31.9949C38.19 30.6849 35.08 29.4249 32.07 28.2149L31.23 27.8749C31.09 27.8149 30.95 27.7549 30.81 27.6849C30.26 27.4349 29.63 27.1449 28.93 27.1449C28.27 27.1449 27.7 27.3949 27.21 27.8849C25.93 29.1949 26.6 30.7649 27.01 31.6949C27.06 31.8149 27.12 31.9449 27.17 32.0649L27.79 33.6049C28.87 36.2849 29.98 39.0649 31.2 41.7449C31.73 42.9049 31.63 43.3049 30.64 43.9449C28.78 45.1549 27 46.5249 25.29 47.8549L24.95 48.1149C24.01 48.8349 23.03 49.6949 21.87 50.8149C21.06 51.5849 20.8 52.7049 21.19 53.7449C21.64 54.9349 22.82 55.0749 23.45 55.1549H23.54C23.73 55.1849 23.93 55.2049 24.13 55.2049C24.46 55.2049 24.81 55.1749 25.16 55.1049C25.9 54.9749 26.64 54.8449 27.37 54.7149C29.87 54.2749 32.46 53.8249 34.99 53.2849C35.31 53.2149 35.58 53.1849 35.81 53.1849C36.3 53.1849 36.7 53.2749 37.14 54.4149C38.4 57.6649 39.78 60.9249 41.1 64.0749C41.75 65.6049 42.39 67.1349 43.03 68.6749C43.76 70.4449 44.86 70.8149 45.64 70.8149C45.77 70.8149 45.9 70.8149 46.04 70.7849C47.29 70.5949 48.06 69.6449 48.34 67.9549C48.38 67.7349 48.39 67.5249 48.4 67.3349C48.4 67.2449 48.4 67.1549 48.42 67.0549C48.84 62.5549 49.43 57.3449 50.99 52.3949C51.23 51.6349 51.44 51.4649 52.18 51.4249C55.89 51.2249 59.85 50.9249 65 50.4549C65.16 50.4449 65.33 50.4349 65.51 50.4249C66.58 50.3749 68.79 50.2649 68.93 47.8949C69.05 45.7249 67.12 44.9549 65.84 44.4549L65.61 44.3649C65.49 44.3149 65.38 44.2749 65.27 44.2549C61.89 43.6049 58.97 41.9549 55.88 40.2049C55.54 40.0149 55.48 39.9249 55.48 39.9149C55.48 39.9149 55.46 39.7949 55.58 39.4149C56.57 36.2149 57.87 33.0449 59.12 29.9749C59.82 28.2749 60.54 26.5249 61.2 24.7749L61.29 24.5349C61.51 23.9749 61.79 23.2849 61.68 22.3949C61.8 21.6249 61.69 21.0449 61.33 20.6049C61.11 20.3349 60.68 20.0049 59.95 20.0049L59.94 20.0149Z" fill="white"/>
</svg>
