<svg width="90" height="90" viewBox="0 0 90 90" fill="none" xmlns="http://www.w3.org/2000/svg">
<path d="M50 51L57 48.5L55.5 44L32.5 25.5H31L32.5 49.5L35 62L41.5 57L47.5 66C49.6667 65 54.1 63 54.5 63C54.9 63 55.3333 61.3333 55.5 60.5L50 51Z" fill="white"/>
<path fill-rule="evenodd" clip-rule="evenodd" d="M31.9092 24C32.3384 24 32.5769 24.0851 33.4448 24.5198C34.0075 24.8127 35.0185 25.4365 35.7052 25.909C36.3919 26.3815 37.7558 27.3927 38.7572 28.1677C39.7587 28.9332 41.4945 30.313 42.62 31.2391C43.7454 32.1653 45.5671 33.6868 46.6735 34.6224C47.7703 35.5675 49.5443 37.1174 50.6221 38.0813C51.6998 39.0453 53.2068 40.4251 53.9698 41.1622C54.7328 41.8899 55.8296 42.9767 56.4019 43.5721C56.9837 44.1675 57.6322 44.8668 57.8516 45.122C58.0709 45.3866 58.3952 45.8497 58.586 46.1615C58.7767 46.4734 58.9579 46.8798 58.9866 47.0593C59.0152 47.2389 58.9961 47.5413 58.9484 47.7209C58.8912 47.9004 58.6909 48.1934 58.5097 48.3635C58.3189 48.5242 57.5368 48.9778 56.7548 49.3653C55.9822 49.7433 54.4085 50.471 53.2544 50.9813C52.1004 51.4916 51.1466 51.9169 51.1275 51.9358C51.118 51.9547 52.3198 53.6464 53.7885 55.6877C55.2669 57.7196 56.564 59.5624 56.6784 59.7703C56.8406 60.0727 56.8787 60.3185 56.8787 60.9516C56.8787 61.5848 56.831 61.84 56.6689 62.133C56.564 62.3409 56.2874 62.6811 56.0585 62.8985C55.8296 63.1064 55.0571 63.6167 54.3513 64.0325C53.6455 64.4578 52.3293 65.2044 51.4423 65.6958C50.5553 66.1873 49.6301 66.6881 49.3917 66.8015C49.096 66.9433 48.7813 67 48.3712 67C47.9229 67 47.6558 66.9433 47.322 66.7732C47.0645 66.6503 46.7116 66.3763 46.5209 66.1778C46.3301 65.9793 45.0902 64.1837 43.7645 62.1802C42.4388 60.1767 41.3133 58.4851 41.2466 58.4284C41.1703 58.3338 40.846 58.5796 39.8064 59.5057C39.072 60.1578 37.9752 61.1123 37.3743 61.6321C36.7734 62.1424 36.0009 62.7567 35.6575 62.9835C35.3142 63.2103 34.885 63.4277 34.7037 63.456C34.4558 63.4938 34.2555 63.456 33.9407 63.2954C33.6832 63.1631 33.4448 62.9457 33.3303 62.7473C33.2254 62.5677 33.0633 62.1235 32.9679 61.7549C32.863 61.3864 32.6627 60.3752 32.5101 59.4868C32.3575 58.5985 32.1 56.8785 31.9474 55.6593C31.7852 54.4402 31.5468 52.4556 31.4228 51.2648C31.2893 50.0741 31.0699 47.9382 30.9459 46.5396C30.8124 45.1409 30.6216 42.8633 30.5167 41.4835C30.4118 40.1037 30.2497 37.8545 30.1638 36.4747C30.0685 35.0004 30.0017 32.6 30.0017 30.6626C29.9922 28.0259 30.0208 27.1659 30.1448 26.4099C30.2306 25.8901 30.3832 25.2758 30.4786 25.049C30.5739 24.8127 30.8219 24.482 31.0222 24.3119C31.3465 24.0473 31.4705 24 31.9092 24ZM32.5387 31.4659C32.5673 33.2615 32.6627 35.7659 32.7485 37.0418C32.8248 38.3176 32.9774 40.4629 33.0823 41.8143C33.1873 43.1657 33.3589 45.207 33.4639 46.3505C33.5783 47.4941 33.7691 49.4314 33.9026 50.6506C34.0266 51.8697 34.265 53.8921 34.4272 55.1396C34.5893 56.387 34.8087 57.9842 34.9231 58.693C35.0376 59.4112 35.1615 60.0255 35.1997 60.0633C35.2379 60.1105 35.8196 59.6664 36.4873 59.071C37.1549 58.4851 38.3662 57.3982 39.1769 56.6611C39.9781 55.9334 40.7315 55.2813 40.846 55.2152C40.9509 55.149 41.1989 55.0923 41.3801 55.0923C41.5804 55.0923 41.8474 55.1774 42.0477 55.3002C42.2862 55.4609 43.1827 56.7367 45.3382 59.9782C46.9596 62.4354 48.333 64.4389 48.3902 64.4484C48.4475 64.4484 49.22 64.042 50.107 63.5505C50.994 63.0591 52.3293 62.3031 53.0637 61.8684C53.7981 61.4336 54.399 61.0178 54.3894 60.9422C54.3894 60.8666 52.9969 58.8914 51.2992 56.5571C49.6015 54.2134 48.1232 52.1532 48.0183 51.9736C47.8752 51.7185 47.8466 51.5389 47.8943 51.2176C47.9324 50.9246 48.0278 50.7167 48.2186 50.5466C48.3616 50.4048 49.2391 49.9701 50.1547 49.5826C51.0703 49.1952 52.5773 48.5336 53.4929 48.1273C54.4085 47.7114 55.3718 47.2673 55.6293 47.1444L56.0967 46.9176C55.2097 45.8969 54.1414 44.8101 53.1495 43.8462C52.1576 42.8822 50.6411 41.4552 49.7732 40.6708C48.9053 39.8958 47.3602 38.5349 46.3397 37.6466C45.3191 36.7677 43.7931 35.473 42.9538 34.7642C42.1145 34.0648 40.846 33.0158 40.1402 32.4488C39.4344 31.8723 38.2517 30.9367 37.5173 30.3602C36.7829 29.7932 35.8387 29.0749 35.4191 28.7725C34.9994 28.4701 34.2269 27.922 33.7023 27.5723C33.1777 27.2132 32.7199 26.9297 32.6818 26.9297C32.6436 26.9297 32.5864 27.2132 32.5482 27.5629C32.5101 27.922 32.5101 29.6703 32.5387 31.4659Z" fill="black"/>
</svg>
