<svg width="90" height="90" viewBox="0 0 90 90" fill="none" xmlns="http://www.w3.org/2000/svg">
<path d="M18.5 65.5L28 58.5L28.5 59V62L25.5 67.5L17.5 71L9 72.5L6.5 66.5L18.5 65.5Z" fill="white"/>
<path d="M9.53867 73.3187C9.53867 73.3187 9.53867 73.5484 9.43763 73.6586C9.22638 73.9067 8.96 74.2926 8.72119 74.2834C8.41808 74.2834 7.96801 74.0078 7.83941 73.7321C7.52712 73.0614 7.33424 72.3264 7.14135 71.6098C6.79231 70.3144 6.20446 69.166 5.3778 68.091C5.01958 67.6225 4.87262 66.6302 5.1298 66.1433C5.34106 65.739 6.27795 65.5737 6.91172 65.5369C10.797 65.3348 14.7375 65.5645 18.485 64.2874C19.7434 63.8556 20.965 63.1206 21.9937 62.2662C23.8675 60.7135 25.6219 59.0046 27.3395 57.2866C27.6701 56.965 27.8171 56.2208 27.7161 55.7431C27.3303 53.9974 26.6598 52.3069 26.375 50.5521C25.9525 47.9796 25.9801 45.4072 26.6414 42.8255C27.6334 38.9576 30.2236 36.3759 33.2547 34.0882C33.6313 33.8034 33.9987 33.5094 34.3661 33.2246C34.3294 33.1511 34.2926 33.0684 34.2559 32.9949C33.1812 33.2889 32.0882 33.5461 31.0227 33.8769C28.7815 34.5659 26.5771 35.3561 24.3176 35.99C23.3715 36.2564 22.3336 36.3024 21.3416 36.284C20.3863 36.2748 19.624 35.5122 19.7434 34.5568C19.9271 33.1603 20.4231 31.8005 20.6435 30.404C20.7813 29.4945 20.9099 28.4563 20.6068 27.6478C19.872 25.6633 20.2669 23.8717 21.0752 22.0894C22.802 18.2398 27.7069 15.7592 31.3901 15.9705C33.5486 16.0899 35.2754 17.2476 36.8002 18.6532C38.6096 20.3254 40.3273 22.1077 42.0449 23.8901C42.6236 24.4873 43.0461 25.2315 43.5696 25.9573C44.6535 25.1304 45.7832 24.4873 47.2253 25.0753C47.3723 25.1304 47.6937 25.011 47.7948 24.864C48.4286 24.0279 49.292 23.8074 50.238 24.0371C50.9637 24.2117 51.4045 23.8442 51.8822 23.4583C53.5171 22.1353 55.0602 20.6745 56.8054 19.5077C59.1844 17.9182 61.6735 16.4758 64.475 15.7224C66.4682 15.1896 68.4797 14.7761 70.5464 15.1344C73.8163 15.7132 75.3502 17.8356 74.3766 21.189C73.6785 23.6145 72.5947 25.9757 72.7049 28.5757C72.7784 30.3948 72.9621 32.2048 72.9713 34.0147C72.9896 36.6423 71.8782 37.5243 69.288 37.1752C66.459 36.7985 63.7953 35.8889 61.1408 34.8875C60.6356 34.6946 60.1121 34.5568 59.5885 34.3914C60.4519 35.8154 61.3337 37.1292 62.0685 38.5257C63.8963 41.9986 64.8792 45.7563 65.7701 49.5507C66.1743 51.278 66.9366 52.9133 67.5888 54.5763C67.8368 55.201 68.3052 55.3388 69.0125 55.0908C71.4373 54.2455 73.9541 53.8872 76.4983 54.2363C77.5363 54.3741 78.666 54.7141 79.4927 55.3296C80.9072 56.377 82.7259 56.9374 83.5342 58.7657C84.8476 61.7425 84.471 63.8097 81.9635 66.226C81.3297 66.8323 80.6317 67.3744 80.0346 68.0083C79.6672 68.3942 79.456 68.9271 79.1253 69.3497C78.8314 69.7172 78.4732 70.0388 78.1425 70.3787C77.8486 69.9928 77.3709 69.6345 77.2974 69.2119C76.8841 66.6394 76.0299 64.2598 74.1378 62.4315C73.0815 61.4025 71.8231 60.5849 70.629 59.6937C69.8759 59.1241 69.0216 58.6831 68.3328 58.0491C67.7174 57.4795 67.1295 57.4795 66.3855 57.6081C63.9882 58.0032 61.6 57.847 59.4324 56.7445C56.6952 55.3572 55.4276 52.7847 54.601 49.9825C54.1325 48.3931 54.0682 46.822 54.2795 45.1132C54.6377 42.2834 54.7571 39.371 53.6825 36.5964C53.4161 35.9073 53.1038 35.2183 52.7088 34.5935C52.0108 33.4818 51.5423 33.4267 50.1921 33.6931C48.9888 33.9228 47.7489 34.0974 46.5364 34.0423C45.7832 34.0147 44.9841 33.6196 44.3136 33.2154C43.3584 32.6366 42.6878 32.4896 41.8244 33.2521C40.465 34.4465 39.2159 35.7603 37.9024 37.0098C37.6268 37.2762 37.2962 37.4784 37.0574 37.6621C36.9563 37.9561 36.892 38.2593 36.7542 38.5349C35.5602 40.9053 34.21 43.2113 33.2088 45.6644C32.4556 47.5111 32.1433 49.5323 31.6381 51.4893C31.3718 51.5536 31.1054 51.6087 30.4532 51.7649C31.73 51.9486 31.4177 52.5275 31.2432 53.0603C30.839 54.2547 30.3889 55.4491 30.0215 56.6526C29.9021 57.0385 29.9113 57.4887 29.9572 57.8929C30.3889 61.623 29.002 64.6733 26.5496 67.3744C23.5644 70.6727 19.6791 72.0416 15.4172 72.6021C13.4883 72.8501 11.5594 73.0614 9.54785 73.3003L9.53867 73.3187ZM53.2416 30.3397C55.9053 31.2125 58.3853 32.0394 60.8744 32.8295C63.584 33.6931 66.2753 34.6027 69.0125 35.3652C70.6842 35.8338 71.2169 35.3285 71.1985 33.5829C71.1985 32.903 71.1985 32.2139 71.0975 31.5341C70.6842 28.7503 70.877 26.0308 71.8507 23.3664C72.2456 22.2639 72.5671 21.1339 72.8518 20.0038C73.1825 18.6624 72.7692 17.8447 71.5292 17.2384C69.4625 16.2094 67.3775 16.7974 65.3384 17.2659C62.7941 17.8539 60.4519 19.0299 58.3118 20.5091C56.4747 21.777 54.7479 23.201 52.9936 24.5792C52.8191 24.717 52.6262 25.0385 52.6721 25.2131C52.9017 26.0767 53.214 26.9128 53.4896 27.758C55.1062 27.4365 56.6952 27.0873 58.2842 26.8117C59.4967 26.6096 60.7366 26.5545 61.9491 26.3248C62.2889 26.2605 62.8309 25.7735 62.7941 25.5714C62.7206 25.1672 62.3716 24.5975 62.0226 24.4965C61.2051 24.2668 60.3141 24.3035 59.4691 24.1565C59.0741 24.0922 58.523 23.9452 58.3669 23.6604C58.0821 23.1367 58.4679 22.7233 59.0098 22.5855C59.4783 22.466 59.9835 22.3374 60.4427 22.4201C61.2878 22.5671 62.1328 22.8152 62.9411 23.1092C64.1627 23.5502 64.7506 24.8364 64.4934 26.1135C64.2086 27.5375 63.1248 27.9785 61.9583 28.1898C59.4967 28.6308 57.0258 28.9891 54.555 29.3199C53.7468 29.4301 53.361 29.8068 53.2599 30.3581L53.2416 30.3397ZM42.5041 29.3199C42.5041 29.0994 42.4766 28.9065 42.5041 28.7227C42.6878 27.657 42.4031 26.9403 41.6224 26.0032C39.721 23.7155 37.6452 21.6392 35.3948 19.7374C33.9068 18.4787 32.2627 17.367 30.0858 17.7712C27.7252 18.2122 25.5576 19.0942 23.9777 20.9501C22.407 22.7968 21.4702 24.8088 22.3795 27.4089C22.7469 28.4471 22.3979 29.7517 22.3152 30.9277C22.2785 31.4238 22.0672 31.9108 21.9386 32.3977C27.9181 25.5255 35.0734 26.9128 42.495 29.3199H42.5041ZM53.5722 32.8663C54.1968 34.1525 54.8765 35.3377 55.3541 36.5872C56.3278 39.1321 56.2727 41.7965 55.9696 44.4517C55.9236 44.8375 55.6756 45.1867 55.5195 45.5633C55.6113 45.7379 55.8593 45.986 55.8318 46.2065C55.6297 48.0623 56.2359 49.7436 56.9799 51.379C57.9076 53.4094 59.1109 55.2194 61.5174 55.6328C62.7941 55.8533 64.0984 55.8533 65.3935 55.9268C65.6231 55.936 65.8528 55.8258 65.8528 55.8166C65.1455 53.5473 64.2821 51.3974 63.832 49.1648C62.9043 44.5068 61.5266 40.0417 58.6975 36.1737C57.4392 34.4649 55.9236 32.9765 53.563 32.8663H53.5722ZM7.20564 67.3377C7.73838 68.5045 8.28949 69.5335 8.68445 70.6268C8.9049 71.2331 9.19882 71.4169 9.81422 71.3801C12.7994 71.1872 15.7662 70.93 18.6779 70.1215C22.4622 69.0741 25.3279 66.9058 27.1558 63.4697C27.8171 62.2202 28.3958 60.8513 28.1937 59.2802C27.3487 60.0428 26.522 60.7227 25.778 61.476C22.2233 65.1143 18.0166 67.1723 12.8361 67.0896C10.9624 67.062 9.0886 67.255 7.19646 67.3468L7.20564 67.3377ZM40.3273 32.2966C40.2905 32.2231 40.2446 32.1404 40.2079 32.0669C39.5833 32.2966 38.8944 32.4253 38.3341 32.7744C36.5522 33.8861 34.7427 34.9794 33.0894 36.2748C31.4269 37.5794 29.9389 39.1045 28.9744 41.0615C27.8079 43.4227 27.7528 45.9492 27.7987 48.485C27.8263 50.3408 28.2947 52.1048 29.1214 53.9974C29.2867 53.5473 29.3878 53.29 29.4704 53.0236C30.3063 50.2214 31.0686 47.3916 31.9872 44.6078C33.319 40.5929 35.5694 37.1292 38.5913 34.1617C39.1975 33.5645 39.7578 32.9214 40.3365 32.2966H40.3273ZM69.9402 56.7904C71.7772 58.2237 73.605 59.5191 75.2859 60.9799C77.0035 62.4683 78.0231 64.4712 78.7579 66.8875C79.9244 65.638 80.8429 64.6457 81.7706 63.6535C82.7259 62.6245 82.4962 61.4669 82.184 60.2725C81.8717 59.0597 80.6868 58.7014 79.8877 58.0307C78.8865 57.1855 77.6097 56.5056 76.3422 56.1657C74.1929 55.5869 72.0344 56.1106 69.9402 56.7904ZM45.2505 32.1772C45.9577 32.2783 46.564 32.4253 47.1702 32.4344C47.8132 32.4344 48.4653 32.3334 49.1083 32.2415C50.78 32.0118 51.4505 31.3503 51.5882 29.6966C51.6617 28.8605 51.5974 28.0153 51.5882 27.1792C51.5882 26.2513 50.9912 25.9297 50.1921 25.746C49.3379 25.5438 49.0807 26.1502 48.8511 26.7015C48.6031 27.2895 48.5388 27.9418 48.3091 28.539C48.1897 28.8421 47.9326 29.1913 47.657 29.2923C47.4917 29.3475 47.0049 29.0167 46.9497 28.7778C46.766 28.0704 46.7201 27.3354 46.6191 26.6004C45.0392 26.2237 43.8452 27.6753 44.1942 29.3658C44.3963 30.3213 44.8831 31.2217 45.2413 32.1772H45.2505ZM39.1608 30.3673C39.1424 30.2019 39.124 30.0365 39.1148 29.8711C36.6716 29.6598 34.2283 29.3107 31.7851 29.274C27.9365 29.2188 25.3922 31.6168 23.0776 34.3454C28.506 33.2154 33.5119 30.5418 39.1699 30.3673H39.1608Z" fill="black"/>
<path d="M53.2417 30.3397C53.3427 29.7885 53.7285 29.4118 54.5368 29.3015C57.0168 28.9708 59.4876 28.6125 61.94 28.1715C63.1065 27.9602 64.1996 27.5284 64.4751 26.0951C64.7323 24.8181 64.1353 23.5318 62.9228 23.0908C62.1145 22.7968 61.2695 22.5488 60.4245 22.4018C59.9652 22.3191 59.46 22.4477 58.9916 22.5671C58.4588 22.7049 58.0639 23.1276 58.3486 23.6421C58.5048 23.9269 59.0559 24.0739 59.4508 24.1382C60.2959 24.2852 61.1868 24.2393 62.0043 24.4781C62.3533 24.5792 62.7024 25.1488 62.7759 25.5531C62.8126 25.7552 62.2707 26.2421 61.9308 26.3064C60.7184 26.5361 59.4784 26.5912 58.266 26.7934C56.6678 27.0598 55.0879 27.4181 53.4713 27.7397C53.1866 26.8944 52.8835 26.0492 52.6538 25.1947C52.6079 25.0202 52.8008 24.6986 52.9753 24.5608C54.7297 23.1827 56.4565 21.7586 58.2935 20.4908C60.4337 19.0116 62.7667 17.8356 65.3202 17.2476C67.3593 16.779 69.4443 16.2002 71.5109 17.22C72.7417 17.8356 73.1643 18.6533 72.8336 19.9855C72.5489 21.1155 72.2274 22.2548 71.8324 23.3481C70.868 26.0124 70.6659 28.7319 71.0792 31.5157C71.1803 32.1864 71.1803 32.8755 71.1803 33.5645C71.1986 35.301 70.6659 35.8155 68.9942 35.3469C66.257 34.5843 63.5658 33.684 60.8562 32.8112C58.367 32.0119 55.887 31.185 53.2233 30.3214L53.2417 30.3397Z" fill="white"/>
<path d="M42.5041 29.3199C35.0825 26.9128 27.9273 25.5255 21.9478 32.3977C22.0763 31.9108 22.2876 31.4238 22.3243 30.9277C22.4162 29.7517 22.756 28.4471 22.3886 27.4089C21.4701 24.8089 22.407 22.7968 23.9869 20.9501C25.5667 19.0943 27.7252 18.2123 30.095 17.7713C32.2627 17.367 33.9068 18.4787 35.404 19.7374C37.6543 21.6392 39.7302 23.7156 41.6315 26.0032C42.4123 26.9404 42.697 27.657 42.5133 28.7227C42.4857 28.9065 42.5133 29.0994 42.5133 29.3199H42.5041ZM34.6875 24.3127C34.8896 24.1933 35.2938 24.0922 35.3213 23.9177C35.3856 23.5777 35.3397 23.1367 35.156 22.8611C34.9815 22.5947 34.5865 22.4477 34.265 22.2915C33.0526 21.7127 31.7575 21.6208 30.4532 21.7678C30.196 21.7954 29.9848 22.2823 29.7551 22.5671C30.0215 22.7876 30.2695 23.1276 30.5726 23.2102C31.3258 23.394 32.1157 23.4032 32.8689 23.5961C33.4567 23.7431 34.0078 24.0463 34.6784 24.3219L34.6875 24.3127Z" fill="white"/>
<path d="M53.5723 32.8663C55.942 32.9765 57.4576 34.4649 58.7068 36.1738C61.545 40.0417 62.9135 44.5068 63.8412 49.1648C64.2821 51.3974 65.1547 53.5381 65.862 55.8166C65.862 55.8166 65.6232 55.936 65.4027 55.9268C64.1076 55.8533 62.7941 55.8441 61.5266 55.6328C59.1201 55.2194 57.9168 53.4095 56.9891 51.379C56.2451 49.7437 55.6389 48.0715 55.841 46.2065C55.8686 45.986 55.6205 45.7379 55.5287 45.5634C55.6848 45.1959 55.942 44.8375 55.9788 44.4517C56.2819 41.7965 56.337 39.1321 55.3634 36.5872C54.8857 35.3377 54.206 34.1617 53.5814 32.8663H53.5723Z" fill="white"/>
<path d="M40.3272 32.2966C39.7486 32.9214 39.1883 33.5645 38.5821 34.1617C35.5601 37.1293 33.3098 40.5837 31.9779 44.6079C31.0594 47.3825 30.2971 50.2122 29.4612 53.0236C29.3785 53.29 29.2775 53.5473 29.1122 53.9974C28.2947 52.114 27.8263 50.35 27.7895 48.485C27.7528 45.9492 27.7895 43.4227 28.9652 41.0615C29.9388 39.1046 31.4176 37.5794 33.0802 36.2748C34.7335 34.9794 36.543 33.8861 38.3249 32.7744C38.876 32.4253 39.5649 32.2966 40.1986 32.067C40.2354 32.1405 40.2813 32.2231 40.318 32.2966H40.3272Z" fill="white"/>
<path d="M69.9399 56.7904C72.0433 56.1106 74.1927 55.5869 76.342 56.1657C77.6095 56.5056 78.8863 57.1763 79.8875 58.0307C80.6774 58.7014 81.8714 59.0597 82.1837 60.2725C82.4868 61.4669 82.7257 62.6245 81.7704 63.6535C80.8427 64.6457 79.915 65.638 78.7577 66.8875C78.0229 64.4803 77.0033 62.4683 75.2857 60.9799C73.6048 59.5191 71.777 58.2237 69.9399 56.7904Z" fill="white"/>
<path d="M45.2507 32.1772C44.8833 31.2309 44.3965 30.3305 44.2036 29.3658C43.8545 27.6753 45.0486 26.2329 46.6285 26.6004C46.7295 27.3354 46.7754 28.0704 46.9591 28.7778C47.0234 29.0075 47.5102 29.3474 47.6664 29.2923C47.9419 29.1913 48.1991 28.8421 48.3185 28.5389C48.5482 27.9418 48.6216 27.2895 48.8604 26.7015C49.0901 26.1502 49.3473 25.5438 50.2015 25.746C51.0098 25.9297 51.5976 26.2605 51.5976 27.1792C51.5976 28.0153 51.6619 28.8605 51.5976 29.6966C51.4598 31.3503 50.7893 32.0118 49.1176 32.2415C48.4747 32.3334 47.8225 32.4436 47.1796 32.4344C46.5733 32.4344 45.9579 32.2782 45.2599 32.1772H45.2507Z" fill="white"/>
<path d="M39.1607 30.3673C33.5119 30.5418 28.4968 33.2154 23.0684 34.3454C25.383 31.6167 27.9273 29.2188 31.7759 29.2739C34.2191 29.3107 36.6624 29.6598 39.1056 29.8711C39.124 30.0365 39.1424 30.2019 39.1515 30.3673H39.1607Z" fill="white"/>
<path d="M34.6874 24.3127C34.0169 24.0371 33.4658 23.7339 32.8779 23.5869C32.1247 23.4032 31.3348 23.394 30.5816 23.201C30.2785 23.1275 30.0305 22.7784 29.7642 22.5579C29.9938 22.2823 30.205 21.7953 30.4622 21.7586C31.7665 21.6116 33.0616 21.7035 34.2741 22.2823C34.5955 22.4385 34.9905 22.5855 35.165 22.8519C35.3487 23.1367 35.3946 23.5777 35.3304 23.9085C35.2936 24.083 34.8987 24.1841 34.6966 24.3035L34.6874 24.3127Z" fill="black"/>
</svg>
