<svg width="90" height="90" viewBox="0 0 90 90" fill="none" xmlns="http://www.w3.org/2000/svg">
<path d="M51.4999 25L50.9999 37.5L45.5 40L42.5 37.5C28.5 34.3 22.9999 43.8334 21.9999 49C19.1999 68.2 37.1666 76.3333 46.4999 78C60.0999 73.6 65.4999 61.8333 66.4999 56.5L67.4999 47L63.9999 40L55.9999 35.5V25C55.5999 14.6 49.1666 13 45.9999 13.5C36.3999 13.9 34.3332 21.6667 34.4999 25.5L33.4999 36.5H40.4999C40.1666 36.3334 39.4999 35.6 39.4999 34C39.4999 32.4 40.4999 25.3334 40.9999 22C48.1999 16 50.9999 21.5 51.4999 25Z" fill="white"/>
<path d="M57.2791 25.8819C57.339 28.7003 57.429 31.5037 57.2191 34.3221C57.1742 34.9817 57.384 35.3415 58.0437 35.5214C66.8586 37.95 69.8119 46.9599 68.5227 54.6055C67.5782 60.2124 65.1346 65.1445 61.2818 69.2372C57.384 73.3899 52.9615 76.9578 47.3397 78.5319C43.5019 79.6113 39.919 78.7568 36.5459 76.658C33.9374 75.0389 31.3439 73.3899 29.1701 71.2161C27.506 69.552 26.0668 67.6631 24.8226 65.6543C20.49 58.6832 19.9054 51.2474 22.7387 43.6917C24.2229 39.749 27.2212 36.8706 31.5687 35.8512C32.6331 35.6114 33.0529 35.0867 33.0829 34.0223C33.1878 30.7541 33.3077 27.486 33.5026 24.2178C33.8624 18.3412 36.6808 14.0986 42.4525 12.4945C46.1404 11.4751 49.9333 12.0448 53.2164 14.0836C55.8549 15.7177 56.5745 18.611 56.9793 21.5044C57.1742 22.9436 57.1891 24.4127 57.2941 25.8669L57.2791 25.8819ZM23.5483 53.4962C23.3534 56.6744 24.4777 59.4778 25.827 62.2662C27.9558 66.6887 31.2389 70.0917 35.2117 72.8352C37.0406 74.0945 38.9595 75.3088 41.1333 76.0433C43.0522 76.688 45.076 76.2682 46.965 76.8379C47.8645 75.2638 49.6934 75.2788 51.0426 74.4842C55.2403 72.0106 58.9582 68.9824 61.6716 64.9047C65.2246 59.5527 67.1735 53.736 65.7943 47.2297C64.475 41.0233 58.8232 36.5258 52.8266 37.8151C50.4879 38.3248 47.9844 38.5497 46.2903 40.6785C45.7956 41.2931 44.8512 41.3531 44.2965 40.6185C43.0072 38.9095 41.1932 38.3548 39.2294 37.8151C34.8818 36.6308 28.9752 38.3848 26.4566 41.8478C23.8481 45.4308 23.6232 49.4035 23.5633 53.4962H23.5483ZM40.6985 31.9834C40.6985 33.0328 40.7285 34.0972 40.6985 35.1466C40.6835 35.7913 40.8934 36.241 41.553 36.3609C43.0072 36.6158 44.1166 37.4403 45.121 38.4597C45.3609 38.6996 45.7057 39.1194 45.9755 38.7446C46.845 37.5752 48.0144 36.8856 49.3336 36.3459C49.7984 36.151 49.7084 35.5814 49.8133 35.1466C50.1282 33.9623 49.8583 32.763 49.9333 31.5637C50.0982 29.12 50.3231 26.6614 49.8733 24.2028C49.3936 21.6093 48.3891 20.5299 46.2753 20.5149C43.8317 20.4999 41.613 22.194 41.1783 24.3378C40.6685 26.8563 40.7585 29.4199 40.7135 31.9684L40.6985 31.9834ZM52.3619 30.2294C52.3619 31.4887 52.4818 32.748 52.3319 33.9923C52.197 35.1466 52.5718 35.3265 53.6362 35.2815C54.9404 35.2366 54.7605 34.3521 54.7605 33.6175C54.7605 30.4543 54.7905 27.2911 54.6856 24.1279C54.6106 22.0891 54.3258 20.0502 53.4713 18.1313C52.137 15.163 47.6396 14.0836 44.5213 14.4884C39.4542 15.148 35.4665 18.716 35.4815 24.5477C35.4815 27.6509 35.2716 30.7541 35.2117 33.8573C35.1967 34.6519 35.4965 35.6263 36.0961 35.4614C36.8157 35.2665 38.3149 35.8362 38.2249 33.9773C38.105 31.5337 38.075 29.0751 38.3749 26.6315C38.7047 23.993 39.2294 21.5494 41.5381 19.7804C45.181 16.9919 50.8627 17.4117 52.122 22.8986C52.6767 25.3272 52.6167 27.7858 52.3769 30.2444L52.3619 30.2294Z" fill="black"/>
<path d="M63.3509 52.2219C63.4708 58.3384 61.312 62.9708 56.9345 66.6437C54.4609 68.7125 51.7924 70.4515 48.8841 71.7558C46.0807 73.0001 43.1723 73.165 40.279 71.8158C36.1563 69.8969 32.1236 67.7681 29.65 63.7653C26.6368 58.8931 24.7179 53.6311 26.9666 47.9194C29.4402 41.6079 34.3874 39.1943 40.8637 41.3981C42.4228 41.9228 43.9219 42.8972 44.6115 44.6212C44.8664 45.2659 45.2412 45.1609 45.601 44.7112C47.34 42.5524 49.8586 41.7579 52.3022 40.8584C54.9257 39.8989 59.0333 41.578 60.9672 44.1265C62.9011 46.6751 62.9911 49.6734 63.3658 52.2219H63.3509ZM60.8023 53.751C60.8323 52.147 60.8623 50.5429 60.4275 48.9688C59.618 45.9705 57.9389 43.5868 54.7457 43.242C51.7474 42.9122 49.124 44.3814 47.34 46.795C45.466 49.3136 46.5904 52.1769 49.6037 53.0464C50.2183 53.2263 50.9979 53.3912 51.3877 52.7166C51.7924 52.012 51.2378 51.4873 50.7131 51.0676C50.3683 50.7827 49.9635 50.5579 49.6037 50.288C49.094 49.9132 48.6143 49.4785 48.9141 48.7889C49.2289 48.0243 49.9185 48.0993 50.5931 48.2042C51.3127 48.3241 51.9273 48.6839 52.497 49.0887C53.9512 50.1381 54.5359 52.4768 53.8013 53.9609C53.0817 55.4001 51.3577 56.0447 49.4838 55.52C48.0746 55.1303 46.6504 54.6805 45.6459 53.5412C45.0163 52.8216 44.4916 52.8665 43.757 53.4212C42.093 54.6955 39.8442 54.6805 38.1352 53.4662C36.5311 52.3269 36.1414 50.0032 37.3257 48.534C37.9403 47.7694 38.7499 47.5146 39.5894 48.0843C40.5039 48.6989 39.6494 49.1187 39.3645 49.6584C39.0347 50.288 38.51 51.1125 39.5294 51.5923C40.4739 52.027 41.5982 52.4618 42.4228 51.4274C44.1918 49.2086 43.0824 44.9511 40.4889 43.7367C36.2613 41.7729 31.449 43.7367 29.5601 47.9793C28.016 51.4723 28.5407 54.8454 29.695 58.2335C31.509 63.6154 35.5717 66.8236 40.4439 69.2072C42.7076 70.3166 45.0463 70.5415 47.4449 69.552C50.9679 68.0829 54.0262 65.9541 56.7097 63.2406C59.3482 60.5871 60.7423 57.4389 60.8023 53.7061V53.751Z" fill="black"/>
<path d="M42.4374 62.9108C42.4524 62.0713 42.6323 61.2917 41.9726 60.4972C41.0132 59.3578 41.2531 57.9186 42.3324 57.0491C43.5018 56.1047 45.1658 56.1496 46.1852 57.1541C47.2646 58.2035 47.5495 59.9125 46.4701 60.782C45.3607 61.6665 45.2708 62.7909 45.0759 63.9302C44.911 64.8897 44.7311 65.8491 43.5318 65.7442C42.3025 65.6393 42.3325 64.5898 42.3624 63.6604C42.3624 63.4055 42.3924 63.1656 42.4224 62.9108H42.4374Z" fill="black"/>
</svg>
