<svg width="90" height="90" viewBox="0 0 90 90" fill="none" xmlns="http://www.w3.org/2000/svg">
<path d="M61.1286 45.7258L60.7341 45.4186C61.0088 45.0659 61.2384 44.6809 61.4866 44.2647L61.5166 44.2143C61.7705 43.7888 62.0457 43.332 62.3902 42.9123C62.9406 42.2395 63.3788 41.5027 63.7972 40.7281C63.937 40.4693 64.0767 40.202 64.2182 39.9313C64.4916 39.4081 64.7717 38.8721 65.0722 38.3598L65.073 38.3585C65.9884 36.8081 66.7687 35.1746 67.4133 33.5034L67.4138 33.502C68.5931 30.4724 68.8354 27.2922 68.1278 24.0129L68.1253 24.0013C68.057 23.6889 68.0087 23.4679 67.9008 23.2857C67.8117 23.1351 67.6683 22.9919 67.3417 22.9085L67.4653 22.424M61.1286 45.7258L67.8798 33.6834C69.0955 30.5599 69.3442 27.2797 68.6166 23.9075C68.613 23.891 68.6094 23.8744 68.6058 23.8578C68.4803 23.281 68.3427 22.6479 67.4653 22.424M61.1286 45.7258L60.7341 45.4186C60.7041 45.4572 60.6741 45.4957 60.6442 45.5341C59.3664 47.1758 58.1648 48.7197 56.2507 49.6522C55.4088 50.0551 54.5502 50.3352 53.4953 50.3253C53.5134 50.2862 53.5314 50.2475 53.5491 50.2091C53.777 49.7168 53.9774 49.2837 54.2335 48.8606C55.9014 46.1417 57.0733 43.2342 57.7575 40.1587L57.7578 40.1577C58.2484 37.9303 58.3775 35.6254 57.7528 33.2696L57.7527 33.2695C57.4316 32.0595 56.5635 31.1617 55.402 30.6948L55.402 30.6948C54.0979 30.1708 52.8885 30.626 52.0094 31.4211C51.6998 31.6923 51.4036 31.988 51.1433 32.3085L51.1427 32.3093M61.1286 45.7258L51.1427 32.3093M67.4653 22.424L67.344 22.9091C67.1927 22.8713 67.094 22.7806 67.0463 22.7305C66.9919 22.6733 66.9506 22.6117 66.9203 22.56C66.859 22.4555 66.8106 22.336 66.776 22.2246C66.7414 22.1133 66.7129 21.9853 66.7047 21.8606C66.7007 21.7986 66.7006 21.7223 66.7145 21.6421C66.7274 21.5683 66.7596 21.4462 66.8545 21.3349M67.4653 22.424C67.3179 22.3872 67.1245 21.7883 67.2351 21.6593M66.8545 21.3349C66.8548 21.3346 66.8551 21.3343 66.8554 21.334L67.2351 21.6593M66.8545 21.3349C66.8543 21.3352 66.854 21.3356 66.8537 21.3359L67.2351 21.6593M66.8545 21.3349C67.0065 21.156 67.2226 20.9469 67.4591 20.7849C67.6672 20.6424 68.0138 20.4499 68.3857 20.5119L68.3884 20.5124C68.7069 20.5673 69.0703 20.6875 69.3908 20.8512C69.6957 21.0068 70.0392 21.2408 70.2274 21.5639M67.2351 21.6593C67.4929 21.3552 67.9719 20.9498 68.3035 21.0051C68.8377 21.0972 69.5653 21.4197 69.7955 21.8159M70.2274 21.5639C70.2272 21.5636 70.2271 21.5634 70.2269 21.5631L69.7955 21.8159M70.2274 21.5639C70.7261 22.4152 71.0803 23.3768 71.2289 24.3178L71.2294 24.3213C71.7175 27.5607 71.5901 30.7809 70.4775 33.8536M70.2274 21.5639C70.2275 21.5642 70.2277 21.5644 70.2278 21.5647L69.7955 21.8159M69.7955 21.8159C70.2653 22.6175 70.5968 23.5205 70.735 24.3958C71.2139 27.5746 71.085 30.7073 70.0074 33.6834M35.5054 63.3796C34.437 64.5129 33.3502 65.6462 32.1345 66.6597C30.6424 67.8943 29.0122 68.9908 26.7464 69C24.5912 69 22.7399 67.8022 21.8281 65.9687C21.0636 64.4299 20.3084 62.882 20.1426 61.2512C19.9751 59.5928 19.9932 57.9175 20.0113 56.2577C20.0121 56.1838 20.0129 56.1099 20.0137 56.0361L51.5851 53.2682C51.0709 53.8905 50.5804 54.5257 50.0844 55.1681C49.9514 55.3403 49.8181 55.513 49.6837 55.6862C49.0515 56.5011 48.4018 57.3196 47.6932 58.1036M35.5054 63.3796L35.868 63.7239C35.8682 63.7237 35.8684 63.7235 35.8686 63.7233C36.0878 63.4925 36.299 63.3502 36.5303 63.261C36.7656 63.1704 37.0494 63.1242 37.4283 63.124C38.4258 63.1332 39.5446 63.0988 40.5284 62.7875C40.5285 62.7875 40.5285 62.7875 40.5286 62.7875L40.3777 62.3108M35.5054 63.3796C36.0304 62.8267 36.5923 62.624 37.4304 62.624M35.5054 63.3796L37.4304 62.624M40.3777 62.3108C43.2053 61.417 45.4894 59.8046 47.3223 57.7683M40.3777 62.3108C39.4751 62.5964 38.4251 62.6332 37.4304 62.624M40.3777 62.3108L37.4304 62.624M47.3223 57.7683L47.6932 58.1036M47.3223 57.7683C48.1639 56.8372 48.9246 55.8521 49.6859 54.8661C50.1827 54.2227 50.6798 53.5789 51.1999 52.9495M47.3223 57.7683L47.6939 58.1028C47.6937 58.1031 47.6935 58.1034 47.6932 58.1036M47.6932 58.1036L51.1999 52.9495M52.213 52.4059C51.8906 52.3598 51.4209 52.6823 51.1999 52.9495M52.213 52.4059L52.1379 52.9002C52.1408 52.9006 52.1436 52.9011 52.1465 52.9015M52.213 52.4059L52.1423 52.9008C52.1456 52.9013 52.1474 52.9014 52.1474 52.9014C52.1474 52.9015 52.1471 52.9015 52.1465 52.9015M52.213 52.4059C55.0037 52.8297 57.2603 52.0834 59.2129 50.5263C61.5615 48.6466 63.1733 46.2695 64.6654 43.837M51.1999 52.9495L52.1465 52.9015M52.1465 52.9015C55.0818 53.345 57.4739 52.5526 59.5246 50.9172L59.5253 50.9166C61.9454 48.9798 63.5944 46.5391 65.0912 44.0991M64.6654 43.837L65.0912 44.0991M64.6654 43.837L65.0916 44.0984C65.0914 44.0987 65.0913 44.0989 65.0912 44.0991M64.6654 43.837C65.7599 42.0587 66.7295 40.2215 67.6989 38.3846C67.8144 38.1658 67.9299 37.9469 68.0456 37.7282M65.0912 44.0991L68.487 37.9631M68.0456 37.7282L68.4865 37.9639C68.4867 37.9637 68.4868 37.9634 68.487 37.9631M68.0456 37.7282L68.4875 37.962C68.4874 37.9624 68.4872 37.9627 68.487 37.9631M68.0456 37.7282C68.1365 37.5581 68.2281 37.388 68.3197 37.218C68.9422 36.0621 69.5658 34.9042 70.0074 33.6834M68.487 37.9631C68.5766 37.7955 68.6673 37.627 68.7585 37.4577C69.3797 36.3048 70.0224 35.1118 70.4775 33.8536M70.0074 33.6834L70.4775 33.8536M70.0074 33.6834L70.4776 33.8534C70.4775 33.8535 70.4775 33.8535 70.4775 33.8536M41.5559 40.5727C40.1577 39.648 38.3487 40.1081 36.9619 41.1633C35.1432 42.5467 34.1083 44.4077 33.1439 46.142C33.1192 46.1864 33.0945 46.2308 33.0699 46.2751C31.5547 48.9978 30.4525 51.9287 30.2813 55.1243C30.135 57.7509 31.0143 60.1665 33.4718 62.0089C33.5552 62.0728 33.6078 62.1224 33.6399 62.1585C33.6313 62.1686 33.6209 62.1801 33.6085 62.1929L33.6071 62.1944C33.5232 62.2815 33.4396 62.3685 33.3563 62.4554C31.7655 64.1118 30.2482 65.6917 28.1003 66.6448C26.7199 67.2567 25.3769 67.0249 24.5462 66.0033L24.5457 66.0027C23.8441 65.1429 23.2739 64.1329 22.9158 63.1369C21.9664 60.4918 21.9165 57.8078 22.3405 55.1094C22.7877 52.2792 23.5168 49.743 25.9833 48.0058C26.2456 47.8229 26.5194 47.5406 26.6273 47.1853C26.6844 46.9975 26.6961 46.7821 26.6213 46.5644C26.5471 46.3484 26.4022 46.1719 26.2165 46.0346C26.0606 45.9175 25.8728 45.8628 25.7239 45.8346C25.5628 45.8041 25.3893 45.7941 25.2236 45.7997C25.0577 45.8053 24.8851 45.8271 24.7256 45.8682C24.5764 45.9066 24.3944 45.9729 24.2463 46.0949C23.3633 46.8153 22.6115 47.655 21.903 48.4649L21.9009 48.4673C21.6835 48.7191 21.6735 49.0381 21.6723 49.204C21.672 49.2503 21.6724 49.291 21.6731 49.3275C21.6724 49.3278 21.6717 49.3281 21.671 49.3284C21.5956 49.3618 21.4519 49.4392 21.3615 49.6051L21.3614 49.6051L21.3583 49.611C21.2332 49.8481 21.0871 50.0795 20.9289 50.3301C20.909 50.3616 20.889 50.3933 20.8688 50.4254C20.6925 50.7052 20.5047 51.0095 20.3533 51.3316C20.0544 51.9674 19.8861 52.6977 20.1599 53.553L46.0395 42.6906C45.4747 45.565 46.1648 48.3301 48.4734 50.7172C48.7829 51.0374 48.9065 51.3157 48.9263 51.5536C48.9458 51.7878 48.8715 52.0627 48.6254 52.3926L48.6254 52.3925L48.6218 52.3975C48.5461 52.5016 48.4774 52.6072 48.4171 52.6999C48.4113 52.7088 48.4056 52.7175 48.4 52.7261C48.333 52.8291 48.2752 52.9163 48.214 52.9967L48.214 52.9967L48.2106 53.0011C46.396 55.4399 44.4746 57.7023 41.7569 59.28L41.7565 59.2803C40.6912 59.9001 39.6054 60.3923 38.2911 60.485C38.2955 60.4773 38.2999 60.4696 38.3044 60.4619L38.3062 60.4587C38.5563 60.0227 38.8204 59.5811 39.0871 59.135C39.5271 58.3993 39.9741 57.6518 40.3766 56.8982L40.3768 56.8979C41.7984 54.2314 42.8255 51.4196 43.2311 48.4093C43.4188 47.0197 43.4934 45.6155 43.4934 44.2166C43.5032 42.8098 42.8966 41.4567 41.5559 40.5727ZM41.5559 40.5727C41.5558 40.5726 41.5556 40.5725 41.5555 40.5725L41.2803 40.9899L41.5562 40.5729C41.5561 40.5729 41.556 40.5728 41.5559 40.5727ZM33.9673 62.5411C33.8782 62.6337 33.7892 62.7264 33.7002 62.8191C32.1239 64.4613 30.5435 66.1077 28.303 67.102L33.9673 62.5411ZM33.9673 62.5411C34.2713 62.2278 34.2436 61.9698 33.7739 61.6105L33.9673 62.5411ZM51.1427 32.3093C48.6463 35.396 46.7959 38.8134 46.0396 42.6902L51.1427 32.3093ZM53.8709 33.0476L54.1076 33.488C54.2723 33.3994 54.3944 33.3511 54.4832 33.3293C54.5699 33.3081 54.601 33.3178 54.6022 33.3182C54.6031 33.3184 54.6047 33.3188 54.6092 33.3221C54.6144 33.326 54.6266 33.3363 54.6442 33.3595C54.6819 33.4095 54.7325 33.5031 54.7851 33.6688C55.0274 34.4319 55.2035 35.204 55.2037 35.921C55.1945 37.3957 55.1566 38.8486 54.8563 40.2096L54.856 40.2109C54.5549 41.5928 53.9851 42.9518 53.378 44.3045C52.8645 45.4374 52.2657 46.5338 51.6582 47.6461C51.4817 47.9692 51.3045 48.2938 51.1284 48.6209C51.0568 48.7526 50.9666 48.8855 50.8497 49.0473C50.8294 49.0755 50.808 49.1049 50.7857 49.1353C49.4738 47.8469 48.9642 46.4367 48.862 44.8642L48.8619 44.8623C48.7152 42.7307 49.497 40.7984 50.5016 38.8614L50.5022 38.8604C51.0117 37.8724 51.5981 36.9296 52.1976 35.9658C52.4543 35.553 52.7135 35.1364 52.97 34.7106C52.983 34.6975 52.9988 34.6805 53.0142 34.6609C53.0437 34.6234 53.1275 34.5089 53.1275 34.3375V34.279L53.1139 34.222C53.0763 34.0635 53.0989 34.0019 53.1055 33.9867C53.1129 33.9697 53.1335 33.9354 53.2146 33.8845C53.302 33.8296 53.4177 33.7806 53.5826 33.7162C53.5975 33.7104 53.6128 33.7044 53.6286 33.6983C53.7706 33.6431 53.9476 33.5744 54.1084 33.4876L53.8709 33.0476ZM53.8709 33.0476C54.6077 32.6514 55.0129 32.7343 55.2616 33.5175C55.5103 34.3007 55.7037 35.1299 55.7037 35.9223L53.8709 33.0476ZM20.4469 53.31C20.4489 53.3086 20.4508 53.3072 20.4528 53.3058L20.4506 53.3074C20.4494 53.3083 20.4482 53.3092 20.4469 53.31ZM33.3242 53.2033C34.5514 49.6956 35.5473 46.9458 37.5159 44.6409L37.5167 44.6399C38.1028 43.9501 38.8641 43.3339 39.6699 42.7631C39.8214 42.6582 39.9096 42.6721 39.9697 42.6964C40.0589 42.7323 40.1931 42.8413 40.3221 43.084C40.8835 44.1625 40.78 45.2526 40.6625 46.4911C40.6565 46.5549 40.6504 46.619 40.6443 46.6836L40.6443 46.6843C40.4009 49.3268 39.7165 51.8541 38.5223 54.2166C37.6713 55.8953 36.7444 57.5463 35.8135 59.2044C35.6731 59.4544 35.5327 59.7045 35.3925 59.9549C35.3535 60.0232 35.3251 60.0455 35.3136 60.0518C35.3 60.0513 35.2292 60.0431 35.0932 59.9326L35.0921 59.9317C34.0143 59.0605 33.3852 58.0352 33.3056 56.904L33.3055 56.9022C33.2271 55.8442 33.267 54.8116 33.299 53.9848C33.3101 53.6968 33.3203 53.4338 33.3242 53.2033ZM35.3081 60.054C35.3081 60.0538 35.3095 60.053 35.3126 60.0524C35.3097 60.0539 35.3082 60.0542 35.3081 60.054ZM20.2663 53.8233C20.2671 53.8253 20.2674 53.8262 20.2674 53.8262C20.2674 53.8261 20.267 53.8251 20.2663 53.8233Z" fill="black" stroke="white"/>
</svg>
