<svg width="90" height="90" viewBox="0 0 90 90" fill="none" xmlns="http://www.w3.org/2000/svg">
<path d="M45.0845 27.7558L45.0845 27.7558C48.7115 25.2028 52.6997 23.7452 57.3148 24.654L45.0845 27.7558ZM45.0845 27.7558L45.0809 27.7583M45.0845 27.7558L45.0809 27.7583M45.0809 27.7583C44.3759 28.2638 43.7051 28.8334 42.981 29.4483C42.809 29.5944 42.634 29.743 42.4548 29.894C42.4417 29.8602 42.4287 29.8268 42.4159 29.7939C42.2558 29.3821 42.1228 29.0401 42.0134 28.6817C41.1689 25.8889 39.8666 23.291 37.3045 21.478L37.3037 21.4775C35.783 20.4055 34.0086 20.1668 32.3515 21.0026L32.3515 21.0026L32.3506 21.003C29.2302 22.5839 27.9083 25.5557 26.9663 28.4883C25.8462 31.9646 25.1259 35.6009 25.7047 39.3281L25.7048 39.3286M45.0809 27.7583L25.7048 39.3286M46.9609 63.3293L46.9605 63.3298C46.658 63.7283 46.3557 64.1284 46.053 64.5291C45.1422 65.7346 44.2277 66.945 43.2916 68.1317C42.6506 68.9462 42.0063 69.4562 41.2028 69.4973C40.441 69.5364 39.6782 69.1381 38.8393 68.5841C36.8578 67.2776 35.4945 65.5659 34.3777 63.7367C33.7001 62.6268 33.0927 61.4341 32.4967 60.2637C32.1279 59.5396 31.7635 58.824 31.3895 58.1418L46.9609 63.3293ZM46.9609 63.3293C47.9672 62 48.9781 60.6728 49.9892 59.3452C51.7954 56.9736 53.6025 54.6009 55.386 52.214C59.5595 46.6523 62.758 40.645 63.4522 33.4984M46.9609 63.3293L63.4522 33.4984M25.7048 39.3286C26.2657 42.9135 26.8449 46.5743 27.8714 50.0937M25.7048 39.3286L27.8714 50.0937M63.4522 33.4984C63.8747 29.2142 61.4547 25.4659 57.3152 24.654L63.4522 33.4984ZM27.8714 50.0937C28.6885 52.8999 29.9919 55.599 31.3894 58.1418L27.8714 50.0937Z" fill="black" stroke="white"/>
</svg>
