<svg width="90" height="90" viewBox="0 0 90 90" fill="none" xmlns="http://www.w3.org/2000/svg">
<path d="M38.2158 53.2518L34.5407 42.5459L31.2584 31.7051L32.563 23.9913L38.7179 21.4511L45.137 22.2394L50.1202 30.3592L57.0758 49.342L58.6544 59.058L59.3133 64.8156L53.421 68.1205C52.3293 67.9254 50.041 67.4857 49.6217 67.2877C49.2024 67.0897 47.5243 65.0158 46.7376 64.0036L43.3268 56.6263L39.9142 46.6851L38.7302 39.3981C39.5589 37.9739 41.2947 35.0985 41.609 34.9906C41.9233 34.8827 43.6615 35.4258 44.4913 35.7108L49.2147 46.9117C49.6519 47.7589 50.6049 49.4263 50.9192 49.3184L52.0979 48.9138L50.6532 43.426L46.5852 32.855L43.3091 30.9877L39.2491 31.954L35.9774 36.4964L35.3264 42.2762L39.0033 55.546L45.1688 68.3889L50.5422 72.528L55.6506 72.0567L62.5903 67.9648L64.2895 62.6799L56.2812 36.7925L50.5087 23.8147L48.0175 20.3958L39.6322 17.7179C38.2789 18.04 35.3364 18.7651 34.3935 19.0888L30.8576 20.3026L27.8476 24.3278L26.9332 28.061L29.4306 40.4534L31.794 48.6177L34.9433 56.5123L36.9077 55.838L38.2158 53.2518Z" fill="white"/>
<path d="M39.4147 57.4253C39.37 56.8923 39.0628 56.5008 39.0878 55.9695C39.1185 55.5049 38.737 55.6273 38.4595 55.8511C37.9944 56.2335 37.5267 56.6083 36.939 56.81C35.7329 57.224 34.4668 56.7333 33.8658 55.6373C32.6953 53.5115 32.0222 51.2236 31.3309 48.9076C30.4441 45.8962 29.4437 42.9066 28.6214 39.8816C27.7779 36.7697 27.0761 33.6176 26.8465 30.3806C26.7811 29.4348 26.6667 28.4974 26.5446 27.5625C26.2841 25.5699 27.2065 23.9766 28.3594 22.5013C30.2349 20.0839 32.5083 18.1211 35.5773 17.3931C37.999 16.8188 40.4361 16.642 42.9603 17.1721C45.2699 17.6559 47.1212 18.7939 48.9248 20.1455C49.4153 20.5169 49.7183 21.0469 50.0288 21.5486C50.7934 22.7941 51.6896 24.0202 52.1399 25.3822C52.5058 26.4732 52.9567 27.5351 53.2943 28.6444C53.6344 29.7358 54.3607 30.6431 54.7344 31.7315C55.6023 34.2096 56.5785 36.6506 57.4646 39.131C58.2612 41.3509 59.0114 43.5867 59.7616 45.8224C60.375 47.6596 60.8364 49.5576 61.4626 51.3818C62.1309 53.3287 62.776 55.2835 63.3412 57.2572C63.8985 59.2079 64.505 61.176 64.5954 63.227C64.6714 65.0345 64.5848 66.8721 63.4476 68.3934C62.4846 69.6922 61.2565 70.7221 59.7134 71.3632C56.8179 72.5714 53.8836 73.3645 50.7065 72.9214C48.2015 72.5732 46.5368 71.1227 45.3406 69.0228C44.6458 67.8048 43.928 66.5946 43.2204 65.3895C41.7217 62.8366 40.4651 60.1578 39.3968 57.4486L39.4147 57.4253ZM34.7041 40.7067C34.7475 40.2291 34.822 39.7409 34.8292 39.2586C34.8696 37.0599 35.6918 35.1497 37.0033 33.4057C37.4848 32.7692 38.1802 32.4533 38.8259 32.0432C39.4999 31.6147 40.1325 31.1663 40.9164 30.9571C41.9529 30.6784 42.9628 30.6745 44.0356 30.8288C45.1473 30.9956 46.0335 31.4368 46.7976 32.2026C48.0893 33.4728 48.4723 35.2178 49.2285 36.7661C49.8199 37.9854 50.1071 39.3005 50.5439 40.5728C51.4622 43.2479 52.3546 45.9232 53.2497 48.6062C53.3129 48.7901 53.475 49.1115 53.2146 49.1837C52.6602 49.3312 52.5422 49.8686 52.2137 50.1956C51.7311 50.6783 51.2949 50.7167 50.741 50.5384C49.8482 50.2537 49.168 49.7075 48.7159 48.8688C47.456 46.5081 46.9796 43.8613 46.0368 41.3917C45.388 39.6781 44.9788 37.8565 43.8457 36.3433C43.2075 35.4914 42.0011 35.4514 41.327 36.2826C41.0348 36.6399 40.7686 37.0226 40.5128 37.4103C39.7068 38.6124 39.2399 39.9465 39.5846 41.3533C40.152 43.6861 40.8098 46.005 41.5449 48.2974C42.8043 52.2433 44.1283 56.1756 45.849 59.9547C46.8626 62.1771 47.9381 64.3784 49.7518 66.112C50.2403 66.5783 50.7289 67.0446 51.4296 67.1725C53.9586 67.641 56.0423 66.7115 57.9281 65.1302C58.2493 64.8572 58.3378 64.5612 58.3688 64.1478C58.5325 61.8553 57.8345 59.6959 57.4718 57.4813C56.6765 52.5964 55.386 47.83 53.8042 43.1465C52.9408 40.5811 52.0079 38.0396 51.0981 35.4902C50.0384 32.5039 48.8344 29.5756 47.2879 26.8078C46.3084 25.0621 45.0562 23.5041 43.1092 22.7673C40.4477 21.7617 37.8439 22.1329 35.3495 23.4518C34.1936 24.0628 33.3314 24.95 32.8483 26.1612C32.3397 27.4239 32.3275 28.7733 32.3849 30.0987C32.5111 32.9086 33.1019 35.6618 33.7905 38.3728C33.9918 39.1605 34.085 40.011 34.7144 40.7117L34.7041 40.7067ZM41.1039 35.3053C40.903 34.5689 41.2371 34.3085 41.8096 34.1634C43.62 33.7219 44.5046 34.335 45.4674 35.8809C46.3781 37.3504 46.9931 39.0414 47.5279 40.7C48.1497 42.6371 48.805 44.5713 49.4526 46.5081C49.7238 47.3233 50.0492 48.1455 50.7297 48.743C50.8284 48.829 50.9248 48.9587 51.0819 48.8877C51.2313 48.8193 51.2303 48.6654 51.2114 48.5348C51.1818 48.3479 51.1418 48.1559 51.0891 47.977C50.4145 45.8609 49.7528 43.7319 49.055 41.6237C48.6916 40.5147 48.1477 39.459 47.9055 38.3255C47.6395 37.0973 47.3169 35.9057 46.7159 34.8097C45.8771 33.2726 44.7458 32.0416 42.8151 32.2332C39.0646 32.6124 37.0714 34.7875 36.5012 38.162C36.1825 40.0535 35.9444 42.0288 36.6435 43.9394C36.6961 44.0927 36.7101 44.2593 36.7395 44.4205C37.1493 46.3191 37.394 48.2657 38.0694 50.1073C38.1483 50.3373 38.1837 50.6164 38.386 50.7526C39.0889 51.2139 39.2306 51.9792 39.4958 52.6764C40.3625 54.9493 40.8452 57.3626 41.998 59.5373C42.8345 61.118 43.55 62.7745 44.4225 64.3342C45.1957 65.7053 45.9689 67.0764 46.8218 68.403C47.7296 69.8136 48.8421 70.9396 50.5558 71.1482C52.1145 71.3328 53.6516 71.3792 55.2608 70.9811C57.5637 70.4133 59.6898 69.6577 61.4384 68.0293C61.8775 67.6215 62.2646 67.163 62.46 66.599C63.0532 64.8274 62.9593 63.0432 62.576 61.247C62.1236 59.1232 61.4984 57.0502 60.8809 54.9744C60.3532 53.2106 59.8023 51.4548 59.2746 49.691C58.2378 46.2427 56.9896 42.8584 55.7518 39.4791C54.6848 36.5724 53.8472 33.5783 52.5199 30.7695C51.5697 28.7567 50.828 26.6465 49.8417 24.6545C49.0202 22.9916 48.2576 21.2484 46.4257 20.3179C45.7649 19.9793 45.0637 19.7744 44.3929 19.4821C42.1447 18.4973 39.7782 18.4015 37.4069 18.77C35.1259 19.1246 33.0649 19.9692 31.3839 21.6687C30.7936 22.2654 30.2138 22.8929 29.7064 23.5297C28.83 24.6274 28.0344 25.8344 28.1938 27.3563C28.3397 28.7884 28.4933 30.218 28.6883 31.6419C29.0262 34.0363 29.4158 36.4301 30.0762 38.7567C31.0694 42.2543 32.1194 45.7409 33.1435 49.2279C33.6741 51.0506 34.3234 52.8412 35.122 54.5634C35.3944 55.1554 35.8847 55.5011 36.5934 55.2493C37.2816 55.0131 37.559 54.3609 37.3661 53.6731C36.8483 51.8374 36.0804 50.0789 35.3951 48.3093C34.337 45.5794 33.5986 42.7484 32.6049 40.005C32.2553 39.0369 32.1197 38.0124 31.8655 37.0201C31.0817 33.9562 30.6436 30.8421 30.8846 27.692C31.0709 25.289 32.3378 23.4404 34.458 22.1642C35.7111 21.4085 37.1064 21.0923 38.5047 20.835C40.7982 20.4161 43.0335 20.5827 45.059 21.9009C47.2194 23.3099 48.4778 25.4398 49.6075 27.6481C50.4443 29.2801 51.0828 31.0144 51.7908 32.6991C52.4988 34.3839 53.1167 36.1082 53.7138 37.8225C55.3603 42.5181 57.1253 47.1815 58.1376 52.0691C58.5079 53.8527 58.8342 55.6342 59.2354 57.4071C59.3232 57.814 58.8763 58.1987 59.1416 58.4932C59.62 59.0059 59.6265 59.6291 59.7285 60.2281C59.9433 61.5338 60.2279 62.8413 60.0375 64.1748C59.9214 65.02 59.6579 65.8387 58.9953 66.4261C57.8728 67.4112 56.5912 68.1595 55.1605 68.5993C53.9412 68.975 52.6281 69.2287 51.3946 68.9838C49.8067 68.6635 48.5603 67.6262 47.5503 66.3708C45.9779 64.4087 44.8506 62.1824 43.8778 59.8773C42.7452 57.2073 41.6486 54.5164 40.8304 51.7299C39.8645 48.4629 38.4629 45.3369 38.1027 41.8705C37.8279 39.2573 38.7394 37.1538 40.2248 35.1615C40.5142 34.7709 40.859 34.5668 41.1246 35.3153L41.1039 35.3053Z" fill="black"/>
</svg>
