<svg width="90" height="90" viewBox="0 0 90 90" fill="none" xmlns="http://www.w3.org/2000/svg">
<path d="M13.0076 72.0496L16.5344 72.5461L18.5496 77.0142L23.5878 79L57.3435 78.0071L72.9618 76.5177L76.9924 73.0426L78 67.0851L74.9771 36.305L73.9695 14.9574L68.9313 9.99291L62.8855 9L49.7863 9.49645L18.5496 12.9716L15.0229 17.4397L15.5267 60.1348L14.0153 62.617L12 64.6028L13.0076 72.0496Z" fill="white"/>
<path d="M71.0469 78.1848C68.7022 78.3941 66.4277 78.6332 64.1532 78.7927C61.3075 78.9919 58.4619 79.2112 55.6062 79.1614C54.4038 79.1414 53.2014 79.3407 52.0091 79.4204C49.8347 79.5599 47.6504 79.4802 45.4961 79.7094C42.6304 80.0083 39.7547 80.1976 36.879 80.387C34.835 80.5165 32.7709 80.7557 30.7368 80.5962C29.0535 80.4667 27.4203 80.9649 25.7469 80.6361C25.2059 80.5265 24.6447 80.7258 24.0736 80.8653C22.0496 81.3635 20.4364 80.4169 19.1238 79.0617C17.9214 77.8162 16.9394 76.3713 16.4785 74.6375C16.3383 74.0994 16.1278 73.5514 15.3162 73.7307C13.0317 74.2489 12.0397 72.6546 11.5588 70.8012C11.0978 69.0076 10.9275 67.1641 11.0277 65.3108C11.0978 64.0453 11.3684 62.8595 12.2401 61.883C12.6409 61.4346 13.1018 61.1257 13.8132 61.2453C14.7451 61.4047 15.0757 60.9962 15.0457 60.1193C14.8753 55.2168 14.214 50.3442 14.2441 45.4317C14.2741 42.1534 14.2942 38.8651 14.3543 35.5769C14.4144 32.3683 14.3543 29.1598 14.4545 25.9512C14.5246 23.9484 14.5046 21.9256 14.5046 19.9228C14.5046 17.89 14.7351 15.9569 15.9374 14.2131C16.9895 12.6886 18.4424 11.8217 20.2159 11.8316C21.9293 11.8416 23.6127 11.6722 25.256 11.3035C27.0094 10.9049 28.7729 10.9547 30.5264 10.7854C34.1536 10.4366 37.7808 9.97824 41.408 9.57966C45.7867 9.10137 50.1654 8.90208 54.5541 8.70279C57.8206 8.55332 61.1071 8.54337 64.3536 8.00529C65.1651 7.96539 66.1872 8.15476 67.0189 8.44373C70.0148 9.48003 72.7302 10.9847 74.3033 13.8943C74.8845 14.9704 75.2051 16.1861 75.1951 17.4416C75.165 21.1783 75.2151 24.895 75.5257 28.6317C75.8865 33.0061 76.3975 37.3705 76.6981 41.7548C77.0187 46.5079 77.4796 51.241 77.8003 55.994C77.9606 58.2759 78.151 60.5577 78.3814 62.8396C78.5918 64.972 78.8423 67.0944 78.9926 69.2268C79.0728 70.3428 78.4816 71.3393 78.1009 72.3556C77.3995 74.219 76.2071 75.7934 74.7342 77.1087C73.7021 78.0354 72.4396 78.5137 71.0669 78.1649L71.0469 78.1848ZM33.9131 76.4211C33.9131 76.5208 33.9131 76.6802 33.9131 76.8496C33.863 78.4041 33.9933 78.5336 35.5063 78.424C37.38 78.2944 39.2638 78.1649 41.1375 78.0553C45.2356 77.8261 49.3338 77.6069 53.4319 77.3777C56.7084 77.1984 59.9849 77.0389 63.2614 76.8097C65.7063 76.6304 68.1311 76.2816 70.5759 76.1122C72.1891 76.0026 73.5318 75.6539 74.5538 74.229C75.9867 72.2361 76.9887 70.2332 76.658 67.6724C76.2973 64.8624 76.1169 62.0225 75.8865 59.1926C75.626 55.9741 75.5658 52.7356 75.3354 49.5271C75.0749 45.9598 74.7843 42.3926 74.3835 38.8353C74.0929 36.2644 73.9827 33.6637 73.7021 31.0829C73.5819 30.0167 73.6019 28.9206 73.4216 27.8843C73.0809 25.8914 73.0809 23.8986 73.151 21.9057C73.1711 21.4672 73.1811 20.421 73.1811 20.421C73.1811 19.4245 72.9707 18.6573 72.8905 17.6608C72.7402 15.6381 72.0689 13.8843 70.3555 12.6487C69.8144 12.2601 69.2533 11.8715 68.6521 11.5825C67.2093 10.885 65.7965 10.0281 64.1131 10.0679C62.5099 10.0978 60.8967 10.2473 59.3035 10.3968C55.6162 10.7355 51.9189 10.6957 48.2316 10.885C44.1034 11.1042 40.0052 11.6224 35.8971 12.0409C33.7729 12.2601 31.6787 12.7882 29.5144 12.6985C28.783 12.6686 28.2519 12.8779 28.2419 13.8444C28.2419 14.522 28.0916 15.1099 28.3421 15.8473C28.6627 16.8039 28.4323 17.9398 28.5325 18.9861C28.6026 19.6637 28.4924 20.4608 29.4142 20.7996C31.8491 21.6964 32.4603 22.7925 32.7308 25.3434C33.1116 28.8908 33.1216 32.4381 33.2819 35.9854C33.3019 36.3242 33.2017 36.6231 33.0715 36.942C32.6907 37.8886 31.839 38.1278 31.0074 38.3669C30.2859 38.5762 29.9052 38.9548 30.0855 39.7221C30.3561 40.8979 30.1557 42.1235 30.4463 43.2694C30.6767 44.1563 30.5465 45.0232 30.6767 45.8602C30.8471 47.0161 30.9172 48.1719 31.0374 49.3178C31.2879 51.7591 31.2479 54.2403 31.6486 56.6517C32.0895 59.3122 32.33 61.9926 32.6306 64.6531C32.9212 67.2738 33.2819 69.8944 33.4021 72.545C33.4522 73.7905 33.7228 75.066 33.8931 76.4112L33.9131 76.4211ZM29.1637 39.2737C28.6828 39.0545 28.3321 38.9648 27.9613 38.915C26.6788 38.7456 26.1377 37.9185 25.787 36.7029C25.5064 35.7064 25.0556 34.7299 24.8251 33.7036C24.1237 30.5947 24.1037 27.426 24.1037 24.2672C24.1037 22.4139 24.5646 21.826 26.3481 21.3377C26.6587 21.258 26.9894 21.2281 26.9593 20.8195C26.8692 19.7035 26.9593 18.5775 26.9293 17.4815C26.8992 16.3256 26.6287 15.1199 26.5385 13.9341C26.4684 13.0772 26.0776 12.9775 25.3461 13.1071C23.3822 13.4558 21.3983 13.7349 19.4244 14.0836C18.9134 14.1733 18.3122 14.1733 17.9715 14.6615C17.3302 15.5683 16.6589 16.505 16.6789 17.6608C16.709 19.2352 16.2581 20.7498 16.218 22.3142C16.1679 24.337 16.0477 26.3697 16.0276 28.3826C16.0076 30.6445 16.0276 32.9264 16.0477 35.1883C16.0577 36.5933 15.9475 37.9982 15.9876 39.3833C16.0377 41.0274 16.0176 42.6815 16.0477 44.3257C16.0877 46.8267 16.1479 49.3179 16.3383 51.8189C16.5387 54.3798 16.5687 56.9606 16.7891 59.5214C16.9194 61.0261 16.9194 62.5706 17.1398 64.0254C17.4404 65.9684 17.5807 67.9214 17.8011 69.8545C18.0316 71.8873 18.232 73.9101 19.234 75.7136C20.0957 77.2781 21.2881 78.4937 23.282 78.5934C24.8552 78.6831 26.4283 78.8923 28.0014 78.7428C29.1737 78.6233 30.336 78.8923 31.5084 78.6532C32.0494 78.5436 32.1897 78.3841 32.1296 77.7962C31.9793 76.2916 32.1797 74.777 31.809 73.2624C31.1477 70.5421 31.6787 67.6823 30.8972 64.9421C30.4863 63.5072 30.8871 61.9029 30.3661 60.478C29.9252 59.2823 30.6366 58.1862 30.1857 56.8809C29.2238 54.1207 29.5846 51.0815 29.2238 48.1819C29.0435 46.7071 28.8731 45.2324 29.0134 43.7278C29.1236 42.5221 28.6026 41.3363 28.6828 40.1007C28.7028 39.7221 28.7529 39.473 29.1637 39.2837V39.2737ZM26.1778 29.3691C25.9974 30.226 26.2479 30.9335 26.3682 31.6509C26.6287 33.2452 26.7589 34.8694 27.5705 36.3242C27.9814 37.0616 28.7228 37.3107 29.4342 36.8822C29.7348 36.7029 30.0354 36.5634 30.3561 36.5135C31.2078 36.374 31.3781 35.8858 31.338 35.0886C31.1978 32.1691 31.348 29.2196 30.8871 26.3299C30.4162 23.4203 31.0775 22.3042 27.4303 23.0914C27.2399 23.1313 27.0295 23.1213 26.8291 23.1213C26.1577 23.1213 25.9273 23.5797 25.9874 24.0979C26.1978 25.8915 25.8872 27.695 26.1778 29.379V29.3691ZM15.3763 63.8859C15.7771 62.8496 14.9856 62.8894 14.3543 62.8894C13.4625 62.8894 13.212 63.5869 13.0417 64.2944C12.5908 66.2175 12.8012 68.1208 13.2722 70.004C13.3924 70.4823 13.4625 70.9805 13.7331 71.419C14.204 72.1663 14.9455 71.9371 15.5567 71.8674C16.1679 71.7877 16.0777 71.1998 16.0076 70.7215C15.707 68.6588 16.0076 66.5364 15.4264 64.5036C15.3763 64.3143 15.3864 64.1051 15.3663 63.8859H15.3763Z" fill="black"/>
<path d="M34.0448 51.751C33.7047 47.4674 35.315 43.0542 38.4055 39.3384C42.2561 34.6961 47.297 31.847 53.498 32.0064C65.4599 32.3251 73.3012 41.4304 72.9911 51.8307C72.6311 63.7851 63.8296 69.8021 55.8783 70.8182C53.2579 71.1569 50.6375 71.0573 48.0371 70.2205C45.4166 69.3837 43.0062 68.1584 40.9759 66.3752C38.9756 64.6119 37.0653 62.7092 36.0451 60.1191C35.0549 57.6286 33.9648 55.1779 34.0448 51.741V51.751ZM53.888 34.0087C52.4178 33.9589 51.0175 34.4072 49.5773 34.5068C48.5371 34.5865 47.567 34.8853 46.6068 35.2241C45.0266 35.7919 43.6563 36.7383 42.3361 37.7444C42.0761 37.9437 41.756 37.9636 41.506 38.2027C40.2458 39.3782 39.6157 41.1415 38.0054 41.9982C37.9154 42.048 37.8654 42.2174 37.8554 42.327C37.6754 44.2994 36.4152 45.9133 36.0551 47.8559C35.8251 49.0812 35.6651 50.3364 35.6751 51.5219C35.7051 54.3511 36.3552 57.1006 37.6754 59.6409C38.6955 61.6034 40.0057 63.4265 41.696 64.7912C44.1464 66.7737 46.9069 68.2082 50.1174 68.8159C52.2978 69.2243 54.4281 69.1944 56.5384 68.8457C59.0989 68.4174 61.4792 67.3714 63.5996 65.8671C64.1797 65.4487 65.0498 65.4886 65.3899 64.8709C65.9 63.9146 66.6801 63.1973 67.3402 62.3705C68.9305 60.398 70.1206 58.1565 70.6007 55.7159C70.9608 53.8729 71.3709 51.9901 71.0508 49.9977C70.6607 47.5969 70.1107 45.2757 68.9305 43.1638C67.3302 40.2947 65.1198 38.0134 62.2294 36.3199C59.6189 34.7857 56.8085 34.2677 53.898 33.9888L53.888 34.0087Z" fill="black"/>
<path d="M22.9964 31.8891C23.0642 33.9729 22.1735 34.8605 20.1405 34.9956C18.9594 35.0728 17.3716 34.137 17.2264 32.3522C17.1199 31.0497 16.9747 29.7473 17.0038 28.4256C17.0231 27.6248 18.03 26.3417 18.8916 26.0523C19.6467 25.8015 21.1764 26.4864 21.8153 27.3933C22.2122 27.9529 22.5027 28.58 22.6188 29.2456C22.7931 30.1911 22.8899 31.1558 22.9964 31.8891ZM21.2635 31.9855C21.1473 30.8182 21.0505 29.6894 20.4793 28.6764C20.2082 28.1941 19.7532 28.0493 19.2498 28.0783C18.7076 28.1169 18.7464 28.5896 18.698 28.9658C18.5721 30.0657 18.8238 31.1366 19.0078 32.2074C19.153 33.0757 19.7145 33.3362 20.4696 33.2687C21.2635 33.1915 21.2248 32.5258 21.2635 31.9855Z" fill="black"/>
<path d="M55.0468 65C49.804 64.8892 46.1572 62.8843 43.4297 59.2575C42.1569 57.5649 41.3588 55.5802 41.1164 53.4847C40.581 48.8403 41.874 44.7601 45.3895 41.5765C46.5512 40.5186 47.9149 39.6623 49.41 39.0679C51.198 38.3526 53.1174 38.0101 54.9761 38C56.7136 38 58.4613 38.4131 60.1584 39.2392C61.9464 40.1157 63.4516 41.1937 64.7345 42.6343C66.8963 45.0724 67.9368 47.8731 67.9974 51.2078C68.058 54.6131 67.0579 57.5145 64.9769 60.0836C62.2797 63.4183 58.6027 64.7784 55.0468 65ZM57.5016 51.7418C57.6127 51.0466 57.4208 50.1601 57.2793 49.2634C57.1581 48.5179 56.7035 48.1149 55.9863 48.1049C55.1781 48.0948 54.37 48.1754 53.5619 48.2257C52.9456 48.266 52.683 48.5582 52.7335 49.2131C52.8749 50.8955 53.0164 52.5679 53.4709 54.2101C53.6326 54.7743 53.9457 55.0362 54.471 55.006C57.1985 54.8246 57.7137 54.7541 57.5117 51.7519L57.5016 51.7418Z" fill="black"/>
</svg>
