<svg width="90" height="90" viewBox="0 0 90 90" fill="none" xmlns="http://www.w3.org/2000/svg">
<g clip-path="url(#clip0_3386_19252)">
<path d="M28.5 29.5L35 22H35.5L38 30L49.5 34L40 40L38 53L28 45.5L15.5 49L21 37.5L15.5 28L28.5 29.5Z" fill="white"/>
<path d="M37.3847 20C37.8557 20.2875 37.929 20.8371 38.0592 21.3421C38.1145 21.6495 38.1475 21.9566 38.1763 22.2674C38.1851 22.3533 38.1938 22.4391 38.2028 22.5275C38.2309 22.8049 38.2575 23.0824 38.2841 23.3599C38.3034 23.5524 38.3227 23.7449 38.3421 23.9374C38.4332 24.8469 38.5182 25.7568 38.5965 26.6674C38.6031 26.7438 38.6098 26.8203 38.6166 26.899C38.6475 27.2551 38.6775 27.6111 38.7052 27.9675C38.7158 28.0934 38.7264 28.2194 38.737 28.3454C38.743 28.4295 38.743 28.4295 38.749 28.5154C38.7774 28.8382 38.8281 29.0656 39.0336 29.3202C39.3724 29.5982 39.8036 29.6457 40.2231 29.73C40.3123 29.7485 40.4015 29.7669 40.4934 29.7859C40.831 29.8556 41.169 29.9234 41.507 29.9912C41.6528 30.0206 41.7987 30.0499 41.9446 30.0793C43.3607 30.3638 44.7772 30.6462 46.194 30.9272C46.6504 31.0178 47.1067 31.1087 47.563 31.2C47.7343 31.2342 47.9057 31.2682 48.0772 31.3021C48.8817 31.461 49.684 31.6242 50.4786 31.8272C50.536 31.8415 50.5934 31.8559 50.6525 31.8707C51.0826 31.9845 51.4407 32.1532 51.7752 32.4518C51.8169 32.4861 51.8587 32.5204 51.9017 32.5557C52.0696 32.7601 52.0394 32.9607 52.0308 33.2151C51.9501 33.756 51.6851 34.1502 51.268 34.4916C50.9159 34.7493 50.5365 34.9641 50.1591 35.1826C50.0685 35.2355 49.9779 35.2883 49.8873 35.3412C48.2055 36.32 46.4783 37.2224 44.7293 38.0759C44.6484 38.1155 44.5675 38.1551 44.4842 38.1959C44.1535 38.3577 43.8229 38.5194 43.4914 38.6795C43.2446 38.7989 42.9985 38.9196 42.7524 39.0405C42.6778 39.0762 42.6032 39.1119 42.5263 39.1486C42.4568 39.183 42.3874 39.2174 42.3159 39.2528C42.2553 39.2823 42.1948 39.3117 42.1324 39.342C41.8158 39.5556 41.6187 39.7905 41.5045 40.1548C41.4901 40.2455 41.4758 40.3362 41.461 40.4297C41.4525 40.4809 41.444 40.5321 41.4353 40.5849C41.4076 40.7567 41.3822 40.9287 41.3571 41.1009C41.3381 41.2255 41.3192 41.3501 41.3003 41.4747C41.2371 41.8973 41.1778 42.3204 41.1187 42.7436C41.0964 42.9019 41.0741 43.0602 41.0518 43.2185C41.0052 43.5499 40.9587 43.8813 40.9124 44.2127C40.8543 44.6277 40.7959 45.0427 40.7373 45.4577C40.6799 45.864 40.6229 46.2703 40.566 46.6767C40.5548 46.7565 40.5436 46.8363 40.532 46.9186C40.4153 47.7525 40.3021 48.5866 40.2014 49.4226C40.189 49.5249 40.189 49.5249 40.1763 49.6293C40.1382 49.9448 40.1009 50.2604 40.0654 50.5762C39.8043 52.8224 39.8043 52.8224 39.0345 53.543C38.6333 53.8564 38.2814 54.0213 37.7641 54.0233C37.6892 54.0246 37.6144 54.0258 37.5372 54.0271C37.1119 53.9765 36.8146 53.7569 36.4946 53.4874C36.4237 53.4284 36.3528 53.3694 36.2797 53.3086C36.2217 53.26 36.2217 53.26 36.1624 53.2105C35.9223 53.0113 35.6789 52.8163 35.436 52.6206C35.3324 52.537 35.2288 52.4533 35.1253 52.3696C34.9538 52.2309 34.7822 52.0923 34.6106 51.9537C34.2011 51.6218 33.7968 51.2844 33.3945 50.944C33.1553 50.7421 32.9136 50.5446 32.6675 50.3512C32.2714 50.0388 31.8894 49.7109 31.5066 49.3827C31.2562 49.1681 31.0042 48.9555 30.7515 48.7434C30.4147 48.4605 30.0791 48.1761 29.7444 47.8906C29.7012 47.8539 29.658 47.8171 29.6135 47.7792C29.3859 47.5853 29.1593 47.3903 28.934 47.1937C28.8877 47.1535 28.8414 47.1134 28.7937 47.072C28.706 46.996 28.6186 46.9195 28.5316 46.8427C28.15 46.5128 27.7592 46.1788 27.2219 46.2091C26.7883 46.2969 26.386 46.4932 25.9828 46.6697C25.8787 46.7143 25.7746 46.7588 25.6704 46.8032C25.4032 46.9174 25.1365 47.0329 24.87 47.1489C24.6415 47.2482 24.4128 47.3467 24.184 47.4453C23.9189 47.5596 23.6538 47.674 23.3888 47.7887C22.1592 48.3206 20.9235 48.8384 19.687 49.3543C19.3306 49.503 18.9744 49.6524 18.6187 49.8029C15.7793 51.0024 15.7793 51.0024 14.6585 50.6701C14.3832 50.5363 14.1847 50.3332 14.049 50.0603C13.8468 49.3944 14.0338 48.8068 14.3467 48.2168C14.3834 48.1443 14.4202 48.0717 14.458 47.9969C14.5784 47.7602 14.7015 47.5249 14.8245 47.2895C14.9094 47.1234 14.9941 46.9573 15.0786 46.7911C15.5277 45.9141 15.9952 45.0493 16.4864 44.1949C16.7787 43.6864 17.0613 43.1733 17.34 42.6574C17.678 42.0324 18.0257 41.4143 18.3821 40.7996C18.7985 40.0786 19.1939 39.3464 19.5887 38.6135C19.722 38.3698 19.8607 38.1294 20.0014 37.8898C20.114 37.6568 20.1093 37.4758 20.0711 37.2237C19.9006 36.8148 19.6393 36.5086 19.3543 36.1752C19.2588 36.0615 19.1633 35.9477 19.068 35.8338C19.0214 35.7782 18.9748 35.7226 18.9268 35.6653C18.6593 35.3429 18.405 35.0108 18.152 34.677C18.0333 34.521 17.9134 34.366 17.7936 34.2109C14.5215 29.9537 14.5215 29.9537 14.5645 28.7677C14.6532 28.2803 14.9709 27.9369 15.3632 27.6519C15.9808 27.2898 16.635 27.1945 17.3421 27.2065C17.416 27.2072 17.4899 27.208 17.5661 27.2087C18.4455 27.2247 19.3153 27.322 20.1882 27.4235C20.3657 27.4435 20.5433 27.4634 20.7209 27.4833C22.7289 27.7104 24.7375 27.9551 26.7374 28.2445C27.3158 28.3248 27.9646 28.3943 28.4816 28.0809C28.96 27.7133 29.3265 27.2514 29.7028 26.7851C29.9827 26.4499 30.2821 26.1338 30.5808 25.8152C30.7426 25.6426 30.9008 25.4677 31.056 25.2892C31.3064 25.0013 31.5652 24.7212 31.8243 24.4411C32.0428 24.2047 32.2598 23.9671 32.4754 23.7281C32.8247 23.3411 33.178 22.9578 33.5317 22.5748C33.6701 22.4248 33.8084 22.2748 33.9466 22.1246C34.0151 22.0503 34.0839 21.9761 34.1529 21.9022C34.3271 21.7149 34.4965 21.5257 34.6598 21.329C35.3214 20.5464 36.3099 19.8812 37.3847 20ZM35.2111 22.9079C35.0345 23.0941 34.8581 23.2806 34.6818 23.4671C34.6325 23.519 34.5833 23.5709 34.5326 23.6244C34.2422 23.9317 33.9588 24.2437 33.6809 24.5622C33.5227 24.7423 33.3599 24.9179 33.1968 25.0935C32.8863 25.4319 32.5933 25.7807 32.3047 26.1376C32.14 26.3355 31.9677 26.5228 31.7915 26.7105C31.3314 27.2165 31.0033 27.7741 30.6927 28.379C30.134 29.463 29.4208 30.2375 28.2407 30.6623C27.5825 30.8518 26.8672 30.7096 26.203 30.6157C26.1089 30.6026 26.0149 30.5895 25.918 30.5761C25.0226 30.4472 24.1379 30.2753 23.2506 30.0999C21.4164 29.7382 19.6907 29.6054 17.8225 29.6184C18.0928 30.1327 18.3792 30.6157 18.7266 31.0817C18.7685 31.1385 18.8103 31.1954 18.8534 31.2539C19.5961 32.2588 20.3682 33.2415 21.1466 34.2192C21.5564 34.734 21.9624 35.2516 22.3617 35.7744C22.4194 35.849 22.4194 35.849 22.4782 35.9251C22.7287 36.2553 22.9158 36.5223 22.9239 36.9488C22.7975 37.385 22.4933 37.6445 22.1787 37.9626C21.746 38.4187 21.4635 38.9144 21.1766 39.4699C21.1276 39.563 21.0786 39.6561 21.0295 39.7492C20.9306 39.9369 20.8323 40.1249 20.7344 40.3132C20.6112 40.5499 20.486 40.7855 20.36 41.0208C19.3754 42.8659 18.4954 44.7608 17.636 46.6661C17.5658 46.8213 17.4953 46.9764 17.4241 47.1312C17.2773 47.4222 17.2773 47.4222 17.2229 47.7369C17.8474 47.7952 18.2824 47.6419 18.8437 47.3827C19.0299 47.3001 19.2162 47.2178 19.4027 47.1357C19.4793 47.1017 19.4793 47.1017 19.5574 47.067C20.3053 46.7363 21.0625 46.4273 21.8183 46.1151C21.9738 46.0508 22.1292 45.9866 22.2846 45.9222C22.7458 45.7315 23.2072 45.5411 23.6687 45.3509C23.7407 45.3212 23.8126 45.2915 23.8867 45.261C24.2921 45.0939 24.6975 44.9271 25.1032 44.7609C25.2252 44.7109 25.3471 44.6608 25.469 44.6106C28.047 43.5504 28.047 43.5504 28.7841 43.8547C28.9643 43.9691 29.1245 44.0978 29.29 44.2325C29.38 44.2996 29.4704 44.3663 29.5611 44.4326C30.4939 45.1157 31.399 45.8325 32.2961 46.5612C32.681 46.873 33.0725 47.175 33.4673 47.4744C33.7352 47.6787 33.9975 47.8895 34.2602 48.1003C35.5175 49.2738 35.5175 49.2738 36.935 49.9737C37.0212 49.4612 37.1073 48.9486 37.1933 48.4361C37.2241 48.2526 37.2549 48.0692 37.2857 47.8857C37.4686 46.7961 37.6494 45.7062 37.8256 44.6155C38.6767 39.3487 38.6767 39.3487 39.5582 38.4912C40.0776 38.1357 40.6349 37.8964 41.2165 37.6617C43.1055 36.8774 44.9342 35.9345 46.7219 34.9446C47.1744 34.6946 47.6369 34.4658 48.1026 34.2412C47.9039 33.9898 47.6447 33.9216 47.3481 33.8335C47.2953 33.8175 47.2424 33.8014 47.1879 33.7849C46.5785 33.6066 45.9588 33.4942 45.3341 33.3838C45.2112 33.3615 45.0884 33.339 44.9655 33.3165C44.7818 33.2829 44.5981 33.2493 44.4144 33.2159C43.9204 33.1262 43.4278 33.0308 42.9357 32.9318C42.8624 32.9171 42.7891 32.9024 42.7136 32.8873C42.4008 32.8246 42.0881 32.7615 41.7754 32.698C41.5002 32.642 41.2249 32.5864 40.9495 32.531C40.8571 32.5123 40.7647 32.4936 40.6696 32.4743C40.1475 32.3702 39.6253 32.2744 39.1 32.1879C39.0142 32.1736 39.0142 32.1736 38.9267 32.159C38.6488 32.1126 38.3709 32.0674 38.0925 32.0244C36.7291 31.8047 36.7291 31.8047 36.3735 31.3348C36.0557 30.7759 36.0969 30.105 36.0798 29.4821C36.0435 28.3712 35.965 27.265 35.878 26.157C35.8566 25.8843 35.8361 25.6115 35.8158 25.3387C35.7998 25.125 35.7833 24.9114 35.7666 24.6977C35.7551 24.5488 35.744 24.3998 35.733 24.2508C35.6977 23.8097 35.6585 23.4011 35.5109 22.9825C35.3625 22.9456 35.3625 22.9456 35.2111 22.9079Z" fill="black"/>
</g>
<g clip-path="url(#clip1_3386_19252)">
<path d="M61.5 58.5L71 56L71.5 54L65 51.5L67.5 45.5L60 47.5L51.5 45L51 52.5L45.5 60.5L54 59.5C55.6667 62 59.1 67 59.5 67C59.9 67 61 61.3333 61.5 58.5Z" fill="white"/>
<path fill-rule="evenodd" clip-rule="evenodd" d="M55.4964 43.8753C54.7768 42.9602 53.9082 42.1001 52.944 41.4452C52.1708 40.9777 51.2098 40.729 50.4767 41.4059C49.88 42.1114 49.8552 43.1271 49.8422 44.0078C49.8408 44.111 49.839 44.2142 49.8371 44.3174C49.8305 44.6425 49.8255 44.9676 49.822 45.2928L49.8203 45.4517C49.8084 46.5604 49.813 47.6663 49.8606 48.7743C49.9505 50.8616 49.5179 52.3414 48.3 54.0318C48.2093 54.1569 48.1189 54.2821 48.0299 54.4084C47.3636 55.3614 46.6645 56.2926 45.9063 57.1741C45.3486 57.8221 44.7901 58.4761 44.3461 59.2105C43.9816 59.8714 43.859 60.62 44.0526 61.3618C44.282 61.9203 44.6139 62.3814 45.1387 62.6864C45.9191 63.0518 46.7957 62.8972 47.581 62.6344L47.7187 62.5878C48.1217 62.4522 48.5236 62.3139 48.9251 62.1742C49.125 62.1047 49.3249 62.0354 49.5249 61.9661L49.935 61.8239C49.9676 61.8125 50.0001 61.801 50.0327 61.7896C50.7092 61.5522 51.3848 61.3151 52.0802 61.1386L52.2513 61.0967C52.8465 60.9489 53.5851 60.8185 54.1847 61.0093C54.8298 61.2768 55.2606 61.8502 55.5368 62.4784L55.6012 62.6347C56.0175 63.6335 56.3081 64.6794 56.5748 65.7272L56.6122 65.8752L56.6137 65.881C56.6744 66.1207 56.735 66.3604 56.7932 66.6007C56.9024 67.0539 57.0187 67.4998 57.1768 67.9386L57.2266 68.073C57.3324 68.3601 57.4521 68.6249 57.6178 68.8831C58.0171 69.4086 58.5342 69.9315 59.2073 70.0318C59.5718 69.9813 59.8969 69.8742 60.1948 69.652C61.2441 68.6649 61.3908 67.1171 61.5176 65.7618C61.5289 65.641 61.5404 65.5202 61.5521 65.3994C61.5834 65.0784 61.6145 64.7573 61.645 64.4362C61.6945 63.916 61.7442 63.3957 61.7947 62.8755C61.8126 62.6921 61.8303 62.5088 61.8475 62.3254C61.9006 61.761 61.958 61.1975 62.0351 60.6359L62.0588 60.468C62.1088 60.0945 62.1807 59.7825 62.3469 59.443C62.6565 58.9894 63.058 58.8129 63.5804 58.7032L63.7274 58.6749C64.2341 58.5729 64.7426 58.49 65.2545 58.4189C65.4128 58.3972 65.5712 58.3756 65.7295 58.3534C66.136 58.296 66.5427 58.2393 66.9494 58.183C68.2551 58.0023 69.56 57.8208 70.858 57.5901L71.0152 57.5622C71.5599 57.4668 72.1 57.3624 72.6362 57.2258L72.7947 57.1846C73.1596 57.0906 73.4978 56.9758 73.8414 56.8196C74.3729 56.531 74.7554 56.1387 74.9611 55.5611C75.076 55.0033 75.0686 54.4014 74.8022 53.8942C74.5429 53.4376 74.363 53.1209 74.1192 52.8652C73.5673 52.2862 72.6877 52.0195 69.8168 51.1492L69.6355 51.0944C69.3299 51.0022 69.0242 50.9101 68.7179 50.8204C68.6641 50.8047 68.6103 50.7892 68.5566 50.7736C68.0493 50.6269 67.5464 50.4815 67.0772 50.2306C66.8442 50.0793 66.6835 49.9295 66.6192 49.6449C66.6826 49.2699 66.7146 49.0798 66.7907 48.9093C66.8688 48.734 66.9934 48.5794 67.246 48.2659C67.9354 47.3838 68.5942 46.444 68.9897 45.3882C69.2306 44.661 69.2648 43.9804 68.9383 43.2736C68.7588 42.9436 68.5677 42.7317 68.2108 42.6018C67.2147 42.3349 66.2301 42.6058 65.3509 43.0927L65.1859 43.1861C64.9999 43.2898 64.814 43.3936 64.6285 43.4981C64.4991 43.5711 64.3696 43.6439 64.24 43.7165C64.1818 43.7491 64.1236 43.7816 64.0655 43.8142C63.5957 44.0771 63.1258 44.34 62.6597 44.6096C61.92 45.0394 61.1858 45.4629 60.3906 45.7817L60.2591 45.8333C59.6399 46.0803 59.0754 46.2073 58.4056 46.1729C57.7233 46.11 57.0639 45.6678 56.6174 45.1497C56.4611 44.9535 56.2989 44.7679 56.128 44.5847C55.9114 44.3529 55.6967 44.1215 55.4964 43.8753ZM64.8015 46.984C64.7822 46.9459 64.7506 46.9141 64.6877 46.8509C64.0101 46.8074 63.3823 47.2911 62.873 47.7029C62.0444 48.3857 61.2488 48.9504 60.2042 49.257C58.6688 49.6725 57.3933 49.0845 56.0589 48.3412C55.5031 48.0298 54.9506 47.7229 54.3544 47.4958C54.0252 47.3929 53.6827 47.3263 53.3632 47.4868C53.2291 47.6661 53.1756 47.7833 53.1528 48.008L53.1571 48.2353C53.1584 48.3622 53.1599 48.4891 53.1625 48.616C53.24 52.0682 51.17 55.2139 49.0691 57.8088L48.9507 57.9517C48.8757 58.0422 48.8005 58.1326 48.725 58.2227C48.7135 58.236 48.7021 58.2491 48.6908 58.2621C48.4749 58.5101 48.3045 58.7058 48.302 59.0614L48.4285 59.1886C49.1252 59.249 49.8382 59.0578 50.5004 58.8547C50.9139 58.7271 51.3299 58.6143 51.7494 58.508L51.9832 58.4493C52.0983 58.4202 52.2133 58.3902 52.3283 58.3602C53.1668 58.1411 54.0041 57.9224 54.8736 58.0915C55.5998 58.5811 55.9675 58.8291 56.2516 59.1508C56.5431 59.4809 56.7467 59.8887 57.1591 60.7149L57.3593 61.1159L57.5624 61.5178L57.6582 61.7133L57.7497 61.8939C57.7933 61.9817 57.8132 62.0217 57.8365 62.0597C57.856 62.0915 57.878 62.1218 57.9183 62.1776C57.9943 62.2051 58.0281 62.2173 58.063 62.2252C58.091 62.2315 58.1196 62.235 58.1713 62.2412C58.2413 62.1358 58.2725 62.0886 58.2943 62.0374C58.312 61.996 58.3234 61.9518 58.3441 61.872L58.3871 61.6554L58.4363 61.4138C58.5032 61.0811 58.5762 60.7497 58.6494 60.4183L58.7051 60.1664C58.9685 58.9524 59.307 57.7306 60.1326 56.7719C60.9201 55.9521 61.8058 55.6268 62.9268 55.5532C63.1758 55.5381 63.4245 55.521 63.6732 55.5024L63.8331 55.4903C64.4697 55.4423 65.1033 55.374 65.7371 55.2981L65.9095 55.2774C66.8299 55.1693 67.7497 55.0541 68.6456 54.8071L68.7801 54.7686C68.8005 54.7631 68.8209 54.7577 68.8413 54.7522C69.1205 54.6776 69.3925 54.6048 69.6224 54.4189V54.1645C69.1263 53.8815 68.567 53.7769 68.0085 53.6886L67.8176 53.6597C67.6069 53.6267 67.3961 53.5939 67.1853 53.5616C67.0422 53.5397 66.8991 53.5176 66.7561 53.4954C66.6538 53.4795 66.5516 53.4635 66.4494 53.4474C66.0113 53.3788 65.5731 53.3102 65.1342 53.2475L64.9553 53.2224L64.6202 53.1747C64.5995 53.172 64.5786 53.1693 64.5577 53.1665C64.1224 53.1095 63.6523 53.0478 63.3235 52.7415C63.308 51.8532 63.3001 51.399 63.3924 50.9661C63.4891 50.513 63.6956 50.0833 64.1183 49.2039C64.2165 48.9625 64.3144 48.721 64.4111 48.4789L64.5058 48.242C64.5296 48.184 64.5544 48.1259 64.5793 48.0675C64.7042 47.775 64.8314 47.4769 64.8414 47.1574C64.8277 47.0673 64.8209 47.0225 64.8015 46.984Z" fill="black"/>
</g>
<defs>
<clipPath id="clip0_3386_19252">
<rect width="38" height="34" fill="white" transform="translate(14 20)"/>
</clipPath>
<clipPath id="clip1_3386_19252">
<rect width="31" height="29" fill="white" transform="translate(44 41)"/>
</clipPath>
</defs>
</svg>
