<svg width="90" height="90" viewBox="0 0 90 90" fill="none" xmlns="http://www.w3.org/2000/svg">
<path d="M26.4615 75.2517H13.8112L11.9371 72.4406L11 58.3846L20.8392 52.2937V34.4895L15.2168 29.3357L13.8112 19.028L15.2168 13.8741L16.1538 12.9371L23.6503 12H62.0699L64.8811 12.9371L66.7552 31.2098L72.8462 29.3357C73.4709 29.8042 74.9077 30.835 75.6573 31.2098C76.407 31.5846 76.9068 34.1772 77.0629 35.4266V46.2028L72.8462 50.4196V53.2308C74.5641 54.6364 78 57.635 78 58.3846V67.2867L62.0699 77.1259L53.1678 79L26.4615 75.2517Z" fill="white"/>
<path d="M78.2612 41.5033C78.2612 42.5978 78.28 43.7015 78.2612 44.796C78.2332 46.7042 77.6342 48.3131 75.7718 49.1924C75.7438 49.2018 75.7157 49.2205 75.6876 49.2392C73.9001 50.2307 73.6568 50.7826 74.0967 52.8031C74.2277 53.3924 74.5552 53.8694 75.1261 54.0565C77.5874 54.861 77.9805 57.0311 78.4391 59.1077C78.9912 61.5866 79.038 64.1215 78.9819 66.6565C78.9725 67.0868 78.8976 67.5358 78.7853 67.9567C78.6637 68.4151 78.2893 68.8641 77.8495 68.7144C76.5205 68.2561 75.697 69.1634 74.7986 69.7527C72.6741 71.1465 70.4561 72.3438 68.1445 73.4008C66.329 74.2333 64.5695 75.2529 62.9786 76.4596C60.2552 78.5175 57.3072 79.1629 53.9287 78.9665C50.204 78.7607 46.4886 78.4801 42.7826 78.0966C37.523 77.554 32.2728 76.8525 27.0132 76.3099C24.1776 76.0199 21.3325 75.889 18.4782 75.7955C17.0369 75.7487 15.5957 75.9077 14.1638 75.6645C12.6571 75.4119 12.2079 75.0565 11.8616 73.6253C11.8148 73.4382 11.8335 73.2137 11.7306 73.0827C10.1583 71.081 10.542 68.6863 10.3829 66.4039C10.2238 64.1028 10.1583 61.7924 10.0086 59.4819C9.93371 58.2752 10.3455 57.3959 11.3749 56.7037C13.3215 55.4129 15.212 54.0285 17.1305 52.6908C17.6359 52.3354 18.2161 52.0828 18.7402 51.7554C19.6105 51.2129 19.8539 50.502 19.8165 49.5479C19.779 48.7247 19.8164 47.9109 19.9381 47.069C20.041 46.4236 19.882 45.6285 19.8632 44.8895C19.8164 42.2797 19.7416 39.6793 19.6948 37.0695C19.6854 36.4521 19.6761 35.8067 19.8258 35.208C20.0317 34.3568 19.6761 34.2445 18.9555 34.2726C16.8404 34.3755 15.4834 33.5898 14.978 31.8593C14.3697 29.792 13.8176 27.6967 13.724 25.5265C13.6023 22.7577 13.3871 19.9796 13.3777 17.2107C13.3777 15.7796 13.3403 14.3016 13.8737 12.8985C14.0141 12.5337 14.1919 12.4121 14.5101 12.3279C16.7281 11.7105 19.021 11.5983 21.2857 11.4393C22.3339 11.3644 23.457 11.3831 24.5145 11.3551C25.7686 11.3176 27.06 11.3176 28.3141 11.196C30.3169 11.009 32.3196 11.0744 34.3224 11.037C35.9976 11.009 37.6821 11.037 39.3573 11.009C41.1542 10.9809 42.9698 11.0277 44.776 11.0277C47.3402 11.0183 49.9045 11.009 52.4688 11.0277C56.0999 11.037 59.7498 10.9622 63.3623 11.3083C65.9453 11.5609 66.2822 11.7666 66.7688 14.339C67.0496 15.7889 67.2274 17.2575 67.6205 18.6793C67.9574 19.886 67.4052 21.074 67.5175 22.2994C67.7141 24.4789 67.9667 26.6677 67.8544 28.8659C67.817 29.5675 68.2568 29.792 68.8184 29.5956C70.1192 29.1653 71.4856 29.371 72.7958 29.1185C74.2745 28.8379 75.2946 29.6143 76.0526 30.7181C77.1944 32.3737 77.7372 34.2633 77.9898 36.2463C78.2144 37.9862 78.2332 39.7448 78.2332 41.494L78.2612 41.5033ZM13.125 57.9572C15.7361 58.6026 18.188 58.453 20.6119 58.5184C22.1374 58.5559 23.6816 58.4997 25.207 58.5371C27.6122 58.5933 30.0174 58.9113 32.4132 58.8645C38.4963 58.7336 44.5795 58.6681 50.6345 59.3416C51.8231 59.4726 53.1052 59.4164 54.1253 60.277C54.3873 60.4922 54.5651 60.3331 54.771 60.1554C55.3512 59.6783 55.8847 59.0703 56.5585 58.8084C58.1682 58.1817 59.4784 57.1434 60.8729 56.1892C61.8462 55.5158 62.1644 54.6926 62.155 53.6543C62.1363 51.7741 61.9772 49.894 62.0333 48.0231C62.0895 46.0307 61.8368 44.0102 62.3141 42.0365C62.4545 41.4472 62.1644 41.335 61.6496 41.3537C60.8541 41.3911 60.4143 40.9608 60.3581 40.175C60.1897 37.8272 60.068 35.4793 59.8809 33.1408C59.8153 32.3363 59.4691 31.8031 58.6268 31.3541C56.5492 30.2597 54.3873 30.849 52.2816 30.7835C49.8484 30.7087 47.3964 30.8864 44.9538 30.7929C41.1355 30.6526 37.3171 30.8397 33.5081 31.0642C31.0468 31.2138 28.5762 31.3448 26.1336 31.7563C24.8982 31.9621 23.6629 32.0744 22.4649 32.4766C21.7443 32.7198 21.4168 33.4027 21.5385 33.8236C21.8473 34.9087 21.5571 35.9376 21.5197 36.976C21.4261 39.5951 21.5384 42.2049 21.632 44.824C21.6882 46.3487 21.2202 47.8641 21.5852 49.3888C22.0157 51.1661 21.3793 52.4008 19.8071 53.383C17.5704 54.7768 15.4459 56.3576 13.125 57.9665V57.9572ZM53.882 76.8525C54.5745 76.8992 55.2577 76.9366 55.9502 76.9834C56.4743 77.0208 56.8299 76.8712 56.7644 76.2632C56.6615 75.2249 56.5679 74.1772 56.4181 73.1389C56.0906 70.8471 55.7537 68.546 55.37 66.2636C55.136 64.8792 54.7242 63.5229 54.8085 62.0823C54.8365 61.5866 54.6493 60.9318 53.8351 61.465C53.5076 61.6801 53.1052 61.6146 52.7308 61.5772C49.9887 61.3153 47.256 60.9786 44.5139 60.8195C41.463 60.6418 38.4027 60.726 35.3425 60.7821C30.0642 60.885 24.7952 60.2957 19.5076 60.3612C17.2802 60.3893 15.0529 60.3331 12.8349 60.2583C12.2359 60.2396 12.1517 60.4547 12.1798 60.9598C12.264 62.363 12.3482 63.7754 12.395 65.1786C12.4886 67.7322 12.4886 70.2765 13.5368 72.6992C13.7988 73.3073 14.089 73.6534 14.7253 73.6908C15.8484 73.7656 16.9808 73.8311 18.1038 73.8778C20.509 73.9807 22.9235 73.9901 25.3193 74.1772C27.4063 74.3362 29.4746 74.7478 31.5616 74.9068C34.5376 75.1313 37.4762 75.5803 40.4336 75.8796C44.907 76.3473 49.3804 76.8992 53.9007 76.8525H53.882ZM38.0003 19.8205C37.0645 20.8308 36.9802 20.9992 37.1955 21.5698C37.3078 21.8597 37.4856 22.1123 37.6166 22.3929C37.8974 23.0009 37.523 23.3938 37.0645 23.5996C36.5123 23.8428 36.1567 23.4499 36.035 22.9448C35.8197 22.0749 35.4173 21.2798 35.1646 20.4192C34.5095 18.2116 34.1914 16.004 34.2943 13.7216C34.3224 13.1791 34.1726 12.8704 33.6205 12.8704C31.4306 12.8891 29.2406 12.9733 27.0601 12.9266C25.806 12.8985 24.5707 13.2259 23.326 13.0295C22.9423 12.9733 22.5118 12.6179 22.1561 13.1417C22.128 13.1791 21.6507 13.3755 21.6788 12.8891C21.7069 12.515 21.5946 12.4401 21.398 12.6833C20.7523 13.4504 19.8913 13.3943 19.0584 13.3756C18.0383 13.3475 17.0744 13.6655 16.0823 13.8058C15.4553 13.8994 15.1465 14.2361 15.1745 14.9657C15.2681 16.9862 14.9967 19.0067 15.2494 21.0366C15.4179 22.3648 15.4366 23.7118 15.5302 25.0495C15.5676 25.592 15.8297 25.9568 16.4005 25.8913C16.6251 25.8633 16.8497 25.7417 17.1024 25.6855C19.4889 25.1991 21.9315 25.5452 24.3086 25.1149C26.0867 24.7875 27.8742 24.9092 29.6524 24.9372C33.1525 25.0121 36.662 24.9653 40.1622 25.0214C44.0366 25.0869 47.9111 25.1804 51.7856 25.4143C52.553 25.461 52.6092 25.1711 52.5249 24.5443C52.4033 23.5622 52.1974 22.5893 52.1787 21.5884C52.16 20.3911 51.9822 19.1844 51.9541 17.9871C51.9166 16.6121 51.5517 15.2464 51.7763 13.8807C51.8792 13.254 51.7107 12.964 51.1211 12.964C50.6345 12.964 49.9607 12.5992 49.9045 13.6094C49.7454 16.9114 50.0542 20.1573 50.8217 23.3657C50.9714 23.9831 50.6626 24.4321 50.1853 24.6566C49.6331 24.9185 49.3992 24.4134 49.2588 23.9925C49.0248 23.2815 48.8376 22.5706 48.8002 21.8129C48.7721 21.1582 48.6598 20.5876 47.6959 20.7559C46.5822 20.943 46.5728 20.8775 46.7694 22.1403C46.8068 22.3835 46.7226 22.6642 46.8162 22.87C46.9846 23.2441 46.7319 23.3938 46.526 23.5622C46.3014 23.7399 46.0675 23.6651 45.8241 23.5435C45.169 23.2067 45.0287 22.5426 44.9538 21.9533C44.8228 20.8869 44.1864 20.7559 43.316 20.784C41.9029 20.8308 41.8841 20.8121 42.2866 22.1403C42.4363 22.6361 42.3614 23.057 41.9122 23.2628C41.4349 23.478 41.0138 23.2816 40.7237 22.8326C40.4336 22.3742 40.2745 21.8691 40.1528 21.3452C40.0592 20.9243 39.8159 20.5501 39.4135 20.653C38.6273 20.8495 38.2998 20.3631 37.9722 19.8299L38.0003 19.8205ZM27.1817 28.4263C27.1536 29.4459 27.3502 29.6797 28.2486 29.5301C31.5709 28.9875 34.9307 29.1279 38.2717 28.8753C43.0166 28.5198 47.7707 28.9127 52.5249 28.7537C53.7509 28.7163 53.7228 28.7537 53.2175 27.678C53.0303 27.2757 52.7683 27.2009 52.4033 27.2009C51.8792 27.2009 51.3551 27.1916 50.831 27.1822C46.9378 27.1074 43.054 26.7987 39.1514 26.8548C36.4842 26.8922 33.8264 26.7987 31.1591 26.7613C30.5976 26.7613 29.9612 26.9109 29.4839 26.7051C28.8101 26.4152 28.2112 26.6771 27.6309 26.7426C26.4892 26.8735 27.397 27.7996 27.1817 28.3234C27.1724 28.3515 27.1817 28.3889 27.1817 28.4169V28.4263ZM66.1231 62.363C65.7581 62.9616 65.9546 63.4106 66.0482 63.8596C66.4038 65.6275 66.7501 67.4048 67.0964 69.1727C67.218 69.8182 67.0402 70.5197 66.4693 70.7162C65.9265 70.8939 65.7394 71.0903 65.6364 71.6142C65.5896 71.8574 65.4492 72.3251 65.0655 72.2315C64.7473 72.1567 64.3449 72.2502 64.1203 71.7825C63.4559 70.3794 63.4746 68.7986 62.9037 67.3674C62.5481 66.4788 62.417 65.5153 62.1269 64.3834C61.893 64.8605 61.9959 65.0663 62.052 65.2721C62.5574 67.171 62.5949 69.1447 63.0909 71.0436C63.2406 71.6235 63.2219 72.2222 63.5682 72.7834C63.9987 73.485 64.4385 73.6908 65.0562 73.0827C65.7019 72.4373 66.5068 72.1193 67.2929 71.7545C67.8357 71.5019 68.079 71.2119 67.8731 70.6039C67.1993 68.5741 67.1525 66.4039 66.4881 64.3647C66.2915 63.7567 66.4974 63.0645 66.1231 62.3536V62.363ZM76.7451 65.8614C77.0727 65.6369 77.0165 65.4779 77.0072 65.3189C76.951 62.9149 76.7732 60.5483 76.2117 58.1817C75.9122 56.9376 75.1635 56.2547 74.2838 55.5812C74.0686 55.4129 73.7691 55.3006 73.61 55.7215C73.4509 56.1331 73.9656 57.7982 74.3493 57.8262C75.2571 57.8823 75.2197 58.5184 75.3413 59.1264C75.7906 61.3527 76.2679 63.5697 76.7451 65.8614ZM37.5417 12.8424C37.5417 12.8424 37.5417 12.8704 37.5417 12.8798C37.1299 12.8798 36.7275 12.8798 36.3157 12.8798C36.035 12.8798 35.8198 12.9546 35.8385 13.3007C35.8853 14.1706 35.9227 15.0499 35.9788 15.9199C35.9976 16.2192 36.138 16.5279 36.5123 16.3408C37.13 16.0228 37.7944 16.0602 38.4495 16.0508C38.983 16.0508 39.1795 15.8076 39.1421 15.2931C39.1046 14.8254 39.011 14.339 39.1046 13.8994C39.3292 12.8891 39.2824 12.7863 38.2811 12.8424C38.0284 12.8517 37.7757 12.8424 37.5324 12.8424H37.5417ZM45.9645 15.8731C46.3108 15.8357 46.7132 15.7702 47.1156 15.7421C48.2668 15.6486 48.4258 15.368 48.2761 13.5252C48.2012 12.5524 47.49 12.7395 46.8817 12.8424C46.2172 12.9546 45.3468 12.5804 44.9163 13.123C44.4765 13.6749 45.1129 14.4326 45.0755 15.1154C45.038 15.6954 45.3749 15.8918 45.9645 15.8637V15.8731ZM65.8329 70.2017C65.3744 69.7621 65.6177 69.2943 65.4399 68.9108C64.8784 67.7229 64.6444 66.1046 64.8222 64.5518C64.8409 64.4021 64.7567 64.3554 64.6631 64.2618C64.3075 63.9157 64.2888 63.448 64.1952 62.9897C63.9612 61.8672 64.0548 60.6979 63.6805 59.5942C63.5214 59.1358 63.4371 58.6775 63.7085 58.2285C64.0548 57.6392 63.1751 57.7233 63.2032 57.2931C63.2032 57.1902 63.016 57.1621 62.8943 57.2463C62.5574 57.4708 62.6417 57.8169 62.7165 58.1069C63.2219 60.0151 63.2406 61.9888 63.8208 63.9064C64.4011 65.7866 64.6912 67.779 65.234 69.6872C65.2902 69.893 65.2621 70.1456 65.8329 70.2017ZM41.9309 16.0228C43.3441 16.0695 43.5594 15.8263 43.2973 14.5822C43.2318 14.2455 43.0914 13.9274 43.0353 13.5813C42.9791 13.1978 42.8387 12.9172 42.4082 12.8985C41.8186 12.8798 41.2197 12.7301 40.6675 13.0388C40.6114 13.0669 40.5646 13.2165 40.5927 13.282C40.7985 13.7591 40.5927 14.3016 40.7518 14.76C40.967 15.3493 40.8828 16.3595 41.9309 16.0228ZM59.9276 23.768C60.9852 23.2628 61.0788 23.0477 60.9758 22.0375C60.7418 19.8486 60.7231 17.6504 60.7325 15.4428C60.7325 14.6009 61.1256 14.3203 61.8087 14.2736C62.1924 14.2455 62.2954 14.0865 62.3422 13.7684C62.3796 13.4504 62.286 13.1604 61.9491 13.1324C61.3314 13.0856 60.7138 12.9359 60.0868 13.0575C59.675 13.1417 59.5907 13.4504 59.8809 13.6281C60.4892 14.0023 60.3207 14.5448 60.3113 15.0499C60.2926 16.1631 60.2833 17.2668 60.4892 18.3613C60.6295 19.1002 60.3301 19.8112 60.2646 20.5408C60.2552 20.6718 59.8153 20.5782 60.0025 20.8775C60.8916 22.2713 60.9009 22.4397 59.9276 23.768ZM59.1509 70.1736C58.7672 70.5759 59.1696 70.8845 59.179 71.2119C59.2164 72.1847 60.0212 73.2698 58.6829 74.0369C58.3273 74.2427 58.4209 76.2725 58.7391 76.5625C58.7953 76.6186 58.8982 76.6467 58.9824 76.6467C59.8434 76.6654 60.798 75.4774 60.4798 74.7104C59.8808 73.2605 59.8996 71.6516 59.1415 70.1736H59.1509ZM61.3876 71.0342C60.8541 69.9866 61.0039 68.7986 60.7793 67.6854C60.3301 65.4685 60.0867 63.2048 59.7873 60.9505C59.6843 60.1648 59.6469 59.3603 60.8635 59.4819C61.1911 59.5193 61.1536 59.2106 61.1536 59.0048C61.1536 58.8365 61.06 58.7336 60.8541 58.7336C60.2271 58.7336 59.1321 59.8935 59.1041 60.5296C59.0292 62.1104 59.8153 63.5322 59.9089 65.0756C59.9744 66.1046 60.4985 67.0587 60.5828 68.0503C60.667 69.1073 60.8074 70.0988 61.3876 71.0249V71.0342ZM74.1434 39.857C73.8908 41.522 74.2183 43.1309 74.3774 44.7585C74.4429 45.432 74.4991 45.9933 73.5819 46.1243C73.0672 46.1991 73.1421 46.7416 73.1514 47.1439C73.1608 47.4525 73.1888 47.808 73.5445 47.9296C74.0686 48.1073 75.1823 47.0877 75.1074 46.5265C75.0044 45.7875 74.9015 45.0485 74.7892 44.3189C74.5739 42.8316 74.3587 41.3443 74.1434 39.857ZM71.2703 63.8129C71.2984 61.8859 70.8211 60.0151 70.6152 58.1162C70.4093 56.236 70.3438 54.3372 69.6794 52.5318C69.8478 56.3389 70.3157 60.1086 71.2703 63.8129ZM37.8787 18.9974C38.2156 19.0254 38.4776 19.0909 38.7116 19.0535C39.1046 18.988 39.6849 19.1096 39.7317 18.5016C39.7785 17.8655 39.2637 17.7813 38.7677 17.7439C38.0658 17.6971 37.3546 17.8375 36.6714 17.4727C36.269 17.2575 36.1473 17.6504 36.1847 18.0058C36.3064 19.1751 37.0832 19.1938 37.888 18.9974H37.8787ZM47.0314 17.5101C46.8723 17.5101 46.7132 17.5007 46.5635 17.5101C46.1517 17.5475 45.5715 17.4352 45.6651 18.1368C45.7399 18.6887 45.9365 19.1845 46.6852 19.0535C46.9191 19.0161 47.2092 19.0254 47.4245 19.1283C48.0515 19.4276 48.2293 19.0722 48.3042 18.5764C48.4446 17.5849 48.2574 17.4352 47.0408 17.5007L47.0314 17.5101ZM42.7826 19.1003C43.1101 19.0628 43.6342 19.2873 43.9618 18.8196C44.1489 18.5484 43.9618 18.2678 43.812 18.0339C43.5406 17.5943 41.697 17.5101 41.3788 17.9029C41.1261 18.221 41.3881 18.9412 41.8186 19.0441C42.09 19.1096 42.3802 19.0815 42.7826 19.1003ZM72.0939 53.8788C72.0939 52.5411 72.1033 51.2971 72.0939 50.0623C72.0939 49.7724 72.0939 49.3327 71.6727 49.3888C71.3545 49.4262 71.2329 49.8191 71.2516 50.1465C71.3078 50.8855 71.289 51.6432 71.5324 52.3541C71.7008 52.8592 71.4949 53.4953 72.0939 53.8881V53.8788ZM73.3948 30.9425C73.2544 30.98 72.8332 30.8958 72.9549 31.2512C73.0953 31.6722 73.114 32.3363 73.8065 32.2895C74.4897 32.2428 74.7611 32.5514 74.7798 33.1875C74.7798 33.3372 74.7985 33.5056 74.864 33.6365C74.9389 33.7955 75.0325 34.0294 75.2571 33.9546C75.4817 33.8797 75.4537 33.6272 75.3694 33.4775C74.967 32.7105 74.5552 31.9528 74.1247 31.2045C73.9937 30.9706 73.741 30.8958 73.3948 30.9425ZM67.0121 46.7884C66.9747 47.1906 66.9747 47.3777 66.9466 47.5554C66.7969 48.5189 67.5924 49.473 66.9653 50.4458C66.9373 50.4926 67.0122 50.6703 67.0496 50.6703C67.1993 50.689 67.3771 50.7077 67.4988 50.6329C67.8076 50.4552 67.7047 50.1465 67.6672 49.8659C67.6017 49.4637 67.452 49.0895 67.5924 48.6686C67.7983 48.0138 67.7515 47.4058 67.0215 46.7884H67.0121ZM56.5117 15.3212C56.5679 16.7337 56.2497 18.1929 57.0452 19.5305C56.7176 18.1368 57.3072 16.6682 56.5117 15.3212ZM64.6257 54.9732C64.869 53.6169 64.3917 52.3447 64.2046 51.0352C64.3449 52.3447 63.8583 53.7198 64.6257 54.9732ZM65.1872 39.0526C66.4413 39.3612 67.0496 39.3893 66.329 36.9479C66.4881 37.9301 66.0388 38.5849 65.1872 39.0526ZM54.9301 12.9359C54.9301 12.9359 54.7617 12.9078 54.6119 12.9078C54.3312 12.8985 54.0878 13.0014 54.0598 13.2914C54.0223 13.6842 54.3967 13.572 54.6026 13.6281C54.9395 13.7123 55.239 13.4223 55.6039 13.5346C55.8005 13.5907 56.0812 13.5907 56.1 13.282C56.1187 12.964 55.8286 13.0014 55.632 12.9827C55.4448 12.964 55.2577 12.964 54.9301 12.9453V12.9359ZM63.25 35.6757C63.1002 35.4232 63.3436 34.9274 62.9224 34.8432C62.6042 34.7777 62.5855 35.1706 62.6136 35.3951C62.651 35.6757 62.5668 36.0873 62.9505 36.1621C63.2593 36.2276 63.2312 35.9189 63.25 35.6757ZM57.0171 21.9533C57.1013 21.3453 57.1856 20.8869 57.0171 20.4379C56.9329 20.2134 56.7831 20.045 56.5211 20.204C56.2591 20.3631 56.5679 20.5221 56.5492 20.5782C56.4556 21.0833 56.8206 21.4201 57.0077 21.9533H57.0171Z" fill="black"/>
<path d="M24.0114 41.1599C23.9839 39.2484 24.9281 37.4002 26.6332 36.0051C27.9532 34.927 29.585 33.9395 31.2442 34.0029C35.7544 34.175 39.0454 37.1828 38.9995 41.8032C38.9629 45.8709 35.3327 49.1232 31.1434 48.9964C27.2015 48.8696 23.9014 45.4088 24.0023 41.169L24.0114 41.1599ZM37.0928 41.468C37.0928 40.2359 36.6528 39.0672 35.8186 38.0344C35.6536 37.826 35.5161 37.4908 35.1952 37.5814C34.9019 37.663 34.9019 37.9982 34.856 38.2699C34.5627 39.9188 33.1143 41.3955 31.5101 41.7216C30.9875 41.8303 30.4742 41.7216 29.9608 41.6491C29.4016 41.5676 29.1816 41.7216 29.2183 42.3196C29.3283 44.1768 30.1625 45.0012 32.0326 45.2639C32.9126 45.3907 33.8385 45.128 34.6635 45.4994C35.1127 45.6987 35.3785 45.5538 35.6261 45.2729C36.5519 44.2039 37.1478 43.0081 37.0928 41.468ZM30.7859 40.109C30.9234 40.0819 31.0792 40.0637 31.2259 40.0184C32.4634 39.6742 33.5085 38.0797 33.3435 36.8114C33.2793 36.2859 32.9768 36.5396 32.7568 36.6211C31.6842 37.0469 30.7492 37.6629 30.0433 38.587C29.805 38.9041 29.4933 39.2846 29.6491 39.647C29.8233 40.0909 30.3917 39.9459 30.8042 40.1L30.7859 40.109Z" fill="black"/>
<path d="M52.9941 39.1787C53.0487 40.5567 52.7395 41.0436 51.4664 41.5857C50.7389 41.898 50.0205 42.2196 49.3021 42.5503C48.7928 42.78 48.6019 43.1015 49.0111 43.6068C49.1657 43.7906 49.2748 44.0202 49.4021 44.2315C50.1296 45.4718 49.6204 46.6753 48.2563 46.9693C47.6107 47.1071 47.2196 46.7671 46.9377 46.2343C46.1284 44.6541 45.4009 43.0372 44.8553 41.3376C44.4643 40.1158 43.9823 38.9214 44.0005 37.5985C44.0005 36.8819 44.2733 36.3031 44.7644 35.8989C45.9375 34.9343 47.2924 34.282 48.7837 34.0431C49.8568 33.8686 50.6752 34.2177 51.4209 35.2007C52.3484 36.4226 52.885 37.6996 52.9941 39.197V39.1787ZM49.102 36.5971C48.32 36.7901 47.5561 37.1667 46.8104 37.5801C46.6286 37.6812 46.5831 37.9017 46.674 38.0671C47.1196 38.9306 47.0196 40.2995 47.8289 40.6394C48.4291 40.8966 49.3657 39.9871 50.066 39.4451C50.1114 39.4084 50.1569 39.3624 50.2115 39.3257C50.7934 39.0041 50.7025 38.5172 50.4661 38.0579C50.166 37.4607 50.0841 36.6431 49.1111 36.5879L49.102 36.5971Z" fill="black"/>
<path d="M57.4075 53.9763C53.6015 54.0638 49.8048 53.9106 45.9987 53.495C43.2774 53.1997 40.5374 53.0138 37.7881 53.1232C35.8243 53.1997 33.8043 53.495 31.9153 53.0466C30.3162 52.6747 28.9042 53.5716 27.3986 53.2216C26.3044 52.97 25.2103 53.145 24.1162 53.2544C23.4148 53.32 23.0501 52.7185 23.0033 52.0513C22.9472 51.2747 23.6112 51.4278 23.9946 51.395C26.5195 51.2419 29.0444 51.1216 31.588 51.1872C33.6921 51.2419 35.8056 50.9794 37.919 51.0013C41.7718 51.0232 45.6059 51.3951 49.4494 51.6247C52.1707 51.7888 54.892 51.7997 57.6133 51.8654C57.8003 51.8654 57.9873 51.8216 58.1744 51.8435C58.6794 51.8982 58.9599 52.2372 58.9973 52.8388C59.0253 53.3856 58.8383 53.7684 58.3427 53.8559C58.0341 53.9106 57.7161 53.9216 57.4075 53.9544V53.9763Z" fill="black"/>
<path d="M17.3791 66.0085C20.4987 66.2212 23.6276 66.4339 26.7473 66.6381C29.7466 66.8338 32.7366 67.0124 35.736 67.2081C40.3182 67.5059 44.9005 67.8037 49.4735 68.1185C50.39 68.178 51.0843 68.714 50.9917 69.1904C50.8899 69.7519 50.0938 70.0837 49.131 69.9816C46.7057 69.7179 44.2525 69.6243 41.8179 69.4542C36.8561 69.1138 31.885 68.8586 26.9232 68.4758C23.9516 68.2461 20.9801 68.0759 18.0086 67.8887C17.305 67.8462 16.6385 67.6165 15.9164 67.642C15.398 67.659 15 67.3442 15 66.8508C15 66.3233 15.361 66.0255 15.9627 66.0255C16.4256 66.0255 16.8977 66.0255 17.3606 66.0255C17.3606 66.0255 17.3606 66.0085 17.3606 66L17.3791 66.0085Z" fill="black"/>
<path d="M17.3184 70.0324C19.8625 70.1167 22.6778 70.3789 25.4931 70.5194C28.4674 70.6692 31.4324 70.9782 34.416 71.1281C37.9328 71.306 41.459 71.3996 44.9384 71.924C46.5378 72.1675 48.0997 71.8584 49.6804 72.0832C50.728 72.233 51.0928 72.514 50.9805 73.3005C50.887 73.956 50.5129 74.059 49.9891 73.9748C47.922 73.6283 45.8176 73.7594 43.7412 73.4785C42.4972 73.3099 41.1877 73.4316 39.9157 73.2818C37.2033 72.954 34.4628 73.0009 31.741 72.6263C30.4316 72.4484 29.0473 72.1581 27.7846 72.233C24.2772 72.4484 20.8539 71.6337 17.3745 71.6899C17.1875 71.6899 17.0004 71.6337 16.8227 71.5963C16.4299 71.512 15.8687 71.5026 16.0277 70.9314C16.1586 70.4913 16.2989 69.8264 17.3371 70.0418L17.3184 70.0324Z" fill="black"/>
</svg>
