<svg width="90" height="90" viewBox="0 0 90 90" fill="none" xmlns="http://www.w3.org/2000/svg">
<path d="M10.3927 26.3524L8.30418 31.2182L16.1943 54.8476L23.2926 74.1435L27.1637 79.8494L72.141 75.8691L76.1975 73.6263L75.0206 65.3917L79.4577 63.7655L78.8002 61.7964L61.5105 11.9792L59.6768 11.7207L34.5416 17.5597L12.4858 24.771L10.3927 26.3524Z" fill="white"/>
<path d="M72.0625 66.4759L75.0206 65.3917M75.0206 65.3917L79.4577 63.7655L78.8002 61.7964L61.5105 11.9792L59.6768 11.7207L34.5416 17.5597L12.4858 24.771L10.3927 26.3524L8.30418 31.2182L16.1943 54.8476L23.2926 74.1435L27.1637 79.8494L72.141 75.8691L76.1975 73.6263L75.0206 65.3917Z" stroke="black"/>
<path d="M23.0112 21.0026C23.0112 21.0026 23.1826 20.8485 23.1615 20.7329C22.9873 19.7793 23.7704 19.7301 24.3229 19.5265C26.3166 18.7846 28.3774 18.2305 30.3961 17.5766C32.1399 17.0153 33.8443 16.3359 35.6381 15.9506C38.5488 15.338 41.4055 14.5113 44.3176 13.8895C46.7569 13.37 49.1857 12.7927 51.6039 12.1576C54.5956 11.3687 57.5753 10.4655 60.6724 10.1231C61.9636 9.98608 62.5666 10.3526 62.8814 11.6358C63.1079 12.5498 63.5347 13.3701 63.8607 14.2419C64.8032 16.7116 65.6567 19.2155 66.501 21.7182C66.931 22.9801 67.077 24.3989 67.6169 25.5449C68.1961 26.7433 68.7518 27.976 69.0928 29.2065C69.8562 31.9511 71.193 34.4763 71.8582 37.2541C72.3219 39.2058 73.0881 41.0687 73.7652 42.9659C75.0852 46.6712 76.404 50.3857 77.5657 54.1532C78.3353 56.6547 79.1495 59.1719 80.291 61.557C80.6246 62.2421 80.2293 63.3876 79.4572 63.8231C78.6968 64.2414 77.9193 64.648 77.1025 64.9364C76.2254 65.2538 76.3206 65.9711 76.4773 66.5187C77.03 68.436 77.2304 70.3975 77.3641 72.3683C77.4656 73.7715 75.7979 75.3852 74.0984 75.765C72.3687 76.1593 70.6021 76.2857 68.8524 76.4238C65.8063 76.6701 62.8342 77.3867 59.8091 77.6829C55.7887 78.0734 51.7524 78.3115 47.7505 78.836C44.0538 79.319 40.3662 79.8033 36.6654 80.1826C33.4203 80.5134 30.1639 80.2609 26.9219 79.9728C26.5709 79.9421 26.2027 79.8338 26.0424 79.5109C25.3332 78.1065 23.8561 77.3071 23.2398 75.8407C23.1359 75.582 22.8672 75.3658 22.8367 75.1175C22.7412 74.2689 22.1423 74.0061 21.4597 73.8067C20.3813 73.4951 19.3473 73.0678 18.4557 72.3603C16.076 70.467 15.5565 67.9819 16.987 65.3307C17.0628 65.1912 17.1254 65.0124 17.238 64.9438C18.3752 64.2407 18.0688 63.3623 17.685 62.3697C17.3288 61.4468 17.1113 60.4683 16.8638 59.5043C16.7058 58.9002 16.3989 58.6223 15.7216 58.5175C13.2693 58.1342 10.402 56.0502 10.4907 52.9658C10.5446 51.1903 11.1777 49.6185 12.4556 48.3816C12.8886 47.964 12.985 47.6116 12.7787 47.0851C12.6551 46.7674 12.5905 46.4298 12.5258 46.0923C12.3438 45.1938 11.8678 44.7232 10.9244 44.4494C9.27081 43.9723 7.75955 43.1493 6.8615 41.5587C5.75338 39.6007 5.9944 36.763 7.42749 35.0224C8.03682 34.2825 8.21274 33.6316 7.55281 32.8066C6.80498 31.8753 6.93061 30.8513 7.44918 29.8264C8.10882 28.5305 8.5155 27.1051 9.51331 25.9976C9.7448 25.7487 9.971 25.4709 10.2655 25.3059C10.8047 24.9972 11.3676 24.7856 11.6037 24.1056C11.7133 23.7926 12.1112 23.6235 12.4464 23.5675C14.4996 23.2 16.3029 22.0841 18.3324 21.6194C18.9124 21.4853 19.5341 21.1882 20.114 20.9227C20.5433 20.7298 20.9842 20.3885 21.5099 20.7065C21.5793 20.7445 21.7352 20.7665 21.76 20.723C22.5654 19.6541 22.4888 21.1261 23.0178 21.0223L23.0112 21.0026ZM50.0929 71.6397C49.2835 72.6048 48.1352 72.8559 46.9842 73.0597C44.952 73.4113 42.9001 73.7696 40.881 74.1607C38.0737 74.7034 35.3271 75.6113 32.562 76.3852C31.745 76.6079 30.87 76.5127 30.0936 76.7129C27.4331 77.4078 26.6628 76.3044 25.7657 74.5075C24.962 72.9115 24.4606 71.161 23.4958 69.6454C23.3816 69.4604 23.1848 69.198 23.4256 69.0818C23.927 68.8428 24.4649 68.6089 25.0032 68.5722C25.438 68.5396 25.588 69.0676 25.7418 69.4365C25.9599 69.9458 25.907 70.5202 26.1893 71.0386C26.729 72.0532 27.2464 73.0927 27.6474 74.1628C27.9129 74.8665 28.3336 75.0666 28.9871 75.0085C30.6909 74.8639 32.3748 74.5289 33.9745 73.9942C36.7342 73.06 39.5531 72.3688 42.4103 71.8706C46.3412 71.186 50.2669 70.5381 54.1596 69.6604C58.3796 68.7162 62.5207 67.5356 66.6789 66.3669C70.2923 65.3466 73.7756 63.9231 77.3365 62.7453C78.2791 62.4277 78.4488 62.0199 77.9918 61.1484C77.7843 60.7625 77.6057 60.3714 77.4781 59.9498C76.6611 57.3196 75.3702 54.8666 74.8805 52.1042C74.6099 50.5739 73.7435 49.1567 73.2726 47.6545C72.1004 43.895 70.6338 40.2347 69.5415 36.4395C68.3886 32.4106 66.856 28.4876 65.478 24.5302C64.1078 20.5832 62.718 16.6428 61.3282 12.7025C61.2072 12.3664 61.0744 11.9816 60.5585 12.0591C59.6694 12.1965 58.7499 12.2171 57.8924 12.4622C54.8877 13.3431 51.8541 14.0979 48.7968 14.7555C44.9473 15.5924 41.1189 16.5449 37.272 17.3634C34.2251 18.0131 31.2953 19.0266 28.3589 20.0203C26.6203 20.6105 24.7698 20.7344 23.0918 21.4926C22.6219 21.7079 22.1694 22.1978 21.6041 21.6301C21.4572 21.478 21.3225 21.6373 21.2717 21.7991C21.1192 22.3501 20.6255 22.4025 20.1975 22.5861C19.5508 22.861 18.8569 23.0072 18.1892 23.2321C16.7335 23.7401 15.3802 24.516 13.8719 24.8664C13.5433 24.9421 13.2409 25.0966 12.9307 25.2405C12.6899 25.3567 12.1418 24.9323 12.2265 25.5918C12.265 25.9162 12.5142 26.2048 12.6286 26.5212C12.6615 26.6197 12.604 26.7617 12.5688 26.8787C12.3914 27.4074 12.4694 27.9158 12.6195 28.4437C12.9564 29.6361 13.2946 30.8193 13.5936 32.0158C13.7147 32.4833 13.9495 32.7416 14.3755 32.9706C15.2615 33.4521 16.1973 33.9125 16.7304 34.8416C16.9772 35.28 17.4325 35.8978 16.8344 36.2264C16.3881 36.4732 15.7166 36.7258 15.1576 35.9807C14.1367 34.598 12.6981 34.1888 11.0183 34.6277C10.4356 34.7802 10.3181 35.017 10.5323 35.5539C10.9292 36.5202 11.2554 37.5234 11.6719 38.483C12.342 40.0321 12.4322 41.8466 13.7908 43.0892C13.9482 43.2334 14.0052 43.6919 13.9033 43.884C13.28 44.988 14.3209 45.6978 14.5121 46.5975C14.6505 47.2739 15.306 46.7375 15.7278 46.797C15.9295 46.8254 16.1795 46.6448 16.0599 46.3652C15.8983 45.9858 15.9866 45.4915 15.7845 45.2002C14.7228 43.6429 14.66 41.7665 14.0774 40.0609C13.9788 39.7654 13.8985 39.4726 13.8588 39.1573C13.7859 38.5464 14.1158 38.3958 14.6342 38.2343C15.2692 38.0423 15.2607 38.5666 15.3645 38.8252C15.6524 39.5696 15.9455 40.343 16.0684 41.1298C16.3049 42.6365 17.162 43.921 17.3959 45.4461C17.4725 45.9637 17.7606 46.8396 18.4237 47.1113C19.7565 47.6746 20.5974 48.6753 21.2867 49.8892C21.6083 50.4601 21.5042 50.9334 21.2417 51.4689C21.0824 51.803 20.8914 51.9638 20.5403 51.933C19.977 51.8818 19.7983 51.4249 19.6065 50.9944C18.9115 49.423 17.8576 48.8052 16.1156 48.8224C15.3285 48.8335 15.1416 49.098 15.5066 49.7595C15.7075 50.1257 15.8939 50.4616 15.2719 50.5617C14.8595 50.6349 15.1139 50.8866 15.1377 51.0495C15.1562 51.1835 15.0269 51.4374 15.4027 51.359C16.0954 51.222 16.3253 51.7143 16.4164 52.262C16.5524 53.0883 16.9006 53.8694 17.0209 54.6746C17.2205 56.0448 18.7817 56.9781 18.2207 58.5694C18.2155 58.6062 18.2915 58.6639 18.3204 58.7242C18.6816 59.4133 18.9733 60.1301 19.0491 60.9197C19.1102 61.5477 19.3271 62.132 19.6526 62.6753C19.8797 63.0545 20.2243 63.1312 20.6131 62.9608C21.0202 62.793 21.0486 62.5248 20.8791 62.1349C20.7162 61.7647 20.6318 61.3681 20.537 60.9793C19.9102 58.526 18.8644 56.192 18.4052 53.6779C18.3695 53.4664 18.2318 53.3156 18.4739 53.1245C19.2314 52.5275 19.9415 52.7308 19.9585 53.6716C19.9674 54.4049 20.4932 54.8544 20.6081 55.4994C20.8258 56.675 21.1574 57.8385 21.4747 58.9718C21.7708 60.0552 22.0174 61.2255 22.7181 62.2252C23.0607 62.7146 23.2433 63.1439 23.8984 63.3395C24.986 63.6523 25.7977 64.3955 26.1044 65.5367C26.269 66.1605 25.7773 66.7293 25.367 66.4557C24.9147 66.1479 24.3593 66.1072 23.9331 65.6811C23.2931 65.0466 22.431 64.8593 21.5195 64.8904C20.8803 64.9129 20.6737 65.1184 20.9299 65.7551C21.4687 67.0417 21.8766 68.3942 22.5253 69.6306C22.96 70.4614 23.0021 71.556 24.0623 72.062C24.4568 72.249 24.4432 72.8102 24.2133 73.247C24.0317 73.6062 24.0714 73.9215 24.2318 74.31C24.89 75.8105 26.2181 76.7391 27.2282 77.9326C27.3161 78.0388 27.4982 78.0739 27.6436 78.1037C29.0165 78.316 30.4272 78.3929 31.8025 78.3897C34.3944 78.3797 36.9941 78.2488 39.5764 77.9089C42.3015 77.5517 45.0359 77.2614 47.7597 76.9134C49.6938 76.6605 51.6347 76.5587 53.5663 76.3242C56.535 75.9638 59.5353 75.7768 62.4894 75.2547C65.6739 74.6901 68.8849 74.3357 72.1001 74.1507C73.1373 74.0905 74.0983 73.8412 74.9386 73.3871C76.161 72.743 75.1326 71.6127 75.2518 70.7004C75.2778 70.5164 75.2579 70.3259 75.2367 70.1446C75.0491 68.9544 74.995 67.7456 74.7223 66.5622C74.5707 65.9121 74.2053 65.9169 73.7838 66.0546C72.4079 66.5269 71.0386 67.019 69.6179 67.3443C68.6032 67.5766 67.7988 68.3735 66.8194 68.5545C65.4078 68.8154 64.0686 69.2929 62.6821 69.6418C61.0441 70.049 59.3773 70.3959 57.7407 70.794C55.5803 71.3246 53.4147 71.8264 51.2372 72.2796C50.3691 72.467 50.352 72.3895 50.0864 71.62L50.0929 71.6397ZM13.6723 50.2329C13.5886 50.2962 13.4551 50.3806 13.3649 50.4899C11.8768 52.2884 12.8241 55.3875 15.053 56.0958C15.5011 56.2341 15.6032 56.1734 15.5213 55.6926C15.2281 53.9245 14.5539 52.2716 14.0159 50.5817C13.9712 50.4346 13.9173 50.2862 13.6723 50.2329ZM9.08855 30.4704C9.03072 31.2787 9.194 31.9118 9.39525 32.5407C9.48472 32.8349 9.68127 32.9001 9.97323 32.8193C10.4773 32.6933 10.9971 32.5883 11.5144 32.5016C11.936 32.4297 12.055 32.3151 11.9273 31.8278C11.5928 30.4856 10.9768 29.2163 10.8937 27.8157C10.8896 27.7119 10.8003 27.5491 10.7282 27.5296C10.5671 27.4787 10.4363 27.6104 10.3684 27.7604C9.91651 28.7102 9.47381 29.6614 9.08595 30.4889L9.08855 30.4704ZM8.22304 38.269C8.1561 40.0708 8.79591 41.503 10.6474 42.1018C11.1217 42.2531 11.1266 41.9535 11.0201 41.6476C10.6032 40.4251 10.2047 39.2053 9.70924 38.0093C9.51474 37.5314 9.41919 36.617 8.92817 36.7167C8.37037 36.8258 8.40961 37.7416 8.22304 38.269ZM21.5755 71.3924C20.8947 70.5832 20.7062 69.7308 20.3397 68.9471C19.9732 68.1635 19.8136 67.3057 19.3672 66.5578C19.0718 66.0657 18.9868 66.1381 18.7032 66.558C17.566 68.2558 19.139 71.0959 21.5755 71.3924Z" fill="black"/>
<path d="M27.66 32.4121C27.7168 32.1982 27.7507 31.7685 28.1629 31.8081C28.6897 31.8546 29.0897 32.1699 29.2297 32.7536C29.4323 33.5864 29.6536 34.4127 29.8388 35.2431C29.9872 35.8927 30.2508 36.0408 30.7917 35.6086C31.0928 35.3645 31.4931 35.236 31.7458 34.9573C32.0309 34.6369 32.1284 34.1976 31.867 33.7817C31.4669 33.1521 31.3735 32.4271 31.2789 31.7111C31.2012 31.127 31.4743 30.7032 31.9854 30.6088C32.5326 30.5103 32.9137 30.8969 32.9142 31.4609C32.9181 32.1271 33.1777 32.6814 33.3974 33.2671C33.9579 34.7144 34.2402 36.2426 34.5887 37.7432C34.8144 38.7273 35.2847 39.6164 35.4943 40.5889C35.6499 41.3135 35.3545 41.7064 34.7255 41.6917C34.5399 41.684 34.3194 41.6714 34.2665 41.479C33.9418 40.3146 32.9945 39.4045 33.059 38.0638C33.0766 37.6872 32.759 37.2912 32.5723 36.9135C32.5302 36.8336 32.3884 36.7674 32.2825 36.7617C31.6573 36.7198 30.6986 37.9715 30.8396 38.6108C31.0469 39.5367 31.5348 40.3636 31.6211 41.328C31.6631 41.787 31.7958 42.2957 31.2009 42.4799C30.5799 42.6605 30.2562 42.245 30.0812 41.7211C29.6028 40.3224 29.1157 38.9224 28.7021 37.5051C28.3132 36.1652 28.044 34.796 27.6825 33.4507C27.6026 33.1344 27.6522 32.8455 27.6574 32.4302L27.66 32.4121Z" fill="black"/>
<path d="M28.4009 36.6712C28.0876 38.1284 27.235 39.2366 26.0301 40.0612C25.379 40.5056 25.4009 40.9766 25.6539 41.6168C26.0396 42.5681 26.4034 43.5358 26.6862 44.5213C26.7903 44.8967 26.9514 45.5628 26.3212 45.6495C25.7515 45.7252 25.1224 45.6657 24.8949 44.844C24.193 42.2395 23.3085 39.6775 22.726 37.0606C22.5342 36.1952 22.2615 35.4158 21.8886 34.6515C21.5214 33.9173 21.7961 33.4296 22.3964 32.9975C23.9124 31.9146 26.1849 32.2837 27.2766 33.7927C27.8997 34.6605 28.5653 35.505 28.4105 36.6726L28.4009 36.6712ZM26.364 37.0665C26.5634 35.6517 26.1369 34.8507 25.0877 34.3616C24.352 34.0141 23.7844 34.3533 23.9211 35.1233C24.0925 36.0639 24.3944 36.9838 24.6468 37.9066C24.7634 38.3325 25.0986 38.3895 25.4029 38.1789C25.8703 37.8549 26.2633 37.4325 26.3544 37.0652L26.364 37.0665Z" fill="black"/>
<path d="M43.0326 35.411C42.903 36.1218 43.0643 36.8539 42.8153 37.5775C42.4584 38.6504 41.5553 39.5676 40.6018 39.5908C39.6785 39.6085 38.4413 38.5177 38.0946 37.5722C37.6929 36.4613 37.0416 35.4532 36.91 34.2326C36.8282 33.492 36.3652 32.8158 36.9173 32.0266C37.1145 31.7391 36.6928 31.2559 36.7459 30.8102C36.8846 29.6178 37.5562 29.0228 38.7102 29.2446C42.2175 29.936 43.2156 32.0277 43.023 35.4096L43.0326 35.411ZM41.1074 36.3515C41.434 35.0772 41.0967 33.9951 40.8226 32.9515C40.6505 32.2966 40.1574 31.764 39.4588 31.5079C38.6944 31.2327 38.3366 31.4778 38.3855 32.3124C38.4802 33.7248 38.7561 35.1037 39.3391 36.388C39.5715 36.8936 39.8342 37.6007 40.5091 37.5382C41.2622 37.4768 40.9211 36.6307 41.1074 36.3515Z" fill="black"/>
<path d="M55.1938 32.1402C54.7637 33.1433 54.7207 34.5035 53.4536 35.1153C52.2321 35.7141 50.9541 35.3485 50.3693 34.0364C49.6462 32.4024 49.5071 30.5969 49.6108 28.8062C49.668 27.7798 50.5718 27.2631 51.3195 26.8611C52.9101 26.0021 53.5052 26.3104 54.4467 27.946C55.1782 29.2104 55.2566 30.5779 55.1852 32.139L55.1938 32.1402ZM53.4185 32.0754C53.3851 31.3193 53.4163 30.6015 53.2937 29.9206C53.1963 29.3702 52.9473 28.7788 52.415 28.6452C51.993 28.5369 51.717 29.0055 51.4789 29.3915C51.0816 30.0382 51.4509 32.7544 52.0402 33.2278C52.3392 33.4651 52.6074 33.6103 52.854 33.2254C53.0894 32.8585 53.2544 32.4329 53.4271 32.0766L53.4185 32.0754Z" fill="black"/>
<path d="M58.4598 23.3496C58.9036 23.3671 59.0539 23.8841 59.1816 24.2446C59.3168 24.6152 58.8443 24.7379 58.543 24.8486C56.9905 25.414 56.8022 26.3699 58.0505 27.5194C58.8085 28.2212 59.609 28.8748 60.377 29.569C61.8029 30.8517 62.5107 33.8088 60.141 35.2956C59.8573 35.4719 59.536 35.5348 59.2122 35.5522C58.7271 35.574 58.4532 35.301 58.2992 34.8737C58.1327 34.4085 58.3726 34.1629 58.7351 33.9346C60.1937 33.0225 60.3107 32.1286 59.0536 30.8517C58.0141 29.8038 56.7522 29.004 55.9652 27.6852C55.1781 26.3664 55.6385 24.3671 56.9559 23.6334C57.3821 23.396 57.8471 23.3263 58.451 23.3484L58.4598 23.3496Z" fill="black"/>
<path d="M46.897 25.6903C47.2456 25.7394 47.5449 26.0087 47.6214 26.4357C47.6992 26.8535 47.4617 27.2457 47.0795 27.3054C46.2296 27.4505 46.2634 28.0513 46.3611 28.6516C46.7706 31.1785 47.2465 33.6864 48.2262 36.0477C48.3478 36.3487 48.3686 36.6543 48.379 36.968C48.3889 37.4803 48.0407 37.6867 47.6647 37.8323C47.2874 37.9873 47.048 37.7454 46.8344 37.4504C46.4224 36.8814 46.2713 36.2073 46.1292 35.5345C45.728 33.5953 44.8641 31.7707 44.9373 29.6997C44.9501 29.2852 44.5669 28.9001 44.4661 28.4507C44.3805 28.0886 44.0515 28.2882 43.7869 28.3549C43.1234 28.5358 42.4352 28.8266 41.8743 28.0853C41.5055 27.5982 41.6351 27.0015 42.0569 26.919C43.6098 26.6365 45.0228 25.795 46.6147 25.6883C46.6786 25.6879 46.7335 25.6862 46.8881 25.689L46.897 25.6903Z" fill="black"/>
</svg>
